G04 ================== begin FILE IDENTIFICATION RECORD ==================*
G04 Layout Name:  D:/wangmin/2011/MAY/DSPDB/pcb/FINAL/dspdb.brd*
G04 Film Name:    art10*
G04 File Format:  Gerber RS274X*
G04 File Origin:  15.51-s011*
G04 Origin Date:  Mon Jul 04 18:33:08 2011*
G04 ================== end FILE IDENTIFICATION RECORD ====================*
%FSAX55Y55*MOIN*%
%IR0*IPPOS*OFA0.00000B0.00000*MIA0B0*SFA1.00000B1.00000*%
%ADD27C,.02*%
%ADD19R,.68X.02*%
%ADD17C,.022*%
%ADD14C,.04*%
%ADD15C,.06*%
%ADD31C,.016*%
%ADD25C,.062*%
%ADD28C,.09*%
%ADD18C,.036*%
%ADD11R,.03X.03*%
%ADD16R,.06X.06*%
%ADD26R,.062X.062*%
%ADD29R,.09X.09*%
%ADD23R,.025X.02*%
%ADD30R,.04X.05*%
%ADD22R,.02X.025*%
%ADD21R,.016X.022*%
%ADD24R,.035X.031*%
%ADD10R,.022X.016*%
%ADD13C,.22*%
%ADD12R,.031X.035*%
%ADD20R,.016X.055*%
%ADD32C,.021*%
%ADD33C,.012*%
%ADD34C,.015*%
%ADD35C,.005*%
%ADD36C,.006*%
%ADD43C,.03204*%
%ADD45C,.06004*%
%ADD37C,.04204*%
%ADD44C,.02504*%
%ADD42C,.08204*%
%ADD39R,.11002X.11004*%
%ADD41R,.11004X.11004*%
%ADD38C,.11004*%
%ADD40R,.08204X.08204*%
G75*
%LPD*%
G75*
G36*
G01X0000008087Y0000088872D02*
G03X0000008087Y0000096128I0000001913J0000003628D01*
G02X0000007500Y0000096482I-0000000187J0000000354D01*
G01X0000007500Y0000098518D01*
G02X0000008087Y0000098872I0000000400J0D01*
G03X0000008087Y0000106128I0000001913J0000003628D01*
G02X0000007500Y0000106482I-0000000187J0000000354D01*
G01X0000007500Y0000108518D01*
G02X0000008087Y0000108872I0000000400J0D01*
G03X0000008087Y0000116128I0000001913J0000003628D01*
G02X0000007500Y0000116482I-0000000187J0000000354D01*
G01X0000007500Y0000118518D01*
G02X0000008087Y0000118872I0000000400J0D01*
G03X0000008087Y0000126128I0000001913J0000003628D01*
G02X0000007500Y0000126482I-0000000187J0000000354D01*
G01X0000007500Y0000128518D01*
G02X0000008087Y0000128872I0000000400J0D01*
G03X0000010061Y0000136602I0000001913J0000003628D01*
G02X0000009784Y0000137284I0000000006J0000000400D01*
G01X0000011029Y0000138529D01*
X0000011080Y0000138543D01*
G03X0000013957Y0000141420I-0000001080J0000003957D01*
G01X0000013971Y0000141471D01*
X0000015000Y0000142500D01*
X0000015894Y0000142500D01*
X0000015902Y0000142309D01*
G03X0000024098Y0000142309I0000004098J0000000191D01*
G01X0000024106Y0000142500D01*
X0000035000Y0000142500D01*
X0000037398Y0000144898D01*
X0000038974Y0000144898D01*
X0000038974Y0000145000D01*
X0000067500Y0000145000D01*
X0000072500Y0000140000D01*
X0000072500Y0000112500D01*
X0000070000Y0000110000D01*
X0000041360Y0000110000D01*
G02X0000041143Y0000110736I0J0000000400D01*
G03X0000039568Y0000110443I-0000001143J0000001764D01*
G02X0000039769Y0000109769I-0000000082J-0000000391D01*
G01X0000037500Y0000107500D01*
X0000037500Y0000091500D01*
X0000042500Y0000086500D01*
X0000042500Y0000075000D01*
X0000042945Y0000074555D01*
X0000042958Y0000074501D01*
G03X0000044501Y0000072958I0000002042J0000000499D01*
G01X0000044555Y0000072945D01*
X0000050000Y0000067500D01*
X0000095000Y0000067500D01*
X0000112945Y0000049555D01*
X0000112958Y0000049501D01*
G03X0000114501Y0000047958I0000002042J0000000499D01*
G01X0000114555Y0000047945D01*
X0000115000Y0000047500D01*
X0000142500Y0000047500D01*
X0000145000Y0000050000D01*
X0000145000Y0000097500D01*
X0000145445Y0000097945D01*
X0000145499Y0000097958D01*
G03X0000147042Y0000099501I-0000000499J0000002042D01*
G01X0000147055Y0000099555D01*
X0000147500Y0000100000D01*
X0000147500Y0000107500D01*
X0000145000Y0000110000D01*
X0000112500Y0000110000D01*
X0000110000Y0000112500D01*
X0000110000Y0000142500D01*
X0000100000Y0000152500D01*
X0000045000Y0000152500D01*
X0000035000Y0000162500D01*
X0000035000Y0000182500D01*
X0000040000Y0000187500D01*
X0000040000Y0000227500D01*
X0000037500Y0000230000D01*
X0000025000Y0000230000D01*
X0000022500Y0000227500D01*
X0000022500Y0000226474D01*
X0000022398Y0000226474D01*
X0000022398Y0000218526D01*
X0000022500Y0000218526D01*
X0000022500Y0000196474D01*
X0000022398Y0000196474D01*
X0000022398Y0000188526D01*
X0000022500Y0000188526D01*
X0000022500Y0000160000D01*
X0000020000Y0000157500D01*
X0000012500Y0000157500D01*
X0000010000Y0000160000D01*
X0000010000Y0000248394D01*
X0000010191Y0000248402D01*
G03X0000010191Y0000256598I-0000000191J0000004098D01*
G01X0000010000Y0000256606D01*
X0000010000Y0000258394D01*
X0000010191Y0000258402D01*
G03X0000010191Y0000266598I-0000000191J0000004098D01*
G01X0000010000Y0000266606D01*
X0000010000Y0000268394D01*
X0000010191Y0000268402D01*
G03X0000010191Y0000276598I-0000000191J0000004098D01*
G01X0000010000Y0000276606D01*
X0000010000Y0000278394D01*
X0000010191Y0000278402D01*
G03X0000010191Y0000286598I-0000000191J0000004098D01*
G01X0000010000Y0000286606D01*
X0000010000Y0000288394D01*
X0000010191Y0000288402D01*
G03X0000010191Y0000296598I-0000000191J0000004098D01*
G01X0000010000Y0000296606D01*
X0000010000Y0000297500D01*
X0000020000Y0000307500D01*
X0000039500Y0000307500D01*
X0000055000Y0000323000D01*
X0000055000Y0000340000D01*
X0000060000Y0000345000D01*
X0000127500Y0000345000D01*
X0000130000Y0000342500D01*
X0000130000Y0000334694D01*
X0000129985Y0000334657D01*
G03X0000129985Y0000330343I0000005170J-0000002157D01*
G01X0000130000Y0000330306D01*
X0000130000Y0000305000D01*
X0000140000Y0000295000D01*
X0000180000Y0000295000D01*
X0000182500Y0000292500D01*
X0000182500Y0000280000D01*
X0000210000Y0000252500D01*
X0000232500Y0000252500D01*
X0000235000Y0000250000D01*
X0000235000Y0000207110D01*
X0000234817Y0000207094D01*
G03X0000234817Y0000202906I0000000183J-0000002094D01*
G01X0000235000Y0000202890D01*
X0000235000Y0000142500D01*
X0000230102Y0000137602D01*
X0000228526Y0000137602D01*
X0000228526Y0000137252D01*
X0000225000Y0000137252D01*
G03X0000224007Y0000137021I0J-0000002252D01*
G01X0000223965Y0000137000D01*
X0000218000Y0000137000D01*
X0000210000Y0000145000D01*
X0000205000Y0000145000D01*
X0000200000Y0000150000D01*
X0000200000Y0000177890D01*
X0000200183Y0000177906D01*
G03X0000200183Y0000182094I-0000000183J0000002094D01*
G01X0000200000Y0000182110D01*
X0000200000Y0000182780D01*
X0000200002Y0000182780D01*
X0000200002Y0000192220D01*
X0000200000Y0000192220D01*
X0000200000Y0000220000D01*
X0000197500Y0000222500D01*
X0000184500Y0000222500D01*
X0000182500Y0000220500D01*
X0000154500Y0000220500D01*
X0000137500Y0000237500D01*
X0000136360Y0000237500D01*
G02X0000136143Y0000238236I0J0000000400D01*
G03X0000133857Y0000238236I-0000001143J0000001764D01*
G02X0000133640Y0000237500I-0000000217J-0000000336D01*
G01X0000122500Y0000237500D01*
X0000115000Y0000245000D01*
X0000115000Y0000272500D01*
X0000112500Y0000275000D01*
X0000070000Y0000275000D01*
X0000067500Y0000272500D01*
X0000067500Y0000252500D01*
X0000057500Y0000242500D01*
X0000057500Y0000210000D01*
X0000057945Y0000209555D01*
X0000057958Y0000209501D01*
G03X0000059501Y0000207958I0000002042J0000000499D01*
G01X0000059555Y0000207945D01*
X0000060000Y0000207500D01*
X0000070000Y0000207500D01*
X0000072763Y0000204737D01*
X0000072773Y0000204672D01*
G03X0000074672Y0000202773I0000002227J0000000328D01*
G01X0000074737Y0000202763D01*
X0000075200Y0000202300D01*
X0000075003Y0000202103D01*
X0000074924Y0000202101D01*
G03X0000077057Y0000199568I0000000076J-0000002101D01*
G02X0000077731Y0000199769I0000000391J-0000000082D01*
G01X0000079769Y0000197731D01*
G02X0000079568Y0000197057I-0000000283J-0000000283D01*
G03X0000081764Y0000193857I0000000432J-0000002057D01*
G02X0000082500Y0000193640I0000000336J-0000000217D01*
G01X0000082500Y0000190000D01*
X0000092945Y0000179555D01*
X0000092958Y0000179501D01*
G03X0000094501Y0000177958I0000002042J0000000499D01*
G01X0000094555Y0000177945D01*
X0000095000Y0000177500D01*
X0000105000Y0000177500D01*
X0000105445Y0000177945D01*
X0000105499Y0000177958D01*
G03X0000107042Y0000179501I-0000000499J0000002042D01*
G01X0000107055Y0000179555D01*
X0000107269Y0000179769D01*
G02X0000107943Y0000179568I0000000283J-0000000283D01*
G03X0000108236Y0000181143I0000002057J0000000432D01*
G02X0000107500Y0000181360I-0000000336J0000000217D01*
G01X0000107500Y0000187500D01*
X0000110000Y0000190000D01*
X0000145000Y0000190000D01*
X0000150000Y0000185000D01*
X0000177500Y0000185000D01*
X0000180000Y0000182500D01*
X0000180000Y0000154302D01*
X0000166084Y0000154302D01*
X0000166038Y0000154328D01*
G03X0000166038Y0000150672I-0000001038J-0000001828D01*
G01X0000166084Y0000150698D01*
X0000180000Y0000150698D01*
X0000180000Y0000145000D01*
X0000177500Y0000142500D01*
X0000177500Y0000140000D01*
X0000167500Y0000130000D01*
X0000167500Y0000110878D01*
X0000167357Y0000110835D01*
G03X0000167357Y0000103165I0000001143J-0000003835D01*
G01X0000167500Y0000103122D01*
X0000167500Y0000100878D01*
X0000167357Y0000100835D01*
G03X0000167357Y0000093165I0000001143J-0000003835D01*
G01X0000167500Y0000093122D01*
X0000167500Y0000093000D01*
X0000176500Y0000084000D01*
X0000176500Y0000081000D01*
X0000182500Y0000075000D01*
X0000202890Y0000075000D01*
X0000202906Y0000074817D01*
G03X0000207094Y0000074817I0000002094J0000000183D01*
G01X0000207110Y0000075000D01*
X0000215000Y0000075000D01*
X0000217500Y0000072500D01*
X0000217500Y0000042500D01*
X0000220000Y0000040000D01*
X0000232500Y0000040000D01*
X0000235000Y0000042500D01*
X0000235000Y0000105000D01*
X0000237500Y0000107500D01*
X0000253640Y0000107500D01*
G02X0000253857Y0000106764I0J-0000000400D01*
G03X0000256143Y0000106764I0000001143J-0000001764D01*
G02X0000256360Y0000107500I0000000217J0000000336D01*
G01X0000260000Y0000107500D01*
X0000262500Y0000105000D01*
X0000262500Y0000092500D01*
X0000267218Y0000087782D01*
X0000267218Y0000084718D01*
X0000265001Y0000082502D01*
X0000262780Y0000082502D01*
X0000262780Y0000082500D01*
X0000262500Y0000082500D01*
X0000260000Y0000080000D01*
X0000260000Y0000072500D01*
X0000262500Y0000070000D01*
X0000277500Y0000070000D01*
X0000280000Y0000072500D01*
X0000280000Y0000080850D01*
G02X0000280683Y0000081133I0000000400J0D01*
G01X0000285288Y0000076528D01*
X0000285288Y0000045002D01*
X0000285173Y0000044948D01*
G03X0000289905Y0000044948I0000002366J-0000004968D01*
G01X0000289790Y0000045002D01*
X0000289790Y0000078394D01*
X0000280000Y0000088184D01*
X0000280000Y0000095000D01*
X0000282500Y0000097500D01*
X0000285243Y0000097500D01*
X0000285282Y0000097482D01*
G03X0000289796Y0000097482I0000002257J0000005018D01*
G01X0000289835Y0000097500D01*
X0000297724Y0000097500D01*
X0000297763Y0000097482D01*
G03X0000302277Y0000097482I0000002257J0000005018D01*
G01X0000302316Y0000097500D01*
X0000310204Y0000097500D01*
X0000310243Y0000097482D01*
G03X0000314757Y0000097482I0000002257J0000005018D01*
G01X0000314796Y0000097500D01*
X0000322684Y0000097500D01*
X0000322723Y0000097482D01*
G03X0000327237Y0000097482I0000002257J0000005018D01*
G01X0000327276Y0000097500D01*
X0000335165Y0000097500D01*
X0000335204Y0000097482D01*
G03X0000339718Y0000097482I0000002257J0000005018D01*
G01X0000339757Y0000097500D01*
X0000350000Y0000097500D01*
X0000352500Y0000100000D01*
X0000352500Y0000118640D01*
G02X0000353236Y0000118857I0000000400J0D01*
G03X0000353236Y0000121143I0000001764J0000001143D01*
G02X0000352500Y0000121360I-0000000336J0000000217D01*
G01X0000352500Y0000132500D01*
X0000362500Y0000142500D01*
X0000362500Y0000143640D01*
G02X0000363236Y0000143857I0000000400J0D01*
G03X0000363236Y0000146143I0000001764J0000001143D01*
G02X0000362500Y0000146360I-0000000336J0000000217D01*
G01X0000362500Y0000152500D01*
X0000366948Y0000156948D01*
X0000371244Y0000156948D01*
X0000371244Y0000157500D01*
X0000375000Y0000157500D01*
X0000377500Y0000160000D01*
X0000377500Y0000182500D01*
X0000382500Y0000187500D01*
X0000382500Y0000255000D01*
X0000375231Y0000262269D01*
G02X0000375432Y0000262943I0000000283J0000000283D01*
G03X0000373857Y0000263236I-0000000432J0000002057D01*
G02X0000373640Y0000262500I-0000000217J-0000000336D01*
G01X0000371360Y0000262500D01*
G02X0000371143Y0000263236I0J0000000400D01*
G03X0000368857Y0000263236I-0000001143J0000001764D01*
G02X0000368640Y0000262500I-0000000217J-0000000336D01*
G01X0000366360Y0000262500D01*
G02X0000366143Y0000263236I0J0000000400D01*
G03X0000363857Y0000263236I-0000001143J0000001764D01*
G02X0000363640Y0000262500I-0000000217J-0000000336D01*
G01X0000357500Y0000262500D01*
X0000355000Y0000265000D01*
X0000355000Y0000285000D01*
X0000362500Y0000292500D01*
X0000405000Y0000292500D01*
X0000407500Y0000295000D01*
X0000407500Y0000305000D01*
X0000405000Y0000307500D01*
X0000382500Y0000307500D01*
X0000380000Y0000310000D01*
X0000380000Y0000328005D01*
X0000380078Y0000328065D01*
G03X0000380078Y0000336935I-0000003423J0000004435D01*
G01X0000380000Y0000336995D01*
X0000380000Y0000342500D01*
X0000382500Y0000345000D01*
X0000452500Y0000345000D01*
X0000460000Y0000337500D01*
X0000460000Y0000320000D01*
X0000465000Y0000315000D01*
X0000487500Y0000315000D01*
X0000502500Y0000300000D01*
X0000502500Y0000290000D01*
X0000500000Y0000287500D01*
X0000422500Y0000287500D01*
X0000397500Y0000262500D01*
X0000397500Y0000249720D01*
X0000397498Y0000249720D01*
X0000397498Y0000240280D01*
X0000397500Y0000240280D01*
X0000397500Y0000240000D01*
X0000400000Y0000237500D01*
X0000430000Y0000237500D01*
X0000435000Y0000242500D01*
X0000485000Y0000242500D01*
X0000487500Y0000245000D01*
X0000487500Y0000275000D01*
X0000490000Y0000277500D01*
X0000502500Y0000277500D01*
X0000505000Y0000275000D01*
X0000505000Y0000225000D01*
X0000502500Y0000222500D01*
X0000420000Y0000222500D01*
X0000415000Y0000217500D01*
X0000415000Y0000182500D01*
X0000420000Y0000177500D01*
X0000472500Y0000177500D01*
X0000475000Y0000180000D01*
X0000475000Y0000190000D01*
X0000477500Y0000192500D01*
X0000485000Y0000192500D01*
X0000487500Y0000195000D01*
X0000487500Y0000212500D01*
X0000490000Y0000215000D01*
X0000502500Y0000215000D01*
X0000505000Y0000212500D01*
X0000505000Y0000075000D01*
X0000502500Y0000072500D01*
X0000468500Y0000072500D01*
X0000467500Y0000071500D01*
X0000467500Y0000055000D01*
X0000482500Y0000040000D01*
X0000482500Y0000032500D01*
X0000480000Y0000030000D01*
X0000468494Y0000030000D01*
X0000468494Y0000030502D01*
X0000461998Y0000030502D01*
X0000460000Y0000032500D01*
X0000456360Y0000032500D01*
G02X0000456143Y0000033236I0J0000000400D01*
G03X0000453857Y0000033236I-0000001143J0000001764D01*
G02X0000453640Y0000032500I-0000000217J-0000000336D01*
G01X0000452500Y0000032500D01*
X0000447602Y0000037398D01*
X0000447602Y0000041474D01*
X0000447500Y0000041474D01*
X0000447500Y0000043640D01*
G02X0000448236Y0000043857I0000000400J0D01*
G03X0000447943Y0000045432I0000001764J0000001143D01*
G02X0000447269Y0000045231I-0000000391J0000000082D01*
G01X0000447055Y0000045445D01*
X0000447042Y0000045499D01*
G03X0000445499Y0000047042I-0000002042J-0000000499D01*
G01X0000445445Y0000047055D01*
X0000440000Y0000052500D01*
X0000438147Y0000052500D01*
G02X0000437830Y0000053144I0J0000000400D01*
G03X0000429122Y0000053144I-0000004354J0000003364D01*
G02X0000428805Y0000052500I-0000000317J-0000000244D01*
G01X0000397500Y0000052500D01*
X0000395000Y0000050000D01*
X0000395000Y0000025000D01*
X0000400000Y0000020000D01*
X0000455000Y0000020000D01*
X0000460000Y0000015000D01*
X0000460000Y0000012500D01*
X0000457500Y0000010000D01*
X0000193712Y0000010000D01*
G02X0000193360Y0000010591I0J0000000400D01*
G03X0000193844Y0000012605I-0000003517J0000001910D01*
G02X0000194364Y0000012996I0000000399J0000000010D01*
G03X0000193033Y0000015742I0000000636J0000002004D01*
G02X0000192403Y0000015576I-0000000374J0000000141D01*
G03X0000186326Y0000010591I-0000002560J-0000003076D01*
G02X0000185974Y0000010000I-0000000352J-0000000191D01*
G01X0000184002Y0000010000D01*
X0000184002Y0000016502D01*
X0000175998Y0000016502D01*
X0000175998Y0000010000D01*
X0000156212Y0000010000D01*
G02X0000155860Y0000010591I0J0000000400D01*
G03X0000148826Y0000010591I-0000003517J0000001909D01*
G02X0000148474Y0000010000I-0000000352J-0000000191D01*
G01X0000146502Y0000010000D01*
X0000146502Y0000016502D01*
X0000138498Y0000016502D01*
X0000138498Y0000010000D01*
X0000075000Y0000010000D01*
X0000047500Y0000037500D01*
X0000043472Y0000037500D01*
X0000043370Y0000037602D01*
X0000036630Y0000037602D01*
X0000036528Y0000037500D01*
X0000027500Y0000037500D01*
X0000007500Y0000057500D01*
X0000007500Y0000088518D01*
G02X0000008087Y0000088872I0000000400J0D01*
G37*
G36*
G01X0000054500Y0000098000D02*
X0000053500Y0000099000D01*
X0000053500Y0000106000D01*
X0000054500Y0000107000D01*
X0000058000Y0000107000D01*
X0000058998Y0000106002D01*
X0000058998Y0000103398D01*
X0000059000Y0000103398D01*
X0000059000Y0000103000D01*
X0000061499Y0000100501D01*
X0000061499Y0000098999D01*
X0000060501Y0000098001D01*
X0000058378Y0000098001D01*
X0000058377Y0000098000D01*
X0000054500Y0000098000D01*
G37*
G36*
G01X0000059000Y0000094000D02*
X0000058500Y0000094500D01*
X0000058500Y0000096000D01*
X0000059000Y0000096500D01*
X0000061500Y0000096500D01*
X0000063000Y0000098000D01*
X0000063000Y0000101500D01*
X0000061002Y0000103498D01*
X0000061002Y0000106502D01*
X0000061500Y0000107000D01*
X0000066000Y0000107000D01*
X0000066500Y0000106500D01*
X0000066500Y0000096000D01*
X0000065000Y0000094500D01*
X0000061000Y0000094500D01*
X0000060500Y0000094000D01*
X0000059000Y0000094000D01*
G37*
%LPC*%
G75*
G36*
G01X0000173494Y0000036998D02*
X0000161506Y0000036998D01*
X0000161506Y0000047748D01*
X0000160000Y0000047748D01*
G02X0000160000Y0000052252I0J0000002252D01*
G01X0000161506Y0000052252D01*
X0000161506Y0000053002D01*
X0000173075Y0000053002D01*
G03X0000173383Y0000053657I0J0000000400D01*
G02X0000174070Y0000053115I0000001617J0000001343D01*
G03X0000173494Y0000052756I-0000000176J-0000000359D01*
G01X0000173494Y0000052252D01*
X0000175000Y0000052252D01*
G02X0000175000Y0000047748I0J-0000002252D01*
G01X0000173494Y0000047748D01*
X0000173494Y0000047244D01*
G03X0000174070Y0000046885I0000000400J0D01*
G02X0000174070Y0000043115I0000000930J-0000001885D01*
G03X0000173494Y0000042756I-0000000176J-0000000359D01*
G01X0000173494Y0000042244D01*
G03X0000174070Y0000041885I0000000400J0D01*
G02X0000174070Y0000038115I0000000930J-0000001885D01*
G03X0000173494Y0000037756I-0000000176J-0000000359D01*
G01X0000173494Y0000036998D01*
G37*
G36*
G01X0000151970Y0000103498D02*
G02X0000151970Y0000106502I-0000001470J0000001502D01*
G03X0000152530Y0000106502I0000000280J0000000286D01*
G02X0000152530Y0000103498I0000001470J-0000001502D01*
G03X0000151970Y0000103498I-0000000280J-0000000286D01*
G37*
G36*
G01X0000157470Y0000108498D02*
G02X0000157470Y0000111502I-0000001470J0000001502D01*
G03X0000158030Y0000111502I0000000280J0000000286D01*
G02X0000158030Y0000108498I0000001470J-0000001502D01*
G03X0000157470Y0000108498I-0000000280J-0000000286D01*
G37*
G36*
G01X0000226470Y0000203498D02*
G02X0000226470Y0000206502I-0000001470J0000001502D01*
G03X0000227030Y0000206502I0000000280J0000000286D01*
G02X0000227030Y0000203498I0000001470J-0000001502D01*
G03X0000226470Y0000203498I-0000000280J-0000000286D01*
G37*
G36*
G01X0000166399Y0000223236D02*
G02X0000163408Y0000226592I-0000001399J0000001764D01*
G01X0000164598Y0000227782D01*
X0000167498Y0000227782D01*
X0000167498Y0000232220D01*
X0000172502Y0000232220D01*
X0000172502Y0000222780D01*
X0000167498Y0000222780D01*
X0000167498Y0000223280D01*
X0000166454Y0000223280D01*
X0000166399Y0000223236D01*
G37*
G36*
G01X0000172073Y0000236543D02*
G02X0000171987Y0000233541I0000001427J-0000001543D01*
G03X0000171427Y0000233557I-0000000288J-0000000278D01*
G02X0000171513Y0000236559I-0000001427J0000001543D01*
G03X0000172073Y0000236543I0000000288J0000000278D01*
G37*
G36*
G01X0000202220Y0000242498D02*
X0000192780Y0000242498D01*
X0000192780Y0000247502D01*
X0000197218Y0000247502D01*
X0000197218Y0000250402D01*
X0000198408Y0000251592D01*
G02X0000201764Y0000248601I0000001592J-0000001592D01*
G01X0000201720Y0000248546D01*
X0000201720Y0000247502D01*
X0000202220Y0000247502D01*
X0000202220Y0000242498D01*
G37*
G36*
G01X0000141592Y0000248408D02*
G02X0000138236Y0000251399I-0000001592J0000001592D01*
G01X0000138280Y0000251454D01*
X0000138280Y0000252498D01*
X0000137780Y0000252498D01*
X0000137780Y0000257502D01*
X0000147220Y0000257502D01*
X0000147220Y0000252498D01*
X0000142782Y0000252498D01*
X0000142782Y0000249598D01*
X0000141592Y0000248408D01*
G37*
G54D43*
X0000120000Y0000180000D03*
X0000055000Y0000240000D03*
G54D45*
X0000095708Y0000320000D03*
X0000103582Y0000320000D03*
X0000111456Y0000320000D03*
X0000119330Y0000320000D03*
X0000392480Y0000320000D03*
X0000400354Y0000320000D03*
X0000408228Y0000320000D03*
X0000416102Y0000320000D03*
X0000095708Y0000330000D03*
X0000103582Y0000330000D03*
X0000111456Y0000330000D03*
X0000119330Y0000330000D03*
X0000392480Y0000330000D03*
X0000400354Y0000330000D03*
X0000408228Y0000330000D03*
X0000416102Y0000330000D03*
G54D37*
X0000185000Y0000020000D03*
X0000190000Y0000020000D03*
X0000195000Y0000020000D03*
X0000245000Y0000020000D03*
X0000250000Y0000020000D03*
X0000185000Y0000025000D03*
X0000190000Y0000025000D03*
X0000195000Y0000025000D03*
X0000245000Y0000025000D03*
X0000250000Y0000025000D03*
X0000060000Y0000030000D03*
X0000185000Y0000030000D03*
X0000190000Y0000030000D03*
X0000245000Y0000030000D03*
X0000250000Y0000030000D03*
X0000175000Y0000032500D03*
X0000180000Y0000032500D03*
X0000100000Y0000035000D03*
X0000245000Y0000035000D03*
X0000180000Y0000040000D03*
X0000245000Y0000040000D03*
X0000455000Y0000040000D03*
X0000180000Y0000045000D03*
X0000455000Y0000045000D03*
X0000460000Y0000045000D03*
X0000180000Y0000050000D03*
X0000180000Y0000055000D03*
X0000175000Y0000060000D03*
X0000155000Y0000070000D03*
X0000160000Y0000070000D03*
X0000150000Y0000075000D03*
X0000155000Y0000075000D03*
X0000425000Y0000075000D03*
X0000430000Y0000075000D03*
X0000435000Y0000075000D03*
X0000425000Y0000080000D03*
X0000430000Y0000080000D03*
X0000435000Y0000080000D03*
X0000425000Y0000085000D03*
X0000430000Y0000085000D03*
X0000435000Y0000085000D03*
X0000425000Y0000090000D03*
X0000470000Y0000090000D03*
X0000490000Y0000090000D03*
X0000245000Y0000095000D03*
X0000425000Y0000095000D03*
X0000470000Y0000095000D03*
X0000490000Y0000095000D03*
X0000425000Y0000100000D03*
X0000470000Y0000100000D03*
X0000475000Y0000100000D03*
X0000480000Y0000100000D03*
X0000485000Y0000100000D03*
X0000490000Y0000100000D03*
X0000425000Y0000105000D03*
X0000430000Y0000105000D03*
X0000435000Y0000105000D03*
X0000360000Y0000120000D03*
X0000040000Y0000122500D03*
X0000425000Y0000130000D03*
X0000430000Y0000130000D03*
X0000435000Y0000130000D03*
X0000425000Y0000135000D03*
X0000430000Y0000135000D03*
X0000435000Y0000135000D03*
X0000040000Y0000137500D03*
X0000380000Y0000140000D03*
X0000385000Y0000140000D03*
X0000425000Y0000140000D03*
X0000430000Y0000140000D03*
X0000435000Y0000140000D03*
X0000370000Y0000145000D03*
X0000425000Y0000145000D03*
X0000115000Y0000150000D03*
X0000130000Y0000150000D03*
X0000140000Y0000150000D03*
X0000145000Y0000150000D03*
X0000155000Y0000150000D03*
X0000160000Y0000150000D03*
X0000425000Y0000150000D03*
X0000470000Y0000150000D03*
X0000490000Y0000150000D03*
X0000425000Y0000155000D03*
X0000470000Y0000155000D03*
X0000490000Y0000155000D03*
X0000425000Y0000160000D03*
X0000430000Y0000160000D03*
X0000435000Y0000160000D03*
X0000460000Y0000160000D03*
X0000465000Y0000160000D03*
X0000470000Y0000160000D03*
X0000475000Y0000160000D03*
X0000480000Y0000160000D03*
X0000485000Y0000160000D03*
X0000490000Y0000160000D03*
X0000218500Y0000163000D03*
X0000045000Y0000167500D03*
X0000220000Y0000169500D03*
X0000115000Y0000169600D03*
X0000055000Y0000175000D03*
X0000075000Y0000175000D03*
X0000080000Y0000175000D03*
X0000120000Y0000175000D03*
X0000055000Y0000180000D03*
X0000067500Y0000180000D03*
X0000080000Y0000180000D03*
X0000085000Y0000180000D03*
X0000114785Y0000180000D03*
X0000060000Y0000190000D03*
X0000060000Y0000195000D03*
X0000060000Y0000200000D03*
X0000400000Y0000200000D03*
X0000405000Y0000200000D03*
X0000165000Y0000235000D03*
X0000190000Y0000235000D03*
X0000195000Y0000235000D03*
X0000135000Y0000245000D03*
X0000120000Y0000260000D03*
X0000040000Y0000262500D03*
X0000120000Y0000265000D03*
X0000120000Y0000270000D03*
X0000130000Y0000270000D03*
X0000135000Y0000270000D03*
X0000140000Y0000270000D03*
X0000040000Y0000272500D03*
X0000120000Y0000275000D03*
X0000130000Y0000275000D03*
X0000135000Y0000275000D03*
X0000130000Y0000280000D03*
X0000150000Y0000280000D03*
X0000155000Y0000290000D03*
G54D44*
X0000449724Y0000230925D03*
X0000452873Y0000230925D03*
X0000456023Y0000230925D03*
X0000459172Y0000230925D03*
X0000462322Y0000230925D03*
X0000465471Y0000230925D03*
X0000468621Y0000230925D03*
X0000471771Y0000230925D03*
X0000474920Y0000230925D03*
X0000478069Y0000230925D03*
X0000481218Y0000230925D03*
X0000484367Y0000230925D03*
X0000452873Y0000234075D03*
X0000456023Y0000234075D03*
X0000459172Y0000234075D03*
X0000462322Y0000234075D03*
X0000465471Y0000234075D03*
X0000468621Y0000234075D03*
X0000471771Y0000234075D03*
X0000474920Y0000234075D03*
X0000478069Y0000234075D03*
X0000481218Y0000234075D03*
X0000484367Y0000234075D03*
G54D42*
X0000020000Y0000102500D03*
X0000020000Y0000112500D03*
X0000020000Y0000122500D03*
X0000020000Y0000132500D03*
X0000020000Y0000262500D03*
X0000020000Y0000272500D03*
X0000020000Y0000282500D03*
X0000020000Y0000292500D03*
G54D39*
X0000287539Y0000027500D03*
G54D41*
X0000461508Y0000093988D03*
X0000461516Y0000151240D03*
G54D38*
X0000300020Y0000027500D03*
X0000337461Y0000027500D03*
X0000337461Y0000039980D03*
X0000461508Y0000056508D03*
X0000337461Y0000077500D03*
X0000433476Y0000093988D03*
X0000447492Y0000093988D03*
X0000433484Y0000113760D03*
X0000461516Y0000113760D03*
X0000433484Y0000151240D03*
X0000447500Y0000151240D03*
G54D40*
X0000020000Y0000092500D03*
X0000020000Y0000252500D03*
%LPD*%
G75*
G54D10*
X0000225000Y0000049173D03*
X0000225000Y0000045827D03*
X0000115000Y0000055827D03*
X0000115000Y0000059173D03*
X0000120000Y0000055827D03*
X0000120000Y0000059173D03*
X0000190000Y0000286673D03*
X0000190000Y0000283327D03*
X0000195000Y0000286673D03*
X0000195000Y0000283327D03*
X0000200000Y0000286673D03*
X0000200000Y0000283327D03*
X0000242500Y0000159173D03*
X0000242500Y0000155827D03*
X0000190000Y0000165827D03*
X0000190000Y0000169173D03*
X0000247500Y0000155827D03*
X0000247500Y0000159173D03*
X0000110000Y0000266673D03*
X0000110000Y0000263327D03*
X0000105000Y0000266673D03*
X0000105000Y0000263327D03*
X0000100000Y0000266673D03*
X0000100000Y0000263327D03*
X0000095000Y0000266673D03*
X0000095000Y0000263327D03*
X0000090000Y0000266673D03*
X0000090000Y0000263327D03*
X0000085000Y0000266673D03*
X0000085000Y0000263327D03*
X0000080000Y0000266673D03*
X0000080000Y0000263327D03*
X0000075000Y0000266673D03*
X0000075000Y0000263327D03*
X0000025000Y0000194173D03*
X0000025000Y0000190827D03*
X0000025000Y0000224173D03*
X0000025000Y0000220827D03*
X0000225000Y0000064173D03*
X0000225000Y0000060827D03*
X0000225000Y0000079173D03*
X0000225000Y0000075827D03*
X0000225000Y0000094173D03*
X0000225000Y0000090827D03*
X0000215000Y0000264173D03*
X0000215000Y0000260827D03*
X0000415000Y0000033327D03*
X0000415000Y0000036673D03*
X0000445000Y0000039173D03*
X0000445000Y0000035827D03*
X0000356500Y0000199173D03*
X0000356500Y0000195827D03*
X0000356500Y0000191673D03*
X0000356500Y0000188327D03*
X0000267500Y0000155827D03*
X0000267500Y0000159173D03*
X0000272500Y0000159173D03*
X0000272500Y0000155827D03*
X0000278500Y0000245673D03*
X0000278500Y0000242327D03*
X0000321500Y0000246673D03*
X0000321500Y0000243327D03*
X0000326000Y0000246673D03*
X0000326000Y0000243327D03*
X0000281500Y0000268327D03*
X0000281500Y0000271673D03*
X0000262500Y0000159173D03*
X0000262500Y0000155827D03*
X0000259500Y0000244173D03*
X0000259500Y0000240827D03*
X0000283500Y0000196173D03*
X0000283500Y0000192827D03*
X0000279000Y0000192827D03*
X0000279000Y0000196173D03*
X0000252500Y0000155827D03*
X0000252500Y0000159173D03*
X0000257500Y0000155827D03*
X0000257500Y0000159173D03*
X0000338000Y0000256173D03*
X0000338000Y0000252827D03*
G54D20*
X0000140655Y0000338250D03*
X0000143155Y0000338250D03*
X0000145655Y0000338250D03*
X0000148155Y0000338250D03*
X0000150655Y0000338250D03*
X0000153155Y0000338250D03*
X0000155655Y0000338250D03*
X0000158155Y0000338250D03*
X0000160655Y0000338250D03*
X0000163155Y0000338250D03*
X0000165655Y0000338250D03*
X0000168155Y0000338250D03*
X0000170655Y0000338250D03*
X0000173155Y0000338250D03*
X0000175655Y0000338250D03*
X0000178155Y0000338250D03*
X0000180655Y0000338250D03*
X0000183155Y0000338250D03*
X0000185655Y0000338250D03*
X0000188155Y0000338250D03*
X0000190655Y0000338250D03*
X0000193155Y0000338250D03*
X0000195655Y0000338250D03*
X0000198155Y0000338250D03*
X0000200655Y0000338250D03*
X0000203155Y0000338250D03*
X0000140655Y0000311750D03*
X0000143155Y0000311750D03*
X0000145655Y0000311750D03*
X0000148155Y0000311750D03*
X0000150655Y0000311750D03*
X0000153155Y0000311750D03*
X0000155655Y0000311750D03*
X0000158155Y0000311750D03*
X0000160655Y0000311750D03*
X0000163155Y0000311750D03*
X0000165655Y0000311750D03*
X0000168155Y0000311750D03*
X0000170655Y0000311750D03*
X0000173155Y0000311750D03*
X0000175655Y0000311750D03*
X0000178155Y0000311750D03*
X0000180655Y0000311750D03*
X0000183155Y0000311750D03*
X0000185655Y0000311750D03*
X0000188155Y0000311750D03*
X0000190655Y0000311750D03*
X0000193155Y0000311750D03*
X0000195655Y0000311750D03*
X0000198155Y0000311750D03*
X0000200655Y0000311750D03*
X0000203155Y0000311750D03*
X0000224655Y0000311750D03*
X0000227155Y0000311750D03*
X0000229655Y0000311750D03*
X0000232155Y0000311750D03*
X0000234655Y0000311750D03*
X0000237155Y0000311750D03*
X0000239655Y0000311750D03*
X0000242155Y0000311750D03*
X0000244655Y0000311750D03*
X0000247155Y0000311750D03*
X0000249655Y0000311750D03*
X0000224655Y0000338250D03*
X0000227155Y0000338250D03*
X0000229655Y0000338250D03*
X0000232155Y0000338250D03*
X0000234655Y0000338250D03*
X0000237155Y0000338250D03*
X0000239655Y0000338250D03*
X0000242155Y0000338250D03*
X0000244655Y0000338250D03*
X0000247155Y0000338250D03*
X0000249655Y0000338250D03*
X0000252155Y0000311750D03*
X0000254655Y0000311750D03*
X0000257155Y0000311750D03*
X0000259655Y0000311750D03*
X0000262155Y0000311750D03*
X0000264655Y0000311750D03*
X0000267155Y0000311750D03*
X0000269655Y0000311750D03*
X0000272155Y0000311750D03*
X0000274655Y0000311750D03*
X0000277155Y0000311750D03*
X0000279655Y0000311750D03*
X0000282155Y0000311750D03*
X0000284655Y0000311750D03*
X0000287155Y0000311750D03*
X0000252155Y0000338250D03*
X0000254655Y0000338250D03*
X0000257155Y0000338250D03*
X0000259655Y0000338250D03*
X0000262155Y0000338250D03*
X0000264655Y0000338250D03*
X0000267155Y0000338250D03*
X0000269655Y0000338250D03*
X0000272155Y0000338250D03*
X0000274655Y0000338250D03*
X0000277155Y0000338250D03*
X0000279655Y0000338250D03*
X0000282155Y0000338250D03*
X0000284655Y0000338250D03*
X0000287155Y0000338250D03*
X0000308655Y0000311750D03*
X0000311155Y0000311750D03*
X0000313655Y0000311750D03*
X0000316155Y0000311750D03*
X0000318655Y0000311750D03*
X0000321155Y0000311750D03*
X0000323655Y0000311750D03*
X0000326155Y0000311750D03*
X0000328655Y0000311750D03*
X0000331155Y0000311750D03*
X0000333655Y0000311750D03*
X0000336155Y0000311750D03*
X0000338655Y0000311750D03*
X0000341155Y0000311750D03*
X0000343655Y0000311750D03*
X0000346155Y0000311750D03*
X0000348655Y0000311750D03*
X0000351155Y0000311750D03*
X0000353655Y0000311750D03*
X0000356155Y0000311750D03*
X0000358655Y0000311750D03*
X0000361155Y0000311750D03*
X0000363655Y0000311750D03*
X0000366155Y0000311750D03*
X0000368655Y0000311750D03*
X0000371155Y0000311750D03*
X0000308655Y0000338250D03*
X0000311155Y0000338250D03*
X0000313655Y0000338250D03*
X0000316155Y0000338250D03*
X0000318655Y0000338250D03*
X0000321155Y0000338250D03*
X0000323655Y0000338250D03*
X0000326155Y0000338250D03*
X0000328655Y0000338250D03*
X0000331155Y0000338250D03*
X0000333655Y0000338250D03*
X0000336155Y0000338250D03*
X0000338655Y0000338250D03*
X0000341155Y0000338250D03*
X0000343655Y0000338250D03*
X0000346155Y0000338250D03*
X0000348655Y0000338250D03*
X0000351155Y0000338250D03*
X0000353655Y0000338250D03*
X0000356155Y0000338250D03*
X0000358655Y0000338250D03*
X0000361155Y0000338250D03*
X0000363655Y0000338250D03*
X0000366155Y0000338250D03*
X0000368655Y0000338250D03*
X0000371155Y0000338250D03*
G54D11*
X0000170492Y0000040000D03*
X0000164508Y0000040000D03*
X0000164508Y0000045000D03*
X0000170492Y0000045000D03*
X0000170492Y0000050000D03*
X0000164508Y0000050000D03*
X0000134508Y0000105000D03*
X0000140492Y0000105000D03*
X0000100000Y0000184508D03*
X0000100000Y0000190492D03*
X0000095000Y0000190492D03*
X0000095000Y0000184508D03*
X0000230492Y0000110000D03*
X0000224508Y0000110000D03*
X0000224508Y0000100000D03*
X0000230492Y0000100000D03*
X0000224508Y0000085000D03*
X0000230492Y0000085000D03*
X0000224508Y0000070000D03*
X0000230492Y0000070000D03*
X0000224508Y0000055000D03*
X0000230492Y0000055000D03*
X0000134508Y0000095000D03*
X0000140492Y0000095000D03*
X0000145000Y0000197008D03*
X0000145000Y0000202992D03*
X0000070492Y0000235000D03*
X0000064508Y0000235000D03*
X0000070492Y0000225000D03*
X0000064508Y0000225000D03*
X0000124508Y0000225000D03*
X0000130492Y0000225000D03*
X0000124508Y0000220000D03*
X0000130492Y0000220000D03*
X0000135500Y0000070000D03*
X0000129500Y0000070000D03*
X0000117500Y0000085500D03*
X0000117500Y0000079500D03*
X0000063000Y0000105000D03*
X0000057000Y0000105000D03*
X0000400000Y0000032008D03*
X0000400000Y0000037992D03*
X0000465492Y0000027500D03*
X0000459508Y0000027500D03*
X0000372992Y0000212500D03*
X0000367008Y0000212500D03*
X0000367008Y0000217500D03*
X0000372992Y0000217500D03*
X0000405000Y0000247992D03*
X0000405000Y0000242008D03*
X0000485492Y0000057500D03*
X0000479508Y0000057500D03*
X0000313492Y0000114500D03*
X0000307508Y0000114500D03*
X0000323008Y0000225000D03*
X0000328992Y0000225000D03*
X0000279508Y0000207500D03*
X0000285492Y0000207500D03*
G54D12*
X0000130000Y0000054508D03*
X0000140000Y0000054508D03*
X0000032500Y0000195492D03*
X0000032500Y0000189508D03*
X0000032500Y0000225492D03*
X0000032500Y0000219508D03*
X0000182500Y0000129508D03*
X0000182500Y0000135492D03*
X0000130000Y0000079508D03*
X0000130000Y0000085492D03*
X0000185000Y0000085492D03*
X0000185000Y0000079508D03*
X0000130000Y0000060492D03*
X0000140000Y0000079508D03*
X0000140000Y0000085492D03*
X0000140000Y0000060492D03*
X0000175000Y0000119508D03*
X0000175000Y0000125492D03*
X0000405000Y0000032008D03*
X0000405000Y0000037992D03*
X0000417000Y0000252008D03*
X0000417000Y0000257992D03*
X0000352500Y0000252008D03*
X0000352500Y0000257992D03*
X0000351500Y0000175508D03*
X0000351500Y0000181492D03*
X0000324500Y0000282008D03*
X0000324500Y0000287992D03*
X0000330500Y0000287992D03*
X0000330500Y0000282008D03*
G54D21*
X0000243327Y0000195000D03*
X0000246673Y0000195000D03*
X0000243327Y0000190000D03*
X0000246673Y0000190000D03*
X0000243327Y0000210000D03*
X0000246673Y0000210000D03*
X0000243327Y0000235000D03*
X0000246673Y0000235000D03*
X0000243327Y0000260000D03*
X0000246673Y0000260000D03*
X0000243327Y0000250000D03*
X0000246673Y0000250000D03*
X0000243327Y0000205000D03*
X0000246673Y0000205000D03*
X0000243327Y0000240000D03*
X0000246673Y0000240000D03*
X0000243327Y0000225000D03*
X0000246673Y0000225000D03*
X0000243327Y0000245000D03*
X0000246673Y0000245000D03*
X0000243327Y0000220000D03*
X0000246673Y0000220000D03*
X0000243327Y0000255000D03*
X0000246673Y0000255000D03*
X0000243327Y0000230000D03*
X0000246673Y0000230000D03*
X0000074173Y0000105000D03*
X0000070827Y0000105000D03*
X0000048327Y0000090000D03*
X0000051673Y0000090000D03*
X0000048327Y0000080000D03*
X0000051673Y0000080000D03*
X0000048327Y0000085000D03*
X0000051673Y0000085000D03*
X0000096673Y0000075000D03*
X0000093327Y0000075000D03*
X0000096673Y0000090000D03*
X0000093327Y0000090000D03*
X0000048327Y0000075000D03*
X0000051673Y0000075000D03*
X0000125827Y0000230000D03*
X0000129173Y0000230000D03*
X0000048327Y0000095000D03*
X0000051673Y0000095000D03*
X0000246673Y0000175000D03*
X0000243327Y0000175000D03*
X0000246673Y0000170000D03*
X0000243327Y0000170000D03*
X0000246673Y0000270000D03*
X0000243327Y0000270000D03*
X0000093327Y0000080000D03*
X0000096673Y0000080000D03*
X0000093327Y0000085000D03*
X0000096673Y0000085000D03*
X0000234173Y0000135000D03*
X0000230827Y0000135000D03*
X0000176673Y0000200000D03*
X0000173327Y0000200000D03*
X0000176673Y0000195000D03*
X0000173327Y0000195000D03*
X0000176673Y0000190000D03*
X0000173327Y0000190000D03*
X0000243327Y0000265000D03*
X0000246673Y0000265000D03*
X0000243327Y0000180000D03*
X0000246673Y0000180000D03*
X0000243327Y0000165000D03*
X0000246673Y0000165000D03*
X0000243327Y0000200000D03*
X0000246673Y0000200000D03*
X0000243327Y0000215000D03*
X0000246673Y0000215000D03*
X0000243327Y0000185000D03*
X0000246673Y0000185000D03*
X0000036673Y0000147500D03*
X0000033327Y0000147500D03*
X0000484173Y0000047500D03*
X0000480827Y0000047500D03*
X0000480827Y0000052500D03*
X0000484173Y0000052500D03*
X0000400827Y0000045000D03*
X0000404173Y0000045000D03*
X0000352827Y0000227000D03*
X0000356173Y0000227000D03*
X0000285827Y0000270000D03*
X0000289173Y0000270000D03*
X0000338327Y0000165000D03*
X0000341673Y0000165000D03*
X0000278327Y0000165000D03*
X0000281673Y0000165000D03*
X0000291673Y0000165000D03*
X0000288327Y0000165000D03*
X0000267673Y0000218500D03*
X0000264327Y0000218500D03*
X0000272827Y0000218500D03*
X0000276173Y0000218500D03*
X0000278327Y0000232500D03*
X0000281673Y0000232500D03*
X0000278327Y0000227500D03*
X0000281673Y0000227500D03*
X0000278327Y0000237500D03*
X0000281673Y0000237500D03*
X0000371673Y0000232500D03*
X0000368327Y0000232500D03*
X0000371673Y0000237500D03*
X0000368327Y0000237500D03*
X0000371673Y0000202500D03*
X0000368327Y0000202500D03*
X0000371673Y0000207500D03*
X0000368327Y0000207500D03*
X0000334827Y0000196500D03*
X0000338173Y0000196500D03*
G54D30*
X0000368500Y0000177500D03*
X0000361500Y0000177500D03*
G54D13*
X0000017500Y0000017500D03*
X0000017500Y0000336831D03*
X0000494311Y0000017500D03*
X0000494311Y0000336831D03*
G54D22*
X0000087500Y0000198031D03*
X0000087500Y0000201969D03*
X0000077500Y0000073031D03*
X0000077500Y0000076969D03*
X0000100000Y0000120531D03*
X0000100000Y0000124469D03*
X0000170000Y0000225531D03*
X0000170000Y0000229469D03*
X0000097500Y0000236969D03*
X0000097500Y0000233031D03*
X0000092500Y0000198031D03*
X0000092500Y0000201969D03*
X0000102500Y0000236969D03*
X0000102500Y0000233031D03*
X0000185000Y0000165531D03*
X0000185000Y0000169469D03*
X0000072500Y0000073031D03*
X0000072500Y0000076969D03*
X0000220000Y0000264469D03*
X0000220000Y0000260531D03*
X0000187500Y0000121969D03*
X0000187500Y0000118031D03*
X0000125000Y0000080531D03*
X0000125000Y0000084469D03*
X0000125000Y0000059469D03*
X0000125000Y0000055531D03*
X0000197500Y0000189469D03*
X0000197500Y0000185531D03*
X0000155000Y0000190531D03*
X0000155000Y0000194469D03*
X0000135000Y0000059469D03*
X0000135000Y0000055531D03*
X0000135000Y0000080531D03*
X0000135000Y0000084469D03*
X0000245000Y0000289469D03*
X0000245000Y0000285531D03*
X0000192500Y0000093031D03*
X0000192500Y0000096969D03*
X0000202500Y0000130531D03*
X0000202500Y0000134469D03*
X0000197500Y0000121969D03*
X0000197500Y0000118031D03*
X0000192500Y0000121969D03*
X0000192500Y0000118031D03*
X0000197500Y0000093031D03*
X0000197500Y0000096969D03*
X0000297500Y0000155531D03*
X0000297500Y0000159469D03*
X0000302500Y0000155531D03*
X0000302500Y0000159469D03*
X0000311500Y0000155531D03*
X0000311500Y0000159469D03*
X0000307000Y0000155531D03*
X0000307000Y0000159469D03*
X0000327500Y0000159469D03*
X0000327500Y0000155531D03*
X0000332500Y0000159469D03*
X0000332500Y0000155531D03*
X0000317500Y0000155531D03*
X0000317500Y0000159469D03*
X0000322500Y0000155531D03*
X0000322500Y0000159469D03*
X0000418500Y0000187031D03*
X0000418500Y0000190969D03*
X0000337500Y0000155531D03*
X0000337500Y0000159469D03*
X0000342500Y0000155531D03*
X0000342500Y0000159469D03*
X0000282500Y0000155531D03*
X0000282500Y0000159469D03*
X0000277500Y0000155531D03*
X0000277500Y0000159469D03*
X0000292500Y0000155531D03*
X0000292500Y0000159469D03*
X0000287500Y0000155531D03*
X0000287500Y0000159469D03*
X0000326000Y0000183469D03*
X0000326000Y0000179531D03*
X0000297000Y0000260031D03*
X0000297000Y0000263969D03*
X0000328000Y0000194031D03*
X0000328000Y0000197969D03*
X0000293000Y0000245969D03*
X0000293000Y0000242031D03*
X0000299500Y0000194531D03*
X0000299500Y0000198469D03*
X0000281500Y0000259531D03*
X0000281500Y0000263469D03*
X0000316500Y0000280531D03*
X0000316500Y0000284469D03*
X0000311500Y0000280531D03*
X0000311500Y0000284469D03*
X0000290000Y0000284469D03*
X0000290000Y0000280531D03*
X0000285000Y0000284469D03*
X0000285000Y0000280531D03*
X0000361500Y0000213469D03*
X0000361500Y0000209531D03*
X0000356500Y0000213469D03*
X0000356500Y0000209531D03*
X0000454500Y0000254031D03*
X0000454500Y0000257969D03*
X0000450000Y0000254031D03*
X0000450000Y0000257969D03*
X0000450500Y0000189031D03*
X0000450500Y0000192969D03*
X0000400000Y0000246969D03*
X0000400000Y0000243031D03*
X0000335000Y0000247969D03*
X0000335000Y0000244031D03*
X0000276000Y0000267031D03*
X0000276000Y0000270969D03*
X0000290500Y0000194531D03*
X0000290500Y0000198469D03*
X0000262500Y0000253531D03*
X0000262500Y0000257469D03*
X0000281500Y0000180031D03*
X0000281500Y0000183969D03*
X0000303500Y0000222031D03*
X0000303500Y0000225969D03*
X0000303500Y0000213031D03*
X0000303500Y0000216969D03*
X0000272000Y0000260031D03*
X0000272000Y0000263969D03*
X0000325000Y0000171969D03*
X0000325000Y0000168031D03*
X0000297500Y0000208031D03*
X0000297500Y0000211969D03*
X0000304000Y0000197969D03*
X0000304000Y0000194031D03*
X0000303500Y0000207469D03*
X0000303500Y0000203531D03*
X0000295000Y0000198469D03*
X0000295000Y0000194531D03*
X0000284000Y0000242031D03*
X0000284000Y0000245969D03*
X0000303500Y0000231531D03*
X0000303500Y0000235469D03*
X0000355000Y0000294469D03*
X0000355000Y0000290531D03*
X0000318500Y0000194031D03*
X0000318500Y0000197969D03*
X0000297500Y0000245969D03*
X0000297500Y0000242031D03*
X0000324000Y0000266031D03*
X0000324000Y0000269969D03*
X0000303500Y0000185031D03*
X0000303500Y0000188969D03*
X0000319500Y0000266031D03*
X0000319500Y0000269969D03*
X0000313000Y0000176969D03*
X0000313000Y0000173031D03*
X0000303500Y0000240531D03*
X0000303500Y0000244469D03*
X0000288500Y0000245969D03*
X0000288500Y0000242031D03*
X0000319500Y0000253531D03*
X0000319500Y0000257469D03*
X0000308000Y0000245969D03*
X0000308000Y0000242031D03*
X0000303500Y0000249531D03*
X0000303500Y0000253469D03*
X0000303500Y0000258531D03*
X0000303500Y0000262469D03*
X0000314500Y0000262531D03*
X0000314500Y0000266469D03*
X0000317000Y0000245969D03*
X0000317000Y0000242031D03*
X0000312500Y0000242031D03*
X0000312500Y0000245969D03*
X0000313000Y0000228969D03*
X0000313000Y0000225031D03*
X0000323000Y0000194031D03*
X0000323000Y0000197969D03*
X0000308500Y0000194031D03*
X0000308500Y0000197969D03*
X0000314000Y0000194031D03*
X0000314000Y0000197969D03*
G54D31*
G01X0000140655Y0000338250D02*
X0000140655Y0000343155D01*
X0000142500Y0000345000D01*
G01X0000143155Y0000338250D02*
X0000143155Y0000344345D01*
X0000142500Y0000345000D01*
G01X0000150655Y0000338250D02*
X0000150655Y0000343155D01*
X0000152500Y0000345000D01*
G01X0000153155Y0000338250D02*
X0000153155Y0000344345D01*
X0000152500Y0000345000D01*
G01X0000163155Y0000338250D02*
X0000163155Y0000342655D01*
X0000164000Y0000343500D01*
G01X0000160655Y0000338250D02*
X0000160655Y0000344345D01*
X0000160000Y0000345000D01*
G01X0000170655Y0000338250D02*
X0000170655Y0000342845D01*
X0000170000Y0000343500D01*
G01X0000173155Y0000338250D02*
X0000173155Y0000343155D01*
X0000175000Y0000345000D01*
G01X0000198155Y0000338250D02*
X0000198155Y0000342655D01*
X0000199000Y0000343500D01*
G01X0000195655Y0000338250D02*
X0000195655Y0000344345D01*
X0000195000Y0000345000D01*
G01X0000224655Y0000338250D02*
X0000224655Y0000344655D01*
X0000225000Y0000345000D01*
G01X0000227155Y0000338250D02*
X0000227155Y0000342845D01*
X0000225000Y0000345000D01*
G01X0000229655Y0000338250D02*
X0000229655Y0000344655D01*
X0000230000Y0000345000D01*
G01X0000237155Y0000338250D02*
X0000237155Y0000342845D01*
X0000235000Y0000345000D01*
G01X0000239655Y0000338250D02*
X0000239655Y0000344655D01*
X0000240000Y0000345000D01*
G01X0000242155Y0000338250D02*
X0000242155Y0000342845D01*
X0000240000Y0000345000D01*
G01X0000287155Y0000338250D02*
X0000287155Y0000332845D01*
X0000287500Y0000332500D01*
G01X0000277155Y0000338250D02*
X0000277155Y0000332845D01*
X0000277500Y0000332500D01*
G01X0000279655Y0000338250D02*
X0000279655Y0000334000D01*
X0000278155Y0000332500D01*
X0000277500Y0000332500D01*
G01X0000257155Y0000338250D02*
X0000257155Y0000344655D01*
X0000257500Y0000345000D01*
G01X0000259655Y0000338250D02*
X0000259655Y0000342845D01*
X0000257500Y0000345000D01*
G01X0000267155Y0000338250D02*
X0000267155Y0000342845D01*
X0000265000Y0000345000D01*
G01X0000270500Y0000343500D02*
X0000269655Y0000342655D01*
X0000269655Y0000338250D01*
X0000271929Y0000193228D03*
X0000300275Y0000256221D03*
X0000325473Y0000262520D03*
X0000268779Y0000193228D03*
X0000338071Y0000262520D03*
X0000268779Y0000196378D03*
X0000293976Y0000256221D03*
X0000322323Y0000256221D03*
X0000322323Y0000259370D03*
X0000325473Y0000256221D03*
X0000278228Y0000183779D03*
X0000268779Y0000208976D03*
X0000271929Y0000196378D03*
X0000268779Y0000205827D03*
X0000331772Y0000256221D03*
X0000322323Y0000253071D03*
X0000328622Y0000253071D03*
X0000268779Y0000199527D03*
X0000290827Y0000256221D03*
X0000331772Y0000262520D03*
X0000474920Y0000201575D03*
X0000474920Y0000234075D03*
X0000474920Y0000266575D03*
X0000338071Y0000231024D03*
X0000328622Y0000259370D03*
X0000478069Y0000201575D03*
X0000478069Y0000234075D03*
X0000478069Y0000266575D03*
X0000347520Y0000231024D03*
X0000328622Y0000262520D03*
X0000468621Y0000266575D03*
X0000468621Y0000234075D03*
X0000468621Y0000201575D03*
X0000344370Y0000231024D03*
X0000325473Y0000259370D03*
X0000471771Y0000201575D03*
X0000471771Y0000234075D03*
X0000471771Y0000266575D03*
X0000344370Y0000227874D03*
X0000262480Y0000240473D03*
X0000331772Y0000259370D03*
X0000462322Y0000266575D03*
X0000462322Y0000234075D03*
X0000462322Y0000201575D03*
X0000338071Y0000227874D03*
X0000468621Y0000198425D03*
X0000468621Y0000230925D03*
X0000468621Y0000263425D03*
X0000347520Y0000224725D03*
X0000319173Y0000262520D03*
X0000297126Y0000256221D03*
X0000465471Y0000198425D03*
X0000465471Y0000230925D03*
X0000465471Y0000263425D03*
X0000341221Y0000224725D03*
X0000284527Y0000256221D03*
X0000316024Y0000259370D03*
X0000316024Y0000249921D03*
X0000300275Y0000259370D03*
X0000287677Y0000249921D03*
X0000300275Y0000246771D03*
X0000341221Y0000259370D03*
X0000440275Y0000276024D03*
X0000341221Y0000221575D03*
X0000474920Y0000263425D03*
X0000474920Y0000230925D03*
X0000474920Y0000198425D03*
X0000309725Y0000237323D03*
X0000309724Y0000231024D03*
X0000306575Y0000234173D03*
X0000300275Y0000237323D03*
X0000297126Y0000234173D03*
X0000484367Y0000230925D03*
X0000484367Y0000263425D03*
X0000484367Y0000198425D03*
X0000351000Y0000212126D03*
X0000309725Y0000186929D03*
X0000322323Y0000186929D03*
X0000446575Y0000276024D03*
X0000358885Y0000217214D03*
X0000471771Y0000263425D03*
X0000471771Y0000230925D03*
X0000471771Y0000198425D03*
X0000481218Y0000263425D03*
X0000481218Y0000230925D03*
X0000481218Y0000198425D03*
X0000341221Y0000208976D03*
X0000319173Y0000190079D03*
X0000297126Y0000190079D03*
X0000309725Y0000190079D03*
X0000328622Y0000190079D03*
X0000478069Y0000263425D03*
X0000478069Y0000230925D03*
X0000478069Y0000198425D03*
X0000344370Y0000212126D03*
X0000425000Y0000220000D03*
X0000341221Y0000183779D03*
X0000443425Y0000250828D03*
X0000356500Y0000255000D03*
X0000300275Y0000249921D03*
X0000316024Y0000253071D03*
X0000309725Y0000249921D03*
X0000293976Y0000249921D03*
X0000312874Y0000208976D03*
X0000319173Y0000208976D03*
X0000309725Y0000202677D03*
X0000316024Y0000202677D03*
X0000322323Y0000202677D03*
X0000344370Y0000177480D03*
X0000293976Y0000190079D03*
X0000306575Y0000190079D03*
X0000316024Y0000190079D03*
X0000325473Y0000190079D03*
X0000309725Y0000180630D03*
X0000322323Y0000180630D03*
X0000293976Y0000177480D03*
X0000424527Y0000185827D03*
X0000355500Y0000184000D03*
X0000456023Y0000198425D03*
X0000456023Y0000230925D03*
X0000456023Y0000263425D03*
X0000338071Y0000208976D03*
X0000430827Y0000214173D03*
X0000344370Y0000183779D03*
X0000459172Y0000198425D03*
X0000459172Y0000230925D03*
X0000459172Y0000263425D03*
X0000341221Y0000215275D03*
X0000449724Y0000263425D03*
X0000449724Y0000230925D03*
X0000449724Y0000198425D03*
X0000334921Y0000215275D03*
X0000462322Y0000198425D03*
X0000462322Y0000230925D03*
X0000462322Y0000263425D03*
X0000338071Y0000212126D03*
X0000341221Y0000193228D03*
X0000437126Y0000279173D03*
X0000347520Y0000256221D03*
X0000465471Y0000266575D03*
X0000465471Y0000234075D03*
X0000465471Y0000201575D03*
X0000341221Y0000234173D03*
X0000430827Y0000279173D03*
X0000341221Y0000240473D03*
X0000481218Y0000201575D03*
X0000481218Y0000234075D03*
X0000481218Y0000266575D03*
X0000341221Y0000231024D03*
X0000459172Y0000266575D03*
X0000459172Y0000234075D03*
X0000459172Y0000201575D03*
X0000334921Y0000231024D03*
X0000427677Y0000211024D03*
X0000350600Y0000195000D03*
X0000456023Y0000266575D03*
X0000456023Y0000234075D03*
X0000456023Y0000201575D03*
X0000344370Y0000224725D03*
X0000452873Y0000201575D03*
X0000452873Y0000234075D03*
X0000452873Y0000266575D03*
X0000334921Y0000227874D03*
X0000338071Y0000221575D03*
X0000452873Y0000198425D03*
X0000452873Y0000230925D03*
X0000452873Y0000263425D03*
X0000437126Y0000214173D03*
X0000338071Y0000199527D03*
X0000440275Y0000214173D03*
X0000440275Y0000192126D03*
X0000440275Y0000185827D03*
X0000440275Y0000272874D03*
X0000440275Y0000257127D03*
X0000427677Y0000272874D03*
X0000446575Y0000279173D03*
X0000459173Y0000279173D03*
X0000421379Y0000279173D03*
X0000427677Y0000279173D03*
X0000446575Y0000250828D03*
X0000468622Y0000250827D03*
X0000427677Y0000257127D03*
X0000427677Y0000250827D03*
X0000440275Y0000250827D03*
X0000433976Y0000279173D03*
X0000433976Y0000250827D03*
X0000421379Y0000250827D03*
X0000440275Y0000279173D03*
X0000446575Y0000214173D03*
X0000433976Y0000214173D03*
X0000459173Y0000214173D03*
X0000421379Y0000214173D03*
X0000440275Y0000207874D03*
X0000427677Y0000207874D03*
X0000427677Y0000214173D03*
X0000427677Y0000185827D03*
X0000433976Y0000185827D03*
X0000427677Y0000192126D03*
X0000468622Y0000185827D03*
X0000446575Y0000185827D03*
X0000421379Y0000185827D03*
X0000341221Y0000212126D03*
X0000290827Y0000253071D03*
X0000287677Y0000253071D03*
X0000331772Y0000180630D03*
X0000297126Y0000180630D03*
X0000449725Y0000276024D03*
X0000319173Y0000183779D03*
X0000427677Y0000253977D03*
X0000341221Y0000246772D03*
X0000316024Y0000183779D03*
X0000300275Y0000180630D03*
X0000328622Y0000180630D03*
X0000438463Y0000248962D03*
X0000347520Y0000253071D03*
X0000300275Y0000183779D03*
X0000427677Y0000276024D03*
X0000338071Y0000246772D03*
X0000306575Y0000183779D03*
X0000271929Y0000199527D03*
X0000433976Y0000276024D03*
X0000341221Y0000256221D03*
X0000438000Y0000183500D03*
X0000341221Y0000196378D03*
X0000435000Y0000180000D03*
X0000338071Y0000202677D03*
X0000268779Y0000186929D03*
X0000309725Y0000253071D03*
X0000271929Y0000190079D03*
X0000312874Y0000253071D03*
X0000443425Y0000192126D03*
X0000354000Y0000195000D03*
X0000278228Y0000177480D03*
X0000421379Y0000211024D03*
X0000341221Y0000186929D03*
X0000338071Y0000249921D03*
X0000424527Y0000207874D03*
X0000344370Y0000186929D03*
X0000433976Y0000211024D03*
X0000341221Y0000199527D03*
X0000316024Y0000237323D03*
X0000319173Y0000234173D03*
X0000322323Y0000231024D03*
X0000316024Y0000227874D03*
X0000319173Y0000227874D03*
X0000306575Y0000227874D03*
X0000309725Y0000224725D03*
X0000319173Y0000221575D03*
X0000312874Y0000221575D03*
X0000306575Y0000221575D03*
X0000309725Y0000215275D03*
X0000316024Y0000215275D03*
X0000322323Y0000215275D03*
X0000306575Y0000212126D03*
X0000309725Y0000208976D03*
X0000322323Y0000208976D03*
X0000306575Y0000205827D03*
X0000287677Y0000237323D03*
X0000293976Y0000237323D03*
X0000287677Y0000231024D03*
X0000293976Y0000231024D03*
X0000300275Y0000231024D03*
X0000290827Y0000227874D03*
X0000297126Y0000227874D03*
X0000300275Y0000224725D03*
X0000290827Y0000221575D03*
X0000297126Y0000221575D03*
X0000300275Y0000215275D03*
X0000293976Y0000215275D03*
X0000287677Y0000215275D03*
X0000290827Y0000212126D03*
X0000300275Y0000208976D03*
X0000293976Y0000208976D03*
X0000290827Y0000205827D03*
X0000300275Y0000202677D03*
X0000293976Y0000202677D03*
X0000322323Y0000237323D03*
X0000278228Y0000249921D03*
X0000281378Y0000249921D03*
X0000360000Y0000240000D03*
X0000430827Y0000250827D03*
X0000351500Y0000240000D03*
X0000268779Y0000243622D03*
X0000437126Y0000207874D03*
X0000344370Y0000199527D03*
X0000443425Y0000185827D03*
X0000347520Y0000196378D03*
X0000341221Y0000249921D03*
X0000271929Y0000186929D03*
X0000349000Y0000188600D03*
X0000427677Y0000188976D03*
X0000331771Y0000243622D03*
X0000347520Y0000262520D03*
X0000334921Y0000262520D03*
X0000322323Y0000262520D03*
X0000347520Y0000249921D03*
X0000331771Y0000249921D03*
X0000328622Y0000249921D03*
X0000322323Y0000249921D03*
X0000347520Y0000234173D03*
X0000334921Y0000237323D03*
X0000331771Y0000231024D03*
X0000341221Y0000227874D03*
X0000334921Y0000224725D03*
X0000344370Y0000221575D03*
X0000331771Y0000215275D03*
X0000334921Y0000208976D03*
X0000344370Y0000208976D03*
X0000334921Y0000202677D03*
X0000331771Y0000196378D03*
X0000344370Y0000193228D03*
X0000331772Y0000193228D03*
X0000347520Y0000177480D03*
X0000262480Y0000262520D03*
X0000275079Y0000262520D03*
X0000262480Y0000249921D03*
X0000275079Y0000249921D03*
X0000275079Y0000243622D03*
X0000265630Y0000240473D03*
X0000275079Y0000237323D03*
X0000262480Y0000231024D03*
X0000275079Y0000231024D03*
X0000275079Y0000224725D03*
X0000265630Y0000221575D03*
X0000275079Y0000215275D03*
X0000275079Y0000208976D03*
X0000262480Y0000208976D03*
X0000275079Y0000202677D03*
X0000265630Y0000199527D03*
X0000275079Y0000196378D03*
X0000287677Y0000190079D03*
X0000281378Y0000190079D03*
X0000275079Y0000190079D03*
X0000262480Y0000190079D03*
X0000275079Y0000180630D03*
X0000284527Y0000180630D03*
X0000262480Y0000177480D03*
X0000443425Y0000214173D03*
X0000344370Y0000196378D03*
X0000338071Y0000193228D03*
X0000278228Y0000186929D03*
X0000449724Y0000211024D03*
X0000352500Y0000262500D03*
X0000443425Y0000272874D03*
X0000443425Y0000279173D03*
X0000344370Y0000253071D03*
X0000446575Y0000211024D03*
X0000421379Y0000276024D03*
X0000344370Y0000243622D03*
X0000265630Y0000215275D03*
X0000430827Y0000272874D03*
X0000344370Y0000246772D03*
X0000424527Y0000257127D03*
X0000338071Y0000240473D03*
X0000265630Y0000202677D03*
X0000426000Y0000248500D03*
X0000338071Y0000259370D03*
X0000424527Y0000272874D03*
X0000341221Y0000243622D03*
X0000271929Y0000205827D03*
X0000443425Y0000207874D03*
X0000350500Y0000203500D03*
X0000424527Y0000192126D03*
X0000338071Y0000183779D03*
X0000424527Y0000279173D03*
X0000356500Y0000250000D03*
X0000440275Y0000211024D03*
X0000355500Y0000203500D03*
X0000424527Y0000250827D03*
X0000344370Y0000240473D03*
X0000443425Y0000188976D03*
X0000341221Y0000202677D03*
X0000271929Y0000202677D03*
X0000443425Y0000257127D03*
X0000334921Y0000253071D03*
X0000268779Y0000202677D03*
X0000430827Y0000257127D03*
X0000352050Y0000242746D03*
X0000430827Y0000207874D03*
X0000341221Y0000190079D03*
X0000341221Y0000205827D03*
X0000262480Y0000202677D03*
X0000338071Y0000205827D03*
X0000271929Y0000180630D03*
X0000430827Y0000185827D03*
X0000334921Y0000190079D03*
X0000341221Y0000237323D03*
X0000265630Y0000237323D03*
X0000338071Y0000237323D03*
X0000430827Y0000192126D03*
X0000351325Y0000185729D03*
X0000443425Y0000253977D03*
X0000341221Y0000253071D03*
X0000271929Y0000237323D03*
X0000297126Y0000186929D03*
X0000271929Y0000249921D03*
X0000312874Y0000186929D03*
X0000271929Y0000246772D03*
X0000300275Y0000177480D03*
X0000281378Y0000186929D03*
X0000262480Y0000237323D03*
X0000275079Y0000183779D03*
X0000275079Y0000186929D03*
X0000271929Y0000215275D03*
X0000446575Y0000188976D03*
X0000446575Y0000253977D03*
X0000287677Y0000183779D03*
X0000265630Y0000177480D03*
X0000265630Y0000180630D03*
X0000446575Y0000257127D03*
X0000268779Y0000249921D03*
X0000334921Y0000234173D03*
X0000312875Y0000256220D03*
X0000281378Y0000256221D03*
X0000278228Y0000256220D03*
X0000306575Y0000253071D03*
X0000316024Y0000256221D03*
X0000344370Y0000262520D03*
X0000312875Y0000259370D03*
X0000306575Y0000262520D03*
X0000334921Y0000259370D03*
X0000306575Y0000259370D03*
X0000334921Y0000256221D03*
X0000331772Y0000253071D03*
X0000344370Y0000249921D03*
X0000328622Y0000246771D03*
X0000325473Y0000249921D03*
X0000319173Y0000249921D03*
X0000312874Y0000249921D03*
X0000306575Y0000249921D03*
X0000331771Y0000246772D03*
X0000338071Y0000243622D03*
X0000344370Y0000234173D03*
X0000319173Y0000237323D03*
X0000312874Y0000237323D03*
X0000306575Y0000237323D03*
X0000322323Y0000234173D03*
X0000316024Y0000231024D03*
X0000319173Y0000231024D03*
X0000306575Y0000231024D03*
X0000347520Y0000227874D03*
X0000331771Y0000227874D03*
X0000316024Y0000224725D03*
X0000309725Y0000227874D03*
X0000319173Y0000224725D03*
X0000306575Y0000224725D03*
X0000347520Y0000221575D03*
X0000334921Y0000221575D03*
X0000322323Y0000221575D03*
X0000316024Y0000221575D03*
X0000309725Y0000221575D03*
X0000306575Y0000215275D03*
X0000312874Y0000215275D03*
X0000319173Y0000215275D03*
X0000338071Y0000215275D03*
X0000309725Y0000212126D03*
X0000322323Y0000212126D03*
X0000334921Y0000212126D03*
X0000347520Y0000212126D03*
X0000306575Y0000208976D03*
X0000316024Y0000208976D03*
X0000322323Y0000205827D03*
X0000334921Y0000205827D03*
X0000306575Y0000202677D03*
X0000312874Y0000202677D03*
X0000319173Y0000202677D03*
X0000334921Y0000199527D03*
X0000334921Y0000193228D03*
X0000347520Y0000193228D03*
X0000311500Y0000194000D03*
X0000322323Y0000190079D03*
X0000331772Y0000190079D03*
X0000319173Y0000186929D03*
X0000309725Y0000183779D03*
X0000322323Y0000183779D03*
X0000306575Y0000180630D03*
X0000316024Y0000180630D03*
X0000344370Y0000180630D03*
X0000309725Y0000177480D03*
X0000322323Y0000177480D03*
X0000331772Y0000177480D03*
X0000265630Y0000262520D03*
X0000268779Y0000262520D03*
X0000278228Y0000262520D03*
X0000284527Y0000262520D03*
X0000293976Y0000262520D03*
X0000265630Y0000259370D03*
X0000268779Y0000259370D03*
X0000275079Y0000259370D03*
X0000290827Y0000259370D03*
X0000293976Y0000259370D03*
X0000284527Y0000253071D03*
X0000265630Y0000256221D03*
X0000268779Y0000256221D03*
X0000293976Y0000253071D03*
X0000300275Y0000253071D03*
X0000265630Y0000249921D03*
X0000284527Y0000249921D03*
X0000290827Y0000249921D03*
X0000297126Y0000249921D03*
X0000275079Y0000246772D03*
X0000262480Y0000243622D03*
X0000275079Y0000240473D03*
X0000290827Y0000237323D03*
X0000297126Y0000237323D03*
X0000275079Y0000234173D03*
X0000300275Y0000234173D03*
X0000265630Y0000231024D03*
X0000290827Y0000231024D03*
X0000297126Y0000231024D03*
X0000275079Y0000227874D03*
X0000293976Y0000227874D03*
X0000300275Y0000227874D03*
X0000262480Y0000221575D03*
X0000275079Y0000221575D03*
X0000287677Y0000221575D03*
X0000293976Y0000221575D03*
X0000300275Y0000221575D03*
X0000297126Y0000215275D03*
X0000290827Y0000215275D03*
X0000300275Y0000212126D03*
X0000293976Y0000212126D03*
X0000290827Y0000208976D03*
X0000265630Y0000208976D03*
X0000300275Y0000205827D03*
X0000293976Y0000205827D03*
X0000275079Y0000205827D03*
X0000290827Y0000202677D03*
X0000275079Y0000199527D03*
X0000262480Y0000199527D03*
X0000275079Y0000193228D03*
X0000300275Y0000190079D03*
X0000290827Y0000190079D03*
X0000284527Y0000190079D03*
X0000278228Y0000190079D03*
X0000265630Y0000190079D03*
X0000293976Y0000186929D03*
X0000265630Y0000186929D03*
X0000262480Y0000186929D03*
X0000297126Y0000183779D03*
X0000300000Y0000172000D03*
X0000275079Y0000177480D03*
X0000271929Y0000177480D03*
X0000268779Y0000177480D03*
X0000334921Y0000240473D03*
X0000275079Y0000212126D03*
X0000347520Y0000180630D03*
X0000297126Y0000202677D03*
X0000287677Y0000227874D03*
X0000347520Y0000208976D03*
X0000437126Y0000211024D03*
X0000446575Y0000192126D03*
X0000443425Y0000211024D03*
X0000465473Y0000214173D03*
X0000462323Y0000185827D03*
X0000430827Y0000211024D03*
X0000424527Y0000211024D03*
X0000446575Y0000207874D03*
X0000440275Y0000188976D03*
X0000433976Y0000204724D03*
X0000424527Y0000188976D03*
X0000421378Y0000204724D03*
X0000433976Y0000192126D03*
X0000421379Y0000192126D03*
X0000440275Y0000253977D03*
X0000443425Y0000276024D03*
X0000462323Y0000250827D03*
X0000421378Y0000269725D03*
X0000424527Y0000253977D03*
X0000424527Y0000276024D03*
X0000433976Y0000269724D03*
X0000430827Y0000276024D03*
X0000437126Y0000276024D03*
X0000446575Y0000272874D03*
X0000465473Y0000279173D03*
X0000433976Y0000257127D03*
X0000421379Y0000257127D03*
X0000334921Y0000180630D03*
X0000271929Y0000183779D03*
X0000328622Y0000186929D03*
X0000312874Y0000190079D03*
X0000284527Y0000186929D03*
X0000287677Y0000186929D03*
X0000331772Y0000183779D03*
X0000312874Y0000180630D03*
X0000325473Y0000186929D03*
X0000312874Y0000183779D03*
X0000290827Y0000186929D03*
X0000306575Y0000177480D03*
X0000328622Y0000183779D03*
X0000278228Y0000180630D03*
X0000484367Y0000234075D03*
X0000484367Y0000201575D03*
X0000484367Y0000266575D03*
X0000338071Y0000234173D03*
X0000437126Y0000272874D03*
X0000344370Y0000256221D03*
X0000300275Y0000186929D03*
X0000271929Y0000256220D03*
X0000268779Y0000246772D03*
X0000268779Y0000240473D03*
X0000271929Y0000240473D03*
X0000265630Y0000243622D03*
X0000338071Y0000224725D03*
X0000271929Y0000243622D03*
X0000268779Y0000237323D03*
X0000268779Y0000224725D03*
X0000268779Y0000227874D03*
X0000268779Y0000221575D03*
X0000271929Y0000221575D03*
X0000265630Y0000227874D03*
X0000271929Y0000227874D03*
X0000262480Y0000224725D03*
X0000293976Y0000183779D03*
X0000262480Y0000212126D03*
X0000265630Y0000212126D03*
X0000271929Y0000234173D03*
X0000287677Y0000180630D03*
X0000262480Y0000215275D03*
X0000290827Y0000180630D03*
X0000271929Y0000224725D03*
X0000265630Y0000224725D03*
X0000265630Y0000234173D03*
X0000334921Y0000186929D03*
X0000262480Y0000227874D03*
X0000338071Y0000186929D03*
X0000271929Y0000231024D03*
X0000268779Y0000215275D03*
X0000268779Y0000231024D03*
X0000290827Y0000183779D03*
X0000331772Y0000186929D03*
X0000268779Y0000212126D03*
X0000325473Y0000253071D03*
X0000306575Y0000256221D03*
X0000328622Y0000256221D03*
X0000271929Y0000212126D03*
X0000268779Y0000190079D03*
X0000281378Y0000253071D03*
X0000271929Y0000208976D03*
X0000265630Y0000193228D03*
G54D32*
G01X0000180000Y0000012500D02*
X0000180000Y0000016700D01*
G01X0000175800Y0000012500D02*
X0000180000Y0000012500D01*
G01X0000180000Y0000012500D02*
X0000184200Y0000012500D01*
G01X0000142500Y0000012500D02*
X0000142500Y0000016700D01*
G01X0000138300Y0000012500D02*
X0000142500Y0000012500D01*
G01X0000142500Y0000012500D02*
X0000146700Y0000012500D01*
G01X0000010000Y0000288200D02*
X0000010000Y0000292500D01*
G01X0000010000Y0000292500D02*
X0000010000Y0000296800D01*
G01X0000010000Y0000292500D02*
X0000014300Y0000292500D01*
G01X0000010000Y0000248200D02*
X0000010000Y0000252500D01*
G01X0000010000Y0000252500D02*
X0000010000Y0000256800D01*
G01X0000010000Y0000252500D02*
X0000014300Y0000252500D01*
G01X0000010000Y0000128200D02*
X0000010000Y0000132500D01*
G01X0000010000Y0000132500D02*
X0000010000Y0000136800D01*
G01X0000010000Y0000132500D02*
X0000014300Y0000132500D01*
G01X0000010000Y0000118200D02*
X0000010000Y0000122500D01*
G01X0000010000Y0000122500D02*
X0000010000Y0000126800D01*
G01X0000010000Y0000122500D02*
X0000014300Y0000122500D01*
G01X0000010000Y0000098200D02*
X0000010000Y0000102500D01*
G01X0000010000Y0000102500D02*
X0000010000Y0000106800D01*
G01X0000010000Y0000102500D02*
X0000014300Y0000102500D01*
G01X0000195531Y0000242300D02*
X0000195531Y0000245000D01*
G01X0000192581Y0000245000D02*
X0000195531Y0000245000D01*
G01X0000144469Y0000255000D02*
X0000144469Y0000257700D01*
G01X0000144469Y0000255000D02*
X0000147419Y0000255000D01*
G01X0000170000Y0000229469D02*
X0000170000Y0000232419D01*
G01X0000170000Y0000229469D02*
X0000172700Y0000229469D01*
G01X0000287539Y0000021800D02*
X0000287539Y0000027500D01*
G01X0000287539Y0000027500D02*
X0000287539Y0000033200D01*
G01X0000281839Y0000027500D02*
X0000287539Y0000027500D01*
G01X0000287539Y0000027500D02*
X0000293239Y0000027500D01*
G01X0000337461Y0000021800D02*
X0000337461Y0000027500D01*
G01X0000337461Y0000027500D02*
X0000337461Y0000033200D01*
G01X0000331761Y0000027500D02*
X0000337461Y0000027500D01*
G01X0000337461Y0000027500D02*
X0000343161Y0000027500D01*
G01X0000337461Y0000034280D02*
X0000337461Y0000039980D01*
G01X0000337461Y0000039980D02*
X0000337461Y0000045680D01*
G01X0000331761Y0000039980D02*
X0000337461Y0000039980D01*
G01X0000337461Y0000039980D02*
X0000343161Y0000039980D01*
G01X0000447492Y0000088288D02*
X0000447492Y0000093988D01*
G01X0000447492Y0000093988D02*
X0000447492Y0000099688D01*
G01X0000441792Y0000093988D02*
X0000447492Y0000093988D01*
G01X0000447492Y0000093988D02*
X0000453192Y0000093988D01*
G01X0000447500Y0000145540D02*
X0000447500Y0000151240D01*
G01X0000447500Y0000151240D02*
X0000447500Y0000156940D01*
G01X0000441800Y0000151240D02*
X0000447500Y0000151240D01*
G01X0000447500Y0000151240D02*
X0000453200Y0000151240D01*
G54D23*
X0000078031Y0000207500D03*
X0000081969Y0000207500D03*
X0000099469Y0000137500D03*
X0000095531Y0000137500D03*
X0000082531Y0000134000D03*
X0000086469Y0000134000D03*
X0000082531Y0000126000D03*
X0000086469Y0000126000D03*
X0000116969Y0000227500D03*
X0000113031Y0000227500D03*
X0000078031Y0000232500D03*
X0000081969Y0000232500D03*
X0000116969Y0000202500D03*
X0000113031Y0000202500D03*
X0000075531Y0000095000D03*
X0000079469Y0000095000D03*
X0000140531Y0000255000D03*
X0000144469Y0000255000D03*
X0000063031Y0000092500D03*
X0000066969Y0000092500D03*
X0000063031Y0000077500D03*
X0000066969Y0000077500D03*
X0000234469Y0000130000D03*
X0000230531Y0000130000D03*
X0000178031Y0000107500D03*
X0000181969Y0000107500D03*
X0000199469Y0000245000D03*
X0000195531Y0000245000D03*
X0000178031Y0000100000D03*
X0000181969Y0000100000D03*
X0000206969Y0000117500D03*
X0000203031Y0000117500D03*
X0000206969Y0000112500D03*
X0000203031Y0000112500D03*
X0000206969Y0000107500D03*
X0000203031Y0000107500D03*
X0000206969Y0000102500D03*
X0000203031Y0000102500D03*
X0000371969Y0000222500D03*
X0000368031Y0000222500D03*
X0000429469Y0000204000D03*
X0000425531Y0000204000D03*
X0000310031Y0000234000D03*
X0000313969Y0000234000D03*
X0000317969Y0000212000D03*
X0000314031Y0000212000D03*
X0000432531Y0000189500D03*
X0000436469Y0000189500D03*
X0000288031Y0000234000D03*
X0000291969Y0000234000D03*
X0000442031Y0000204000D03*
X0000445969Y0000204000D03*
X0000428969Y0000269000D03*
X0000425031Y0000269000D03*
X0000438969Y0000260500D03*
X0000435031Y0000260500D03*
X0000426969Y0000260500D03*
X0000423031Y0000260500D03*
X0000326031Y0000208000D03*
X0000329969Y0000208000D03*
X0000298469Y0000218500D03*
X0000294531Y0000218500D03*
X0000432531Y0000254500D03*
X0000436469Y0000254500D03*
X0000269469Y0000080000D03*
X0000265531Y0000080000D03*
X0000336031Y0000218500D03*
X0000339969Y0000218500D03*
X0000330969Y0000218500D03*
X0000327031Y0000218500D03*
X0000345531Y0000218500D03*
X0000349469Y0000218500D03*
X0000278531Y0000223000D03*
X0000282469Y0000223000D03*
X0000257969Y0000191000D03*
X0000254031Y0000191000D03*
X0000329969Y0000203000D03*
X0000326031Y0000203000D03*
X0000260031Y0000174500D03*
X0000263969Y0000174500D03*
X0000325031Y0000230000D03*
X0000328969Y0000230000D03*
X0000312469Y0000218000D03*
X0000308531Y0000218000D03*
X0000321969Y0000218500D03*
X0000318031Y0000218500D03*
X0000288969Y0000218500D03*
X0000285031Y0000218500D03*
X0000338031Y0000290000D03*
X0000341969Y0000290000D03*
X0000325531Y0000239000D03*
X0000329469Y0000239000D03*
X0000287469Y0000212500D03*
X0000283531Y0000212500D03*
X0000326031Y0000212500D03*
X0000329969Y0000212500D03*
X0000273469Y0000253000D03*
X0000269531Y0000253000D03*
X0000296969Y0000224500D03*
X0000293031Y0000224500D03*
X0000325531Y0000234500D03*
X0000329469Y0000234500D03*
X0000365531Y0000257500D03*
X0000369469Y0000257500D03*
X0000261969Y0000290000D03*
X0000258031Y0000290000D03*
X0000310031Y0000206000D03*
X0000313969Y0000206000D03*
X0000371969Y0000197500D03*
X0000368031Y0000197500D03*
G54D14*
X0000040000Y0000030000D03*
X0000119330Y0000320000D03*
X0000111456Y0000320000D03*
X0000103582Y0000320000D03*
X0000095708Y0000320000D03*
X0000119330Y0000330000D03*
X0000111456Y0000330000D03*
X0000103582Y0000330000D03*
X0000095708Y0000330000D03*
X0000042500Y0000322500D03*
X0000392480Y0000320000D03*
X0000400354Y0000320000D03*
X0000408228Y0000320000D03*
X0000416102Y0000320000D03*
X0000392480Y0000330000D03*
X0000400354Y0000330000D03*
X0000408228Y0000330000D03*
X0000416102Y0000330000D03*
X0000470000Y0000325000D03*
G54D33*
G01X0000045500Y0000027500D02*
X0000045500Y0000032500D01*
X0000042500Y0000035500D01*
X0000037500Y0000035500D01*
X0000034500Y0000032500D01*
X0000034500Y0000027500D01*
X0000037500Y0000024500D01*
X0000042500Y0000024500D01*
X0000045500Y0000027500D01*
G01X0000048000Y0000320000D02*
X0000048000Y0000325000D01*
X0000045000Y0000328000D01*
X0000040000Y0000328000D01*
X0000037000Y0000325000D01*
X0000037000Y0000320000D01*
X0000040000Y0000317000D01*
X0000045000Y0000317000D01*
X0000048000Y0000320000D01*
G01X0000475500Y0000322500D02*
X0000475500Y0000327500D01*
X0000472500Y0000330500D01*
X0000467500Y0000330500D01*
X0000464500Y0000327500D01*
X0000464500Y0000322500D01*
X0000467500Y0000319500D01*
X0000472500Y0000319500D01*
X0000475500Y0000322500D01*
G01X0000293976Y0000190079D02*
X0000295826Y0000191929D01*
X0000297929Y0000191929D01*
X0000299500Y0000193500D01*
X0000299500Y0000194531D01*
G01X0000443992Y0000269000D02*
X0000443992Y0000269508D01*
X0000440626Y0000272874D01*
X0000440275Y0000272874D01*
G01X0000276000Y0000267031D02*
X0000276000Y0000265921D01*
X0000275079Y0000265000D01*
X0000275079Y0000262520D01*
G01X0000330969Y0000218500D02*
X0000330969Y0000220773D01*
X0000334921Y0000224725D01*
G01X0000257969Y0000191000D02*
X0000261559Y0000191000D01*
X0000262480Y0000190079D01*
G01X0000262480Y0000177480D02*
X0000260031Y0000175031D01*
X0000260031Y0000174500D01*
G01X0000265630Y0000177480D02*
X0000263969Y0000175819D01*
X0000263969Y0000174500D01*
G54D24*
X0000100492Y0000132500D03*
X0000094508Y0000132500D03*
X0000185492Y0000095000D03*
X0000179508Y0000095000D03*
X0000279508Y0000201000D03*
X0000285492Y0000201000D03*
X0000485492Y0000062500D03*
X0000479508Y0000062500D03*
X0000443992Y0000269000D03*
X0000438008Y0000269000D03*
X0000468492Y0000247000D03*
X0000462508Y0000247000D03*
X0000459508Y0000218000D03*
X0000465492Y0000218000D03*
X0000440992Y0000196500D03*
X0000435008Y0000196500D03*
X0000468492Y0000182000D03*
X0000462508Y0000182000D03*
X0000428492Y0000196500D03*
X0000422508Y0000196500D03*
X0000459508Y0000283000D03*
X0000465492Y0000283000D03*
X0000270492Y0000075000D03*
X0000264508Y0000075000D03*
X0000364508Y0000252500D03*
X0000370492Y0000252500D03*
X0000351508Y0000232500D03*
X0000357492Y0000232500D03*
X0000347992Y0000266500D03*
X0000342008Y0000266500D03*
X0000335492Y0000266500D03*
X0000329508Y0000266500D03*
X0000260508Y0000267000D03*
X0000266492Y0000267000D03*
X0000364508Y0000242500D03*
X0000370492Y0000242500D03*
X0000364508Y0000247500D03*
X0000370492Y0000247500D03*
X0000349508Y0000152500D03*
X0000355492Y0000152500D03*
X0000262992Y0000285000D03*
X0000257008Y0000285000D03*
X0000277992Y0000287500D03*
X0000272008Y0000287500D03*
X0000337008Y0000285000D03*
X0000342992Y0000285000D03*
X0000362008Y0000160000D03*
X0000367992Y0000160000D03*
X0000362008Y0000170000D03*
X0000367992Y0000170000D03*
X0000277992Y0000280000D03*
X0000272008Y0000280000D03*
X0000349508Y0000160000D03*
X0000355492Y0000160000D03*
X0000262992Y0000280000D03*
X0000257008Y0000280000D03*
X0000337008Y0000280000D03*
X0000342992Y0000280000D03*
X0000367992Y0000185000D03*
X0000362008Y0000185000D03*
G54D15*
X0000152343Y0000012500D03*
X0000189843Y0000012500D03*
X0000245000Y0000145000D03*
X0000168500Y0000107000D03*
X0000168500Y0000097000D03*
X0000207500Y0000080000D03*
X0000257500Y0000145000D03*
G54D34*
G01X0000164508Y0000050000D02*
X0000160000Y0000050000D01*
G01X0000164508Y0000045000D02*
X0000164508Y0000050000D01*
G01X0000170492Y0000045000D02*
X0000170492Y0000040000D01*
G01X0000225000Y0000045827D02*
X0000220827Y0000045827D01*
X0000220000Y0000045000D01*
G01X0000125000Y0000055531D02*
X0000125000Y0000050000D01*
G01X0000164508Y0000040000D02*
X0000160000Y0000040000D01*
G01X0000135000Y0000055531D02*
X0000135000Y0000050000D01*
G01X0000130000Y0000054508D02*
X0000130000Y0000050000D01*
G01X0000170492Y0000050000D02*
X0000175000Y0000050000D01*
G01X0000100492Y0000132500D02*
X0000102500Y0000132500D01*
X0000105000Y0000130000D01*
G01X0000100492Y0000132500D02*
X0000100492Y0000134500D01*
X0000099469Y0000135523D01*
X0000099469Y0000137500D01*
G01X0000140655Y0000311750D02*
X0000140655Y0000315655D01*
X0000142500Y0000317500D01*
G01X0000143155Y0000311750D02*
X0000143155Y0000316845D01*
X0000142500Y0000317500D01*
G01X0000176673Y0000190000D02*
X0000176673Y0000195000D01*
G01X0000176673Y0000195000D02*
X0000180000Y0000195000D01*
G01X0000176673Y0000200000D02*
X0000176673Y0000195000D01*
G01X0000155000Y0000190531D02*
X0000150531Y0000190531D01*
X0000150000Y0000190000D01*
G01X0000097500Y0000236969D02*
X0000097500Y0000237500D01*
X0000095000Y0000240000D01*
G01X0000116969Y0000202500D02*
X0000117500Y0000202500D01*
X0000120000Y0000205000D01*
G01X0000116969Y0000227500D02*
X0000117500Y0000227500D01*
X0000120000Y0000230000D01*
G01X0000092500Y0000198031D02*
X0000092500Y0000197500D01*
X0000095000Y0000195000D01*
G01X0000087500Y0000198031D02*
X0000087500Y0000197500D01*
X0000090000Y0000195000D01*
G01X0000125000Y0000059469D02*
X0000125000Y0000065000D01*
G01X0000130000Y0000060492D02*
X0000128977Y0000059469D01*
X0000125000Y0000059469D01*
G01X0000135000Y0000059469D02*
X0000135000Y0000065000D01*
G01X0000140000Y0000060492D02*
X0000138977Y0000059469D01*
X0000135000Y0000059469D01*
G01X0000135500Y0000070000D02*
X0000135500Y0000065500D01*
X0000135000Y0000065000D01*
G01X0000135500Y0000070000D02*
X0000140000Y0000070000D01*
G01X0000215000Y0000260827D02*
X0000215000Y0000255000D01*
G01X0000075000Y0000210000D02*
X0000076000Y0000211000D01*
X0000079324Y0000211000D01*
X0000087500Y0000219176D01*
X0000087500Y0000237500D01*
X0000090000Y0000240000D01*
G01X0000230827Y0000135000D02*
X0000225000Y0000135000D01*
G01X0000135000Y0000080531D02*
X0000135000Y0000075000D01*
G01X0000135000Y0000080531D02*
X0000136477Y0000080531D01*
X0000137500Y0000079508D01*
X0000140000Y0000079508D01*
G01X0000125000Y0000080531D02*
X0000125000Y0000075000D01*
G01X0000130000Y0000079508D02*
X0000128977Y0000080531D01*
X0000125000Y0000080531D01*
G01X0000117500Y0000079500D02*
X0000120000Y0000077000D01*
X0000120000Y0000075000D01*
G01X0000117500Y0000079500D02*
X0000115000Y0000077000D01*
X0000115000Y0000075000D01*
G01X0000234469Y0000130000D02*
X0000234469Y0000125531D01*
X0000235000Y0000125000D01*
G01X0000220000Y0000264469D02*
X0000224469Y0000264469D01*
X0000225000Y0000265000D01*
G01X0000224508Y0000110000D02*
X0000220000Y0000110000D01*
G01X0000245000Y0000289469D02*
X0000245000Y0000295000D01*
G01X0000230492Y0000100000D02*
X0000230492Y0000110000D01*
G01X0000230492Y0000070000D02*
X0000230492Y0000085000D01*
G01X0000230492Y0000055000D02*
X0000230492Y0000070000D01*
G01X0000230492Y0000085000D02*
X0000230492Y0000100000D01*
G01X0000230492Y0000110000D02*
X0000248500Y0000110000D01*
X0000256000Y0000117500D01*
X0000294500Y0000117500D01*
X0000309500Y0000102500D01*
X0000312500Y0000102500D01*
G01X0000124508Y0000220000D02*
X0000120000Y0000220000D01*
G01X0000124508Y0000225000D02*
X0000124508Y0000220000D01*
G01X0000225000Y0000090827D02*
X0000220827Y0000090827D01*
X0000220000Y0000090000D01*
G01X0000225000Y0000060827D02*
X0000220827Y0000060827D01*
X0000220000Y0000060000D01*
G01X0000225000Y0000075827D02*
X0000220827Y0000075827D01*
X0000220000Y0000075000D01*
G01X0000170000Y0000225531D02*
X0000165531Y0000225531D01*
X0000165000Y0000225000D01*
G01X0000095531Y0000137500D02*
X0000092500Y0000137500D01*
X0000090000Y0000140000D01*
G01X0000094508Y0000132500D02*
X0000094508Y0000134500D01*
X0000095531Y0000135523D01*
X0000095531Y0000137500D01*
G01X0000145000Y0000202992D02*
X0000145000Y0000205000D01*
X0000150000Y0000210000D01*
G01X0000230531Y0000130000D02*
X0000225000Y0000130000D01*
G01X0000242500Y0000155827D02*
X0000242500Y0000152500D01*
X0000240000Y0000150000D01*
G01X0000179508Y0000095000D02*
X0000179508Y0000090492D01*
X0000180000Y0000090000D01*
G01X0000175000Y0000125492D02*
X0000170492Y0000125492D01*
X0000170000Y0000125000D01*
G01X0000202500Y0000134469D02*
X0000202500Y0000137500D01*
X0000205000Y0000140000D01*
G01X0000048327Y0000085000D02*
X0000048327Y0000090000D01*
G01X0000048327Y0000090000D02*
X0000045000Y0000090000D01*
G01X0000048327Y0000095000D02*
X0000048327Y0000090000D01*
G01X0000048327Y0000075000D02*
X0000048327Y0000080000D01*
G01X0000048327Y0000080000D02*
X0000045000Y0000080000D01*
G01X0000097500Y0000233031D02*
X0000097500Y0000232500D01*
X0000095000Y0000230000D01*
G01X0000032500Y0000189508D02*
X0000032500Y0000185000D01*
G01X0000220000Y0000260531D02*
X0000220000Y0000255000D01*
G01X0000245000Y0000285531D02*
X0000249469Y0000285531D01*
X0000250000Y0000285000D01*
G01X0000258031Y0000290000D02*
X0000250000Y0000290000D01*
G01X0000197500Y0000185531D02*
X0000197500Y0000182500D01*
X0000195000Y0000180000D01*
G01X0000155000Y0000194469D02*
X0000155000Y0000200000D01*
G01X0000243327Y0000185000D02*
X0000240000Y0000185000D01*
G01X0000243327Y0000190000D02*
X0000243327Y0000185000D01*
G01X0000243327Y0000230000D02*
X0000243327Y0000225000D01*
G01X0000243327Y0000225000D02*
X0000240000Y0000225000D01*
G01X0000243327Y0000210000D02*
X0000243327Y0000205000D01*
G01X0000243327Y0000205000D02*
X0000240000Y0000205000D01*
G01X0000243327Y0000235000D02*
X0000240000Y0000235000D01*
G01X0000243327Y0000240000D02*
X0000243327Y0000235000D01*
G01X0000243327Y0000195000D02*
X0000240000Y0000195000D01*
G01X0000243327Y0000200000D02*
X0000243327Y0000195000D01*
G01X0000243327Y0000215000D02*
X0000240000Y0000215000D01*
G01X0000243327Y0000220000D02*
X0000243327Y0000215000D01*
G01X0000243327Y0000260000D02*
X0000243327Y0000255000D01*
G01X0000243327Y0000255000D02*
X0000240000Y0000255000D01*
G01X0000243327Y0000250000D02*
X0000243327Y0000245000D01*
G01X0000243327Y0000245000D02*
X0000240000Y0000245000D01*
G01X0000032500Y0000219508D02*
X0000032500Y0000215000D01*
G01X0000200655Y0000311750D02*
X0000200655Y0000315655D01*
X0000202500Y0000317500D01*
G01X0000203155Y0000311750D02*
X0000203155Y0000316845D01*
X0000202500Y0000317500D01*
G01X0000244655Y0000311750D02*
X0000244655Y0000317155D01*
X0000245000Y0000317500D01*
G01X0000247155Y0000311750D02*
X0000247155Y0000315345D01*
X0000245000Y0000317500D01*
G01X0000234655Y0000311750D02*
X0000234655Y0000317155D01*
X0000235000Y0000317500D01*
G01X0000237155Y0000311750D02*
X0000237155Y0000315345D01*
X0000235000Y0000317500D01*
G01X0000232155Y0000311750D02*
X0000232155Y0000315345D01*
X0000230000Y0000317500D01*
G01X0000224655Y0000311750D02*
X0000224655Y0000317155D01*
X0000225000Y0000317500D01*
G01X0000170655Y0000311750D02*
X0000170655Y0000315655D01*
X0000172500Y0000317500D01*
G01X0000173155Y0000311750D02*
X0000173155Y0000316845D01*
X0000172500Y0000317500D01*
G01X0000160655Y0000311750D02*
X0000160655Y0000315655D01*
X0000162500Y0000317500D01*
G01X0000163155Y0000311750D02*
X0000163155Y0000316845D01*
X0000162500Y0000317500D01*
G01X0000153155Y0000311750D02*
X0000153155Y0000316845D01*
X0000152500Y0000317500D01*
G01X0000255905Y0000325000D02*
X0000217500Y0000325000D01*
G01X0000171905Y0000325000D02*
X0000135000Y0000325000D01*
G01X0000171905Y0000325000D02*
X0000210000Y0000325000D01*
G01X0000087500Y0000201969D02*
X0000087500Y0000202500D01*
X0000090000Y0000205000D01*
G01X0000113031Y0000202500D02*
X0000112500Y0000202500D01*
X0000110000Y0000205000D01*
G01X0000100000Y0000190492D02*
X0000100000Y0000195000D01*
G01X0000120000Y0000225000D02*
X0000120000Y0000226500D01*
X0000123500Y0000230000D01*
X0000125827Y0000230000D01*
G01X0000081969Y0000207500D02*
X0000082500Y0000207500D01*
X0000085000Y0000205000D01*
G01X0000081969Y0000232500D02*
X0000082500Y0000232500D01*
X0000085000Y0000230000D01*
G01X0000102500Y0000233031D02*
X0000102500Y0000232500D01*
X0000100000Y0000230000D01*
G01X0000092500Y0000201969D02*
X0000092500Y0000202500D01*
X0000095000Y0000205000D01*
G01X0000113031Y0000227500D02*
X0000112500Y0000227500D01*
X0000110000Y0000230000D01*
G01X0000096673Y0000075000D02*
X0000096673Y0000071673D01*
X0000095000Y0000070000D01*
G01X0000096673Y0000090000D02*
X0000105000Y0000090000D01*
G01X0000066969Y0000077500D02*
X0000067500Y0000077500D01*
X0000070000Y0000080000D01*
G01X0000066969Y0000092500D02*
X0000067500Y0000092500D01*
X0000070000Y0000090000D01*
G01X0000072500Y0000076969D02*
X0000072500Y0000077500D01*
X0000070000Y0000080000D01*
G01X0000077500Y0000076969D02*
X0000077500Y0000077500D01*
X0000080000Y0000080000D01*
G01X0000079469Y0000095000D02*
X0000079469Y0000090531D01*
X0000080000Y0000090000D01*
G01X0000100000Y0000124469D02*
X0000095531Y0000124469D01*
X0000095000Y0000125000D01*
G01X0000185000Y0000169469D02*
X0000185000Y0000175000D01*
G01X0000140000Y0000085492D02*
X0000140000Y0000090000D01*
G01X0000135000Y0000084469D02*
X0000138977Y0000084469D01*
X0000140000Y0000085492D01*
G01X0000120000Y0000059173D02*
X0000120000Y0000065000D01*
G01X0000115000Y0000059173D02*
X0000115000Y0000065000D01*
G01X0000185000Y0000079508D02*
X0000194508Y0000079508D01*
X0000195000Y0000080000D01*
G01X0000192500Y0000096969D02*
X0000192500Y0000102500D01*
G01X0000197500Y0000096969D02*
X0000197500Y0000102500D01*
G01X0000203031Y0000102500D02*
X0000197500Y0000102500D01*
G01X0000203031Y0000107500D02*
X0000197500Y0000107500D01*
G01X0000203031Y0000112500D02*
X0000197500Y0000112500D01*
G01X0000203031Y0000117500D02*
X0000203031Y0000112500D01*
G01X0000197500Y0000118031D02*
X0000197500Y0000112500D01*
G01X0000192500Y0000118031D02*
X0000192500Y0000112500D01*
G01X0000187500Y0000118031D02*
X0000187500Y0000112500D01*
G01X0000181969Y0000107500D02*
X0000187500Y0000107500D01*
G01X0000181969Y0000100000D02*
X0000185000Y0000100000D01*
X0000187500Y0000102500D01*
G01X0000182500Y0000135492D02*
X0000182500Y0000137500D01*
X0000180000Y0000140000D01*
G01X0000130000Y0000085492D02*
X0000130000Y0000090000D01*
G01X0000125000Y0000084469D02*
X0000125000Y0000090000D01*
G01X0000140492Y0000105000D02*
X0000145000Y0000105000D01*
G01X0000135000Y0000055531D02*
X0000138977Y0000055531D01*
X0000140000Y0000054508D01*
G01X0000150655Y0000311750D02*
X0000150655Y0000315655D01*
X0000152500Y0000317500D01*
G01X0000195000Y0000250000D02*
X0000195531Y0000249469D01*
G01X0000165000Y0000230000D02*
X0000165531Y0000229469D01*
G01X0000145000Y0000250000D02*
X0000144469Y0000250531D01*
G01X0000195531Y0000249469D02*
X0000195531Y0000245000D01*
G01X0000165531Y0000229469D02*
X0000170000Y0000229469D01*
G01X0000144469Y0000250531D02*
X0000144469Y0000255000D01*
G01X0000224508Y0000055000D02*
X0000220000Y0000055000D01*
G01X0000215000Y0000264173D02*
X0000215000Y0000265000D01*
X0000210000Y0000270000D01*
G01X0000234173Y0000135000D02*
X0000245000Y0000135000D01*
G01X0000025000Y0000190827D02*
X0000025000Y0000187500D01*
G01X0000129500Y0000070000D02*
X0000129500Y0000065500D01*
X0000130000Y0000065000D01*
G01X0000129500Y0000070000D02*
X0000129500Y0000074500D01*
X0000130000Y0000075000D01*
G01X0000199469Y0000245000D02*
X0000199469Y0000249469D01*
X0000200000Y0000250000D01*
G01X0000090000Y0000266673D02*
X0000090000Y0000270000D01*
G01X0000085000Y0000266673D02*
X0000085000Y0000270000D01*
G01X0000080000Y0000266673D02*
X0000080000Y0000270000D01*
G01X0000075000Y0000266673D02*
X0000075000Y0000270000D01*
G01X0000095000Y0000266673D02*
X0000095000Y0000270000D01*
G01X0000100000Y0000266673D02*
X0000100000Y0000270000D01*
G01X0000105000Y0000266673D02*
X0000105000Y0000270000D01*
G01X0000110000Y0000266673D02*
X0000110000Y0000270000D01*
G01X0000025000Y0000220827D02*
X0000025000Y0000217500D01*
G01X0000070492Y0000235000D02*
X0000075000Y0000235000D01*
G01X0000078031Y0000207500D02*
X0000077500Y0000207500D01*
X0000075000Y0000205000D01*
G01X0000078031Y0000232500D02*
X0000077500Y0000232500D01*
X0000075000Y0000230000D01*
G01X0000070492Y0000225000D02*
X0000070492Y0000225492D01*
X0000075000Y0000230000D01*
G01X0000102500Y0000236969D02*
X0000102500Y0000237500D01*
X0000105000Y0000240000D01*
G01X0000096673Y0000085000D02*
X0000096673Y0000080000D01*
G01X0000096673Y0000085000D02*
X0000105000Y0000085000D01*
G01X0000100000Y0000120531D02*
X0000095531Y0000120531D01*
X0000095000Y0000120000D01*
G01X0000140531Y0000255000D02*
X0000140531Y0000250531D01*
X0000140000Y0000250000D01*
G01X0000185000Y0000165531D02*
X0000185000Y0000160000D01*
G01X0000117500Y0000085500D02*
X0000120000Y0000088000D01*
X0000120000Y0000090000D01*
G01X0000117500Y0000085500D02*
X0000115000Y0000088000D01*
X0000115000Y0000090000D01*
G01X0000190000Y0000286673D02*
X0000195000Y0000286673D01*
G01X0000200000Y0000286673D02*
X0000195000Y0000286673D01*
G01X0000190000Y0000286673D02*
X0000185827Y0000286673D01*
X0000185000Y0000287500D01*
G01X0000224508Y0000070000D02*
X0000220000Y0000070000D01*
G01X0000224508Y0000085000D02*
X0000220000Y0000085000D01*
G01X0000224508Y0000100000D02*
X0000220000Y0000100000D01*
G01X0000072500Y0000073031D02*
X0000072500Y0000072500D01*
X0000070000Y0000070000D01*
G01X0000063031Y0000077500D02*
X0000062500Y0000077500D01*
X0000060000Y0000075000D01*
G01X0000063031Y0000092500D02*
X0000062500Y0000092500D01*
X0000060000Y0000095000D01*
G01X0000077500Y0000073031D02*
X0000077500Y0000072500D01*
X0000075000Y0000070000D01*
G01X0000074173Y0000105000D02*
X0000074173Y0000100827D01*
X0000075000Y0000100000D01*
G01X0000075531Y0000095000D02*
X0000075531Y0000099469D01*
X0000075000Y0000100000D01*
G01X0000206969Y0000102500D02*
X0000207500Y0000102500D01*
X0000210000Y0000100000D01*
G01X0000175000Y0000119508D02*
X0000175000Y0000115000D01*
G01X0000182500Y0000129508D02*
X0000182500Y0000126500D01*
X0000184000Y0000125000D01*
G01X0000187500Y0000121969D02*
X0000187500Y0000122500D01*
X0000190000Y0000125000D01*
G01X0000197500Y0000121969D02*
X0000197500Y0000122500D01*
X0000195000Y0000125000D01*
G01X0000192500Y0000121969D02*
X0000192500Y0000122500D01*
X0000195000Y0000125000D01*
G01X0000202500Y0000130531D02*
X0000202500Y0000127000D01*
X0000200500Y0000125000D01*
G01X0000206969Y0000117500D02*
X0000207500Y0000117500D01*
X0000210000Y0000115000D01*
G01X0000206969Y0000112500D02*
X0000207500Y0000112500D01*
X0000210000Y0000110000D01*
G01X0000206969Y0000107500D02*
X0000207500Y0000107500D01*
X0000210000Y0000105000D01*
G01X0000197500Y0000093031D02*
X0000197500Y0000092500D01*
X0000200000Y0000090000D01*
G01X0000192500Y0000093031D02*
X0000192500Y0000092500D01*
X0000195000Y0000090000D01*
G01X0000415000Y0000033327D02*
X0000415000Y0000030000D01*
X0000420000Y0000025000D01*
G01X0000400000Y0000032008D02*
X0000405000Y0000032008D01*
G01X0000400000Y0000032008D02*
X0000400000Y0000025000D01*
G01X0000480827Y0000047500D02*
X0000480827Y0000052500D01*
G01X0000480827Y0000052500D02*
X0000480827Y0000054500D01*
X0000479508Y0000055819D01*
X0000479508Y0000057500D01*
G01X0000400827Y0000045000D02*
X0000400827Y0000038819D01*
X0000400000Y0000037992D01*
G01X0000400827Y0000045000D02*
X0000400827Y0000049173D01*
X0000400000Y0000050000D01*
G01X0000484173Y0000047500D02*
X0000487500Y0000047500D01*
X0000490000Y0000050000D01*
G01X0000445000Y0000035827D02*
X0000440827Y0000035827D01*
X0000440000Y0000035000D01*
G01X0000465492Y0000027500D02*
X0000465492Y0000024508D01*
X0000470000Y0000020000D01*
G01X0000445000Y0000039173D02*
X0000440827Y0000039173D01*
X0000440000Y0000040000D01*
G01X0000459508Y0000027500D02*
X0000457500Y0000027500D01*
X0000455000Y0000030000D01*
G01X0000287539Y0000039980D02*
X0000287539Y0000077461D01*
X0000275000Y0000090000D01*
G01X0000484173Y0000052500D02*
X0000487500Y0000052500D01*
X0000490000Y0000055000D01*
G01X0000404173Y0000045000D02*
X0000407500Y0000045000D01*
X0000410000Y0000042500D01*
G01X0000405000Y0000037992D02*
X0000405492Y0000037992D01*
X0000410000Y0000042500D01*
G01X0000415000Y0000036673D02*
X0000410827Y0000036673D01*
X0000410000Y0000037500D01*
G01X0000319500Y0000266031D02*
X0000319500Y0000262847D01*
X0000319173Y0000262520D01*
G01X0000297000Y0000260031D02*
X0000297000Y0000256347D01*
X0000297126Y0000256221D01*
G01X0000281500Y0000259531D02*
X0000281500Y0000259248D01*
X0000284527Y0000256221D01*
G01X0000314500Y0000262531D02*
X0000314500Y0000260894D01*
X0000316024Y0000259370D01*
G01X0000317000Y0000245969D02*
X0000317000Y0000248945D01*
X0000316024Y0000249921D01*
G01X0000303500Y0000258531D02*
X0000301114Y0000258531D01*
X0000300275Y0000259370D01*
G01X0000288500Y0000245969D02*
X0000288500Y0000249098D01*
X0000287677Y0000249921D01*
G01X0000303500Y0000249531D02*
X0000303035Y0000249531D01*
X0000300275Y0000246771D01*
G01X0000262992Y0000280000D02*
X0000262992Y0000277008D01*
X0000265000Y0000275000D01*
G01X0000312500Y0000242031D02*
X0000312500Y0000240098D01*
X0000309725Y0000237323D01*
G01X0000313000Y0000228969D02*
X0000311779Y0000228969D01*
X0000309724Y0000231024D01*
G01X0000310031Y0000234000D02*
X0000306748Y0000234000D01*
X0000306575Y0000234173D01*
G01X0000303500Y0000240531D02*
X0000303483Y0000240531D01*
X0000300275Y0000237323D01*
G01X0000337008Y0000280000D02*
X0000337008Y0000277008D01*
X0000335000Y0000275000D01*
G01X0000326000Y0000183469D02*
X0000325783Y0000183469D01*
X0000322323Y0000186929D01*
G01X0000362008Y0000160000D02*
X0000362008Y0000162992D01*
X0000360000Y0000165000D01*
G01X0000309725Y0000186929D02*
X0000306429Y0000186929D01*
X0000304531Y0000185031D01*
X0000303500Y0000185031D01*
G01X0000318500Y0000194031D02*
X0000318500Y0000190752D01*
X0000319173Y0000190079D01*
G01X0000328000Y0000194031D02*
X0000328000Y0000190701D01*
X0000328622Y0000190079D01*
G01X0000361500Y0000177500D02*
X0000361500Y0000170508D01*
X0000362008Y0000170000D01*
G01X0000362008Y0000170000D02*
X0000355000Y0000170000D01*
G01X0000297500Y0000245969D02*
X0000297500Y0000247146D01*
X0000300275Y0000249921D01*
G01X0000319500Y0000253531D02*
X0000316484Y0000253531D01*
X0000316024Y0000253071D01*
G01X0000308000Y0000245969D02*
X0000308000Y0000248196D01*
X0000309725Y0000249921D01*
G01X0000293000Y0000245969D02*
X0000293000Y0000248945D01*
X0000293976Y0000249921D01*
G01X0000277992Y0000280000D02*
X0000277992Y0000277008D01*
X0000280000Y0000275000D01*
G01X0000317969Y0000212000D02*
X0000317969Y0000210180D01*
X0000319173Y0000208976D01*
G01X0000310031Y0000206000D02*
X0000310031Y0000202983D01*
X0000309725Y0000202677D01*
G01X0000308500Y0000194031D02*
X0000308500Y0000192004D01*
X0000306575Y0000190079D01*
G01X0000314000Y0000194031D02*
X0000314000Y0000192103D01*
X0000316024Y0000190079D01*
G01X0000323000Y0000194031D02*
X0000323000Y0000192552D01*
X0000325473Y0000190079D01*
G01X0000313000Y0000176969D02*
X0000313000Y0000177355D01*
X0000309725Y0000180630D01*
G01X0000349508Y0000160000D02*
X0000349508Y0000164508D01*
X0000350000Y0000165000D01*
G01X0000479508Y0000057500D02*
X0000477500Y0000057500D01*
X0000475000Y0000055000D01*
G01X0000368655Y0000338250D02*
X0000368655Y0000343655D01*
X0000370000Y0000345000D01*
G01X0000371155Y0000338250D02*
X0000371155Y0000343845D01*
X0000370000Y0000345000D01*
G01X0000368655Y0000311750D02*
X0000368655Y0000316155D01*
X0000370000Y0000317500D01*
G01X0000371155Y0000311750D02*
X0000371155Y0000316345D01*
X0000370000Y0000317500D01*
G01X0000440992Y0000196500D02*
X0000440992Y0000192843D01*
X0000440275Y0000192126D01*
G01X0000438969Y0000260500D02*
X0000438969Y0000258433D01*
X0000440275Y0000257127D01*
G01X0000428969Y0000269000D02*
X0000428969Y0000271582D01*
X0000427677Y0000272874D01*
G01X0000459508Y0000283000D02*
X0000459508Y0000282500D01*
X0000459508Y0000279508D01*
X0000459173Y0000279173D01*
G01X0000468492Y0000247000D02*
X0000468492Y0000250697D01*
X0000468622Y0000250827D01*
G01X0000426969Y0000260500D02*
X0000426969Y0000257835D01*
X0000427677Y0000257127D01*
G01X0000432531Y0000254500D02*
X0000431350Y0000254500D01*
X0000427677Y0000250827D01*
G01X0000417000Y0000252008D02*
X0000420000Y0000252008D01*
X0000420198Y0000252008D01*
X0000421379Y0000250827D01*
G01X0000400000Y0000246969D02*
X0000400000Y0000255000D01*
G01X0000459508Y0000218000D02*
X0000459508Y0000217500D01*
X0000459508Y0000214508D01*
X0000459173Y0000214173D01*
G01X0000442031Y0000204000D02*
X0000442031Y0000206118D01*
X0000440275Y0000207874D01*
G01X0000429469Y0000204000D02*
X0000429469Y0000206082D01*
X0000427677Y0000207874D01*
G01X0000432531Y0000189500D02*
X0000432531Y0000187272D01*
X0000433976Y0000185827D01*
G01X0000428492Y0000196500D02*
X0000428492Y0000192941D01*
X0000427677Y0000192126D01*
G01X0000468492Y0000182000D02*
X0000468492Y0000182500D01*
X0000468492Y0000185697D01*
X0000468622Y0000185827D01*
G01X0000418500Y0000187031D02*
X0000420000Y0000187031D01*
X0000420175Y0000187031D01*
X0000421379Y0000185827D01*
G01X0000355000Y0000294469D02*
X0000350531Y0000294469D01*
X0000350000Y0000295000D01*
G01X0000277992Y0000287500D02*
X0000277992Y0000292992D01*
X0000280000Y0000295000D01*
G01X0000261969Y0000290000D02*
X0000261969Y0000293031D01*
X0000260000Y0000295000D01*
G01X0000338031Y0000290000D02*
X0000338031Y0000293031D01*
X0000340000Y0000295000D01*
G01X0000337008Y0000285000D02*
X0000337008Y0000285992D01*
X0000335000Y0000288000D01*
X0000335000Y0000295000D01*
G01X0000349508Y0000152500D02*
X0000349508Y0000145492D01*
X0000350000Y0000145000D01*
G01X0000368500Y0000177500D02*
X0000372500Y0000177500D01*
X0000375000Y0000180000D01*
G01X0000368500Y0000177500D02*
X0000368500Y0000184492D01*
X0000367992Y0000185000D01*
G01X0000262992Y0000285000D02*
X0000265000Y0000287008D01*
X0000265000Y0000295000D01*
G01X0000269469Y0000080000D02*
X0000269469Y0000104469D01*
X0000280000Y0000115000D01*
G01X0000270492Y0000075000D02*
X0000275000Y0000075000D01*
G01X0000269469Y0000080000D02*
X0000275000Y0000080000D01*
G01X0000325031Y0000230000D02*
X0000323347Y0000230000D01*
X0000322323Y0000231024D01*
G01X0000312469Y0000218000D02*
X0000312469Y0000221170D01*
X0000312874Y0000221575D01*
G01X0000303500Y0000222031D02*
X0000306119Y0000222031D01*
X0000306575Y0000221575D01*
G01X0000326031Y0000212500D02*
X0000325098Y0000212500D01*
X0000322323Y0000215275D01*
G01X0000321969Y0000218500D02*
X0000321969Y0000215629D01*
X0000322323Y0000215275D01*
G01X0000303500Y0000213031D02*
X0000305670Y0000213031D01*
X0000306575Y0000212126D01*
G01X0000326031Y0000208000D02*
X0000323299Y0000208000D01*
X0000322323Y0000208976D01*
G01X0000303500Y0000207469D02*
X0000304933Y0000207469D01*
X0000306575Y0000205827D01*
G01X0000288031Y0000234000D02*
X0000288031Y0000236969D01*
X0000287677Y0000237323D01*
G01X0000284000Y0000242031D02*
X0000284000Y0000241000D01*
X0000287677Y0000237323D01*
G01X0000303500Y0000231531D02*
X0000300782Y0000231531D01*
X0000300275Y0000231024D01*
G01X0000288969Y0000218500D02*
X0000288969Y0000219717D01*
X0000290827Y0000221575D01*
G01X0000298469Y0000218500D02*
X0000298469Y0000220232D01*
X0000297126Y0000221575D01*
G01X0000296969Y0000224500D02*
X0000296969Y0000221732D01*
X0000297126Y0000221575D01*
G01X0000287469Y0000212500D02*
X0000290453Y0000212500D01*
X0000290827Y0000212126D01*
G01X0000297500Y0000208031D02*
X0000299330Y0000208031D01*
X0000300275Y0000208976D01*
G01X0000304000Y0000197969D02*
X0000304000Y0000198952D01*
X0000300275Y0000202677D01*
G01X0000295000Y0000198469D02*
X0000295000Y0000201653D01*
X0000293976Y0000202677D01*
G01X0000325531Y0000239000D02*
X0000324000Y0000239000D01*
X0000322323Y0000237323D01*
G01X0000325531Y0000234500D02*
X0000325531Y0000239000D01*
G01X0000273469Y0000253000D02*
X0000275149Y0000253000D01*
X0000278228Y0000249921D01*
G01X0000272000Y0000260031D02*
X0000272000Y0000259299D01*
X0000281378Y0000249921D01*
G01X0000360000Y0000240000D02*
X0000362500Y0000242500D01*
X0000364508Y0000242500D01*
G01X0000364508Y0000247500D02*
X0000362500Y0000247500D01*
X0000360000Y0000250000D01*
G01X0000325000Y0000171969D02*
X0000322031Y0000171969D01*
X0000321100Y0000172900D01*
X0000321000Y0000172900D01*
G01X0000262500Y0000155827D02*
X0000262500Y0000128500D01*
X0000268500Y0000122500D01*
X0000317461Y0000122500D01*
X0000337461Y0000102500D01*
G01X0000326000Y0000243327D02*
X0000331476Y0000243327D01*
X0000331771Y0000243622D01*
G01X0000321500Y0000243327D02*
X0000326000Y0000243327D01*
G01X0000356500Y0000188327D02*
X0000358327Y0000188327D01*
X0000360000Y0000190000D01*
G01X0000347992Y0000266500D02*
X0000347992Y0000266042D01*
X0000347992Y0000262992D01*
X0000347520Y0000262520D01*
G01X0000335492Y0000266500D02*
X0000335492Y0000266042D01*
X0000335492Y0000263091D01*
X0000334921Y0000262520D01*
G01X0000324000Y0000266031D02*
X0000324000Y0000264197D01*
X0000322323Y0000262520D01*
G01X0000352500Y0000252008D02*
X0000349607Y0000252008D01*
X0000349557Y0000251958D01*
X0000347520Y0000249921D01*
G01X0000335000Y0000247969D02*
X0000333723Y0000247969D01*
X0000331771Y0000249921D01*
G01X0000345531Y0000218500D02*
X0000345531Y0000220414D01*
X0000344370Y0000221575D01*
G01X0000336031Y0000218500D02*
X0000334996Y0000218500D01*
X0000331771Y0000215275D01*
G01X0000329969Y0000203000D02*
X0000334598Y0000203000D01*
X0000334921Y0000202677D01*
G01X0000351500Y0000175508D02*
X0000349492Y0000175508D01*
X0000348958Y0000176042D01*
X0000347520Y0000177480D01*
G01X0000260508Y0000267000D02*
X0000260508Y0000266042D01*
X0000260508Y0000264492D01*
X0000262480Y0000262520D01*
G01X0000262500Y0000253531D02*
X0000262500Y0000249941D01*
X0000262480Y0000249921D01*
G01X0000278500Y0000245673D02*
X0000278500Y0000246500D01*
X0000275079Y0000249921D01*
G01X0000278531Y0000223000D02*
X0000276804Y0000223000D01*
X0000275079Y0000224725D01*
G01X0000264327Y0000218500D02*
X0000264327Y0000220272D01*
X0000265630Y0000221575D01*
G01X0000276173Y0000218500D02*
X0000276173Y0000216369D01*
X0000275079Y0000215275D01*
G01X0000279000Y0000196173D02*
X0000275284Y0000196173D01*
X0000275079Y0000196378D01*
G01X0000290500Y0000194531D02*
X0000290500Y0000192902D01*
X0000287677Y0000190079D01*
G01X0000281500Y0000180031D02*
X0000283928Y0000180031D01*
X0000284527Y0000180630D01*
G01X0000364508Y0000252500D02*
X0000362500Y0000252500D01*
X0000360000Y0000255000D01*
G01X0000365531Y0000257500D02*
X0000362500Y0000257500D01*
X0000360000Y0000255000D01*
G01X0000371969Y0000197500D02*
X0000377500Y0000197500D01*
X0000380000Y0000195000D01*
G01X0000272500Y0000155827D02*
X0000272500Y0000152500D01*
X0000270000Y0000150000D01*
G01X0000372992Y0000217500D02*
X0000377500Y0000217500D01*
X0000380000Y0000215000D01*
G01X0000371969Y0000222500D02*
X0000371969Y0000218523D01*
X0000372992Y0000217500D01*
G01X0000351508Y0000232500D02*
X0000349193Y0000232500D01*
X0000347520Y0000234173D01*
G01X0000450500Y0000189031D02*
X0000446630Y0000189031D01*
X0000446575Y0000188976D01*
G01X0000450000Y0000254031D02*
X0000446629Y0000254031D01*
X0000446575Y0000253977D01*
G01X0000454500Y0000254031D02*
X0000450000Y0000254031D01*
G01X0000400000Y0000243031D02*
X0000401477Y0000243031D01*
X0000402500Y0000242008D01*
X0000405000Y0000242008D01*
G01X0000405000Y0000242008D02*
X0000407992Y0000242008D01*
X0000410000Y0000240000D01*
G01X0000356500Y0000209531D02*
X0000348075Y0000209531D01*
X0000347520Y0000208976D01*
G01X0000322323Y0000221575D02*
X0000325425Y0000221575D01*
X0000327031Y0000219969D01*
X0000327031Y0000218500D01*
G01X0000281500Y0000183969D02*
X0000287487Y0000183969D01*
X0000287677Y0000183779D01*
G01X0000317500Y0000317500D02*
X0000316155Y0000316155D01*
X0000316155Y0000311750D01*
G01X0000318655Y0000311750D02*
X0000318655Y0000316345D01*
X0000317500Y0000317500D01*
G01X0000450000Y0000257969D02*
X0000447417Y0000257969D01*
X0000446575Y0000257127D01*
G01X0000454500Y0000257969D02*
X0000450000Y0000257969D01*
G01X0000329469Y0000234500D02*
X0000334594Y0000234500D01*
X0000334921Y0000234173D01*
G01X0000328969Y0000230000D02*
X0000328969Y0000234000D01*
X0000329469Y0000234500D01*
G01X0000314500Y0000266469D02*
X0000314500Y0000269500D01*
X0000315000Y0000270000D01*
G01X0000319500Y0000269969D02*
X0000315031Y0000269969D01*
X0000315000Y0000270000D01*
G01X0000324000Y0000269969D02*
X0000319500Y0000269969D01*
G01X0000329508Y0000266500D02*
X0000329508Y0000274508D01*
X0000330000Y0000275000D01*
G01X0000257008Y0000280000D02*
X0000257008Y0000277008D01*
X0000255000Y0000275000D01*
G01X0000257008Y0000285000D02*
X0000257008Y0000280000D01*
G01X0000319500Y0000257469D02*
X0000317272Y0000257469D01*
X0000316024Y0000256221D01*
G01X0000342008Y0000266500D02*
X0000342008Y0000266042D01*
X0000342008Y0000264882D01*
X0000344370Y0000262520D01*
G01X0000303500Y0000262469D02*
X0000306524Y0000262469D01*
X0000306575Y0000262520D01*
G01X0000312500Y0000245969D02*
X0000312500Y0000249547D01*
X0000312874Y0000249921D01*
G01X0000335000Y0000244031D02*
X0000337662Y0000244031D01*
X0000338071Y0000243622D01*
G01X0000317000Y0000242031D02*
X0000317000Y0000239496D01*
X0000319173Y0000237323D01*
G01X0000308000Y0000242031D02*
X0000308000Y0000238748D01*
X0000306575Y0000237323D01*
G01X0000303500Y0000235469D02*
X0000304721Y0000235469D01*
X0000306575Y0000237323D01*
G01X0000313969Y0000234000D02*
X0000313969Y0000233079D01*
X0000316024Y0000231024D01*
G01X0000323008Y0000225000D02*
X0000319448Y0000225000D01*
X0000319173Y0000224725D01*
G01X0000303500Y0000225969D02*
X0000305331Y0000225969D01*
X0000306575Y0000224725D01*
G01X0000349469Y0000218500D02*
X0000349469Y0000219626D01*
X0000347520Y0000221575D01*
G01X0000313000Y0000225031D02*
X0000313000Y0000224850D01*
X0000309725Y0000221575D01*
G01X0000308531Y0000218000D02*
X0000308531Y0000220381D01*
X0000309725Y0000221575D01*
G01X0000303500Y0000216969D02*
X0000304881Y0000216969D01*
X0000306575Y0000215275D01*
G01X0000314031Y0000212000D02*
X0000314031Y0000214118D01*
X0000312874Y0000215275D01*
G01X0000318031Y0000218500D02*
X0000318031Y0000216417D01*
X0000319173Y0000215275D01*
G01X0000339969Y0000218500D02*
X0000339969Y0000217173D01*
X0000338071Y0000215275D01*
G01X0000329969Y0000212500D02*
X0000334547Y0000212500D01*
X0000334921Y0000212126D01*
G01X0000326031Y0000203000D02*
X0000325150Y0000203000D01*
X0000322323Y0000205827D01*
G01X0000329969Y0000208000D02*
X0000332748Y0000208000D01*
X0000334921Y0000205827D01*
G01X0000303500Y0000203531D02*
X0000305721Y0000203531D01*
X0000306575Y0000202677D01*
G01X0000308500Y0000197969D02*
X0000308500Y0000200752D01*
X0000306575Y0000202677D01*
G01X0000314000Y0000197969D02*
X0000314000Y0000201551D01*
X0000312874Y0000202677D01*
G01X0000313969Y0000206000D02*
X0000313969Y0000203772D01*
X0000312874Y0000202677D01*
G01X0000318500Y0000197969D02*
X0000318500Y0000202004D01*
X0000319173Y0000202677D01*
G01X0000323000Y0000197969D02*
X0000318500Y0000197969D01*
G01X0000326000Y0000179531D02*
X0000324374Y0000179531D01*
X0000322323Y0000177480D01*
G01X0000266492Y0000267000D02*
X0000266492Y0000266042D01*
X0000266492Y0000263382D01*
X0000265630Y0000262520D01*
G01X0000272000Y0000263969D02*
X0000270228Y0000263969D01*
X0000268779Y0000262520D01*
G01X0000281500Y0000263469D02*
X0000283578Y0000263469D01*
X0000284527Y0000262520D01*
G01X0000297000Y0000263969D02*
X0000295425Y0000263969D01*
X0000293976Y0000262520D01*
G01X0000262500Y0000257469D02*
X0000264382Y0000257469D01*
X0000265630Y0000256221D01*
G01X0000269531Y0000253000D02*
X0000269531Y0000255469D01*
X0000268779Y0000256221D01*
G01X0000303500Y0000253469D02*
X0000300673Y0000253469D01*
X0000300275Y0000253071D01*
G01X0000284000Y0000245969D02*
X0000284000Y0000249394D01*
X0000284527Y0000249921D01*
G01X0000259500Y0000244173D02*
X0000259557Y0000244173D01*
X0000261929Y0000244173D01*
X0000262480Y0000243622D01*
G01X0000293000Y0000242031D02*
X0000293000Y0000239496D01*
X0000290827Y0000237323D01*
G01X0000288500Y0000242031D02*
X0000288500Y0000239650D01*
X0000290827Y0000237323D01*
G01X0000297500Y0000242031D02*
X0000297500Y0000237697D01*
X0000297126Y0000237323D01*
G01X0000291969Y0000234000D02*
X0000291969Y0000232166D01*
X0000290827Y0000231024D01*
G01X0000282469Y0000223000D02*
X0000286252Y0000223000D01*
X0000287677Y0000221575D01*
G01X0000294531Y0000218500D02*
X0000294531Y0000221020D01*
X0000293976Y0000221575D01*
G01X0000293031Y0000224500D02*
X0000293031Y0000222520D01*
X0000293976Y0000221575D01*
G01X0000297500Y0000211969D02*
X0000297500Y0000214901D01*
X0000297126Y0000215275D01*
G01X0000279508Y0000207500D02*
X0000276752Y0000207500D01*
X0000275079Y0000205827D01*
G01X0000290500Y0000198469D02*
X0000290500Y0000202350D01*
X0000290827Y0000202677D01*
G01X0000254031Y0000191000D02*
X0000254031Y0000194031D01*
X0000255000Y0000195000D01*
G01X0000303500Y0000188969D02*
X0000301385Y0000188969D01*
X0000300275Y0000190079D01*
G01X0000304000Y0000194031D02*
X0000304000Y0000189469D01*
X0000303500Y0000188969D01*
G01X0000295000Y0000194531D02*
X0000295000Y0000194252D01*
X0000290827Y0000190079D01*
G01X0000352500Y0000257992D02*
X0000357992Y0000257992D01*
X0000360000Y0000260000D01*
G01X0000329469Y0000239000D02*
X0000333448Y0000239000D01*
X0000334921Y0000240473D01*
G01X0000370492Y0000242500D02*
X0000372500Y0000242500D01*
X0000375000Y0000245000D01*
G01X0000370492Y0000247500D02*
X0000372500Y0000247500D01*
X0000375000Y0000245000D01*
G01X0000275079Y0000212126D02*
X0000275453Y0000212500D01*
X0000283531Y0000212500D01*
G01X0000272008Y0000280000D02*
X0000272008Y0000277008D01*
X0000270000Y0000275000D01*
G01X0000276000Y0000270969D02*
X0000274031Y0000270969D01*
X0000270000Y0000275000D01*
G01X0000281500Y0000271673D02*
X0000276704Y0000271673D01*
X0000276000Y0000270969D01*
G01X0000272008Y0000287500D02*
X0000272008Y0000280000D01*
G01X0000367992Y0000160000D02*
X0000367992Y0000162992D01*
X0000370000Y0000165000D01*
G01X0000351500Y0000181492D02*
X0000356992Y0000181492D01*
X0000360500Y0000185000D01*
X0000362008Y0000185000D01*
G01X0000351500Y0000181492D02*
X0000349557Y0000181492D01*
X0000348382Y0000181492D01*
X0000347520Y0000180630D01*
G01X0000299500Y0000198469D02*
X0000299500Y0000200303D01*
X0000297126Y0000202677D01*
G01X0000342992Y0000280000D02*
X0000342992Y0000277008D01*
X0000345000Y0000275000D01*
G01X0000342992Y0000285000D02*
X0000342992Y0000280000D01*
G01X0000341969Y0000290000D02*
X0000350000Y0000290000D01*
G01X0000355000Y0000290531D02*
X0000350531Y0000290531D01*
X0000350000Y0000290000D01*
G01X0000370492Y0000252500D02*
X0000372500Y0000252500D01*
X0000375000Y0000250000D01*
G01X0000313000Y0000173031D02*
X0000313000Y0000173000D01*
X0000310000Y0000170000D01*
G01X0000368031Y0000197500D02*
X0000362500Y0000197500D01*
X0000360000Y0000200000D01*
G01X0000356500Y0000199173D02*
X0000359173Y0000199173D01*
X0000360000Y0000200000D01*
G01X0000367992Y0000170000D02*
X0000375000Y0000170000D01*
G01X0000281673Y0000227500D02*
X0000287303Y0000227500D01*
X0000287677Y0000227874D01*
G01X0000281673Y0000232500D02*
X0000281673Y0000227500D01*
G01X0000281673Y0000237500D02*
X0000281673Y0000232500D01*
G01X0000361500Y0000209531D02*
X0000356500Y0000209531D01*
G01X0000372992Y0000212500D02*
X0000377500Y0000212500D01*
X0000380000Y0000210000D01*
G01X0000267500Y0000155827D02*
X0000267500Y0000152500D01*
X0000265000Y0000150000D01*
G01X0000450500Y0000192969D02*
X0000447418Y0000192969D01*
X0000446575Y0000192126D01*
G01X0000465492Y0000218000D02*
X0000465492Y0000217500D01*
X0000465492Y0000214192D01*
X0000465473Y0000214173D01*
G01X0000462508Y0000182000D02*
X0000462508Y0000182500D01*
X0000462508Y0000185642D01*
X0000462323Y0000185827D01*
G01X0000445969Y0000204000D02*
X0000445969Y0000207268D01*
X0000446575Y0000207874D01*
G01X0000436469Y0000189500D02*
X0000439751Y0000189500D01*
X0000440275Y0000188976D01*
G01X0000425531Y0000204000D02*
X0000422102Y0000204000D01*
X0000421378Y0000204724D01*
G01X0000435008Y0000196500D02*
X0000435008Y0000193158D01*
X0000433976Y0000192126D01*
G01X0000422508Y0000196500D02*
X0000422508Y0000193255D01*
X0000421379Y0000192126D01*
G01X0000418500Y0000190969D02*
X0000420000Y0000190969D01*
X0000420222Y0000190969D01*
X0000421379Y0000192126D01*
G01X0000356173Y0000227000D02*
X0000358000Y0000227000D01*
X0000360000Y0000225000D01*
G01X0000357492Y0000232500D02*
X0000357492Y0000230492D01*
X0000356173Y0000229173D01*
X0000356173Y0000227000D01*
G01X0000436469Y0000254500D02*
X0000439752Y0000254500D01*
X0000440275Y0000253977D01*
G01X0000462508Y0000247000D02*
X0000462508Y0000250642D01*
X0000462323Y0000250827D01*
G01X0000425031Y0000269000D02*
X0000422103Y0000269000D01*
X0000421378Y0000269725D01*
G01X0000438008Y0000269000D02*
X0000434700Y0000269000D01*
X0000433976Y0000269724D01*
G01X0000465492Y0000283000D02*
X0000465492Y0000282500D01*
X0000465492Y0000279192D01*
X0000465473Y0000279173D01*
G01X0000435031Y0000260500D02*
X0000435031Y0000258182D01*
X0000433976Y0000257127D01*
G01X0000417000Y0000257992D02*
X0000420000Y0000257992D01*
X0000420514Y0000257992D01*
X0000421379Y0000257127D01*
G01X0000423031Y0000260500D02*
X0000423031Y0000258779D01*
X0000421379Y0000257127D01*
G01X0000405000Y0000247992D02*
X0000407992Y0000247992D01*
X0000410000Y0000250000D01*
G01X0000308655Y0000338250D02*
X0000308655Y0000341345D01*
X0000305000Y0000345000D01*
G01X0000308655Y0000311750D02*
X0000308655Y0000316345D01*
X0000307500Y0000317500D01*
G01X0000287155Y0000311750D02*
X0000287155Y0000317155D01*
X0000287500Y0000317500D01*
G01X0000277155Y0000311750D02*
X0000277155Y0000317155D01*
X0000277500Y0000317500D01*
G01X0000279655Y0000311750D02*
X0000279655Y0000315345D01*
X0000277500Y0000317500D01*
G01X0000267155Y0000311750D02*
X0000267155Y0000317155D01*
X0000267500Y0000317500D01*
G01X0000269655Y0000311750D02*
X0000269655Y0000315345D01*
X0000267500Y0000317500D01*
G01X0000257155Y0000311750D02*
X0000257155Y0000317155D01*
X0000257500Y0000317500D01*
G01X0000259655Y0000311750D02*
X0000259655Y0000315345D01*
X0000257500Y0000317500D01*
G01X0000326155Y0000311750D02*
X0000326155Y0000316155D01*
X0000327500Y0000317500D01*
G01X0000328655Y0000311750D02*
X0000328655Y0000316345D01*
X0000327500Y0000317500D01*
G01X0000339905Y0000325000D02*
X0000302500Y0000325000D01*
G01X0000339905Y0000325000D02*
X0000377500Y0000325000D01*
G01X0000255905Y0000325000D02*
X0000292500Y0000325000D01*
G01X0000479508Y0000062500D02*
X0000479508Y0000069508D01*
X0000480000Y0000070000D01*
G01X0000355492Y0000160000D02*
X0000355492Y0000164508D01*
X0000355000Y0000165000D01*
G01X0000355492Y0000152500D02*
X0000355492Y0000160000D01*
G01X0000283500Y0000196173D02*
X0000286173Y0000196173D01*
X0000288469Y0000198469D01*
X0000290500Y0000198469D01*
G01X0000369469Y0000257500D02*
X0000369469Y0000255523D01*
X0000370492Y0000254500D01*
X0000370492Y0000252500D01*
G01X0000325000Y0000168031D02*
X0000321531Y0000168031D01*
X0000321000Y0000167500D01*
G01X0000264508Y0000075000D02*
X0000265531Y0000076023D01*
X0000265531Y0000080000D01*
G01X0000328000Y0000197969D02*
X0000329911Y0000197969D01*
X0000331469Y0000199527D01*
X0000334921Y0000199527D01*
G01X0000285031Y0000218500D02*
X0000285031Y0000219531D01*
X0000287075Y0000221575D01*
X0000287677Y0000221575D01*
G01X0000303500Y0000244469D02*
X0000304531Y0000244469D01*
X0000306969Y0000242031D01*
X0000308000Y0000242031D01*
G01X0000265531Y0000080000D02*
X0000265531Y0000084469D01*
G01X0000485492Y0000062500D02*
X0000485492Y0000057500D01*
G01X0000485492Y0000057500D02*
X0000487500Y0000057500D01*
X0000490000Y0000060000D01*
G54D16*
X0000142500Y0000012500D03*
X0000180000Y0000012500D03*
G54D25*
X0000010000Y0000152500D03*
X0000010000Y0000142500D03*
X0000020000Y0000152500D03*
X0000020000Y0000142500D03*
X0000010000Y0000092500D03*
X0000020000Y0000102500D03*
X0000010000Y0000102500D03*
X0000020000Y0000112500D03*
X0000010000Y0000112500D03*
X0000020000Y0000122500D03*
X0000010000Y0000122500D03*
X0000020000Y0000132500D03*
X0000010000Y0000132500D03*
X0000010000Y0000252500D03*
X0000020000Y0000262500D03*
X0000010000Y0000262500D03*
X0000020000Y0000272500D03*
X0000010000Y0000272500D03*
X0000020000Y0000282500D03*
X0000010000Y0000282500D03*
X0000020000Y0000292500D03*
X0000010000Y0000292500D03*
G54D35*
G01X0000086469Y0000134000D02*
X0000087036Y0000134000D01*
X0000089036Y0000132000D01*
X0000089800Y0000132000D01*
X0000090300Y0000132500D01*
X0000090300Y0000133500D01*
G01X0000086469Y0000126000D02*
X0000086536Y0000126000D01*
X0000090300Y0000129764D01*
X0000090300Y0000130000D01*
G01X0000083500Y0000130000D02*
X0000084100Y0000130000D01*
X0000084600Y0000129500D01*
X0000084600Y0000128400D01*
X0000084100Y0000127900D01*
X0000083031Y0000127900D01*
X0000082531Y0000127400D01*
X0000082531Y0000126000D01*
G01X0000087000Y0000130000D02*
X0000086999Y0000130001D01*
X0000086450Y0000130001D01*
X0000082531Y0000133920D01*
X0000082531Y0000134000D01*
G01X0000239500Y0000303500D02*
G03X0000240255Y0000305323I-0000001823J0000001823D01*
G01X0000240255Y0000307321D01*
G03X0000239955Y0000308045I-0000001024J0D01*
G02X0000239655Y0000308769I0000000724J0000000724D01*
G01X0000239655Y0000311750D01*
G01X0000147500Y0000330300D02*
G02X0000146955Y0000331616I0000001316J0000001316D01*
G01X0000146955Y0000333118D01*
G02X0000147318Y0000334500I0000002810J0000000001D01*
G03X0000148155Y0000336521I-0000002021J0000002021D01*
G01X0000148155Y0000338250D01*
G01X0000200500Y0000346500D02*
G02X0000201255Y0000344677I-0000001823J-0000001823D01*
G01X0000201255Y0000342411D01*
G02X0000201109Y0000342058I-0000000500J0D01*
G01X0000200801Y0000341750D01*
G03X0000200655Y0000341397I0000000354J-0000000353D01*
G01X0000200655Y0000338250D01*
G01X0000145500Y0000303500D02*
G03X0000146255Y0000305323I-0000001823J0000001823D01*
G01X0000146255Y0000307321D01*
G03X0000145955Y0000308045I-0000001024J0D01*
G02X0000145655Y0000308769I0000000724J0000000724D01*
G01X0000145655Y0000311750D01*
G01X0000227000Y0000303500D02*
G03X0000227755Y0000305323I-0000001823J0000001823D01*
G01X0000227755Y0000307321D01*
G03X0000227455Y0000308045I-0000001024J0D01*
G02X0000227155Y0000308769I0000000724J0000000724D01*
G01X0000227155Y0000311750D01*
G01X0000242500Y0000303500D02*
G02X0000241555Y0000305781I0000002280J0000002281D01*
G01X0000241555Y0000306976D01*
G02X0000241855Y0000307700I0000001024J0D01*
G03X0000242155Y0000308424I-0000000724J0000000724D01*
G01X0000242155Y0000311750D01*
G01X0000204000Y0000296000D02*
X0000203575Y0000296425D01*
G03X0000201704Y0000297200I-0000001871J-0000001871D01*
G01X0000161728Y0000297200D01*
G02X0000157858Y0000298802I-0000000001J0000005472D01*
G02X0000156255Y0000302674I0000003872J0000003871D01*
G01X0000156255Y0000306428D01*
G03X0000156036Y0000307529I-0000002877J0D01*
G01X0000155799Y0000308101D01*
G02X0000155655Y0000308825I0000001748J0000000724D01*
G01X0000155655Y0000311750D01*
G01X0000168500Y0000346500D02*
X0000168301Y0000346301D01*
G03X0000167555Y0000344500I0000001801J-0000001801D01*
G01X0000167555Y0000342411D01*
G03X0000167701Y0000342058I0000000500J0D01*
G01X0000168009Y0000341750D01*
G02X0000168155Y0000341397I-0000000354J-0000000353D01*
G01X0000168155Y0000338250D01*
G01X0000234900Y0000330400D02*
G02X0000234055Y0000332440I0000002040J0000002040D01*
G01X0000234055Y0000333476D01*
G02X0000234355Y0000334200I0000001024J0D01*
G03X0000234655Y0000334924I-0000000724J0000000724D01*
G01X0000234655Y0000338250D01*
G01X0000230000Y0000303500D02*
G02X0000229055Y0000305781I0000002280J0000002281D01*
G01X0000229055Y0000306976D01*
G02X0000229355Y0000307700I0000001024J0D01*
G03X0000229655Y0000308424I-0000000724J0000000724D01*
G01X0000229655Y0000311750D01*
G01X0000148500Y0000303500D02*
G02X0000147555Y0000305781I0000002280J0000002281D01*
G01X0000147555Y0000306976D01*
G02X0000147855Y0000307700I0000001024J0D01*
G03X0000148155Y0000308424I-0000000724J0000000724D01*
G01X0000148155Y0000311750D01*
G01X0000231900Y0000330400D02*
G03X0000232755Y0000332464I-0000002064J0000002064D01*
G01X0000232755Y0000333821D01*
G03X0000232455Y0000334545I-0000001024J0D01*
G02X0000232155Y0000335269I0000000724J0000000724D01*
G01X0000232155Y0000338250D01*
G01X0000158155Y0000311750D02*
X0000158155Y0000309325D01*
G02X0000158011Y0000308601I-0000001892J0D01*
G01X0000157969Y0000308500D01*
X0000157774Y0000308029D01*
G03X0000157555Y0000306928I0000002658J-0000001101D01*
G01X0000157555Y0000302674D01*
G03X0000158778Y0000299722I0000004174J0D01*
G03X0000161728Y0000298500I0000002950J0000002950D01*
G01X0000172863Y0000298500D01*
G03X0000173613Y0000299250I0J0000000750D01*
G02X0000173791Y0000299680I0000000608J0D01*
G01X0000173941Y0000299830D01*
G02X0000174301Y0000300022I0000000494J-0000000493D01*
G01X0000174629Y0000300086D01*
G02X0000174773Y0000300100I0000000144J-0000000734D01*
G01X0000175188Y0000300100D01*
G02X0000175613Y0000299675I0J-0000000425D01*
G01X0000175613Y0000299250D01*
G03X0000176363Y0000298500I0000000750J0D01*
G01X0000176863Y0000298500D01*
G03X0000177613Y0000299250I0J0000000750D01*
G02X0000178363Y0000300000I0000000750J0D01*
G01X0000178932Y0000300000D01*
G02X0000179500Y0000299432I0J-0000000568D01*
G01X0000179500Y0000299250D01*
G03X0000180250Y0000298500I0000000750J0D01*
G01X0000202793Y0000298500D01*
G03X0000204000Y0000299000I0J0000001707D01*
G01X0000203500Y0000346500D02*
X0000203301Y0000346301D01*
G03X0000202555Y0000344500I0000001801J-0000001801D01*
G01X0000202555Y0000342411D01*
G03X0000202701Y0000342058I0000000500J0D01*
G01X0000203009Y0000341750D01*
G02X0000203155Y0000341397I-0000000354J-0000000353D01*
G01X0000203155Y0000338250D01*
G01X0000165500Y0000303500D02*
G03X0000166255Y0000305323I-0000001823J0000001823D01*
G01X0000166255Y0000307321D01*
G03X0000165955Y0000308045I-0000001024J0D01*
G02X0000165655Y0000308769I0000000724J0000000724D01*
G01X0000165655Y0000311750D01*
G01X0000144500Y0000330300D02*
G03X0000145655Y0000333088I-0000002787J0000002788D01*
G01X0000145655Y0000338250D01*
G01X0000165500Y0000346500D02*
G02X0000166255Y0000344677I-0000001823J-0000001823D01*
G01X0000166255Y0000342411D01*
G02X0000166109Y0000342058I-0000000500J0D01*
G01X0000165801Y0000341750D01*
G03X0000165655Y0000341397I0000000354J-0000000353D01*
G01X0000165655Y0000338250D01*
G01X0000158155Y0000338250D02*
X0000158155Y0000335208D01*
X0000157891Y0000334571D01*
G03X0000157555Y0000333447I0000001712J-0000001124D01*
G01X0000157555Y0000332581D01*
G03X0000158500Y0000330300I0000003225J0D01*
G01X0000168500Y0000303500D02*
G02X0000167555Y0000305781I0000002280J0000002281D01*
G01X0000167555Y0000306976D01*
G02X0000167855Y0000307700I0000001024J0D01*
G03X0000168155Y0000308424I-0000000724J0000000724D01*
G01X0000168155Y0000311750D01*
G01X0000155500Y0000330300D02*
G03X0000156255Y0000332123I-0000001823J0000001823D01*
G01X0000156255Y0000333901D01*
G03X0000156145Y0000334500I-0000001680J0000000001D01*
G03X0000155763Y0000335089I-0000001570J-0000000600D01*
G02X0000155655Y0000335745I0000001941J0000000656D01*
G01X0000155655Y0000338250D01*
G01X0000272000Y0000303500D02*
G03X0000272755Y0000305323I-0000001823J0000001823D01*
G01X0000272755Y0000307321D01*
G03X0000272455Y0000308045I-0000001024J0D01*
G02X0000272155Y0000308769I0000000724J0000000724D01*
G01X0000272155Y0000311750D01*
G01X0000312500Y0000291500D02*
X0000312950Y0000291050D01*
G02X0000313400Y0000289964I-0000001085J-0000001086D01*
G01X0000313400Y0000287405D01*
G02X0000312668Y0000285637I-0000002501J0D01*
G01X0000311500Y0000284469D01*
G01X0000285000Y0000346500D02*
X0000284801Y0000346301D01*
G03X0000284055Y0000344500I0000001801J-0000001801D01*
G01X0000284055Y0000342411D01*
G03X0000284201Y0000342058I0000000500J0D01*
G01X0000284509Y0000341750D01*
G02X0000284655Y0000341397I-0000000354J-0000000353D01*
G01X0000284655Y0000338250D01*
G01X0000291000Y0000291500D02*
G03X0000291700Y0000293190I-0000001690J0000001690D01*
G01X0000291700Y0000295957D01*
G02X0000293525Y0000300365I0000006233J0000000001D01*
G01X0000294316Y0000301156D01*
G02X0000298771Y0000303000I0000004454J-0000004456D01*
G01X0000307129Y0000303000D01*
G03X0000309744Y0000304084I-0000000001J0000003699D01*
G01X0000311080Y0000305420D01*
G03X0000311755Y0000307050I-0000001631J0000001630D01*
G01X0000311755Y0000307576D01*
G03X0000311455Y0000308300I-0000001024J0D01*
G02X0000311155Y0000309024I0000000724J0000000724D01*
G01X0000311155Y0000311750D01*
G01X0000275000Y0000346500D02*
X0000274801Y0000346301D01*
G03X0000274055Y0000344500I0000001801J-0000001801D01*
G01X0000274055Y0000342411D01*
G03X0000274201Y0000342058I0000000500J0D01*
G01X0000274509Y0000341750D01*
G02X0000274655Y0000341397I-0000000354J-0000000353D01*
G01X0000274655Y0000338250D01*
G01X0000315500Y0000291500D02*
G03X0000314700Y0000289569I0000001930J-0000001931D01*
G01X0000314700Y0000287036D01*
G03X0000315432Y0000285268I0000002501J0D01*
G01X0000316041Y0000284659D01*
G03X0000316500Y0000284469I0000000459J0000000459D01*
G01X0000282000Y0000346500D02*
G02X0000282755Y0000344677I-0000001823J-0000001823D01*
G01X0000282755Y0000342411D01*
G02X0000282609Y0000342058I-0000000500J0D01*
G01X0000282301Y0000341750D01*
G03X0000282155Y0000341397I0000000354J-0000000353D01*
G01X0000282155Y0000338250D01*
G01X0000285000Y0000291500D02*
X0000286350Y0000290150D01*
X0000286350Y0000285818D01*
X0000285000Y0000284469D01*
G01X0000288000Y0000291500D02*
X0000287650Y0000291150D01*
X0000287650Y0000286819D01*
X0000290000Y0000284469D01*
G01X0000272000Y0000346500D02*
G02X0000272755Y0000344677I-0000001823J-0000001823D01*
G01X0000272755Y0000342411D01*
G02X0000272609Y0000342058I-0000000500J0D01*
G01X0000272301Y0000341750D01*
G03X0000272155Y0000341397I0000000354J-0000000353D01*
G01X0000272155Y0000338250D01*
G01X0000371673Y0000237500D02*
X0000372673Y0000236500D01*
X0000374500Y0000236500D01*
X0000375000Y0000237000D01*
G01X0000338173Y0000196500D02*
X0000338173Y0000196276D01*
X0000341221Y0000193228D01*
G01X0000341221Y0000212126D02*
X0000344095Y0000215000D01*
X0000349557Y0000215000D01*
G01X0000289173Y0000270000D02*
X0000288350Y0000269177D01*
X0000288350Y0000265000D01*
X0000289327Y0000264023D01*
X0000289327Y0000254571D01*
X0000290827Y0000253071D01*
G01X0000290000Y0000280531D02*
X0000290000Y0000280500D01*
X0000288150Y0000278650D01*
X0000288150Y0000271664D01*
X0000289173Y0000270641D01*
X0000289173Y0000270000D01*
G01X0000285827Y0000270000D02*
X0000285827Y0000269386D01*
X0000287050Y0000268163D01*
X0000287050Y0000264461D01*
X0000288027Y0000263484D01*
X0000288027Y0000253421D01*
X0000287677Y0000253071D01*
G01X0000285000Y0000280531D02*
X0000286850Y0000278681D01*
X0000286850Y0000271679D01*
X0000285827Y0000270656D01*
X0000285827Y0000270000D01*
G01X0000282000Y0000303500D02*
G03X0000282755Y0000305323I-0000001823J0000001823D01*
G01X0000282755Y0000307321D01*
G03X0000282455Y0000308045I-0000001024J0D01*
G02X0000282155Y0000308769I0000000724J0000000724D01*
G01X0000282155Y0000311750D01*
G01X0000285000Y0000303500D02*
G02X0000284055Y0000305781I0000002280J0000002281D01*
G01X0000284055Y0000306976D01*
G02X0000284355Y0000307700I0000001024J0D01*
G03X0000284655Y0000308424I-0000000724J0000000724D01*
G01X0000284655Y0000311750D01*
G01X0000297500Y0000159469D02*
X0000299621Y0000161590D01*
G03X0000300300Y0000163229I-0000001639J0000001639D01*
G03X0000299216Y0000165844I-0000003699J-0000000001D01*
G01X0000298970Y0000166090D01*
G02X0000297126Y0000170545I0000004456J0000004454D01*
G01X0000297126Y0000180630D01*
G01X0000371673Y0000232500D02*
X0000373173Y0000234000D01*
X0000374500Y0000234000D01*
X0000375000Y0000233500D01*
G01X0000319173Y0000183779D02*
G03X0000318900Y0000183120I0000000659J-0000000659D01*
G01X0000318900Y0000179934D01*
G02X0000318623Y0000178393I-0000004410J-0000000003D01*
G01X0000318226Y0000177327D01*
X0000318226Y0000177326D01*
G03X0000318000Y0000176080I0000003338J-0000001249D01*
G01X0000318000Y0000167469D01*
G03X0000318245Y0000166242I0000003197J0D01*
G01X0000318636Y0000165300D01*
G03X0000318675Y0000165207I0000004631J0000001887D01*
G01X0000318737Y0000165068D01*
G03X0000318887Y0000164804I0000001475J0000000663D01*
G01X0000319315Y0000164193D01*
G03X0000319876Y0000163524I0000004097J0000002866D01*
G01X0000321658Y0000161742D01*
G02X0000322308Y0000160173I-0000001569J-0000001569D01*
G03X0000322400Y0000159709I0000001210J-0000000001D01*
G01X0000322500Y0000159469D01*
G01X0000317500Y0000159469D02*
X0000318068Y0000160037D01*
G03X0000318916Y0000161427I-0000002442J0000002444D01*
G01X0000318916Y0000161800D01*
G03X0000318292Y0000163308I-0000002132J0000000001D01*
G01X0000318154Y0000163445D01*
G02X0000316700Y0000167471I0000004846J0000004026D01*
G01X0000316700Y0000176081D01*
G02X0000317007Y0000177781I0000004865J-0000000001D01*
G01X0000317404Y0000178847D01*
G03X0000317600Y0000179934I-0000002914J0000001087D01*
G01X0000317600Y0000181800D01*
G03X0000317315Y0000182488I-0000000973J0D01*
G01X0000316024Y0000183779D01*
G01X0000300275Y0000180630D02*
X0000299350Y0000179705D01*
G03X0000298426Y0000177474I0000002231J-0000002231D01*
G01X0000298426Y0000170545D01*
G03X0000299890Y0000167010I0000005000J0D01*
G01X0000300136Y0000166764D01*
G02X0000301600Y0000163229I-0000003536J-0000003535D01*
G01X0000301600Y0000161523D01*
G03X0000302451Y0000159469I0000002904J0D01*
G01X0000302500Y0000159469D01*
G01X0000300275Y0000183779D02*
X0000301093Y0000182961D01*
G02X0000302775Y0000178900I-0000004061J-0000004061D01*
G01X0000302775Y0000173296D01*
G03X0000304619Y0000168841I0000006300J-0000000001D01*
G01X0000307516Y0000165944D01*
G02X0000308600Y0000163329I-0000002615J-0000002616D01*
G01X0000308600Y0000163140D01*
G02X0000307136Y0000159604I-0000005000J-0000000001D01*
G01X0000307000Y0000159469D01*
G01X0000311500Y0000159469D02*
X0000311364Y0000159605D01*
G02X0000309900Y0000163140I0000003536J0000003535D01*
G01X0000309900Y0000163329D01*
G03X0000308436Y0000166864I-0000005000J0D01*
G01X0000305539Y0000169761D01*
G02X0000304075Y0000173296I0000003536J0000003535D01*
G01X0000304075Y0000178400D01*
G02X0000306111Y0000183315I0000006951J0D01*
G01X0000306575Y0000183779D01*
G01X0000309725Y0000253071D02*
G03X0000309925Y0000253554I-0000000483J0000000483D01*
G01X0000309925Y0000255755D01*
G02X0000309925Y0000255756I0000003802J0D01*
G01X0000309925Y0000270189D01*
G02X0000311037Y0000272877I0000003802J0000000001D01*
G01X0000313748Y0000275588D01*
G03X0000314100Y0000276436I-0000000849J0000000849D01*
G01X0000314100Y0000276864D01*
G03X0000313368Y0000278632I-0000002501J0D01*
G01X0000311500Y0000280500D01*
X0000311500Y0000280531D01*
G01X0000316500Y0000280531D02*
X0000315950Y0000279981D01*
G03X0000315400Y0000278653I0000001328J-0000001328D01*
G01X0000315400Y0000276436D01*
G02X0000314668Y0000274668I-0000002501J0D01*
G01X0000311957Y0000271957D01*
G03X0000311225Y0000270189I0000001769J-0000001768D01*
G01X0000311225Y0000255756D01*
G03X0000311957Y0000253988I0000002501J0D01*
G01X0000312874Y0000253071D01*
G01X0000304000Y0000291500D02*
X0000303884Y0000291616D01*
G02X0000303000Y0000293750I0000002134J0000002134D01*
G01X0000303000Y0000294195D01*
G02X0000303331Y0000294991I0000001126J-0000000001D01*
G01X0000304020Y0000295680D01*
G02X0000306480Y0000296700I0000002461J-0000002460D01*
G01X0000313429Y0000296700D01*
G03X0000317884Y0000298544I0000000001J0000006300D01*
G01X0000321536Y0000302196D01*
G03X0000323000Y0000305731I-0000003536J0000003535D01*
G01X0000323000Y0000307075D01*
G02X0000323163Y0000307893I0000002134J0D01*
G01X0000323415Y0000308500D01*
X0000323498Y0000308701D01*
G03X0000323655Y0000309492I-0000001909J0000000790D01*
G01X0000323655Y0000311750D01*
G01X0000301000Y0000291500D02*
G03X0000301700Y0000293190I-0000001690J0000001690D01*
G01X0000301700Y0000294195D01*
G02X0000302411Y0000295911I0000002426J0D01*
G01X0000303100Y0000296600D01*
G02X0000306480Y0000298000I0000003380J-0000003380D01*
G01X0000313429Y0000298000D01*
G03X0000316964Y0000299464I0J0000005000D01*
G01X0000320616Y0000303116D01*
G03X0000321700Y0000305731I-0000002615J0000002616D01*
G01X0000321700Y0000306842D01*
G03X0000321569Y0000307500I-0000001718J0D01*
G01X0000321354Y0000308020D01*
G02X0000321155Y0000309020I0000002413J0000001000D01*
G01X0000321155Y0000311750D01*
G01X0000338071Y0000193228D02*
X0000337486Y0000193228D01*
X0000334827Y0000195887D01*
X0000334827Y0000196500D01*
G01X0000371673Y0000202500D02*
X0000373173Y0000204000D01*
X0000374500Y0000204000D01*
X0000375000Y0000203500D01*
G01X0000371673Y0000207500D02*
X0000372673Y0000206500D01*
X0000374500Y0000206500D01*
X0000375000Y0000207000D01*
G01X0000341221Y0000205827D02*
X0000341221Y0000207000D01*
X0000341721Y0000207500D01*
X0000342500Y0000207500D01*
X0000343000Y0000207000D01*
X0000343000Y0000205977D01*
X0000343500Y0000205477D01*
X0000347981Y0000205477D01*
X0000348804Y0000206300D01*
X0000358059Y0000206300D01*
X0000360258Y0000204101D01*
X0000364928Y0000204101D01*
X0000368327Y0000207500D01*
G01X0000368327Y0000202500D02*
X0000368026Y0000202801D01*
X0000359719Y0000202801D01*
X0000357520Y0000205000D01*
X0000349343Y0000205000D01*
X0000348520Y0000204177D01*
X0000339721Y0000204177D01*
X0000338071Y0000205827D01*
G01X0000341221Y0000237323D02*
X0000341100Y0000237323D01*
X0000340600Y0000237823D01*
X0000340600Y0000238473D01*
X0000341100Y0000238973D01*
X0000342527Y0000238973D01*
X0000343500Y0000238000D01*
X0000358040Y0000238000D01*
X0000358841Y0000237199D01*
X0000359801Y0000237199D01*
X0000363200Y0000233800D01*
X0000364627Y0000233800D01*
X0000368327Y0000237500D01*
G01X0000368327Y0000232500D02*
X0000362661Y0000232500D01*
X0000359262Y0000235899D01*
X0000358302Y0000235899D01*
X0000357501Y0000236700D01*
X0000342720Y0000236700D01*
X0000341693Y0000235673D01*
X0000339721Y0000235673D01*
X0000338071Y0000237323D01*
G01X0000262155Y0000338250D02*
X0000262155Y0000335269D01*
G03X0000262455Y0000334545I0000001024J0D01*
G02X0000262755Y0000333821I-0000000724J-0000000724D01*
G01X0000262755Y0000332364D01*
G02X0000261900Y0000330300I-0000002919J0D01*
G01X0000264000Y0000303500D02*
G02X0000263650Y0000304345I0000000845J0000000845D01*
G01X0000263650Y0000307005D01*
G02X0000263834Y0000307731I0000001524J0D01*
G01X0000264130Y0000308277D01*
G03X0000264243Y0000308500I-0000004263J0000002300D01*
G03X0000264348Y0000308735I-0000004368J0000002093D01*
G01X0000264445Y0000308969D01*
G03X0000264655Y0000310021I-0000002537J0000001053D01*
G01X0000264655Y0000311750D01*
G01X0000302500Y0000155531D02*
X0000301900Y0000154931D01*
G03X0000301300Y0000153482I0000001450J-0000001449D01*
G01X0000301300Y0000150500D01*
G03X0000301866Y0000149135I0000001931J0000000001D01*
G01X0000302500Y0000148500D01*
G01X0000332500Y0000148500D02*
X0000332317Y0000148684D01*
G02X0000331150Y0000151500I0000002816J0000002817D01*
G01X0000331150Y0000152272D01*
G02X0000332500Y0000155531I0000004609J0D01*
G01X0000305500Y0000148500D02*
G03X0000306700Y0000151397I-0000002897J0000002897D01*
G01X0000306700Y0000152500D01*
X0000306711Y0000152499D01*
X0000306700Y0000155019D01*
G02X0000306850Y0000155381I0000000512J0D01*
G01X0000307000Y0000155531D01*
G01X0000327500Y0000155531D02*
X0000328661Y0000154369D01*
G02X0000329850Y0000151500I-0000002869J-0000002870D01*
G01X0000329850Y0000149345D01*
G02X0000329500Y0000148500I-0000001195J0D01*
G01X0000261000Y0000303500D02*
X0000261113Y0000303612D01*
G03X0000262350Y0000306600I-0000002988J0000002987D01*
G01X0000262350Y0000307878D01*
G03X0000262303Y0000308113I-0000000615J-0000000001D01*
G01X0000262226Y0000308299D01*
G02X0000262155Y0000308657I0000000864J0000000357D01*
G01X0000262155Y0000311750D01*
G01X0000299500Y0000148500D02*
G03X0000300000Y0000149707I-0000001207J0000001207D01*
G01X0000300000Y0000152500D01*
G03X0000299625Y0000153406I-0000001282J0D01*
G01X0000297500Y0000155531D01*
G01X0000311500Y0000155531D02*
G03X0000310700Y0000155199I0000000001J-0000001132D01*
G01X0000309000Y0000153500D01*
G03X0000308000Y0000151086I0000002414J-0000002414D01*
G01X0000308000Y0000149707D01*
G03X0000308500Y0000148500I0000001707J0D01*
G01X0000322500Y0000155531D02*
X0000321300Y0000154331D01*
G03X0000320100Y0000151434I0000002897J-0000002897D01*
G01X0000320100Y0000150400D01*
G02X0000320100Y0000150398I-0000002749J-0000000001D01*
G01X0000320100Y0000149466D01*
G03X0000320500Y0000148500I0000001366J0D01*
G01X0000264655Y0000338250D02*
X0000264655Y0000335079D01*
G02X0000264355Y0000334355I-0000001024J0D01*
G03X0000264055Y0000333631I0000000724J-0000000724D01*
G01X0000264055Y0000332340D01*
G03X0000264900Y0000330300I0000002885J0D01*
G01X0000317500Y0000155531D02*
X0000318150Y0000154881D01*
G02X0000318800Y0000153312I-0000001569J-0000001569D01*
G01X0000318800Y0000150400D01*
G02X0000318376Y0000149375I-0000001449J-0000000001D01*
G01X0000317500Y0000148500D01*
G01X0000291673Y0000165000D02*
X0000291673Y0000165827D01*
X0000290500Y0000167000D01*
X0000290500Y0000171161D01*
X0000292314Y0000172975D01*
X0000292314Y0000177939D01*
X0000292476Y0000178102D01*
X0000293850Y0000179476D01*
X0000293850Y0000179500D01*
X0000293900Y0000179550D01*
X0000293900Y0000183703D01*
X0000293976Y0000183779D01*
G01X0000292500Y0000159469D02*
X0000290300Y0000161669D01*
X0000290300Y0000162800D01*
X0000291673Y0000164173D01*
X0000291673Y0000165000D01*
G01X0000278327Y0000165000D02*
X0000278327Y0000166327D01*
X0000279700Y0000167700D01*
X0000279700Y0000170039D01*
X0000288500Y0000178839D01*
X0000288500Y0000179807D01*
X0000287677Y0000180630D01*
G01X0000277500Y0000159469D02*
X0000279000Y0000160969D01*
X0000279000Y0000163685D01*
X0000278327Y0000164358D01*
X0000278327Y0000165000D01*
G01X0000281673Y0000165000D02*
X0000281673Y0000166127D01*
X0000281000Y0000166800D01*
X0000281000Y0000169500D01*
X0000289800Y0000178300D01*
X0000289800Y0000179603D01*
X0000290827Y0000180630D01*
G01X0000282500Y0000159469D02*
X0000280300Y0000161669D01*
X0000280300Y0000162800D01*
X0000281673Y0000164173D01*
X0000281673Y0000165000D01*
G01X0000338000Y0000145000D02*
X0000339200Y0000146200D01*
X0000339200Y0000153831D01*
X0000337500Y0000155531D01*
G01X0000278000Y0000145000D02*
X0000279200Y0000146200D01*
X0000279200Y0000153831D01*
X0000277500Y0000155531D01*
G01X0000338327Y0000165000D02*
X0000338327Y0000165627D01*
X0000339227Y0000166527D01*
X0000339227Y0000178446D01*
X0000335271Y0000182402D01*
X0000335271Y0000186579D01*
X0000334921Y0000186929D01*
G01X0000337500Y0000159469D02*
X0000339500Y0000161469D01*
X0000339500Y0000163185D01*
X0000338327Y0000164358D01*
X0000338327Y0000165000D01*
G01X0000338071Y0000186929D02*
X0000336571Y0000185429D01*
X0000336571Y0000182941D01*
X0000340527Y0000178985D01*
X0000340527Y0000166788D01*
X0000341673Y0000165642D01*
X0000341673Y0000165000D01*
G01X0000342500Y0000159469D02*
X0000340800Y0000161169D01*
X0000340800Y0000163300D01*
X0000341673Y0000164173D01*
X0000341673Y0000165000D01*
G01X0000291500Y0000145000D02*
X0000290500Y0000145999D01*
X0000290500Y0000153531D01*
X0000292500Y0000155531D01*
G01X0000281500Y0000145000D02*
X0000280500Y0000145999D01*
X0000280500Y0000153531D01*
X0000282500Y0000155531D01*
G01X0000341500Y0000145000D02*
X0000340500Y0000145999D01*
X0000340500Y0000153531D01*
X0000342500Y0000155531D01*
G01X0000288000Y0000145000D02*
X0000289200Y0000146200D01*
X0000289200Y0000153831D01*
X0000287500Y0000155531D01*
G01X0000287500Y0000159469D02*
X0000289000Y0000160969D01*
X0000289000Y0000163685D01*
X0000288327Y0000164358D01*
X0000288327Y0000165000D01*
G01X0000288327Y0000165000D02*
X0000288327Y0000166125D01*
X0000289200Y0000167000D01*
X0000289200Y0000171700D01*
X0000291014Y0000173514D01*
X0000291014Y0000178476D01*
X0000291555Y0000179020D01*
X0000292500Y0000179965D01*
X0000292500Y0000182106D01*
X0000290827Y0000183779D01*
G01X0000275000Y0000303500D02*
G02X0000274055Y0000305781I0000002280J0000002281D01*
G01X0000274055Y0000306976D01*
G02X0000274355Y0000307700I0000001024J0D01*
G03X0000274655Y0000308424I-0000000724J0000000724D01*
G01X0000274655Y0000311750D01*
G01X0000294000Y0000291500D02*
G02X0000293000Y0000293914I0000002414J0000002414D01*
G01X0000293000Y0000295957D01*
G02X0000294445Y0000299445I0000004932J0D01*
G01X0000295236Y0000300236D01*
G02X0000298771Y0000301700I0000003535J-0000003536D01*
G01X0000307129Y0000301700D01*
G03X0000310664Y0000303164I0J0000005000D01*
G01X0000312000Y0000304500D01*
G03X0000313055Y0000307047I-0000002547J0000002547D01*
G01X0000313055Y0000307476D01*
G02X0000313355Y0000308200I0000001024J0D01*
G03X0000313655Y0000308924I-0000000724J0000000724D01*
G01X0000313655Y0000311750D01*
G54D26*
X0000020000Y0000092500D03*
X0000020000Y0000252500D03*
G54D17*
X0000160000Y0000050000D03*
X0000195000Y0000015000D03*
X0000195000Y0000020000D03*
X0000195000Y0000025000D03*
X0000190000Y0000030000D03*
X0000175000Y0000032500D03*
X0000180000Y0000032500D03*
X0000185000Y0000025000D03*
X0000185000Y0000030000D03*
X0000190000Y0000025000D03*
X0000190000Y0000020000D03*
X0000185000Y0000020000D03*
X0000250000Y0000020000D03*
X0000245000Y0000020000D03*
X0000245000Y0000040000D03*
X0000245000Y0000035000D03*
X0000250000Y0000030000D03*
X0000250000Y0000025000D03*
X0000245000Y0000025000D03*
X0000245000Y0000030000D03*
X0000120000Y0000050000D03*
X0000115000Y0000050000D03*
X0000220000Y0000050000D03*
X0000220000Y0000045000D03*
X0000035000Y0000045000D03*
X0000022500Y0000045000D03*
X0000055000Y0000035000D03*
X0000040000Y0000050000D03*
X0000082500Y0000045000D03*
X0000082500Y0000035000D03*
X0000075000Y0000045000D03*
X0000090000Y0000045000D03*
X0000100000Y0000050000D03*
X0000110000Y0000040000D03*
X0000055000Y0000025000D03*
X0000070000Y0000010000D03*
X0000070000Y0000025000D03*
X0000085000Y0000010000D03*
X0000085000Y0000025000D03*
X0000100000Y0000025000D03*
X0000100000Y0000010000D03*
X0000130000Y0000010000D03*
X0000115000Y0000010000D03*
X0000115000Y0000025000D03*
X0000145000Y0000025000D03*
X0000130000Y0000025000D03*
X0000150000Y0000050000D03*
X0000160000Y0000030000D03*
X0000150000Y0000030000D03*
X0000150000Y0000040000D03*
X0000200000Y0000015000D03*
X0000210000Y0000015000D03*
X0000225000Y0000015000D03*
X0000240000Y0000015000D03*
X0000240000Y0000050000D03*
X0000125000Y0000050000D03*
X0000210000Y0000040000D03*
X0000210000Y0000030000D03*
X0000210000Y0000035000D03*
X0000210000Y0000025000D03*
X0000160000Y0000040000D03*
X0000175000Y0000020000D03*
X0000170000Y0000015000D03*
X0000165000Y0000015000D03*
X0000165000Y0000020000D03*
X0000170000Y0000020000D03*
X0000170000Y0000025000D03*
X0000165000Y0000025000D03*
X0000060000Y0000035000D03*
X0000050000Y0000040000D03*
X0000045000Y0000040000D03*
X0000065000Y0000040000D03*
X0000060000Y0000040000D03*
X0000055000Y0000040000D03*
X0000135000Y0000050000D03*
X0000130000Y0000050000D03*
X0000145000Y0000045000D03*
X0000115000Y0000045000D03*
X0000180000Y0000040000D03*
X0000175000Y0000040000D03*
X0000180000Y0000045000D03*
X0000175000Y0000045000D03*
X0000180000Y0000050000D03*
X0000175000Y0000050000D03*
X0000100000Y0000035000D03*
X0000060000Y0000030000D03*
X0000140000Y0000050000D03*
X0000110000Y0000180000D03*
X0000250000Y0000190000D03*
X0000240000Y0000180000D03*
X0000200000Y0000305000D03*
X0000135000Y0000245000D03*
X0000250000Y0000195000D03*
X0000080000Y0000175000D03*
X0000250000Y0000210000D03*
X0000240000Y0000165000D03*
X0000080000Y0000195000D03*
X0000250000Y0000240000D03*
X0000115000Y0000169600D03*
X0000250000Y0000235000D03*
X0000082500Y0000200000D03*
X0000250000Y0000270000D03*
X0000192500Y0000330000D03*
X0000250000Y0000250000D03*
X0000135000Y0000210000D03*
X0000114785Y0000180000D03*
X0000250000Y0000215000D03*
X0000250000Y0000230000D03*
X0000090300Y0000133500D03*
X0000090300Y0000130000D03*
X0000250000Y0000317500D03*
X0000250000Y0000220000D03*
X0000105000Y0000130000D03*
X0000075000Y0000200000D03*
X0000060000Y0000195000D03*
X0000142500Y0000345000D03*
X0000245000Y0000095000D03*
X0000142500Y0000317500D03*
X0000180000Y0000195000D03*
X0000120000Y0000260000D03*
X0000120000Y0000275000D03*
X0000120000Y0000270000D03*
X0000120000Y0000265000D03*
X0000150000Y0000190000D03*
X0000095000Y0000240000D03*
X0000120000Y0000205000D03*
X0000120000Y0000230000D03*
X0000205000Y0000075000D03*
X0000095000Y0000195000D03*
X0000090000Y0000195000D03*
X0000210000Y0000140000D03*
X0000190000Y0000317500D03*
X0000110079Y0000240079D03*
X0000125000Y0000065000D03*
X0000135000Y0000065000D03*
X0000140000Y0000070000D03*
X0000067500Y0000180000D03*
X0000215000Y0000255000D03*
X0000135000Y0000090000D03*
X0000160000Y0000070000D03*
X0000225000Y0000135000D03*
X0000090000Y0000240000D03*
X0000075000Y0000210000D03*
X0000135000Y0000075000D03*
X0000125000Y0000075000D03*
X0000115000Y0000075000D03*
X0000120000Y0000075000D03*
X0000235000Y0000125000D03*
X0000145000Y0000100000D03*
X0000135000Y0000100000D03*
X0000155000Y0000075000D03*
X0000130000Y0000100000D03*
X0000155000Y0000070000D03*
X0000080000Y0000180000D03*
X0000250000Y0000225000D03*
X0000225000Y0000265000D03*
X0000195000Y0000305000D03*
X0000196500Y0000330000D03*
X0000150000Y0000280000D03*
X0000060000Y0000190000D03*
X0000220000Y0000110000D03*
X0000205000Y0000265000D03*
X0000205000Y0000270000D03*
X0000205000Y0000275000D03*
X0000205000Y0000280000D03*
X0000220000Y0000290000D03*
X0000225000Y0000290000D03*
X0000230000Y0000290000D03*
X0000230000Y0000285000D03*
X0000245000Y0000295000D03*
X0000240000Y0000295000D03*
X0000205000Y0000285000D03*
X0000045000Y0000150000D03*
X0000185000Y0000305000D03*
X0000060000Y0000215000D03*
X0000055000Y0000175000D03*
X0000080000Y0000220000D03*
X0000175000Y0000305000D03*
X0000055000Y0000080000D03*
X0000100000Y0000180000D03*
X0000218500Y0000163000D03*
X0000228500Y0000205000D03*
X0000120000Y0000220000D03*
X0000195000Y0000235000D03*
X0000190000Y0000235000D03*
X0000192500Y0000207500D03*
X0000220000Y0000090000D03*
X0000220000Y0000060000D03*
X0000220000Y0000075000D03*
X0000235000Y0000205000D03*
X0000240000Y0000230000D03*
X0000240000Y0000250000D03*
X0000240000Y0000220000D03*
X0000240000Y0000200000D03*
X0000240000Y0000260000D03*
X0000240000Y0000210000D03*
X0000240000Y0000240000D03*
X0000240000Y0000190000D03*
X0000225000Y0000205000D03*
X0000220000Y0000169500D03*
X0000090000Y0000075000D03*
X0000165000Y0000225000D03*
X0000055000Y0000090000D03*
X0000055000Y0000095000D03*
X0000055000Y0000085000D03*
X0000083500Y0000130000D03*
X0000087000Y0000130000D03*
X0000090000Y0000080000D03*
X0000085000Y0000195000D03*
X0000190000Y0000175000D03*
X0000135000Y0000230000D03*
X0000135000Y0000205000D03*
X0000040000Y0000102500D03*
X0000176000Y0000330000D03*
X0000060000Y0000240000D03*
X0000134000Y0000200000D03*
X0000145000Y0000210000D03*
X0000140000Y0000210000D03*
X0000100000Y0000200000D03*
X0000140000Y0000100000D03*
X0000075000Y0000175000D03*
X0000105000Y0000195000D03*
X0000080000Y0000225000D03*
X0000183500Y0000330000D03*
X0000040000Y0000122500D03*
X0000205000Y0000125000D03*
X0000135000Y0000225000D03*
X0000115000Y0000220000D03*
X0000245000Y0000330000D03*
X0000190000Y0000220000D03*
X0000150000Y0000205000D03*
X0000250000Y0000305000D03*
X0000195000Y0000220000D03*
X0000150000Y0000200000D03*
X0000199000Y0000140000D03*
X0000105000Y0000200000D03*
X0000080000Y0000255000D03*
X0000105000Y0000180000D03*
X0000095000Y0000180000D03*
X0000120000Y0000210000D03*
X0000080000Y0000240000D03*
X0000096000Y0000223000D03*
X0000111000Y0000194500D03*
X0000110000Y0000214000D03*
X0000128000Y0000328500D03*
X0000132500Y0000320000D03*
X0000153500Y0000250000D03*
X0000161500Y0000249500D03*
X0000179500Y0000222000D03*
X0000169500Y0000292000D03*
X0000178000Y0000285000D03*
X0000177500Y0000291000D03*
X0000170500Y0000283500D03*
X0000165000Y0000288500D03*
X0000168500Y0000276500D03*
X0000164500Y0000280500D03*
X0000172000Y0000262000D03*
X0000179000Y0000269000D03*
X0000179000Y0000261000D03*
X0000179500Y0000248000D03*
X0000185000Y0000254500D03*
X0000190000Y0000260500D03*
X0000190000Y0000250500D03*
X0000195000Y0000254500D03*
X0000195000Y0000263500D03*
X0000205000Y0000250000D03*
X0000205000Y0000254500D03*
X0000215000Y0000247500D03*
X0000210000Y0000245500D03*
X0000205000Y0000235500D03*
X0000204500Y0000230000D03*
X0000215000Y0000230000D03*
X0000210000Y0000230000D03*
X0000215000Y0000235500D03*
X0000210000Y0000235500D03*
X0000215000Y0000219000D03*
X0000215000Y0000225000D03*
X0000210000Y0000225000D03*
X0000204500Y0000225000D03*
X0000204500Y0000219000D03*
X0000210000Y0000219500D03*
X0000219500Y0000138500D03*
X0000212500Y0000147000D03*
X0000204500Y0000154500D03*
X0000220500Y0000155000D03*
X0000211500Y0000164000D03*
X0000204500Y0000175000D03*
X0000213000Y0000177500D03*
X0000208500Y0000182000D03*
X0000204500Y0000200000D03*
X0000204500Y0000207500D03*
X0000210000Y0000200000D03*
X0000220000Y0000200000D03*
X0000220000Y0000210000D03*
X0000220000Y0000219000D03*
X0000220000Y0000225000D03*
X0000220000Y0000230000D03*
X0000220000Y0000235000D03*
X0000220000Y0000244500D03*
X0000220000Y0000250000D03*
X0000234000Y0000254500D03*
X0000225000Y0000248500D03*
X0000130000Y0000297500D03*
X0000112500Y0000302500D03*
X0000132500Y0000310000D03*
X0000112500Y0000310000D03*
X0000097500Y0000310000D03*
X0000127500Y0000337500D03*
X0000112500Y0000337500D03*
X0000095000Y0000337500D03*
X0000047500Y0000332500D03*
X0000032500Y0000315000D03*
X0000087500Y0000330000D03*
X0000057500Y0000320000D03*
X0000077500Y0000320000D03*
X0000067500Y0000330000D03*
X0000057500Y0000340000D03*
X0000077500Y0000340000D03*
X0000035000Y0000302500D03*
X0000045000Y0000302500D03*
X0000055000Y0000302500D03*
X0000065000Y0000302500D03*
X0000090000Y0000302500D03*
X0000085000Y0000310000D03*
X0000075000Y0000310000D03*
X0000065000Y0000310000D03*
X0000055000Y0000310000D03*
X0000045000Y0000310000D03*
X0000020000Y0000305000D03*
X0000020000Y0000300000D03*
X0000035000Y0000310000D03*
X0000065000Y0000295000D03*
X0000055000Y0000295000D03*
X0000045000Y0000295000D03*
X0000035000Y0000295000D03*
X0000045000Y0000285000D03*
X0000055000Y0000285000D03*
X0000055000Y0000275000D03*
X0000065000Y0000285000D03*
X0000035000Y0000277500D03*
X0000027500Y0000285000D03*
X0000027500Y0000277500D03*
X0000030000Y0000257500D03*
X0000030000Y0000267500D03*
X0000045000Y0000267500D03*
X0000045000Y0000252500D03*
X0000047500Y0000262500D03*
X0000025000Y0000240000D03*
X0000015000Y0000235000D03*
X0000015000Y0000245000D03*
X0000030000Y0000245000D03*
X0000030000Y0000235000D03*
X0000040000Y0000235000D03*
X0000040000Y0000245000D03*
X0000047500Y0000245000D03*
X0000055000Y0000227500D03*
X0000045000Y0000220000D03*
X0000045000Y0000212500D03*
X0000052500Y0000200000D03*
X0000102500Y0000225000D03*
X0000112500Y0000217500D03*
X0000172500Y0000145000D03*
X0000147500Y0000180000D03*
X0000140000Y0000180000D03*
X0000155000Y0000180000D03*
X0000127500Y0000175000D03*
X0000140000Y0000175000D03*
X0000155000Y0000175000D03*
X0000172500Y0000175000D03*
X0000175000Y0000160000D03*
X0000175000Y0000165000D03*
X0000165000Y0000165000D03*
X0000155000Y0000165000D03*
X0000145000Y0000165000D03*
X0000132500Y0000165000D03*
X0000122500Y0000165000D03*
X0000100000Y0000155000D03*
X0000082500Y0000170000D03*
X0000090000Y0000170000D03*
X0000097500Y0000170000D03*
X0000062500Y0000177500D03*
X0000067500Y0000167500D03*
X0000062500Y0000172500D03*
X0000075000Y0000125000D03*
X0000075000Y0000135000D03*
X0000045000Y0000122500D03*
X0000045000Y0000115000D03*
X0000055000Y0000115000D03*
X0000065000Y0000115000D03*
X0000052500Y0000135000D03*
X0000062500Y0000132500D03*
X0000060000Y0000120000D03*
X0000060000Y0000127500D03*
X0000060000Y0000137500D03*
X0000070000Y0000132500D03*
X0000042500Y0000130000D03*
X0000040000Y0000160000D03*
X0000040000Y0000172500D03*
X0000045000Y0000177500D03*
X0000042500Y0000185000D03*
X0000020000Y0000217500D03*
X0000012500Y0000217500D03*
X0000020000Y0000187500D03*
X0000012500Y0000187500D03*
X0000020000Y0000172500D03*
X0000020000Y0000167500D03*
X0000012500Y0000167500D03*
X0000017500Y0000160000D03*
X0000027500Y0000172500D03*
X0000027500Y0000162500D03*
X0000027500Y0000155000D03*
X0000027500Y0000150000D03*
X0000027500Y0000145000D03*
X0000027500Y0000140000D03*
X0000027500Y0000132500D03*
X0000027500Y0000095000D03*
X0000027500Y0000100000D03*
X0000027500Y0000125000D03*
X0000027500Y0000117500D03*
X0000027500Y0000107500D03*
X0000087500Y0000070000D03*
X0000057500Y0000065000D03*
X0000047500Y0000067500D03*
X0000062500Y0000072500D03*
X0000030000Y0000087500D03*
X0000040000Y0000080000D03*
X0000030000Y0000080000D03*
X0000020000Y0000080000D03*
X0000012500Y0000080000D03*
X0000040000Y0000070000D03*
X0000030000Y0000070000D03*
X0000020000Y0000070000D03*
X0000012500Y0000070000D03*
X0000040000Y0000062500D03*
X0000030000Y0000055000D03*
X0000030000Y0000062500D03*
X0000020000Y0000062500D03*
X0000012500Y0000062500D03*
X0000012500Y0000055000D03*
X0000020000Y0000055000D03*
X0000082500Y0000110000D03*
X0000092500Y0000110000D03*
X0000082500Y0000055000D03*
X0000102500Y0000107500D03*
X0000123000Y0000130500D03*
X0000122500Y0000142500D03*
X0000122500Y0000122500D03*
X0000117500Y0000135000D03*
X0000132500Y0000132500D03*
X0000152500Y0000130000D03*
X0000150000Y0000145000D03*
X0000167500Y0000135000D03*
X0000157500Y0000132500D03*
X0000147500Y0000132500D03*
X0000140000Y0000132500D03*
X0000142500Y0000112500D03*
X0000120000Y0000105000D03*
X0000112500Y0000100000D03*
X0000120000Y0000095000D03*
X0000172500Y0000087500D03*
X0000167500Y0000087500D03*
X0000170000Y0000080000D03*
X0000165000Y0000072500D03*
X0000170000Y0000060000D03*
X0000162500Y0000060000D03*
X0000150000Y0000065000D03*
X0000150000Y0000060000D03*
X0000162500Y0000065000D03*
X0000170000Y0000065000D03*
X0000180000Y0000065000D03*
X0000195000Y0000075000D03*
X0000190000Y0000065000D03*
X0000205000Y0000060000D03*
X0000210000Y0000065000D03*
X0000200000Y0000065000D03*
X0000200000Y0000055000D03*
X0000210000Y0000055000D03*
X0000235000Y0000092500D03*
X0000235000Y0000077500D03*
X0000235000Y0000062500D03*
X0000240000Y0000080000D03*
X0000237500Y0000102500D03*
X0000240000Y0000092500D03*
X0000247500Y0000092500D03*
X0000179500Y0000235000D03*
X0000192000Y0000140500D03*
X0000166500Y0000149500D03*
X0000161000Y0000105000D03*
X0000151500Y0000111000D03*
X0000162500Y0000114500D03*
X0000115000Y0000165500D03*
X0000079500Y0000130500D03*
X0000081000Y0000139000D03*
X0000035000Y0000200500D03*
X0000055000Y0000220000D03*
X0000055000Y0000245000D03*
X0000070500Y0000261500D03*
X0000087500Y0000257500D03*
X0000200500Y0000331500D03*
X0000180300Y0000301700D03*
X0000144000Y0000306500D03*
X0000144000Y0000300500D03*
X0000150000Y0000300500D03*
X0000150000Y0000306500D03*
X0000230400Y0000333400D03*
X0000236400Y0000333400D03*
X0000236400Y0000327400D03*
X0000230400Y0000327400D03*
X0000143000Y0000333300D03*
X0000149000Y0000333300D03*
X0000149000Y0000327300D03*
X0000143000Y0000327300D03*
X0000154000Y0000333300D03*
X0000160000Y0000333300D03*
X0000160000Y0000327300D03*
X0000154000Y0000327300D03*
X0000164000Y0000306500D03*
X0000170000Y0000306500D03*
X0000170000Y0000300500D03*
X0000164000Y0000300500D03*
X0000164000Y0000349500D03*
X0000170000Y0000349500D03*
X0000170000Y0000343500D03*
X0000164000Y0000343500D03*
X0000199000Y0000349500D03*
X0000205000Y0000349500D03*
X0000205000Y0000343500D03*
X0000199000Y0000343500D03*
X0000207000Y0000300500D03*
X0000207000Y0000294500D03*
X0000201000Y0000300500D03*
X0000201000Y0000294500D03*
X0000225500Y0000306500D03*
X0000231500Y0000306500D03*
X0000231500Y0000300500D03*
X0000225500Y0000300500D03*
X0000238000Y0000306500D03*
X0000244000Y0000306500D03*
X0000244000Y0000300500D03*
X0000238000Y0000300500D03*
X0000185000Y0000265000D03*
X0000040000Y0000142500D03*
X0000090000Y0000140000D03*
X0000150000Y0000210000D03*
X0000070000Y0000165000D03*
X0000245000Y0000120000D03*
X0000225000Y0000130000D03*
X0000240000Y0000150000D03*
X0000180000Y0000090000D03*
X0000170000Y0000125000D03*
X0000205000Y0000140000D03*
X0000045000Y0000090000D03*
X0000045000Y0000080000D03*
X0000095000Y0000230000D03*
X0000037700Y0000180200D03*
X0000013800Y0000174800D03*
X0000032500Y0000185000D03*
X0000245000Y0000105000D03*
X0000245000Y0000075000D03*
X0000245000Y0000070000D03*
X0000245000Y0000065000D03*
X0000245000Y0000060000D03*
X0000245000Y0000085000D03*
X0000245000Y0000080000D03*
X0000220000Y0000115000D03*
X0000220000Y0000255000D03*
X0000150000Y0000285000D03*
X0000150000Y0000295000D03*
X0000230000Y0000275000D03*
X0000210000Y0000285000D03*
X0000210000Y0000290000D03*
X0000215000Y0000289000D03*
X0000125000Y0000260000D03*
X0000125000Y0000265000D03*
X0000125000Y0000270000D03*
X0000125000Y0000275000D03*
X0000150000Y0000275000D03*
X0000155000Y0000275000D03*
X0000155000Y0000270000D03*
X0000150000Y0000270000D03*
X0000145000Y0000270000D03*
X0000195000Y0000060000D03*
X0000195000Y0000055000D03*
X0000190000Y0000055000D03*
X0000250000Y0000285000D03*
X0000250000Y0000290000D03*
X0000250000Y0000280000D03*
X0000250000Y0000275000D03*
X0000155000Y0000205000D03*
X0000180000Y0000190000D03*
X0000180000Y0000200000D03*
X0000190000Y0000290000D03*
X0000195000Y0000250000D03*
X0000197500Y0000207500D03*
X0000195000Y0000180000D03*
X0000155000Y0000200000D03*
X0000240000Y0000185000D03*
X0000240000Y0000225000D03*
X0000240000Y0000205000D03*
X0000240000Y0000235000D03*
X0000240000Y0000195000D03*
X0000240000Y0000215000D03*
X0000240000Y0000255000D03*
X0000240000Y0000245000D03*
X0000037700Y0000210200D03*
X0000013800Y0000205200D03*
X0000080000Y0000290000D03*
X0000085000Y0000290000D03*
X0000090000Y0000290000D03*
X0000095000Y0000290000D03*
X0000100000Y0000290000D03*
X0000105000Y0000290000D03*
X0000110000Y0000290000D03*
X0000075000Y0000290000D03*
X0000032500Y0000215000D03*
X0000202500Y0000317500D03*
X0000245000Y0000317500D03*
X0000235000Y0000317500D03*
X0000230000Y0000317500D03*
X0000225000Y0000317500D03*
X0000172500Y0000317500D03*
X0000162500Y0000317500D03*
X0000152500Y0000317500D03*
X0000217500Y0000325000D03*
X0000210000Y0000325000D03*
X0000135000Y0000325000D03*
X0000040000Y0000252500D03*
X0000155000Y0000235000D03*
X0000160000Y0000235000D03*
X0000090000Y0000205000D03*
X0000110000Y0000205000D03*
X0000100000Y0000195000D03*
X0000100094Y0000240094D03*
X0000060000Y0000230000D03*
X0000060000Y0000205000D03*
X0000090000Y0000180000D03*
X0000120000Y0000200000D03*
X0000120000Y0000225000D03*
X0000085000Y0000205000D03*
X0000085000Y0000230000D03*
X0000100000Y0000230000D03*
X0000095000Y0000205000D03*
X0000110000Y0000230000D03*
X0000165000Y0000230000D03*
X0000080000Y0000155000D03*
X0000045000Y0000100000D03*
X0000050000Y0000100000D03*
X0000100000Y0000070000D03*
X0000095000Y0000070000D03*
X0000105000Y0000090000D03*
X0000080000Y0000090000D03*
X0000080000Y0000080000D03*
X0000070000Y0000090000D03*
X0000070000Y0000080000D03*
X0000075000Y0000085000D03*
X0000200000Y0000160000D03*
X0000050000Y0000130000D03*
X0000055000Y0000130000D03*
X0000045000Y0000155000D03*
X0000070000Y0000150000D03*
X0000045000Y0000160000D03*
X0000095000Y0000125000D03*
X0000080000Y0000070000D03*
X0000145000Y0000250000D03*
X0000090000Y0000065000D03*
X0000185000Y0000175000D03*
X0000160000Y0000075000D03*
X0000135000Y0000150000D03*
X0000150000Y0000155000D03*
X0000150000Y0000120000D03*
X0000150000Y0000125000D03*
X0000140000Y0000090000D03*
X0000120000Y0000150000D03*
X0000115000Y0000115000D03*
X0000115000Y0000130000D03*
X0000120000Y0000065000D03*
X0000115000Y0000065000D03*
X0000195000Y0000080000D03*
X0000175000Y0000140000D03*
X0000192500Y0000112500D03*
X0000197500Y0000112500D03*
X0000197500Y0000107500D03*
X0000197500Y0000102500D03*
X0000192500Y0000102500D03*
X0000187500Y0000107500D03*
X0000187500Y0000112500D03*
X0000187500Y0000102500D03*
X0000192500Y0000107500D03*
X0000205000Y0000090000D03*
X0000180000Y0000140000D03*
X0000130000Y0000090000D03*
X0000125000Y0000090000D03*
X0000140000Y0000075000D03*
X0000145000Y0000105000D03*
X0000152500Y0000345000D03*
X0000160000Y0000345000D03*
X0000175000Y0000345000D03*
X0000195000Y0000345000D03*
X0000225000Y0000345000D03*
X0000230000Y0000345000D03*
X0000235000Y0000345000D03*
X0000240000Y0000345000D03*
X0000060000Y0000200000D03*
X0000075000Y0000255000D03*
X0000195500Y0000140000D03*
X0000173500Y0000235000D03*
X0000220000Y0000055000D03*
X0000215000Y0000275000D03*
X0000210000Y0000275000D03*
X0000210000Y0000270000D03*
X0000210000Y0000280000D03*
X0000040000Y0000147500D03*
X0000040000Y0000152500D03*
X0000040000Y0000112500D03*
X0000245000Y0000135000D03*
X0000240000Y0000140000D03*
X0000250000Y0000140000D03*
X0000045000Y0000095000D03*
X0000045000Y0000085000D03*
X0000025000Y0000187500D03*
X0000130000Y0000075000D03*
X0000130000Y0000065000D03*
X0000155000Y0000290000D03*
X0000130000Y0000280000D03*
X0000130000Y0000275000D03*
X0000130000Y0000270000D03*
X0000135000Y0000270000D03*
X0000140000Y0000270000D03*
X0000135000Y0000275000D03*
X0000200000Y0000180000D03*
X0000190000Y0000180000D03*
X0000185000Y0000180000D03*
X0000200000Y0000250000D03*
X0000090000Y0000270000D03*
X0000085000Y0000270000D03*
X0000080000Y0000270000D03*
X0000075000Y0000270000D03*
X0000095000Y0000270000D03*
X0000100000Y0000270000D03*
X0000105000Y0000270000D03*
X0000110000Y0000270000D03*
X0000025000Y0000217500D03*
X0000040000Y0000272500D03*
X0000040000Y0000262500D03*
X0000055000Y0000180000D03*
X0000075000Y0000235000D03*
X0000165000Y0000235000D03*
X0000075000Y0000205000D03*
X0000075000Y0000230000D03*
X0000105000Y0000240000D03*
X0000105000Y0000100000D03*
X0000105000Y0000095000D03*
X0000055000Y0000100000D03*
X0000060000Y0000100000D03*
X0000045000Y0000075000D03*
X0000105000Y0000085000D03*
X0000095000Y0000120000D03*
X0000140000Y0000250000D03*
X0000185000Y0000160000D03*
X0000150000Y0000075000D03*
X0000160000Y0000150000D03*
X0000155000Y0000150000D03*
X0000145000Y0000150000D03*
X0000140000Y0000150000D03*
X0000045000Y0000167500D03*
X0000115000Y0000090000D03*
X0000120000Y0000090000D03*
X0000130000Y0000150000D03*
X0000115000Y0000150000D03*
X0000180000Y0000055000D03*
X0000175000Y0000055000D03*
X0000175000Y0000060000D03*
X0000105000Y0000115000D03*
X0000185000Y0000287500D03*
X0000180000Y0000305000D03*
X0000085000Y0000255000D03*
X0000170000Y0000235100D03*
X0000075000Y0000240000D03*
X0000040000Y0000137500D03*
X0000075000Y0000225000D03*
X0000172000Y0000330000D03*
X0000135000Y0000220000D03*
X0000215000Y0000115000D03*
X0000187500Y0000328100D03*
X0000240000Y0000175000D03*
X0000060000Y0000225000D03*
X0000220000Y0000070000D03*
X0000195000Y0000317500D03*
X0000220000Y0000085000D03*
X0000060000Y0000235000D03*
X0000140000Y0000065000D03*
X0000075000Y0000215000D03*
X0000060000Y0000085000D03*
X0000185000Y0000317500D03*
X0000115000Y0000240000D03*
X0000165000Y0000152500D03*
X0000060000Y0000210000D03*
X0000090000Y0000235000D03*
X0000190000Y0000305000D03*
X0000040000Y0000097500D03*
X0000180000Y0000317500D03*
X0000060000Y0000220000D03*
X0000040000Y0000092500D03*
X0000179500Y0000330000D03*
X0000075000Y0000220000D03*
X0000090000Y0000260000D03*
X0000055000Y0000075000D03*
X0000085000Y0000240000D03*
X0000037500Y0000225000D03*
X0000220000Y0000095000D03*
X0000075000Y0000260000D03*
X0000220000Y0000080000D03*
X0000085000Y0000260000D03*
X0000220000Y0000065000D03*
X0000055000Y0000240000D03*
X0000037500Y0000194800D03*
X0000110000Y0000260000D03*
X0000220000Y0000100000D03*
X0000105000Y0000260000D03*
X0000080000Y0000260000D03*
X0000095000Y0000260000D03*
X0000100000Y0000260000D03*
X0000240000Y0000265000D03*
X0000150000Y0000195000D03*
X0000120000Y0000235000D03*
X0000065000Y0000100000D03*
X0000060000Y0000095000D03*
X0000070000Y0000070000D03*
X0000060000Y0000075000D03*
X0000240000Y0000270000D03*
X0000170000Y0000195000D03*
X0000170000Y0000200000D03*
X0000170000Y0000190000D03*
X0000110000Y0000200000D03*
X0000190000Y0000280000D03*
X0000075000Y0000070000D03*
X0000090000Y0000100000D03*
X0000090000Y0000095000D03*
X0000090000Y0000090000D03*
X0000075000Y0000100000D03*
X0000195000Y0000195000D03*
X0000200000Y0000280000D03*
X0000195000Y0000280000D03*
X0000080000Y0000215000D03*
X0000070000Y0000100000D03*
X0000250000Y0000345000D03*
X0000159500Y0000110000D03*
X0000150500Y0000105000D03*
X0000194500Y0000085000D03*
X0000154000Y0000105000D03*
X0000250000Y0000330000D03*
X0000156000Y0000110000D03*
X0000191000Y0000085000D03*
X0000085000Y0000180000D03*
X0000250000Y0000150000D03*
X0000120000Y0000175000D03*
X0000250000Y0000255000D03*
X0000120000Y0000195000D03*
X0000250000Y0000260000D03*
X0000115000Y0000235000D03*
X0000250000Y0000185000D03*
X0000190000Y0000345000D03*
X0000135000Y0000240000D03*
X0000135000Y0000215000D03*
X0000250000Y0000245000D03*
X0000120000Y0000180000D03*
X0000250000Y0000200000D03*
X0000245000Y0000345000D03*
X0000210000Y0000100000D03*
X0000210000Y0000125000D03*
X0000175000Y0000110000D03*
X0000175000Y0000115000D03*
X0000184000Y0000125000D03*
X0000190000Y0000125000D03*
X0000195000Y0000125000D03*
X0000200500Y0000125000D03*
X0000210000Y0000115000D03*
X0000210000Y0000110000D03*
X0000210000Y0000105000D03*
X0000200000Y0000090000D03*
X0000195000Y0000090000D03*
X0000200000Y0000085000D03*
X0000190000Y0000090000D03*
X0000184500Y0000090000D03*
X0000175000Y0000097500D03*
X0000174500Y0000105000D03*
X0000420000Y0000025000D03*
X0000400000Y0000025000D03*
X0000400000Y0000050000D03*
X0000490000Y0000050000D03*
X0000440000Y0000035000D03*
X0000440000Y0000030000D03*
X0000435000Y0000030000D03*
X0000435000Y0000035000D03*
X0000420000Y0000035000D03*
X0000420000Y0000030000D03*
X0000470000Y0000020000D03*
X0000455000Y0000025000D03*
X0000455000Y0000030000D03*
X0000455000Y0000035000D03*
X0000425000Y0000045000D03*
X0000430000Y0000045000D03*
X0000435000Y0000045000D03*
X0000435000Y0000040000D03*
X0000440000Y0000040000D03*
X0000440000Y0000045000D03*
X0000445000Y0000045000D03*
X0000450000Y0000045000D03*
X0000455000Y0000040000D03*
X0000455000Y0000045000D03*
X0000460000Y0000045000D03*
X0000260000Y0000045000D03*
X0000280000Y0000052500D03*
X0000320000Y0000040000D03*
X0000320000Y0000025000D03*
X0000310000Y0000010000D03*
X0000330000Y0000010000D03*
X0000355000Y0000010000D03*
X0000380000Y0000010000D03*
X0000405000Y0000010000D03*
X0000430000Y0000010000D03*
X0000455000Y0000010000D03*
X0000417500Y0000045000D03*
X0000485000Y0000042500D03*
X0000410000Y0000042500D03*
X0000390000Y0000015000D03*
X0000385000Y0000015000D03*
X0000380000Y0000015000D03*
X0000375000Y0000015000D03*
X0000370000Y0000015000D03*
X0000365000Y0000015000D03*
X0000360000Y0000015000D03*
X0000355000Y0000015000D03*
X0000350000Y0000015000D03*
X0000390000Y0000045000D03*
X0000465000Y0000020000D03*
X0000410000Y0000025000D03*
X0000480000Y0000035000D03*
X0000480000Y0000040000D03*
X0000280000Y0000030000D03*
X0000280000Y0000025000D03*
X0000290000Y0000020000D03*
X0000285000Y0000020000D03*
X0000280000Y0000020000D03*
X0000275000Y0000020000D03*
X0000275000Y0000025000D03*
X0000275000Y0000030000D03*
X0000410000Y0000037500D03*
X0000360000Y0000305000D03*
X0000362500Y0000330000D03*
X0000345000Y0000300000D03*
X0000275000Y0000165000D03*
X0000350000Y0000300000D03*
X0000355000Y0000345000D03*
X0000265000Y0000165000D03*
X0000255000Y0000303500D03*
X0000330000Y0000330000D03*
X0000367500Y0000330000D03*
X0000355000Y0000317500D03*
X0000353000Y0000330000D03*
X0000339500Y0000330000D03*
X0000365000Y0000305000D03*
X0000370000Y0000305000D03*
X0000365000Y0000345000D03*
X0000357500Y0000330000D03*
X0000325000Y0000275000D03*
X0000265000Y0000275000D03*
X0000260000Y0000275000D03*
X0000335000Y0000275000D03*
X0000340000Y0000275000D03*
X0000365000Y0000165000D03*
X0000360000Y0000165000D03*
X0000375000Y0000237000D03*
X0000355000Y0000170000D03*
X0000280000Y0000275000D03*
X0000275000Y0000275000D03*
X0000360000Y0000220000D03*
X0000350000Y0000165000D03*
X0000345000Y0000165000D03*
X0000475000Y0000055000D03*
X0000370000Y0000345000D03*
X0000370000Y0000317500D03*
X0000490000Y0000095000D03*
X0000490000Y0000090000D03*
X0000470000Y0000095000D03*
X0000470000Y0000090000D03*
X0000475000Y0000100000D03*
X0000480000Y0000100000D03*
X0000485000Y0000100000D03*
X0000470000Y0000100000D03*
X0000490000Y0000100000D03*
X0000490000Y0000150000D03*
X0000490000Y0000155000D03*
X0000490000Y0000160000D03*
X0000470000Y0000150000D03*
X0000470000Y0000155000D03*
X0000460000Y0000160000D03*
X0000465000Y0000160000D03*
X0000470000Y0000160000D03*
X0000485000Y0000160000D03*
X0000480000Y0000160000D03*
X0000475000Y0000160000D03*
X0000405000Y0000255000D03*
X0000400000Y0000255000D03*
X0000405000Y0000200000D03*
X0000400000Y0000200000D03*
X0000435000Y0000130000D03*
X0000430000Y0000130000D03*
X0000425000Y0000130000D03*
X0000435000Y0000160000D03*
X0000430000Y0000160000D03*
X0000425000Y0000160000D03*
X0000425000Y0000155000D03*
X0000425000Y0000150000D03*
X0000425000Y0000145000D03*
X0000425000Y0000140000D03*
X0000430000Y0000140000D03*
X0000435000Y0000140000D03*
X0000435000Y0000135000D03*
X0000430000Y0000135000D03*
X0000425000Y0000135000D03*
X0000375000Y0000233500D03*
X0000255000Y0000150000D03*
X0000350000Y0000295000D03*
X0000255000Y0000295000D03*
X0000280000Y0000295000D03*
X0000276000Y0000295000D03*
X0000270500Y0000295000D03*
X0000265000Y0000295000D03*
X0000260000Y0000295000D03*
X0000335000Y0000295000D03*
X0000340000Y0000295000D03*
X0000350000Y0000145000D03*
X0000345000Y0000145000D03*
X0000355000Y0000145000D03*
X0000425000Y0000105000D03*
X0000425000Y0000075000D03*
X0000425000Y0000100000D03*
X0000425000Y0000095000D03*
X0000425000Y0000090000D03*
X0000425000Y0000085000D03*
X0000425000Y0000080000D03*
X0000435000Y0000105000D03*
X0000430000Y0000105000D03*
X0000435000Y0000075000D03*
X0000430000Y0000075000D03*
X0000430000Y0000085000D03*
X0000435000Y0000085000D03*
X0000435000Y0000080000D03*
X0000430000Y0000080000D03*
X0000375000Y0000180000D03*
X0000380000Y0000220000D03*
X0000380000Y0000225000D03*
X0000280000Y0000115000D03*
X0000275000Y0000075000D03*
X0000275000Y0000080000D03*
X0000329000Y0000130000D03*
X0000330000Y0000140500D03*
X0000340000Y0000110000D03*
X0000340000Y0000120000D03*
X0000360000Y0000120000D03*
X0000321000Y0000172900D03*
X0000355000Y0000120000D03*
X0000350000Y0000120000D03*
X0000345000Y0000120000D03*
X0000345000Y0000105000D03*
X0000345000Y0000100000D03*
X0000345000Y0000110000D03*
X0000345000Y0000115000D03*
X0000350000Y0000115000D03*
X0000255000Y0000120000D03*
X0000260000Y0000130000D03*
X0000260000Y0000125000D03*
X0000260000Y0000120000D03*
X0000295000Y0000130000D03*
X0000295000Y0000135000D03*
X0000295000Y0000125000D03*
X0000295000Y0000140000D03*
X0000360000Y0000250000D03*
X0000319000Y0000115000D03*
X0000302500Y0000115000D03*
X0000255000Y0000180000D03*
X0000360000Y0000190000D03*
X0000360000Y0000255000D03*
X0000370000Y0000265000D03*
X0000375000Y0000265000D03*
X0000365000Y0000265000D03*
X0000370000Y0000145000D03*
X0000360000Y0000145000D03*
X0000365000Y0000145000D03*
X0000380000Y0000140000D03*
X0000385000Y0000140000D03*
X0000360000Y0000245000D03*
X0000330000Y0000295000D03*
X0000380000Y0000200000D03*
X0000380000Y0000195000D03*
X0000380000Y0000190000D03*
X0000270000Y0000150000D03*
X0000380000Y0000215000D03*
X0000375000Y0000203500D03*
X0000375000Y0000207000D03*
X0000300000Y0000330000D03*
X0000275000Y0000090000D03*
X0000290000Y0000310000D03*
X0000410000Y0000240000D03*
X0000334000Y0000120500D03*
X0000329500Y0000124500D03*
X0000329500Y0000118500D03*
X0000443500Y0000263500D03*
X0000386500Y0000255500D03*
X0000275000Y0000065000D03*
X0000282500Y0000075000D03*
X0000280000Y0000065000D03*
X0000340000Y0000087500D03*
X0000342500Y0000065000D03*
X0000325000Y0000087500D03*
X0000302500Y0000087500D03*
X0000320000Y0000070000D03*
X0000295000Y0000067500D03*
X0000297500Y0000055000D03*
X0000315000Y0000055000D03*
X0000330000Y0000055000D03*
X0000380000Y0000135000D03*
X0000392500Y0000122500D03*
X0000410000Y0000125000D03*
X0000405000Y0000110000D03*
X0000405000Y0000122500D03*
X0000412500Y0000065000D03*
X0000397500Y0000060000D03*
X0000402500Y0000067500D03*
X0000415000Y0000070000D03*
X0000450000Y0000055000D03*
X0000442500Y0000055000D03*
X0000450000Y0000062500D03*
X0000442500Y0000062500D03*
X0000455000Y0000075000D03*
X0000460000Y0000080000D03*
X0000447500Y0000080000D03*
X0000447500Y0000110000D03*
X0000395000Y0000165000D03*
X0000425000Y0000165000D03*
X0000410000Y0000165000D03*
X0000395000Y0000172500D03*
X0000435000Y0000175000D03*
X0000482500Y0000190000D03*
X0000480000Y0000165000D03*
X0000462500Y0000165000D03*
X0000445000Y0000165000D03*
X0000437500Y0000165000D03*
X0000462500Y0000175000D03*
X0000445000Y0000175000D03*
X0000460000Y0000127500D03*
X0000445000Y0000127500D03*
X0000460000Y0000140000D03*
X0000445000Y0000140000D03*
X0000490000Y0000110000D03*
X0000475000Y0000110000D03*
X0000475000Y0000122500D03*
X0000490000Y0000122500D03*
X0000500000Y0000055000D03*
X0000500000Y0000067500D03*
X0000500000Y0000085000D03*
X0000500000Y0000110000D03*
X0000500000Y0000135000D03*
X0000500000Y0000160000D03*
X0000490000Y0000177500D03*
X0000500000Y0000192500D03*
X0000490000Y0000210000D03*
X0000500000Y0000225000D03*
X0000490000Y0000240000D03*
X0000500000Y0000255000D03*
X0000460000Y0000300000D03*
X0000382500Y0000320000D03*
X0000385000Y0000310000D03*
X0000400000Y0000310000D03*
X0000415000Y0000310000D03*
X0000415000Y0000297500D03*
X0000385000Y0000290000D03*
X0000405000Y0000290000D03*
X0000490000Y0000272500D03*
X0000500000Y0000275000D03*
X0000497500Y0000295000D03*
X0000457500Y0000332500D03*
X0000457500Y0000317500D03*
X0000467500Y0000290000D03*
X0000487500Y0000290000D03*
X0000477500Y0000300000D03*
X0000467500Y0000310000D03*
X0000487500Y0000310000D03*
X0000430000Y0000290000D03*
X0000450000Y0000290000D03*
X0000440000Y0000300000D03*
X0000440000Y0000337500D03*
X0000460000Y0000337500D03*
X0000400000Y0000337500D03*
X0000420000Y0000337500D03*
X0000390000Y0000345000D03*
X0000410000Y0000345000D03*
X0000430000Y0000345000D03*
X0000450000Y0000345000D03*
X0000450000Y0000325000D03*
X0000430000Y0000325000D03*
X0000440000Y0000315000D03*
X0000450000Y0000305000D03*
X0000430000Y0000305000D03*
X0000315000Y0000345000D03*
X0000378500Y0000240000D03*
X0000282500Y0000288500D03*
X0000356000Y0000348500D03*
X0000366500Y0000348000D03*
X0000351000Y0000346500D03*
X0000364100Y0000333000D03*
X0000346100Y0000328100D03*
X0000345085Y0000296451D03*
X0000260400Y0000333300D03*
X0000266400Y0000333300D03*
X0000266400Y0000327300D03*
X0000260400Y0000327300D03*
X0000298000Y0000151500D03*
X0000298000Y0000145500D03*
X0000304000Y0000151500D03*
X0000304000Y0000145500D03*
X0000310000Y0000145500D03*
X0000310000Y0000151500D03*
X0000316000Y0000151500D03*
X0000316000Y0000145500D03*
X0000322000Y0000145500D03*
X0000322000Y0000151500D03*
X0000328000Y0000151500D03*
X0000334000Y0000151500D03*
X0000334000Y0000145500D03*
X0000328000Y0000145500D03*
X0000259500Y0000306500D03*
X0000265500Y0000306500D03*
X0000265500Y0000300500D03*
X0000259500Y0000300500D03*
X0000280500Y0000349500D03*
X0000286500Y0000349500D03*
X0000286500Y0000343500D03*
X0000280500Y0000343500D03*
X0000270500Y0000349500D03*
X0000276500Y0000349500D03*
X0000276500Y0000343500D03*
X0000270500Y0000343500D03*
X0000270500Y0000306500D03*
X0000276500Y0000306500D03*
X0000276500Y0000300500D03*
X0000270500Y0000300500D03*
X0000280500Y0000306500D03*
X0000286500Y0000306500D03*
X0000286500Y0000300500D03*
X0000280500Y0000300500D03*
X0000289500Y0000294500D03*
X0000295500Y0000294500D03*
X0000295500Y0000288500D03*
X0000289500Y0000288500D03*
X0000299500Y0000294500D03*
X0000305500Y0000294500D03*
X0000305500Y0000288500D03*
X0000299500Y0000288500D03*
X0000311000Y0000294500D03*
X0000317000Y0000294500D03*
X0000317000Y0000288500D03*
X0000311000Y0000288500D03*
X0000385500Y0000297500D03*
X0000391500Y0000297500D03*
X0000391500Y0000303500D03*
X0000385500Y0000303500D03*
X0000397500Y0000297500D03*
X0000397500Y0000303500D03*
X0000403500Y0000297500D03*
X0000403500Y0000303500D03*
X0000317500Y0000317500D03*
X0000260000Y0000135000D03*
X0000260000Y0000140000D03*
X0000255000Y0000140000D03*
X0000321000Y0000167500D03*
X0000315000Y0000270000D03*
X0000330000Y0000275000D03*
X0000255000Y0000275000D03*
X0000255000Y0000195000D03*
X0000260000Y0000095000D03*
X0000255000Y0000110000D03*
X0000266500Y0000086500D03*
X0000490000Y0000065000D03*
X0000490000Y0000055000D03*
X0000395000Y0000160000D03*
X0000395000Y0000155000D03*
X0000395000Y0000150000D03*
X0000395000Y0000145000D03*
X0000395000Y0000140000D03*
X0000395000Y0000135000D03*
X0000395000Y0000130000D03*
X0000420000Y0000060000D03*
X0000490000Y0000080000D03*
X0000490000Y0000075000D03*
X0000490000Y0000070000D03*
X0000485000Y0000070000D03*
X0000480000Y0000070000D03*
X0000475000Y0000070000D03*
X0000470000Y0000070000D03*
X0000470000Y0000075000D03*
X0000470000Y0000080000D03*
X0000395000Y0000075000D03*
X0000395000Y0000080000D03*
X0000395000Y0000085000D03*
X0000395000Y0000090000D03*
X0000395000Y0000095000D03*
X0000395000Y0000100000D03*
X0000395000Y0000105000D03*
X0000420000Y0000120000D03*
X0000470000Y0000140000D03*
X0000470000Y0000135000D03*
X0000470000Y0000130000D03*
X0000475000Y0000130000D03*
X0000480000Y0000130000D03*
X0000485000Y0000130000D03*
X0000490000Y0000130000D03*
X0000490000Y0000135000D03*
X0000492400Y0000140000D03*
X0000360000Y0000260000D03*
X0000375000Y0000245000D03*
X0000370000Y0000290000D03*
X0000375000Y0000290000D03*
X0000365000Y0000290000D03*
X0000270000Y0000125000D03*
X0000270000Y0000140000D03*
X0000270000Y0000130000D03*
X0000270000Y0000135000D03*
X0000371000Y0000130000D03*
X0000371000Y0000135000D03*
X0000371000Y0000125000D03*
X0000371000Y0000140000D03*
X0000270000Y0000275000D03*
X0000370000Y0000165000D03*
X0000355000Y0000165000D03*
X0000345000Y0000275000D03*
X0000350000Y0000290000D03*
X0000350000Y0000285000D03*
X0000350000Y0000280000D03*
X0000380000Y0000165000D03*
X0000385000Y0000165000D03*
X0000375000Y0000165000D03*
X0000375000Y0000250000D03*
X0000310000Y0000170000D03*
X0000360000Y0000195000D03*
X0000375000Y0000175000D03*
X0000295000Y0000150000D03*
X0000375000Y0000185000D03*
X0000360000Y0000200000D03*
X0000284573Y0000165000D03*
X0000375000Y0000170000D03*
X0000380000Y0000210000D03*
X0000265000Y0000150000D03*
X0000360000Y0000225000D03*
X0000410000Y0000250000D03*
X0000405000Y0000280000D03*
X0000400000Y0000280000D03*
X0000405000Y0000175000D03*
X0000400000Y0000175000D03*
X0000305000Y0000345000D03*
X0000307500Y0000317500D03*
X0000287500Y0000317500D03*
X0000277500Y0000317500D03*
X0000267500Y0000317500D03*
X0000257500Y0000317500D03*
X0000327500Y0000317500D03*
X0000377500Y0000325000D03*
X0000302500Y0000325000D03*
X0000292500Y0000325000D03*
X0000390000Y0000065000D03*
X0000390000Y0000070000D03*
X0000390000Y0000090000D03*
X0000390000Y0000095000D03*
X0000390000Y0000115000D03*
X0000287500Y0000332500D03*
X0000277500Y0000332500D03*
X0000325000Y0000295000D03*
X0000257500Y0000345000D03*
X0000265000Y0000345000D03*
X0000255000Y0000105000D03*
X0000490000Y0000060000D03*
X0000270000Y0000165000D03*
X0000325000Y0000345000D03*
X0000310000Y0000345000D03*
X0000350000Y0000317500D03*
X0000345000Y0000317500D03*
X0000340000Y0000305000D03*
X0000350000Y0000305000D03*
X0000315000Y0000330000D03*
X0000340000Y0000317500D03*
X0000345000Y0000305000D03*
X0000340000Y0000345000D03*
X0000335000Y0000330000D03*
X0000335000Y0000345000D03*
X0000310100Y0000330000D03*
X0000255000Y0000330000D03*
X0000345000Y0000345000D03*
X0000320000Y0000345000D03*
X0000338000Y0000145000D03*
X0000325000Y0000330000D03*
X0000278000Y0000145000D03*
X0000320000Y0000330000D03*
X0000330000Y0000305000D03*
X0000330000Y0000345000D03*
X0000291500Y0000145000D03*
X0000335000Y0000317500D03*
X0000281500Y0000145000D03*
X0000341500Y0000145000D03*
X0000335000Y0000305000D03*
X0000288000Y0000145000D03*
X0000255000Y0000200000D03*
X0000334000Y0000271000D03*
X0000343500Y0000330000D03*
X0000360000Y0000345000D03*
X0000348655Y0000330155D03*
G54D36*
G01X0000324030Y-0000025000D02*
X0000320905Y-0000015000D01*
X0000317780Y-0000025000D01*
G01X0000318905Y-0000021500D02*
X0000322905Y-0000021500D01*
G01X0000313405Y-0000025000D02*
X0000313405Y-0000015000D01*
X0000310280Y-0000015000D01*
X0000309280Y-0000015500D01*
X0000308655Y-0000016167D01*
X0000308405Y-0000017500D01*
X0000308655Y-0000018833D01*
X0000309405Y-0000019667D01*
X0000310280Y-0000020167D01*
X0000313405Y-0000020167D01*
G01X0000310280Y-0000020167D02*
X0000308405Y-0000025000D01*
G01X0000300905Y-0000015000D02*
X0000300905Y-0000025000D01*
G01X0000303780Y-0000015000D02*
X0000298030Y-0000015000D01*
G01X0000294655Y-0000015000D02*
X0000292905Y-0000025000D01*
X0000290905Y-0000015000D01*
X0000288905Y-0000025000D01*
X0000287155Y-0000015000D01*
G01X0000280905Y-0000025000D02*
X0000281905Y-0000024833D01*
X0000282780Y-0000024167D01*
X0000283530Y-0000023167D01*
X0000284030Y-0000022000D01*
X0000284280Y-0000020667D01*
X0000284280Y-0000019333D01*
X0000284030Y-0000018000D01*
X0000283530Y-0000016833D01*
X0000282780Y-0000015833D01*
X0000281905Y-0000015167D01*
X0000280905Y-0000015000D01*
X0000279905Y-0000015167D01*
X0000279030Y-0000015833D01*
X0000278280Y-0000016833D01*
X0000277780Y-0000018000D01*
X0000277530Y-0000019333D01*
X0000277530Y-0000020667D01*
X0000277780Y-0000022000D01*
X0000278280Y-0000023167D01*
X0000279030Y-0000024167D01*
X0000279905Y-0000024833D01*
X0000280905Y-0000025000D01*
G01X0000273405Y-0000025000D02*
X0000273405Y-0000015000D01*
X0000270280Y-0000015000D01*
X0000269280Y-0000015500D01*
X0000268655Y-0000016167D01*
X0000268405Y-0000017500D01*
X0000268655Y-0000018833D01*
X0000269405Y-0000019667D01*
X0000270280Y-0000020167D01*
X0000273405Y-0000020167D01*
G01X0000270280Y-0000020167D02*
X0000268405Y-0000025000D01*
G01X0000263655Y-0000025000D02*
X0000263655Y-0000015000D01*
G01X0000258905Y-0000015000D02*
X0000263655Y-0000021167D01*
G01X0000258155Y-0000025000D02*
X0000261530Y-0000018334D01*
G01X0000239905Y-0000019667D02*
X0000239405Y-0000019167D01*
X0000239030Y-0000018334D01*
X0000238780Y-0000017167D01*
X0000239030Y-0000016167D01*
X0000239530Y-0000015500D01*
X0000240405Y-0000015000D01*
X0000243780Y-0000015000D01*
X0000243780Y-0000025000D01*
X0000239655Y-0000025000D01*
X0000238780Y-0000024333D01*
X0000238280Y-0000023333D01*
X0000238030Y-0000022167D01*
X0000238280Y-0000021000D01*
X0000239030Y-0000020000D01*
X0000239905Y-0000019667D01*
X0000243780Y-0000019667D01*
G01X0000230905Y-0000025000D02*
X0000231905Y-0000024833D01*
X0000232780Y-0000024167D01*
X0000233530Y-0000023167D01*
X0000234030Y-0000022000D01*
X0000234280Y-0000020667D01*
X0000234280Y-0000019333D01*
X0000234030Y-0000018000D01*
X0000233530Y-0000016833D01*
X0000232780Y-0000015833D01*
X0000231905Y-0000015167D01*
X0000230905Y-0000015000D01*
X0000229905Y-0000015167D01*
X0000229030Y-0000015833D01*
X0000228280Y-0000016833D01*
X0000227780Y-0000018000D01*
X0000227530Y-0000019333D01*
X0000227530Y-0000020667D01*
X0000227780Y-0000022000D01*
X0000228280Y-0000023167D01*
X0000229030Y-0000024167D01*
X0000229905Y-0000024833D01*
X0000230905Y-0000025000D01*
G01X0000220905Y-0000015000D02*
X0000220905Y-0000025000D01*
G01X0000223780Y-0000015000D02*
X0000218030Y-0000015000D01*
G01X0000210905Y-0000015000D02*
X0000210905Y-0000025000D01*
G01X0000213780Y-0000015000D02*
X0000208030Y-0000015000D01*
G01X0000200905Y-0000025000D02*
X0000201905Y-0000024833D01*
X0000202780Y-0000024167D01*
X0000203530Y-0000023167D01*
X0000204030Y-0000022000D01*
X0000204280Y-0000020667D01*
X0000204280Y-0000019333D01*
X0000204030Y-0000018000D01*
X0000203530Y-0000016833D01*
X0000202780Y-0000015833D01*
X0000201905Y-0000015167D01*
X0000200905Y-0000015000D01*
X0000199905Y-0000015167D01*
X0000199030Y-0000015833D01*
X0000198280Y-0000016833D01*
X0000197780Y-0000018000D01*
X0000197530Y-0000019333D01*
X0000197530Y-0000020667D01*
X0000197780Y-0000022000D01*
X0000198280Y-0000023167D01*
X0000199030Y-0000024167D01*
X0000199905Y-0000024833D01*
X0000200905Y-0000025000D01*
G01X0000194155Y-0000025000D02*
X0000194155Y-0000015000D01*
X0000190905Y-0000023333D01*
X0000187655Y-0000015000D01*
X0000187655Y-0000025000D01*
G01X0Y0D02*
X0000511811Y0D01*
X0000511811Y0000354331D01*
X0Y0000354331D01*
X0Y0D01*
G01X0000120000Y0000055827D02*
X0000120000Y0000050000D01*
G01X0000115000Y0000055827D02*
X0000115000Y0000050000D01*
G01X0000225000Y0000049173D02*
X0000220827Y0000049173D01*
X0000220000Y0000050000D01*
G01X0000246673Y0000190000D02*
X0000250000Y0000190000D01*
G01X0000243327Y0000180000D02*
X0000240000Y0000180000D01*
G01X0000271929Y0000193228D02*
X0000270330Y0000191629D01*
X0000268136Y0000191629D01*
X0000267180Y0000190673D01*
X0000267180Y0000189436D01*
X0000266273Y0000188529D01*
X0000251471Y0000188529D01*
X0000250000Y0000190000D01*
G01X0000198155Y0000311750D02*
X0000198155Y0000306845D01*
X0000200000Y0000305000D01*
G01X0000246673Y0000195000D02*
X0000250000Y0000195000D01*
G01X0000268779Y0000193228D02*
X0000267823Y0000193228D01*
X0000266273Y0000191678D01*
X0000266178Y0000191678D01*
X0000266129Y0000191629D01*
X0000264500Y0000191629D01*
X0000262629Y0000193500D01*
X0000260000Y0000193500D01*
X0000256600Y0000196900D01*
X0000251900Y0000196900D01*
X0000250000Y0000195000D01*
G01X0000246673Y0000210000D02*
X0000250000Y0000210000D01*
G01X0000243327Y0000165000D02*
X0000240000Y0000165000D01*
G01X0000250000Y0000210000D02*
X0000250000Y0000208000D01*
X0000261622Y0000196378D01*
X0000268779Y0000196378D01*
G01X0000246673Y0000240000D02*
X0000250000Y0000240000D01*
G01X0000246673Y0000235000D02*
X0000250000Y0000235000D01*
G01X0000192500Y0000330000D02*
X0000188155Y0000334345D01*
X0000188155Y0000338250D01*
G01X0000246673Y0000270000D02*
X0000250000Y0000270000D01*
G01X0000250000Y0000250000D02*
X0000254000Y0000246000D01*
X0000254000Y0000230400D01*
X0000259000Y0000225400D01*
X0000259000Y0000213413D01*
X0000261887Y0000210526D01*
X0000267229Y0000210526D01*
X0000268779Y0000208976D01*
G01X0000246673Y0000250000D02*
X0000250000Y0000250000D01*
G01X0000271929Y0000196378D02*
X0000270330Y0000197977D01*
X0000261837Y0000197977D01*
X0000259500Y0000200314D01*
X0000259500Y0000200944D01*
X0000251900Y0000208544D01*
X0000251900Y0000213100D01*
X0000250000Y0000215000D01*
G01X0000246673Y0000215000D02*
X0000250000Y0000215000D01*
G01X0000246673Y0000230000D02*
X0000250000Y0000230000D01*
G01X0000268779Y0000205827D02*
X0000261315Y0000205827D01*
X0000256000Y0000211142D01*
X0000256000Y0000224000D01*
X0000250000Y0000230000D01*
G01X0000268779Y0000199527D02*
X0000267229Y0000201077D01*
X0000261923Y0000201077D01*
X0000261873Y0000201127D01*
X0000261837Y0000201127D01*
X0000253300Y0000209664D01*
X0000253300Y0000216700D01*
X0000250000Y0000220000D01*
G01X0000252155Y0000311750D02*
X0000252155Y0000315345D01*
X0000250000Y0000317500D01*
G01X0000246673Y0000220000D02*
X0000250000Y0000220000D01*
G01X0000188155Y0000311750D02*
X0000188155Y0000315655D01*
X0000190000Y0000317500D01*
G01X0000134508Y0000095000D02*
X0000134508Y0000096508D01*
X0000137000Y0000099000D01*
X0000137000Y0000101000D01*
X0000134508Y0000103492D01*
X0000134508Y0000105000D01*
G01X0000134508Y0000095000D02*
X0000134508Y0000090492D01*
X0000135000Y0000090000D01*
G01X0000140492Y0000095000D02*
X0000140492Y0000095600D01*
X0000144892Y0000100000D01*
X0000145000Y0000100000D01*
G01X0000271929Y0000199527D02*
X0000270329Y0000201127D01*
X0000270329Y0000203320D01*
X0000269372Y0000204277D01*
X0000261167Y0000204277D01*
X0000254500Y0000210944D01*
X0000254500Y0000220500D01*
X0000250000Y0000225000D01*
G01X0000246673Y0000225000D02*
X0000250000Y0000225000D01*
G01X0000268779Y0000186929D02*
X0000268779Y0000186187D01*
X0000266092Y0000183500D01*
X0000252000Y0000183500D01*
X0000248500Y0000180000D01*
X0000246673Y0000180000D01*
G01X0000246673Y0000175000D02*
X0000246673Y0000180000D01*
G01X0000195655Y0000311750D02*
X0000195655Y0000305655D01*
X0000195000Y0000305000D01*
G01X0000196500Y0000330000D02*
X0000196000Y0000330000D01*
X0000190655Y0000335345D01*
X0000190655Y0000338250D01*
G01X0000246673Y0000165000D02*
X0000246673Y0000170000D01*
G01X0000271929Y0000190079D02*
X0000270329Y0000188479D01*
X0000270329Y0000185829D01*
X0000266729Y0000182229D01*
X0000254229Y0000182229D01*
X0000251000Y0000179000D01*
X0000251000Y0000174327D01*
X0000246673Y0000170000D01*
G01X0000183155Y0000311750D02*
X0000183155Y0000306845D01*
X0000185000Y0000305000D01*
G01X0000036673Y0000147500D02*
X0000039173Y0000150000D01*
X0000045000Y0000150000D01*
G01X0000175655Y0000311750D02*
X0000175655Y0000305655D01*
X0000175000Y0000305000D01*
G01X0000051673Y0000080000D02*
X0000055000Y0000080000D01*
G01X0000100000Y0000184508D02*
X0000100000Y0000180000D01*
G01X0000095000Y0000184508D02*
X0000100000Y0000184508D01*
G01X0000093327Y0000075000D02*
X0000090000Y0000075000D01*
G01X0000093327Y0000080000D02*
X0000093327Y0000075000D01*
G01X0000051673Y0000090000D02*
X0000055000Y0000090000D01*
G01X0000051673Y0000095000D02*
X0000055000Y0000095000D01*
G01X0000278228Y0000186929D02*
X0000276629Y0000185330D01*
X0000276629Y0000183136D01*
X0000275673Y0000182180D01*
X0000274436Y0000182180D01*
X0000273529Y0000181273D01*
X0000273529Y0000180029D01*
X0000272530Y0000179030D01*
X0000271286Y0000179030D01*
X0000270379Y0000178123D01*
X0000270379Y0000174379D01*
X0000263000Y0000167000D01*
X0000255327Y0000167000D01*
X0000247500Y0000159173D01*
G01X0000051673Y0000085000D02*
X0000055000Y0000085000D01*
G01X0000093327Y0000085000D02*
X0000093327Y0000090000D01*
G01X0000090000Y0000080000D02*
X0000090000Y0000083000D01*
X0000092000Y0000085000D01*
X0000093327Y0000085000D01*
G01X0000190000Y0000169173D02*
X0000190000Y0000175000D01*
G01X0000129173Y0000230000D02*
X0000135000Y0000230000D01*
G01X0000176000Y0000330000D02*
X0000178155Y0000332155D01*
X0000178155Y0000338250D01*
G01X0000100000Y0000200000D02*
X0000098000Y0000198000D01*
X0000098000Y0000195312D01*
X0000095000Y0000192312D01*
X0000095000Y0000190492D01*
G01X0000242500Y0000159173D02*
X0000245327Y0000162000D01*
X0000248000Y0000162000D01*
X0000255000Y0000169000D01*
X0000262500Y0000169000D01*
X0000267229Y0000173729D01*
X0000267229Y0000178123D01*
X0000269736Y0000180630D01*
X0000271929Y0000180630D01*
G01X0000183155Y0000338250D02*
X0000183155Y0000330345D01*
X0000183500Y0000330000D01*
G01X0000130492Y0000225000D02*
X0000135000Y0000225000D01*
G01X0000244655Y0000338250D02*
X0000244655Y0000330345D01*
X0000245000Y0000330000D01*
G01X0000150000Y0000205000D02*
X0000152500Y0000207500D01*
X0000177500Y0000207500D01*
X0000190000Y0000220000D01*
G01X0000195000Y0000220000D02*
X0000178000Y0000203000D01*
X0000153000Y0000203000D01*
X0000150000Y0000200000D01*
G01X0000249655Y0000311750D02*
X0000249655Y0000305345D01*
X0000250000Y0000305000D01*
G01X0000180655Y0000311750D02*
X0000180655Y0000305655D01*
X0000180000Y0000305000D01*
G01X0000175655Y0000338250D02*
X0000175655Y0000333655D01*
X0000172000Y0000330000D01*
G01X0000130492Y0000220000D02*
X0000135000Y0000220000D01*
G01X0000243327Y0000175000D02*
X0000240000Y0000175000D01*
G01X0000243327Y0000170000D02*
X0000243327Y0000175000D01*
G01X0000187500Y0000328100D02*
X0000187500Y0000330500D01*
X0000185655Y0000332345D01*
X0000185655Y0000338250D01*
G01X0000064508Y0000225000D02*
X0000060000Y0000225000D01*
G01X0000193155Y0000311750D02*
X0000193155Y0000315655D01*
X0000195000Y0000317500D01*
G01X0000064508Y0000235000D02*
X0000060000Y0000235000D01*
G01X0000185655Y0000311750D02*
X0000185655Y0000316845D01*
X0000185000Y0000317500D01*
G01X0000165000Y0000152500D02*
X0000181000Y0000152500D01*
X0000190000Y0000161500D01*
X0000190000Y0000165827D01*
G01X0000190655Y0000311750D02*
X0000190655Y0000305655D01*
X0000190000Y0000305000D01*
G01X0000178155Y0000311750D02*
X0000178155Y0000315655D01*
X0000180000Y0000317500D01*
G01X0000180655Y0000338250D02*
X0000180655Y0000331155D01*
X0000179500Y0000330000D01*
G01X0000090000Y0000263327D02*
X0000090000Y0000260000D01*
G01X0000051673Y0000075000D02*
X0000055000Y0000075000D01*
G01X0000032500Y0000225492D02*
X0000037008Y0000225492D01*
X0000037500Y0000225000D01*
G01X0000025000Y0000224173D02*
X0000027500Y0000224173D01*
X0000028819Y0000225492D01*
X0000032500Y0000225492D01*
G01X0000225000Y0000094173D02*
X0000220827Y0000094173D01*
X0000220000Y0000095000D01*
G01X0000075000Y0000263327D02*
X0000075000Y0000260000D01*
G01X0000225000Y0000079173D02*
X0000220827Y0000079173D01*
X0000220000Y0000080000D01*
G01X0000085000Y0000263327D02*
X0000085000Y0000260000D01*
G01X0000225000Y0000064173D02*
X0000220827Y0000064173D01*
X0000220000Y0000065000D01*
G01X0000025000Y0000194173D02*
X0000027500Y0000194173D01*
X0000028819Y0000195492D01*
X0000032500Y0000195492D01*
G01X0000032500Y0000195492D02*
X0000036808Y0000195492D01*
X0000037500Y0000194800D01*
G01X0000110000Y0000263327D02*
X0000110000Y0000260000D01*
G01X0000105000Y0000263327D02*
X0000105000Y0000260000D01*
G01X0000080000Y0000263327D02*
X0000080000Y0000260000D01*
G01X0000095000Y0000263327D02*
X0000095000Y0000260000D01*
G01X0000100000Y0000263327D02*
X0000100000Y0000260000D01*
G01X0000243327Y0000265000D02*
X0000240000Y0000265000D01*
G01X0000246673Y0000265000D02*
X0000249500Y0000265000D01*
X0000259500Y0000255000D01*
X0000259500Y0000248600D01*
X0000260600Y0000247500D01*
X0000264500Y0000247500D01*
X0000266828Y0000245172D01*
X0000270379Y0000245172D01*
X0000271929Y0000243622D01*
G01X0000145000Y0000197008D02*
X0000147992Y0000197008D01*
X0000150000Y0000195000D01*
G01X0000243327Y0000270000D02*
X0000240000Y0000270000D01*
G01X0000173327Y0000195000D02*
X0000170000Y0000195000D01*
G01X0000173327Y0000200000D02*
X0000170000Y0000200000D01*
G01X0000173327Y0000190000D02*
X0000170000Y0000190000D01*
G01X0000190000Y0000283327D02*
X0000190000Y0000280000D01*
G01X0000197500Y0000189469D02*
X0000197500Y0000192500D01*
X0000195000Y0000195000D01*
G01X0000200000Y0000283327D02*
X0000200000Y0000280000D01*
G01X0000195000Y0000283327D02*
X0000195000Y0000280000D01*
G01X0000070827Y0000105000D02*
X0000070827Y0000100827D01*
X0000070000Y0000100000D01*
G01X0000252155Y0000338250D02*
X0000252155Y0000342845D01*
X0000250000Y0000345000D01*
G01X0000249655Y0000338250D02*
X0000249655Y0000330345D01*
X0000250000Y0000330000D01*
G01X0000246673Y0000205000D02*
X0000250000Y0000205000D01*
X0000255000Y0000200000D01*
G01X0000252500Y0000155827D02*
X0000252500Y0000152500D01*
X0000250000Y0000150000D01*
G01X0000247500Y0000155827D02*
X0000247500Y0000147500D01*
X0000245000Y0000145000D01*
G01X0000250000Y0000255000D02*
X0000255500Y0000249500D01*
X0000255500Y0000231000D01*
X0000260406Y0000226094D01*
X0000260406Y0000215235D01*
X0000260930Y0000214711D01*
X0000260930Y0000214632D01*
X0000261837Y0000213725D01*
X0000267180Y0000213725D01*
X0000268779Y0000212126D01*
G01X0000246673Y0000255000D02*
X0000250000Y0000255000D01*
G01X0000250000Y0000260000D02*
X0000257000Y0000253000D01*
X0000257000Y0000236000D01*
X0000260426Y0000232574D01*
X0000266273Y0000232574D01*
X0000267180Y0000231667D01*
X0000267180Y0000230430D01*
X0000268136Y0000229474D01*
X0000269372Y0000229474D01*
X0000270379Y0000228467D01*
X0000270379Y0000213676D01*
X0000271929Y0000212126D01*
G01X0000246673Y0000260000D02*
X0000250000Y0000260000D01*
G01X0000250000Y0000185000D02*
X0000250379Y0000185379D01*
X0000266273Y0000185379D01*
X0000267180Y0000186286D01*
X0000267180Y0000187523D01*
X0000268779Y0000189122D01*
X0000268779Y0000190079D01*
G01X0000246673Y0000185000D02*
X0000250000Y0000185000D01*
G01X0000193155Y0000338250D02*
X0000193155Y0000341845D01*
X0000190000Y0000345000D01*
G01X0000271929Y0000208976D02*
X0000270379Y0000207426D01*
X0000261574Y0000207426D01*
X0000257500Y0000211500D01*
X0000257500Y0000225000D01*
X0000252500Y0000230000D01*
X0000252500Y0000242500D01*
X0000250000Y0000245000D01*
G01X0000246673Y0000245000D02*
X0000250000Y0000245000D01*
G01X0000246673Y0000200000D02*
X0000250000Y0000200000D01*
G01X0000250000Y0000200000D02*
X0000251900Y0000198100D01*
X0000257098Y0000198100D01*
X0000260198Y0000195000D01*
X0000263858Y0000195000D01*
X0000265630Y0000193228D01*
G01X0000247155Y0000338250D02*
X0000247155Y0000342845D01*
X0000245000Y0000345000D01*
G01X0000033327Y0000147500D02*
X0000015000Y0000147500D01*
X0000010000Y0000152500D01*
G01X0000361155Y0000311750D02*
X0000361155Y0000306155D01*
X0000360000Y0000305000D01*
G01X0000362500Y0000330000D02*
X0000361500Y0000330000D01*
X0000356155Y0000335345D01*
X0000356155Y0000338250D01*
G01X0000322323Y0000256221D02*
X0000323923Y0000254621D01*
X0000323923Y0000249096D01*
X0000321500Y0000246673D01*
G01X0000356155Y0000311750D02*
X0000356155Y0000307655D01*
X0000351000Y0000302500D01*
X0000347500Y0000302500D01*
X0000345000Y0000300000D01*
G01X0000272500Y0000159173D02*
X0000267500Y0000159173D01*
G01X0000272500Y0000159173D02*
X0000272500Y0000161400D01*
X0000272500Y0000162500D01*
X0000275000Y0000165000D01*
G01X0000322323Y0000259370D02*
X0000323922Y0000257771D01*
X0000326116Y0000257771D01*
X0000327023Y0000256864D01*
X0000327023Y0000247696D01*
X0000326000Y0000246673D01*
G01X0000350000Y0000300000D02*
X0000351895Y0000300000D01*
X0000358655Y0000306760D01*
X0000358655Y0000311750D01*
G01X0000358655Y0000338250D02*
X0000358655Y0000341345D01*
X0000355000Y0000345000D01*
G01X0000265000Y0000165000D02*
X0000273529Y0000173529D01*
X0000273529Y0000178123D01*
X0000274436Y0000179030D01*
X0000275601Y0000179030D01*
X0000275651Y0000179080D01*
X0000275722Y0000179080D01*
X0000276629Y0000179987D01*
X0000276629Y0000181438D01*
X0000278228Y0000183037D01*
X0000278228Y0000183779D01*
G01X0000252500Y0000159173D02*
X0000252500Y0000160778D01*
X0000256722Y0000165000D01*
X0000265000Y0000165000D01*
G01X0000255000Y0000303500D02*
X0000254655Y0000303845D01*
X0000254655Y0000311750D01*
G01X0000331155Y0000338250D02*
X0000331155Y0000331155D01*
X0000330000Y0000330000D01*
G01X0000366155Y0000338250D02*
X0000366155Y0000331345D01*
X0000367500Y0000330000D01*
G01X0000353655Y0000311750D02*
X0000353655Y0000316155D01*
X0000355000Y0000317500D01*
G01X0000353000Y0000330000D02*
X0000351155Y0000331845D01*
X0000351155Y0000338250D01*
G01X0000343655Y0000338250D02*
X0000343655Y0000334155D01*
X0000339500Y0000330000D01*
G01X0000363655Y0000311750D02*
X0000363655Y0000306345D01*
X0000365000Y0000305000D01*
G01X0000366155Y0000311750D02*
X0000366155Y0000308845D01*
X0000370000Y0000305000D01*
G01X0000363655Y0000338250D02*
X0000363655Y0000343655D01*
X0000365000Y0000345000D01*
G01X0000259500Y0000240827D02*
X0000259557Y0000240827D01*
X0000262126Y0000240827D01*
X0000262480Y0000240473D01*
G01X0000357500Y0000330000D02*
X0000353655Y0000333845D01*
X0000353655Y0000338250D01*
G01X0000349557Y0000215000D02*
X0000352500Y0000215000D01*
X0000354031Y0000213469D01*
X0000356500Y0000213469D01*
G01X0000361500Y0000213469D02*
X0000356500Y0000213469D01*
G01X0000367008Y0000212500D02*
X0000367008Y0000217500D01*
G01X0000368031Y0000222500D02*
X0000368031Y0000218523D01*
X0000367008Y0000217500D01*
G01X0000367008Y0000212500D02*
X0000364469Y0000212500D01*
X0000363500Y0000213469D01*
X0000361500Y0000213469D01*
G01X0000331772Y0000180630D02*
X0000331339Y0000180197D01*
G03X0000330222Y0000177500I0000002697J-0000002697D01*
G01X0000330222Y0000173070D01*
X0000330223Y0000173071D01*
G03X0000330472Y0000171812I0000003294J-0000000003D01*
G01X0000330859Y0000170878D01*
G02X0000331200Y0000169162I-0000004147J-0000001716D01*
G01X0000331200Y0000162607D01*
G03X0000332500Y0000159469I0000004437J0D01*
G01X0000327500Y0000159469D02*
G03X0000329800Y0000165022I-0000005553J0000005553D01*
G01X0000329800Y0000169161D01*
G03X0000329565Y0000170342I-0000003088J-0000000001D01*
G01X0000329178Y0000171277D01*
G02X0000328822Y0000173071I0000004339J0000001793D01*
G01X0000328822Y0000180147D01*
G03X0000328622Y0000180630I-0000000683J0D01*
G01X0000257500Y0000155827D02*
X0000257500Y0000152500D01*
X0000255000Y0000150000D01*
G01X0000278228Y0000177480D02*
X0000278228Y0000172728D01*
X0000272848Y0000167348D01*
X0000272848Y0000164848D01*
X0000269700Y0000161700D01*
X0000263700Y0000161700D01*
X0000262500Y0000160500D01*
X0000262500Y0000159173D01*
G01X0000338000Y0000252827D02*
X0000338000Y0000249992D01*
X0000338071Y0000249921D01*
G01X0000341221Y0000249921D02*
X0000342820Y0000251520D01*
X0000342820Y0000253680D01*
X0000341929Y0000254571D01*
X0000341914Y0000254571D01*
X0000341864Y0000254621D01*
X0000340379Y0000254621D01*
X0000338827Y0000256173D01*
X0000338000Y0000256173D01*
G01X0000255000Y0000180000D02*
X0000255920Y0000179080D01*
X0000266273Y0000179080D01*
X0000269373Y0000182180D01*
X0000272680Y0000182180D01*
X0000273500Y0000183000D01*
X0000273500Y0000185358D01*
X0000271929Y0000186929D01*
G01X0000267673Y0000218500D02*
X0000267673Y0000217318D01*
X0000265630Y0000215275D01*
G01X0000279508Y0000201000D02*
X0000279431Y0000201077D01*
X0000273529Y0000201077D01*
X0000271929Y0000202677D01*
G01X0000278327Y0000232500D02*
X0000278253Y0000232574D01*
X0000274426Y0000232574D01*
X0000273479Y0000233520D01*
X0000273479Y0000234816D01*
X0000272572Y0000235723D01*
X0000268186Y0000235723D01*
X0000266586Y0000237323D01*
X0000265630Y0000237323D01*
G01X0000271929Y0000237323D02*
X0000273479Y0000238873D01*
X0000276450Y0000238873D01*
X0000277823Y0000237500D01*
X0000278327Y0000237500D01*
G01X0000262480Y0000237323D02*
X0000264080Y0000235723D01*
X0000266273Y0000235723D01*
X0000266323Y0000235673D01*
X0000266327Y0000235673D01*
X0000268760Y0000233240D01*
X0000270669Y0000233240D01*
X0000271286Y0000232623D01*
X0000272523Y0000232623D01*
X0000273479Y0000231667D01*
X0000273479Y0000230021D01*
X0000273500Y0000230000D01*
X0000274075Y0000229424D01*
X0000275722Y0000229424D01*
X0000277646Y0000227500D01*
X0000278327Y0000227500D01*
G01X0000272827Y0000218500D02*
X0000272827Y0000216173D01*
X0000271929Y0000215275D01*
G01X0000279000Y0000192827D02*
X0000283500Y0000192827D01*
G01X0000284527Y0000186929D02*
X0000282977Y0000188479D01*
X0000282977Y0000190722D01*
X0000283500Y0000191245D01*
X0000283500Y0000192827D01*
G01X0000270000Y0000165000D02*
X0000270000Y0000167000D01*
X0000276629Y0000173629D01*
X0000276629Y0000178003D01*
X0000276678Y0000178052D01*
X0000276678Y0000178123D01*
X0000278228Y0000179673D01*
X0000278228Y0000180630D01*
G01X0000270000Y0000165000D02*
X0000268000Y0000163000D01*
X0000259500Y0000163000D01*
X0000257500Y0000161000D01*
X0000257500Y0000159173D01*
G01X0000338071Y0000234173D02*
X0000339671Y0000232573D01*
X0000339671Y0000230381D01*
X0000340578Y0000229474D01*
X0000348113Y0000229474D01*
X0000350587Y0000227000D01*
X0000352827Y0000227000D01*
G01X0000323655Y0000338250D02*
X0000323655Y0000343655D01*
X0000325000Y0000345000D01*
G01X0000311155Y0000338250D02*
X0000311155Y0000343845D01*
X0000310000Y0000345000D01*
G01X0000348655Y0000311750D02*
X0000348655Y0000316155D01*
X0000350000Y0000317500D01*
G01X0000343655Y0000311750D02*
X0000343655Y0000316155D01*
X0000345000Y0000317500D01*
G01X0000285492Y0000207500D02*
X0000285492Y0000201000D01*
G01X0000328992Y0000225000D02*
X0000331024Y0000225000D01*
X0000332348Y0000226324D01*
X0000336472Y0000226324D01*
X0000338071Y0000224725D01*
G01X0000346155Y0000311750D02*
X0000346155Y0000308500D01*
X0000344655Y0000307000D01*
X0000342000Y0000307000D01*
X0000340000Y0000305000D01*
G01X0000351155Y0000311750D02*
X0000351155Y0000306155D01*
X0000350000Y0000305000D01*
G01X0000268779Y0000237323D02*
X0000270329Y0000238873D01*
X0000270329Y0000241145D01*
X0000271184Y0000242000D01*
X0000271263Y0000242000D01*
X0000271286Y0000242023D01*
X0000275602Y0000242023D01*
X0000275651Y0000242072D01*
X0000275722Y0000242072D01*
X0000275977Y0000242327D01*
X0000278500Y0000242327D01*
G01X0000316155Y0000338250D02*
X0000316155Y0000331155D01*
X0000315000Y0000330000D01*
G01X0000341155Y0000311750D02*
X0000341155Y0000316345D01*
X0000340000Y0000317500D01*
G01X0000333655Y0000311750D02*
X0000333655Y0000308155D01*
X0000333000Y0000307500D01*
X0000333000Y0000304000D01*
X0000334500Y0000302500D01*
X0000342500Y0000302500D01*
X0000345000Y0000305000D01*
G01X0000338655Y0000338250D02*
X0000338655Y0000343655D01*
X0000340000Y0000345000D01*
G01X0000336155Y0000338250D02*
X0000336155Y0000331155D01*
X0000335000Y0000330000D01*
G01X0000333655Y0000338250D02*
X0000333655Y0000343655D01*
X0000335000Y0000345000D01*
G01X0000313655Y0000338250D02*
X0000313655Y0000333655D01*
X0000310100Y0000330100D01*
X0000310100Y0000330000D01*
G01X0000254655Y0000338250D02*
X0000254655Y0000330345D01*
X0000255000Y0000330000D01*
G01X0000341155Y0000338250D02*
X0000341155Y0000341155D01*
X0000345000Y0000345000D01*
G01X0000321155Y0000338250D02*
X0000321155Y0000343845D01*
X0000320000Y0000345000D01*
G01X0000326155Y0000338250D02*
X0000326155Y0000331155D01*
X0000325000Y0000330000D01*
G01X0000318655Y0000338250D02*
X0000318655Y0000331345D01*
X0000320000Y0000330000D01*
G01X0000331155Y0000311750D02*
X0000331155Y0000306155D01*
X0000330000Y0000305000D01*
G01X0000328655Y0000338250D02*
X0000328655Y0000343655D01*
X0000330000Y0000345000D01*
G01X0000336155Y0000311750D02*
X0000336155Y0000316345D01*
X0000335000Y0000317500D01*
G01X0000335000Y0000305000D02*
X0000338655Y0000308655D01*
X0000338655Y0000311750D01*
G01X0000356500Y0000195827D02*
X0000356500Y0000191673D01*
G01X0000331772Y0000186929D02*
X0000333343Y0000188500D01*
X0000342500Y0000188500D01*
X0000345673Y0000191673D01*
X0000355173Y0000191673D01*
X0000356500Y0000191673D01*
G01X0000343500Y0000330000D02*
X0000346155Y0000332655D01*
X0000346155Y0000338250D01*
G01X0000361155Y0000338250D02*
X0000361155Y0000343845D01*
X0000360000Y0000345000D01*
G01X0000348655Y0000338250D02*
X0000348655Y0000330155D01*
G01X0000281500Y0000268327D02*
X0000281500Y0000267985D01*
X0000276678Y0000263163D01*
X0000276678Y0000259963D01*
X0000279778Y0000256863D01*
X0000279778Y0000254670D01*
X0000281378Y0000253071D01*
G54D18*
X0000135155Y0000332500D03*
X0000376655Y0000332500D03*
G54D27*
G01X0000185492Y0000095000D02*
X0000185492Y0000090992D01*
X0000184500Y0000090000D01*
G01X0000185000Y0000085492D02*
X0000185000Y0000089500D01*
X0000184500Y0000090000D01*
G01X0000178031Y0000100000D02*
X0000177500Y0000100000D01*
X0000175000Y0000097500D01*
G01X0000178031Y0000107500D02*
X0000177000Y0000107500D01*
X0000174500Y0000105000D01*
G01X0000324500Y0000282008D02*
X0000324500Y0000275500D01*
X0000325000Y0000275000D01*
G01X0000313492Y0000114500D02*
X0000318500Y0000114500D01*
X0000319000Y0000115000D01*
G01X0000307508Y0000114500D02*
X0000303000Y0000114500D01*
X0000302500Y0000115000D01*
G01X0000330500Y0000287992D02*
X0000330500Y0000294500D01*
X0000330000Y0000295000D01*
G01X0000330500Y0000282008D02*
X0000330500Y0000275500D01*
X0000330000Y0000275000D01*
G01X0000324500Y0000287992D02*
X0000324500Y0000294500D01*
X0000325000Y0000295000D01*
X0000239500Y0000303500D03*
X0000147500Y0000330300D03*
X0000200500Y0000346500D03*
X0000145500Y0000303500D03*
X0000227000Y0000303500D03*
X0000242500Y0000303500D03*
X0000204000Y0000296000D03*
X0000168500Y0000346500D03*
X0000234900Y0000330400D03*
X0000230000Y0000303500D03*
X0000148500Y0000303500D03*
X0000231900Y0000330400D03*
X0000204000Y0000299000D03*
X0000203500Y0000346500D03*
X0000165500Y0000303500D03*
X0000144500Y0000330300D03*
X0000165500Y0000346500D03*
X0000158500Y0000330300D03*
X0000168500Y0000303500D03*
X0000155500Y0000330300D03*
X0000272000Y0000303500D03*
X0000312500Y0000291500D03*
X0000285000Y0000346500D03*
X0000291000Y0000291500D03*
X0000275000Y0000346500D03*
X0000315500Y0000291500D03*
X0000282000Y0000346500D03*
X0000285000Y0000291500D03*
X0000288000Y0000291500D03*
X0000272000Y0000346500D03*
X0000282000Y0000303500D03*
X0000285000Y0000303500D03*
X0000304000Y0000291500D03*
X0000301000Y0000291500D03*
X0000261900Y0000330300D03*
X0000264000Y0000303500D03*
X0000326500Y0000148500D03*
X0000302500Y0000148500D03*
X0000400500Y0000302000D03*
X0000400500Y0000299000D03*
X0000390000Y0000300500D03*
X0000387000Y0000300500D03*
X0000332500Y0000148500D03*
X0000305500Y0000148500D03*
X0000329500Y0000148500D03*
X0000261000Y0000303500D03*
X0000299500Y0000148500D03*
X0000314500Y0000148500D03*
X0000323500Y0000148500D03*
X0000308500Y0000148500D03*
X0000320500Y0000148500D03*
X0000264900Y0000330300D03*
X0000311500Y0000148500D03*
X0000317500Y0000148500D03*
X0000275000Y0000303500D03*
X0000294000Y0000291500D03*
G54D28*
X0000287539Y0000039980D03*
X0000337461Y0000039980D03*
X0000337461Y0000027500D03*
X0000300020Y0000027500D03*
X0000433476Y0000056508D03*
X0000461508Y0000056508D03*
X0000287539Y0000102500D03*
X0000300020Y0000102500D03*
X0000312500Y0000102500D03*
X0000324980Y0000102500D03*
X0000337461Y0000102500D03*
X0000337461Y0000077500D03*
X0000433484Y0000113760D03*
X0000433484Y0000151240D03*
X0000447500Y0000151240D03*
X0000461516Y0000113760D03*
X0000433476Y0000093988D03*
X0000447492Y0000093988D03*
G54D19*
X0000171905Y0000325000D03*
X0000255905Y0000325000D03*
X0000339905Y0000325000D03*
G54D29*
X0000287539Y0000027500D03*
X0000461516Y0000151240D03*
X0000461508Y0000093988D03*
M02*
