G04 ================== begin FILE IDENTIFICATION RECORD ==================*
G04 Layout Name:  D:/wangmin/2011/MAY/DSPDB/pcb/FINAL/dspdb.brd*
G04 Film Name:    pastetop*
G04 File Format:  Gerber RS274X*
G04 File Origin:  15.51-s011*
G04 Origin Date:  Mon Jul 04 18:33:09 2011*
G04 ================== end FILE IDENTIFICATION RECORD ====================*
%FSAX55Y55*MOIN*%
%IR0*IPPOS*OFA0.00000B0.00000*MIA0B0*SFA1.00000B1.00000*%
%ADD54R,.118X.06*%
%ADD53R,.06X.118*%
%ADD19C,.04*%
%ADD46R,.126X.059*%
%ADD11R,.079X.15*%
%ADD47R,.059X.126*%
%ADD39R,.03X.03*%
%ADD30R,.063X.063*%
%ADD57C,.01598*%
%ADD55R,.12X.1*%
%ADD50O,.031X.011*%
%ADD51O,.011X.031*%
%ADD24R,.034X.01*%
%ADD40R,.05X.04*%
%ADD27R,.03X.05*%
%ADD25R,.01X.034*%
%ADD16R,.025X.02*%
%ADD58R,.04X.05*%
%ADD35R,.04X.024*%
%ADD33O,.052X.024*%
%ADD21R,.051X.03*%
%ADD15R,.02X.025*%
%ADD37R,.016X.022*%
%ADD34O,.024X.052*%
%ADD38R,.022X.016*%
%ADD32O,.052X.026*%
%ADD28O,.016X.061*%
%ADD17R,.035X.031*%
%ADD43R,.031X.035*%
%ADD42R,.044X.032*%
%ADD36R,.04X.018*%
%ADD31O,.026X.052*%
%ADD52R,.032X.044*%
%ADD48R,.07X.025*%
%ADD41R,.036X.032*%
%ADD29O,.01X.04902*%
%ADD56O,.065X.016*%
%ADD49R,.025X.07*%
%ADD13R,.032X.036*%
%ADD45R,.025X.08*%
%ADD18R,.075X.05*%
%ADD44R,.05X.075*%
%ADD26R,.016X.068*%
%ADD10R,.08X.088*%
%ADD22O,.065X.01098*%
%ADD14R,.075X.094*%
%ADD23O,.01098X.065*%
%ADD12R,.079X.059*%
%ADD20R,.07098X.03299*%
%ADD59C,.006*%
G75*
%LPD*%
G75*
G36*
G01X0000189212Y0000110788D02*
X0000185055Y0000110788D01*
X0000185055Y0000114945D01*
X0000189212Y0000114945D01*
X0000189212Y0000110788D01*
G37*
G36*
G01X0000194578Y0000110788D02*
X0000190422Y0000110788D01*
X0000190422Y0000114945D01*
X0000194578Y0000114945D01*
X0000194578Y0000110788D01*
G37*
G36*
G01X0000199945Y0000110788D02*
X0000195788Y0000110788D01*
X0000195788Y0000114945D01*
X0000199945Y0000114945D01*
X0000199945Y0000110788D01*
G37*
G36*
G01X0000189212Y0000105422D02*
X0000185055Y0000105422D01*
X0000185055Y0000109578D01*
X0000189212Y0000109578D01*
X0000189212Y0000105422D01*
G37*
G36*
G01X0000194578Y0000105422D02*
X0000190422Y0000105422D01*
X0000190422Y0000109578D01*
X0000194578Y0000109578D01*
X0000194578Y0000105422D01*
G37*
G36*
G01X0000199945Y0000105422D02*
X0000195788Y0000105422D01*
X0000195788Y0000109578D01*
X0000199945Y0000109578D01*
X0000199945Y0000105422D01*
G37*
G36*
G01X0000189212Y0000100055D02*
X0000185055Y0000100055D01*
X0000185055Y0000104212D01*
X0000189212Y0000104212D01*
X0000189212Y0000100055D01*
G37*
G36*
G01X0000194578Y0000100055D02*
X0000190422Y0000100055D01*
X0000190422Y0000104212D01*
X0000194578Y0000104212D01*
X0000194578Y0000100055D01*
G37*
G36*
G01X0000199945Y0000100055D02*
X0000195788Y0000100055D01*
X0000195788Y0000104212D01*
X0000199945Y0000104212D01*
X0000199945Y0000100055D01*
G37*
G36*
G01X0000154435Y0000087095D02*
X0000150214Y0000087095D01*
X0000150214Y0000092904D01*
X0000154435Y0000092904D01*
X0000154435Y0000087095D01*
G37*
G36*
G01X0000159885Y0000087095D02*
X0000155664Y0000087095D01*
X0000155664Y0000092904D01*
X0000159885Y0000092904D01*
X0000159885Y0000087095D01*
G37*
G36*
G01X0000089488Y0000157246D02*
X0000089488Y0000152754D01*
X0000085963Y0000152754D01*
X0000085963Y0000157246D01*
X0000089488Y0000157246D01*
G37*
G36*
G01X0000094038Y0000157246D02*
X0000094038Y0000152754D01*
X0000090513Y0000152754D01*
X0000090513Y0000157246D01*
X0000094038Y0000157246D01*
G37*
G36*
G01X0000077819Y0000082181D02*
X0000081381Y0000082181D01*
X0000081381Y0000078619D01*
X0000077819Y0000078619D01*
X0000077819Y0000082181D01*
G37*
G36*
G01X0000073219Y0000082181D02*
X0000076781Y0000082181D01*
X0000076781Y0000078619D01*
X0000073219Y0000078619D01*
X0000073219Y0000082181D01*
G37*
G36*
G01X0000068619Y0000082181D02*
X0000072181Y0000082181D01*
X0000072181Y0000078619D01*
X0000068619Y0000078619D01*
X0000068619Y0000082181D01*
G37*
G36*
G01X0000077819Y0000086781D02*
X0000081381Y0000086781D01*
X0000081381Y0000083219D01*
X0000077819Y0000083219D01*
X0000077819Y0000086781D01*
G37*
G36*
G01X0000073219Y0000086781D02*
X0000076781Y0000086781D01*
X0000076781Y0000083219D01*
X0000073219Y0000083219D01*
X0000073219Y0000086781D01*
G37*
G36*
G01X0000068619Y0000086781D02*
X0000072181Y0000086781D01*
X0000072181Y0000083219D01*
X0000068619Y0000083219D01*
X0000068619Y0000086781D01*
G37*
G36*
G01X0000077819Y0000091381D02*
X0000081381Y0000091381D01*
X0000081381Y0000087819D01*
X0000077819Y0000087819D01*
X0000077819Y0000091381D01*
G37*
G36*
G01X0000073219Y0000091381D02*
X0000076781Y0000091381D01*
X0000076781Y0000087819D01*
X0000073219Y0000087819D01*
X0000073219Y0000091381D01*
G37*
G36*
G01X0000068619Y0000091381D02*
X0000072181Y0000091381D01*
X0000072181Y0000087819D01*
X0000068619Y0000087819D01*
X0000068619Y0000091381D01*
G37*
G54D10*
X0000090000Y0000055000D03*
X0000090000Y0000035000D03*
X0000075000Y0000055000D03*
X0000075000Y0000035000D03*
X0000157500Y0000242500D03*
X0000157500Y0000222500D03*
X0000142500Y0000242500D03*
X0000142500Y0000222500D03*
X0000142500Y0000122500D03*
X0000142500Y0000142500D03*
X0000157500Y0000122500D03*
X0000157500Y0000142500D03*
X0000115000Y0000122500D03*
X0000115000Y0000142500D03*
X0000130000Y0000122500D03*
X0000130000Y0000142500D03*
X0000052500Y0000122500D03*
X0000052500Y0000142500D03*
X0000067500Y0000122500D03*
X0000067500Y0000142500D03*
G54D20*
X0000252500Y0000051563D03*
X0000252500Y0000034437D03*
X0000267500Y0000051563D03*
X0000267500Y0000034437D03*
G54D11*
X0000192402Y0000042500D03*
G54D12*
X0000167598Y0000033445D03*
X0000167598Y0000042500D03*
X0000167598Y0000051555D03*
G54D21*
X0000234951Y0000040000D03*
X0000234951Y0000035000D03*
X0000234951Y0000030000D03*
X0000234951Y0000025000D03*
X0000205049Y0000025000D03*
X0000205049Y0000030000D03*
X0000205049Y0000035000D03*
X0000205049Y0000040000D03*
G54D30*
X0000080000Y0000162480D03*
X0000090000Y0000162480D03*
X0000100000Y0000162480D03*
X0000080000Y0000147520D03*
X0000090000Y0000147520D03*
X0000100000Y0000147520D03*
G54D22*
X0000066890Y0000193878D03*
X0000066890Y0000195846D03*
X0000066890Y0000197815D03*
X0000066890Y0000199783D03*
X0000066890Y0000201752D03*
X0000066890Y0000203720D03*
X0000066890Y0000205689D03*
X0000066890Y0000207657D03*
X0000066890Y0000209626D03*
X0000066890Y0000211594D03*
X0000066890Y0000213563D03*
X0000066890Y0000215531D03*
X0000066890Y0000217500D03*
X0000066890Y0000219469D03*
X0000066890Y0000221437D03*
X0000066890Y0000223406D03*
X0000066890Y0000225374D03*
X0000066890Y0000227343D03*
X0000066890Y0000229311D03*
X0000066890Y0000231280D03*
X0000066890Y0000233248D03*
X0000066890Y0000235217D03*
X0000066890Y0000237185D03*
X0000066890Y0000239154D03*
X0000066890Y0000241122D03*
X0000128110Y0000241122D03*
X0000128110Y0000239154D03*
X0000128110Y0000237185D03*
X0000128110Y0000235217D03*
X0000128110Y0000233248D03*
X0000128110Y0000231280D03*
X0000128110Y0000229311D03*
X0000128110Y0000227343D03*
X0000128110Y0000225374D03*
X0000128110Y0000223406D03*
X0000128110Y0000221437D03*
X0000128110Y0000219469D03*
X0000128110Y0000217500D03*
X0000128110Y0000215531D03*
X0000128110Y0000213563D03*
X0000128110Y0000211594D03*
X0000128110Y0000209626D03*
X0000128110Y0000207657D03*
X0000128110Y0000205689D03*
X0000128110Y0000203720D03*
X0000128110Y0000201752D03*
X0000128110Y0000199783D03*
X0000128110Y0000197815D03*
X0000128110Y0000195846D03*
X0000128110Y0000193878D03*
G54D13*
X0000223760Y0000048563D03*
X0000231240Y0000048563D03*
X0000227500Y0000056437D03*
X0000227500Y0000073937D03*
X0000223760Y0000066063D03*
X0000231240Y0000066063D03*
X0000227500Y0000088937D03*
X0000223760Y0000081063D03*
X0000231240Y0000081063D03*
X0000227500Y0000103937D03*
X0000223760Y0000096063D03*
X0000231240Y0000096063D03*
X0000405000Y0000038937D03*
X0000401260Y0000031063D03*
X0000408740Y0000031063D03*
X0000472421Y0000027500D03*
X0000265000Y0000091063D03*
X0000268740Y0000098937D03*
X0000261260Y0000098937D03*
G54D31*
X0000216260Y0000269528D03*
X0000220000Y0000269528D03*
X0000223740Y0000269528D03*
X0000223740Y0000260472D03*
X0000220000Y0000260472D03*
X0000216260Y0000260472D03*
G54D40*
X0000170000Y0000231000D03*
X0000170000Y0000224000D03*
X0000285000Y0000158500D03*
X0000285000Y0000151500D03*
X0000362500Y0000151500D03*
X0000362500Y0000158500D03*
X0000327500Y0000282000D03*
X0000327500Y0000289000D03*
X0000277500Y0000281500D03*
X0000277500Y0000288500D03*
X0000347500Y0000151500D03*
X0000347500Y0000158500D03*
X0000262500Y0000281500D03*
X0000262500Y0000288500D03*
X0000337500Y0000281500D03*
X0000337500Y0000288500D03*
G54D23*
X0000121122Y0000186890D03*
X0000119154Y0000186890D03*
X0000117185Y0000186890D03*
X0000115217Y0000186890D03*
X0000113248Y0000186890D03*
X0000111280Y0000186890D03*
X0000109311Y0000186890D03*
X0000107343Y0000186890D03*
X0000105374Y0000186890D03*
X0000103406Y0000186890D03*
X0000101437Y0000186890D03*
X0000099469Y0000186890D03*
X0000097500Y0000186890D03*
X0000095531Y0000186890D03*
X0000093563Y0000186890D03*
X0000091594Y0000186890D03*
X0000089626Y0000186890D03*
X0000087657Y0000186890D03*
X0000085689Y0000186890D03*
X0000083720Y0000186890D03*
X0000081752Y0000186890D03*
X0000079783Y0000186890D03*
X0000077815Y0000186890D03*
X0000075846Y0000186890D03*
X0000073878Y0000186890D03*
X0000073878Y0000248110D03*
X0000075846Y0000248110D03*
X0000077815Y0000248110D03*
X0000079783Y0000248110D03*
X0000081752Y0000248110D03*
X0000083720Y0000248110D03*
X0000085689Y0000248110D03*
X0000087657Y0000248110D03*
X0000089626Y0000248110D03*
X0000091594Y0000248110D03*
X0000093563Y0000248110D03*
X0000095531Y0000248110D03*
X0000097500Y0000248110D03*
X0000099469Y0000248110D03*
X0000101437Y0000248110D03*
X0000103406Y0000248110D03*
X0000105374Y0000248110D03*
X0000107343Y0000248110D03*
X0000109311Y0000248110D03*
X0000111280Y0000248110D03*
X0000113248Y0000248110D03*
X0000115217Y0000248110D03*
X0000117185Y0000248110D03*
X0000119154Y0000248110D03*
X0000121122Y0000248110D03*
G54D14*
X0000121142Y0000035000D03*
X0000138858Y0000035000D03*
G54D41*
X0000055000Y0000185079D03*
X0000235000Y0000222579D03*
X0000476063Y0000060000D03*
X0000483937Y0000056260D03*
X0000483937Y0000063740D03*
G54D32*
X0000135472Y0000281260D03*
X0000135472Y0000285000D03*
X0000135472Y0000288740D03*
X0000144528Y0000288740D03*
X0000144528Y0000285000D03*
X0000144528Y0000281260D03*
X0000239528Y0000133740D03*
X0000239528Y0000130000D03*
X0000239528Y0000126260D03*
X0000230472Y0000126260D03*
X0000230472Y0000130000D03*
X0000230472Y0000133740D03*
G54D50*
X0000065551Y0000078110D03*
X0000065551Y0000080079D03*
X0000065551Y0000082047D03*
X0000065551Y0000084016D03*
X0000065551Y0000085984D03*
X0000065551Y0000087953D03*
X0000065551Y0000089921D03*
X0000065551Y0000091890D03*
X0000084449Y0000091890D03*
X0000084449Y0000089921D03*
X0000084449Y0000087953D03*
X0000084449Y0000085984D03*
X0000084449Y0000084016D03*
X0000084449Y0000082047D03*
X0000084449Y0000080079D03*
X0000084449Y0000078110D03*
G54D42*
X0000055000Y0000194921D03*
X0000235000Y0000232421D03*
G54D15*
X0000065000Y0000030531D03*
X0000065000Y0000034469D03*
X0000195000Y0000130531D03*
X0000195000Y0000134469D03*
X0000200000Y0000130531D03*
X0000200000Y0000134469D03*
X0000175000Y0000075531D03*
X0000175000Y0000079469D03*
X0000215000Y0000280531D03*
X0000215000Y0000284469D03*
X0000312500Y0000159469D03*
X0000312500Y0000155531D03*
X0000317500Y0000159469D03*
X0000317500Y0000155531D03*
X0000327500Y0000159469D03*
X0000327500Y0000155531D03*
X0000322500Y0000159469D03*
X0000322500Y0000155531D03*
X0000295000Y0000280531D03*
X0000295000Y0000284469D03*
X0000290000Y0000280531D03*
X0000290000Y0000284469D03*
X0000300000Y0000280531D03*
X0000300000Y0000284469D03*
X0000305000Y0000280531D03*
X0000305000Y0000284469D03*
X0000292500Y0000159469D03*
X0000292500Y0000155531D03*
X0000302500Y0000159469D03*
X0000302500Y0000155531D03*
X0000272500Y0000155531D03*
X0000272500Y0000159469D03*
X0000297500Y0000159469D03*
X0000297500Y0000155531D03*
G54D33*
X0000080689Y0000118760D03*
X0000080689Y0000126240D03*
X0000089311Y0000126240D03*
X0000089311Y0000122500D03*
X0000089311Y0000118760D03*
G54D24*
X0000178819Y0000096673D03*
X0000178819Y0000098642D03*
X0000178819Y0000100610D03*
X0000178819Y0000102579D03*
X0000178819Y0000104547D03*
X0000178819Y0000106516D03*
X0000178819Y0000108484D03*
X0000178819Y0000110453D03*
X0000178819Y0000112421D03*
X0000178819Y0000114390D03*
X0000178819Y0000116358D03*
X0000178819Y0000118327D03*
X0000206181Y0000118327D03*
X0000206181Y0000116358D03*
X0000206181Y0000114390D03*
X0000206181Y0000112421D03*
X0000206181Y0000110453D03*
X0000206181Y0000108484D03*
X0000206181Y0000106516D03*
X0000206181Y0000104547D03*
X0000206181Y0000102579D03*
X0000206181Y0000100610D03*
X0000206181Y0000098642D03*
X0000206181Y0000096673D03*
G54D51*
X0000081890Y0000075551D03*
X0000079921Y0000075551D03*
X0000077953Y0000075551D03*
X0000075984Y0000075551D03*
X0000074016Y0000075551D03*
X0000072047Y0000075551D03*
X0000070079Y0000075551D03*
X0000068110Y0000075551D03*
X0000068110Y0000094449D03*
X0000070079Y0000094449D03*
X0000072047Y0000094449D03*
X0000074016Y0000094449D03*
X0000075984Y0000094449D03*
X0000077953Y0000094449D03*
X0000079921Y0000094449D03*
X0000081890Y0000094449D03*
G54D52*
X0000462579Y0000027500D03*
G54D43*
X0000100000Y0000119508D03*
X0000100000Y0000125492D03*
X0000277500Y0000152008D03*
X0000277500Y0000157992D03*
X0000370000Y0000152008D03*
X0000370000Y0000157992D03*
X0000270000Y0000287992D03*
X0000270000Y0000282008D03*
X0000355000Y0000152008D03*
X0000355000Y0000157992D03*
X0000255000Y0000287992D03*
X0000255000Y0000282008D03*
X0000345000Y0000287992D03*
X0000345000Y0000282008D03*
G54D34*
X0000141260Y0000264311D03*
X0000148740Y0000264311D03*
X0000148740Y0000255689D03*
X0000145000Y0000255689D03*
X0000141260Y0000255689D03*
G54D16*
X0000179469Y0000025000D03*
X0000175531Y0000025000D03*
X0000140531Y0000155000D03*
X0000144469Y0000155000D03*
X0000065531Y0000154000D03*
X0000069469Y0000154000D03*
X0000155531Y0000257500D03*
X0000159469Y0000257500D03*
X0000155531Y0000262500D03*
X0000159469Y0000262500D03*
X0000099469Y0000137500D03*
X0000095531Y0000137500D03*
X0000179469Y0000085000D03*
X0000175531Y0000085000D03*
X0000054469Y0000154500D03*
X0000050531Y0000154500D03*
X0000115531Y0000155000D03*
X0000119469Y0000155000D03*
X0000076969Y0000065000D03*
X0000073031Y0000065000D03*
X0000159469Y0000155000D03*
X0000155531Y0000155000D03*
X0000250531Y0000135000D03*
X0000140531Y0000295000D03*
X0000144469Y0000295000D03*
X0000140531Y0000275000D03*
X0000144469Y0000275000D03*
X0000130531Y0000155000D03*
X0000134469Y0000155000D03*
X0000254469Y0000135000D03*
X0000368031Y0000172500D03*
X0000371969Y0000172500D03*
X0000368031Y0000177500D03*
X0000371969Y0000177500D03*
X0000368031Y0000182500D03*
X0000371969Y0000182500D03*
G54D25*
X0000181673Y0000121181D03*
X0000183642Y0000121181D03*
X0000185610Y0000121181D03*
X0000187579Y0000121181D03*
X0000189547Y0000121181D03*
X0000191516Y0000121181D03*
X0000193484Y0000121181D03*
X0000195453Y0000121181D03*
X0000197421Y0000121181D03*
X0000199390Y0000121181D03*
X0000201358Y0000121181D03*
X0000203327Y0000121181D03*
X0000203327Y0000093819D03*
X0000201358Y0000093819D03*
X0000199390Y0000093819D03*
X0000197421Y0000093819D03*
X0000195453Y0000093819D03*
X0000193484Y0000093819D03*
X0000191516Y0000093819D03*
X0000189547Y0000093819D03*
X0000187579Y0000093819D03*
X0000185610Y0000093819D03*
X0000183642Y0000093819D03*
X0000181673Y0000093819D03*
G54D26*
X0000141516Y0000058287D03*
X0000138957Y0000058287D03*
X0000136398Y0000058287D03*
X0000133839Y0000058287D03*
X0000131280Y0000058287D03*
X0000128720Y0000058287D03*
X0000126161Y0000058287D03*
X0000123602Y0000058287D03*
X0000121043Y0000058287D03*
X0000118484Y0000058287D03*
X0000141516Y0000081713D03*
X0000138957Y0000081713D03*
X0000136398Y0000081713D03*
X0000133839Y0000081713D03*
X0000131280Y0000081713D03*
X0000128720Y0000081713D03*
X0000126161Y0000081713D03*
X0000123602Y0000081713D03*
X0000121043Y0000081713D03*
X0000118484Y0000081713D03*
G54D44*
X0000048945Y0000107500D03*
X0000061055Y0000107500D03*
X0000473555Y0000037500D03*
X0000461445Y0000037500D03*
G54D17*
X0000134508Y0000045000D03*
X0000140492Y0000045000D03*
X0000125492Y0000045000D03*
X0000119508Y0000045000D03*
X0000065008Y0000160000D03*
X0000070992Y0000160000D03*
X0000100492Y0000132500D03*
X0000094508Y0000132500D03*
X0000182008Y0000060000D03*
X0000187992Y0000060000D03*
X0000055492Y0000160000D03*
X0000049508Y0000160000D03*
X0000267992Y0000110000D03*
X0000262008Y0000110000D03*
X0000364508Y0000242500D03*
X0000370492Y0000242500D03*
X0000364508Y0000247500D03*
X0000370492Y0000247500D03*
X0000364508Y0000252500D03*
X0000370492Y0000252500D03*
X0000367008Y0000212500D03*
X0000372992Y0000212500D03*
X0000372992Y0000227500D03*
X0000367008Y0000227500D03*
X0000372992Y0000197500D03*
X0000367008Y0000197500D03*
G54D35*
X0000031161Y0000210217D03*
X0000031161Y0000224783D03*
X0000013839Y0000224783D03*
X0000013839Y0000210217D03*
X0000031161Y0000180217D03*
X0000031161Y0000194783D03*
X0000013839Y0000194783D03*
X0000013839Y0000180217D03*
G54D53*
X0000268252Y0000024000D03*
X0000255748Y0000024000D03*
X0000403748Y0000152500D03*
X0000416252Y0000152500D03*
X0000403748Y0000080000D03*
X0000416252Y0000080000D03*
X0000403748Y0000137500D03*
X0000416252Y0000137500D03*
X0000403748Y0000097500D03*
X0000416252Y0000097500D03*
X0000253748Y0000062500D03*
X0000266252Y0000062500D03*
X0000276248Y0000132500D03*
X0000288752Y0000132500D03*
G54D18*
X0000050000Y0000046445D03*
X0000062500Y0000046445D03*
X0000097500Y0000076445D03*
X0000097500Y0000088555D03*
X0000050000Y0000058555D03*
X0000062500Y0000058555D03*
X0000242500Y0000276445D03*
X0000242500Y0000288555D03*
X0000402500Y0000273555D03*
X0000402500Y0000261445D03*
X0000402500Y0000181445D03*
X0000402500Y0000193555D03*
X0000380000Y0000158555D03*
X0000380000Y0000146445D03*
X0000357500Y0000281445D03*
X0000357500Y0000293555D03*
G54D45*
X0000185000Y0000243327D03*
X0000185000Y0000271673D03*
X0000190000Y0000243327D03*
X0000190000Y0000271673D03*
X0000195000Y0000243327D03*
X0000195000Y0000271673D03*
X0000200000Y0000243327D03*
X0000200000Y0000271673D03*
G54D36*
X0000022500Y0000227441D03*
X0000022500Y0000207559D03*
X0000022500Y0000197441D03*
X0000022500Y0000177559D03*
G54D27*
X0000110000Y0000265000D03*
X0000105000Y0000265000D03*
X0000100000Y0000265000D03*
X0000095000Y0000265000D03*
X0000090000Y0000265000D03*
X0000085000Y0000265000D03*
X0000080000Y0000265000D03*
X0000075000Y0000265000D03*
X0000110000Y0000295000D03*
X0000105000Y0000295000D03*
X0000100000Y0000295000D03*
X0000095000Y0000295000D03*
X0000090000Y0000295000D03*
X0000085000Y0000295000D03*
X0000080000Y0000295000D03*
X0000075000Y0000295000D03*
G54D54*
X0000372500Y0000023748D03*
X0000372500Y0000036252D03*
X0000357500Y0000023748D03*
X0000357500Y0000036252D03*
X0000480000Y0000138748D03*
X0000480000Y0000151252D03*
X0000480000Y0000078748D03*
X0000480000Y0000091252D03*
X0000370000Y0000283752D03*
X0000370000Y0000271248D03*
G54D28*
X0000151161Y0000098358D03*
X0000153720Y0000098358D03*
X0000156280Y0000098358D03*
X0000158839Y0000098358D03*
X0000158839Y0000081642D03*
X0000156280Y0000081642D03*
X0000153720Y0000081642D03*
X0000151161Y0000081642D03*
G54D37*
X0000246673Y0000200000D03*
X0000243327Y0000200000D03*
X0000246673Y0000195000D03*
X0000243327Y0000195000D03*
X0000246673Y0000190000D03*
X0000243327Y0000190000D03*
X0000246673Y0000210000D03*
X0000243327Y0000210000D03*
X0000246673Y0000235000D03*
X0000243327Y0000235000D03*
X0000246673Y0000260000D03*
X0000243327Y0000260000D03*
X0000246673Y0000250000D03*
X0000243327Y0000250000D03*
X0000246673Y0000205000D03*
X0000243327Y0000205000D03*
X0000246673Y0000240000D03*
X0000243327Y0000240000D03*
X0000246673Y0000225000D03*
X0000243327Y0000225000D03*
X0000246673Y0000245000D03*
X0000243327Y0000245000D03*
X0000246673Y0000220000D03*
X0000243327Y0000220000D03*
X0000246673Y0000255000D03*
X0000243327Y0000255000D03*
X0000246673Y0000230000D03*
X0000243327Y0000230000D03*
X0000036673Y0000272500D03*
X0000033327Y0000272500D03*
X0000033327Y0000262500D03*
X0000036673Y0000262500D03*
X0000036673Y0000252500D03*
X0000033327Y0000252500D03*
X0000051673Y0000075000D03*
X0000048327Y0000075000D03*
X0000248327Y0000105000D03*
X0000173327Y0000190000D03*
X0000176673Y0000190000D03*
X0000185827Y0000080000D03*
X0000189173Y0000080000D03*
X0000051673Y0000095000D03*
X0000048327Y0000095000D03*
X0000225827Y0000117500D03*
X0000229173Y0000117500D03*
X0000223327Y0000285000D03*
X0000226673Y0000285000D03*
X0000173327Y0000200000D03*
X0000176673Y0000200000D03*
X0000173327Y0000195000D03*
X0000176673Y0000195000D03*
X0000185827Y0000075000D03*
X0000189173Y0000075000D03*
X0000243327Y0000175000D03*
X0000246673Y0000175000D03*
X0000051673Y0000080000D03*
X0000048327Y0000080000D03*
X0000051673Y0000085000D03*
X0000048327Y0000085000D03*
X0000051673Y0000090000D03*
X0000048327Y0000090000D03*
X0000133327Y0000105000D03*
X0000136673Y0000105000D03*
X0000243327Y0000265000D03*
X0000246673Y0000265000D03*
X0000246673Y0000215000D03*
X0000243327Y0000215000D03*
X0000246673Y0000185000D03*
X0000243327Y0000185000D03*
X0000033327Y0000142500D03*
X0000036673Y0000142500D03*
X0000033327Y0000112500D03*
X0000036673Y0000112500D03*
X0000036673Y0000147500D03*
X0000033327Y0000147500D03*
X0000036673Y0000152500D03*
X0000033327Y0000152500D03*
X0000036673Y0000157500D03*
X0000033327Y0000157500D03*
X0000036673Y0000097500D03*
X0000033327Y0000097500D03*
X0000033327Y0000137500D03*
X0000036673Y0000137500D03*
X0000036673Y0000132500D03*
X0000033327Y0000132500D03*
X0000033327Y0000122500D03*
X0000036673Y0000122500D03*
X0000033327Y0000102500D03*
X0000036673Y0000102500D03*
X0000033327Y0000092500D03*
X0000036673Y0000092500D03*
X0000335827Y0000115000D03*
X0000339173Y0000115000D03*
X0000251673Y0000105000D03*
X0000289173Y0000115000D03*
X0000285827Y0000115000D03*
G54D55*
X0000382598Y0000055000D03*
X0000357402Y0000055000D03*
X0000362598Y0000132500D03*
X0000337402Y0000132500D03*
X0000382598Y0000080000D03*
X0000357402Y0000080000D03*
X0000382598Y0000105000D03*
X0000357402Y0000105000D03*
G54D46*
X0000229500Y0000196555D03*
X0000229500Y0000178445D03*
X0000229500Y0000166555D03*
X0000229500Y0000148445D03*
X0000387500Y0000039055D03*
X0000387500Y0000020945D03*
X0000304000Y0000138555D03*
X0000304000Y0000120445D03*
X0000320000Y0000138555D03*
X0000320000Y0000120445D03*
G54D19*
X0000040000Y0000030000D03*
X0000042500Y0000322500D03*
X0000470000Y0000325000D03*
G54D56*
X0000448622Y0000036339D03*
X0000448622Y0000033780D03*
X0000448622Y0000031220D03*
X0000448622Y0000028661D03*
X0000426378Y0000033780D03*
X0000426378Y0000036339D03*
X0000426378Y0000031220D03*
X0000426378Y0000028661D03*
G54D29*
X0000195453Y0000201496D03*
X0000193484Y0000201496D03*
X0000191516Y0000201496D03*
X0000189547Y0000201496D03*
X0000189547Y0000213504D03*
X0000191516Y0000213504D03*
X0000193484Y0000213504D03*
X0000195453Y0000213504D03*
G54D38*
X0000127500Y0000096673D03*
X0000127500Y0000093327D03*
X0000132500Y0000096673D03*
X0000132500Y0000093327D03*
X0000055000Y0000206673D03*
X0000055000Y0000203327D03*
X0000070000Y0000105827D03*
X0000070000Y0000109173D03*
X0000075000Y0000105827D03*
X0000075000Y0000109173D03*
X0000190000Y0000283327D03*
X0000190000Y0000286673D03*
X0000195000Y0000283327D03*
X0000195000Y0000286673D03*
X0000200000Y0000283327D03*
X0000200000Y0000286673D03*
X0000180000Y0000134173D03*
X0000180000Y0000130827D03*
X0000175000Y0000134173D03*
X0000175000Y0000130827D03*
X0000155000Y0000286673D03*
X0000155000Y0000283327D03*
X0000127500Y0000103327D03*
X0000127500Y0000106673D03*
X0000185000Y0000134173D03*
X0000185000Y0000130827D03*
X0000190000Y0000134173D03*
X0000190000Y0000130827D03*
X0000180000Y0000075827D03*
X0000180000Y0000079173D03*
X0000137500Y0000096673D03*
X0000137500Y0000093327D03*
X0000142500Y0000096673D03*
X0000142500Y0000093327D03*
X0000257500Y0000159173D03*
X0000257500Y0000155827D03*
X0000262500Y0000159173D03*
X0000262500Y0000155827D03*
X0000255000Y0000126673D03*
X0000255000Y0000123327D03*
X0000325000Y0000335827D03*
X0000325000Y0000339173D03*
X0000310000Y0000335827D03*
X0000310000Y0000339173D03*
X0000267500Y0000159173D03*
X0000267500Y0000155827D03*
G54D47*
X0000250945Y0000077500D03*
X0000269055Y0000077500D03*
G54D48*
X0000141476Y0000205000D03*
X0000163524Y0000205000D03*
X0000141476Y0000200000D03*
X0000163524Y0000200000D03*
X0000141476Y0000195000D03*
X0000163524Y0000195000D03*
X0000141476Y0000190000D03*
X0000163524Y0000190000D03*
G54D57*
X0000345945Y0000179055D03*
X0000342795Y0000179055D03*
X0000339646Y0000179055D03*
X0000336496Y0000179055D03*
X0000333346Y0000179055D03*
X0000330197Y0000179055D03*
X0000327047Y0000179055D03*
X0000323898Y0000179055D03*
X0000320748Y0000179055D03*
X0000317598Y0000179055D03*
X0000314449Y0000179055D03*
X0000311299Y0000179055D03*
X0000308150Y0000179055D03*
X0000305000Y0000179055D03*
X0000301850Y0000179055D03*
X0000298701Y0000179055D03*
X0000295551Y0000179055D03*
X0000292402Y0000179055D03*
X0000289252Y0000179055D03*
X0000286102Y0000179055D03*
X0000282953Y0000179055D03*
X0000279803Y0000179055D03*
X0000276654Y0000179055D03*
X0000273504Y0000179055D03*
X0000270354Y0000179055D03*
X0000267205Y0000179055D03*
X0000264055Y0000179055D03*
X0000345945Y0000182205D03*
X0000342795Y0000182205D03*
X0000339646Y0000182205D03*
X0000336496Y0000182205D03*
X0000333346Y0000182205D03*
X0000330197Y0000182205D03*
X0000327047Y0000182205D03*
X0000323898Y0000182205D03*
X0000320748Y0000182205D03*
X0000317598Y0000182205D03*
X0000314449Y0000182205D03*
X0000311299Y0000182205D03*
X0000308150Y0000182205D03*
X0000305000Y0000182205D03*
X0000301850Y0000182205D03*
X0000298701Y0000182205D03*
X0000295551Y0000182205D03*
X0000292402Y0000182205D03*
X0000289252Y0000182205D03*
X0000286102Y0000182205D03*
X0000282953Y0000182205D03*
X0000279803Y0000182205D03*
X0000276654Y0000182205D03*
X0000273504Y0000182205D03*
X0000270354Y0000182205D03*
X0000267205Y0000182205D03*
X0000264055Y0000182205D03*
X0000345945Y0000185354D03*
X0000342795Y0000185354D03*
X0000339646Y0000185354D03*
X0000336496Y0000185354D03*
X0000333346Y0000185354D03*
X0000330197Y0000185354D03*
X0000327047Y0000185354D03*
X0000323898Y0000185354D03*
X0000320748Y0000185354D03*
X0000317598Y0000185354D03*
X0000314449Y0000185354D03*
X0000311299Y0000185354D03*
X0000308150Y0000185354D03*
X0000305000Y0000185354D03*
X0000301850Y0000185354D03*
X0000298701Y0000185354D03*
X0000295551Y0000185354D03*
X0000292402Y0000185354D03*
X0000289252Y0000185354D03*
X0000286102Y0000185354D03*
X0000282953Y0000185354D03*
X0000279803Y0000185354D03*
X0000276654Y0000185354D03*
X0000273504Y0000185354D03*
X0000270354Y0000185354D03*
X0000267205Y0000185354D03*
X0000264055Y0000185354D03*
X0000345945Y0000188504D03*
X0000342795Y0000188504D03*
X0000339646Y0000188504D03*
X0000336496Y0000188504D03*
X0000333346Y0000188504D03*
X0000330197Y0000188504D03*
X0000327047Y0000188504D03*
X0000323898Y0000188504D03*
X0000320748Y0000188504D03*
X0000317598Y0000188504D03*
X0000314449Y0000188504D03*
X0000311299Y0000188504D03*
X0000308150Y0000188504D03*
X0000305000Y0000188504D03*
X0000301850Y0000188504D03*
X0000298701Y0000188504D03*
X0000295551Y0000188504D03*
X0000292402Y0000188504D03*
X0000289252Y0000188504D03*
X0000286102Y0000188504D03*
X0000282953Y0000188504D03*
X0000279803Y0000188504D03*
X0000276654Y0000188504D03*
X0000273504Y0000188504D03*
X0000270354Y0000188504D03*
X0000267205Y0000188504D03*
X0000264055Y0000188504D03*
X0000345945Y0000191654D03*
X0000342795Y0000191654D03*
X0000339646Y0000191654D03*
X0000336496Y0000191654D03*
X0000333346Y0000191654D03*
X0000330197Y0000191654D03*
X0000327047Y0000191654D03*
X0000323898Y0000191654D03*
X0000320748Y0000191654D03*
X0000317598Y0000191654D03*
X0000314449Y0000191654D03*
X0000311299Y0000191654D03*
X0000308150Y0000191654D03*
X0000305000Y0000191654D03*
X0000301850Y0000191654D03*
X0000298701Y0000191654D03*
X0000295551Y0000191654D03*
X0000292402Y0000191654D03*
X0000289252Y0000191654D03*
X0000286102Y0000191654D03*
X0000282953Y0000191654D03*
X0000279803Y0000191654D03*
X0000276654Y0000191654D03*
X0000273504Y0000191654D03*
X0000270354Y0000191654D03*
X0000267205Y0000191654D03*
X0000264055Y0000191654D03*
X0000345945Y0000194803D03*
X0000342795Y0000194803D03*
X0000339646Y0000194803D03*
X0000336496Y0000194803D03*
X0000333346Y0000194803D03*
X0000276654Y0000194803D03*
X0000273504Y0000194803D03*
X0000270354Y0000194803D03*
X0000267205Y0000194803D03*
X0000264055Y0000194803D03*
X0000345945Y0000197953D03*
X0000342795Y0000197953D03*
X0000339646Y0000197953D03*
X0000336496Y0000197953D03*
X0000333346Y0000197953D03*
X0000276654Y0000197953D03*
X0000273504Y0000197953D03*
X0000270354Y0000197953D03*
X0000267205Y0000197953D03*
X0000264055Y0000197953D03*
X0000345945Y0000201102D03*
X0000342795Y0000201102D03*
X0000339646Y0000201102D03*
X0000336496Y0000201102D03*
X0000333346Y0000201102D03*
X0000276654Y0000201102D03*
X0000273504Y0000201102D03*
X0000270354Y0000201102D03*
X0000267205Y0000201102D03*
X0000264055Y0000201102D03*
X0000345945Y0000204252D03*
X0000342795Y0000204252D03*
X0000339646Y0000204252D03*
X0000336496Y0000204252D03*
X0000333346Y0000204252D03*
X0000320748Y0000204252D03*
X0000317598Y0000204252D03*
X0000314449Y0000204252D03*
X0000311299Y0000204252D03*
X0000308150Y0000204252D03*
X0000305000Y0000204252D03*
X0000301850Y0000204252D03*
X0000298701Y0000204252D03*
X0000295551Y0000204252D03*
X0000292402Y0000204252D03*
X0000289252Y0000204252D03*
X0000276654Y0000204252D03*
X0000273504Y0000204252D03*
X0000270354Y0000204252D03*
X0000267205Y0000204252D03*
X0000264055Y0000204252D03*
X0000345945Y0000207402D03*
X0000342795Y0000207402D03*
X0000339646Y0000207402D03*
X0000336496Y0000207402D03*
X0000333346Y0000207402D03*
X0000320748Y0000207402D03*
X0000317598Y0000207402D03*
X0000314449Y0000207402D03*
X0000311299Y0000207402D03*
X0000308150Y0000207402D03*
X0000305000Y0000207402D03*
X0000301850Y0000207402D03*
X0000298701Y0000207402D03*
X0000295551Y0000207402D03*
X0000292402Y0000207402D03*
X0000289252Y0000207402D03*
X0000276654Y0000207402D03*
X0000273504Y0000207402D03*
X0000270354Y0000207402D03*
X0000267205Y0000207402D03*
X0000264055Y0000207402D03*
X0000345945Y0000210551D03*
X0000342795Y0000210551D03*
X0000339646Y0000210551D03*
X0000336496Y0000210551D03*
X0000333346Y0000210551D03*
X0000320748Y0000210551D03*
X0000317598Y0000210551D03*
X0000314449Y0000210551D03*
X0000311299Y0000210551D03*
X0000308150Y0000210551D03*
X0000305000Y0000210551D03*
X0000301850Y0000210551D03*
X0000298701Y0000210551D03*
X0000295551Y0000210551D03*
X0000292402Y0000210551D03*
X0000289252Y0000210551D03*
X0000276654Y0000210551D03*
X0000273504Y0000210551D03*
X0000270354Y0000210551D03*
X0000267205Y0000210551D03*
X0000264055Y0000210551D03*
X0000345945Y0000213701D03*
X0000342795Y0000213701D03*
X0000339646Y0000213701D03*
X0000336496Y0000213701D03*
X0000333346Y0000213701D03*
X0000320748Y0000213701D03*
X0000317598Y0000213701D03*
X0000314449Y0000213701D03*
X0000311299Y0000213701D03*
X0000308150Y0000213701D03*
X0000305000Y0000213701D03*
X0000301850Y0000213701D03*
X0000298701Y0000213701D03*
X0000295551Y0000213701D03*
X0000292402Y0000213701D03*
X0000289252Y0000213701D03*
X0000276654Y0000213701D03*
X0000273504Y0000213701D03*
X0000270354Y0000213701D03*
X0000267205Y0000213701D03*
X0000264055Y0000213701D03*
X0000345945Y0000216850D03*
X0000342795Y0000216850D03*
X0000339646Y0000216850D03*
X0000336496Y0000216850D03*
X0000333346Y0000216850D03*
X0000320748Y0000216850D03*
X0000317598Y0000216850D03*
X0000314449Y0000216850D03*
X0000311299Y0000216850D03*
X0000308150Y0000216850D03*
X0000305000Y0000216850D03*
X0000301850Y0000216850D03*
X0000298701Y0000216850D03*
X0000295551Y0000216850D03*
X0000292402Y0000216850D03*
X0000289252Y0000216850D03*
X0000276654Y0000216850D03*
X0000273504Y0000216850D03*
X0000270354Y0000216850D03*
X0000267205Y0000216850D03*
X0000264055Y0000216850D03*
X0000345945Y0000220000D03*
X0000342795Y0000220000D03*
X0000339646Y0000220000D03*
X0000336496Y0000220000D03*
X0000333346Y0000220000D03*
X0000320748Y0000220000D03*
X0000317598Y0000220000D03*
X0000314449Y0000220000D03*
X0000311299Y0000220000D03*
X0000308150Y0000220000D03*
X0000305000Y0000220000D03*
X0000301850Y0000220000D03*
X0000298701Y0000220000D03*
X0000295551Y0000220000D03*
X0000292402Y0000220000D03*
X0000289252Y0000220000D03*
X0000276654Y0000220000D03*
X0000273504Y0000220000D03*
X0000270354Y0000220000D03*
X0000267205Y0000220000D03*
X0000264055Y0000220000D03*
X0000345945Y0000223150D03*
X0000342795Y0000223150D03*
X0000339646Y0000223150D03*
X0000336496Y0000223150D03*
X0000333346Y0000223150D03*
X0000320748Y0000223150D03*
X0000317598Y0000223150D03*
X0000314449Y0000223150D03*
X0000311299Y0000223150D03*
X0000308150Y0000223150D03*
X0000305000Y0000223150D03*
X0000301850Y0000223150D03*
X0000298701Y0000223150D03*
X0000295551Y0000223150D03*
X0000292402Y0000223150D03*
X0000289252Y0000223150D03*
X0000276654Y0000223150D03*
X0000273504Y0000223150D03*
X0000270354Y0000223150D03*
X0000267205Y0000223150D03*
X0000264055Y0000223150D03*
X0000345945Y0000226299D03*
X0000342795Y0000226299D03*
X0000339646Y0000226299D03*
X0000336496Y0000226299D03*
X0000333346Y0000226299D03*
X0000320748Y0000226299D03*
X0000317598Y0000226299D03*
X0000314449Y0000226299D03*
X0000311299Y0000226299D03*
X0000308150Y0000226299D03*
X0000305000Y0000226299D03*
X0000301850Y0000226299D03*
X0000298701Y0000226299D03*
X0000295551Y0000226299D03*
X0000292402Y0000226299D03*
X0000289252Y0000226299D03*
X0000276654Y0000226299D03*
X0000273504Y0000226299D03*
X0000270354Y0000226299D03*
X0000267205Y0000226299D03*
X0000264055Y0000226299D03*
X0000345945Y0000229449D03*
X0000342795Y0000229449D03*
X0000339646Y0000229449D03*
X0000336496Y0000229449D03*
X0000333346Y0000229449D03*
X0000320748Y0000229449D03*
X0000317598Y0000229449D03*
X0000314449Y0000229449D03*
X0000311299Y0000229449D03*
X0000308150Y0000229449D03*
X0000305000Y0000229449D03*
X0000301850Y0000229449D03*
X0000298701Y0000229449D03*
X0000295551Y0000229449D03*
X0000292402Y0000229449D03*
X0000289252Y0000229449D03*
X0000276654Y0000229449D03*
X0000273504Y0000229449D03*
X0000270354Y0000229449D03*
X0000267205Y0000229449D03*
X0000264055Y0000229449D03*
X0000345945Y0000232598D03*
X0000342795Y0000232598D03*
X0000339646Y0000232598D03*
X0000336496Y0000232598D03*
X0000333346Y0000232598D03*
X0000320748Y0000232598D03*
X0000317598Y0000232598D03*
X0000314449Y0000232598D03*
X0000311299Y0000232598D03*
X0000308150Y0000232598D03*
X0000305000Y0000232598D03*
X0000301850Y0000232598D03*
X0000298701Y0000232598D03*
X0000295551Y0000232598D03*
X0000292402Y0000232598D03*
X0000289252Y0000232598D03*
X0000276654Y0000232598D03*
X0000273504Y0000232598D03*
X0000270354Y0000232598D03*
X0000267205Y0000232598D03*
X0000264055Y0000232598D03*
X0000345945Y0000235748D03*
X0000342795Y0000235748D03*
X0000339646Y0000235748D03*
X0000336496Y0000235748D03*
X0000333346Y0000235748D03*
X0000320748Y0000235748D03*
X0000317598Y0000235748D03*
X0000314449Y0000235748D03*
X0000311299Y0000235748D03*
X0000308150Y0000235748D03*
X0000305000Y0000235748D03*
X0000301850Y0000235748D03*
X0000298701Y0000235748D03*
X0000295551Y0000235748D03*
X0000292402Y0000235748D03*
X0000289252Y0000235748D03*
X0000276654Y0000235748D03*
X0000273504Y0000235748D03*
X0000270354Y0000235748D03*
X0000267205Y0000235748D03*
X0000264055Y0000235748D03*
X0000345945Y0000238898D03*
X0000342795Y0000238898D03*
X0000339646Y0000238898D03*
X0000336496Y0000238898D03*
X0000333346Y0000238898D03*
X0000276654Y0000238898D03*
X0000273504Y0000238898D03*
X0000270354Y0000238898D03*
X0000267205Y0000238898D03*
X0000264055Y0000238898D03*
X0000345945Y0000242047D03*
X0000342795Y0000242047D03*
X0000339646Y0000242047D03*
X0000336496Y0000242047D03*
X0000333346Y0000242047D03*
X0000276654Y0000242047D03*
X0000273504Y0000242047D03*
X0000270354Y0000242047D03*
X0000267205Y0000242047D03*
X0000264055Y0000242047D03*
X0000345945Y0000245197D03*
X0000342795Y0000245197D03*
X0000339646Y0000245197D03*
X0000336496Y0000245197D03*
X0000333346Y0000245197D03*
X0000276654Y0000245197D03*
X0000273504Y0000245197D03*
X0000270354Y0000245197D03*
X0000267205Y0000245197D03*
X0000264055Y0000245197D03*
X0000345945Y0000248346D03*
X0000342795Y0000248346D03*
X0000339646Y0000248346D03*
X0000336496Y0000248346D03*
X0000333346Y0000248346D03*
X0000330197Y0000248346D03*
X0000327047Y0000248346D03*
X0000323898Y0000248346D03*
X0000320748Y0000248346D03*
X0000317598Y0000248346D03*
X0000314449Y0000248346D03*
X0000311299Y0000248346D03*
X0000308150Y0000248346D03*
X0000305000Y0000248346D03*
X0000301850Y0000248346D03*
X0000298701Y0000248346D03*
X0000295551Y0000248346D03*
X0000292402Y0000248346D03*
X0000289252Y0000248346D03*
X0000286102Y0000248346D03*
X0000282953Y0000248346D03*
X0000279803Y0000248346D03*
X0000276654Y0000248346D03*
X0000273504Y0000248346D03*
X0000270354Y0000248346D03*
X0000267205Y0000248346D03*
X0000264055Y0000248346D03*
X0000345945Y0000251496D03*
X0000342795Y0000251496D03*
X0000339646Y0000251496D03*
X0000336496Y0000251496D03*
X0000333346Y0000251496D03*
X0000330197Y0000251496D03*
X0000327047Y0000251496D03*
X0000323898Y0000251496D03*
X0000320748Y0000251496D03*
X0000317598Y0000251496D03*
X0000314449Y0000251496D03*
X0000311299Y0000251496D03*
X0000308150Y0000251496D03*
X0000305000Y0000251496D03*
X0000301850Y0000251496D03*
X0000298701Y0000251496D03*
X0000295551Y0000251496D03*
X0000292402Y0000251496D03*
X0000289252Y0000251496D03*
X0000286102Y0000251496D03*
X0000282953Y0000251496D03*
X0000279803Y0000251496D03*
X0000276654Y0000251496D03*
X0000273504Y0000251496D03*
X0000270354Y0000251496D03*
X0000267205Y0000251496D03*
X0000264055Y0000251496D03*
X0000345945Y0000254646D03*
X0000342795Y0000254646D03*
X0000339646Y0000254646D03*
X0000336496Y0000254646D03*
X0000333346Y0000254646D03*
X0000330197Y0000254646D03*
X0000327047Y0000254646D03*
X0000323898Y0000254646D03*
X0000320748Y0000254646D03*
X0000317598Y0000254646D03*
X0000314449Y0000254646D03*
X0000311299Y0000254646D03*
X0000308150Y0000254646D03*
X0000305000Y0000254646D03*
X0000301850Y0000254646D03*
X0000298701Y0000254646D03*
X0000295551Y0000254646D03*
X0000292402Y0000254646D03*
X0000289252Y0000254646D03*
X0000286102Y0000254646D03*
X0000282953Y0000254646D03*
X0000279803Y0000254646D03*
X0000276654Y0000254646D03*
X0000273504Y0000254646D03*
X0000270354Y0000254646D03*
X0000267205Y0000254646D03*
X0000264055Y0000254646D03*
X0000345945Y0000257795D03*
X0000342795Y0000257795D03*
X0000339646Y0000257795D03*
X0000336496Y0000257795D03*
X0000333346Y0000257795D03*
X0000330197Y0000257795D03*
X0000327047Y0000257795D03*
X0000323898Y0000257795D03*
X0000320748Y0000257795D03*
X0000317598Y0000257795D03*
X0000314449Y0000257795D03*
X0000311299Y0000257795D03*
X0000308150Y0000257795D03*
X0000305000Y0000257795D03*
X0000301850Y0000257795D03*
X0000298701Y0000257795D03*
X0000295551Y0000257795D03*
X0000292402Y0000257795D03*
X0000289252Y0000257795D03*
X0000286102Y0000257795D03*
X0000282953Y0000257795D03*
X0000279803Y0000257795D03*
X0000276654Y0000257795D03*
X0000273504Y0000257795D03*
X0000270354Y0000257795D03*
X0000267205Y0000257795D03*
X0000264055Y0000257795D03*
X0000345945Y0000260945D03*
X0000342795Y0000260945D03*
X0000339646Y0000260945D03*
X0000336496Y0000260945D03*
X0000333346Y0000260945D03*
X0000330197Y0000260945D03*
X0000327047Y0000260945D03*
X0000323898Y0000260945D03*
X0000320748Y0000260945D03*
X0000317598Y0000260945D03*
X0000314449Y0000260945D03*
X0000311299Y0000260945D03*
X0000308150Y0000260945D03*
X0000305000Y0000260945D03*
X0000301850Y0000260945D03*
X0000298701Y0000260945D03*
X0000295551Y0000260945D03*
X0000292402Y0000260945D03*
X0000289252Y0000260945D03*
X0000286102Y0000260945D03*
X0000282953Y0000260945D03*
X0000279803Y0000260945D03*
X0000276654Y0000260945D03*
X0000273504Y0000260945D03*
X0000270354Y0000260945D03*
X0000267205Y0000260945D03*
X0000264055Y0000260945D03*
X0000467047Y0000209449D03*
X0000467047Y0000206299D03*
X0000467047Y0000193701D03*
X0000467047Y0000190551D03*
X0000467047Y0000187402D03*
X0000463898Y0000212598D03*
X0000463898Y0000209449D03*
X0000463898Y0000206299D03*
X0000463898Y0000193701D03*
X0000463898Y0000190551D03*
X0000460748Y0000209449D03*
X0000460748Y0000206299D03*
X0000460748Y0000193701D03*
X0000460748Y0000190551D03*
X0000460748Y0000187402D03*
X0000457598Y0000212598D03*
X0000457598Y0000209449D03*
X0000457598Y0000206299D03*
X0000457598Y0000193701D03*
X0000457598Y0000190551D03*
X0000454449Y0000209449D03*
X0000454449Y0000206299D03*
X0000454449Y0000193701D03*
X0000454449Y0000190551D03*
X0000454449Y0000187402D03*
X0000451299Y0000212598D03*
X0000451299Y0000209449D03*
X0000451299Y0000206299D03*
X0000451299Y0000193701D03*
X0000451299Y0000190551D03*
X0000448150Y0000212598D03*
X0000448150Y0000209449D03*
X0000448150Y0000206299D03*
X0000448150Y0000193701D03*
X0000448150Y0000190551D03*
X0000448150Y0000187402D03*
X0000445000Y0000212598D03*
X0000445000Y0000209449D03*
X0000445000Y0000206299D03*
X0000445000Y0000193701D03*
X0000445000Y0000190551D03*
X0000445000Y0000187402D03*
X0000441850Y0000212598D03*
X0000441850Y0000209449D03*
X0000441850Y0000206299D03*
X0000441850Y0000193701D03*
X0000441850Y0000190551D03*
X0000441850Y0000187402D03*
X0000438701Y0000212598D03*
X0000438701Y0000209449D03*
X0000438701Y0000206299D03*
X0000438701Y0000193701D03*
X0000438701Y0000190551D03*
X0000438701Y0000187402D03*
X0000435551Y0000212598D03*
X0000435551Y0000209449D03*
X0000435551Y0000206299D03*
X0000435551Y0000193701D03*
X0000435551Y0000190551D03*
X0000435551Y0000187402D03*
X0000432402Y0000212598D03*
X0000432402Y0000209449D03*
X0000432402Y0000206299D03*
X0000432402Y0000193701D03*
X0000432402Y0000190551D03*
X0000432402Y0000187402D03*
X0000429252Y0000212598D03*
X0000429252Y0000209449D03*
X0000429252Y0000206299D03*
X0000429252Y0000193701D03*
X0000429252Y0000190551D03*
X0000429252Y0000187402D03*
X0000426102Y0000212598D03*
X0000426102Y0000209449D03*
X0000426102Y0000206299D03*
X0000426102Y0000193701D03*
X0000426102Y0000190551D03*
X0000426102Y0000187402D03*
X0000422953Y0000212598D03*
X0000422953Y0000209449D03*
X0000422953Y0000206299D03*
X0000422953Y0000193701D03*
X0000422953Y0000190551D03*
X0000422953Y0000187402D03*
X0000467047Y0000274449D03*
X0000467047Y0000271299D03*
X0000467047Y0000258701D03*
X0000467047Y0000255551D03*
X0000467047Y0000252402D03*
X0000463898Y0000277598D03*
X0000463898Y0000274449D03*
X0000463898Y0000271299D03*
X0000463898Y0000258701D03*
X0000463898Y0000255551D03*
X0000460748Y0000274449D03*
X0000460748Y0000271299D03*
X0000460748Y0000258701D03*
X0000460748Y0000255551D03*
X0000460748Y0000252402D03*
X0000457598Y0000277598D03*
X0000457598Y0000274449D03*
X0000457598Y0000271299D03*
X0000457598Y0000258701D03*
X0000457598Y0000255551D03*
X0000454449Y0000274449D03*
X0000454449Y0000271299D03*
X0000454449Y0000258701D03*
X0000454449Y0000255551D03*
X0000454449Y0000252402D03*
X0000451299Y0000277598D03*
X0000451299Y0000274449D03*
X0000451299Y0000271299D03*
X0000451299Y0000258701D03*
X0000451299Y0000255551D03*
X0000448150Y0000277598D03*
X0000448150Y0000274449D03*
X0000448150Y0000271299D03*
X0000448150Y0000258701D03*
X0000448150Y0000255551D03*
X0000448150Y0000252402D03*
X0000445000Y0000277598D03*
X0000445000Y0000274449D03*
X0000445000Y0000271299D03*
X0000445000Y0000258701D03*
X0000445000Y0000255551D03*
X0000445000Y0000252402D03*
X0000441850Y0000277598D03*
X0000441850Y0000274449D03*
X0000441850Y0000271299D03*
X0000441850Y0000258701D03*
X0000441850Y0000255551D03*
X0000441850Y0000252402D03*
X0000438701Y0000277598D03*
X0000438701Y0000274449D03*
X0000438701Y0000271299D03*
X0000438701Y0000258701D03*
X0000438701Y0000255551D03*
X0000438701Y0000252402D03*
X0000435551Y0000277598D03*
X0000435551Y0000274449D03*
X0000435551Y0000271299D03*
X0000435551Y0000258701D03*
X0000435551Y0000255551D03*
X0000435551Y0000252402D03*
X0000432402Y0000277598D03*
X0000432402Y0000274449D03*
X0000432402Y0000271299D03*
X0000432402Y0000258701D03*
X0000432402Y0000255551D03*
X0000432402Y0000252402D03*
X0000429252Y0000277598D03*
X0000429252Y0000274449D03*
X0000429252Y0000271299D03*
X0000429252Y0000258701D03*
X0000429252Y0000255551D03*
X0000429252Y0000252402D03*
X0000426102Y0000277598D03*
X0000426102Y0000274449D03*
X0000426102Y0000271299D03*
X0000426102Y0000258701D03*
X0000426102Y0000255551D03*
X0000426102Y0000252402D03*
X0000422953Y0000277598D03*
X0000422953Y0000274449D03*
X0000422953Y0000271299D03*
X0000422953Y0000258701D03*
X0000422953Y0000255551D03*
X0000422953Y0000252402D03*
G54D39*
X0000247008Y0000100000D03*
X0000224508Y0000110000D03*
X0000230492Y0000110000D03*
X0000250000Y0000127992D03*
X0000250000Y0000122008D03*
X0000222008Y0000280000D03*
X0000227992Y0000280000D03*
X0000125000Y0000287992D03*
X0000125000Y0000282008D03*
X0000120000Y0000287992D03*
X0000120000Y0000282008D03*
X0000235000Y0000215492D03*
X0000235000Y0000209508D03*
X0000197500Y0000190492D03*
X0000197500Y0000184508D03*
X0000187500Y0000184508D03*
X0000187500Y0000190492D03*
X0000192500Y0000184508D03*
X0000192500Y0000190492D03*
X0000190000Y0000230492D03*
X0000190000Y0000224508D03*
X0000195000Y0000230492D03*
X0000195000Y0000224508D03*
X0000200000Y0000074500D03*
X0000200000Y0000080500D03*
X0000210000Y0000135500D03*
X0000210000Y0000129500D03*
X0000100500Y0000097500D03*
X0000094500Y0000097500D03*
X0000105000Y0000119500D03*
X0000105000Y0000125500D03*
X0000049500Y0000167500D03*
X0000055500Y0000167500D03*
X0000415000Y0000037992D03*
X0000415000Y0000032008D03*
X0000405000Y0000242008D03*
X0000405000Y0000247992D03*
X0000252992Y0000100000D03*
X0000409508Y0000120000D03*
X0000415492Y0000120000D03*
X0000267992Y0000105000D03*
X0000262008Y0000105000D03*
X0000415492Y0000055000D03*
X0000409508Y0000055000D03*
X0000409508Y0000060000D03*
X0000415492Y0000060000D03*
X0000415492Y0000115000D03*
X0000409508Y0000115000D03*
G54D49*
X0000200000Y0000168524D03*
X0000200000Y0000146476D03*
X0000195000Y0000168524D03*
X0000195000Y0000146476D03*
X0000190000Y0000168524D03*
X0000190000Y0000146476D03*
X0000185000Y0000168524D03*
X0000185000Y0000146476D03*
G54D58*
X0000373500Y0000220000D03*
X0000366500Y0000220000D03*
X0000366500Y0000190000D03*
X0000373500Y0000190000D03*
G54D59*
G01X0000193405Y-0000025000D02*
X0000193405Y-0000015000D01*
X0000196405Y-0000015000D01*
X0000197405Y-0000015500D01*
X0000198155Y-0000016667D01*
X0000198405Y-0000018000D01*
X0000198155Y-0000019333D01*
X0000197530Y-0000020333D01*
X0000196405Y-0000020834D01*
X0000193405Y-0000020834D01*
G01X0000202780Y-0000025000D02*
X0000205905Y-0000015000D01*
X0000209030Y-0000025000D01*
G01X0000207905Y-0000021500D02*
X0000203905Y-0000021500D01*
G01X0000213280Y-0000023667D02*
X0000214280Y-0000024500D01*
X0000215405Y-0000025000D01*
X0000216405Y-0000025000D01*
X0000217405Y-0000024500D01*
X0000218155Y-0000023667D01*
X0000218530Y-0000022500D01*
X0000218280Y-0000021334D01*
X0000217655Y-0000020333D01*
X0000216530Y-0000019667D01*
X0000215030Y-0000019333D01*
X0000214155Y-0000018667D01*
X0000213780Y-0000017500D01*
X0000214030Y-0000016333D01*
X0000214655Y-0000015500D01*
X0000215530Y-0000015000D01*
X0000216405Y-0000015000D01*
X0000217280Y-0000015333D01*
X0000218030Y-0000016167D01*
G01X0000225905Y-0000015000D02*
X0000225905Y-0000025000D01*
G01X0000223030Y-0000015000D02*
X0000228780Y-0000015000D01*
G01X0000238405Y-0000025000D02*
X0000233405Y-0000025000D01*
X0000233405Y-0000015000D01*
X0000238405Y-0000015000D01*
G01X0000236405Y-0000019833D02*
X0000233405Y-0000019833D01*
G01X0000242655Y-0000025000D02*
X0000242655Y-0000015000D01*
X0000245905Y-0000023333D01*
X0000249155Y-0000015000D01*
X0000249155Y-0000025000D01*
G01X0000252780Y-0000025000D02*
X0000255905Y-0000015000D01*
X0000259030Y-0000025000D01*
G01X0000257905Y-0000021500D02*
X0000253905Y-0000021500D01*
G01X0000263280Y-0000023667D02*
X0000264280Y-0000024500D01*
X0000265405Y-0000025000D01*
X0000266405Y-0000025000D01*
X0000267405Y-0000024500D01*
X0000268155Y-0000023667D01*
X0000268530Y-0000022500D01*
X0000268280Y-0000021334D01*
X0000267655Y-0000020333D01*
X0000266530Y-0000019667D01*
X0000265030Y-0000019333D01*
X0000264155Y-0000018667D01*
X0000263780Y-0000017500D01*
X0000264030Y-0000016333D01*
X0000264655Y-0000015500D01*
X0000265530Y-0000015000D01*
X0000266405Y-0000015000D01*
X0000267280Y-0000015333D01*
X0000268030Y-0000016167D01*
G01X0000273155Y-0000025000D02*
X0000273155Y-0000015000D01*
G01X0000277905Y-0000015000D02*
X0000273155Y-0000021167D01*
G01X0000278655Y-0000025000D02*
X0000275280Y-0000018334D01*
G01X0000295905Y-0000015000D02*
X0000295905Y-0000025000D01*
G01X0000293030Y-0000015000D02*
X0000298780Y-0000015000D01*
G01X0000305905Y-0000025000D02*
X0000304905Y-0000024833D01*
X0000304030Y-0000024167D01*
X0000303280Y-0000023167D01*
X0000302780Y-0000022000D01*
X0000302530Y-0000020667D01*
X0000302530Y-0000019333D01*
X0000302780Y-0000018000D01*
X0000303280Y-0000016833D01*
X0000304030Y-0000015833D01*
X0000304905Y-0000015167D01*
X0000305905Y-0000015000D01*
X0000306905Y-0000015167D01*
X0000307780Y-0000015833D01*
X0000308530Y-0000016833D01*
X0000309030Y-0000018000D01*
X0000309280Y-0000019333D01*
X0000309280Y-0000020667D01*
X0000309030Y-0000022000D01*
X0000308530Y-0000023167D01*
X0000307780Y-0000024167D01*
X0000306905Y-0000024833D01*
X0000305905Y-0000025000D01*
G01X0000313405Y-0000025000D02*
X0000313405Y-0000015000D01*
X0000316405Y-0000015000D01*
X0000317405Y-0000015500D01*
X0000318155Y-0000016667D01*
X0000318405Y-0000018000D01*
X0000318155Y-0000019333D01*
X0000317530Y-0000020333D01*
X0000316405Y-0000020834D01*
X0000313405Y-0000020834D01*
G01X0Y0D02*
X0000511811Y0D01*
X0000511811Y0000354331D01*
X0Y0000354331D01*
X0Y0D01*
M02*
