G04 ================== begin FILE IDENTIFICATION RECORD ==================*
G04 Layout Name:  D:/wangmin/2011/MAY/DSPDB/pcb/FINAL/dspdb.brd*
G04 Film Name:    pgp05*
G04 File Format:  Gerber RS274X*
G04 File Origin:  15.51-s011*
G04 Origin Date:  Mon Jul 04 18:33:06 2011*
G04 ================== end FILE IDENTIFICATION RECORD ====================*
%FSAX55Y55*MOIN*%
%IR0*IPPOS*OFA0.00000B0.00000*MIA0B0*SFA1.00000B1.00000*%
%ADD19C,.03*%
%ADD12C,.032*%
%ADD25C,.026*%
%ADD11C,.072*%
%ADD17C,.067*%
%ADD14C,.058*%
%ADD16C,.068*%
%ADD23C,.087*%
%ADD15C,.078*%
%AMMACRO18*
4,1,46,.03105,-.01258,
.030733,-.013201,
.030313,-.013758,
.029803,-.014234,
.029218,-.014614,
.028576,-.014886,
.027896,-.015043,
.027199,-.015079,
.026507,-.014994,
.02584,-.01479,
.025219,-.014473,
.024662,-.014053,
.024186,-.013543,
.023806,-.012958,
.023534,-.012316,
.023377,-.011636,
.023341,-.010939,
.023426,-.010247,
.02363,-.00958,
.024935,-.005331,
.025481,-.00092,
.025254,.003519,
.024259,.007851,
.02363,.00958,
.023426,.010247,
.023341,.010939,
.023377,.011636,
.023534,.012316,
.023806,.012958,
.024186,.013543,
.024662,.014053,
.025219,.014473,
.02584,.01479,
.026507,.014994,
.027199,.015079,
.027896,.015043,
.028576,.014886,
.029218,.014614,
.029803,.014234,
.030313,.013758,
.030733,.013201,
.03105,.01258,
.032763,.006997,
.03348,.001202,
.03318,-.00463,
.031872,-.010321,
.03105,-.01258,
90.*
4,1,46,-.01258,-.03105,
-.013201,-.030733,
-.013758,-.030313,
-.014234,-.029803,
-.014614,-.029218,
-.014886,-.028576,
-.015043,-.027896,
-.015079,-.027199,
-.014994,-.026507,
-.01479,-.02584,
-.014473,-.025219,
-.014053,-.024662,
-.013543,-.024186,
-.012958,-.023806,
-.012316,-.023534,
-.011636,-.023377,
-.010939,-.023341,
-.010247,-.023426,
-.00958,-.02363,
-.005331,-.024935,
-.00092,-.025481,
.003519,-.025254,
.007851,-.024259,
.00958,-.02363,
.010247,-.023426,
.010939,-.023341,
.011636,-.023377,
.012316,-.023534,
.012958,-.023806,
.013543,-.024186,
.014053,-.024662,
.014473,-.025219,
.01479,-.02584,
.014994,-.026507,
.015079,-.027199,
.015043,-.027896,
.014886,-.028576,
.014614,-.029218,
.014234,-.029803,
.013758,-.030313,
.013201,-.030733,
.01258,-.03105,
.006997,-.032763,
.001202,-.03348,
-.00463,-.03318,
-.010321,-.031872,
-.01258,-.03105,
90.*
4,1,46,-.03105,.01258,
-.030733,.013201,
-.030313,.013758,
-.029803,.014234,
-.029218,.014614,
-.028576,.014886,
-.027896,.015043,
-.027199,.015079,
-.026507,.014994,
-.02584,.01479,
-.025219,.014473,
-.024662,.014053,
-.024186,.013543,
-.023806,.012958,
-.023534,.012316,
-.023377,.011636,
-.023341,.010939,
-.023426,.010247,
-.02363,.00958,
-.024935,.005331,
-.025481,.00092,
-.025254,-.003519,
-.024259,-.007851,
-.02363,-.00958,
-.023426,-.010247,
-.023341,-.010939,
-.023377,-.011636,
-.023534,-.012316,
-.023806,-.012958,
-.024186,-.013543,
-.024662,-.014053,
-.025219,-.014473,
-.02584,-.01479,
-.026507,-.014994,
-.027199,-.015079,
-.027896,-.015043,
-.028576,-.014886,
-.029218,-.014614,
-.029803,-.014234,
-.030313,-.013758,
-.030733,-.013201,
-.03105,-.01258,
-.032763,-.006997,
-.03348,-.001202,
-.03318,.00463,
-.031872,.010321,
-.03105,.01258,
90.*
4,1,46,.01258,.03105,
.013201,.030733,
.013758,.030313,
.014234,.029803,
.014614,.029218,
.014886,.028576,
.015043,.027896,
.015079,.027199,
.014994,.026507,
.01479,.02584,
.014473,.025219,
.014053,.024662,
.013543,.024186,
.012958,.023806,
.012316,.023534,
.011636,.023377,
.010939,.023341,
.010247,.023426,
.00958,.02363,
.005331,.024935,
.00092,.025481,
-.003519,.025254,
-.007851,.024259,
-.00958,.02363,
-.010247,.023426,
-.010939,.023341,
-.011636,.023377,
-.012316,.023534,
-.012958,.023806,
-.013543,.024186,
-.014053,.024662,
-.014473,.025219,
-.01479,.02584,
-.014994,.026507,
-.015079,.027199,
-.015043,.027896,
-.014886,.028576,
-.014614,.029218,
-.014234,.029803,
-.013758,.030313,
-.013201,.030733,
-.01258,.03105,
-.006997,.032763,
-.001202,.03348,
.00463,.03318,
.010321,.031872,
.01258,.03105,
90.*
%
%ADD18MACRO18*%
%AMMACRO21*
4,1,14,-.00442,.01007,
-.002604,.010685,
-.000709,.010974,
.001208,.010931,
.003088,.010555,
.00442,.01007,
.00813,.01378,
.005614,.014982,
.002927,.01573,
.000151,.015999,
-.00263,.015782,
-.00533,.015085,
-.007869,.013931,
-.00813,.01378,
-.00442,.01007,
90.*
4,1,14,-.01007,-.00442,
-.010685,-.002604,
-.010974,-.000709,
-.010931,.001208,
-.010555,.003088,
-.01007,.00442,
-.01378,.00813,
-.014982,.005614,
-.01573,.002927,
-.015999,.000151,
-.015782,-.00263,
-.015085,-.00533,
-.013931,-.007869,
-.01378,-.00813,
-.01007,-.00442,
90.*
4,1,14,.00442,-.01007,
.002604,-.010685,
.000709,-.010974,
-.001208,-.010931,
-.003088,-.010555,
-.00442,-.01007,
-.00813,-.01378,
-.005614,-.014982,
-.002927,-.01573,
-.000151,-.015999,
.00263,-.015782,
.00533,-.015085,
.007869,-.013931,
.00813,-.01378,
.00442,-.01007,
90.*
4,1,14,.01007,.00442,
.010685,.002604,
.010974,.000709,
.010931,-.001208,
.010555,-.003088,
.01007,-.00442,
.01378,-.00813,
.014982,-.005614,
.01573,-.002927,
.015999,-.000151,
.015782,.00263,
.015085,.00533,
.013931,.007869,
.01378,.00813,
.01007,.00442,
90.*
%
%ADD21MACRO21*%
%AMMACRO13*
4,1,14,-.00442,.01007,
-.002604,.010685,
-.000709,.010974,
.001208,.010931,
.003088,.010555,
.00442,.01007,
.00813,.01378,
.005614,.014982,
.002927,.01573,
.000151,.015999,
-.00263,.015782,
-.00533,.015085,
-.007869,.013931,
-.00813,.01378,
-.00442,.01007,
0.0*
4,1,14,-.01007,-.00442,
-.010685,-.002604,
-.010974,-.000709,
-.010931,.001208,
-.010555,.003088,
-.01007,.00442,
-.01378,.00813,
-.014982,.005614,
-.01573,.002927,
-.015999,.000151,
-.015782,-.00263,
-.015085,-.00533,
-.013931,-.007869,
-.01378,-.00813,
-.01007,-.00442,
0.0*
4,1,14,.00442,-.01007,
.002604,-.010685,
.000709,-.010974,
-.001208,-.010931,
-.003088,-.010555,
-.00442,-.01007,
-.00813,-.01378,
-.005614,-.014982,
-.002927,-.01573,
-.000151,-.015999,
.00263,-.015782,
.00533,-.015085,
.007869,-.013931,
.00813,-.01378,
.00442,-.01007,
0.0*
4,1,14,.01007,.00442,
.010685,.002604,
.010974,.000709,
.010931,-.001208,
.010555,-.003088,
.01007,-.00442,
.01378,-.00813,
.014982,-.005614,
.01573,-.002927,
.015999,-.000151,
.015782,.00263,
.015085,.00533,
.013931,.007869,
.01378,.00813,
.01007,.00442,
0.0*
%
%ADD13MACRO13*%
%AMMACRO26*
4,1,15,-.00388,.00812,
-.002411,.00867,
-.000869,.008957,
.0007,.008972,
.002247,.008714,
.003726,.008192,
.00388,.00812,
.00682,.01107,
.004794,.012086,
.002623,.012735,
.000372,.012997,
-.001891,.012864,
-.004096,.01234,
-.006176,.011442,
-.00682,.01107,
-.00388,.00812,
0.0*
4,1,15,-.00812,-.00388,
-.00867,-.002411,
-.008957,-.000869,
-.008972,.0007,
-.008714,.002247,
-.008192,.003726,
-.00812,.00388,
-.01107,.00682,
-.012086,.004794,
-.012735,.002623,
-.012997,.000372,
-.012864,-.001891,
-.01234,-.004096,
-.011442,-.006176,
-.01107,-.00682,
-.00812,-.00388,
0.0*
4,1,15,.00388,-.00812,
.002411,-.00867,
.000869,-.008957,
-.0007,-.008972,
-.002247,-.008714,
-.003726,-.008192,
-.00388,-.00812,
-.00682,-.01107,
-.004794,-.012086,
-.002623,-.012735,
-.000372,-.012997,
.001891,-.012864,
.004096,-.01234,
.006176,-.011442,
.00682,-.01107,
.00388,-.00812,
0.0*
4,1,15,.00812,.00388,
.00867,.002411,
.008957,.000869,
.008972,-.0007,
.008714,-.002247,
.008192,-.003726,
.00812,-.00388,
.01107,-.00682,
.012086,-.004794,
.012735,-.002623,
.012997,-.000372,
.012864,.001891,
.01234,.004096,
.011442,.006176,
.01107,.00682,
.00812,.00388,
0.0*
%
%ADD26MACRO26*%
%ADD10C,.18*%
%AMMACRO24*
4,1,47,.0399,-.01732,
.039568,-.017933,
.039135,-.018479,
.038613,-.018942,
.038019,-.019307,
.037371,-.019563,
.036688,-.019703,
.035991,-.019722,
.035301,-.01962,
.03464,-.0194,
.034027,-.019068,
.033481,-.018635,
.033018,-.018113,
.032653,-.017519,
.032397,-.016871,
.032257,-.016188,
.032238,-.015491,
.03234,-.014801,
.03256,-.01414,
.034521,-.008271,
.035433,-.002151,
.035268,.004035,
.034031,.010098,
.03256,.01414,
.03234,.014801,
.032238,.015491,
.032257,.016188,
.032397,.016871,
.032653,.017519,
.033018,.018113,
.033481,.018635,
.034027,.019068,
.03464,.0194,
.035301,.01962,
.035991,.019722,
.036688,.019703,
.037371,.019563,
.038019,.019307,
.038613,.018942,
.039135,.018479,
.039568,.017933,
.0399,.01732,
.0399,.01732,
.042301,.010128,
.043417,.002629,
.043214,-.004951,
.041698,-.01238,
.0399,-.01732,
270.*
4,1,46,-.01732,-.0399,
-.017933,-.039568,
-.018479,-.039135,
-.018942,-.038613,
-.019307,-.038019,
-.019563,-.037371,
-.019703,-.036688,
-.019722,-.035991,
-.01962,-.035301,
-.0194,-.03464,
-.019068,-.034027,
-.018635,-.033481,
-.018113,-.033018,
-.017519,-.032653,
-.016871,-.032397,
-.016188,-.032257,
-.015491,-.032238,
-.014801,-.03234,
-.01414,-.03256,
-.008271,-.034521,
-.002151,-.035433,
.004035,-.035268,
.010098,-.034031,
.01414,-.03256,
.014801,-.03234,
.015491,-.032238,
.016188,-.032257,
.016871,-.032397,
.017519,-.032653,
.018113,-.033018,
.018635,-.033481,
.019068,-.034027,
.0194,-.03464,
.01962,-.035301,
.019722,-.035991,
.019703,-.036688,
.019563,-.037371,
.019307,-.038019,
.018942,-.038613,
.018479,-.039135,
.017933,-.039568,
.01732,-.0399,
.010128,-.042301,
.002629,-.043417,
-.004951,-.043214,
-.01238,-.041698,
-.01732,-.0399,
270.*
4,1,47,-.0399,.01732,
-.039568,.017933,
-.039135,.018479,
-.038613,.018942,
-.038019,.019307,
-.037371,.019563,
-.036688,.019703,
-.035991,.019722,
-.035301,.01962,
-.03464,.0194,
-.034027,.019068,
-.033481,.018635,
-.033018,.018113,
-.032653,.017519,
-.032397,.016871,
-.032257,.016188,
-.032238,.015491,
-.03234,.014801,
-.03256,.01414,
-.034521,.008271,
-.035433,.002151,
-.035268,-.004035,
-.034031,-.010098,
-.03256,-.01414,
-.03234,-.014801,
-.032238,-.015491,
-.032257,-.016188,
-.032397,-.016871,
-.032653,-.017519,
-.033018,-.018113,
-.033481,-.018635,
-.034027,-.019068,
-.03464,-.0194,
-.035301,-.01962,
-.035991,-.019722,
-.036688,-.019703,
-.037371,-.019563,
-.038019,-.019307,
-.038613,-.018942,
-.039135,-.018479,
-.039568,-.017933,
-.0399,-.01732,
-.0399,-.01732,
-.042301,-.010128,
-.043417,-.002629,
-.043214,.004951,
-.041698,.01238,
-.0399,.01732,
270.*
4,1,46,.01732,.0399,
.017933,.039568,
.018479,.039135,
.018942,.038613,
.019307,.038019,
.019563,.037371,
.019703,.036688,
.019722,.035991,
.01962,.035301,
.0194,.03464,
.019068,.034027,
.018635,.033481,
.018113,.033018,
.017519,.032653,
.016871,.032397,
.016188,.032257,
.015491,.032238,
.014801,.03234,
.01414,.03256,
.008271,.034521,
.002151,.035433,
-.004035,.035268,
-.010098,.034031,
-.01414,.03256,
-.014801,.03234,
-.015491,.032238,
-.016188,.032257,
-.016871,.032397,
-.017519,.032653,
-.018113,.033018,
-.018635,.033481,
-.019068,.034027,
-.0194,.03464,
-.01962,.035301,
-.019722,.035991,
-.019703,.036688,
-.019563,.037371,
-.019307,.038019,
-.018942,.038613,
-.018479,.039135,
-.017933,.039568,
-.01732,.0399,
-.010128,.042301,
-.002629,.043417,
.004951,.043214,
.01238,.041698,
.01732,.0399,
270.*
%
%ADD24MACRO24*%
%AMMACRO22*
4,1,14,-.00442,.01007,
-.002604,.010685,
-.000709,.010974,
.001208,.010931,
.003088,.010555,
.00442,.01007,
.00813,.01378,
.005614,.014982,
.002927,.01573,
.000151,.015999,
-.00263,.015782,
-.00533,.015085,
-.007869,.013931,
-.00813,.01378,
-.00442,.01007,
270.*
4,1,14,-.01007,-.00442,
-.010685,-.002604,
-.010974,-.000709,
-.010931,.001208,
-.010555,.003088,
-.01007,.00442,
-.01378,.00813,
-.014982,.005614,
-.01573,.002927,
-.015999,.000151,
-.015782,-.00263,
-.015085,-.00533,
-.013931,-.007869,
-.01378,-.00813,
-.01007,-.00442,
270.*
4,1,14,.00442,-.01007,
.002604,-.010685,
.000709,-.010974,
-.001208,-.010931,
-.003088,-.010555,
-.00442,-.01007,
-.00813,-.01378,
-.005614,-.014982,
-.002927,-.01573,
-.000151,-.015999,
.00263,-.015782,
.00533,-.015085,
.007869,-.013931,
.00813,-.01378,
.00442,-.01007,
270.*
4,1,14,.01007,.00442,
.010685,.002604,
.010974,.000709,
.010931,-.001208,
.010555,-.003088,
.01007,-.00442,
.01378,-.00813,
.014982,-.005614,
.01573,-.002927,
.015999,-.000151,
.015782,.00263,
.015085,.00533,
.013931,.007869,
.01378,.00813,
.01007,.00442,
270.*
%
%ADD22MACRO22*%
%AMMACRO20*
4,1,14,-.00442,.01007,
-.002604,.010685,
-.000709,.010974,
.001208,.010931,
.003088,.010555,
.00442,.01007,
.00813,.01378,
.005614,.014982,
.002927,.01573,
.000151,.015999,
-.00263,.015782,
-.00533,.015085,
-.007869,.013931,
-.00813,.01378,
-.00442,.01007,
180.*
4,1,14,-.01007,-.00442,
-.010685,-.002604,
-.010974,-.000709,
-.010931,.001208,
-.010555,.003088,
-.01007,.00442,
-.01378,.00813,
-.014982,.005614,
-.01573,.002927,
-.015999,.000151,
-.015782,-.00263,
-.015085,-.00533,
-.013931,-.007869,
-.01378,-.00813,
-.01007,-.00442,
180.*
4,1,14,.00442,-.01007,
.002604,-.010685,
.000709,-.010974,
-.001208,-.010931,
-.003088,-.010555,
-.00442,-.01007,
-.00813,-.01378,
-.005614,-.014982,
-.002927,-.01573,
-.000151,-.015999,
.00263,-.015782,
.00533,-.015085,
.007869,-.013931,
.00813,-.01378,
.00442,-.01007,
180.*
4,1,14,.01007,.00442,
.010685,.002604,
.010974,.000709,
.010931,-.001208,
.010555,-.003088,
.01007,-.00442,
.01378,-.00813,
.014982,-.005614,
.01573,-.002927,
.015999,-.000151,
.015782,.00263,
.015085,.00533,
.013931,.007869,
.01378,.00813,
.01007,.00442,
180.*
%
%ADD20MACRO20*%
%ADD27C,.006*%
%ADD28C,.09204*%
G75*
%LPD*%
G75*
G36*
G01X-0000006000Y-0000006000D02*
X0000517811Y-0000006000D01*
X0000517811Y0000360331D01*
X-0000006000Y0000360331D01*
X-0000006000Y-0000006000D01*
G37*
%LPC*%
G75*
G36*
G01X0000161500Y0000010000D02*
X0000161500Y0000028525D01*
X0000161552Y0000028583D01*
G03X0000161552Y0000031417I-0000001552J0000001417D01*
G01X0000161500Y0000031475D01*
X0000161500Y0000036000D01*
X0000216500Y0000036000D01*
X0000216500Y0000101000D01*
X0000236025Y0000101000D01*
X0000236083Y0000100948D01*
G03X0000238917Y0000100948I0000001417J0000001552D01*
G01X0000238975Y0000101000D01*
X0000254000Y0000101000D01*
X0000254000Y0000149000D01*
X0000245127Y0000149000D01*
X0000245123Y0000149000D01*
G03X0000244877Y0000149000I-0000000123J-0000004000D01*
G01X0000244873Y0000149000D01*
X0000214000Y0000149000D01*
X0000214000Y0000175648D01*
X0000214096Y0000175706D01*
G03X0000214096Y0000179294I-0000001096J0000001794D01*
G01X0000214000Y0000179352D01*
X0000214000Y0000257000D01*
X0000219000Y0000262000D01*
X0000219000Y0000280500D01*
X0000213000Y0000286500D01*
X0000211475Y0000286500D01*
X0000211417Y0000286552D01*
G03X0000208583Y0000286552I-0000001417J-0000001552D01*
G01X0000208525Y0000286500D01*
X0000206475Y0000286500D01*
X0000206417Y0000286552D01*
G03X0000203583Y0000286552I-0000001417J-0000001552D01*
G01X0000203525Y0000286500D01*
X0000195000Y0000286500D01*
X0000194000Y0000287500D01*
X0000194000Y0000293000D01*
X0000193000Y0000294000D01*
X0000170148Y0000294000D01*
X0000170119Y0000294009D01*
G03X0000168881Y0000294009I-0000000619J-0000002009D01*
G01X0000168852Y0000294000D01*
X0000023820Y0000294000D01*
X0000023768Y0000294121D01*
G03X0000016232Y0000294121I-0000003768J-0000001621D01*
G01X0000016180Y0000294000D01*
X0000013820Y0000294000D01*
X0000013768Y0000294121D01*
G03X0000010191Y0000296598I-0000003768J-0000001621D01*
G01X0000010000Y0000296606D01*
X0000010000Y0000297500D01*
X0000057500Y0000345000D01*
X0000281601Y0000345000D01*
X0000281625Y0000344994D01*
G03X0000282375Y0000344994I0000000375J0000001506D01*
G01X0000282399Y0000345000D01*
X0000284601Y0000345000D01*
X0000284625Y0000344994D01*
G03X0000285375Y0000344994I0000000375J0000001506D01*
G01X0000285399Y0000345000D01*
X0000349525Y0000345000D01*
X0000349583Y0000344948D01*
G03X0000352417Y0000344948I0000001417J0000001552D01*
G01X0000352475Y0000345000D01*
X0000386000Y0000345000D01*
X0000386000Y0000301690D01*
X0000385937Y0000301631D01*
G03X0000385937Y0000299369I0000001063J-0000001131D01*
G01X0000386000Y0000299310D01*
X0000386000Y0000257547D01*
X0000385861Y0000257502D01*
G03X0000385861Y0000253498I0000000640J-0000002002D01*
G01X0000386000Y0000253453D01*
X0000386000Y0000053500D01*
X0000428868Y0000053500D01*
X0000428927Y0000053413D01*
G03X0000438025Y0000053413I0000004549J0000003095D01*
G01X0000438084Y0000053500D01*
X0000441025Y0000053500D01*
X0000441083Y0000053448D01*
G03X0000443917Y0000053448I0000001417J0000001552D01*
G01X0000443975Y0000053500D01*
X0000448525Y0000053500D01*
X0000448583Y0000053448D01*
G03X0000451417Y0000053448I0000001417J0000001552D01*
G01X0000451475Y0000053500D01*
X0000456900Y0000053500D01*
X0000456959Y0000053413D01*
G03X0000466057Y0000053413I0000004549J0000003095D01*
G01X0000466116Y0000053500D01*
X0000473525Y0000053500D01*
X0000473583Y0000053448D01*
G03X0000476417Y0000053448I0000001417J0000001552D01*
G01X0000476475Y0000053500D01*
X0000488525Y0000053500D01*
X0000488583Y0000053448D01*
G03X0000491417Y0000053448I0000001417J0000001552D01*
G01X0000491475Y0000053500D01*
X0000497534Y0000053500D01*
G02X0000497817Y0000052817I0J-0000000400D01*
G01X0000455000Y0000010000D01*
X0000161500Y0000010000D01*
G37*
G36*
G01X0000013820Y0000291000D02*
X0000016180Y0000291000D01*
X0000016232Y0000290879D01*
G03X0000023768Y0000290879I0000003768J0000001621D01*
G01X0000023820Y0000291000D01*
X0000167648Y0000291000D01*
X0000167706Y0000290904D01*
G03X0000171294Y0000290904I0000001794J0000001096D01*
G01X0000171352Y0000291000D01*
X0000187571Y0000291000D01*
G02X0000187959Y0000290504I0J-0000000400D01*
G03X0000190084Y0000287900I0000002041J-0000000504D01*
G02X0000190500Y0000287500I0000000016J-0000000400D01*
G01X0000190500Y0000285000D01*
X0000192000Y0000283500D01*
X0000203525Y0000283500D01*
X0000203583Y0000283448D01*
G03X0000206417Y0000283448I0000001417J0000001552D01*
G01X0000206475Y0000283500D01*
X0000208525Y0000283500D01*
X0000208583Y0000283448D01*
G03X0000211417Y0000283448I0000001417J0000001552D01*
G01X0000211475Y0000283500D01*
X0000212000Y0000283500D01*
X0000216000Y0000279500D01*
X0000216000Y0000263000D01*
X0000211000Y0000258000D01*
X0000211000Y0000178148D01*
X0000210991Y0000178119D01*
G03X0000210991Y0000176881I0000002009J-0000000619D01*
G01X0000211000Y0000176852D01*
X0000211000Y0000166047D01*
X0000210861Y0000166002D01*
G03X0000210861Y0000161998I0000000640J-0000002002D01*
G01X0000211000Y0000161953D01*
X0000211000Y0000148475D01*
X0000210948Y0000148417D01*
G03X0000214294Y0000145904I0000001552J-0000001417D01*
G01X0000214352Y0000146000D01*
X0000251000Y0000146000D01*
X0000251000Y0000104000D01*
X0000238975Y0000104000D01*
X0000238917Y0000104052D01*
G03X0000236083Y0000104052I-0000001417J-0000001552D01*
G01X0000236025Y0000104000D01*
X0000213500Y0000104000D01*
X0000213500Y0000039000D01*
X0000158500Y0000039000D01*
X0000158500Y0000031475D01*
X0000158448Y0000031417D01*
G03X0000158448Y0000028583I0000001552J-0000001417D01*
G01X0000158500Y0000028525D01*
X0000158500Y0000010000D01*
X0000057500Y0000010000D01*
X0000010000Y0000057500D01*
X0000010000Y0000288394D01*
X0000010191Y0000288402D01*
G03X0000013768Y0000290879I-0000000191J0000004098D01*
G01X0000013820Y0000291000D01*
G37*
G36*
G01X0000389000Y0000056500D02*
X0000389000Y0000345000D01*
X0000452500Y0000345000D01*
X0000502500Y0000295000D01*
X0000502500Y0000056500D01*
X0000501475Y0000056500D01*
X0000501417Y0000056552D01*
G03X0000498583Y0000056552I-0000001417J-0000001552D01*
G01X0000498525Y0000056500D01*
X0000491475Y0000056500D01*
X0000491417Y0000056552D01*
G03X0000488583Y0000056552I-0000001417J-0000001552D01*
G01X0000488525Y0000056500D01*
X0000476475Y0000056500D01*
X0000476417Y0000056552D01*
G03X0000473583Y0000056552I-0000001417J-0000001552D01*
G01X0000473525Y0000056500D01*
X0000451475Y0000056500D01*
X0000451417Y0000056552D01*
G03X0000448583Y0000056552I-0000001417J-0000001552D01*
G01X0000448525Y0000056500D01*
X0000443975Y0000056500D01*
X0000443917Y0000056552D01*
G03X0000441083Y0000056552I-0000001417J-0000001552D01*
G01X0000441025Y0000056500D01*
X0000389000Y0000056500D01*
G37*
%LPD*%
G75*
G54D28*
X0000376655Y0000332500D03*
X0000135155Y0000332500D03*
G54D19*
X0000239500Y0000303500D03*
X0000147500Y0000330300D03*
X0000200500Y0000346500D03*
X0000145500Y0000303500D03*
X0000227000Y0000303500D03*
X0000242500Y0000303500D03*
X0000204000Y0000296000D03*
X0000168500Y0000346500D03*
X0000234900Y0000330400D03*
X0000230000Y0000303500D03*
X0000148500Y0000303500D03*
X0000231900Y0000330400D03*
X0000204000Y0000299000D03*
X0000203500Y0000346500D03*
X0000165500Y0000303500D03*
X0000144500Y0000330300D03*
X0000165500Y0000346500D03*
X0000158500Y0000330300D03*
X0000168500Y0000303500D03*
X0000155500Y0000330300D03*
X0000272000Y0000303500D03*
X0000312500Y0000291500D03*
X0000285000Y0000346500D03*
X0000291000Y0000291500D03*
X0000275000Y0000346500D03*
X0000315500Y0000291500D03*
X0000282000Y0000346500D03*
X0000285000Y0000291500D03*
X0000288000Y0000291500D03*
X0000272000Y0000346500D03*
X0000282000Y0000303500D03*
X0000285000Y0000303500D03*
X0000304000Y0000291500D03*
X0000301000Y0000291500D03*
X0000261900Y0000330300D03*
X0000264000Y0000303500D03*
X0000326500Y0000148500D03*
X0000302500Y0000148500D03*
X0000400500Y0000302000D03*
X0000400500Y0000299000D03*
X0000390000Y0000300500D03*
X0000387000Y0000300500D03*
X0000332500Y0000148500D03*
X0000305500Y0000148500D03*
X0000329500Y0000148500D03*
X0000261000Y0000303500D03*
X0000299500Y0000148500D03*
X0000314500Y0000148500D03*
X0000323500Y0000148500D03*
X0000308500Y0000148500D03*
X0000320500Y0000148500D03*
X0000264900Y0000330300D03*
X0000311500Y0000148500D03*
X0000317500Y0000148500D03*
X0000275000Y0000303500D03*
X0000294000Y0000291500D03*
G54D12*
X0000160000Y0000050000D03*
X0000195000Y0000015000D03*
X0000195000Y0000020000D03*
X0000195000Y0000025000D03*
X0000190000Y0000030000D03*
X0000175000Y0000032500D03*
X0000180000Y0000032500D03*
X0000185000Y0000025000D03*
X0000185000Y0000030000D03*
X0000190000Y0000025000D03*
X0000190000Y0000020000D03*
X0000185000Y0000020000D03*
X0000250000Y0000020000D03*
X0000245000Y0000020000D03*
X0000245000Y0000040000D03*
X0000245000Y0000035000D03*
X0000250000Y0000030000D03*
X0000250000Y0000025000D03*
X0000245000Y0000025000D03*
X0000245000Y0000030000D03*
X0000120000Y0000050000D03*
X0000115000Y0000050000D03*
X0000220000Y0000050000D03*
X0000035000Y0000045000D03*
X0000022500Y0000045000D03*
X0000055000Y0000035000D03*
X0000040000Y0000050000D03*
X0000082500Y0000045000D03*
X0000082500Y0000035000D03*
X0000075000Y0000045000D03*
X0000090000Y0000045000D03*
X0000100000Y0000050000D03*
X0000110000Y0000040000D03*
X0000055000Y0000025000D03*
X0000070000Y0000010000D03*
X0000070000Y0000025000D03*
X0000085000Y0000010000D03*
X0000085000Y0000025000D03*
X0000100000Y0000025000D03*
X0000100000Y0000010000D03*
X0000130000Y0000010000D03*
X0000115000Y0000010000D03*
X0000115000Y0000025000D03*
X0000145000Y0000025000D03*
X0000130000Y0000025000D03*
X0000150000Y0000050000D03*
X0000160000Y0000030000D03*
X0000150000Y0000030000D03*
X0000150000Y0000040000D03*
X0000200000Y0000015000D03*
X0000210000Y0000015000D03*
X0000225000Y0000015000D03*
X0000240000Y0000015000D03*
X0000240000Y0000050000D03*
X0000125000Y0000050000D03*
X0000210000Y0000040000D03*
X0000210000Y0000030000D03*
X0000210000Y0000035000D03*
X0000210000Y0000025000D03*
X0000160000Y0000040000D03*
X0000175000Y0000020000D03*
X0000170000Y0000015000D03*
X0000165000Y0000015000D03*
X0000165000Y0000020000D03*
X0000170000Y0000020000D03*
X0000170000Y0000025000D03*
X0000165000Y0000025000D03*
X0000060000Y0000035000D03*
X0000050000Y0000040000D03*
X0000045000Y0000040000D03*
X0000065000Y0000040000D03*
X0000060000Y0000040000D03*
X0000055000Y0000040000D03*
X0000135000Y0000050000D03*
X0000130000Y0000050000D03*
X0000145000Y0000045000D03*
X0000115000Y0000045000D03*
X0000140000Y0000050000D03*
X0000110000Y0000180000D03*
X0000250000Y0000190000D03*
X0000240000Y0000180000D03*
X0000200000Y0000305000D03*
X0000135000Y0000245000D03*
X0000250000Y0000195000D03*
X0000080000Y0000175000D03*
X0000250000Y0000210000D03*
X0000240000Y0000165000D03*
X0000080000Y0000195000D03*
X0000250000Y0000240000D03*
X0000115000Y0000169600D03*
X0000250000Y0000235000D03*
X0000082500Y0000200000D03*
X0000250000Y0000270000D03*
X0000192500Y0000330000D03*
X0000250000Y0000250000D03*
X0000135000Y0000210000D03*
X0000114785Y0000180000D03*
X0000250000Y0000215000D03*
X0000250000Y0000230000D03*
X0000090300Y0000133500D03*
X0000090300Y0000130000D03*
X0000250000Y0000317500D03*
X0000250000Y0000220000D03*
X0000105000Y0000130000D03*
X0000075000Y0000200000D03*
X0000060000Y0000195000D03*
X0000142500Y0000345000D03*
X0000245000Y0000095000D03*
X0000142500Y0000317500D03*
X0000180000Y0000195000D03*
X0000120000Y0000260000D03*
X0000120000Y0000275000D03*
X0000120000Y0000270000D03*
X0000120000Y0000265000D03*
X0000150000Y0000190000D03*
X0000095000Y0000240000D03*
X0000120000Y0000205000D03*
X0000120000Y0000230000D03*
X0000205000Y0000075000D03*
X0000095000Y0000195000D03*
X0000090000Y0000195000D03*
X0000210000Y0000140000D03*
X0000190000Y0000317500D03*
X0000110079Y0000240079D03*
X0000125000Y0000065000D03*
X0000135000Y0000065000D03*
X0000140000Y0000070000D03*
X0000067500Y0000180000D03*
X0000215000Y0000255000D03*
X0000135000Y0000090000D03*
X0000160000Y0000070000D03*
X0000225000Y0000135000D03*
X0000090000Y0000240000D03*
X0000075000Y0000210000D03*
X0000135000Y0000075000D03*
X0000125000Y0000075000D03*
X0000115000Y0000075000D03*
X0000120000Y0000075000D03*
X0000235000Y0000125000D03*
X0000145000Y0000100000D03*
X0000135000Y0000100000D03*
X0000155000Y0000075000D03*
X0000130000Y0000100000D03*
X0000155000Y0000070000D03*
X0000080000Y0000180000D03*
X0000250000Y0000225000D03*
X0000225000Y0000265000D03*
X0000195000Y0000305000D03*
X0000196500Y0000330000D03*
X0000150000Y0000280000D03*
X0000060000Y0000190000D03*
X0000220000Y0000110000D03*
X0000205000Y0000265000D03*
X0000205000Y0000270000D03*
X0000205000Y0000275000D03*
X0000205000Y0000280000D03*
X0000220000Y0000290000D03*
X0000225000Y0000290000D03*
X0000230000Y0000290000D03*
X0000230000Y0000285000D03*
X0000245000Y0000295000D03*
X0000240000Y0000295000D03*
X0000205000Y0000285000D03*
X0000045000Y0000150000D03*
X0000185000Y0000305000D03*
X0000060000Y0000215000D03*
X0000055000Y0000175000D03*
X0000080000Y0000220000D03*
X0000175000Y0000305000D03*
X0000055000Y0000080000D03*
X0000100000Y0000180000D03*
X0000120000Y0000220000D03*
X0000195000Y0000235000D03*
X0000190000Y0000235000D03*
X0000192500Y0000207500D03*
X0000090000Y0000075000D03*
X0000165000Y0000225000D03*
X0000055000Y0000090000D03*
X0000055000Y0000095000D03*
X0000055000Y0000085000D03*
X0000083500Y0000130000D03*
X0000087000Y0000130000D03*
X0000090000Y0000080000D03*
X0000085000Y0000195000D03*
X0000190000Y0000175000D03*
X0000135000Y0000230000D03*
X0000135000Y0000205000D03*
X0000040000Y0000102500D03*
X0000176000Y0000330000D03*
X0000060000Y0000240000D03*
X0000134000Y0000200000D03*
X0000145000Y0000210000D03*
X0000140000Y0000210000D03*
X0000100000Y0000200000D03*
X0000140000Y0000100000D03*
X0000075000Y0000175000D03*
X0000105000Y0000195000D03*
X0000080000Y0000225000D03*
X0000183500Y0000330000D03*
X0000040000Y0000122500D03*
X0000205000Y0000125000D03*
X0000135000Y0000225000D03*
X0000115000Y0000220000D03*
X0000245000Y0000330000D03*
X0000190000Y0000220000D03*
X0000150000Y0000205000D03*
X0000250000Y0000305000D03*
X0000195000Y0000220000D03*
X0000150000Y0000200000D03*
X0000199000Y0000140000D03*
X0000105000Y0000200000D03*
X0000080000Y0000255000D03*
X0000105000Y0000180000D03*
X0000095000Y0000180000D03*
X0000120000Y0000210000D03*
X0000080000Y0000240000D03*
X0000096000Y0000223000D03*
X0000111000Y0000194500D03*
X0000110000Y0000214000D03*
X0000128000Y0000328500D03*
X0000132500Y0000320000D03*
X0000153500Y0000250000D03*
X0000161500Y0000249500D03*
X0000179500Y0000222000D03*
X0000169500Y0000292000D03*
X0000178000Y0000285000D03*
X0000177500Y0000291000D03*
X0000170500Y0000283500D03*
X0000165000Y0000288500D03*
X0000168500Y0000276500D03*
X0000164500Y0000280500D03*
X0000172000Y0000262000D03*
X0000179000Y0000269000D03*
X0000179000Y0000261000D03*
X0000179500Y0000248000D03*
X0000185000Y0000254500D03*
X0000190000Y0000260500D03*
X0000190000Y0000250500D03*
X0000195000Y0000254500D03*
X0000195000Y0000263500D03*
X0000205000Y0000250000D03*
X0000205000Y0000254500D03*
X0000215000Y0000247500D03*
X0000210000Y0000245500D03*
X0000205000Y0000235500D03*
X0000204500Y0000230000D03*
X0000215000Y0000230000D03*
X0000210000Y0000230000D03*
X0000215000Y0000235500D03*
X0000210000Y0000235500D03*
X0000215000Y0000219000D03*
X0000215000Y0000225000D03*
X0000210000Y0000225000D03*
X0000204500Y0000225000D03*
X0000204500Y0000219000D03*
X0000210000Y0000219500D03*
X0000219500Y0000138500D03*
X0000212500Y0000147000D03*
X0000204500Y0000154500D03*
X0000220500Y0000155000D03*
X0000211500Y0000164000D03*
X0000204500Y0000175000D03*
X0000213000Y0000177500D03*
X0000208500Y0000182000D03*
X0000204500Y0000200000D03*
X0000204500Y0000207500D03*
X0000210000Y0000200000D03*
X0000220000Y0000200000D03*
X0000220000Y0000210000D03*
X0000220000Y0000219000D03*
X0000220000Y0000225000D03*
X0000220000Y0000230000D03*
X0000220000Y0000235000D03*
X0000220000Y0000244500D03*
X0000220000Y0000250000D03*
X0000234000Y0000254500D03*
X0000225000Y0000248500D03*
X0000130000Y0000297500D03*
X0000112500Y0000302500D03*
X0000132500Y0000310000D03*
X0000112500Y0000310000D03*
X0000097500Y0000310000D03*
X0000127500Y0000337500D03*
X0000112500Y0000337500D03*
X0000095000Y0000337500D03*
X0000047500Y0000332500D03*
X0000032500Y0000315000D03*
X0000087500Y0000330000D03*
X0000057500Y0000320000D03*
X0000077500Y0000320000D03*
X0000067500Y0000330000D03*
X0000057500Y0000340000D03*
X0000077500Y0000340000D03*
X0000035000Y0000302500D03*
X0000045000Y0000302500D03*
X0000055000Y0000302500D03*
X0000065000Y0000302500D03*
X0000090000Y0000302500D03*
X0000085000Y0000310000D03*
X0000075000Y0000310000D03*
X0000065000Y0000310000D03*
X0000055000Y0000310000D03*
X0000045000Y0000310000D03*
X0000020000Y0000305000D03*
X0000020000Y0000300000D03*
X0000035000Y0000310000D03*
X0000065000Y0000295000D03*
X0000055000Y0000295000D03*
X0000045000Y0000295000D03*
X0000035000Y0000295000D03*
X0000045000Y0000285000D03*
X0000055000Y0000285000D03*
X0000055000Y0000275000D03*
X0000065000Y0000285000D03*
X0000035000Y0000277500D03*
X0000027500Y0000285000D03*
X0000027500Y0000277500D03*
X0000030000Y0000257500D03*
X0000030000Y0000267500D03*
X0000045000Y0000267500D03*
X0000045000Y0000252500D03*
X0000047500Y0000262500D03*
X0000025000Y0000240000D03*
X0000015000Y0000235000D03*
X0000015000Y0000245000D03*
X0000030000Y0000245000D03*
X0000030000Y0000235000D03*
X0000040000Y0000235000D03*
X0000040000Y0000245000D03*
X0000047500Y0000245000D03*
X0000055000Y0000227500D03*
X0000045000Y0000220000D03*
X0000045000Y0000212500D03*
X0000052500Y0000200000D03*
X0000102500Y0000225000D03*
X0000112500Y0000217500D03*
X0000172500Y0000145000D03*
X0000147500Y0000180000D03*
X0000140000Y0000180000D03*
X0000155000Y0000180000D03*
X0000127500Y0000175000D03*
X0000140000Y0000175000D03*
X0000155000Y0000175000D03*
X0000172500Y0000175000D03*
X0000175000Y0000160000D03*
X0000175000Y0000165000D03*
X0000165000Y0000165000D03*
X0000155000Y0000165000D03*
X0000145000Y0000165000D03*
X0000132500Y0000165000D03*
X0000122500Y0000165000D03*
X0000100000Y0000155000D03*
X0000082500Y0000170000D03*
X0000090000Y0000170000D03*
X0000097500Y0000170000D03*
X0000062500Y0000177500D03*
X0000067500Y0000167500D03*
X0000062500Y0000172500D03*
X0000075000Y0000125000D03*
X0000075000Y0000135000D03*
X0000045000Y0000122500D03*
X0000045000Y0000115000D03*
X0000055000Y0000115000D03*
X0000065000Y0000115000D03*
X0000052500Y0000135000D03*
X0000062500Y0000132500D03*
X0000060000Y0000120000D03*
X0000060000Y0000127500D03*
X0000060000Y0000137500D03*
X0000070000Y0000132500D03*
X0000042500Y0000130000D03*
X0000040000Y0000160000D03*
X0000040000Y0000172500D03*
X0000045000Y0000177500D03*
X0000042500Y0000185000D03*
X0000020000Y0000217500D03*
X0000012500Y0000217500D03*
X0000020000Y0000187500D03*
X0000012500Y0000187500D03*
X0000020000Y0000172500D03*
X0000020000Y0000167500D03*
X0000012500Y0000167500D03*
X0000017500Y0000160000D03*
X0000027500Y0000172500D03*
X0000027500Y0000162500D03*
X0000027500Y0000155000D03*
X0000027500Y0000150000D03*
X0000027500Y0000145000D03*
X0000027500Y0000140000D03*
X0000027500Y0000132500D03*
X0000027500Y0000095000D03*
X0000027500Y0000100000D03*
X0000027500Y0000125000D03*
X0000027500Y0000117500D03*
X0000027500Y0000107500D03*
X0000087500Y0000070000D03*
X0000057500Y0000065000D03*
X0000047500Y0000067500D03*
X0000062500Y0000072500D03*
X0000030000Y0000087500D03*
X0000040000Y0000080000D03*
X0000030000Y0000080000D03*
X0000020000Y0000080000D03*
X0000012500Y0000080000D03*
X0000040000Y0000070000D03*
X0000030000Y0000070000D03*
X0000020000Y0000070000D03*
X0000012500Y0000070000D03*
X0000040000Y0000062500D03*
X0000030000Y0000055000D03*
X0000030000Y0000062500D03*
X0000020000Y0000062500D03*
X0000012500Y0000062500D03*
X0000012500Y0000055000D03*
X0000020000Y0000055000D03*
X0000082500Y0000110000D03*
X0000092500Y0000110000D03*
X0000082500Y0000055000D03*
X0000102500Y0000107500D03*
X0000123000Y0000130500D03*
X0000122500Y0000142500D03*
X0000122500Y0000122500D03*
X0000117500Y0000135000D03*
X0000132500Y0000132500D03*
X0000152500Y0000130000D03*
X0000150000Y0000145000D03*
X0000167500Y0000135000D03*
X0000157500Y0000132500D03*
X0000147500Y0000132500D03*
X0000140000Y0000132500D03*
X0000142500Y0000112500D03*
X0000120000Y0000105000D03*
X0000112500Y0000100000D03*
X0000120000Y0000095000D03*
X0000172500Y0000087500D03*
X0000167500Y0000087500D03*
X0000170000Y0000080000D03*
X0000165000Y0000072500D03*
X0000170000Y0000060000D03*
X0000162500Y0000060000D03*
X0000150000Y0000065000D03*
X0000150000Y0000060000D03*
X0000162500Y0000065000D03*
X0000170000Y0000065000D03*
X0000180000Y0000065000D03*
X0000195000Y0000075000D03*
X0000190000Y0000065000D03*
X0000205000Y0000060000D03*
X0000210000Y0000065000D03*
X0000200000Y0000065000D03*
X0000200000Y0000055000D03*
X0000210000Y0000055000D03*
X0000235000Y0000092500D03*
X0000235000Y0000077500D03*
X0000235000Y0000062500D03*
X0000240000Y0000080000D03*
X0000237500Y0000102500D03*
X0000240000Y0000092500D03*
X0000247500Y0000092500D03*
X0000179500Y0000235000D03*
X0000192000Y0000140500D03*
X0000166500Y0000149500D03*
X0000161000Y0000105000D03*
X0000151500Y0000111000D03*
X0000162500Y0000114500D03*
X0000115000Y0000165500D03*
X0000079500Y0000130500D03*
X0000081000Y0000139000D03*
X0000035000Y0000200500D03*
X0000055000Y0000220000D03*
X0000055000Y0000245000D03*
X0000070500Y0000261500D03*
X0000087500Y0000257500D03*
X0000200500Y0000331500D03*
X0000180300Y0000301700D03*
X0000144000Y0000306500D03*
X0000144000Y0000300500D03*
X0000150000Y0000300500D03*
X0000150000Y0000306500D03*
X0000230400Y0000333400D03*
X0000236400Y0000333400D03*
X0000236400Y0000327400D03*
X0000230400Y0000327400D03*
X0000143000Y0000333300D03*
X0000149000Y0000333300D03*
X0000149000Y0000327300D03*
X0000143000Y0000327300D03*
X0000154000Y0000333300D03*
X0000160000Y0000333300D03*
X0000160000Y0000327300D03*
X0000154000Y0000327300D03*
X0000164000Y0000306500D03*
X0000170000Y0000306500D03*
X0000170000Y0000300500D03*
X0000164000Y0000300500D03*
X0000164000Y0000349500D03*
X0000170000Y0000349500D03*
X0000170000Y0000343500D03*
X0000164000Y0000343500D03*
X0000199000Y0000349500D03*
X0000205000Y0000349500D03*
X0000205000Y0000343500D03*
X0000199000Y0000343500D03*
X0000207000Y0000300500D03*
X0000207000Y0000294500D03*
X0000201000Y0000300500D03*
X0000201000Y0000294500D03*
X0000225500Y0000306500D03*
X0000231500Y0000306500D03*
X0000231500Y0000300500D03*
X0000225500Y0000300500D03*
X0000238000Y0000306500D03*
X0000244000Y0000306500D03*
X0000244000Y0000300500D03*
X0000238000Y0000300500D03*
X0000185000Y0000265000D03*
X0000040000Y0000142500D03*
X0000090000Y0000140000D03*
X0000150000Y0000210000D03*
X0000070000Y0000165000D03*
X0000245000Y0000120000D03*
X0000225000Y0000130000D03*
X0000240000Y0000150000D03*
X0000180000Y0000090000D03*
X0000170000Y0000125000D03*
X0000205000Y0000140000D03*
X0000045000Y0000090000D03*
X0000045000Y0000080000D03*
X0000095000Y0000230000D03*
X0000037700Y0000180200D03*
X0000013800Y0000174800D03*
X0000032500Y0000185000D03*
X0000245000Y0000105000D03*
X0000245000Y0000075000D03*
X0000245000Y0000070000D03*
X0000245000Y0000065000D03*
X0000245000Y0000060000D03*
X0000245000Y0000085000D03*
X0000245000Y0000080000D03*
X0000220000Y0000115000D03*
X0000220000Y0000255000D03*
X0000150000Y0000285000D03*
X0000150000Y0000295000D03*
X0000230000Y0000275000D03*
X0000210000Y0000285000D03*
X0000210000Y0000290000D03*
X0000215000Y0000289000D03*
X0000125000Y0000260000D03*
X0000125000Y0000265000D03*
X0000125000Y0000270000D03*
X0000125000Y0000275000D03*
X0000150000Y0000275000D03*
X0000155000Y0000275000D03*
X0000155000Y0000270000D03*
X0000150000Y0000270000D03*
X0000145000Y0000270000D03*
X0000195000Y0000060000D03*
X0000195000Y0000055000D03*
X0000190000Y0000055000D03*
X0000250000Y0000285000D03*
X0000250000Y0000290000D03*
X0000250000Y0000280000D03*
X0000250000Y0000275000D03*
X0000155000Y0000205000D03*
X0000180000Y0000190000D03*
X0000180000Y0000200000D03*
X0000190000Y0000290000D03*
X0000195000Y0000250000D03*
X0000197500Y0000207500D03*
X0000195000Y0000180000D03*
X0000155000Y0000200000D03*
X0000240000Y0000185000D03*
X0000240000Y0000225000D03*
X0000240000Y0000205000D03*
X0000240000Y0000235000D03*
X0000240000Y0000195000D03*
X0000240000Y0000215000D03*
X0000240000Y0000255000D03*
X0000240000Y0000245000D03*
X0000037700Y0000210200D03*
X0000013800Y0000205200D03*
X0000080000Y0000290000D03*
X0000085000Y0000290000D03*
X0000090000Y0000290000D03*
X0000095000Y0000290000D03*
X0000100000Y0000290000D03*
X0000105000Y0000290000D03*
X0000110000Y0000290000D03*
X0000075000Y0000290000D03*
X0000032500Y0000215000D03*
X0000202500Y0000317500D03*
X0000245000Y0000317500D03*
X0000235000Y0000317500D03*
X0000230000Y0000317500D03*
X0000225000Y0000317500D03*
X0000172500Y0000317500D03*
X0000162500Y0000317500D03*
X0000152500Y0000317500D03*
X0000217500Y0000325000D03*
X0000210000Y0000325000D03*
X0000135000Y0000325000D03*
X0000040000Y0000252500D03*
X0000155000Y0000235000D03*
X0000160000Y0000235000D03*
X0000090000Y0000205000D03*
X0000110000Y0000205000D03*
X0000100000Y0000195000D03*
X0000100094Y0000240094D03*
X0000060000Y0000230000D03*
X0000060000Y0000205000D03*
X0000090000Y0000180000D03*
X0000120000Y0000200000D03*
X0000120000Y0000225000D03*
X0000085000Y0000205000D03*
X0000085000Y0000230000D03*
X0000100000Y0000230000D03*
X0000095000Y0000205000D03*
X0000110000Y0000230000D03*
X0000165000Y0000230000D03*
X0000080000Y0000155000D03*
X0000045000Y0000100000D03*
X0000050000Y0000100000D03*
X0000100000Y0000070000D03*
X0000095000Y0000070000D03*
X0000105000Y0000090000D03*
X0000080000Y0000090000D03*
X0000080000Y0000080000D03*
X0000070000Y0000090000D03*
X0000070000Y0000080000D03*
X0000075000Y0000085000D03*
X0000200000Y0000160000D03*
X0000050000Y0000130000D03*
X0000055000Y0000130000D03*
X0000045000Y0000155000D03*
X0000070000Y0000150000D03*
X0000045000Y0000160000D03*
X0000095000Y0000125000D03*
X0000080000Y0000070000D03*
X0000145000Y0000250000D03*
X0000090000Y0000065000D03*
X0000185000Y0000175000D03*
X0000160000Y0000075000D03*
X0000135000Y0000150000D03*
X0000150000Y0000155000D03*
X0000150000Y0000120000D03*
X0000150000Y0000125000D03*
X0000140000Y0000090000D03*
X0000120000Y0000150000D03*
X0000115000Y0000115000D03*
X0000115000Y0000130000D03*
X0000120000Y0000065000D03*
X0000115000Y0000065000D03*
X0000195000Y0000080000D03*
X0000175000Y0000140000D03*
X0000192500Y0000112500D03*
X0000197500Y0000112500D03*
X0000197500Y0000107500D03*
X0000197500Y0000102500D03*
X0000192500Y0000102500D03*
X0000187500Y0000107500D03*
X0000187500Y0000112500D03*
X0000187500Y0000102500D03*
X0000192500Y0000107500D03*
X0000205000Y0000090000D03*
X0000180000Y0000140000D03*
X0000130000Y0000090000D03*
X0000125000Y0000090000D03*
X0000140000Y0000075000D03*
X0000145000Y0000105000D03*
X0000152500Y0000345000D03*
X0000160000Y0000345000D03*
X0000175000Y0000345000D03*
X0000195000Y0000345000D03*
X0000225000Y0000345000D03*
X0000230000Y0000345000D03*
X0000235000Y0000345000D03*
X0000240000Y0000345000D03*
X0000060000Y0000200000D03*
X0000075000Y0000255000D03*
X0000195500Y0000140000D03*
X0000173500Y0000235000D03*
X0000220000Y0000055000D03*
X0000180000Y0000305000D03*
X0000085000Y0000255000D03*
X0000170000Y0000235100D03*
X0000075000Y0000240000D03*
X0000040000Y0000137500D03*
X0000075000Y0000225000D03*
X0000172000Y0000330000D03*
X0000135000Y0000220000D03*
X0000215000Y0000115000D03*
X0000187500Y0000328100D03*
X0000240000Y0000175000D03*
X0000060000Y0000225000D03*
X0000220000Y0000070000D03*
X0000195000Y0000317500D03*
X0000220000Y0000085000D03*
X0000060000Y0000235000D03*
X0000140000Y0000065000D03*
X0000075000Y0000215000D03*
X0000060000Y0000085000D03*
X0000185000Y0000317500D03*
X0000115000Y0000240000D03*
X0000165000Y0000152500D03*
X0000060000Y0000210000D03*
X0000090000Y0000235000D03*
X0000190000Y0000305000D03*
X0000040000Y0000097500D03*
X0000180000Y0000317500D03*
X0000060000Y0000220000D03*
X0000040000Y0000092500D03*
X0000179500Y0000330000D03*
X0000075000Y0000220000D03*
X0000090000Y0000260000D03*
X0000055000Y0000075000D03*
X0000085000Y0000240000D03*
X0000037500Y0000225000D03*
X0000220000Y0000095000D03*
X0000075000Y0000260000D03*
X0000220000Y0000080000D03*
X0000085000Y0000260000D03*
X0000220000Y0000065000D03*
X0000055000Y0000240000D03*
X0000037500Y0000194800D03*
X0000110000Y0000260000D03*
X0000220000Y0000100000D03*
X0000105000Y0000260000D03*
X0000080000Y0000260000D03*
X0000095000Y0000260000D03*
X0000100000Y0000260000D03*
X0000240000Y0000265000D03*
X0000150000Y0000195000D03*
X0000120000Y0000235000D03*
X0000065000Y0000100000D03*
X0000060000Y0000095000D03*
X0000070000Y0000070000D03*
X0000060000Y0000075000D03*
X0000240000Y0000270000D03*
X0000170000Y0000195000D03*
X0000170000Y0000200000D03*
X0000170000Y0000190000D03*
X0000110000Y0000200000D03*
X0000190000Y0000280000D03*
X0000075000Y0000070000D03*
X0000090000Y0000100000D03*
X0000090000Y0000095000D03*
X0000090000Y0000090000D03*
X0000075000Y0000100000D03*
X0000195000Y0000195000D03*
X0000200000Y0000280000D03*
X0000195000Y0000280000D03*
X0000080000Y0000215000D03*
X0000070000Y0000100000D03*
X0000250000Y0000345000D03*
X0000159500Y0000110000D03*
X0000150500Y0000105000D03*
X0000194500Y0000085000D03*
X0000154000Y0000105000D03*
X0000250000Y0000330000D03*
X0000156000Y0000110000D03*
X0000191000Y0000085000D03*
X0000085000Y0000180000D03*
X0000250000Y0000150000D03*
X0000120000Y0000175000D03*
X0000250000Y0000255000D03*
X0000120000Y0000195000D03*
X0000250000Y0000260000D03*
X0000115000Y0000235000D03*
X0000250000Y0000185000D03*
X0000190000Y0000345000D03*
X0000135000Y0000240000D03*
X0000135000Y0000215000D03*
X0000250000Y0000245000D03*
X0000120000Y0000180000D03*
X0000250000Y0000200000D03*
X0000245000Y0000345000D03*
X0000210000Y0000100000D03*
X0000210000Y0000125000D03*
X0000175000Y0000110000D03*
X0000175000Y0000115000D03*
X0000184000Y0000125000D03*
X0000190000Y0000125000D03*
X0000195000Y0000125000D03*
X0000200500Y0000125000D03*
X0000210000Y0000115000D03*
X0000210000Y0000110000D03*
X0000210000Y0000105000D03*
X0000200000Y0000090000D03*
X0000195000Y0000090000D03*
X0000200000Y0000085000D03*
X0000190000Y0000090000D03*
X0000184500Y0000090000D03*
X0000175000Y0000097500D03*
X0000174500Y0000105000D03*
X0000420000Y0000025000D03*
X0000400000Y0000025000D03*
X0000400000Y0000050000D03*
X0000490000Y0000050000D03*
X0000440000Y0000035000D03*
X0000440000Y0000030000D03*
X0000435000Y0000030000D03*
X0000435000Y0000035000D03*
X0000420000Y0000035000D03*
X0000420000Y0000030000D03*
X0000470000Y0000020000D03*
X0000260000Y0000045000D03*
X0000280000Y0000052500D03*
X0000320000Y0000040000D03*
X0000320000Y0000025000D03*
X0000310000Y0000010000D03*
X0000330000Y0000010000D03*
X0000355000Y0000010000D03*
X0000380000Y0000010000D03*
X0000405000Y0000010000D03*
X0000430000Y0000010000D03*
X0000455000Y0000010000D03*
X0000417500Y0000045000D03*
X0000485000Y0000042500D03*
X0000410000Y0000042500D03*
X0000390000Y0000015000D03*
X0000385000Y0000015000D03*
X0000380000Y0000015000D03*
X0000375000Y0000015000D03*
X0000370000Y0000015000D03*
X0000365000Y0000015000D03*
X0000360000Y0000015000D03*
X0000355000Y0000015000D03*
X0000350000Y0000015000D03*
X0000390000Y0000045000D03*
X0000465000Y0000020000D03*
X0000410000Y0000025000D03*
X0000480000Y0000035000D03*
X0000480000Y0000040000D03*
X0000280000Y0000030000D03*
X0000280000Y0000025000D03*
X0000290000Y0000020000D03*
X0000285000Y0000020000D03*
X0000280000Y0000020000D03*
X0000275000Y0000020000D03*
X0000275000Y0000025000D03*
X0000275000Y0000030000D03*
X0000410000Y0000037500D03*
X0000360000Y0000305000D03*
X0000362500Y0000330000D03*
X0000345000Y0000300000D03*
X0000275000Y0000165000D03*
X0000350000Y0000300000D03*
X0000355000Y0000345000D03*
X0000265000Y0000165000D03*
X0000255000Y0000303500D03*
X0000330000Y0000330000D03*
X0000367500Y0000330000D03*
X0000355000Y0000317500D03*
X0000353000Y0000330000D03*
X0000339500Y0000330000D03*
X0000365000Y0000305000D03*
X0000370000Y0000305000D03*
X0000365000Y0000345000D03*
X0000357500Y0000330000D03*
X0000325000Y0000275000D03*
X0000265000Y0000275000D03*
X0000260000Y0000275000D03*
X0000335000Y0000275000D03*
X0000340000Y0000275000D03*
X0000365000Y0000165000D03*
X0000360000Y0000165000D03*
X0000375000Y0000237000D03*
X0000355000Y0000170000D03*
X0000280000Y0000275000D03*
X0000275000Y0000275000D03*
X0000360000Y0000220000D03*
X0000350000Y0000165000D03*
X0000345000Y0000165000D03*
X0000475000Y0000055000D03*
X0000370000Y0000345000D03*
X0000370000Y0000317500D03*
X0000490000Y0000095000D03*
X0000490000Y0000090000D03*
X0000470000Y0000095000D03*
X0000470000Y0000090000D03*
X0000475000Y0000100000D03*
X0000480000Y0000100000D03*
X0000485000Y0000100000D03*
X0000470000Y0000100000D03*
X0000490000Y0000100000D03*
X0000490000Y0000150000D03*
X0000490000Y0000155000D03*
X0000490000Y0000160000D03*
X0000470000Y0000150000D03*
X0000470000Y0000155000D03*
X0000460000Y0000160000D03*
X0000465000Y0000160000D03*
X0000470000Y0000160000D03*
X0000485000Y0000160000D03*
X0000480000Y0000160000D03*
X0000475000Y0000160000D03*
X0000375000Y0000233500D03*
X0000255000Y0000150000D03*
X0000350000Y0000295000D03*
X0000255000Y0000295000D03*
X0000280000Y0000295000D03*
X0000276000Y0000295000D03*
X0000270500Y0000295000D03*
X0000265000Y0000295000D03*
X0000260000Y0000295000D03*
X0000335000Y0000295000D03*
X0000340000Y0000295000D03*
X0000350000Y0000145000D03*
X0000345000Y0000145000D03*
X0000355000Y0000145000D03*
X0000425000Y0000105000D03*
X0000425000Y0000075000D03*
X0000425000Y0000100000D03*
X0000425000Y0000095000D03*
X0000425000Y0000090000D03*
X0000425000Y0000085000D03*
X0000425000Y0000080000D03*
X0000435000Y0000105000D03*
X0000430000Y0000105000D03*
X0000435000Y0000075000D03*
X0000430000Y0000075000D03*
X0000430000Y0000085000D03*
X0000435000Y0000085000D03*
X0000435000Y0000080000D03*
X0000430000Y0000080000D03*
X0000375000Y0000180000D03*
X0000380000Y0000220000D03*
X0000380000Y0000225000D03*
X0000280000Y0000115000D03*
X0000275000Y0000075000D03*
X0000275000Y0000080000D03*
X0000329000Y0000130000D03*
X0000330000Y0000140500D03*
X0000340000Y0000110000D03*
X0000340000Y0000120000D03*
X0000360000Y0000120000D03*
X0000321000Y0000172900D03*
X0000355000Y0000120000D03*
X0000350000Y0000120000D03*
X0000345000Y0000120000D03*
X0000345000Y0000105000D03*
X0000345000Y0000100000D03*
X0000345000Y0000110000D03*
X0000345000Y0000115000D03*
X0000350000Y0000115000D03*
X0000255000Y0000120000D03*
X0000260000Y0000130000D03*
X0000260000Y0000125000D03*
X0000260000Y0000120000D03*
X0000295000Y0000130000D03*
X0000295000Y0000135000D03*
X0000295000Y0000125000D03*
X0000295000Y0000140000D03*
X0000360000Y0000250000D03*
X0000319000Y0000115000D03*
X0000302500Y0000115000D03*
X0000255000Y0000180000D03*
X0000375000Y0000203500D03*
X0000375000Y0000207000D03*
X0000300000Y0000330000D03*
X0000275000Y0000090000D03*
X0000290000Y0000310000D03*
X0000410000Y0000240000D03*
X0000334000Y0000120500D03*
X0000329500Y0000124500D03*
X0000329500Y0000118500D03*
X0000443500Y0000263500D03*
X0000386500Y0000255500D03*
X0000275000Y0000065000D03*
X0000282500Y0000075000D03*
X0000280000Y0000065000D03*
X0000340000Y0000087500D03*
X0000342500Y0000065000D03*
X0000325000Y0000087500D03*
X0000302500Y0000087500D03*
X0000320000Y0000070000D03*
X0000295000Y0000067500D03*
X0000297500Y0000055000D03*
X0000315000Y0000055000D03*
X0000330000Y0000055000D03*
X0000380000Y0000135000D03*
X0000392500Y0000122500D03*
X0000410000Y0000125000D03*
X0000405000Y0000110000D03*
X0000405000Y0000122500D03*
X0000412500Y0000065000D03*
X0000397500Y0000060000D03*
X0000402500Y0000067500D03*
X0000415000Y0000070000D03*
X0000450000Y0000055000D03*
X0000442500Y0000055000D03*
X0000450000Y0000062500D03*
X0000442500Y0000062500D03*
X0000455000Y0000075000D03*
X0000460000Y0000080000D03*
X0000447500Y0000080000D03*
X0000447500Y0000110000D03*
X0000395000Y0000165000D03*
X0000425000Y0000165000D03*
X0000410000Y0000165000D03*
X0000395000Y0000172500D03*
X0000435000Y0000175000D03*
X0000482500Y0000190000D03*
X0000480000Y0000165000D03*
X0000462500Y0000165000D03*
X0000445000Y0000165000D03*
X0000437500Y0000165000D03*
X0000462500Y0000175000D03*
X0000445000Y0000175000D03*
X0000460000Y0000127500D03*
X0000445000Y0000127500D03*
X0000460000Y0000140000D03*
X0000445000Y0000140000D03*
X0000490000Y0000110000D03*
X0000475000Y0000110000D03*
X0000475000Y0000122500D03*
X0000490000Y0000122500D03*
X0000500000Y0000055000D03*
X0000500000Y0000067500D03*
X0000500000Y0000085000D03*
X0000500000Y0000110000D03*
X0000500000Y0000135000D03*
X0000500000Y0000160000D03*
X0000490000Y0000177500D03*
X0000500000Y0000192500D03*
X0000490000Y0000210000D03*
X0000500000Y0000225000D03*
X0000490000Y0000240000D03*
X0000500000Y0000255000D03*
X0000460000Y0000300000D03*
X0000382500Y0000320000D03*
X0000385000Y0000310000D03*
X0000400000Y0000310000D03*
X0000415000Y0000310000D03*
X0000415000Y0000297500D03*
X0000385000Y0000290000D03*
X0000405000Y0000290000D03*
X0000490000Y0000272500D03*
X0000500000Y0000275000D03*
X0000497500Y0000295000D03*
X0000457500Y0000332500D03*
X0000457500Y0000317500D03*
X0000467500Y0000290000D03*
X0000487500Y0000290000D03*
X0000477500Y0000300000D03*
X0000467500Y0000310000D03*
X0000487500Y0000310000D03*
X0000430000Y0000290000D03*
X0000450000Y0000290000D03*
X0000440000Y0000300000D03*
X0000440000Y0000337500D03*
X0000460000Y0000337500D03*
X0000400000Y0000337500D03*
X0000420000Y0000337500D03*
X0000390000Y0000345000D03*
X0000410000Y0000345000D03*
X0000430000Y0000345000D03*
X0000450000Y0000345000D03*
X0000450000Y0000325000D03*
X0000430000Y0000325000D03*
X0000440000Y0000315000D03*
X0000450000Y0000305000D03*
X0000430000Y0000305000D03*
X0000315000Y0000345000D03*
X0000378500Y0000240000D03*
X0000282500Y0000288500D03*
X0000356000Y0000348500D03*
X0000366500Y0000348000D03*
X0000351000Y0000346500D03*
X0000364100Y0000333000D03*
X0000346100Y0000328100D03*
X0000345085Y0000296451D03*
X0000260400Y0000333300D03*
X0000266400Y0000333300D03*
X0000266400Y0000327300D03*
X0000260400Y0000327300D03*
X0000298000Y0000151500D03*
X0000298000Y0000145500D03*
X0000304000Y0000151500D03*
X0000304000Y0000145500D03*
X0000310000Y0000145500D03*
X0000310000Y0000151500D03*
X0000316000Y0000151500D03*
X0000316000Y0000145500D03*
X0000322000Y0000145500D03*
X0000322000Y0000151500D03*
X0000328000Y0000151500D03*
X0000334000Y0000151500D03*
X0000334000Y0000145500D03*
X0000328000Y0000145500D03*
X0000259500Y0000306500D03*
X0000265500Y0000306500D03*
X0000265500Y0000300500D03*
X0000259500Y0000300500D03*
X0000280500Y0000349500D03*
X0000286500Y0000349500D03*
X0000286500Y0000343500D03*
X0000280500Y0000343500D03*
X0000270500Y0000349500D03*
X0000276500Y0000349500D03*
X0000276500Y0000343500D03*
X0000270500Y0000343500D03*
X0000270500Y0000306500D03*
X0000276500Y0000306500D03*
X0000276500Y0000300500D03*
X0000270500Y0000300500D03*
X0000280500Y0000306500D03*
X0000286500Y0000306500D03*
X0000286500Y0000300500D03*
X0000280500Y0000300500D03*
X0000289500Y0000294500D03*
X0000295500Y0000294500D03*
X0000295500Y0000288500D03*
X0000289500Y0000288500D03*
X0000299500Y0000294500D03*
X0000305500Y0000294500D03*
X0000305500Y0000288500D03*
X0000299500Y0000288500D03*
X0000311000Y0000294500D03*
X0000317000Y0000294500D03*
X0000317000Y0000288500D03*
X0000311000Y0000288500D03*
X0000385500Y0000297500D03*
X0000391500Y0000297500D03*
X0000391500Y0000303500D03*
X0000385500Y0000303500D03*
X0000397500Y0000297500D03*
X0000397500Y0000303500D03*
X0000403500Y0000297500D03*
X0000403500Y0000303500D03*
X0000317500Y0000317500D03*
X0000260000Y0000135000D03*
X0000260000Y0000140000D03*
X0000255000Y0000140000D03*
X0000321000Y0000167500D03*
X0000315000Y0000270000D03*
X0000330000Y0000275000D03*
X0000255000Y0000275000D03*
X0000255000Y0000195000D03*
X0000260000Y0000095000D03*
X0000255000Y0000110000D03*
X0000266500Y0000086500D03*
X0000490000Y0000065000D03*
X0000490000Y0000055000D03*
X0000395000Y0000160000D03*
X0000395000Y0000155000D03*
X0000395000Y0000150000D03*
X0000395000Y0000145000D03*
X0000395000Y0000140000D03*
X0000395000Y0000135000D03*
X0000395000Y0000130000D03*
X0000420000Y0000060000D03*
X0000490000Y0000080000D03*
X0000490000Y0000075000D03*
X0000490000Y0000070000D03*
X0000485000Y0000070000D03*
X0000480000Y0000070000D03*
X0000475000Y0000070000D03*
X0000470000Y0000070000D03*
X0000470000Y0000075000D03*
X0000470000Y0000080000D03*
X0000395000Y0000075000D03*
X0000395000Y0000080000D03*
X0000395000Y0000085000D03*
X0000395000Y0000090000D03*
X0000395000Y0000095000D03*
X0000395000Y0000100000D03*
X0000395000Y0000105000D03*
X0000420000Y0000120000D03*
X0000470000Y0000140000D03*
X0000470000Y0000135000D03*
X0000470000Y0000130000D03*
X0000475000Y0000130000D03*
X0000480000Y0000130000D03*
X0000485000Y0000130000D03*
X0000490000Y0000130000D03*
X0000490000Y0000135000D03*
X0000492400Y0000140000D03*
X0000360000Y0000260000D03*
X0000375000Y0000245000D03*
X0000370000Y0000290000D03*
X0000375000Y0000290000D03*
X0000365000Y0000290000D03*
X0000270000Y0000125000D03*
X0000270000Y0000140000D03*
X0000270000Y0000130000D03*
X0000270000Y0000135000D03*
X0000371000Y0000130000D03*
X0000371000Y0000135000D03*
X0000371000Y0000125000D03*
X0000371000Y0000140000D03*
X0000270000Y0000275000D03*
X0000370000Y0000165000D03*
X0000355000Y0000165000D03*
X0000345000Y0000275000D03*
X0000350000Y0000290000D03*
X0000350000Y0000285000D03*
X0000350000Y0000280000D03*
X0000380000Y0000165000D03*
X0000385000Y0000165000D03*
X0000375000Y0000165000D03*
X0000375000Y0000250000D03*
X0000310000Y0000170000D03*
X0000360000Y0000195000D03*
X0000375000Y0000175000D03*
X0000295000Y0000150000D03*
X0000375000Y0000185000D03*
X0000360000Y0000200000D03*
X0000284573Y0000165000D03*
X0000375000Y0000170000D03*
X0000380000Y0000210000D03*
X0000265000Y0000150000D03*
X0000360000Y0000225000D03*
X0000410000Y0000250000D03*
X0000405000Y0000280000D03*
X0000400000Y0000280000D03*
X0000405000Y0000175000D03*
X0000400000Y0000175000D03*
X0000305000Y0000345000D03*
X0000307500Y0000317500D03*
X0000287500Y0000317500D03*
X0000277500Y0000317500D03*
X0000267500Y0000317500D03*
X0000257500Y0000317500D03*
X0000327500Y0000317500D03*
X0000377500Y0000325000D03*
X0000302500Y0000325000D03*
X0000292500Y0000325000D03*
X0000390000Y0000065000D03*
X0000390000Y0000070000D03*
X0000390000Y0000090000D03*
X0000390000Y0000095000D03*
X0000390000Y0000115000D03*
X0000287500Y0000332500D03*
X0000277500Y0000332500D03*
X0000325000Y0000295000D03*
X0000257500Y0000345000D03*
X0000265000Y0000345000D03*
X0000255000Y0000105000D03*
X0000490000Y0000060000D03*
X0000270000Y0000165000D03*
X0000325000Y0000345000D03*
X0000310000Y0000345000D03*
X0000350000Y0000317500D03*
X0000345000Y0000317500D03*
X0000340000Y0000305000D03*
X0000350000Y0000305000D03*
X0000315000Y0000330000D03*
X0000340000Y0000317500D03*
X0000345000Y0000305000D03*
X0000340000Y0000345000D03*
X0000335000Y0000330000D03*
X0000335000Y0000345000D03*
X0000310100Y0000330000D03*
X0000255000Y0000330000D03*
X0000345000Y0000345000D03*
X0000320000Y0000345000D03*
X0000338000Y0000145000D03*
X0000325000Y0000330000D03*
X0000278000Y0000145000D03*
X0000320000Y0000330000D03*
X0000330000Y0000305000D03*
X0000330000Y0000345000D03*
X0000291500Y0000145000D03*
X0000335000Y0000317500D03*
X0000281500Y0000145000D03*
X0000341500Y0000145000D03*
X0000335000Y0000305000D03*
X0000288000Y0000145000D03*
X0000255000Y0000200000D03*
X0000334000Y0000271000D03*
X0000343500Y0000330000D03*
X0000360000Y0000345000D03*
X0000348655Y0000330155D03*
G54D25*
X0000271929Y0000193228D03*
X0000300275Y0000256221D03*
X0000325473Y0000262520D03*
X0000268779Y0000193228D03*
X0000338071Y0000262520D03*
X0000268779Y0000196378D03*
X0000293976Y0000256221D03*
X0000322323Y0000256221D03*
X0000322323Y0000259370D03*
X0000325473Y0000256221D03*
X0000278228Y0000183779D03*
X0000268779Y0000208976D03*
X0000271929Y0000196378D03*
X0000268779Y0000205827D03*
X0000331772Y0000256221D03*
X0000322323Y0000253071D03*
X0000328622Y0000253071D03*
X0000268779Y0000199527D03*
X0000290827Y0000256221D03*
X0000331772Y0000262520D03*
X0000474920Y0000201575D03*
X0000474920Y0000234075D03*
X0000474920Y0000266575D03*
X0000338071Y0000231024D03*
X0000328622Y0000259370D03*
X0000478069Y0000201575D03*
X0000478069Y0000234075D03*
X0000478069Y0000266575D03*
X0000347520Y0000231024D03*
X0000328622Y0000262520D03*
X0000468621Y0000266575D03*
X0000468621Y0000234075D03*
X0000468621Y0000201575D03*
X0000344370Y0000231024D03*
X0000325473Y0000259370D03*
X0000471771Y0000201575D03*
X0000471771Y0000234075D03*
X0000471771Y0000266575D03*
X0000344370Y0000227874D03*
X0000262480Y0000240473D03*
X0000331772Y0000259370D03*
X0000462322Y0000266575D03*
X0000462322Y0000234075D03*
X0000462322Y0000201575D03*
X0000338071Y0000227874D03*
X0000468621Y0000198425D03*
X0000468621Y0000230925D03*
X0000468621Y0000263425D03*
X0000347520Y0000224725D03*
X0000319173Y0000262520D03*
X0000297126Y0000256221D03*
X0000465471Y0000198425D03*
X0000465471Y0000230925D03*
X0000465471Y0000263425D03*
X0000341221Y0000224725D03*
X0000284527Y0000256221D03*
X0000316024Y0000259370D03*
X0000316024Y0000249921D03*
X0000300275Y0000259370D03*
X0000287677Y0000249921D03*
X0000300275Y0000246771D03*
X0000341221Y0000259370D03*
X0000440275Y0000276024D03*
X0000341221Y0000221575D03*
X0000474920Y0000263425D03*
X0000474920Y0000230925D03*
X0000474920Y0000198425D03*
X0000309725Y0000237323D03*
X0000309724Y0000231024D03*
X0000306575Y0000234173D03*
X0000300275Y0000237323D03*
X0000297126Y0000234173D03*
X0000484367Y0000230925D03*
X0000484367Y0000263425D03*
X0000484367Y0000198425D03*
X0000351000Y0000212126D03*
X0000309725Y0000186929D03*
X0000322323Y0000186929D03*
X0000446575Y0000276024D03*
X0000358885Y0000217214D03*
X0000471771Y0000263425D03*
X0000471771Y0000230925D03*
X0000471771Y0000198425D03*
X0000481218Y0000263425D03*
X0000481218Y0000230925D03*
X0000481218Y0000198425D03*
X0000341221Y0000208976D03*
X0000319173Y0000190079D03*
X0000297126Y0000190079D03*
X0000309725Y0000190079D03*
X0000328622Y0000190079D03*
X0000478069Y0000263425D03*
X0000478069Y0000230925D03*
X0000478069Y0000198425D03*
X0000344370Y0000212126D03*
X0000425000Y0000220000D03*
X0000341221Y0000183779D03*
X0000443425Y0000250828D03*
X0000356500Y0000255000D03*
X0000300275Y0000249921D03*
X0000316024Y0000253071D03*
X0000309725Y0000249921D03*
X0000293976Y0000249921D03*
X0000312874Y0000208976D03*
X0000319173Y0000208976D03*
X0000309725Y0000202677D03*
X0000316024Y0000202677D03*
X0000322323Y0000202677D03*
X0000344370Y0000177480D03*
X0000293976Y0000190079D03*
X0000306575Y0000190079D03*
X0000316024Y0000190079D03*
X0000325473Y0000190079D03*
X0000309725Y0000180630D03*
X0000322323Y0000180630D03*
X0000293976Y0000177480D03*
X0000424527Y0000185827D03*
X0000355500Y0000184000D03*
X0000456023Y0000198425D03*
X0000456023Y0000230925D03*
X0000456023Y0000263425D03*
X0000338071Y0000208976D03*
X0000430827Y0000214173D03*
X0000344370Y0000183779D03*
X0000459172Y0000198425D03*
X0000459172Y0000230925D03*
X0000459172Y0000263425D03*
X0000341221Y0000215275D03*
X0000449724Y0000263425D03*
X0000449724Y0000230925D03*
X0000449724Y0000198425D03*
X0000334921Y0000215275D03*
X0000462322Y0000198425D03*
X0000462322Y0000230925D03*
X0000462322Y0000263425D03*
X0000338071Y0000212126D03*
X0000341221Y0000193228D03*
X0000437126Y0000279173D03*
X0000347520Y0000256221D03*
X0000465471Y0000266575D03*
X0000465471Y0000234075D03*
X0000465471Y0000201575D03*
X0000341221Y0000234173D03*
X0000430827Y0000279173D03*
X0000341221Y0000240473D03*
X0000481218Y0000201575D03*
X0000481218Y0000234075D03*
X0000481218Y0000266575D03*
X0000341221Y0000231024D03*
X0000459172Y0000266575D03*
X0000459172Y0000234075D03*
X0000459172Y0000201575D03*
X0000334921Y0000231024D03*
X0000427677Y0000211024D03*
X0000350600Y0000195000D03*
X0000456023Y0000266575D03*
X0000456023Y0000234075D03*
X0000456023Y0000201575D03*
X0000344370Y0000224725D03*
X0000452873Y0000201575D03*
X0000452873Y0000234075D03*
X0000452873Y0000266575D03*
X0000334921Y0000227874D03*
X0000338071Y0000221575D03*
X0000452873Y0000198425D03*
X0000452873Y0000230925D03*
X0000452873Y0000263425D03*
X0000437126Y0000214173D03*
X0000338071Y0000199527D03*
X0000341221Y0000212126D03*
X0000290827Y0000253071D03*
X0000287677Y0000253071D03*
X0000331772Y0000180630D03*
X0000297126Y0000180630D03*
X0000449725Y0000276024D03*
X0000319173Y0000183779D03*
X0000427677Y0000253977D03*
X0000341221Y0000246772D03*
X0000316024Y0000183779D03*
X0000300275Y0000180630D03*
X0000328622Y0000180630D03*
X0000438463Y0000248962D03*
X0000347520Y0000253071D03*
X0000300275Y0000183779D03*
X0000427677Y0000276024D03*
X0000338071Y0000246772D03*
X0000306575Y0000183779D03*
X0000271929Y0000199527D03*
X0000433976Y0000276024D03*
X0000341221Y0000256221D03*
X0000438000Y0000183500D03*
X0000341221Y0000196378D03*
X0000435000Y0000180000D03*
X0000338071Y0000202677D03*
X0000268779Y0000186929D03*
X0000309725Y0000253071D03*
X0000271929Y0000190079D03*
X0000312874Y0000253071D03*
X0000443425Y0000192126D03*
X0000354000Y0000195000D03*
X0000278228Y0000177480D03*
X0000421379Y0000211024D03*
X0000341221Y0000186929D03*
X0000338071Y0000249921D03*
X0000424527Y0000207874D03*
X0000344370Y0000186929D03*
X0000433976Y0000211024D03*
X0000341221Y0000199527D03*
X0000316024Y0000237323D03*
X0000319173Y0000234173D03*
X0000322323Y0000231024D03*
X0000316024Y0000227874D03*
X0000319173Y0000227874D03*
X0000306575Y0000227874D03*
X0000309725Y0000224725D03*
X0000319173Y0000221575D03*
X0000312874Y0000221575D03*
X0000306575Y0000221575D03*
X0000309725Y0000215275D03*
X0000316024Y0000215275D03*
X0000322323Y0000215275D03*
X0000306575Y0000212126D03*
X0000309725Y0000208976D03*
X0000322323Y0000208976D03*
X0000306575Y0000205827D03*
X0000287677Y0000237323D03*
X0000293976Y0000237323D03*
X0000287677Y0000231024D03*
X0000293976Y0000231024D03*
X0000300275Y0000231024D03*
X0000290827Y0000227874D03*
X0000297126Y0000227874D03*
X0000300275Y0000224725D03*
X0000290827Y0000221575D03*
X0000297126Y0000221575D03*
X0000300275Y0000215275D03*
X0000293976Y0000215275D03*
X0000287677Y0000215275D03*
X0000290827Y0000212126D03*
X0000300275Y0000208976D03*
X0000293976Y0000208976D03*
X0000290827Y0000205827D03*
X0000300275Y0000202677D03*
X0000293976Y0000202677D03*
X0000322323Y0000237323D03*
X0000278228Y0000249921D03*
X0000281378Y0000249921D03*
X0000360000Y0000240000D03*
X0000430827Y0000250827D03*
X0000351500Y0000240000D03*
X0000268779Y0000243622D03*
X0000437126Y0000207874D03*
X0000344370Y0000199527D03*
X0000443425Y0000185827D03*
X0000347520Y0000196378D03*
X0000341221Y0000249921D03*
X0000271929Y0000186929D03*
X0000349000Y0000188600D03*
X0000427677Y0000188976D03*
X0000443425Y0000214173D03*
X0000344370Y0000196378D03*
X0000338071Y0000193228D03*
X0000278228Y0000186929D03*
X0000449724Y0000211024D03*
X0000352500Y0000262500D03*
X0000443425Y0000272874D03*
X0000443425Y0000279173D03*
X0000344370Y0000253071D03*
X0000446575Y0000211024D03*
X0000421379Y0000276024D03*
X0000344370Y0000243622D03*
X0000265630Y0000215275D03*
X0000430827Y0000272874D03*
X0000344370Y0000246772D03*
X0000424527Y0000257127D03*
X0000338071Y0000240473D03*
X0000265630Y0000202677D03*
X0000426000Y0000248500D03*
X0000338071Y0000259370D03*
X0000424527Y0000272874D03*
X0000341221Y0000243622D03*
X0000271929Y0000205827D03*
X0000443425Y0000207874D03*
X0000350500Y0000203500D03*
X0000424527Y0000192126D03*
X0000338071Y0000183779D03*
X0000424527Y0000279173D03*
X0000356500Y0000250000D03*
X0000440275Y0000211024D03*
X0000355500Y0000203500D03*
X0000424527Y0000250827D03*
X0000344370Y0000240473D03*
X0000443425Y0000188976D03*
X0000341221Y0000202677D03*
X0000271929Y0000202677D03*
X0000443425Y0000257127D03*
X0000334921Y0000253071D03*
X0000268779Y0000202677D03*
X0000430827Y0000257127D03*
X0000352050Y0000242746D03*
X0000430827Y0000207874D03*
X0000341221Y0000190079D03*
X0000341221Y0000205827D03*
X0000262480Y0000202677D03*
X0000338071Y0000205827D03*
X0000271929Y0000180630D03*
X0000430827Y0000185827D03*
X0000334921Y0000190079D03*
X0000341221Y0000237323D03*
X0000265630Y0000237323D03*
X0000338071Y0000237323D03*
X0000430827Y0000192126D03*
X0000351325Y0000185729D03*
X0000443425Y0000253977D03*
X0000341221Y0000253071D03*
X0000271929Y0000237323D03*
X0000297126Y0000186929D03*
X0000271929Y0000249921D03*
X0000312874Y0000186929D03*
X0000271929Y0000246772D03*
X0000300275Y0000177480D03*
X0000281378Y0000186929D03*
X0000262480Y0000237323D03*
X0000275079Y0000183779D03*
X0000275079Y0000186929D03*
X0000271929Y0000215275D03*
X0000446575Y0000188976D03*
X0000446575Y0000253977D03*
X0000287677Y0000183779D03*
X0000265630Y0000177480D03*
X0000265630Y0000180630D03*
X0000446575Y0000257127D03*
X0000268779Y0000249921D03*
X0000334921Y0000234173D03*
X0000312875Y0000256220D03*
X0000281378Y0000256221D03*
X0000278228Y0000256220D03*
X0000306575Y0000253071D03*
X0000316024Y0000256221D03*
X0000344370Y0000262520D03*
X0000312875Y0000259370D03*
X0000306575Y0000262520D03*
X0000334921Y0000259370D03*
X0000306575Y0000259370D03*
X0000334921Y0000256221D03*
X0000331772Y0000253071D03*
X0000344370Y0000249921D03*
X0000328622Y0000246771D03*
X0000325473Y0000249921D03*
X0000319173Y0000249921D03*
X0000312874Y0000249921D03*
X0000306575Y0000249921D03*
X0000331771Y0000246772D03*
X0000338071Y0000243622D03*
X0000344370Y0000234173D03*
X0000319173Y0000237323D03*
X0000312874Y0000237323D03*
X0000306575Y0000237323D03*
X0000322323Y0000234173D03*
X0000316024Y0000231024D03*
X0000319173Y0000231024D03*
X0000306575Y0000231024D03*
X0000347520Y0000227874D03*
X0000331771Y0000227874D03*
X0000316024Y0000224725D03*
X0000309725Y0000227874D03*
X0000319173Y0000224725D03*
X0000306575Y0000224725D03*
X0000347520Y0000221575D03*
X0000334921Y0000221575D03*
X0000322323Y0000221575D03*
X0000316024Y0000221575D03*
X0000309725Y0000221575D03*
X0000306575Y0000215275D03*
X0000312874Y0000215275D03*
X0000319173Y0000215275D03*
X0000338071Y0000215275D03*
X0000309725Y0000212126D03*
X0000322323Y0000212126D03*
X0000334921Y0000212126D03*
X0000347520Y0000212126D03*
X0000306575Y0000208976D03*
X0000316024Y0000208976D03*
X0000322323Y0000205827D03*
X0000334921Y0000205827D03*
X0000306575Y0000202677D03*
X0000312874Y0000202677D03*
X0000319173Y0000202677D03*
X0000334921Y0000199527D03*
X0000334921Y0000193228D03*
X0000347520Y0000193228D03*
X0000311500Y0000194000D03*
X0000322323Y0000190079D03*
X0000331772Y0000190079D03*
X0000319173Y0000186929D03*
X0000309725Y0000183779D03*
X0000322323Y0000183779D03*
X0000306575Y0000180630D03*
X0000316024Y0000180630D03*
X0000344370Y0000180630D03*
X0000309725Y0000177480D03*
X0000322323Y0000177480D03*
X0000331772Y0000177480D03*
X0000265630Y0000262520D03*
X0000268779Y0000262520D03*
X0000278228Y0000262520D03*
X0000284527Y0000262520D03*
X0000293976Y0000262520D03*
X0000265630Y0000259370D03*
X0000268779Y0000259370D03*
X0000275079Y0000259370D03*
X0000290827Y0000259370D03*
X0000293976Y0000259370D03*
X0000284527Y0000253071D03*
X0000265630Y0000256221D03*
X0000268779Y0000256221D03*
X0000293976Y0000253071D03*
X0000300275Y0000253071D03*
X0000265630Y0000249921D03*
X0000284527Y0000249921D03*
X0000290827Y0000249921D03*
X0000297126Y0000249921D03*
X0000275079Y0000246772D03*
X0000262480Y0000243622D03*
X0000275079Y0000240473D03*
X0000290827Y0000237323D03*
X0000297126Y0000237323D03*
X0000275079Y0000234173D03*
X0000300275Y0000234173D03*
X0000265630Y0000231024D03*
X0000290827Y0000231024D03*
X0000297126Y0000231024D03*
X0000275079Y0000227874D03*
X0000293976Y0000227874D03*
X0000300275Y0000227874D03*
X0000262480Y0000221575D03*
X0000275079Y0000221575D03*
X0000287677Y0000221575D03*
X0000293976Y0000221575D03*
X0000300275Y0000221575D03*
X0000297126Y0000215275D03*
X0000290827Y0000215275D03*
X0000300275Y0000212126D03*
X0000293976Y0000212126D03*
X0000290827Y0000208976D03*
X0000265630Y0000208976D03*
X0000300275Y0000205827D03*
X0000293976Y0000205827D03*
X0000275079Y0000205827D03*
X0000290827Y0000202677D03*
X0000275079Y0000199527D03*
X0000262480Y0000199527D03*
X0000275079Y0000193228D03*
X0000300275Y0000190079D03*
X0000290827Y0000190079D03*
X0000284527Y0000190079D03*
X0000278228Y0000190079D03*
X0000265630Y0000190079D03*
X0000293976Y0000186929D03*
X0000265630Y0000186929D03*
X0000262480Y0000186929D03*
X0000297126Y0000183779D03*
X0000300000Y0000172000D03*
X0000275079Y0000177480D03*
X0000271929Y0000177480D03*
X0000268779Y0000177480D03*
X0000334921Y0000240473D03*
X0000275079Y0000212126D03*
X0000347520Y0000180630D03*
X0000297126Y0000202677D03*
X0000287677Y0000227874D03*
X0000347520Y0000208976D03*
X0000437126Y0000211024D03*
X0000446575Y0000192126D03*
X0000443425Y0000211024D03*
X0000465473Y0000214173D03*
X0000462323Y0000185827D03*
X0000430827Y0000211024D03*
X0000424527Y0000211024D03*
X0000446575Y0000207874D03*
X0000440275Y0000188976D03*
X0000433976Y0000204724D03*
X0000424527Y0000188976D03*
X0000421378Y0000204724D03*
X0000433976Y0000192126D03*
X0000421379Y0000192126D03*
X0000440275Y0000253977D03*
X0000443425Y0000276024D03*
X0000462323Y0000250827D03*
X0000421378Y0000269725D03*
X0000424527Y0000253977D03*
X0000424527Y0000276024D03*
X0000433976Y0000269724D03*
X0000430827Y0000276024D03*
X0000437126Y0000276024D03*
X0000446575Y0000272874D03*
X0000465473Y0000279173D03*
X0000433976Y0000257127D03*
X0000421379Y0000257127D03*
X0000334921Y0000180630D03*
X0000271929Y0000183779D03*
X0000328622Y0000186929D03*
X0000312874Y0000190079D03*
X0000284527Y0000186929D03*
X0000287677Y0000186929D03*
X0000331772Y0000183779D03*
X0000312874Y0000180630D03*
X0000325473Y0000186929D03*
X0000312874Y0000183779D03*
X0000290827Y0000186929D03*
X0000306575Y0000177480D03*
X0000328622Y0000183779D03*
X0000278228Y0000180630D03*
X0000484367Y0000234075D03*
X0000484367Y0000201575D03*
X0000484367Y0000266575D03*
X0000338071Y0000234173D03*
X0000437126Y0000272874D03*
X0000344370Y0000256221D03*
X0000300275Y0000186929D03*
X0000271929Y0000256220D03*
X0000268779Y0000246772D03*
X0000268779Y0000240473D03*
X0000271929Y0000240473D03*
X0000265630Y0000243622D03*
X0000338071Y0000224725D03*
X0000271929Y0000243622D03*
X0000268779Y0000237323D03*
X0000268779Y0000224725D03*
X0000268779Y0000227874D03*
X0000268779Y0000221575D03*
X0000271929Y0000221575D03*
X0000265630Y0000227874D03*
X0000271929Y0000227874D03*
X0000262480Y0000224725D03*
X0000293976Y0000183779D03*
X0000262480Y0000212126D03*
X0000265630Y0000212126D03*
X0000271929Y0000234173D03*
X0000287677Y0000180630D03*
X0000262480Y0000215275D03*
X0000290827Y0000180630D03*
X0000271929Y0000224725D03*
X0000265630Y0000224725D03*
X0000265630Y0000234173D03*
X0000334921Y0000186929D03*
X0000262480Y0000227874D03*
X0000338071Y0000186929D03*
X0000271929Y0000231024D03*
X0000268779Y0000215275D03*
X0000268779Y0000231024D03*
X0000290827Y0000183779D03*
X0000331772Y0000186929D03*
X0000268779Y0000212126D03*
X0000325473Y0000253071D03*
X0000306575Y0000256221D03*
X0000328622Y0000256221D03*
X0000271929Y0000212126D03*
X0000268779Y0000190079D03*
X0000281378Y0000253071D03*
X0000271929Y0000208976D03*
X0000265630Y0000193228D03*
G54D11*
X0000152343Y0000012500D03*
X0000142500Y0000012500D03*
X0000189843Y0000012500D03*
X0000180000Y0000012500D03*
G54D14*
X0000119330Y0000320000D03*
X0000111456Y0000320000D03*
X0000103582Y0000320000D03*
X0000095708Y0000320000D03*
X0000119330Y0000330000D03*
X0000111456Y0000330000D03*
X0000103582Y0000330000D03*
X0000095708Y0000330000D03*
X0000392480Y0000320000D03*
X0000400354Y0000320000D03*
X0000408228Y0000320000D03*
X0000416102Y0000320000D03*
X0000392480Y0000330000D03*
X0000400354Y0000330000D03*
X0000408228Y0000330000D03*
X0000416102Y0000330000D03*
G54D17*
X0000010000Y0000152500D03*
X0000010000Y0000142500D03*
X0000020000Y0000152500D03*
X0000020000Y0000142500D03*
X0000020000Y0000092500D03*
X0000010000Y0000092500D03*
X0000020000Y0000102500D03*
X0000010000Y0000102500D03*
X0000020000Y0000112500D03*
X0000010000Y0000112500D03*
X0000020000Y0000122500D03*
X0000010000Y0000122500D03*
X0000020000Y0000132500D03*
X0000010000Y0000132500D03*
X0000020000Y0000252500D03*
X0000010000Y0000252500D03*
X0000020000Y0000262500D03*
X0000020000Y0000272500D03*
X0000010000Y0000272500D03*
X0000020000Y0000282500D03*
X0000010000Y0000282500D03*
X0000020000Y0000292500D03*
X0000010000Y0000292500D03*
G54D16*
X0000245000Y0000145000D03*
X0000168500Y0000107000D03*
X0000168500Y0000097000D03*
X0000207500Y0000080000D03*
X0000257500Y0000145000D03*
G54D15*
X0000135155Y0000332500D03*
X0000376655Y0000332500D03*
G54D23*
X0000287539Y0000039980D03*
X0000337461Y0000039980D03*
X0000337461Y0000027500D03*
X0000300020Y0000027500D03*
X0000287539Y0000027500D03*
X0000433476Y0000056508D03*
X0000461508Y0000056508D03*
X0000287539Y0000102500D03*
X0000300020Y0000102500D03*
X0000312500Y0000102500D03*
X0000324980Y0000102500D03*
X0000337461Y0000102500D03*
X0000337461Y0000077500D03*
X0000433484Y0000113760D03*
X0000447500Y0000151240D03*
X0000461516Y0000113760D03*
X0000461516Y0000151240D03*
X0000433476Y0000093988D03*
X0000447492Y0000093988D03*
X0000461508Y0000093988D03*
G54D18*
X0000010000Y0000262500D03*
G54D21*
X0000245000Y0000135000D03*
X0000240000Y0000140000D03*
X0000250000Y0000140000D03*
X0000045000Y0000095000D03*
X0000045000Y0000085000D03*
X0000130000Y0000075000D03*
X0000130000Y0000065000D03*
X0000105000Y0000100000D03*
X0000105000Y0000095000D03*
X0000055000Y0000100000D03*
X0000060000Y0000100000D03*
X0000045000Y0000075000D03*
X0000105000Y0000085000D03*
X0000095000Y0000120000D03*
X0000185000Y0000160000D03*
X0000160000Y0000150000D03*
X0000155000Y0000150000D03*
X0000145000Y0000150000D03*
X0000140000Y0000150000D03*
X0000115000Y0000090000D03*
X0000120000Y0000090000D03*
X0000130000Y0000150000D03*
X0000115000Y0000150000D03*
G54D13*
X0000220000Y0000045000D03*
X0000180000Y0000040000D03*
X0000175000Y0000040000D03*
X0000180000Y0000045000D03*
X0000175000Y0000045000D03*
X0000180000Y0000050000D03*
X0000175000Y0000050000D03*
X0000100000Y0000035000D03*
X0000060000Y0000030000D03*
X0000218500Y0000163000D03*
X0000228500Y0000205000D03*
X0000220000Y0000090000D03*
X0000220000Y0000060000D03*
X0000220000Y0000075000D03*
X0000235000Y0000205000D03*
X0000240000Y0000230000D03*
X0000240000Y0000250000D03*
X0000240000Y0000220000D03*
X0000240000Y0000200000D03*
X0000240000Y0000260000D03*
X0000240000Y0000210000D03*
X0000240000Y0000240000D03*
X0000240000Y0000190000D03*
X0000225000Y0000205000D03*
X0000220000Y0000169500D03*
X0000040000Y0000147500D03*
X0000040000Y0000152500D03*
X0000040000Y0000112500D03*
X0000025000Y0000187500D03*
X0000130000Y0000280000D03*
X0000130000Y0000275000D03*
X0000130000Y0000270000D03*
X0000135000Y0000270000D03*
X0000140000Y0000270000D03*
X0000135000Y0000275000D03*
X0000200000Y0000180000D03*
X0000190000Y0000180000D03*
X0000185000Y0000180000D03*
X0000200000Y0000250000D03*
X0000090000Y0000270000D03*
X0000085000Y0000270000D03*
X0000080000Y0000270000D03*
X0000075000Y0000270000D03*
X0000095000Y0000270000D03*
X0000100000Y0000270000D03*
X0000105000Y0000270000D03*
X0000110000Y0000270000D03*
X0000025000Y0000217500D03*
X0000040000Y0000272500D03*
X0000040000Y0000262500D03*
X0000055000Y0000180000D03*
X0000075000Y0000235000D03*
X0000075000Y0000205000D03*
X0000075000Y0000230000D03*
X0000105000Y0000240000D03*
X0000140000Y0000250000D03*
X0000150000Y0000075000D03*
X0000045000Y0000167500D03*
X0000180000Y0000055000D03*
X0000175000Y0000055000D03*
X0000175000Y0000060000D03*
X0000105000Y0000115000D03*
X0000185000Y0000287500D03*
X0000455000Y0000025000D03*
X0000455000Y0000030000D03*
X0000455000Y0000035000D03*
X0000425000Y0000045000D03*
X0000430000Y0000045000D03*
X0000435000Y0000045000D03*
X0000435000Y0000040000D03*
X0000440000Y0000040000D03*
X0000440000Y0000045000D03*
X0000445000Y0000045000D03*
X0000450000Y0000045000D03*
X0000455000Y0000040000D03*
X0000455000Y0000045000D03*
X0000460000Y0000045000D03*
X0000405000Y0000255000D03*
X0000400000Y0000255000D03*
X0000405000Y0000200000D03*
X0000400000Y0000200000D03*
X0000435000Y0000130000D03*
X0000430000Y0000130000D03*
X0000425000Y0000130000D03*
X0000435000Y0000160000D03*
X0000430000Y0000160000D03*
X0000425000Y0000160000D03*
X0000425000Y0000155000D03*
X0000425000Y0000150000D03*
X0000425000Y0000145000D03*
X0000425000Y0000140000D03*
X0000430000Y0000140000D03*
X0000435000Y0000140000D03*
X0000435000Y0000135000D03*
X0000430000Y0000135000D03*
X0000425000Y0000135000D03*
X0000360000Y0000190000D03*
X0000360000Y0000255000D03*
X0000370000Y0000265000D03*
X0000375000Y0000265000D03*
X0000365000Y0000265000D03*
X0000370000Y0000145000D03*
X0000360000Y0000145000D03*
X0000365000Y0000145000D03*
X0000380000Y0000140000D03*
X0000385000Y0000140000D03*
X0000360000Y0000245000D03*
X0000330000Y0000295000D03*
X0000380000Y0000200000D03*
X0000380000Y0000195000D03*
X0000380000Y0000190000D03*
X0000270000Y0000150000D03*
X0000380000Y0000215000D03*
G54D26*
X0000440275Y0000214173D03*
X0000440275Y0000192126D03*
X0000440275Y0000185827D03*
X0000440275Y0000272874D03*
X0000440275Y0000257127D03*
X0000427677Y0000272874D03*
X0000446575Y0000279173D03*
X0000459173Y0000279173D03*
X0000421379Y0000279173D03*
X0000427677Y0000279173D03*
X0000446575Y0000250828D03*
X0000468622Y0000250827D03*
X0000427677Y0000257127D03*
X0000427677Y0000250827D03*
X0000440275Y0000250827D03*
X0000433976Y0000279173D03*
X0000433976Y0000250827D03*
X0000421379Y0000250827D03*
X0000440275Y0000279173D03*
X0000446575Y0000214173D03*
X0000433976Y0000214173D03*
X0000459173Y0000214173D03*
X0000421379Y0000214173D03*
X0000440275Y0000207874D03*
X0000427677Y0000207874D03*
X0000427677Y0000214173D03*
X0000427677Y0000185827D03*
X0000433976Y0000185827D03*
X0000427677Y0000192126D03*
X0000468622Y0000185827D03*
X0000446575Y0000185827D03*
X0000421379Y0000185827D03*
X0000331771Y0000243622D03*
X0000347520Y0000262520D03*
X0000334921Y0000262520D03*
X0000322323Y0000262520D03*
X0000347520Y0000249921D03*
X0000331771Y0000249921D03*
X0000328622Y0000249921D03*
X0000322323Y0000249921D03*
X0000347520Y0000234173D03*
X0000334921Y0000237323D03*
X0000331771Y0000231024D03*
X0000341221Y0000227874D03*
X0000334921Y0000224725D03*
X0000344370Y0000221575D03*
X0000331771Y0000215275D03*
X0000334921Y0000208976D03*
X0000344370Y0000208976D03*
X0000334921Y0000202677D03*
X0000331771Y0000196378D03*
X0000344370Y0000193228D03*
X0000331772Y0000193228D03*
X0000347520Y0000177480D03*
X0000262480Y0000262520D03*
X0000275079Y0000262520D03*
X0000262480Y0000249921D03*
X0000275079Y0000249921D03*
X0000275079Y0000243622D03*
X0000265630Y0000240473D03*
X0000275079Y0000237323D03*
X0000262480Y0000231024D03*
X0000275079Y0000231024D03*
X0000275079Y0000224725D03*
X0000265630Y0000221575D03*
X0000275079Y0000215275D03*
X0000275079Y0000208976D03*
X0000262480Y0000208976D03*
X0000275079Y0000202677D03*
X0000265630Y0000199527D03*
X0000275079Y0000196378D03*
X0000287677Y0000190079D03*
X0000281378Y0000190079D03*
X0000275079Y0000190079D03*
X0000262480Y0000190079D03*
X0000275079Y0000180630D03*
X0000284527Y0000180630D03*
X0000262480Y0000177480D03*
G54D10*
X0000017500Y0000017500D03*
X0000017500Y0000336831D03*
X0000494311Y0000017500D03*
X0000494311Y0000336831D03*
G54D24*
X0000433484Y0000151240D03*
G54D20*
X0000215000Y0000275000D03*
X0000210000Y0000275000D03*
X0000210000Y0000270000D03*
X0000210000Y0000280000D03*
X0000155000Y0000290000D03*
G54D22*
X0000165000Y0000235000D03*
%LPC*%
G75*
G54D27*
G01X0000193405Y-0000025000D02*
X0000193405Y-0000015000D01*
X0000196405Y-0000015000D01*
X0000197405Y-0000015500D01*
X0000198155Y-0000016667D01*
X0000198405Y-0000018000D01*
X0000198155Y-0000019333D01*
X0000197530Y-0000020333D01*
X0000196405Y-0000020834D01*
X0000193405Y-0000020834D01*
G01X0000205905Y-0000025000D02*
X0000204905Y-0000024833D01*
X0000204030Y-0000024167D01*
X0000203280Y-0000023167D01*
X0000202780Y-0000022000D01*
X0000202530Y-0000020667D01*
X0000202530Y-0000019333D01*
X0000202780Y-0000018000D01*
X0000203280Y-0000016833D01*
X0000204030Y-0000015833D01*
X0000204905Y-0000015167D01*
X0000205905Y-0000015000D01*
X0000206905Y-0000015167D01*
X0000207780Y-0000015833D01*
X0000208530Y-0000016833D01*
X0000209030Y-0000018000D01*
X0000209280Y-0000019333D01*
X0000209280Y-0000020667D01*
X0000209030Y-0000022000D01*
X0000208530Y-0000023167D01*
X0000207780Y-0000024167D01*
X0000206905Y-0000024833D01*
X0000205905Y-0000025000D01*
G01X0000212155Y-0000015000D02*
X0000213905Y-0000025000D01*
X0000215905Y-0000015000D01*
X0000217905Y-0000025000D01*
X0000219655Y-0000015000D01*
G01X0000228405Y-0000025000D02*
X0000223405Y-0000025000D01*
X0000223405Y-0000015000D01*
X0000228405Y-0000015000D01*
G01X0000226405Y-0000019833D02*
X0000223405Y-0000019833D01*
G01X0000233405Y-0000025000D02*
X0000233405Y-0000015000D01*
X0000236530Y-0000015000D01*
X0000237530Y-0000015500D01*
X0000238155Y-0000016167D01*
X0000238405Y-0000017500D01*
X0000238155Y-0000018833D01*
X0000237405Y-0000019667D01*
X0000236530Y-0000020167D01*
X0000233405Y-0000020167D01*
G01X0000236530Y-0000020167D02*
X0000238405Y-0000025000D01*
G01X0000253405Y-0000025000D02*
X0000253405Y-0000015000D01*
X0000256405Y-0000015000D01*
X0000257405Y-0000015500D01*
X0000258155Y-0000016667D01*
X0000258405Y-0000018000D01*
X0000258155Y-0000019333D01*
X0000257530Y-0000020333D01*
X0000256405Y-0000020834D01*
X0000253405Y-0000020834D01*
G01X0000263405Y-0000015000D02*
X0000263405Y-0000025000D01*
X0000268405Y-0000025000D01*
G01X0000272780Y-0000025000D02*
X0000275905Y-0000015000D01*
X0000279030Y-0000025000D01*
G01X0000277905Y-0000021500D02*
X0000273905Y-0000021500D01*
G01X0000283030Y-0000025000D02*
X0000283030Y-0000015000D01*
X0000288780Y-0000025000D01*
X0000288780Y-0000015000D01*
G01X0000298405Y-0000025000D02*
X0000293405Y-0000025000D01*
X0000293405Y-0000015000D01*
X0000298405Y-0000015000D01*
G01X0000296405Y-0000019833D02*
X0000293405Y-0000019833D01*
G01X0000305905Y-0000015000D02*
X0000304905Y-0000015333D01*
X0000304155Y-0000016167D01*
X0000303655Y-0000017167D01*
X0000303280Y-0000018500D01*
X0000303155Y-0000020000D01*
X0000303280Y-0000021500D01*
X0000303655Y-0000022833D01*
X0000304155Y-0000023834D01*
X0000304905Y-0000024667D01*
X0000305905Y-0000025000D01*
X0000306905Y-0000024667D01*
X0000307655Y-0000023834D01*
X0000308155Y-0000022833D01*
X0000308530Y-0000021500D01*
X0000308655Y-0000020000D01*
X0000308530Y-0000018500D01*
X0000308155Y-0000017167D01*
X0000307655Y-0000016167D01*
X0000306905Y-0000015333D01*
X0000305905Y-0000015000D01*
G01X0000313155Y-0000023500D02*
X0000313905Y-0000024333D01*
X0000314780Y-0000024833D01*
X0000315905Y-0000025000D01*
X0000317030Y-0000024667D01*
X0000317905Y-0000024000D01*
X0000318530Y-0000022833D01*
X0000318655Y-0000021500D01*
X0000318405Y-0000020167D01*
X0000317780Y-0000019333D01*
X0000316905Y-0000018667D01*
X0000316030Y-0000018500D01*
X0000315155Y-0000018667D01*
X0000314030Y-0000019333D01*
X0000314405Y-0000015000D01*
X0000317780Y-0000015000D01*
G01X0Y0D02*
X0000511811Y0D01*
X0000511811Y0000354331D01*
X0Y0000354331D01*
X0Y0D01*
M02*
