G04 ================== begin FILE IDENTIFICATION RECORD ==================*
G04 Layout Name:  D:/wangmin/2011/MAY/DSPDB/pcb/FINAL/dspdb.brd*
G04 Film Name:    art07*
G04 File Format:  Gerber RS274X*
G04 File Origin:  15.51-s011*
G04 Origin Date:  Mon Jul 04 18:33:07 2011*
G04 ================== end FILE IDENTIFICATION RECORD ====================*
%FSAX55Y55*MOIN*%
%IR0*IPPOS*OFA0.00000B0.00000*MIA0B0*SFA1.00000B1.00000*%
%ADD22C,.011*%
%ADD18C,.02*%
%ADD14C,.04*%
%ADD13C,.022*%
%ADD11C,.06*%
%ADD21C,.016*%
%ADD16C,.062*%
%ADD19C,.09*%
%ADD15C,.036*%
%ADD12R,.06X.06*%
%ADD17R,.062X.062*%
%ADD20R,.09X.09*%
%ADD10C,.22*%
%ADD23C,.021*%
%ADD24C,.015*%
%ADD25C,.006*%
%ADD26C,.0045*%
%ADD32C,.03104*%
%ADD29C,.03204*%
%ADD27C,.04204*%
%ADD33C,.02504*%
%ADD30C,.09206*%
%ADD31R,.11002X.11004*%
%ADD28C,.11004*%
G75*
%LPD*%
G75*
G36*
G01X0000132110Y0000010000D02*
X0000132094Y0000010183D01*
G03X0000127906Y0000010183I-0000002094J-0000000183D01*
G01X0000127890Y0000010000D01*
X0000117110Y0000010000D01*
X0000117094Y0000010183D01*
G03X0000112906Y0000010183I-0000002094J-0000000183D01*
G01X0000112890Y0000010000D01*
X0000102110Y0000010000D01*
X0000102094Y0000010183D01*
G03X0000097906Y0000010183I-0000002094J-0000000183D01*
G01X0000097890Y0000010000D01*
X0000087110Y0000010000D01*
X0000087094Y0000010183D01*
G03X0000082906Y0000010183I-0000002094J-0000000183D01*
G01X0000082890Y0000010000D01*
X0000072110Y0000010000D01*
X0000072094Y0000010183D01*
G03X0000067906Y0000010183I-0000002094J-0000000183D01*
G01X0000067890Y0000010000D01*
X0000064000Y0000010000D01*
X0000025000Y0000049000D01*
X0000025000Y0000093640D01*
G02X0000025736Y0000093857I0000000400J0D01*
G03X0000025736Y0000096143I0000001764J0000001143D01*
G02X0000025000Y0000096360I-0000000336J0000000217D01*
G01X0000025000Y0000098640D01*
G02X0000025736Y0000098857I0000000400J0D01*
G03X0000025736Y0000101143I0000001764J0000001143D01*
G02X0000025000Y0000101360I-0000000336J0000000217D01*
G01X0000025000Y0000106140D01*
G02X0000025736Y0000106357I0000000400J0D01*
G03X0000025736Y0000108643I0000001764J0000001143D01*
G02X0000025000Y0000108860I-0000000336J0000000217D01*
G01X0000025000Y0000116140D01*
G02X0000025736Y0000116357I0000000400J0D01*
G03X0000025736Y0000118643I0000001764J0000001143D01*
G02X0000025000Y0000118860I-0000000336J0000000217D01*
G01X0000025000Y0000123640D01*
G02X0000025736Y0000123857I0000000400J0D01*
G03X0000025736Y0000126143I0000001764J0000001143D01*
G02X0000025000Y0000126360I-0000000336J0000000217D01*
G01X0000025000Y0000131140D01*
G02X0000025736Y0000131357I0000000400J0D01*
G03X0000025736Y0000133643I0000001764J0000001143D01*
G02X0000025000Y0000133860I-0000000336J0000000217D01*
G01X0000025000Y0000138640D01*
G02X0000025736Y0000138857I0000000400J0D01*
G03X0000025736Y0000141143I0000001764J0000001143D01*
G02X0000025000Y0000141360I-0000000336J0000000217D01*
G01X0000025000Y0000143640D01*
G02X0000025736Y0000143857I0000000400J0D01*
G03X0000025736Y0000146143I0000001764J0000001143D01*
G02X0000025000Y0000146360I-0000000336J0000000217D01*
G01X0000025000Y0000148640D01*
G02X0000025736Y0000148857I0000000400J0D01*
G03X0000025736Y0000151143I0000001764J0000001143D01*
G02X0000025000Y0000151360I-0000000336J0000000217D01*
G01X0000025000Y0000153640D01*
G02X0000025736Y0000153857I0000000400J0D01*
G03X0000025736Y0000156143I0000001764J0000001143D01*
G02X0000025000Y0000156360I-0000000336J0000000217D01*
G01X0000025000Y0000161140D01*
G02X0000025736Y0000161357I0000000400J0D01*
G03X0000025736Y0000163643I0000001764J0000001143D01*
G02X0000025000Y0000163860I-0000000336J0000000217D01*
G01X0000025000Y0000171140D01*
G02X0000025736Y0000171357I0000000400J0D01*
G03X0000025736Y0000173643I0000001764J0000001143D01*
G02X0000025000Y0000173860I-0000000336J0000000217D01*
G01X0000025000Y0000185390D01*
X0000025183Y0000185406D01*
G03X0000025183Y0000189594I-0000000183J0000002094D01*
G01X0000025000Y0000189610D01*
X0000025000Y0000215390D01*
X0000025183Y0000215406D01*
G03X0000025183Y0000219594I-0000000183J0000002094D01*
G01X0000025000Y0000219610D01*
X0000025000Y0000237890D01*
X0000025183Y0000237906D01*
G03X0000025183Y0000242094I-0000000183J0000002094D01*
G01X0000025000Y0000242110D01*
X0000025000Y0000276140D01*
G02X0000025736Y0000276357I0000000400J0D01*
G03X0000025736Y0000278643I0000001764J0000001143D01*
G02X0000025000Y0000278860I-0000000336J0000000217D01*
G01X0000025000Y0000283640D01*
G02X0000025736Y0000283857I0000000400J0D01*
G03X0000025736Y0000286143I0000001764J0000001143D01*
G02X0000025000Y0000286360I-0000000336J0000000217D01*
G01X0000025000Y0000302000D01*
X0000032383Y0000309383D01*
G02X0000033039Y0000309244I0000000283J-0000000283D01*
G03X0000035756Y0000311961I0000001961J0000000756D01*
G02X0000035617Y0000312617I0000000144J0000000373D01*
G01X0000069500Y0000346500D01*
X0000147500Y0000346500D01*
X0000152500Y0000341500D01*
X0000204352Y0000341500D01*
X0000204381Y0000341491D01*
G03X0000205619Y0000341491I0000000619J0000002009D01*
G01X0000205648Y0000341500D01*
X0000279852Y0000341500D01*
X0000279881Y0000341491D01*
G03X0000281119Y0000341491I0000000619J0000002009D01*
G01X0000281148Y0000341500D01*
X0000285852Y0000341500D01*
X0000285881Y0000341491D01*
G03X0000287119Y0000341491I0000000619J0000002009D01*
G01X0000287148Y0000341500D01*
X0000364500Y0000341500D01*
X0000369500Y0000346500D01*
X0000387753Y0000346500D01*
G02X0000388112Y0000345924I0J-0000000400D01*
G03X0000391888Y0000345924I0000001888J-0000000924D01*
G02X0000392247Y0000346500I0000000359J0000000176D01*
G01X0000407753Y0000346500D01*
G02X0000408112Y0000345924I0J-0000000400D01*
G03X0000411888Y0000345924I0000001888J-0000000924D01*
G02X0000412247Y0000346500I0000000359J0000000176D01*
G01X0000417000Y0000346500D01*
X0000420000Y0000343500D01*
X0000420000Y0000339610D01*
X0000419817Y0000339594D01*
G03X0000419817Y0000335406I0000000183J-0000002094D01*
G01X0000420000Y0000335390D01*
X0000420000Y0000310500D01*
X0000418000Y0000308500D01*
X0000417247Y0000308500D01*
G02X0000416888Y0000309076I0J0000000400D01*
G03X0000413112Y0000309076I-0000001888J0000000924D01*
G02X0000412753Y0000308500I-0000000359J-0000000176D01*
G01X0000402247Y0000308500D01*
G02X0000401888Y0000309076I0J0000000400D01*
G03X0000398112Y0000309076I-0000001888J0000000924D01*
G02X0000397753Y0000308500I-0000000359J-0000000176D01*
G01X0000387247Y0000308500D01*
G02X0000386888Y0000309076I0J0000000400D01*
G03X0000383112Y0000309076I-0000001888J0000000924D01*
G02X0000382753Y0000308500I-0000000359J-0000000176D01*
G01X0000291673Y0000308500D01*
G02X0000291338Y0000309120I0J0000000401D01*
G03X0000288662Y0000309120I-0000001338J0000000880D01*
G02X0000288327Y0000308500I-0000000335J-0000000219D01*
G01X0000287148Y0000308500D01*
X0000287119Y0000308509D01*
G03X0000285881Y0000308509I-0000000619J-0000002009D01*
G01X0000285852Y0000308500D01*
X0000281148Y0000308500D01*
X0000281119Y0000308509D01*
G03X0000279881Y0000308509I-0000000619J-0000002009D01*
G01X0000279852Y0000308500D01*
X0000277148Y0000308500D01*
X0000277119Y0000308509D01*
G03X0000275881Y0000308509I-0000000619J-0000002009D01*
G01X0000275852Y0000308500D01*
X0000271148Y0000308500D01*
X0000271119Y0000308509D01*
G03X0000269881Y0000308509I-0000000619J-0000002009D01*
G01X0000269852Y0000308500D01*
X0000266148Y0000308500D01*
X0000266119Y0000308509D01*
G03X0000264881Y0000308509I-0000000619J-0000002009D01*
G01X0000264852Y0000308500D01*
X0000260148Y0000308500D01*
X0000260119Y0000308509D01*
G03X0000258881Y0000308509I-0000000619J-0000002009D01*
G01X0000258852Y0000308500D01*
X0000244648Y0000308500D01*
X0000244619Y0000308509D01*
G03X0000243381Y0000308509I-0000000619J-0000002009D01*
G01X0000243352Y0000308500D01*
X0000238648Y0000308500D01*
X0000238619Y0000308509D01*
G03X0000237381Y0000308509I-0000000619J-0000002009D01*
G01X0000237352Y0000308500D01*
X0000232148Y0000308500D01*
X0000232119Y0000308509D01*
G03X0000230881Y0000308509I-0000000619J-0000002009D01*
G01X0000230852Y0000308500D01*
X0000226148Y0000308500D01*
X0000226119Y0000308509D01*
G03X0000224881Y0000308509I-0000000619J-0000002009D01*
G01X0000224852Y0000308500D01*
X0000170648Y0000308500D01*
X0000170619Y0000308509D01*
G03X0000169381Y0000308509I-0000000619J-0000002009D01*
G01X0000169352Y0000308500D01*
X0000164648Y0000308500D01*
X0000164619Y0000308509D01*
G03X0000163381Y0000308509I-0000000619J-0000002009D01*
G01X0000163352Y0000308500D01*
X0000150648Y0000308500D01*
X0000150619Y0000308509D01*
G03X0000149381Y0000308509I-0000000619J-0000002009D01*
G01X0000149352Y0000308500D01*
X0000144648Y0000308500D01*
X0000144619Y0000308509D01*
G03X0000143381Y0000308509I-0000000619J-0000002009D01*
G01X0000143352Y0000308500D01*
X0000134747Y0000308500D01*
G02X0000134388Y0000309076I0J0000000400D01*
G03X0000130612Y0000309076I-0000001888J0000000924D01*
G02X0000130253Y0000308500I-0000000359J-0000000176D01*
G01X0000114747Y0000308500D01*
G02X0000114388Y0000309076I0J0000000400D01*
G03X0000110612Y0000309076I-0000001888J0000000924D01*
G02X0000110253Y0000308500I-0000000359J-0000000176D01*
G01X0000099747Y0000308500D01*
G02X0000099388Y0000309076I0J0000000400D01*
G03X0000095612Y0000309076I-0000001888J0000000924D01*
G02X0000095253Y0000308500I-0000000359J-0000000176D01*
G01X0000092500Y0000308500D01*
X0000083000Y0000299000D01*
X0000083000Y0000290648D01*
X0000082991Y0000290619D01*
G03X0000082991Y0000289381I0000002009J-0000000619D01*
G01X0000083000Y0000289352D01*
X0000083000Y0000270648D01*
X0000082991Y0000270619D01*
G03X0000082991Y0000269381I0000002009J-0000000619D01*
G01X0000083000Y0000269352D01*
X0000083000Y0000260648D01*
X0000082991Y0000260619D01*
G03X0000082991Y0000259381I0000002009J-0000000619D01*
G01X0000083000Y0000259352D01*
X0000083000Y0000255648D01*
X0000082991Y0000255619D01*
G03X0000082991Y0000254381I0000002009J-0000000619D01*
G01X0000083000Y0000254352D01*
X0000083000Y0000240648D01*
X0000082991Y0000240619D01*
G03X0000082991Y0000239381I0000002009J-0000000619D01*
G01X0000083000Y0000239352D01*
X0000083000Y0000230648D01*
X0000082991Y0000230619D01*
G03X0000082991Y0000229381I0000002009J-0000000619D01*
G01X0000083000Y0000229352D01*
X0000083000Y0000205648D01*
X0000082991Y0000205619D01*
G03X0000082991Y0000204381I0000002009J-0000000619D01*
G01X0000083000Y0000204352D01*
X0000083000Y0000202500D01*
G02X0000082584Y0000202100I-0000000400J0D01*
G03X0000082584Y0000197900I-0000000084J-0000002100D01*
G02X0000083000Y0000197500I0000000016J-0000000400D01*
G01X0000083000Y0000195648D01*
X0000082991Y0000195619D01*
G03X0000082991Y0000194381I0000002009J-0000000619D01*
G01X0000083000Y0000194352D01*
X0000083000Y0000180648D01*
X0000082991Y0000180619D01*
G03X0000082991Y0000179381I0000002009J-0000000619D01*
G01X0000083000Y0000179352D01*
X0000083000Y0000172500D01*
G02X0000082584Y0000172100I-0000000400J0D01*
G03X0000082584Y0000167900I-0000000084J-0000002100D01*
G02X0000083000Y0000167500I0000000016J-0000000400D01*
G01X0000083000Y0000140923D01*
G02X0000082344Y0000140616I-0000000400J0D01*
G03X0000082344Y0000137384I-0000001344J-0000001616D01*
G02X0000083000Y0000137077I0000000256J-0000000307D01*
G01X0000083000Y0000133500D01*
X0000081519Y0000132019D01*
G02X0000080959Y0000132014I-0000000283J0000000283D01*
G03X0000080852Y0000128890I-0000001459J-0000001514D01*
G01X0000080992Y0000129008D01*
X0000100000Y0000110000D01*
X0000101140Y0000110000D01*
G02X0000101357Y0000109264I0J-0000000400D01*
G03X0000103643Y0000109264I0000001143J-0000001764D01*
G02X0000103860Y0000110000I0000000217J0000000336D01*
G01X0000109500Y0000110000D01*
X0000128281Y0000091219D01*
X0000128200Y0000091085D01*
G03X0000131085Y0000088200I0000001800J-0000001085D01*
G01X0000131219Y0000088281D01*
X0000166500Y0000053000D01*
X0000174352Y0000053000D01*
X0000174381Y0000052991D01*
G03X0000175619Y0000052991I0000000619J0000002009D01*
G01X0000175648Y0000053000D01*
X0000179352Y0000053000D01*
X0000179381Y0000052991D01*
G03X0000180619Y0000052991I0000000619J0000002009D01*
G01X0000180648Y0000053000D01*
X0000189352Y0000053000D01*
X0000189381Y0000052991D01*
G03X0000190619Y0000052991I0000000619J0000002009D01*
G01X0000190648Y0000053000D01*
X0000194352Y0000053000D01*
X0000194381Y0000052991D01*
G03X0000195619Y0000052991I0000000619J0000002009D01*
G01X0000195648Y0000053000D01*
X0000199352Y0000053000D01*
X0000199381Y0000052991D01*
G03X0000200619Y0000052991I0000000619J0000002009D01*
G01X0000200648Y0000053000D01*
X0000209352Y0000053000D01*
X0000209381Y0000052991D01*
G03X0000210619Y0000052991I0000000619J0000002009D01*
G01X0000210648Y0000053000D01*
X0000211500Y0000053000D01*
X0000216500Y0000048000D01*
X0000219352Y0000048000D01*
X0000219381Y0000047991D01*
G03X0000220619Y0000047991I0000000619J0000002009D01*
G01X0000220648Y0000048000D01*
X0000233000Y0000048000D01*
X0000237500Y0000052500D01*
X0000237500Y0000078640D01*
G02X0000238236Y0000078857I0000000400J0D01*
G03X0000238236Y0000081143I0000001764J0000001143D01*
G02X0000237500Y0000081360I-0000000336J0000000217D01*
G01X0000237500Y0000091140D01*
G02X0000238236Y0000091357I0000000400J0D01*
G03X0000238236Y0000093643I0000001764J0000001143D01*
G02X0000237500Y0000093860I-0000000336J0000000217D01*
G01X0000237500Y0000096000D01*
X0000242000Y0000100500D01*
X0000278000Y0000100500D01*
X0000282000Y0000096500D01*
X0000362000Y0000096500D01*
X0000391000Y0000125500D01*
X0000400000Y0000125500D01*
X0000404500Y0000130000D01*
X0000404500Y0000168500D01*
X0000406000Y0000170000D01*
X0000493000Y0000170000D01*
X0000494500Y0000168500D01*
X0000494500Y0000141836D01*
G02X0000493828Y0000141542I-0000000400J0D01*
G03X0000493828Y0000138458I-0000001428J-0000001542D01*
G02X0000494500Y0000138164I0000000272J-0000000294D01*
G01X0000494500Y0000049000D01*
X0000493000Y0000047500D01*
X0000401360Y0000047500D01*
G02X0000401143Y0000048236I0J0000000400D01*
G03X0000398857Y0000048236I-0000001143J0000001764D01*
G02X0000398640Y0000047500I-0000000217J-0000000336D01*
G01X0000282500Y0000047500D01*
X0000245000Y0000010000D01*
X0000184002Y0000010000D01*
X0000184002Y0000016502D01*
X0000175998Y0000016502D01*
X0000175998Y0000010000D01*
X0000146502Y0000010000D01*
X0000146502Y0000016502D01*
X0000138498Y0000016502D01*
X0000138498Y0000010000D01*
X0000132110Y0000010000D01*
G37*
G36*
G01X0000127000Y0000183500D02*
X0000116500Y0000194000D01*
X0000116500Y0000206500D01*
X0000117500Y0000207500D01*
X0000125500Y0000207500D01*
X0000132097Y0000200903D01*
X0000132048Y0000200780D01*
G03X0000134780Y0000198048I0000001952J-0000000780D01*
G01X0000134903Y0000198097D01*
X0000140000Y0000193000D01*
X0000149352Y0000193000D01*
X0000149381Y0000192991D01*
G03X0000150619Y0000192991I0000000619J0000002009D01*
G01X0000150648Y0000193000D01*
X0000159000Y0000193000D01*
X0000164000Y0000198000D01*
X0000169352Y0000198000D01*
X0000169381Y0000197991D01*
G03X0000170619Y0000197991I0000000619J0000002009D01*
G01X0000170648Y0000198000D01*
X0000179352Y0000198000D01*
X0000179381Y0000197991D01*
G03X0000180619Y0000197991I0000000619J0000002009D01*
G01X0000180648Y0000198000D01*
X0000182000Y0000198000D01*
X0000183500Y0000196500D01*
X0000183500Y0000185500D01*
X0000181500Y0000183500D01*
X0000127000Y0000183500D01*
G37*
G36*
G01X0000088000Y0000191000D02*
X0000087000Y0000192000D01*
X0000087000Y0000194352D01*
X0000087009Y0000194381D01*
G03X0000087009Y0000195619I-0000002009J0000000619D01*
G01X0000087000Y0000195648D01*
X0000087000Y0000204352D01*
X0000087009Y0000204381D01*
G03X0000087009Y0000205619I-0000002009J0000000619D01*
G01X0000087000Y0000205648D01*
X0000087000Y0000229352D01*
X0000087009Y0000229381D01*
G03X0000087009Y0000230619I-0000002009J0000000619D01*
G01X0000087000Y0000230648D01*
X0000087000Y0000239352D01*
X0000087009Y0000239381D01*
G03X0000087009Y0000240619I-0000002009J0000000619D01*
G01X0000087000Y0000240648D01*
X0000087000Y0000241500D01*
X0000088500Y0000243000D01*
X0000097000Y0000243000D01*
X0000098000Y0000242000D01*
X0000098000Y0000230648D01*
X0000097991Y0000230619D01*
G03X0000097991Y0000229381I0000002009J-0000000619D01*
G01X0000098000Y0000229352D01*
X0000098000Y0000224923D01*
G02X0000097344Y0000224616I-0000000400J0D01*
G03X0000097344Y0000221384I-0000001344J-0000001616D01*
G02X0000098000Y0000221077I0000000256J-0000000307D01*
G01X0000098000Y0000200648D01*
X0000097991Y0000200619D01*
G03X0000097991Y0000199381I0000002009J-0000000619D01*
G01X0000098000Y0000199352D01*
X0000098000Y0000195648D01*
X0000097991Y0000195619D01*
G03X0000097991Y0000194381I0000002009J-0000000619D01*
G01X0000098000Y0000194352D01*
X0000098000Y0000192000D01*
X0000097000Y0000191000D01*
X0000088000Y0000191000D01*
G37*
G36*
G01X0000198000Y0000263500D02*
X0000197000Y0000264500D01*
X0000197000Y0000279352D01*
X0000197009Y0000279381D01*
G03X0000197009Y0000280619I-0000002009J0000000619D01*
G01X0000197000Y0000280648D01*
X0000197000Y0000281500D01*
X0000213500Y0000298000D01*
X0000286500Y0000298000D01*
X0000286945Y0000298445D01*
X0000286999Y0000298458D01*
G03X0000288542Y0000300001I-0000000499J0000002042D01*
G01X0000288555Y0000300055D01*
X0000291500Y0000303000D01*
X0000329352Y0000303000D01*
X0000329381Y0000302991D01*
G03X0000330619Y0000302991I0000000619J0000002009D01*
G01X0000330648Y0000303000D01*
X0000334352Y0000303000D01*
X0000334381Y0000302991D01*
G03X0000335619Y0000302991I0000000619J0000002009D01*
G01X0000335648Y0000303000D01*
X0000339000Y0000303000D01*
X0000341500Y0000300500D01*
X0000341500Y0000294500D01*
X0000339000Y0000292000D01*
X0000323500Y0000292000D01*
X0000319000Y0000296500D01*
X0000317648Y0000296500D01*
X0000317619Y0000296509D01*
G03X0000316381Y0000296509I-0000000619J-0000002009D01*
G01X0000316352Y0000296500D01*
X0000311648Y0000296500D01*
X0000311619Y0000296509D01*
G03X0000310381Y0000296509I-0000000619J-0000002009D01*
G01X0000310352Y0000296500D01*
X0000306148Y0000296500D01*
X0000306119Y0000296509D01*
G03X0000304881Y0000296509I-0000000619J-0000002009D01*
G01X0000304852Y0000296500D01*
X0000300148Y0000296500D01*
X0000300119Y0000296509D01*
G03X0000298881Y0000296509I-0000000619J-0000002009D01*
G01X0000298852Y0000296500D01*
X0000296148Y0000296500D01*
X0000296119Y0000296509D01*
G03X0000294881Y0000296509I-0000000619J-0000002009D01*
G01X0000294852Y0000296500D01*
X0000290148Y0000296500D01*
X0000290119Y0000296509D01*
G03X0000288881Y0000296509I-0000000619J-0000002009D01*
G01X0000288852Y0000296500D01*
X0000288500Y0000296500D01*
X0000286000Y0000294000D01*
X0000284500Y0000294000D01*
X0000277500Y0000287000D01*
X0000250648Y0000287000D01*
X0000250619Y0000287009D01*
G03X0000249381Y0000287009I-0000000619J-0000002009D01*
G01X0000249352Y0000287000D01*
X0000234500Y0000287000D01*
X0000211000Y0000263500D01*
X0000198000Y0000263500D01*
G37*
G36*
G01X0000198000Y0000083500D02*
X0000197000Y0000084500D01*
X0000197000Y0000086000D01*
X0000196000Y0000087000D01*
X0000195148Y0000087000D01*
X0000195119Y0000087009D01*
G03X0000193881Y0000087009I-0000000619J-0000002009D01*
G01X0000193852Y0000087000D01*
X0000191648Y0000087000D01*
X0000191619Y0000087009D01*
G03X0000190381Y0000087009I-0000000619J-0000002009D01*
G01X0000190352Y0000087000D01*
X0000184500Y0000087000D01*
X0000182500Y0000089000D01*
X0000182500Y0000090500D01*
X0000178000Y0000095000D01*
X0000175500Y0000095000D01*
X0000172500Y0000098000D01*
X0000172500Y0000106873D01*
X0000172500Y0000106877D01*
G03X0000172501Y0000106922I-0000004000J0000000111D01*
G01X0000172503Y0000107003D01*
X0000173500Y0000108000D01*
X0000174352Y0000108000D01*
X0000174381Y0000107991D01*
G03X0000175619Y0000107991I0000000619J0000002009D01*
G01X0000175648Y0000108000D01*
X0000178000Y0000108000D01*
X0000192000Y0000094000D01*
X0000202000Y0000094000D01*
X0000203000Y0000093000D01*
X0000203000Y0000090648D01*
X0000202991Y0000090619D01*
G03X0000202991Y0000089381I0000002009J-0000000619D01*
G01X0000203000Y0000089352D01*
X0000203000Y0000084500D01*
X0000202000Y0000083500D01*
X0000198000Y0000083500D01*
G37*
G36*
G01X0000257500Y0000007500D02*
X0000255000Y0000010000D01*
X0000255000Y0000017500D01*
X0000282500Y0000045000D01*
X0000283866Y0000045000D01*
G02X0000284115Y0000044287I0J-0000000400D01*
G03X0000290963Y0000044287I0000003424J-0000004307D01*
G02X0000291212Y0000045000I0000000249J0000000313D01*
G01X0000333788Y0000045000D01*
G02X0000334037Y0000044287I0J-0000000400D01*
G03X0000340885Y0000044287I0000003424J-0000004307D01*
G02X0000341134Y0000045000I0000000249J0000000313D01*
G01X0000422890Y0000045000D01*
X0000422906Y0000044817D01*
G03X0000427094Y0000044817I0000002094J0000000183D01*
G01X0000427110Y0000045000D01*
X0000427890Y0000045000D01*
X0000427906Y0000044817D01*
G03X0000432094Y0000044817I0000002094J0000000183D01*
G01X0000432110Y0000045000D01*
X0000432890Y0000045000D01*
X0000432906Y0000044817D01*
G03X0000437094Y0000044817I0000002094J0000000183D01*
G01X0000437110Y0000045000D01*
X0000437890Y0000045000D01*
X0000437906Y0000044817D01*
G03X0000442094Y0000044817I0000002094J0000000183D01*
G01X0000442110Y0000045000D01*
X0000442890Y0000045000D01*
X0000442906Y0000044817D01*
G03X0000447094Y0000044817I0000002094J0000000183D01*
G01X0000447110Y0000045000D01*
X0000447890Y0000045000D01*
X0000447906Y0000044817D01*
G03X0000452094Y0000044817I0000002094J0000000183D01*
G01X0000452110Y0000045000D01*
X0000452890Y0000045000D01*
X0000452906Y0000044817D01*
G03X0000457094Y0000044817I0000002094J0000000183D01*
G01X0000457110Y0000045000D01*
X0000457890Y0000045000D01*
X0000457906Y0000044817D01*
G03X0000462094Y0000044817I0000002094J0000000183D01*
G01X0000462110Y0000045000D01*
X0000482500Y0000045000D01*
X0000485000Y0000042500D01*
X0000485000Y0000037500D01*
X0000469555Y0000022055D01*
X0000469501Y0000022042D01*
G03X0000467958Y0000020499I0000000499J-0000002042D01*
G01X0000467945Y0000020445D01*
X0000455000Y0000007500D01*
X0000257500Y0000007500D01*
G37*
G36*
G01X0000296500Y0000254000D02*
X0000295500Y0000255000D01*
X0000295500Y0000263500D01*
X0000310000Y0000278000D01*
X0000326000Y0000278000D01*
X0000327000Y0000277000D01*
X0000327000Y0000270000D01*
X0000320500Y0000263500D01*
X0000320500Y0000257000D01*
X0000317500Y0000254000D01*
X0000316866Y0000254000D01*
X0000316811Y0000254044D01*
G03X0000315237Y0000254044I-0000000787J-0000000973D01*
G01X0000315182Y0000254000D01*
X0000313716Y0000254000D01*
X0000313661Y0000254044D01*
G03X0000312087Y0000254044I-0000000787J-0000000973D01*
G01X0000312032Y0000254000D01*
X0000310567Y0000254000D01*
X0000310512Y0000254044D01*
G03X0000308938Y0000254044I-0000000787J-0000000973D01*
G01X0000308883Y0000254000D01*
X0000307417Y0000254000D01*
X0000307362Y0000254044D01*
G03X0000305788Y0000254044I-0000000787J-0000000973D01*
G01X0000305733Y0000254000D01*
X0000301117Y0000254000D01*
X0000301062Y0000254044D01*
G03X0000299488Y0000254044I-0000000787J-0000000973D01*
G01X0000299433Y0000254000D01*
X0000296500Y0000254000D01*
G37*
G36*
G01X0000334203Y0000241500D02*
X0000333000Y0000241500D01*
X0000329000Y0000237500D01*
X0000329000Y0000223000D01*
X0000333500Y0000218500D01*
X0000333500Y0000215500D01*
X0000333621Y0000215379D01*
X0000333620Y0000215294D01*
G03X0000335610Y0000214171I0000001301J-0000000019D01*
G01X0000335745Y0000214255D01*
X0000337051Y0000212949D01*
X0000336967Y0000212814D01*
G03X0000336969Y0000211433I0000001104J-0000000689D01*
G01X0000337000Y0000211384D01*
X0000337000Y0000209626D01*
X0000336975Y0000209581D01*
G03X0000336975Y0000208371I0000001096J-0000000605D01*
G01X0000337000Y0000208326D01*
X0000337000Y0000206477D01*
X0000336975Y0000206432D01*
G03X0000338613Y0000204698I0000001096J-0000000605D01*
G01X0000338741Y0000204759D01*
X0000340153Y0000203347D01*
X0000340092Y0000203219D01*
G03X0000341763Y0000201548I0000001129J-0000000542D01*
G01X0000341891Y0000201609D01*
X0000343303Y0000200197D01*
X0000343242Y0000200069D01*
G03X0000345039Y0000198469I0000001128J-0000000542D01*
G01X0000345088Y0000198500D01*
X0000358525Y0000198500D01*
X0000358583Y0000198448D01*
G03X0000361085Y0000198200I0000001417J0000001552D01*
G01X0000361219Y0000198281D01*
X0000366000Y0000193500D01*
X0000366000Y0000191500D01*
X0000372945Y0000184555D01*
X0000372958Y0000184501D01*
G03X0000374501Y0000182958I0000002042J0000000499D01*
G01X0000374555Y0000182945D01*
X0000374769Y0000182731D01*
G02X0000374568Y0000182057I-0000000283J-0000000283D01*
G03X0000377057Y0000179568I0000000432J-0000002057D01*
G02X0000377731Y0000179769I0000000391J-0000000082D01*
G01X0000392945Y0000164555D01*
X0000392958Y0000164501D01*
G03X0000392991Y0000164381I0000002043J0000000497D01*
G01X0000393000Y0000164352D01*
X0000393000Y0000160648D01*
X0000392991Y0000160619D01*
G03X0000392991Y0000159381I0000002009J-0000000619D01*
G01X0000393000Y0000159352D01*
X0000393000Y0000155648D01*
X0000392991Y0000155619D01*
G03X0000392991Y0000154381I0000002009J-0000000619D01*
G01X0000393000Y0000154352D01*
X0000393000Y0000150648D01*
X0000392991Y0000150619D01*
G03X0000392991Y0000149381I0000002009J-0000000619D01*
G01X0000393000Y0000149352D01*
X0000393000Y0000145648D01*
X0000392991Y0000145619D01*
G03X0000392991Y0000144381I0000002009J-0000000619D01*
G01X0000393000Y0000144352D01*
X0000393000Y0000140648D01*
X0000392991Y0000140619D01*
G03X0000392991Y0000139381I0000002009J-0000000619D01*
G01X0000393000Y0000139352D01*
X0000393000Y0000135648D01*
X0000392991Y0000135619D01*
G03X0000392898Y0000134983I0000002009J-0000000619D01*
G01X0000392899Y0000134899D01*
X0000356500Y0000098500D01*
X0000344500Y0000098500D01*
X0000343500Y0000099500D01*
X0000343500Y0000104500D01*
X0000330992Y0000117008D01*
X0000331110Y0000117148D01*
G03X0000327459Y0000117996I-0000001610J0000001352D01*
G02X0000327071Y0000117500I-0000000388J-0000000096D01*
G01X0000254500Y0000117500D01*
X0000253500Y0000118500D01*
X0000253500Y0000128000D01*
X0000256098Y0000130598D01*
X0000267506Y0000130598D01*
G02X0000267905Y0000130167I0J-0000000400D01*
G03X0000272030Y0000130547I0000002095J-0000000167D01*
G01X0000271999Y0000130659D01*
X0000272341Y0000131000D01*
X0000276500Y0000131000D01*
X0000287000Y0000141500D01*
X0000344500Y0000141500D01*
X0000347000Y0000144000D01*
X0000347000Y0000144352D01*
X0000347009Y0000144381D01*
G03X0000347009Y0000145619I-0000002009J0000000619D01*
G01X0000347000Y0000145648D01*
X0000347000Y0000147000D01*
X0000331500Y0000162500D01*
X0000320000Y0000162500D01*
X0000312055Y0000170445D01*
X0000312042Y0000170499D01*
G03X0000310499Y0000172042I-0000002042J-0000000499D01*
G01X0000310445Y0000172055D01*
X0000308000Y0000174500D01*
X0000308000Y0000194000D01*
X0000302000Y0000200000D01*
X0000291000Y0000200000D01*
X0000285500Y0000205500D01*
X0000285500Y0000239500D01*
X0000275973Y0000249027D01*
X0000276078Y0000249166D01*
G03X0000276192Y0000250495I-0000000999J0000000755D01*
G01X0000276125Y0000250625D01*
X0000277000Y0000251500D01*
X0000281000Y0000251500D01*
X0000293000Y0000239500D01*
X0000318500Y0000239500D01*
X0000327893Y0000248893D01*
X0000328024Y0000248821D01*
G03X0000329722Y0000250519I0000000598J0000001100D01*
G01X0000329650Y0000250650D01*
X0000331043Y0000252043D01*
X0000331174Y0000251971D01*
G03X0000332377Y0000251975I0000000598J0000001100D01*
G01X0000332422Y0000252000D01*
X0000334271Y0000252000D01*
X0000334316Y0000251975D01*
G03X0000335526Y0000251975I0000000605J0000001096D01*
G01X0000335571Y0000252000D01*
X0000340571Y0000252000D01*
X0000340616Y0000251975D01*
G03X0000341826Y0000251975I0000000605J0000001096D01*
G01X0000341871Y0000252000D01*
X0000343720Y0000252000D01*
X0000343765Y0000251975D01*
G03X0000344975Y0000251975I0000000605J0000001096D01*
G01X0000345020Y0000252000D01*
X0000346870Y0000252000D01*
X0000346915Y0000251975D01*
G03X0000348125Y0000251975I0000000605J0000001096D01*
G01X0000348170Y0000252000D01*
X0000351500Y0000252000D01*
X0000355500Y0000248000D01*
X0000357000Y0000248000D01*
X0000357502Y0000248502D01*
X0000357518Y0000248513D01*
G03X0000357987Y0000248982I-0000001018J0000001487D01*
G01X0000357998Y0000248998D01*
X0000358500Y0000249500D01*
X0000358500Y0000251500D01*
X0000359000Y0000252000D01*
X0000361000Y0000252000D01*
X0000361500Y0000251500D01*
X0000361500Y0000249500D01*
X0000357500Y0000245500D01*
X0000357500Y0000243500D01*
X0000358500Y0000242500D01*
X0000360500Y0000242500D01*
X0000361000Y0000242000D01*
X0000361000Y0000240000D01*
X0000360302Y0000239302D01*
X0000358198Y0000239302D01*
X0000353000Y0000244500D01*
X0000352464Y0000244500D01*
X0000352442Y0000244505D01*
G03X0000351658Y0000244505I-0000000392J-0000001759D01*
G01X0000351636Y0000244500D01*
X0000351000Y0000244500D01*
X0000348000Y0000241500D01*
X0000345088Y0000241500D01*
X0000345039Y0000241531D01*
G03X0000343701Y0000241531I-0000000669J-0000001058D01*
G01X0000343652Y0000241500D01*
X0000341939Y0000241500D01*
X0000341890Y0000241531D01*
G03X0000340552Y0000241531I-0000000669J-0000001058D01*
G01X0000340503Y0000241500D01*
X0000338789Y0000241500D01*
X0000338740Y0000241531D01*
G03X0000337402Y0000241531I-0000000669J-0000001058D01*
G01X0000337353Y0000241500D01*
X0000335639Y0000241500D01*
X0000335590Y0000241531D01*
G03X0000334252Y0000241531I-0000000669J-0000001058D01*
G01X0000334203Y0000241500D01*
G37*
G36*
G01X0000502500Y0000175000D02*
X0000492500Y0000175000D01*
X0000490000Y0000177500D01*
X0000490000Y0000265000D01*
X0000485000Y0000270000D01*
X0000455000Y0000270000D01*
X0000452500Y0000272500D01*
X0000452500Y0000282500D01*
X0000447500Y0000287500D01*
X0000377500Y0000287500D01*
X0000375000Y0000290000D01*
X0000375000Y0000292500D01*
X0000377500Y0000295000D01*
X0000420000Y0000295000D01*
X0000422500Y0000297500D01*
X0000422500Y0000342500D01*
X0000425000Y0000345000D01*
X0000455000Y0000345000D01*
X0000505000Y0000295000D01*
X0000505000Y0000177500D01*
X0000502500Y0000175000D01*
G37*
%LPC*%
G75*
G36*
G01X0000062502Y0000074602D02*
G02X0000060398Y0000072498I-0000000002J-0000002102D01*
G03X0000059998Y0000072898I-0000000400J0D01*
G02X0000062102Y0000075002I0000000002J0000002102D01*
G03X0000062502Y0000074602I0000000400J0D01*
G37*
G36*
G01X0000070002Y0000167102D02*
G02X0000067898Y0000164998I-0000000002J-0000002102D01*
G03X0000067498Y0000165398I-0000000400J0D01*
G02X0000069602Y0000167502I0000000002J0000002102D01*
G03X0000070002Y0000167102I0000000400J0D01*
G37*
G36*
G01X0000162009Y0000332681D02*
X0000162000Y0000332652D01*
X0000162000Y0000327948D01*
X0000162009Y0000327919D01*
G02X0000162009Y0000326681I-0000002009J-0000000619D01*
G01X0000162000Y0000326652D01*
X0000162000Y0000326500D01*
X0000161900Y0000326400D01*
X0000161885Y0000326370D01*
G02X0000160930Y0000325415I-0000001885J0000000930D01*
G01X0000160900Y0000325400D01*
X0000160500Y0000325000D01*
X0000141500Y0000325000D01*
X0000140500Y0000326000D01*
X0000140500Y0000334500D01*
X0000141500Y0000335500D01*
X0000161000Y0000335500D01*
X0000162000Y0000334500D01*
X0000162000Y0000333948D01*
X0000162009Y0000333919D01*
G02X0000162009Y0000332681I-0000002009J-0000000619D01*
G37*
G36*
G01X0000238500Y0000335000D02*
X0000238500Y0000333488D01*
G02X0000238500Y0000333312I-0000002100J-0000000088D01*
G01X0000238500Y0000327488D01*
G02X0000238500Y0000327312I-0000002100J-0000000088D01*
G01X0000238500Y0000326000D01*
X0000237500Y0000325000D01*
X0000229000Y0000325000D01*
X0000228000Y0000326000D01*
X0000228000Y0000335000D01*
X0000229000Y0000336000D01*
X0000237500Y0000336000D01*
X0000238500Y0000335000D01*
G37*
G36*
G01X0000268500Y0000335000D02*
X0000268500Y0000333388D01*
G02X0000268500Y0000333212I-0000002100J-0000000088D01*
G01X0000268500Y0000327388D01*
G02X0000268500Y0000327212I-0000002100J-0000000088D01*
G01X0000268500Y0000326000D01*
X0000267500Y0000325000D01*
X0000259000Y0000325000D01*
X0000258000Y0000326000D01*
X0000258000Y0000335000D01*
X0000259000Y0000336000D01*
X0000267500Y0000336000D01*
X0000268500Y0000335000D01*
G37*
G36*
G01X0000197000Y0000326000D02*
X0000187588Y0000326000D01*
G02X0000187412Y0000326000I-0000000088J0000002100D01*
G01X0000170500Y0000326000D01*
X0000169500Y0000327000D01*
X0000169500Y0000331500D01*
X0000170500Y0000332500D01*
X0000197500Y0000332500D01*
X0000197883Y0000332117D01*
G03X0000198539Y0000332256I0000000283J0000000283D01*
G02X0000199204Y0000329845I0000001961J-0000000756D01*
G03X0000198565Y0000329605I-0000000246J-0000000315D01*
G02X0000198509Y0000329381I-0000002064J0000000397D01*
G01X0000198500Y0000329352D01*
X0000198500Y0000327500D01*
X0000197000Y0000326000D01*
G37*
G36*
G01X0000348191Y0000327888D02*
G02X0000344027Y0000327755I-0000002091J0000000214D01*
G03X0000343801Y0000327920I-0000000197J-0000000033D01*
G02X0000341820Y0000328737I-0000000301J0000002080D01*
G03X0000341180Y0000328737I-0000000320J-0000000240D01*
G02X0000337610Y0000329081I-0000001680J0000001263D01*
G03X0000336890Y0000329081I-0000000360J-0000000175D01*
G02X0000336890Y0000330919I-0000001890J0000000919D01*
G03X0000337610Y0000330919I0000000360J0000000175D01*
G02X0000341180Y0000331263I0000001890J-0000000919D01*
G03X0000341820Y0000331263I0000000320J0000000240D01*
G02X0000345573Y0000330345I0000001680J-0000001263D01*
G03X0000345799Y0000330180I0000000197J0000000033D01*
G02X0000346342Y0000330188I0000000302J-0000002080D01*
G03X0000346564Y0000330367I0000000023J0000000199D01*
G02X0000350517Y0000331130I0000002091J-0000000212D01*
G03X0000351212Y0000331105I0000000355J0000000185D01*
G02X0000354890Y0000330919I0000001788J-0000001105D01*
G03X0000355610Y0000330919I0000000360J0000000175D01*
G02X0000355610Y0000329081I0000001890J-0000000919D01*
G03X0000354890Y0000329081I-0000000360J-0000000175D01*
G02X0000351138Y0000329025I-0000001890J0000000919D01*
G03X0000350443Y0000329050I-0000000355J-0000000185D01*
G02X0000348413Y0000328067I-0000001788J0000001105D01*
G03X0000348191Y0000327888I-0000000023J-0000000199D01*
G37*
G36*
G01X0000364533Y0000330534D02*
G02X0000361811Y0000331986I-0000002033J-0000000534D01*
G03X0000362067Y0000332466I-0000000131J0000000378D01*
G02X0000366116Y0000332406I0000002033J0000000534D01*
G03X0000366660Y0000331927I0000000384J-0000000112D01*
G02X0000365484Y0000330594I0000000840J-0000001927D01*
G03X0000364940Y0000331073I-0000000384J0000000112D01*
G02X0000364789Y0000331014I-0000000840J0000001927D01*
G03X0000364533Y0000330534I0000000131J-0000000378D01*
G37*
G54D32*
X0000315000Y0000270000D03*
G54D29*
X0000060000Y0000230000D03*
X0000060000Y0000235000D03*
X0000055000Y0000240000D03*
X0000060000Y0000240000D03*
X0000195000Y0000090000D03*
G54D27*
X0000165000Y0000015000D03*
X0000170000Y0000015000D03*
X0000200000Y0000015000D03*
X0000210000Y0000015000D03*
X0000225000Y0000015000D03*
X0000240000Y0000015000D03*
X0000165000Y0000020000D03*
X0000170000Y0000020000D03*
X0000175000Y0000020000D03*
X0000055000Y0000025000D03*
X0000070000Y0000025000D03*
X0000085000Y0000025000D03*
X0000100000Y0000025000D03*
X0000115000Y0000025000D03*
X0000130000Y0000025000D03*
X0000145000Y0000025000D03*
X0000165000Y0000025000D03*
X0000170000Y0000025000D03*
X0000210000Y0000025000D03*
X0000060000Y0000030000D03*
X0000150000Y0000030000D03*
X0000160000Y0000030000D03*
X0000210000Y0000030000D03*
X0000055000Y0000035000D03*
X0000060000Y0000035000D03*
X0000082500Y0000035000D03*
X0000100000Y0000035000D03*
X0000210000Y0000035000D03*
X0000045000Y0000040000D03*
X0000050000Y0000040000D03*
X0000055000Y0000040000D03*
X0000060000Y0000040000D03*
X0000065000Y0000040000D03*
X0000110000Y0000040000D03*
X0000150000Y0000040000D03*
X0000160000Y0000040000D03*
X0000175000Y0000040000D03*
X0000180000Y0000040000D03*
X0000210000Y0000040000D03*
X0000035000Y0000045000D03*
X0000075000Y0000045000D03*
X0000082500Y0000045000D03*
X0000090000Y0000045000D03*
X0000115000Y0000045000D03*
X0000145000Y0000045000D03*
X0000175000Y0000045000D03*
X0000180000Y0000045000D03*
X0000220000Y0000045000D03*
X0000260000Y0000045000D03*
X0000040000Y0000050000D03*
X0000100000Y0000050000D03*
X0000115000Y0000050000D03*
X0000120000Y0000050000D03*
X0000125000Y0000050000D03*
X0000130000Y0000050000D03*
X0000135000Y0000050000D03*
X0000140000Y0000050000D03*
X0000150000Y0000050000D03*
X0000160000Y0000050000D03*
X0000175000Y0000050000D03*
X0000180000Y0000050000D03*
X0000240000Y0000050000D03*
X0000280000Y0000052500D03*
X0000030000Y0000055000D03*
X0000082500Y0000055000D03*
X0000297500Y0000055000D03*
X0000315000Y0000055000D03*
X0000330000Y0000055000D03*
X0000442500Y0000055000D03*
X0000450000Y0000055000D03*
X0000475000Y0000055000D03*
X0000490000Y0000055000D03*
X0000150000Y0000060000D03*
X0000245000Y0000060000D03*
X0000397500Y0000060000D03*
X0000420000Y0000060000D03*
X0000490000Y0000060000D03*
X0000030000Y0000062500D03*
X0000040000Y0000062500D03*
X0000442500Y0000062500D03*
X0000450000Y0000062500D03*
X0000057500Y0000065000D03*
X0000090000Y0000065000D03*
X0000115000Y0000065000D03*
X0000120000Y0000065000D03*
X0000125000Y0000065000D03*
X0000130000Y0000065000D03*
X0000135000Y0000065000D03*
X0000140000Y0000065000D03*
X0000150000Y0000065000D03*
X0000245000Y0000065000D03*
X0000275000Y0000065000D03*
X0000280000Y0000065000D03*
X0000342500Y0000065000D03*
X0000390000Y0000065000D03*
X0000412500Y0000065000D03*
X0000490000Y0000065000D03*
X0000047500Y0000067500D03*
X0000295000Y0000067500D03*
X0000402500Y0000067500D03*
X0000030000Y0000070000D03*
X0000040000Y0000070000D03*
X0000070000Y0000070000D03*
X0000075000Y0000070000D03*
X0000080000Y0000070000D03*
X0000087500Y0000070000D03*
X0000095000Y0000070000D03*
X0000100000Y0000070000D03*
X0000140000Y0000070000D03*
X0000245000Y0000070000D03*
X0000320000Y0000070000D03*
X0000390000Y0000070000D03*
X0000415000Y0000070000D03*
X0000470000Y0000070000D03*
X0000475000Y0000070000D03*
X0000480000Y0000070000D03*
X0000485000Y0000070000D03*
X0000490000Y0000070000D03*
X0000045000Y0000075000D03*
X0000055000Y0000075000D03*
X0000090000Y0000075000D03*
X0000115000Y0000075000D03*
X0000120000Y0000075000D03*
X0000125000Y0000075000D03*
X0000130000Y0000075000D03*
X0000135000Y0000075000D03*
X0000140000Y0000075000D03*
X0000245000Y0000075000D03*
X0000275000Y0000075000D03*
X0000282500Y0000075000D03*
X0000395000Y0000075000D03*
X0000425000Y0000075000D03*
X0000430000Y0000075000D03*
X0000435000Y0000075000D03*
X0000455000Y0000075000D03*
X0000470000Y0000075000D03*
X0000490000Y0000075000D03*
X0000030000Y0000080000D03*
X0000040000Y0000080000D03*
X0000045000Y0000080000D03*
X0000055000Y0000080000D03*
X0000070000Y0000080000D03*
X0000080000Y0000080000D03*
X0000090000Y0000080000D03*
X0000245000Y0000080000D03*
X0000275000Y0000080000D03*
X0000395000Y0000080000D03*
X0000425000Y0000080000D03*
X0000430000Y0000080000D03*
X0000435000Y0000080000D03*
X0000447500Y0000080000D03*
X0000460000Y0000080000D03*
X0000470000Y0000080000D03*
X0000490000Y0000080000D03*
X0000045000Y0000085000D03*
X0000055000Y0000085000D03*
X0000060000Y0000085000D03*
X0000075000Y0000085000D03*
X0000105000Y0000085000D03*
X0000245000Y0000085000D03*
X0000395000Y0000085000D03*
X0000425000Y0000085000D03*
X0000430000Y0000085000D03*
X0000435000Y0000085000D03*
X0000266500Y0000086500D03*
X0000030000Y0000087500D03*
X0000302500Y0000087500D03*
X0000325000Y0000087500D03*
X0000340000Y0000087500D03*
X0000045000Y0000090000D03*
X0000055000Y0000090000D03*
X0000070000Y0000090000D03*
X0000080000Y0000090000D03*
X0000090000Y0000090000D03*
X0000105000Y0000090000D03*
X0000115000Y0000090000D03*
X0000120000Y0000090000D03*
X0000125000Y0000090000D03*
X0000275000Y0000090000D03*
X0000390000Y0000090000D03*
X0000395000Y0000090000D03*
X0000425000Y0000090000D03*
X0000040000Y0000092500D03*
X0000247500Y0000092500D03*
X0000045000Y0000095000D03*
X0000055000Y0000095000D03*
X0000060000Y0000095000D03*
X0000090000Y0000095000D03*
X0000105000Y0000095000D03*
X0000120000Y0000095000D03*
X0000260000Y0000095000D03*
X0000390000Y0000095000D03*
X0000395000Y0000095000D03*
X0000425000Y0000095000D03*
X0000040000Y0000097500D03*
X0000045000Y0000100000D03*
X0000050000Y0000100000D03*
X0000055000Y0000100000D03*
X0000060000Y0000100000D03*
X0000065000Y0000100000D03*
X0000070000Y0000100000D03*
X0000075000Y0000100000D03*
X0000090000Y0000100000D03*
X0000105000Y0000100000D03*
X0000112500Y0000100000D03*
X0000395000Y0000100000D03*
X0000425000Y0000100000D03*
X0000040000Y0000102500D03*
X0000395000Y0000105000D03*
X0000425000Y0000105000D03*
X0000430000Y0000105000D03*
X0000435000Y0000105000D03*
X0000082500Y0000110000D03*
X0000092500Y0000110000D03*
X0000405000Y0000110000D03*
X0000447500Y0000110000D03*
X0000475000Y0000110000D03*
X0000490000Y0000110000D03*
X0000040000Y0000112500D03*
X0000045000Y0000115000D03*
X0000055000Y0000115000D03*
X0000065000Y0000115000D03*
X0000390000Y0000115000D03*
X0000060000Y0000120000D03*
X0000420000Y0000120000D03*
X0000040000Y0000122500D03*
X0000045000Y0000122500D03*
X0000392500Y0000122500D03*
X0000405000Y0000122500D03*
X0000475000Y0000122500D03*
X0000490000Y0000122500D03*
X0000075000Y0000125000D03*
X0000410000Y0000125000D03*
X0000060000Y0000127500D03*
X0000445000Y0000127500D03*
X0000460000Y0000127500D03*
X0000042500Y0000130000D03*
X0000050000Y0000130000D03*
X0000055000Y0000130000D03*
X0000425000Y0000130000D03*
X0000430000Y0000130000D03*
X0000435000Y0000130000D03*
X0000470000Y0000130000D03*
X0000475000Y0000130000D03*
X0000480000Y0000130000D03*
X0000485000Y0000130000D03*
X0000490000Y0000130000D03*
X0000062500Y0000132500D03*
X0000070000Y0000132500D03*
X0000052500Y0000135000D03*
X0000075000Y0000135000D03*
X0000425000Y0000135000D03*
X0000430000Y0000135000D03*
X0000435000Y0000135000D03*
X0000470000Y0000135000D03*
X0000490000Y0000135000D03*
X0000040000Y0000137500D03*
X0000060000Y0000137500D03*
X0000425000Y0000140000D03*
X0000430000Y0000140000D03*
X0000435000Y0000140000D03*
X0000445000Y0000140000D03*
X0000460000Y0000140000D03*
X0000470000Y0000140000D03*
X0000040000Y0000142500D03*
X0000425000Y0000145000D03*
X0000040000Y0000147500D03*
X0000045000Y0000150000D03*
X0000070000Y0000150000D03*
X0000425000Y0000150000D03*
X0000040000Y0000152500D03*
X0000045000Y0000155000D03*
X0000080000Y0000155000D03*
X0000425000Y0000155000D03*
X0000040000Y0000160000D03*
X0000045000Y0000160000D03*
X0000425000Y0000160000D03*
X0000430000Y0000160000D03*
X0000435000Y0000160000D03*
X0000410000Y0000165000D03*
X0000425000Y0000165000D03*
X0000437500Y0000165000D03*
X0000445000Y0000165000D03*
X0000462500Y0000165000D03*
X0000480000Y0000165000D03*
X0000045000Y0000167500D03*
X0000040000Y0000172500D03*
X0000062500Y0000172500D03*
X0000055000Y0000175000D03*
X0000075000Y0000175000D03*
X0000080000Y0000175000D03*
X0000045000Y0000177500D03*
X0000062500Y0000177500D03*
X0000055000Y0000180000D03*
X0000067500Y0000180000D03*
X0000080000Y0000180000D03*
X0000037700Y0000180200D03*
X0000032500Y0000185000D03*
X0000042500Y0000185000D03*
X0000060000Y0000190000D03*
X0000037500Y0000194800D03*
X0000060000Y0000195000D03*
X0000080000Y0000195000D03*
X0000052500Y0000200000D03*
X0000060000Y0000200000D03*
X0000075000Y0000200000D03*
X0000035000Y0000200500D03*
X0000060000Y0000205000D03*
X0000075000Y0000205000D03*
X0000060000Y0000210000D03*
X0000075000Y0000210000D03*
X0000037700Y0000210200D03*
X0000045000Y0000212500D03*
X0000032500Y0000215000D03*
X0000060000Y0000215000D03*
X0000075000Y0000215000D03*
X0000080000Y0000215000D03*
X0000045000Y0000220000D03*
X0000055000Y0000220000D03*
X0000060000Y0000220000D03*
X0000075000Y0000220000D03*
X0000080000Y0000220000D03*
X0000037500Y0000225000D03*
X0000075000Y0000225000D03*
X0000080000Y0000225000D03*
X0000055000Y0000227500D03*
X0000075000Y0000230000D03*
X0000030000Y0000235000D03*
X0000040000Y0000235000D03*
X0000075000Y0000235000D03*
X0000075000Y0000240000D03*
X0000080000Y0000240000D03*
X0000030000Y0000245000D03*
X0000040000Y0000245000D03*
X0000047500Y0000245000D03*
X0000055000Y0000245000D03*
X0000040000Y0000252500D03*
X0000045000Y0000252500D03*
X0000075000Y0000255000D03*
X0000080000Y0000255000D03*
X0000030000Y0000257500D03*
X0000075000Y0000260000D03*
X0000080000Y0000260000D03*
X0000070500Y0000261500D03*
X0000040000Y0000262500D03*
X0000047500Y0000262500D03*
X0000030000Y0000267500D03*
X0000045000Y0000267500D03*
X0000075000Y0000270000D03*
X0000080000Y0000270000D03*
X0000040000Y0000272500D03*
X0000055000Y0000275000D03*
X0000035000Y0000277500D03*
X0000045000Y0000285000D03*
X0000055000Y0000285000D03*
X0000065000Y0000285000D03*
X0000075000Y0000290000D03*
X0000080000Y0000290000D03*
X0000035000Y0000295000D03*
X0000045000Y0000295000D03*
X0000055000Y0000295000D03*
X0000065000Y0000295000D03*
X0000035000Y0000302500D03*
X0000045000Y0000302500D03*
X0000055000Y0000302500D03*
X0000065000Y0000302500D03*
X0000045000Y0000310000D03*
X0000055000Y0000310000D03*
X0000065000Y0000310000D03*
X0000075000Y0000310000D03*
X0000085000Y0000310000D03*
X0000152500Y0000317500D03*
X0000162500Y0000317500D03*
X0000172500Y0000317500D03*
X0000180000Y0000317500D03*
X0000185000Y0000317500D03*
X0000190000Y0000317500D03*
X0000195000Y0000317500D03*
X0000202500Y0000317500D03*
X0000225000Y0000317500D03*
X0000230000Y0000317500D03*
X0000235000Y0000317500D03*
X0000245000Y0000317500D03*
X0000250000Y0000317500D03*
X0000257500Y0000317500D03*
X0000267500Y0000317500D03*
X0000277500Y0000317500D03*
X0000287500Y0000317500D03*
X0000307500Y0000317500D03*
X0000317500Y0000317500D03*
X0000327500Y0000317500D03*
X0000335000Y0000317500D03*
X0000340000Y0000317500D03*
X0000345000Y0000317500D03*
X0000350000Y0000317500D03*
X0000355000Y0000317500D03*
X0000057500Y0000320000D03*
X0000077500Y0000320000D03*
X0000132500Y0000320000D03*
X0000382500Y0000320000D03*
X0000135000Y0000325000D03*
X0000210000Y0000325000D03*
X0000217500Y0000325000D03*
X0000292500Y0000325000D03*
X0000302500Y0000325000D03*
X0000377500Y0000325000D03*
X0000128000Y0000328500D03*
X0000067500Y0000330000D03*
X0000087500Y0000330000D03*
X0000245000Y0000330000D03*
X0000250000Y0000330000D03*
X0000255000Y0000330000D03*
X0000300000Y0000330000D03*
X0000310100Y0000330000D03*
X0000315000Y0000330000D03*
X0000320000Y0000330000D03*
X0000325000Y0000330000D03*
X0000330000Y0000330000D03*
X0000277500Y0000332500D03*
X0000287500Y0000332500D03*
X0000095000Y0000337500D03*
X0000112500Y0000337500D03*
X0000127500Y0000337500D03*
X0000400000Y0000337500D03*
X0000077500Y0000340000D03*
X0000060000Y0000225000D03*
X0000120000Y0000200000D03*
X0000170000Y0000195000D03*
X0000120000Y0000195000D03*
X0000180000Y0000190000D03*
X0000170000Y0000190000D03*
X0000090000Y0000240000D03*
X0000090000Y0000235000D03*
X0000095000Y0000230000D03*
X0000095000Y0000205000D03*
X0000090000Y0000205000D03*
X0000210000Y0000270000D03*
X0000210000Y0000275000D03*
X0000215000Y0000275000D03*
X0000200000Y0000280000D03*
X0000210000Y0000280000D03*
X0000210000Y0000285000D03*
X0000215000Y0000289000D03*
X0000210000Y0000290000D03*
X0000250000Y0000290000D03*
X0000325000Y0000295000D03*
X0000330000Y0000295000D03*
X0000200000Y0000090000D03*
X0000455000Y0000040000D03*
X0000440000Y0000040000D03*
X0000435000Y0000040000D03*
X0000410000Y0000037500D03*
X0000455000Y0000035000D03*
X0000440000Y0000035000D03*
X0000435000Y0000035000D03*
X0000420000Y0000035000D03*
X0000455000Y0000030000D03*
X0000440000Y0000030000D03*
X0000435000Y0000030000D03*
X0000420000Y0000030000D03*
X0000455000Y0000025000D03*
X0000420000Y0000025000D03*
X0000400000Y0000025000D03*
X0000270000Y0000125000D03*
X0000371000Y0000125000D03*
X0000371000Y0000130000D03*
X0000371000Y0000135000D03*
X0000380000Y0000135000D03*
X0000371000Y0000140000D03*
X0000380000Y0000140000D03*
X0000385000Y0000140000D03*
X0000350000Y0000145000D03*
X0000355000Y0000145000D03*
X0000360000Y0000145000D03*
X0000365000Y0000145000D03*
X0000370000Y0000145000D03*
X0000345000Y0000165000D03*
X0000350000Y0000165000D03*
X0000355000Y0000165000D03*
X0000360000Y0000165000D03*
X0000365000Y0000165000D03*
X0000370000Y0000165000D03*
X0000375000Y0000165000D03*
X0000380000Y0000165000D03*
X0000385000Y0000165000D03*
X0000321000Y0000167500D03*
X0000355000Y0000170000D03*
X0000375000Y0000170000D03*
X0000375000Y0000175000D03*
X0000360000Y0000190000D03*
X0000360000Y0000195000D03*
X0000329500Y0000124500D03*
X0000334000Y0000120500D03*
G54D33*
X0000306575Y0000262520D03*
X0000316024Y0000259370D03*
X0000312875Y0000259370D03*
X0000306575Y0000259370D03*
X0000300275Y0000259370D03*
X0000316024Y0000256221D03*
X0000306575Y0000256221D03*
X0000300275Y0000256221D03*
X0000312875Y0000256220D03*
X0000309725Y0000177480D03*
X0000322323Y0000177480D03*
X0000331772Y0000177480D03*
X0000344370Y0000177480D03*
X0000347520Y0000177480D03*
X0000309725Y0000180630D03*
X0000312874Y0000180630D03*
X0000316024Y0000180630D03*
X0000322323Y0000180630D03*
X0000328622Y0000180630D03*
X0000331772Y0000180630D03*
X0000334921Y0000180630D03*
X0000344370Y0000180630D03*
X0000347520Y0000180630D03*
X0000309725Y0000183779D03*
X0000312874Y0000183779D03*
X0000316024Y0000183779D03*
X0000319173Y0000183779D03*
X0000322323Y0000183779D03*
X0000328622Y0000183779D03*
X0000331772Y0000183779D03*
X0000338071Y0000183779D03*
X0000341221Y0000183779D03*
X0000344370Y0000183779D03*
X0000355500Y0000184000D03*
X0000351325Y0000185729D03*
X0000309725Y0000186929D03*
X0000312874Y0000186929D03*
X0000319173Y0000186929D03*
X0000322323Y0000186929D03*
X0000325473Y0000186929D03*
X0000328622Y0000186929D03*
X0000331772Y0000186929D03*
X0000334921Y0000186929D03*
X0000338071Y0000186929D03*
X0000341221Y0000186929D03*
X0000344370Y0000186929D03*
X0000349000Y0000188600D03*
X0000309725Y0000190079D03*
X0000312874Y0000190079D03*
X0000316024Y0000190079D03*
X0000319173Y0000190079D03*
X0000322323Y0000190079D03*
X0000325473Y0000190079D03*
X0000328622Y0000190079D03*
X0000331772Y0000190079D03*
X0000334921Y0000190079D03*
X0000341221Y0000190079D03*
X0000331772Y0000193228D03*
X0000334921Y0000193228D03*
X0000338071Y0000193228D03*
X0000341221Y0000193228D03*
X0000344370Y0000193228D03*
X0000347520Y0000193228D03*
X0000311500Y0000194000D03*
X0000350600Y0000195000D03*
X0000354000Y0000195000D03*
X0000331771Y0000196378D03*
X0000341221Y0000196378D03*
X0000344370Y0000196378D03*
X0000347520Y0000196378D03*
X0000334921Y0000199527D03*
X0000338071Y0000199527D03*
X0000341221Y0000199527D03*
X0000290827Y0000202677D03*
X0000297126Y0000202677D03*
X0000306575Y0000202677D03*
X0000309725Y0000202677D03*
X0000312874Y0000202677D03*
X0000316024Y0000202677D03*
X0000319173Y0000202677D03*
X0000322323Y0000202677D03*
X0000334921Y0000202677D03*
X0000338071Y0000202677D03*
X0000293976Y0000205827D03*
X0000300275Y0000205827D03*
X0000322323Y0000205827D03*
X0000334921Y0000205827D03*
X0000290827Y0000208976D03*
X0000306575Y0000208976D03*
X0000312874Y0000208976D03*
X0000316024Y0000208976D03*
X0000319173Y0000208976D03*
X0000334921Y0000208976D03*
X0000293976Y0000212126D03*
X0000300275Y0000212126D03*
X0000309725Y0000212126D03*
X0000322323Y0000212126D03*
X0000334921Y0000212126D03*
X0000290827Y0000215275D03*
X0000297126Y0000215275D03*
X0000306575Y0000215275D03*
X0000312874Y0000215275D03*
X0000319173Y0000215275D03*
X0000331771Y0000215275D03*
X0000287677Y0000221575D03*
X0000293976Y0000221575D03*
X0000300275Y0000221575D03*
X0000309725Y0000221575D03*
X0000316024Y0000221575D03*
X0000322323Y0000221575D03*
X0000306575Y0000224725D03*
X0000316024Y0000224725D03*
X0000319173Y0000224725D03*
X0000287677Y0000227874D03*
X0000293976Y0000227874D03*
X0000300275Y0000227874D03*
X0000309725Y0000227874D03*
X0000290827Y0000231024D03*
X0000297126Y0000231024D03*
X0000306575Y0000231024D03*
X0000309724Y0000231024D03*
X0000316024Y0000231024D03*
X0000319173Y0000231024D03*
X0000297126Y0000234173D03*
X0000300275Y0000234173D03*
X0000306575Y0000234173D03*
X0000322323Y0000234173D03*
X0000290827Y0000237323D03*
X0000297126Y0000237323D03*
X0000300275Y0000237323D03*
X0000306575Y0000237323D03*
X0000309725Y0000237323D03*
X0000312874Y0000237323D03*
X0000319173Y0000237323D03*
X0000331771Y0000243622D03*
X0000338071Y0000243622D03*
X0000341221Y0000243622D03*
X0000344370Y0000243622D03*
X0000328622Y0000246771D03*
X0000331771Y0000246772D03*
X0000338071Y0000246772D03*
X0000341221Y0000246772D03*
X0000344370Y0000246772D03*
X0000331771Y0000249921D03*
X0000338071Y0000249921D03*
X0000341221Y0000249921D03*
X0000344370Y0000249921D03*
X0000347520Y0000249921D03*
X0000459173Y0000279173D03*
G54D30*
X0000135155Y0000332500D03*
X0000376655Y0000332500D03*
G54D31*
X0000287539Y0000027500D03*
G54D28*
X0000433476Y0000056508D03*
X0000461508Y0000056508D03*
X0000337461Y0000077500D03*
X0000433476Y0000093988D03*
X0000447492Y0000093988D03*
X0000433484Y0000113760D03*
X0000461516Y0000113760D03*
X0000433484Y0000151240D03*
X0000447500Y0000151240D03*
X0000337461Y0000027500D03*
X0000300020Y0000027500D03*
%LPD*%
G75*
G54D10*
X0000017500Y0000017500D03*
X0000017500Y0000336831D03*
X0000494311Y0000017500D03*
X0000494311Y0000336831D03*
G54D20*
X0000287539Y0000027500D03*
X0000461516Y0000151240D03*
X0000461508Y0000093988D03*
G54D11*
X0000152343Y0000012500D03*
X0000189843Y0000012500D03*
X0000245000Y0000145000D03*
X0000168500Y0000107000D03*
X0000168500Y0000097000D03*
X0000207500Y0000080000D03*
X0000257500Y0000145000D03*
G54D12*
X0000142500Y0000012500D03*
X0000180000Y0000012500D03*
G54D21*
X0000271929Y0000193228D03*
X0000300275Y0000256221D03*
X0000325473Y0000262520D03*
X0000268779Y0000193228D03*
X0000338071Y0000262520D03*
X0000268779Y0000196378D03*
X0000293976Y0000256221D03*
X0000322323Y0000256221D03*
X0000322323Y0000259370D03*
X0000325473Y0000256221D03*
X0000278228Y0000183779D03*
X0000268779Y0000208976D03*
X0000271929Y0000196378D03*
X0000268779Y0000205827D03*
X0000331772Y0000256221D03*
X0000322323Y0000253071D03*
X0000328622Y0000253071D03*
X0000268779Y0000199527D03*
X0000290827Y0000256221D03*
X0000331772Y0000262520D03*
X0000474920Y0000201575D03*
X0000474920Y0000234075D03*
X0000474920Y0000266575D03*
X0000338071Y0000231024D03*
X0000328622Y0000259370D03*
X0000478069Y0000201575D03*
X0000478069Y0000234075D03*
X0000478069Y0000266575D03*
X0000347520Y0000231024D03*
X0000328622Y0000262520D03*
X0000468621Y0000266575D03*
X0000468621Y0000234075D03*
X0000468621Y0000201575D03*
X0000344370Y0000231024D03*
X0000325473Y0000259370D03*
X0000471771Y0000201575D03*
X0000471771Y0000234075D03*
X0000471771Y0000266575D03*
X0000344370Y0000227874D03*
X0000262480Y0000240473D03*
X0000331772Y0000259370D03*
X0000462322Y0000266575D03*
X0000462322Y0000234075D03*
X0000462322Y0000201575D03*
X0000338071Y0000227874D03*
X0000468621Y0000198425D03*
X0000468621Y0000230925D03*
X0000468621Y0000263425D03*
X0000347520Y0000224725D03*
X0000319173Y0000262520D03*
X0000297126Y0000256221D03*
X0000465471Y0000198425D03*
X0000465471Y0000230925D03*
X0000465471Y0000263425D03*
X0000341221Y0000224725D03*
X0000284527Y0000256221D03*
X0000316024Y0000259370D03*
X0000316024Y0000249921D03*
X0000300275Y0000259370D03*
X0000287677Y0000249921D03*
X0000300275Y0000246771D03*
X0000341221Y0000259370D03*
X0000440275Y0000276024D03*
X0000341221Y0000221575D03*
X0000474920Y0000263425D03*
X0000474920Y0000230925D03*
X0000474920Y0000198425D03*
X0000309725Y0000237323D03*
X0000309724Y0000231024D03*
X0000306575Y0000234173D03*
X0000300275Y0000237323D03*
X0000297126Y0000234173D03*
X0000484367Y0000230925D03*
X0000484367Y0000263425D03*
X0000484367Y0000198425D03*
X0000351000Y0000212126D03*
X0000309725Y0000186929D03*
X0000322323Y0000186929D03*
X0000446575Y0000276024D03*
X0000358885Y0000217214D03*
X0000471771Y0000263425D03*
X0000471771Y0000230925D03*
X0000471771Y0000198425D03*
X0000481218Y0000263425D03*
X0000481218Y0000230925D03*
X0000481218Y0000198425D03*
X0000341221Y0000208976D03*
X0000319173Y0000190079D03*
X0000297126Y0000190079D03*
X0000309725Y0000190079D03*
X0000328622Y0000190079D03*
X0000478069Y0000263425D03*
X0000478069Y0000230925D03*
X0000478069Y0000198425D03*
X0000344370Y0000212126D03*
X0000425000Y0000220000D03*
X0000341221Y0000183779D03*
X0000443425Y0000250828D03*
X0000356500Y0000255000D03*
X0000300275Y0000249921D03*
X0000316024Y0000253071D03*
X0000309725Y0000249921D03*
X0000293976Y0000249921D03*
X0000312874Y0000208976D03*
X0000319173Y0000208976D03*
X0000309725Y0000202677D03*
X0000316024Y0000202677D03*
X0000322323Y0000202677D03*
X0000344370Y0000177480D03*
X0000293976Y0000190079D03*
X0000306575Y0000190079D03*
X0000316024Y0000190079D03*
X0000325473Y0000190079D03*
X0000309725Y0000180630D03*
X0000322323Y0000180630D03*
X0000293976Y0000177480D03*
X0000424527Y0000185827D03*
X0000355500Y0000184000D03*
X0000456023Y0000198425D03*
X0000456023Y0000230925D03*
X0000456023Y0000263425D03*
X0000338071Y0000208976D03*
X0000430827Y0000214173D03*
X0000344370Y0000183779D03*
X0000459172Y0000198425D03*
X0000459172Y0000230925D03*
X0000459172Y0000263425D03*
X0000341221Y0000215275D03*
X0000449724Y0000263425D03*
X0000449724Y0000230925D03*
X0000449724Y0000198425D03*
X0000334921Y0000215275D03*
X0000462322Y0000198425D03*
X0000462322Y0000230925D03*
X0000462322Y0000263425D03*
X0000338071Y0000212126D03*
X0000341221Y0000193228D03*
X0000437126Y0000279173D03*
X0000347520Y0000256221D03*
X0000465471Y0000266575D03*
X0000465471Y0000234075D03*
X0000465471Y0000201575D03*
X0000341221Y0000234173D03*
X0000430827Y0000279173D03*
X0000341221Y0000240473D03*
X0000481218Y0000201575D03*
X0000481218Y0000234075D03*
X0000481218Y0000266575D03*
X0000341221Y0000231024D03*
X0000459172Y0000266575D03*
X0000459172Y0000234075D03*
X0000459172Y0000201575D03*
X0000334921Y0000231024D03*
X0000427677Y0000211024D03*
X0000350600Y0000195000D03*
X0000456023Y0000266575D03*
X0000456023Y0000234075D03*
X0000456023Y0000201575D03*
X0000344370Y0000224725D03*
X0000452873Y0000201575D03*
X0000452873Y0000234075D03*
X0000452873Y0000266575D03*
X0000334921Y0000227874D03*
X0000338071Y0000221575D03*
X0000452873Y0000198425D03*
X0000452873Y0000230925D03*
X0000452873Y0000263425D03*
X0000437126Y0000214173D03*
X0000338071Y0000199527D03*
X0000440275Y0000214173D03*
X0000440275Y0000192126D03*
X0000440275Y0000185827D03*
X0000440275Y0000272874D03*
X0000440275Y0000257127D03*
X0000427677Y0000272874D03*
X0000446575Y0000279173D03*
X0000459173Y0000279173D03*
X0000421379Y0000279173D03*
X0000427677Y0000279173D03*
X0000446575Y0000250828D03*
X0000468622Y0000250827D03*
X0000427677Y0000257127D03*
X0000427677Y0000250827D03*
X0000440275Y0000250827D03*
X0000433976Y0000279173D03*
X0000433976Y0000250827D03*
X0000421379Y0000250827D03*
X0000440275Y0000279173D03*
X0000446575Y0000214173D03*
X0000433976Y0000214173D03*
X0000459173Y0000214173D03*
X0000421379Y0000214173D03*
X0000440275Y0000207874D03*
X0000427677Y0000207874D03*
X0000427677Y0000214173D03*
X0000427677Y0000185827D03*
X0000433976Y0000185827D03*
X0000427677Y0000192126D03*
X0000468622Y0000185827D03*
X0000446575Y0000185827D03*
X0000421379Y0000185827D03*
X0000341221Y0000212126D03*
X0000290827Y0000253071D03*
X0000287677Y0000253071D03*
X0000331772Y0000180630D03*
X0000297126Y0000180630D03*
X0000449725Y0000276024D03*
X0000319173Y0000183779D03*
X0000427677Y0000253977D03*
X0000341221Y0000246772D03*
X0000316024Y0000183779D03*
X0000300275Y0000180630D03*
X0000328622Y0000180630D03*
X0000438463Y0000248962D03*
X0000347520Y0000253071D03*
X0000300275Y0000183779D03*
X0000427677Y0000276024D03*
X0000338071Y0000246772D03*
X0000306575Y0000183779D03*
X0000271929Y0000199527D03*
X0000433976Y0000276024D03*
X0000341221Y0000256221D03*
X0000438000Y0000183500D03*
X0000341221Y0000196378D03*
X0000435000Y0000180000D03*
X0000338071Y0000202677D03*
X0000268779Y0000186929D03*
X0000309725Y0000253071D03*
X0000271929Y0000190079D03*
X0000312874Y0000253071D03*
X0000443425Y0000192126D03*
X0000354000Y0000195000D03*
X0000278228Y0000177480D03*
X0000421379Y0000211024D03*
X0000341221Y0000186929D03*
X0000338071Y0000249921D03*
X0000424527Y0000207874D03*
X0000344370Y0000186929D03*
X0000433976Y0000211024D03*
X0000341221Y0000199527D03*
X0000316024Y0000237323D03*
X0000319173Y0000234173D03*
X0000322323Y0000231024D03*
X0000316024Y0000227874D03*
X0000319173Y0000227874D03*
X0000306575Y0000227874D03*
X0000309725Y0000224725D03*
X0000319173Y0000221575D03*
X0000312874Y0000221575D03*
X0000306575Y0000221575D03*
X0000309725Y0000215275D03*
X0000316024Y0000215275D03*
X0000322323Y0000215275D03*
X0000306575Y0000212126D03*
X0000309725Y0000208976D03*
X0000322323Y0000208976D03*
X0000306575Y0000205827D03*
X0000287677Y0000237323D03*
X0000293976Y0000237323D03*
X0000287677Y0000231024D03*
X0000293976Y0000231024D03*
X0000300275Y0000231024D03*
X0000290827Y0000227874D03*
X0000297126Y0000227874D03*
X0000300275Y0000224725D03*
X0000290827Y0000221575D03*
X0000297126Y0000221575D03*
X0000300275Y0000215275D03*
X0000293976Y0000215275D03*
X0000287677Y0000215275D03*
X0000290827Y0000212126D03*
X0000300275Y0000208976D03*
X0000293976Y0000208976D03*
X0000290827Y0000205827D03*
X0000300275Y0000202677D03*
X0000293976Y0000202677D03*
X0000322323Y0000237323D03*
X0000278228Y0000249921D03*
X0000281378Y0000249921D03*
X0000360000Y0000240000D03*
X0000430827Y0000250827D03*
X0000351500Y0000240000D03*
X0000268779Y0000243622D03*
X0000437126Y0000207874D03*
X0000344370Y0000199527D03*
X0000443425Y0000185827D03*
X0000347520Y0000196378D03*
X0000341221Y0000249921D03*
X0000271929Y0000186929D03*
X0000349000Y0000188600D03*
X0000427677Y0000188976D03*
X0000331771Y0000243622D03*
X0000347520Y0000262520D03*
X0000334921Y0000262520D03*
X0000322323Y0000262520D03*
X0000347520Y0000249921D03*
X0000331771Y0000249921D03*
X0000328622Y0000249921D03*
X0000322323Y0000249921D03*
X0000347520Y0000234173D03*
X0000334921Y0000237323D03*
X0000331771Y0000231024D03*
X0000341221Y0000227874D03*
X0000334921Y0000224725D03*
X0000344370Y0000221575D03*
X0000331771Y0000215275D03*
X0000334921Y0000208976D03*
X0000344370Y0000208976D03*
X0000334921Y0000202677D03*
X0000331771Y0000196378D03*
X0000344370Y0000193228D03*
X0000331772Y0000193228D03*
X0000347520Y0000177480D03*
X0000262480Y0000262520D03*
X0000275079Y0000262520D03*
X0000262480Y0000249921D03*
X0000275079Y0000249921D03*
X0000275079Y0000243622D03*
X0000265630Y0000240473D03*
X0000275079Y0000237323D03*
X0000262480Y0000231024D03*
X0000275079Y0000231024D03*
X0000275079Y0000224725D03*
X0000265630Y0000221575D03*
X0000275079Y0000215275D03*
X0000275079Y0000208976D03*
X0000262480Y0000208976D03*
X0000275079Y0000202677D03*
X0000265630Y0000199527D03*
X0000275079Y0000196378D03*
X0000287677Y0000190079D03*
X0000281378Y0000190079D03*
X0000275079Y0000190079D03*
X0000262480Y0000190079D03*
X0000275079Y0000180630D03*
X0000284527Y0000180630D03*
X0000262480Y0000177480D03*
X0000443425Y0000214173D03*
X0000344370Y0000196378D03*
X0000338071Y0000193228D03*
X0000278228Y0000186929D03*
X0000449724Y0000211024D03*
X0000352500Y0000262500D03*
X0000443425Y0000272874D03*
X0000443425Y0000279173D03*
X0000344370Y0000253071D03*
X0000446575Y0000211024D03*
X0000421379Y0000276024D03*
X0000344370Y0000243622D03*
X0000265630Y0000215275D03*
X0000430827Y0000272874D03*
X0000344370Y0000246772D03*
X0000424527Y0000257127D03*
X0000338071Y0000240473D03*
X0000265630Y0000202677D03*
X0000426000Y0000248500D03*
X0000338071Y0000259370D03*
X0000424527Y0000272874D03*
X0000341221Y0000243622D03*
X0000271929Y0000205827D03*
X0000443425Y0000207874D03*
X0000350500Y0000203500D03*
X0000424527Y0000192126D03*
X0000338071Y0000183779D03*
X0000424527Y0000279173D03*
X0000356500Y0000250000D03*
X0000440275Y0000211024D03*
X0000355500Y0000203500D03*
X0000424527Y0000250827D03*
X0000344370Y0000240473D03*
X0000443425Y0000188976D03*
X0000341221Y0000202677D03*
X0000271929Y0000202677D03*
X0000443425Y0000257127D03*
X0000334921Y0000253071D03*
X0000268779Y0000202677D03*
X0000430827Y0000257127D03*
X0000352050Y0000242746D03*
X0000430827Y0000207874D03*
X0000341221Y0000190079D03*
X0000341221Y0000205827D03*
X0000262480Y0000202677D03*
X0000338071Y0000205827D03*
X0000271929Y0000180630D03*
X0000430827Y0000185827D03*
X0000334921Y0000190079D03*
X0000341221Y0000237323D03*
X0000265630Y0000237323D03*
X0000338071Y0000237323D03*
X0000430827Y0000192126D03*
X0000351325Y0000185729D03*
X0000443425Y0000253977D03*
X0000341221Y0000253071D03*
X0000271929Y0000237323D03*
X0000297126Y0000186929D03*
X0000271929Y0000249921D03*
X0000312874Y0000186929D03*
X0000271929Y0000246772D03*
X0000300275Y0000177480D03*
X0000281378Y0000186929D03*
X0000262480Y0000237323D03*
X0000275079Y0000183779D03*
X0000275079Y0000186929D03*
X0000271929Y0000215275D03*
X0000446575Y0000188976D03*
X0000446575Y0000253977D03*
X0000287677Y0000183779D03*
X0000265630Y0000177480D03*
X0000265630Y0000180630D03*
X0000446575Y0000257127D03*
X0000268779Y0000249921D03*
X0000334921Y0000234173D03*
X0000312875Y0000256220D03*
X0000281378Y0000256221D03*
X0000278228Y0000256220D03*
X0000306575Y0000253071D03*
X0000316024Y0000256221D03*
X0000344370Y0000262520D03*
X0000312875Y0000259370D03*
X0000306575Y0000262520D03*
X0000334921Y0000259370D03*
X0000306575Y0000259370D03*
X0000334921Y0000256221D03*
X0000331772Y0000253071D03*
X0000344370Y0000249921D03*
X0000328622Y0000246771D03*
X0000325473Y0000249921D03*
X0000319173Y0000249921D03*
X0000312874Y0000249921D03*
X0000306575Y0000249921D03*
X0000331771Y0000246772D03*
X0000338071Y0000243622D03*
X0000344370Y0000234173D03*
X0000319173Y0000237323D03*
X0000312874Y0000237323D03*
X0000306575Y0000237323D03*
X0000322323Y0000234173D03*
X0000316024Y0000231024D03*
X0000319173Y0000231024D03*
X0000306575Y0000231024D03*
X0000347520Y0000227874D03*
X0000331771Y0000227874D03*
X0000316024Y0000224725D03*
X0000309725Y0000227874D03*
X0000319173Y0000224725D03*
X0000306575Y0000224725D03*
X0000347520Y0000221575D03*
X0000334921Y0000221575D03*
X0000322323Y0000221575D03*
X0000316024Y0000221575D03*
X0000309725Y0000221575D03*
X0000306575Y0000215275D03*
X0000312874Y0000215275D03*
X0000319173Y0000215275D03*
X0000338071Y0000215275D03*
X0000309725Y0000212126D03*
X0000322323Y0000212126D03*
X0000334921Y0000212126D03*
X0000347520Y0000212126D03*
X0000306575Y0000208976D03*
X0000316024Y0000208976D03*
X0000322323Y0000205827D03*
X0000334921Y0000205827D03*
X0000306575Y0000202677D03*
X0000312874Y0000202677D03*
X0000319173Y0000202677D03*
X0000334921Y0000199527D03*
X0000334921Y0000193228D03*
X0000347520Y0000193228D03*
X0000311500Y0000194000D03*
X0000322323Y0000190079D03*
X0000331772Y0000190079D03*
X0000319173Y0000186929D03*
X0000309725Y0000183779D03*
X0000322323Y0000183779D03*
X0000306575Y0000180630D03*
X0000316024Y0000180630D03*
X0000344370Y0000180630D03*
X0000309725Y0000177480D03*
X0000322323Y0000177480D03*
X0000331772Y0000177480D03*
X0000265630Y0000262520D03*
X0000268779Y0000262520D03*
X0000278228Y0000262520D03*
X0000284527Y0000262520D03*
X0000293976Y0000262520D03*
X0000265630Y0000259370D03*
X0000268779Y0000259370D03*
X0000275079Y0000259370D03*
X0000290827Y0000259370D03*
X0000293976Y0000259370D03*
X0000284527Y0000253071D03*
X0000265630Y0000256221D03*
X0000268779Y0000256221D03*
X0000293976Y0000253071D03*
X0000300275Y0000253071D03*
X0000265630Y0000249921D03*
X0000284527Y0000249921D03*
X0000290827Y0000249921D03*
X0000297126Y0000249921D03*
X0000275079Y0000246772D03*
X0000262480Y0000243622D03*
X0000275079Y0000240473D03*
X0000290827Y0000237323D03*
X0000297126Y0000237323D03*
X0000275079Y0000234173D03*
X0000300275Y0000234173D03*
X0000265630Y0000231024D03*
X0000290827Y0000231024D03*
X0000297126Y0000231024D03*
X0000275079Y0000227874D03*
X0000293976Y0000227874D03*
X0000300275Y0000227874D03*
X0000262480Y0000221575D03*
X0000275079Y0000221575D03*
X0000287677Y0000221575D03*
X0000293976Y0000221575D03*
X0000300275Y0000221575D03*
X0000297126Y0000215275D03*
X0000290827Y0000215275D03*
X0000300275Y0000212126D03*
X0000293976Y0000212126D03*
X0000290827Y0000208976D03*
X0000265630Y0000208976D03*
X0000300275Y0000205827D03*
X0000293976Y0000205827D03*
X0000275079Y0000205827D03*
X0000290827Y0000202677D03*
X0000275079Y0000199527D03*
X0000262480Y0000199527D03*
X0000275079Y0000193228D03*
X0000300275Y0000190079D03*
X0000290827Y0000190079D03*
X0000284527Y0000190079D03*
X0000278228Y0000190079D03*
X0000265630Y0000190079D03*
X0000293976Y0000186929D03*
X0000265630Y0000186929D03*
X0000262480Y0000186929D03*
X0000297126Y0000183779D03*
X0000300000Y0000172000D03*
X0000275079Y0000177480D03*
X0000271929Y0000177480D03*
X0000268779Y0000177480D03*
X0000334921Y0000240473D03*
X0000275079Y0000212126D03*
X0000347520Y0000180630D03*
X0000297126Y0000202677D03*
X0000287677Y0000227874D03*
X0000347520Y0000208976D03*
X0000437126Y0000211024D03*
X0000446575Y0000192126D03*
X0000443425Y0000211024D03*
X0000465473Y0000214173D03*
X0000462323Y0000185827D03*
X0000430827Y0000211024D03*
X0000424527Y0000211024D03*
X0000446575Y0000207874D03*
X0000440275Y0000188976D03*
X0000433976Y0000204724D03*
X0000424527Y0000188976D03*
X0000421378Y0000204724D03*
X0000433976Y0000192126D03*
X0000421379Y0000192126D03*
X0000440275Y0000253977D03*
X0000443425Y0000276024D03*
X0000462323Y0000250827D03*
X0000421378Y0000269725D03*
X0000424527Y0000253977D03*
X0000424527Y0000276024D03*
X0000433976Y0000269724D03*
X0000430827Y0000276024D03*
X0000437126Y0000276024D03*
X0000446575Y0000272874D03*
X0000465473Y0000279173D03*
X0000433976Y0000257127D03*
X0000421379Y0000257127D03*
X0000334921Y0000180630D03*
X0000271929Y0000183779D03*
X0000328622Y0000186929D03*
X0000312874Y0000190079D03*
X0000284527Y0000186929D03*
X0000287677Y0000186929D03*
X0000331772Y0000183779D03*
X0000312874Y0000180630D03*
X0000325473Y0000186929D03*
X0000312874Y0000183779D03*
X0000290827Y0000186929D03*
X0000306575Y0000177480D03*
X0000328622Y0000183779D03*
X0000278228Y0000180630D03*
X0000484367Y0000234075D03*
X0000484367Y0000201575D03*
X0000484367Y0000266575D03*
X0000338071Y0000234173D03*
X0000437126Y0000272874D03*
X0000344370Y0000256221D03*
X0000300275Y0000186929D03*
X0000271929Y0000256220D03*
X0000268779Y0000246772D03*
X0000268779Y0000240473D03*
X0000271929Y0000240473D03*
X0000265630Y0000243622D03*
X0000338071Y0000224725D03*
X0000271929Y0000243622D03*
X0000268779Y0000237323D03*
X0000268779Y0000224725D03*
X0000268779Y0000227874D03*
X0000268779Y0000221575D03*
X0000271929Y0000221575D03*
X0000265630Y0000227874D03*
X0000271929Y0000227874D03*
X0000262480Y0000224725D03*
X0000293976Y0000183779D03*
X0000262480Y0000212126D03*
X0000265630Y0000212126D03*
X0000271929Y0000234173D03*
X0000287677Y0000180630D03*
X0000262480Y0000215275D03*
X0000290827Y0000180630D03*
X0000271929Y0000224725D03*
X0000265630Y0000224725D03*
X0000265630Y0000234173D03*
X0000334921Y0000186929D03*
X0000262480Y0000227874D03*
X0000338071Y0000186929D03*
X0000271929Y0000231024D03*
X0000268779Y0000215275D03*
X0000268779Y0000231024D03*
X0000290827Y0000183779D03*
X0000331772Y0000186929D03*
X0000268779Y0000212126D03*
X0000325473Y0000253071D03*
X0000306575Y0000256221D03*
X0000328622Y0000256221D03*
X0000271929Y0000212126D03*
X0000268779Y0000190079D03*
X0000281378Y0000253071D03*
X0000271929Y0000208976D03*
X0000265630Y0000193228D03*
G54D13*
X0000160000Y0000050000D03*
X0000195000Y0000015000D03*
X0000195000Y0000020000D03*
X0000195000Y0000025000D03*
X0000190000Y0000030000D03*
X0000175000Y0000032500D03*
X0000180000Y0000032500D03*
X0000185000Y0000025000D03*
X0000185000Y0000030000D03*
X0000190000Y0000025000D03*
X0000190000Y0000020000D03*
X0000185000Y0000020000D03*
X0000250000Y0000020000D03*
X0000245000Y0000020000D03*
X0000245000Y0000040000D03*
X0000245000Y0000035000D03*
X0000250000Y0000030000D03*
X0000250000Y0000025000D03*
X0000245000Y0000025000D03*
X0000245000Y0000030000D03*
X0000120000Y0000050000D03*
X0000115000Y0000050000D03*
X0000220000Y0000050000D03*
X0000220000Y0000045000D03*
X0000035000Y0000045000D03*
X0000022500Y0000045000D03*
X0000055000Y0000035000D03*
X0000040000Y0000050000D03*
X0000082500Y0000045000D03*
X0000082500Y0000035000D03*
X0000075000Y0000045000D03*
X0000090000Y0000045000D03*
X0000100000Y0000050000D03*
X0000110000Y0000040000D03*
X0000055000Y0000025000D03*
X0000070000Y0000010000D03*
X0000070000Y0000025000D03*
X0000085000Y0000010000D03*
X0000085000Y0000025000D03*
X0000100000Y0000025000D03*
X0000100000Y0000010000D03*
X0000130000Y0000010000D03*
X0000115000Y0000010000D03*
X0000115000Y0000025000D03*
X0000145000Y0000025000D03*
X0000130000Y0000025000D03*
X0000150000Y0000050000D03*
X0000160000Y0000030000D03*
X0000150000Y0000030000D03*
X0000150000Y0000040000D03*
X0000200000Y0000015000D03*
X0000210000Y0000015000D03*
X0000225000Y0000015000D03*
X0000240000Y0000015000D03*
X0000240000Y0000050000D03*
X0000125000Y0000050000D03*
X0000210000Y0000040000D03*
X0000210000Y0000030000D03*
X0000210000Y0000035000D03*
X0000210000Y0000025000D03*
X0000160000Y0000040000D03*
X0000175000Y0000020000D03*
X0000170000Y0000015000D03*
X0000165000Y0000015000D03*
X0000165000Y0000020000D03*
X0000170000Y0000020000D03*
X0000170000Y0000025000D03*
X0000165000Y0000025000D03*
X0000060000Y0000035000D03*
X0000050000Y0000040000D03*
X0000045000Y0000040000D03*
X0000065000Y0000040000D03*
X0000060000Y0000040000D03*
X0000055000Y0000040000D03*
X0000135000Y0000050000D03*
X0000130000Y0000050000D03*
X0000145000Y0000045000D03*
X0000115000Y0000045000D03*
X0000180000Y0000040000D03*
X0000175000Y0000040000D03*
X0000180000Y0000045000D03*
X0000175000Y0000045000D03*
X0000180000Y0000050000D03*
X0000175000Y0000050000D03*
X0000100000Y0000035000D03*
X0000060000Y0000030000D03*
X0000140000Y0000050000D03*
X0000110000Y0000180000D03*
X0000250000Y0000190000D03*
X0000240000Y0000180000D03*
X0000200000Y0000305000D03*
X0000135000Y0000245000D03*
X0000250000Y0000195000D03*
X0000080000Y0000175000D03*
X0000250000Y0000210000D03*
X0000240000Y0000165000D03*
X0000080000Y0000195000D03*
X0000250000Y0000240000D03*
X0000115000Y0000169600D03*
X0000250000Y0000235000D03*
X0000082500Y0000200000D03*
X0000250000Y0000270000D03*
X0000192500Y0000330000D03*
X0000250000Y0000250000D03*
X0000135000Y0000210000D03*
X0000114785Y0000180000D03*
X0000250000Y0000215000D03*
X0000250000Y0000230000D03*
X0000090300Y0000133500D03*
X0000090300Y0000130000D03*
X0000250000Y0000317500D03*
X0000250000Y0000220000D03*
X0000105000Y0000130000D03*
X0000075000Y0000200000D03*
X0000060000Y0000195000D03*
X0000142500Y0000345000D03*
X0000245000Y0000095000D03*
X0000142500Y0000317500D03*
X0000180000Y0000195000D03*
X0000120000Y0000260000D03*
X0000120000Y0000275000D03*
X0000120000Y0000270000D03*
X0000120000Y0000265000D03*
X0000150000Y0000190000D03*
X0000095000Y0000240000D03*
X0000120000Y0000205000D03*
X0000120000Y0000230000D03*
X0000205000Y0000075000D03*
X0000095000Y0000195000D03*
X0000090000Y0000195000D03*
X0000210000Y0000140000D03*
X0000190000Y0000317500D03*
X0000110079Y0000240079D03*
X0000125000Y0000065000D03*
X0000135000Y0000065000D03*
X0000140000Y0000070000D03*
X0000067500Y0000180000D03*
X0000215000Y0000255000D03*
X0000135000Y0000090000D03*
X0000160000Y0000070000D03*
X0000225000Y0000135000D03*
X0000090000Y0000240000D03*
X0000075000Y0000210000D03*
X0000135000Y0000075000D03*
X0000125000Y0000075000D03*
X0000115000Y0000075000D03*
X0000120000Y0000075000D03*
X0000235000Y0000125000D03*
X0000145000Y0000100000D03*
X0000135000Y0000100000D03*
X0000155000Y0000075000D03*
X0000130000Y0000100000D03*
X0000155000Y0000070000D03*
X0000080000Y0000180000D03*
X0000250000Y0000225000D03*
X0000225000Y0000265000D03*
X0000195000Y0000305000D03*
X0000196500Y0000330000D03*
X0000150000Y0000280000D03*
X0000060000Y0000190000D03*
X0000220000Y0000110000D03*
X0000205000Y0000265000D03*
X0000205000Y0000270000D03*
X0000205000Y0000275000D03*
X0000205000Y0000280000D03*
X0000220000Y0000290000D03*
X0000225000Y0000290000D03*
X0000230000Y0000290000D03*
X0000230000Y0000285000D03*
X0000245000Y0000295000D03*
X0000240000Y0000295000D03*
X0000205000Y0000285000D03*
X0000045000Y0000150000D03*
X0000185000Y0000305000D03*
X0000060000Y0000215000D03*
X0000055000Y0000175000D03*
X0000080000Y0000220000D03*
X0000175000Y0000305000D03*
X0000055000Y0000080000D03*
X0000100000Y0000180000D03*
X0000218500Y0000163000D03*
X0000228500Y0000205000D03*
X0000120000Y0000220000D03*
X0000195000Y0000235000D03*
X0000190000Y0000235000D03*
X0000192500Y0000207500D03*
X0000220000Y0000090000D03*
X0000220000Y0000060000D03*
X0000220000Y0000075000D03*
X0000235000Y0000205000D03*
X0000240000Y0000230000D03*
X0000240000Y0000250000D03*
X0000240000Y0000220000D03*
X0000240000Y0000200000D03*
X0000240000Y0000260000D03*
X0000240000Y0000210000D03*
X0000240000Y0000240000D03*
X0000240000Y0000190000D03*
X0000225000Y0000205000D03*
X0000220000Y0000169500D03*
X0000090000Y0000075000D03*
X0000165000Y0000225000D03*
X0000055000Y0000090000D03*
X0000055000Y0000095000D03*
X0000055000Y0000085000D03*
X0000083500Y0000130000D03*
X0000087000Y0000130000D03*
X0000090000Y0000080000D03*
X0000085000Y0000195000D03*
X0000190000Y0000175000D03*
X0000135000Y0000230000D03*
X0000135000Y0000205000D03*
X0000040000Y0000102500D03*
X0000176000Y0000330000D03*
X0000060000Y0000240000D03*
X0000134000Y0000200000D03*
X0000145000Y0000210000D03*
X0000140000Y0000210000D03*
X0000100000Y0000200000D03*
X0000140000Y0000100000D03*
X0000075000Y0000175000D03*
X0000105000Y0000195000D03*
X0000080000Y0000225000D03*
X0000183500Y0000330000D03*
X0000040000Y0000122500D03*
X0000205000Y0000125000D03*
X0000135000Y0000225000D03*
X0000115000Y0000220000D03*
X0000245000Y0000330000D03*
X0000190000Y0000220000D03*
X0000150000Y0000205000D03*
X0000250000Y0000305000D03*
X0000195000Y0000220000D03*
X0000150000Y0000200000D03*
X0000199000Y0000140000D03*
X0000105000Y0000200000D03*
X0000080000Y0000255000D03*
X0000105000Y0000180000D03*
X0000095000Y0000180000D03*
X0000120000Y0000210000D03*
X0000080000Y0000240000D03*
X0000096000Y0000223000D03*
X0000111000Y0000194500D03*
X0000110000Y0000214000D03*
X0000128000Y0000328500D03*
X0000132500Y0000320000D03*
X0000153500Y0000250000D03*
X0000161500Y0000249500D03*
X0000179500Y0000222000D03*
X0000169500Y0000292000D03*
X0000178000Y0000285000D03*
X0000177500Y0000291000D03*
X0000170500Y0000283500D03*
X0000165000Y0000288500D03*
X0000168500Y0000276500D03*
X0000164500Y0000280500D03*
X0000172000Y0000262000D03*
X0000179000Y0000269000D03*
X0000179000Y0000261000D03*
X0000179500Y0000248000D03*
X0000185000Y0000254500D03*
X0000190000Y0000260500D03*
X0000190000Y0000250500D03*
X0000195000Y0000254500D03*
X0000195000Y0000263500D03*
X0000205000Y0000250000D03*
X0000205000Y0000254500D03*
X0000215000Y0000247500D03*
X0000210000Y0000245500D03*
X0000205000Y0000235500D03*
X0000204500Y0000230000D03*
X0000215000Y0000230000D03*
X0000210000Y0000230000D03*
X0000215000Y0000235500D03*
X0000210000Y0000235500D03*
X0000215000Y0000219000D03*
X0000215000Y0000225000D03*
X0000210000Y0000225000D03*
X0000204500Y0000225000D03*
X0000204500Y0000219000D03*
X0000210000Y0000219500D03*
X0000219500Y0000138500D03*
X0000212500Y0000147000D03*
X0000204500Y0000154500D03*
X0000220500Y0000155000D03*
X0000211500Y0000164000D03*
X0000204500Y0000175000D03*
X0000213000Y0000177500D03*
X0000208500Y0000182000D03*
X0000204500Y0000200000D03*
X0000204500Y0000207500D03*
X0000210000Y0000200000D03*
X0000220000Y0000200000D03*
X0000220000Y0000210000D03*
X0000220000Y0000219000D03*
X0000220000Y0000225000D03*
X0000220000Y0000230000D03*
X0000220000Y0000235000D03*
X0000220000Y0000244500D03*
X0000220000Y0000250000D03*
X0000234000Y0000254500D03*
X0000225000Y0000248500D03*
X0000130000Y0000297500D03*
X0000112500Y0000302500D03*
X0000132500Y0000310000D03*
X0000112500Y0000310000D03*
X0000097500Y0000310000D03*
X0000127500Y0000337500D03*
X0000112500Y0000337500D03*
X0000095000Y0000337500D03*
X0000047500Y0000332500D03*
X0000032500Y0000315000D03*
X0000087500Y0000330000D03*
X0000057500Y0000320000D03*
X0000077500Y0000320000D03*
X0000067500Y0000330000D03*
X0000057500Y0000340000D03*
X0000077500Y0000340000D03*
X0000035000Y0000302500D03*
X0000045000Y0000302500D03*
X0000055000Y0000302500D03*
X0000065000Y0000302500D03*
X0000090000Y0000302500D03*
X0000085000Y0000310000D03*
X0000075000Y0000310000D03*
X0000065000Y0000310000D03*
X0000055000Y0000310000D03*
X0000045000Y0000310000D03*
X0000020000Y0000305000D03*
X0000020000Y0000300000D03*
X0000035000Y0000310000D03*
X0000065000Y0000295000D03*
X0000055000Y0000295000D03*
X0000045000Y0000295000D03*
X0000035000Y0000295000D03*
X0000045000Y0000285000D03*
X0000055000Y0000285000D03*
X0000055000Y0000275000D03*
X0000065000Y0000285000D03*
X0000035000Y0000277500D03*
X0000027500Y0000285000D03*
X0000027500Y0000277500D03*
X0000030000Y0000257500D03*
X0000030000Y0000267500D03*
X0000045000Y0000267500D03*
X0000045000Y0000252500D03*
X0000047500Y0000262500D03*
X0000025000Y0000240000D03*
X0000015000Y0000235000D03*
X0000015000Y0000245000D03*
X0000030000Y0000245000D03*
X0000030000Y0000235000D03*
X0000040000Y0000235000D03*
X0000040000Y0000245000D03*
X0000047500Y0000245000D03*
X0000055000Y0000227500D03*
X0000045000Y0000220000D03*
X0000045000Y0000212500D03*
X0000052500Y0000200000D03*
X0000102500Y0000225000D03*
X0000112500Y0000217500D03*
X0000172500Y0000145000D03*
X0000147500Y0000180000D03*
X0000140000Y0000180000D03*
X0000155000Y0000180000D03*
X0000127500Y0000175000D03*
X0000140000Y0000175000D03*
X0000155000Y0000175000D03*
X0000172500Y0000175000D03*
X0000175000Y0000160000D03*
X0000175000Y0000165000D03*
X0000165000Y0000165000D03*
X0000155000Y0000165000D03*
X0000145000Y0000165000D03*
X0000132500Y0000165000D03*
X0000122500Y0000165000D03*
X0000100000Y0000155000D03*
X0000082500Y0000170000D03*
X0000090000Y0000170000D03*
X0000097500Y0000170000D03*
X0000062500Y0000177500D03*
X0000067500Y0000167500D03*
X0000062500Y0000172500D03*
X0000075000Y0000125000D03*
X0000075000Y0000135000D03*
X0000045000Y0000122500D03*
X0000045000Y0000115000D03*
X0000055000Y0000115000D03*
X0000065000Y0000115000D03*
X0000052500Y0000135000D03*
X0000062500Y0000132500D03*
X0000060000Y0000120000D03*
X0000060000Y0000127500D03*
X0000060000Y0000137500D03*
X0000070000Y0000132500D03*
X0000042500Y0000130000D03*
X0000040000Y0000160000D03*
X0000040000Y0000172500D03*
X0000045000Y0000177500D03*
X0000042500Y0000185000D03*
X0000020000Y0000217500D03*
X0000012500Y0000217500D03*
X0000020000Y0000187500D03*
X0000012500Y0000187500D03*
X0000020000Y0000172500D03*
X0000020000Y0000167500D03*
X0000012500Y0000167500D03*
X0000017500Y0000160000D03*
X0000027500Y0000172500D03*
X0000027500Y0000162500D03*
X0000027500Y0000155000D03*
X0000027500Y0000150000D03*
X0000027500Y0000145000D03*
X0000027500Y0000140000D03*
X0000027500Y0000132500D03*
X0000027500Y0000095000D03*
X0000027500Y0000100000D03*
X0000027500Y0000125000D03*
X0000027500Y0000117500D03*
X0000027500Y0000107500D03*
X0000087500Y0000070000D03*
X0000057500Y0000065000D03*
X0000047500Y0000067500D03*
X0000062500Y0000072500D03*
X0000030000Y0000087500D03*
X0000040000Y0000080000D03*
X0000030000Y0000080000D03*
X0000020000Y0000080000D03*
X0000012500Y0000080000D03*
X0000040000Y0000070000D03*
X0000030000Y0000070000D03*
X0000020000Y0000070000D03*
X0000012500Y0000070000D03*
X0000040000Y0000062500D03*
X0000030000Y0000055000D03*
X0000030000Y0000062500D03*
X0000020000Y0000062500D03*
X0000012500Y0000062500D03*
X0000012500Y0000055000D03*
X0000020000Y0000055000D03*
X0000082500Y0000110000D03*
X0000092500Y0000110000D03*
X0000082500Y0000055000D03*
X0000102500Y0000107500D03*
X0000123000Y0000130500D03*
X0000122500Y0000142500D03*
X0000122500Y0000122500D03*
X0000117500Y0000135000D03*
X0000132500Y0000132500D03*
X0000152500Y0000130000D03*
X0000150000Y0000145000D03*
X0000167500Y0000135000D03*
X0000157500Y0000132500D03*
X0000147500Y0000132500D03*
X0000140000Y0000132500D03*
X0000142500Y0000112500D03*
X0000120000Y0000105000D03*
X0000112500Y0000100000D03*
X0000120000Y0000095000D03*
X0000172500Y0000087500D03*
X0000167500Y0000087500D03*
X0000170000Y0000080000D03*
X0000165000Y0000072500D03*
X0000170000Y0000060000D03*
X0000162500Y0000060000D03*
X0000150000Y0000065000D03*
X0000150000Y0000060000D03*
X0000162500Y0000065000D03*
X0000170000Y0000065000D03*
X0000180000Y0000065000D03*
X0000195000Y0000075000D03*
X0000190000Y0000065000D03*
X0000205000Y0000060000D03*
X0000210000Y0000065000D03*
X0000200000Y0000065000D03*
X0000200000Y0000055000D03*
X0000210000Y0000055000D03*
X0000235000Y0000092500D03*
X0000235000Y0000077500D03*
X0000235000Y0000062500D03*
X0000240000Y0000080000D03*
X0000237500Y0000102500D03*
X0000240000Y0000092500D03*
X0000247500Y0000092500D03*
X0000179500Y0000235000D03*
X0000192000Y0000140500D03*
X0000166500Y0000149500D03*
X0000161000Y0000105000D03*
X0000151500Y0000111000D03*
X0000162500Y0000114500D03*
X0000115000Y0000165500D03*
X0000079500Y0000130500D03*
X0000081000Y0000139000D03*
X0000035000Y0000200500D03*
X0000055000Y0000220000D03*
X0000055000Y0000245000D03*
X0000070500Y0000261500D03*
X0000087500Y0000257500D03*
X0000200500Y0000331500D03*
X0000180300Y0000301700D03*
X0000144000Y0000306500D03*
X0000144000Y0000300500D03*
X0000150000Y0000300500D03*
X0000150000Y0000306500D03*
X0000230400Y0000333400D03*
X0000236400Y0000333400D03*
X0000236400Y0000327400D03*
X0000230400Y0000327400D03*
X0000143000Y0000333300D03*
X0000149000Y0000333300D03*
X0000149000Y0000327300D03*
X0000143000Y0000327300D03*
X0000154000Y0000333300D03*
X0000160000Y0000333300D03*
X0000160000Y0000327300D03*
X0000154000Y0000327300D03*
X0000164000Y0000306500D03*
X0000170000Y0000306500D03*
X0000170000Y0000300500D03*
X0000164000Y0000300500D03*
X0000164000Y0000349500D03*
X0000170000Y0000349500D03*
X0000170000Y0000343500D03*
X0000164000Y0000343500D03*
X0000199000Y0000349500D03*
X0000205000Y0000349500D03*
X0000205000Y0000343500D03*
X0000199000Y0000343500D03*
X0000207000Y0000300500D03*
X0000207000Y0000294500D03*
X0000201000Y0000300500D03*
X0000201000Y0000294500D03*
X0000225500Y0000306500D03*
X0000231500Y0000306500D03*
X0000231500Y0000300500D03*
X0000225500Y0000300500D03*
X0000238000Y0000306500D03*
X0000244000Y0000306500D03*
X0000244000Y0000300500D03*
X0000238000Y0000300500D03*
X0000185000Y0000265000D03*
X0000040000Y0000142500D03*
X0000090000Y0000140000D03*
X0000150000Y0000210000D03*
X0000070000Y0000165000D03*
X0000245000Y0000120000D03*
X0000225000Y0000130000D03*
X0000240000Y0000150000D03*
X0000180000Y0000090000D03*
X0000170000Y0000125000D03*
X0000205000Y0000140000D03*
X0000045000Y0000090000D03*
X0000045000Y0000080000D03*
X0000095000Y0000230000D03*
X0000037700Y0000180200D03*
X0000013800Y0000174800D03*
X0000032500Y0000185000D03*
X0000245000Y0000105000D03*
X0000245000Y0000075000D03*
X0000245000Y0000070000D03*
X0000245000Y0000065000D03*
X0000245000Y0000060000D03*
X0000245000Y0000085000D03*
X0000245000Y0000080000D03*
X0000220000Y0000115000D03*
X0000220000Y0000255000D03*
X0000150000Y0000285000D03*
X0000150000Y0000295000D03*
X0000230000Y0000275000D03*
X0000210000Y0000285000D03*
X0000210000Y0000290000D03*
X0000215000Y0000289000D03*
X0000125000Y0000260000D03*
X0000125000Y0000265000D03*
X0000125000Y0000270000D03*
X0000125000Y0000275000D03*
X0000150000Y0000275000D03*
X0000155000Y0000275000D03*
X0000155000Y0000270000D03*
X0000150000Y0000270000D03*
X0000145000Y0000270000D03*
X0000195000Y0000060000D03*
X0000195000Y0000055000D03*
X0000190000Y0000055000D03*
X0000250000Y0000285000D03*
X0000250000Y0000290000D03*
X0000250000Y0000280000D03*
X0000250000Y0000275000D03*
X0000155000Y0000205000D03*
X0000180000Y0000190000D03*
X0000180000Y0000200000D03*
X0000190000Y0000290000D03*
X0000195000Y0000250000D03*
X0000197500Y0000207500D03*
X0000195000Y0000180000D03*
X0000155000Y0000200000D03*
X0000240000Y0000185000D03*
X0000240000Y0000225000D03*
X0000240000Y0000205000D03*
X0000240000Y0000235000D03*
X0000240000Y0000195000D03*
X0000240000Y0000215000D03*
X0000240000Y0000255000D03*
X0000240000Y0000245000D03*
X0000037700Y0000210200D03*
X0000013800Y0000205200D03*
X0000080000Y0000290000D03*
X0000085000Y0000290000D03*
X0000090000Y0000290000D03*
X0000095000Y0000290000D03*
X0000100000Y0000290000D03*
X0000105000Y0000290000D03*
X0000110000Y0000290000D03*
X0000075000Y0000290000D03*
X0000032500Y0000215000D03*
X0000202500Y0000317500D03*
X0000245000Y0000317500D03*
X0000235000Y0000317500D03*
X0000230000Y0000317500D03*
X0000225000Y0000317500D03*
X0000172500Y0000317500D03*
X0000162500Y0000317500D03*
X0000152500Y0000317500D03*
X0000217500Y0000325000D03*
X0000210000Y0000325000D03*
X0000135000Y0000325000D03*
X0000040000Y0000252500D03*
X0000155000Y0000235000D03*
X0000160000Y0000235000D03*
X0000090000Y0000205000D03*
X0000110000Y0000205000D03*
X0000100000Y0000195000D03*
X0000100094Y0000240094D03*
X0000060000Y0000230000D03*
X0000060000Y0000205000D03*
X0000090000Y0000180000D03*
X0000120000Y0000200000D03*
X0000120000Y0000225000D03*
X0000085000Y0000205000D03*
X0000085000Y0000230000D03*
X0000100000Y0000230000D03*
X0000095000Y0000205000D03*
X0000110000Y0000230000D03*
X0000165000Y0000230000D03*
X0000080000Y0000155000D03*
X0000045000Y0000100000D03*
X0000050000Y0000100000D03*
X0000100000Y0000070000D03*
X0000095000Y0000070000D03*
X0000105000Y0000090000D03*
X0000080000Y0000090000D03*
X0000080000Y0000080000D03*
X0000070000Y0000090000D03*
X0000070000Y0000080000D03*
X0000075000Y0000085000D03*
X0000200000Y0000160000D03*
X0000050000Y0000130000D03*
X0000055000Y0000130000D03*
X0000045000Y0000155000D03*
X0000070000Y0000150000D03*
X0000045000Y0000160000D03*
X0000095000Y0000125000D03*
X0000080000Y0000070000D03*
X0000145000Y0000250000D03*
X0000090000Y0000065000D03*
X0000185000Y0000175000D03*
X0000160000Y0000075000D03*
X0000135000Y0000150000D03*
X0000150000Y0000155000D03*
X0000150000Y0000120000D03*
X0000150000Y0000125000D03*
X0000140000Y0000090000D03*
X0000120000Y0000150000D03*
X0000115000Y0000115000D03*
X0000115000Y0000130000D03*
X0000120000Y0000065000D03*
X0000115000Y0000065000D03*
X0000195000Y0000080000D03*
X0000175000Y0000140000D03*
X0000192500Y0000112500D03*
X0000197500Y0000112500D03*
X0000197500Y0000107500D03*
X0000197500Y0000102500D03*
X0000192500Y0000102500D03*
X0000187500Y0000107500D03*
X0000187500Y0000112500D03*
X0000187500Y0000102500D03*
X0000192500Y0000107500D03*
X0000205000Y0000090000D03*
X0000180000Y0000140000D03*
X0000130000Y0000090000D03*
X0000125000Y0000090000D03*
X0000140000Y0000075000D03*
X0000145000Y0000105000D03*
X0000152500Y0000345000D03*
X0000160000Y0000345000D03*
X0000175000Y0000345000D03*
X0000195000Y0000345000D03*
X0000225000Y0000345000D03*
X0000230000Y0000345000D03*
X0000235000Y0000345000D03*
X0000240000Y0000345000D03*
X0000060000Y0000200000D03*
X0000075000Y0000255000D03*
X0000195500Y0000140000D03*
X0000173500Y0000235000D03*
X0000220000Y0000055000D03*
X0000215000Y0000275000D03*
X0000210000Y0000275000D03*
X0000210000Y0000270000D03*
X0000210000Y0000280000D03*
X0000040000Y0000147500D03*
X0000040000Y0000152500D03*
X0000040000Y0000112500D03*
X0000245000Y0000135000D03*
X0000240000Y0000140000D03*
X0000250000Y0000140000D03*
X0000045000Y0000095000D03*
X0000045000Y0000085000D03*
X0000025000Y0000187500D03*
X0000130000Y0000075000D03*
X0000130000Y0000065000D03*
X0000155000Y0000290000D03*
X0000130000Y0000280000D03*
X0000130000Y0000275000D03*
X0000130000Y0000270000D03*
X0000135000Y0000270000D03*
X0000140000Y0000270000D03*
X0000135000Y0000275000D03*
X0000200000Y0000180000D03*
X0000190000Y0000180000D03*
X0000185000Y0000180000D03*
X0000200000Y0000250000D03*
X0000090000Y0000270000D03*
X0000085000Y0000270000D03*
X0000080000Y0000270000D03*
X0000075000Y0000270000D03*
X0000095000Y0000270000D03*
X0000100000Y0000270000D03*
X0000105000Y0000270000D03*
X0000110000Y0000270000D03*
X0000025000Y0000217500D03*
X0000040000Y0000272500D03*
X0000040000Y0000262500D03*
X0000055000Y0000180000D03*
X0000075000Y0000235000D03*
X0000165000Y0000235000D03*
X0000075000Y0000205000D03*
X0000075000Y0000230000D03*
X0000105000Y0000240000D03*
X0000105000Y0000100000D03*
X0000105000Y0000095000D03*
X0000055000Y0000100000D03*
X0000060000Y0000100000D03*
X0000045000Y0000075000D03*
X0000105000Y0000085000D03*
X0000095000Y0000120000D03*
X0000140000Y0000250000D03*
X0000185000Y0000160000D03*
X0000150000Y0000075000D03*
X0000160000Y0000150000D03*
X0000155000Y0000150000D03*
X0000145000Y0000150000D03*
X0000140000Y0000150000D03*
X0000045000Y0000167500D03*
X0000115000Y0000090000D03*
X0000120000Y0000090000D03*
X0000130000Y0000150000D03*
X0000115000Y0000150000D03*
X0000180000Y0000055000D03*
X0000175000Y0000055000D03*
X0000175000Y0000060000D03*
X0000105000Y0000115000D03*
X0000185000Y0000287500D03*
X0000180000Y0000305000D03*
X0000085000Y0000255000D03*
X0000170000Y0000235100D03*
X0000075000Y0000240000D03*
X0000040000Y0000137500D03*
X0000075000Y0000225000D03*
X0000172000Y0000330000D03*
X0000135000Y0000220000D03*
X0000215000Y0000115000D03*
X0000187500Y0000328100D03*
X0000240000Y0000175000D03*
X0000060000Y0000225000D03*
X0000220000Y0000070000D03*
X0000195000Y0000317500D03*
X0000220000Y0000085000D03*
X0000060000Y0000235000D03*
X0000140000Y0000065000D03*
X0000075000Y0000215000D03*
X0000060000Y0000085000D03*
X0000185000Y0000317500D03*
X0000115000Y0000240000D03*
X0000165000Y0000152500D03*
X0000060000Y0000210000D03*
X0000090000Y0000235000D03*
X0000190000Y0000305000D03*
X0000040000Y0000097500D03*
X0000180000Y0000317500D03*
X0000060000Y0000220000D03*
X0000040000Y0000092500D03*
X0000179500Y0000330000D03*
X0000075000Y0000220000D03*
X0000090000Y0000260000D03*
X0000055000Y0000075000D03*
X0000085000Y0000240000D03*
X0000037500Y0000225000D03*
X0000220000Y0000095000D03*
X0000075000Y0000260000D03*
X0000220000Y0000080000D03*
X0000085000Y0000260000D03*
X0000220000Y0000065000D03*
X0000055000Y0000240000D03*
X0000037500Y0000194800D03*
X0000110000Y0000260000D03*
X0000220000Y0000100000D03*
X0000105000Y0000260000D03*
X0000080000Y0000260000D03*
X0000095000Y0000260000D03*
X0000100000Y0000260000D03*
X0000240000Y0000265000D03*
X0000150000Y0000195000D03*
X0000120000Y0000235000D03*
X0000065000Y0000100000D03*
X0000060000Y0000095000D03*
X0000070000Y0000070000D03*
X0000060000Y0000075000D03*
X0000240000Y0000270000D03*
X0000170000Y0000195000D03*
X0000170000Y0000200000D03*
X0000170000Y0000190000D03*
X0000110000Y0000200000D03*
X0000190000Y0000280000D03*
X0000075000Y0000070000D03*
X0000090000Y0000100000D03*
X0000090000Y0000095000D03*
X0000090000Y0000090000D03*
X0000075000Y0000100000D03*
X0000195000Y0000195000D03*
X0000200000Y0000280000D03*
X0000195000Y0000280000D03*
X0000080000Y0000215000D03*
X0000070000Y0000100000D03*
X0000250000Y0000345000D03*
X0000159500Y0000110000D03*
X0000150500Y0000105000D03*
X0000194500Y0000085000D03*
X0000154000Y0000105000D03*
X0000250000Y0000330000D03*
X0000156000Y0000110000D03*
X0000191000Y0000085000D03*
X0000085000Y0000180000D03*
X0000250000Y0000150000D03*
X0000120000Y0000175000D03*
X0000250000Y0000255000D03*
X0000120000Y0000195000D03*
X0000250000Y0000260000D03*
X0000115000Y0000235000D03*
X0000250000Y0000185000D03*
X0000190000Y0000345000D03*
X0000135000Y0000240000D03*
X0000135000Y0000215000D03*
X0000250000Y0000245000D03*
X0000120000Y0000180000D03*
X0000250000Y0000200000D03*
X0000245000Y0000345000D03*
X0000210000Y0000100000D03*
X0000210000Y0000125000D03*
X0000175000Y0000110000D03*
X0000175000Y0000115000D03*
X0000184000Y0000125000D03*
X0000190000Y0000125000D03*
X0000195000Y0000125000D03*
X0000200500Y0000125000D03*
X0000210000Y0000115000D03*
X0000210000Y0000110000D03*
X0000210000Y0000105000D03*
X0000200000Y0000090000D03*
X0000195000Y0000090000D03*
X0000200000Y0000085000D03*
X0000190000Y0000090000D03*
X0000184500Y0000090000D03*
X0000175000Y0000097500D03*
X0000174500Y0000105000D03*
X0000420000Y0000025000D03*
X0000400000Y0000025000D03*
X0000400000Y0000050000D03*
X0000490000Y0000050000D03*
X0000440000Y0000035000D03*
X0000440000Y0000030000D03*
X0000435000Y0000030000D03*
X0000435000Y0000035000D03*
X0000420000Y0000035000D03*
X0000420000Y0000030000D03*
X0000470000Y0000020000D03*
X0000455000Y0000025000D03*
X0000455000Y0000030000D03*
X0000455000Y0000035000D03*
X0000425000Y0000045000D03*
X0000430000Y0000045000D03*
X0000435000Y0000045000D03*
X0000435000Y0000040000D03*
X0000440000Y0000040000D03*
X0000440000Y0000045000D03*
X0000445000Y0000045000D03*
X0000450000Y0000045000D03*
X0000455000Y0000040000D03*
X0000455000Y0000045000D03*
X0000460000Y0000045000D03*
X0000260000Y0000045000D03*
X0000280000Y0000052500D03*
X0000320000Y0000040000D03*
X0000320000Y0000025000D03*
X0000310000Y0000010000D03*
X0000330000Y0000010000D03*
X0000355000Y0000010000D03*
X0000380000Y0000010000D03*
X0000405000Y0000010000D03*
X0000430000Y0000010000D03*
X0000455000Y0000010000D03*
X0000417500Y0000045000D03*
X0000485000Y0000042500D03*
X0000410000Y0000042500D03*
X0000390000Y0000015000D03*
X0000385000Y0000015000D03*
X0000380000Y0000015000D03*
X0000375000Y0000015000D03*
X0000370000Y0000015000D03*
X0000365000Y0000015000D03*
X0000360000Y0000015000D03*
X0000355000Y0000015000D03*
X0000350000Y0000015000D03*
X0000390000Y0000045000D03*
X0000465000Y0000020000D03*
X0000410000Y0000025000D03*
X0000480000Y0000035000D03*
X0000480000Y0000040000D03*
X0000280000Y0000030000D03*
X0000280000Y0000025000D03*
X0000290000Y0000020000D03*
X0000285000Y0000020000D03*
X0000280000Y0000020000D03*
X0000275000Y0000020000D03*
X0000275000Y0000025000D03*
X0000275000Y0000030000D03*
X0000410000Y0000037500D03*
X0000360000Y0000305000D03*
X0000362500Y0000330000D03*
X0000345000Y0000300000D03*
X0000275000Y0000165000D03*
X0000350000Y0000300000D03*
X0000355000Y0000345000D03*
X0000265000Y0000165000D03*
X0000255000Y0000303500D03*
X0000330000Y0000330000D03*
X0000367500Y0000330000D03*
X0000355000Y0000317500D03*
X0000353000Y0000330000D03*
X0000339500Y0000330000D03*
X0000365000Y0000305000D03*
X0000370000Y0000305000D03*
X0000365000Y0000345000D03*
X0000357500Y0000330000D03*
X0000325000Y0000275000D03*
X0000265000Y0000275000D03*
X0000260000Y0000275000D03*
X0000335000Y0000275000D03*
X0000340000Y0000275000D03*
X0000365000Y0000165000D03*
X0000360000Y0000165000D03*
X0000375000Y0000237000D03*
X0000355000Y0000170000D03*
X0000280000Y0000275000D03*
X0000275000Y0000275000D03*
X0000360000Y0000220000D03*
X0000350000Y0000165000D03*
X0000345000Y0000165000D03*
X0000475000Y0000055000D03*
X0000370000Y0000345000D03*
X0000370000Y0000317500D03*
X0000490000Y0000095000D03*
X0000490000Y0000090000D03*
X0000470000Y0000095000D03*
X0000470000Y0000090000D03*
X0000475000Y0000100000D03*
X0000480000Y0000100000D03*
X0000485000Y0000100000D03*
X0000470000Y0000100000D03*
X0000490000Y0000100000D03*
X0000490000Y0000150000D03*
X0000490000Y0000155000D03*
X0000490000Y0000160000D03*
X0000470000Y0000150000D03*
X0000470000Y0000155000D03*
X0000460000Y0000160000D03*
X0000465000Y0000160000D03*
X0000470000Y0000160000D03*
X0000485000Y0000160000D03*
X0000480000Y0000160000D03*
X0000475000Y0000160000D03*
X0000405000Y0000255000D03*
X0000400000Y0000255000D03*
X0000405000Y0000200000D03*
X0000400000Y0000200000D03*
X0000435000Y0000130000D03*
X0000430000Y0000130000D03*
X0000425000Y0000130000D03*
X0000435000Y0000160000D03*
X0000430000Y0000160000D03*
X0000425000Y0000160000D03*
X0000425000Y0000155000D03*
X0000425000Y0000150000D03*
X0000425000Y0000145000D03*
X0000425000Y0000140000D03*
X0000430000Y0000140000D03*
X0000435000Y0000140000D03*
X0000435000Y0000135000D03*
X0000430000Y0000135000D03*
X0000425000Y0000135000D03*
X0000375000Y0000233500D03*
X0000255000Y0000150000D03*
X0000350000Y0000295000D03*
X0000255000Y0000295000D03*
X0000280000Y0000295000D03*
X0000276000Y0000295000D03*
X0000270500Y0000295000D03*
X0000265000Y0000295000D03*
X0000260000Y0000295000D03*
X0000335000Y0000295000D03*
X0000340000Y0000295000D03*
X0000350000Y0000145000D03*
X0000345000Y0000145000D03*
X0000355000Y0000145000D03*
X0000425000Y0000105000D03*
X0000425000Y0000075000D03*
X0000425000Y0000100000D03*
X0000425000Y0000095000D03*
X0000425000Y0000090000D03*
X0000425000Y0000085000D03*
X0000425000Y0000080000D03*
X0000435000Y0000105000D03*
X0000430000Y0000105000D03*
X0000435000Y0000075000D03*
X0000430000Y0000075000D03*
X0000430000Y0000085000D03*
X0000435000Y0000085000D03*
X0000435000Y0000080000D03*
X0000430000Y0000080000D03*
X0000375000Y0000180000D03*
X0000380000Y0000220000D03*
X0000380000Y0000225000D03*
X0000280000Y0000115000D03*
X0000275000Y0000075000D03*
X0000275000Y0000080000D03*
X0000329000Y0000130000D03*
X0000330000Y0000140500D03*
X0000340000Y0000110000D03*
X0000340000Y0000120000D03*
X0000360000Y0000120000D03*
X0000321000Y0000172900D03*
X0000355000Y0000120000D03*
X0000350000Y0000120000D03*
X0000345000Y0000120000D03*
X0000345000Y0000105000D03*
X0000345000Y0000100000D03*
X0000345000Y0000110000D03*
X0000345000Y0000115000D03*
X0000350000Y0000115000D03*
X0000255000Y0000120000D03*
X0000260000Y0000130000D03*
X0000260000Y0000125000D03*
X0000260000Y0000120000D03*
X0000295000Y0000130000D03*
X0000295000Y0000135000D03*
X0000295000Y0000125000D03*
X0000295000Y0000140000D03*
X0000360000Y0000250000D03*
X0000319000Y0000115000D03*
X0000302500Y0000115000D03*
X0000255000Y0000180000D03*
X0000360000Y0000190000D03*
X0000360000Y0000255000D03*
X0000370000Y0000265000D03*
X0000375000Y0000265000D03*
X0000365000Y0000265000D03*
X0000370000Y0000145000D03*
X0000360000Y0000145000D03*
X0000365000Y0000145000D03*
X0000380000Y0000140000D03*
X0000385000Y0000140000D03*
X0000360000Y0000245000D03*
X0000330000Y0000295000D03*
X0000380000Y0000200000D03*
X0000380000Y0000195000D03*
X0000380000Y0000190000D03*
X0000270000Y0000150000D03*
X0000380000Y0000215000D03*
X0000375000Y0000203500D03*
X0000375000Y0000207000D03*
X0000300000Y0000330000D03*
X0000275000Y0000090000D03*
X0000290000Y0000310000D03*
X0000410000Y0000240000D03*
X0000334000Y0000120500D03*
X0000329500Y0000124500D03*
X0000329500Y0000118500D03*
X0000443500Y0000263500D03*
X0000386500Y0000255500D03*
X0000275000Y0000065000D03*
X0000282500Y0000075000D03*
X0000280000Y0000065000D03*
X0000340000Y0000087500D03*
X0000342500Y0000065000D03*
X0000325000Y0000087500D03*
X0000302500Y0000087500D03*
X0000320000Y0000070000D03*
X0000295000Y0000067500D03*
X0000297500Y0000055000D03*
X0000315000Y0000055000D03*
X0000330000Y0000055000D03*
X0000380000Y0000135000D03*
X0000392500Y0000122500D03*
X0000410000Y0000125000D03*
X0000405000Y0000110000D03*
X0000405000Y0000122500D03*
X0000412500Y0000065000D03*
X0000397500Y0000060000D03*
X0000402500Y0000067500D03*
X0000415000Y0000070000D03*
X0000450000Y0000055000D03*
X0000442500Y0000055000D03*
X0000450000Y0000062500D03*
X0000442500Y0000062500D03*
X0000455000Y0000075000D03*
X0000460000Y0000080000D03*
X0000447500Y0000080000D03*
X0000447500Y0000110000D03*
X0000395000Y0000165000D03*
X0000425000Y0000165000D03*
X0000410000Y0000165000D03*
X0000395000Y0000172500D03*
X0000435000Y0000175000D03*
X0000482500Y0000190000D03*
X0000480000Y0000165000D03*
X0000462500Y0000165000D03*
X0000445000Y0000165000D03*
X0000437500Y0000165000D03*
X0000462500Y0000175000D03*
X0000445000Y0000175000D03*
X0000460000Y0000127500D03*
X0000445000Y0000127500D03*
X0000460000Y0000140000D03*
X0000445000Y0000140000D03*
X0000490000Y0000110000D03*
X0000475000Y0000110000D03*
X0000475000Y0000122500D03*
X0000490000Y0000122500D03*
X0000500000Y0000055000D03*
X0000500000Y0000067500D03*
X0000500000Y0000085000D03*
X0000500000Y0000110000D03*
X0000500000Y0000135000D03*
X0000500000Y0000160000D03*
X0000490000Y0000177500D03*
X0000500000Y0000192500D03*
X0000490000Y0000210000D03*
X0000500000Y0000225000D03*
X0000490000Y0000240000D03*
X0000500000Y0000255000D03*
X0000460000Y0000300000D03*
X0000382500Y0000320000D03*
X0000385000Y0000310000D03*
X0000400000Y0000310000D03*
X0000415000Y0000310000D03*
X0000415000Y0000297500D03*
X0000385000Y0000290000D03*
X0000405000Y0000290000D03*
X0000490000Y0000272500D03*
X0000500000Y0000275000D03*
X0000497500Y0000295000D03*
X0000457500Y0000332500D03*
X0000457500Y0000317500D03*
X0000467500Y0000290000D03*
X0000487500Y0000290000D03*
X0000477500Y0000300000D03*
X0000467500Y0000310000D03*
X0000487500Y0000310000D03*
X0000430000Y0000290000D03*
X0000450000Y0000290000D03*
X0000440000Y0000300000D03*
X0000440000Y0000337500D03*
X0000460000Y0000337500D03*
X0000400000Y0000337500D03*
X0000420000Y0000337500D03*
X0000390000Y0000345000D03*
X0000410000Y0000345000D03*
X0000430000Y0000345000D03*
X0000450000Y0000345000D03*
X0000450000Y0000325000D03*
X0000430000Y0000325000D03*
X0000440000Y0000315000D03*
X0000450000Y0000305000D03*
X0000430000Y0000305000D03*
X0000315000Y0000345000D03*
X0000378500Y0000240000D03*
X0000282500Y0000288500D03*
X0000356000Y0000348500D03*
X0000366500Y0000348000D03*
X0000351000Y0000346500D03*
X0000364100Y0000333000D03*
X0000346100Y0000328100D03*
X0000345085Y0000296451D03*
X0000260400Y0000333300D03*
X0000266400Y0000333300D03*
X0000266400Y0000327300D03*
X0000260400Y0000327300D03*
X0000298000Y0000151500D03*
X0000298000Y0000145500D03*
X0000304000Y0000151500D03*
X0000304000Y0000145500D03*
X0000310000Y0000145500D03*
X0000310000Y0000151500D03*
X0000316000Y0000151500D03*
X0000316000Y0000145500D03*
X0000322000Y0000145500D03*
X0000322000Y0000151500D03*
X0000328000Y0000151500D03*
X0000334000Y0000151500D03*
X0000334000Y0000145500D03*
X0000328000Y0000145500D03*
X0000259500Y0000306500D03*
X0000265500Y0000306500D03*
X0000265500Y0000300500D03*
X0000259500Y0000300500D03*
X0000280500Y0000349500D03*
X0000286500Y0000349500D03*
X0000286500Y0000343500D03*
X0000280500Y0000343500D03*
X0000270500Y0000349500D03*
X0000276500Y0000349500D03*
X0000276500Y0000343500D03*
X0000270500Y0000343500D03*
X0000270500Y0000306500D03*
X0000276500Y0000306500D03*
X0000276500Y0000300500D03*
X0000270500Y0000300500D03*
X0000280500Y0000306500D03*
X0000286500Y0000306500D03*
X0000286500Y0000300500D03*
X0000280500Y0000300500D03*
X0000289500Y0000294500D03*
X0000295500Y0000294500D03*
X0000295500Y0000288500D03*
X0000289500Y0000288500D03*
X0000299500Y0000294500D03*
X0000305500Y0000294500D03*
X0000305500Y0000288500D03*
X0000299500Y0000288500D03*
X0000311000Y0000294500D03*
X0000317000Y0000294500D03*
X0000317000Y0000288500D03*
X0000311000Y0000288500D03*
X0000385500Y0000297500D03*
X0000391500Y0000297500D03*
X0000391500Y0000303500D03*
X0000385500Y0000303500D03*
X0000397500Y0000297500D03*
X0000397500Y0000303500D03*
X0000403500Y0000297500D03*
X0000403500Y0000303500D03*
X0000317500Y0000317500D03*
X0000260000Y0000135000D03*
X0000260000Y0000140000D03*
X0000255000Y0000140000D03*
X0000321000Y0000167500D03*
X0000315000Y0000270000D03*
X0000330000Y0000275000D03*
X0000255000Y0000275000D03*
X0000255000Y0000195000D03*
X0000260000Y0000095000D03*
X0000255000Y0000110000D03*
X0000266500Y0000086500D03*
X0000490000Y0000065000D03*
X0000490000Y0000055000D03*
X0000395000Y0000160000D03*
X0000395000Y0000155000D03*
X0000395000Y0000150000D03*
X0000395000Y0000145000D03*
X0000395000Y0000140000D03*
X0000395000Y0000135000D03*
X0000395000Y0000130000D03*
X0000420000Y0000060000D03*
X0000490000Y0000080000D03*
X0000490000Y0000075000D03*
X0000490000Y0000070000D03*
X0000485000Y0000070000D03*
X0000480000Y0000070000D03*
X0000475000Y0000070000D03*
X0000470000Y0000070000D03*
X0000470000Y0000075000D03*
X0000470000Y0000080000D03*
X0000395000Y0000075000D03*
X0000395000Y0000080000D03*
X0000395000Y0000085000D03*
X0000395000Y0000090000D03*
X0000395000Y0000095000D03*
X0000395000Y0000100000D03*
X0000395000Y0000105000D03*
X0000420000Y0000120000D03*
X0000470000Y0000140000D03*
X0000470000Y0000135000D03*
X0000470000Y0000130000D03*
X0000475000Y0000130000D03*
X0000480000Y0000130000D03*
X0000485000Y0000130000D03*
X0000490000Y0000130000D03*
X0000490000Y0000135000D03*
X0000492400Y0000140000D03*
X0000360000Y0000260000D03*
X0000375000Y0000245000D03*
X0000370000Y0000290000D03*
X0000375000Y0000290000D03*
X0000365000Y0000290000D03*
X0000270000Y0000125000D03*
X0000270000Y0000140000D03*
X0000270000Y0000130000D03*
X0000270000Y0000135000D03*
X0000371000Y0000130000D03*
X0000371000Y0000135000D03*
X0000371000Y0000125000D03*
X0000371000Y0000140000D03*
X0000270000Y0000275000D03*
X0000370000Y0000165000D03*
X0000355000Y0000165000D03*
X0000345000Y0000275000D03*
X0000350000Y0000290000D03*
X0000350000Y0000285000D03*
X0000350000Y0000280000D03*
X0000380000Y0000165000D03*
X0000385000Y0000165000D03*
X0000375000Y0000165000D03*
X0000375000Y0000250000D03*
X0000310000Y0000170000D03*
X0000360000Y0000195000D03*
X0000375000Y0000175000D03*
X0000295000Y0000150000D03*
X0000375000Y0000185000D03*
X0000360000Y0000200000D03*
X0000284573Y0000165000D03*
X0000375000Y0000170000D03*
X0000380000Y0000210000D03*
X0000265000Y0000150000D03*
X0000360000Y0000225000D03*
X0000410000Y0000250000D03*
X0000405000Y0000280000D03*
X0000400000Y0000280000D03*
X0000405000Y0000175000D03*
X0000400000Y0000175000D03*
X0000305000Y0000345000D03*
X0000307500Y0000317500D03*
X0000287500Y0000317500D03*
X0000277500Y0000317500D03*
X0000267500Y0000317500D03*
X0000257500Y0000317500D03*
X0000327500Y0000317500D03*
X0000377500Y0000325000D03*
X0000302500Y0000325000D03*
X0000292500Y0000325000D03*
X0000390000Y0000065000D03*
X0000390000Y0000070000D03*
X0000390000Y0000090000D03*
X0000390000Y0000095000D03*
X0000390000Y0000115000D03*
X0000287500Y0000332500D03*
X0000277500Y0000332500D03*
X0000325000Y0000295000D03*
X0000257500Y0000345000D03*
X0000265000Y0000345000D03*
X0000255000Y0000105000D03*
X0000490000Y0000060000D03*
X0000270000Y0000165000D03*
X0000325000Y0000345000D03*
X0000310000Y0000345000D03*
X0000350000Y0000317500D03*
X0000345000Y0000317500D03*
X0000340000Y0000305000D03*
X0000350000Y0000305000D03*
X0000315000Y0000330000D03*
X0000340000Y0000317500D03*
X0000345000Y0000305000D03*
X0000340000Y0000345000D03*
X0000335000Y0000330000D03*
X0000335000Y0000345000D03*
X0000310100Y0000330000D03*
X0000255000Y0000330000D03*
X0000345000Y0000345000D03*
X0000320000Y0000345000D03*
X0000338000Y0000145000D03*
X0000325000Y0000330000D03*
X0000278000Y0000145000D03*
X0000320000Y0000330000D03*
X0000330000Y0000305000D03*
X0000330000Y0000345000D03*
X0000291500Y0000145000D03*
X0000335000Y0000317500D03*
X0000281500Y0000145000D03*
X0000341500Y0000145000D03*
X0000335000Y0000305000D03*
X0000288000Y0000145000D03*
X0000255000Y0000200000D03*
X0000334000Y0000271000D03*
X0000343500Y0000330000D03*
X0000360000Y0000345000D03*
X0000348655Y0000330155D03*
G54D22*
X0000272000Y0000303500D03*
X0000312500Y0000291500D03*
X0000285000Y0000346500D03*
X0000291000Y0000291500D03*
X0000275000Y0000346500D03*
X0000315500Y0000291500D03*
X0000282000Y0000346500D03*
X0000272000Y0000346500D03*
X0000282000Y0000303500D03*
X0000285000Y0000303500D03*
X0000304000Y0000291500D03*
X0000301000Y0000291500D03*
X0000326500Y0000148500D03*
X0000314500Y0000148500D03*
X0000323500Y0000148500D03*
X0000311500Y0000148500D03*
X0000275000Y0000303500D03*
X0000294000Y0000291500D03*
G54D23*
G01X0000287539Y0000021800D02*
X0000287539Y0000027500D01*
G01X0000287539Y0000027500D02*
X0000287539Y0000033200D01*
G01X0000281839Y0000027500D02*
X0000287539Y0000027500D01*
G01X0000287539Y0000027500D02*
X0000293239Y0000027500D01*
G01X0000337461Y0000021800D02*
X0000337461Y0000027500D01*
G01X0000337461Y0000027500D02*
X0000337461Y0000033200D01*
G01X0000331761Y0000027500D02*
X0000337461Y0000027500D01*
G01X0000337461Y0000027500D02*
X0000343161Y0000027500D01*
G01X0000337461Y0000034280D02*
X0000337461Y0000039980D01*
G01X0000331761Y0000039980D02*
X0000337461Y0000039980D01*
G01X0000337461Y0000039980D02*
X0000343161Y0000039980D01*
G54D14*
X0000119330Y0000320000D03*
X0000111456Y0000320000D03*
X0000103582Y0000320000D03*
X0000095708Y0000320000D03*
X0000119330Y0000330000D03*
X0000111456Y0000330000D03*
X0000103582Y0000330000D03*
X0000095708Y0000330000D03*
X0000392480Y0000320000D03*
X0000400354Y0000320000D03*
X0000408228Y0000320000D03*
X0000416102Y0000320000D03*
X0000392480Y0000330000D03*
X0000400354Y0000330000D03*
X0000408228Y0000330000D03*
X0000416102Y0000330000D03*
G54D24*
G01X0000210000Y0000140000D02*
X0000217500Y0000132500D01*
X0000217500Y0000083000D01*
X0000209500Y0000075000D01*
X0000205000Y0000075000D01*
G54D15*
X0000135155Y0000332500D03*
X0000376655Y0000332500D03*
G54D25*
G01X0000182780Y-0000025000D02*
X0000185905Y-0000015000D01*
X0000189030Y-0000025000D01*
G01X0000187905Y-0000021500D02*
X0000183905Y-0000021500D01*
G01X0000193405Y-0000025000D02*
X0000193405Y-0000015000D01*
X0000196530Y-0000015000D01*
X0000197530Y-0000015500D01*
X0000198155Y-0000016167D01*
X0000198405Y-0000017500D01*
X0000198155Y-0000018833D01*
X0000197405Y-0000019667D01*
X0000196530Y-0000020167D01*
X0000193405Y-0000020167D01*
G01X0000196530Y-0000020167D02*
X0000198405Y-0000025000D01*
G01X0000205905Y-0000015000D02*
X0000205905Y-0000025000D01*
G01X0000203030Y-0000015000D02*
X0000208780Y-0000015000D01*
G01X0000212155Y-0000015000D02*
X0000213905Y-0000025000D01*
X0000215905Y-0000015000D01*
X0000217905Y-0000025000D01*
X0000219655Y-0000015000D01*
G01X0000225905Y-0000025000D02*
X0000224905Y-0000024833D01*
X0000224030Y-0000024167D01*
X0000223280Y-0000023167D01*
X0000222780Y-0000022000D01*
X0000222530Y-0000020667D01*
X0000222530Y-0000019333D01*
X0000222780Y-0000018000D01*
X0000223280Y-0000016833D01*
X0000224030Y-0000015833D01*
X0000224905Y-0000015167D01*
X0000225905Y-0000015000D01*
X0000226905Y-0000015167D01*
X0000227780Y-0000015833D01*
X0000228530Y-0000016833D01*
X0000229030Y-0000018000D01*
X0000229280Y-0000019333D01*
X0000229280Y-0000020667D01*
X0000229030Y-0000022000D01*
X0000228530Y-0000023167D01*
X0000227780Y-0000024167D01*
X0000226905Y-0000024833D01*
X0000225905Y-0000025000D01*
G01X0000233405Y-0000025000D02*
X0000233405Y-0000015000D01*
X0000236530Y-0000015000D01*
X0000237530Y-0000015500D01*
X0000238155Y-0000016167D01*
X0000238405Y-0000017500D01*
X0000238155Y-0000018833D01*
X0000237405Y-0000019667D01*
X0000236530Y-0000020167D01*
X0000233405Y-0000020167D01*
G01X0000236530Y-0000020167D02*
X0000238405Y-0000025000D01*
G01X0000243155Y-0000025000D02*
X0000243155Y-0000015000D01*
G01X0000247905Y-0000015000D02*
X0000243155Y-0000021167D01*
G01X0000248655Y-0000025000D02*
X0000245280Y-0000018334D01*
G01X0000263405Y-0000015000D02*
X0000263405Y-0000025000D01*
X0000268405Y-0000025000D01*
G01X0000272780Y-0000025000D02*
X0000275905Y-0000015000D01*
X0000279030Y-0000025000D01*
G01X0000277905Y-0000021500D02*
X0000273905Y-0000021500D01*
G01X0000285905Y-0000025000D02*
X0000285905Y-0000020500D01*
X0000283405Y-0000015000D01*
G01X0000288405Y-0000015000D02*
X0000285905Y-0000020500D01*
G01X0000298405Y-0000025000D02*
X0000293405Y-0000025000D01*
X0000293405Y-0000015000D01*
X0000298405Y-0000015000D01*
G01X0000296405Y-0000019833D02*
X0000293405Y-0000019833D01*
G01X0000303405Y-0000025000D02*
X0000303405Y-0000015000D01*
X0000306530Y-0000015000D01*
X0000307530Y-0000015500D01*
X0000308155Y-0000016167D01*
X0000308405Y-0000017500D01*
X0000308155Y-0000018833D01*
X0000307405Y-0000019667D01*
X0000306530Y-0000020167D01*
X0000303405Y-0000020167D01*
G01X0000306530Y-0000020167D02*
X0000308405Y-0000025000D01*
G01X0000315905Y-0000015000D02*
X0000314905Y-0000015333D01*
X0000314155Y-0000016167D01*
X0000313655Y-0000017167D01*
X0000313280Y-0000018500D01*
X0000313155Y-0000020000D01*
X0000313280Y-0000021500D01*
X0000313655Y-0000022833D01*
X0000314155Y-0000023834D01*
X0000314905Y-0000024667D01*
X0000315905Y-0000025000D01*
X0000316905Y-0000024667D01*
X0000317655Y-0000023834D01*
X0000318155Y-0000022833D01*
X0000318530Y-0000021500D01*
X0000318655Y-0000020000D01*
X0000318530Y-0000018500D01*
X0000318155Y-0000017167D01*
X0000317655Y-0000016167D01*
X0000316905Y-0000015333D01*
X0000315905Y-0000015000D01*
G01X0000325655Y-0000025000D02*
X0000325905Y-0000022833D01*
X0000326280Y-0000021000D01*
X0000326780Y-0000019333D01*
X0000327405Y-0000017500D01*
X0000328405Y-0000015000D01*
X0000323405Y-0000015000D01*
G01X0Y0D02*
X0000511811Y0D01*
X0000511811Y0000354331D01*
X0Y0000354331D01*
X0Y0D01*
G01X0000268779Y0000243622D02*
X0000270379Y0000245222D01*
X0000275778Y0000245222D01*
X0000283000Y0000238000D01*
X0000283000Y0000205500D01*
X0000290500Y0000198000D01*
X0000297500Y0000198000D01*
X0000303500Y0000192000D01*
X0000303500Y0000170000D01*
X0000284000Y0000150500D01*
X0000284000Y0000144500D01*
X0000271400Y0000131900D01*
X0000253400Y0000131900D01*
X0000228500Y0000107000D01*
X0000228500Y0000058500D01*
X0000220000Y0000050000D01*
G01X0000240000Y0000180000D02*
X0000250000Y0000190000D01*
G01X0000240000Y0000165000D02*
X0000252500Y0000177500D01*
X0000252500Y0000207500D01*
X0000250000Y0000210000D01*
G01X0000135000Y0000230000D02*
X0000142500Y0000237500D01*
X0000233500Y0000237500D01*
X0000238750Y0000232250D01*
X0000250750Y0000232250D01*
X0000252500Y0000230500D01*
X0000252500Y0000215807D01*
X0000265630Y0000202677D01*
G01X0000205000Y0000125000D02*
X0000207500Y0000127500D01*
X0000207500Y0000179000D01*
X0000171000Y0000215500D01*
X0000144500Y0000215500D01*
X0000135000Y0000225000D01*
G01X0000271929Y0000237323D02*
X0000271188Y0000237323D01*
X0000269588Y0000238923D01*
X0000261837Y0000238923D01*
X0000258000Y0000242760D01*
X0000258000Y0000245000D01*
X0000250500Y0000252500D01*
X0000124500Y0000252500D01*
X0000112500Y0000240500D01*
X0000112500Y0000222500D01*
X0000115000Y0000220000D01*
G01X0000215000Y0000115000D02*
X0000212000Y0000118000D01*
X0000209000Y0000118000D01*
X0000202500Y0000124500D01*
X0000202500Y0000180500D01*
X0000169500Y0000213500D01*
X0000141500Y0000213500D01*
X0000135000Y0000220000D01*
G01X0000220000Y0000095000D02*
X0000222500Y0000097500D01*
X0000222500Y0000109500D01*
X0000251100Y0000138100D01*
X0000263100Y0000138100D01*
X0000295526Y0000170526D01*
X0000295526Y0000190974D01*
X0000293000Y0000193500D01*
X0000287500Y0000193500D01*
X0000277000Y0000204000D01*
X0000277000Y0000234500D01*
X0000275777Y0000235723D01*
X0000274486Y0000235723D01*
X0000273529Y0000236680D01*
X0000273529Y0000237970D01*
X0000272576Y0000238923D01*
X0000271286Y0000238923D01*
X0000269736Y0000240473D01*
X0000268779Y0000240473D01*
G01X0000220000Y0000080000D02*
X0000224500Y0000084500D01*
X0000224500Y0000109000D01*
X0000252400Y0000136900D01*
X0000264212Y0000136900D01*
X0000298000Y0000170688D01*
X0000298000Y0000175324D01*
X0000298676Y0000176000D01*
X0000298676Y0000190824D01*
X0000294500Y0000195000D01*
X0000288500Y0000195000D01*
X0000279000Y0000204500D01*
X0000279000Y0000236000D01*
X0000276077Y0000238923D01*
X0000274436Y0000238923D01*
X0000272886Y0000240473D01*
X0000271929Y0000240473D01*
G01X0000265630Y0000243622D02*
X0000267229Y0000242023D01*
X0000275722Y0000242023D01*
X0000280950Y0000236795D01*
X0000280950Y0000205050D01*
X0000289500Y0000196500D01*
X0000296500Y0000196500D01*
X0000302000Y0000191000D01*
X0000302000Y0000171688D01*
X0000273000Y0000142688D01*
X0000273000Y0000140000D01*
X0000270000Y0000137000D01*
X0000268000Y0000137000D01*
X0000264100Y0000133100D01*
X0000251600Y0000133100D01*
X0000226500Y0000108000D01*
X0000226500Y0000071500D01*
X0000220000Y0000065000D01*
G01X0000240000Y0000265000D02*
X0000238000Y0000267000D01*
X0000238000Y0000271500D01*
X0000239000Y0000272500D01*
X0000259557Y0000272500D01*
X0000283000Y0000272500D01*
X0000284400Y0000273900D01*
X0000296500Y0000286000D01*
X0000336000Y0000286000D01*
X0000343000Y0000293000D01*
X0000343000Y0000302000D01*
X0000340000Y0000305000D01*
G01X0000120000Y0000235000D02*
X0000122500Y0000232500D01*
X0000122500Y0000219000D01*
X0000134000Y0000207500D01*
X0000137500Y0000207500D01*
X0000150000Y0000195000D01*
G01X0000240000Y0000270000D02*
X0000242500Y0000267500D01*
X0000281000Y0000267500D01*
X0000297000Y0000283500D01*
X0000337500Y0000283500D01*
X0000348000Y0000294000D01*
X0000348000Y0000303000D01*
X0000350000Y0000305000D01*
G01X0000115000Y0000235000D02*
X0000122500Y0000242500D01*
X0000250188Y0000242500D01*
X0000256500Y0000236188D01*
X0000256500Y0000219062D01*
X0000261837Y0000213725D01*
X0000270330Y0000213725D01*
X0000271929Y0000212126D01*
G01X0000135000Y0000240000D02*
X0000237000Y0000240000D01*
X0000239000Y0000238000D01*
X0000250500Y0000238000D01*
X0000254500Y0000234000D01*
X0000254500Y0000217500D01*
X0000261474Y0000210526D01*
X0000266273Y0000210526D01*
X0000267229Y0000209570D01*
X0000267229Y0000191629D01*
X0000268779Y0000190079D01*
G01X0000347520Y0000231024D02*
X0000347520Y0000231980D01*
X0000350840Y0000235300D01*
X0000365700Y0000235300D01*
X0000368000Y0000233000D01*
X0000372500Y0000233000D01*
X0000373000Y0000233500D01*
X0000373000Y0000239000D01*
X0000373500Y0000239500D01*
X0000376312Y0000239500D01*
X0000377000Y0000238812D01*
X0000377000Y0000236000D01*
X0000377500Y0000235500D01*
X0000380000Y0000235500D01*
X0000380500Y0000236000D01*
X0000380500Y0000239500D01*
X0000381000Y0000240000D01*
X0000382355Y0000240000D01*
X0000382855Y0000239500D01*
X0000382855Y0000236100D01*
X0000383455Y0000235500D01*
X0000385000Y0000235500D01*
X0000385500Y0000236000D01*
X0000385500Y0000239500D01*
X0000386000Y0000240000D01*
X0000388000Y0000240000D01*
X0000388500Y0000239500D01*
X0000388500Y0000236000D01*
X0000389000Y0000235500D01*
X0000391000Y0000235500D01*
X0000391500Y0000236000D01*
X0000391500Y0000239500D01*
X0000392000Y0000240000D01*
X0000407500Y0000240000D01*
X0000408000Y0000239500D01*
X0000408000Y0000236000D01*
X0000408500Y0000235500D01*
X0000412000Y0000235500D01*
X0000412500Y0000236000D01*
X0000412500Y0000240000D01*
X0000413000Y0000240500D01*
X0000473391Y0000240500D01*
X0000478069Y0000235822D01*
X0000478069Y0000234075D01*
G01X0000344370Y0000227874D02*
X0000345920Y0000226324D01*
X0000348324Y0000226324D01*
X0000354500Y0000232500D01*
X0000364500Y0000232500D01*
X0000367000Y0000230000D01*
X0000376500Y0000230000D01*
X0000378500Y0000232000D01*
X0000400500Y0000232000D01*
X0000401000Y0000232500D01*
X0000401000Y0000236500D01*
X0000401500Y0000237000D01*
X0000403582Y0000237000D01*
X0000404082Y0000236500D01*
X0000404082Y0000232600D01*
X0000404682Y0000232000D01*
X0000415500Y0000232000D01*
X0000416000Y0000232500D01*
X0000416000Y0000237000D01*
X0000416500Y0000237500D01*
X0000418000Y0000237500D01*
X0000418500Y0000237000D01*
X0000418500Y0000236000D01*
X0000419000Y0000235500D01*
X0000420500Y0000235500D01*
X0000421000Y0000236000D01*
X0000421000Y0000237000D01*
X0000421500Y0000237500D01*
X0000423500Y0000237500D01*
X0000424000Y0000237000D01*
X0000424000Y0000232500D01*
X0000424500Y0000232000D01*
X0000426500Y0000232000D01*
X0000427000Y0000232500D01*
X0000427000Y0000237000D01*
X0000427500Y0000237500D01*
X0000429487Y0000237500D01*
X0000430087Y0000236900D01*
X0000430087Y0000232500D01*
X0000430587Y0000232000D01*
X0000432500Y0000232000D01*
X0000433000Y0000232500D01*
X0000433000Y0000237000D01*
X0000433500Y0000237500D01*
X0000435338Y0000237500D01*
X0000435838Y0000237000D01*
X0000435838Y0000232500D01*
X0000436338Y0000232000D01*
X0000438000Y0000232000D01*
X0000438500Y0000232500D01*
X0000438500Y0000237000D01*
X0000439000Y0000237500D01*
X0000468346Y0000237500D01*
X0000471771Y0000234075D01*
G01X0000468621Y0000230925D02*
X0000467021Y0000232525D01*
X0000467021Y0000235479D01*
X0000466500Y0000236000D01*
X0000445500Y0000236000D01*
X0000445000Y0000235500D01*
X0000445000Y0000228000D01*
X0000444500Y0000227500D01*
X0000443000Y0000227500D01*
X0000442500Y0000228000D01*
X0000442500Y0000235500D01*
X0000442000Y0000236000D01*
X0000440500Y0000236000D01*
X0000440000Y0000235500D01*
X0000440000Y0000228000D01*
X0000439500Y0000227500D01*
X0000437000Y0000227500D01*
X0000436500Y0000228000D01*
X0000436500Y0000230000D01*
X0000436000Y0000230500D01*
X0000433500Y0000230500D01*
X0000433000Y0000230000D01*
X0000433000Y0000228000D01*
X0000432500Y0000227500D01*
X0000430325Y0000227500D01*
X0000429725Y0000228100D01*
X0000429725Y0000230000D01*
X0000429225Y0000230500D01*
X0000426625Y0000230500D01*
X0000426125Y0000230000D01*
X0000426125Y0000228100D01*
X0000425525Y0000227500D01*
X0000422500Y0000227500D01*
X0000422000Y0000228000D01*
X0000422000Y0000233500D01*
X0000421500Y0000234000D01*
X0000419229Y0000234000D01*
X0000418729Y0000233500D01*
X0000418729Y0000228100D01*
X0000418129Y0000227500D01*
X0000415729Y0000227500D01*
X0000415129Y0000228100D01*
X0000415129Y0000230000D01*
X0000414629Y0000230500D01*
X0000412029Y0000230500D01*
X0000411529Y0000230000D01*
X0000411529Y0000228100D01*
X0000410929Y0000227500D01*
X0000408529Y0000227500D01*
X0000407929Y0000228100D01*
X0000407929Y0000229400D01*
X0000407329Y0000230000D01*
X0000378500Y0000230000D01*
X0000377000Y0000228500D01*
X0000366596Y0000228500D01*
X0000364096Y0000231000D01*
X0000355500Y0000231000D01*
X0000349225Y0000224725D01*
X0000347520Y0000224725D01*
G01X0000465471Y0000230925D02*
X0000463896Y0000232500D01*
X0000452040Y0000232500D01*
X0000450540Y0000234000D01*
X0000447000Y0000234000D01*
X0000446500Y0000233500D01*
X0000446500Y0000226500D01*
X0000446000Y0000226000D01*
X0000406500Y0000226000D01*
X0000406000Y0000226500D01*
X0000406000Y0000228090D01*
X0000405500Y0000228590D01*
X0000400000Y0000228590D01*
X0000399500Y0000228090D01*
X0000399500Y0000225500D01*
X0000400000Y0000225000D01*
X0000403000Y0000225000D01*
X0000403500Y0000224500D01*
X0000403500Y0000220500D01*
X0000403000Y0000220000D01*
X0000397500Y0000220000D01*
X0000397000Y0000220500D01*
X0000397000Y0000227700D01*
X0000396500Y0000228200D01*
X0000394500Y0000228200D01*
X0000394000Y0000227700D01*
X0000394000Y0000220500D01*
X0000393500Y0000220000D01*
X0000391500Y0000220000D01*
X0000391000Y0000220500D01*
X0000391000Y0000227700D01*
X0000390500Y0000228200D01*
X0000378502Y0000228200D01*
X0000375802Y0000225500D01*
X0000373500Y0000225500D01*
X0000372900Y0000226100D01*
X0000372900Y0000226400D01*
X0000372300Y0000227000D01*
X0000370500Y0000227000D01*
X0000370000Y0000226500D01*
X0000370000Y0000226000D01*
X0000369500Y0000225500D01*
X0000367500Y0000225500D01*
X0000363500Y0000229500D01*
X0000356500Y0000229500D01*
X0000350125Y0000223125D01*
X0000342821Y0000223125D01*
X0000341221Y0000224725D01*
G01X0000474920Y0000230925D02*
X0000473370Y0000232475D01*
X0000473370Y0000235130D01*
X0000469500Y0000239000D01*
X0000415000Y0000239000D01*
X0000414000Y0000238000D01*
X0000414000Y0000235000D01*
X0000413000Y0000234000D01*
X0000406746Y0000234000D01*
X0000406146Y0000234600D01*
X0000406146Y0000238000D01*
X0000405646Y0000238500D01*
X0000399500Y0000238500D01*
X0000399000Y0000238000D01*
X0000399000Y0000234500D01*
X0000398500Y0000234000D01*
X0000397046Y0000234000D01*
X0000396446Y0000234600D01*
X0000396446Y0000238000D01*
X0000395946Y0000238500D01*
X0000394000Y0000238500D01*
X0000393500Y0000238000D01*
X0000393500Y0000234500D01*
X0000393000Y0000234000D01*
X0000378500Y0000234000D01*
X0000376000Y0000231500D01*
X0000367500Y0000231500D01*
X0000365000Y0000234000D01*
X0000353000Y0000234000D01*
X0000348424Y0000229424D01*
X0000340424Y0000229424D01*
X0000339621Y0000228621D01*
X0000339621Y0000223175D01*
X0000341221Y0000221575D01*
G01X0000351000Y0000212126D02*
X0000357000Y0000212126D01*
X0000360126Y0000209000D01*
X0000376000Y0000209000D01*
X0000381000Y0000204000D01*
X0000417000Y0000204000D01*
X0000418000Y0000203000D01*
X0000442500Y0000203000D01*
X0000445500Y0000206000D01*
X0000454500Y0000206000D01*
X0000476519Y0000228019D01*
X0000476519Y0000231568D01*
X0000477426Y0000232475D01*
X0000477475Y0000232475D01*
X0000477500Y0000232500D01*
X0000482792Y0000232500D01*
X0000484367Y0000230925D01*
G01X0000471771Y0000230925D02*
X0000471771Y0000225771D01*
X0000462000Y0000216000D01*
X0000420000Y0000216000D01*
X0000419500Y0000215500D01*
X0000419500Y0000207000D01*
X0000419000Y0000206500D01*
X0000394626Y0000206500D01*
X0000394126Y0000207000D01*
X0000394126Y0000210500D01*
X0000393626Y0000211000D01*
X0000391026Y0000211000D01*
X0000390526Y0000210500D01*
X0000390526Y0000206500D01*
X0000390026Y0000206000D01*
X0000387426Y0000206000D01*
X0000386926Y0000206500D01*
X0000386926Y0000210500D01*
X0000386426Y0000211000D01*
X0000384000Y0000211000D01*
X0000383500Y0000210500D01*
X0000383500Y0000206500D01*
X0000383000Y0000206000D01*
X0000381312Y0000206000D01*
X0000376406Y0000210906D01*
X0000374705Y0000210906D01*
X0000374105Y0000211506D01*
X0000374105Y0000213000D01*
X0000373605Y0000213500D01*
X0000371005Y0000213500D01*
X0000370505Y0000213000D01*
X0000370505Y0000211506D01*
X0000369905Y0000210906D01*
X0000367505Y0000210906D01*
X0000366905Y0000211506D01*
X0000366905Y0000213500D01*
X0000366405Y0000214000D01*
X0000363805Y0000214000D01*
X0000363305Y0000213500D01*
X0000363305Y0000211500D01*
X0000362805Y0000211000D01*
X0000360000Y0000211000D01*
X0000359500Y0000211500D01*
X0000359500Y0000213500D01*
X0000359000Y0000214000D01*
X0000356500Y0000214000D01*
X0000356000Y0000214500D01*
X0000356000Y0000216714D01*
X0000356500Y0000217214D01*
X0000358885Y0000217214D01*
G01X0000341221Y0000208976D02*
X0000343197Y0000207000D01*
X0000356000Y0000207000D01*
X0000365500Y0000197500D01*
X0000366500Y0000197500D01*
X0000367000Y0000198000D01*
X0000367000Y0000202000D01*
X0000367500Y0000202500D01*
X0000370000Y0000202500D01*
X0000370500Y0000202000D01*
X0000370500Y0000198000D01*
X0000371000Y0000197500D01*
X0000444000Y0000197500D01*
X0000449700Y0000203200D01*
X0000460700Y0000203200D01*
X0000481218Y0000223718D01*
X0000481218Y0000230925D01*
G01X0000478069Y0000230925D02*
X0000478069Y0000224069D01*
X0000458500Y0000204500D01*
X0000448000Y0000204500D01*
X0000443000Y0000199500D01*
X0000439280Y0000199500D01*
X0000438680Y0000200100D01*
X0000438680Y0000200900D01*
X0000438080Y0000201500D01*
X0000435680Y0000201500D01*
X0000435080Y0000200900D01*
X0000435080Y0000200100D01*
X0000434480Y0000199500D01*
X0000431625Y0000199500D01*
X0000431025Y0000200100D01*
X0000431025Y0000200900D01*
X0000430425Y0000201500D01*
X0000428025Y0000201500D01*
X0000427425Y0000200900D01*
X0000427425Y0000200100D01*
X0000426825Y0000199500D01*
X0000424425Y0000199500D01*
X0000423825Y0000200100D01*
X0000423825Y0000200900D01*
X0000423225Y0000201500D01*
X0000420825Y0000201500D01*
X0000420225Y0000200900D01*
X0000420225Y0000200100D01*
X0000419625Y0000199500D01*
X0000416642Y0000199500D01*
X0000416042Y0000200100D01*
X0000416042Y0000201400D01*
X0000415442Y0000202000D01*
X0000413042Y0000202000D01*
X0000412442Y0000201400D01*
X0000412442Y0000200100D01*
X0000411842Y0000199500D01*
X0000409442Y0000199500D01*
X0000408842Y0000200100D01*
X0000408842Y0000201400D01*
X0000408242Y0000202000D01*
X0000394326Y0000202000D01*
X0000393726Y0000201400D01*
X0000393726Y0000200100D01*
X0000393126Y0000199500D01*
X0000390726Y0000199500D01*
X0000390126Y0000200100D01*
X0000390126Y0000201400D01*
X0000389526Y0000202000D01*
X0000387126Y0000202000D01*
X0000386526Y0000201400D01*
X0000386526Y0000200100D01*
X0000385926Y0000199500D01*
X0000383526Y0000199500D01*
X0000382926Y0000200100D01*
X0000382926Y0000201400D01*
X0000382326Y0000202000D01*
X0000378500Y0000202000D01*
X0000377500Y0000201000D01*
X0000374500Y0000201000D01*
X0000371000Y0000204500D01*
X0000361526Y0000204500D01*
X0000355500Y0000210526D01*
X0000345970Y0000210526D01*
X0000344370Y0000212126D01*
G01X0000459172Y0000230925D02*
X0000462648Y0000227449D01*
X0000464500Y0000227449D01*
X0000465000Y0000226949D01*
X0000465000Y0000224349D01*
X0000459651Y0000219000D01*
X0000450829Y0000219000D01*
X0000450329Y0000219500D01*
X0000450329Y0000221000D01*
X0000449729Y0000221600D01*
X0000447329Y0000221600D01*
X0000446729Y0000221000D01*
X0000446729Y0000219500D01*
X0000446229Y0000219000D01*
X0000443629Y0000219000D01*
X0000443129Y0000219500D01*
X0000443129Y0000221000D01*
X0000442529Y0000221600D01*
X0000440129Y0000221600D01*
X0000439529Y0000221000D01*
X0000439529Y0000219500D01*
X0000439029Y0000219000D01*
X0000436429Y0000219000D01*
X0000435929Y0000219500D01*
X0000435929Y0000221000D01*
X0000435329Y0000221600D01*
X0000432929Y0000221600D01*
X0000432329Y0000221000D01*
X0000432329Y0000219500D01*
X0000431829Y0000219000D01*
X0000429229Y0000219000D01*
X0000428729Y0000219500D01*
X0000428729Y0000221000D01*
X0000428129Y0000221600D01*
X0000422490Y0000221600D01*
X0000421890Y0000221000D01*
X0000421890Y0000219600D01*
X0000421290Y0000219000D01*
X0000418890Y0000219000D01*
X0000418290Y0000219600D01*
X0000418290Y0000221000D01*
X0000417690Y0000221600D01*
X0000415500Y0000221600D01*
X0000415000Y0000221100D01*
X0000415000Y0000213500D01*
X0000414500Y0000213000D01*
X0000412500Y0000213000D01*
X0000412000Y0000213500D01*
X0000412000Y0000217000D01*
X0000411500Y0000217500D01*
X0000409500Y0000217500D01*
X0000409000Y0000217000D01*
X0000409000Y0000211000D01*
X0000408500Y0000210500D01*
X0000405000Y0000210500D01*
X0000404500Y0000211000D01*
X0000404500Y0000215000D01*
X0000404000Y0000215500D01*
X0000382500Y0000215500D01*
X0000380500Y0000217500D01*
X0000365000Y0000217500D01*
X0000363500Y0000219000D01*
X0000363500Y0000221198D01*
X0000361598Y0000223100D01*
X0000357600Y0000223100D01*
X0000349775Y0000215275D01*
X0000341221Y0000215275D01*
G01X0000334921Y0000215275D02*
X0000337146Y0000217500D01*
X0000349500Y0000217500D01*
X0000359000Y0000227000D01*
X0000361500Y0000227000D01*
X0000365400Y0000223100D01*
X0000365400Y0000220000D01*
X0000365900Y0000219500D01*
X0000369500Y0000219500D01*
X0000370000Y0000220000D01*
X0000370000Y0000222000D01*
X0000370500Y0000222500D01*
X0000373500Y0000222500D01*
X0000374000Y0000222000D01*
X0000374000Y0000219500D01*
X0000374500Y0000219000D01*
X0000377500Y0000219000D01*
X0000378000Y0000219500D01*
X0000378000Y0000222500D01*
X0000378500Y0000223000D01*
X0000382000Y0000223000D01*
X0000382500Y0000222500D01*
X0000382500Y0000217500D01*
X0000383000Y0000217000D01*
X0000406500Y0000217000D01*
X0000407000Y0000217500D01*
X0000407000Y0000222600D01*
X0000407500Y0000223100D01*
X0000409500Y0000223100D01*
X0000410000Y0000222600D01*
X0000410000Y0000220000D01*
X0000410500Y0000219500D01*
X0000412500Y0000219500D01*
X0000413000Y0000220000D01*
X0000413000Y0000222600D01*
X0000413500Y0000223100D01*
X0000452592Y0000223100D01*
X0000453192Y0000222500D01*
X0000453192Y0000221100D01*
X0000453792Y0000220500D01*
X0000456500Y0000220500D01*
X0000457000Y0000221000D01*
X0000457000Y0000222600D01*
X0000457500Y0000223100D01*
X0000460600Y0000223100D01*
X0000462000Y0000224500D01*
X0000462000Y0000226399D01*
X0000459399Y0000229000D01*
X0000450224Y0000229000D01*
X0000449724Y0000229500D01*
X0000449724Y0000230925D01*
G01X0000338071Y0000212126D02*
X0000339670Y0000213725D01*
X0000350725Y0000213725D01*
X0000358900Y0000221900D01*
X0000361100Y0000221900D01*
X0000362000Y0000221000D01*
X0000362000Y0000216000D01*
X0000362500Y0000215500D01*
X0000374500Y0000215500D01*
X0000377000Y0000213000D01*
X0000395500Y0000213000D01*
X0000396000Y0000212500D01*
X0000396000Y0000209000D01*
X0000396500Y0000208500D01*
X0000398860Y0000208500D01*
X0000399360Y0000209000D01*
X0000399360Y0000213500D01*
X0000399860Y0000214000D01*
X0000402000Y0000214000D01*
X0000402500Y0000213500D01*
X0000402500Y0000209000D01*
X0000403000Y0000208500D01*
X0000411000Y0000208500D01*
X0000411500Y0000209000D01*
X0000411500Y0000210500D01*
X0000412000Y0000211000D01*
X0000414000Y0000211000D01*
X0000414500Y0000210500D01*
X0000414500Y0000209000D01*
X0000415000Y0000208500D01*
X0000417000Y0000208500D01*
X0000417500Y0000209000D01*
X0000417500Y0000217000D01*
X0000418000Y0000217500D01*
X0000461000Y0000217500D01*
X0000468000Y0000224500D01*
X0000468000Y0000228500D01*
X0000467125Y0000229375D01*
X0000463872Y0000229375D01*
X0000462322Y0000230925D01*
G01X0000341221Y0000231024D02*
X0000342271Y0000231024D01*
X0000342771Y0000231524D01*
X0000342771Y0000234771D01*
X0000344700Y0000236700D01*
X0000365500Y0000236700D01*
X0000366000Y0000237200D01*
X0000366000Y0000241302D01*
X0000366598Y0000241900D01*
X0000368500Y0000241900D01*
X0000369000Y0000241400D01*
X0000369000Y0000235000D01*
X0000369500Y0000234500D01*
X0000371000Y0000234500D01*
X0000371500Y0000235000D01*
X0000371500Y0000241400D01*
X0000372000Y0000241900D01*
X0000474600Y0000241900D01*
X0000481218Y0000235282D01*
X0000481218Y0000234075D01*
G01X0000338071Y0000221575D02*
X0000337000Y0000221575D01*
X0000336500Y0000221075D01*
X0000336500Y0000219500D01*
X0000337000Y0000219000D01*
X0000348500Y0000219000D01*
X0000357700Y0000228200D01*
X0000362800Y0000228200D01*
X0000367000Y0000224000D01*
X0000376000Y0000224000D01*
X0000379000Y0000227000D01*
X0000383500Y0000227000D01*
X0000384000Y0000226500D01*
X0000384000Y0000219000D01*
X0000384500Y0000218500D01*
X0000386000Y0000218500D01*
X0000386500Y0000219000D01*
X0000386500Y0000226500D01*
X0000387000Y0000227000D01*
X0000388500Y0000227000D01*
X0000389000Y0000226500D01*
X0000389000Y0000219000D01*
X0000389500Y0000218500D01*
X0000405000Y0000218500D01*
X0000405500Y0000219000D01*
X0000405500Y0000224000D01*
X0000406000Y0000224500D01*
X0000459000Y0000224500D01*
X0000459500Y0000225000D01*
X0000459500Y0000227000D01*
X0000459000Y0000227500D01*
X0000448500Y0000227500D01*
X0000448000Y0000228000D01*
X0000448000Y0000231975D01*
X0000448500Y0000232475D01*
X0000450367Y0000232475D01*
X0000451917Y0000230925D01*
X0000452873Y0000230925D01*
G01X0000255000Y0000150000D02*
X0000261500Y0000156500D01*
X0000279000Y0000156500D01*
X0000292377Y0000169877D01*
X0000292377Y0000190722D01*
X0000291299Y0000191800D01*
X0000282700Y0000191800D01*
X0000276523Y0000197977D01*
X0000273479Y0000197977D01*
X0000271929Y0000199527D01*
G01X0000484367Y0000234075D02*
X0000475342Y0000243100D01*
X0000366100Y0000243100D01*
X0000361000Y0000238000D01*
X0000344091Y0000238000D01*
X0000341864Y0000235773D01*
X0000339671Y0000235773D01*
X0000338071Y0000234173D01*
G54D16*
X0000010000Y0000152500D03*
X0000010000Y0000142500D03*
X0000020000Y0000152500D03*
X0000020000Y0000142500D03*
X0000010000Y0000092500D03*
X0000020000Y0000102500D03*
X0000010000Y0000102500D03*
X0000020000Y0000112500D03*
X0000010000Y0000112500D03*
X0000020000Y0000122500D03*
X0000010000Y0000122500D03*
X0000020000Y0000132500D03*
X0000010000Y0000132500D03*
X0000010000Y0000252500D03*
X0000020000Y0000262500D03*
X0000010000Y0000262500D03*
X0000020000Y0000272500D03*
X0000010000Y0000272500D03*
X0000020000Y0000282500D03*
X0000010000Y0000282500D03*
X0000020000Y0000292500D03*
X0000010000Y0000292500D03*
G54D26*
G01X0000285000Y0000291500D02*
X0000285459Y0000291500D01*
X0000285483Y0000291480D01*
X0000286325Y0000290638D01*
X0000286325Y0000286325D01*
X0000283175Y0000283175D01*
X0000233175Y0000283175D01*
X0000208000Y0000258000D01*
X0000123000Y0000258000D01*
X0000106825Y0000241825D01*
X0000106825Y0000139825D01*
X0000098350Y0000131350D01*
X0000092450Y0000131350D01*
X0000090300Y0000133500D01*
G01X0000090300Y0000130000D02*
X0000098910Y0000130000D01*
X0000108175Y0000139265D01*
X0000108175Y0000241265D01*
X0000123560Y0000256650D01*
X0000208560Y0000256650D01*
X0000233735Y0000281825D01*
X0000283735Y0000281825D01*
X0000287675Y0000285765D01*
X0000287675Y0000291175D01*
X0000288000Y0000291500D01*
G01X0000287677Y0000186929D02*
X0000287677Y0000187836D01*
X0000287213Y0000188300D01*
X0000286556Y0000188300D01*
X0000286092Y0000187836D01*
X0000286092Y0000186407D01*
X0000281500Y0000181815D01*
X0000281500Y0000168918D01*
X0000274582Y0000162000D01*
X0000234910Y0000162000D01*
X0000171350Y0000225560D01*
X0000171350Y0000233868D01*
X0000172482Y0000235000D01*
X0000173500Y0000235000D01*
G01X0000170000Y0000235100D02*
X0000170000Y0000225000D01*
X0000234350Y0000160650D01*
X0000275142Y0000160650D01*
X0000282850Y0000168358D01*
X0000282850Y0000181255D01*
X0000287049Y0000185454D01*
X0000289352Y0000185454D01*
X0000290827Y0000186929D01*
G54D17*
X0000020000Y0000092500D03*
X0000020000Y0000252500D03*
G54D18*
X0000239500Y0000303500D03*
X0000147500Y0000330300D03*
X0000200500Y0000346500D03*
X0000145500Y0000303500D03*
X0000227000Y0000303500D03*
X0000242500Y0000303500D03*
X0000204000Y0000296000D03*
X0000168500Y0000346500D03*
X0000234900Y0000330400D03*
X0000230000Y0000303500D03*
X0000148500Y0000303500D03*
X0000231900Y0000330400D03*
X0000204000Y0000299000D03*
X0000203500Y0000346500D03*
X0000165500Y0000303500D03*
X0000144500Y0000330300D03*
X0000165500Y0000346500D03*
X0000158500Y0000330300D03*
X0000168500Y0000303500D03*
X0000155500Y0000330300D03*
X0000285000Y0000291500D03*
X0000288000Y0000291500D03*
X0000261900Y0000330300D03*
X0000264000Y0000303500D03*
X0000302500Y0000148500D03*
X0000400500Y0000302000D03*
X0000400500Y0000299000D03*
X0000390000Y0000300500D03*
X0000387000Y0000300500D03*
X0000332500Y0000148500D03*
X0000305500Y0000148500D03*
X0000329500Y0000148500D03*
X0000261000Y0000303500D03*
X0000299500Y0000148500D03*
X0000308500Y0000148500D03*
X0000320500Y0000148500D03*
X0000264900Y0000330300D03*
X0000317500Y0000148500D03*
G54D19*
X0000287539Y0000039980D03*
X0000337461Y0000039980D03*
X0000337461Y0000027500D03*
X0000300020Y0000027500D03*
X0000433476Y0000056508D03*
X0000461508Y0000056508D03*
X0000287539Y0000102500D03*
X0000300020Y0000102500D03*
X0000312500Y0000102500D03*
X0000324980Y0000102500D03*
X0000337461Y0000102500D03*
X0000337461Y0000077500D03*
X0000433484Y0000113760D03*
X0000433484Y0000151240D03*
X0000447500Y0000151240D03*
X0000461516Y0000113760D03*
X0000433476Y0000093988D03*
X0000447492Y0000093988D03*
M02*
