G04 ================== begin FILE IDENTIFICATION RECORD ==================*
G04 Layout Name:  D:/wangmin/2011/MAY/DSPDB/pcb/FINAL/dspdb.brd*
G04 Film Name:    art08*
G04 File Format:  Gerber RS274X*
G04 File Origin:  15.51-s011*
G04 Origin Date:  Mon Jul 04 18:33:07 2011*
G04 ================== end FILE IDENTIFICATION RECORD ====================*
%FSAX55Y55*MOIN*%
%IR0*IPPOS*OFA0.00000B0.00000*MIA0B0*SFA1.00000B1.00000*%
%ADD22C,.02*%
%ADD18C,.011*%
%ADD14C,.04*%
%ADD13C,.022*%
%ADD11C,.06*%
%ADD21C,.016*%
%ADD16C,.062*%
%ADD19C,.09*%
%ADD15C,.036*%
%ADD12R,.06X.06*%
%ADD17R,.062X.062*%
%ADD20R,.09X.09*%
%ADD10C,.22*%
%ADD23C,.021*%
%ADD24C,.015*%
%ADD25C,.005*%
%ADD26C,.006*%
%ADD27C,.0045*%
%ADD30C,.04204*%
%ADD28C,.06004*%
%ADD29C,.02504*%
%ADD35C,.08004*%
%ADD36C,.03604*%
%ADD33R,.11002X.11004*%
%ADD31R,.11004X.11004*%
%ADD32C,.11004*%
%ADD34R,.08004X.08004*%
G75*
%LPD*%
G75*
G36*
G01X0000065000Y0000007500D02*
X0000025000Y0000047500D01*
X0000025000Y0000182500D01*
X0000027500Y0000185000D01*
X0000027500Y0000219500D01*
X0000025000Y0000222000D01*
X0000025000Y0000302500D01*
X0000067500Y0000345000D01*
X0000127500Y0000345000D01*
X0000129000Y0000343500D01*
X0000129000Y0000329000D01*
X0000132000Y0000326000D01*
X0000138500Y0000326000D01*
X0000140000Y0000324500D01*
X0000140000Y0000287500D01*
X0000137500Y0000285000D01*
X0000070000Y0000285000D01*
X0000050000Y0000265000D01*
X0000050000Y0000264684D01*
X0000049748Y0000264433D01*
X0000049748Y0000208067D01*
X0000050000Y0000207816D01*
X0000050000Y0000195000D01*
X0000047500Y0000192500D01*
X0000047500Y0000172500D01*
X0000082500Y0000137500D01*
X0000082500Y0000131852D01*
X0000082404Y0000131794D01*
G03X0000084280Y0000128048I0000001095J-0000001794D01*
G01X0000084403Y0000128097D01*
X0000085000Y0000127500D01*
X0000112500Y0000127500D01*
X0000138508Y0000101492D01*
X0000138390Y0000101352D01*
G03X0000141352Y0000098390I0000001610J-0000001352D01*
G01X0000141492Y0000098508D01*
X0000145098Y0000094902D01*
X0000145098Y0000094550D01*
X0000169550Y0000070098D01*
X0000169902Y0000070098D01*
X0000170000Y0000070000D01*
X0000217890Y0000070000D01*
X0000217906Y0000069817D01*
G03X0000222094Y0000069817I0000002094J0000000183D01*
G01X0000222110Y0000070000D01*
X0000250000Y0000070000D01*
X0000277500Y0000097500D01*
X0000285243Y0000097500D01*
X0000285282Y0000097482D01*
G03X0000289796Y0000097482I0000002257J0000005018D01*
G01X0000289835Y0000097500D01*
X0000297724Y0000097500D01*
X0000297763Y0000097482D01*
G03X0000302277Y0000097482I0000002257J0000005018D01*
G01X0000302316Y0000097500D01*
X0000310204Y0000097500D01*
X0000310243Y0000097482D01*
G03X0000314757Y0000097482I0000002257J0000005018D01*
G01X0000314796Y0000097500D01*
X0000322684Y0000097500D01*
X0000322723Y0000097482D01*
G03X0000327237Y0000097482I0000002257J0000005018D01*
G01X0000327276Y0000097500D01*
X0000335165Y0000097500D01*
X0000335204Y0000097482D01*
G03X0000339718Y0000097482I0000002257J0000005018D01*
G01X0000339757Y0000097500D01*
X0000340000Y0000097500D01*
X0000340268Y0000097768D01*
X0000340289Y0000097780D01*
G03X0000342181Y0000099672I-0000002828J0000004720D01*
G01X0000342193Y0000099693D01*
X0000342269Y0000099769D01*
G02X0000342943Y0000099568I0000000283J-0000000283D01*
G03X0000343596Y0000101564I0000002057J0000000432D01*
G02X0000342931Y0000101905I-0000000267J0000000298D01*
G03X0000342931Y0000103095I-0000005470J0000000595D01*
G02X0000343596Y0000103436I0000000398J0000000043D01*
G03X0000343236Y0000106143I0000001404J0000001564D01*
G02X0000342500Y0000106360I-0000000336J0000000217D01*
G01X0000342500Y0000108640D01*
G02X0000343236Y0000108857I0000000400J0D01*
G03X0000343236Y0000111143I0000001764J0000001143D01*
G02X0000342500Y0000111360I-0000000336J0000000217D01*
G01X0000342500Y0000113640D01*
G02X0000343236Y0000113857I0000000400J0D01*
G03X0000343236Y0000116143I0000001764J0000001143D01*
G02X0000342500Y0000116360I-0000000336J0000000217D01*
G01X0000342500Y0000118640D01*
G02X0000343236Y0000118857I0000000400J0D01*
G03X0000343236Y0000121143I0000001764J0000001143D01*
G02X0000342500Y0000121360I-0000000336J0000000217D01*
G01X0000342500Y0000130148D01*
X0000343226Y0000130875D01*
X0000343226Y0000142909D01*
G02X0000343846Y0000143243I0000000400J0D01*
G03X0000343530Y0000146502I0000001154J0000001757D01*
G02X0000342970Y0000146502I-0000000280J0000000286D01*
G03X0000342596Y0000146794I-0000001472J-0000001500D01*
G01X0000342500Y0000146852D01*
X0000342500Y0000147500D01*
X0000346748Y0000151748D01*
X0000366567Y0000151748D01*
X0000370545Y0000147771D01*
G02X0000370220Y0000147090I-0000000283J-0000000283D01*
G03X0000372090Y0000145220I-0000000220J-0000002090D01*
G02X0000372771Y0000145545I0000000398J0000000042D01*
G01X0000375248Y0000143067D01*
X0000375248Y0000061567D01*
X0000386567Y0000050248D01*
X0000396567Y0000050248D01*
X0000398408Y0000048408D01*
G03X0000401592Y0000051592I0000001592J0000001592D01*
G01X0000398433Y0000054752D01*
X0000388433Y0000054752D01*
X0000379752Y0000063433D01*
X0000379751Y0000137503D01*
G02X0000380127Y0000137902I0000000400J0D01*
G03X0000380127Y0000142098I-0000000128J0000002098D01*
G02X0000379752Y0000142497I0000000025J0000000399D01*
G01X0000379752Y0000144933D01*
X0000370118Y0000154566D01*
G02X0000370401Y0000155248I0000000283J0000000282D01*
G01X0000372567Y0000155248D01*
X0000385043Y0000142773D01*
G02X0000384798Y0000142092I-0000000283J-0000000283D01*
G03X0000387092Y0000139798I0000000202J-0000002092D01*
G02X0000387773Y0000140043I0000000398J-0000000038D01*
G01X0000392717Y0000135098D01*
X0000395041Y0000135098D01*
X0000397748Y0000132391D01*
X0000397748Y0000094567D01*
X0000427067Y0000065248D01*
X0000461567Y0000065248D01*
X0000473408Y0000053408D01*
G03X0000476592Y0000056592I0000001592J0000001592D01*
G01X0000463433Y0000069752D01*
X0000428933Y0000069752D01*
X0000426071Y0000072613D01*
G02X0000426137Y0000073232I0000000283J0000000283D01*
G03X0000423232Y0000076137I-0000001137J0000001768D01*
G02X0000422613Y0000076071I-0000000336J0000000217D01*
G01X0000402252Y0000096433D01*
X0000402252Y0000134257D01*
X0000396907Y0000139602D01*
X0000394583Y0000139602D01*
X0000374433Y0000159752D01*
X0000355717Y0000159752D01*
G02X0000355434Y0000160434I0J0000000400D01*
G01X0000357500Y0000162500D01*
X0000357500Y0000163640D01*
G02X0000358236Y0000163857I0000000400J0D01*
G03X0000358236Y0000166143I0000001764J0000001143D01*
G02X0000357500Y0000166360I-0000000336J0000000217D01*
G01X0000357500Y0000172500D01*
X0000360000Y0000175000D01*
X0000485000Y0000175000D01*
X0000490000Y0000180000D01*
X0000490000Y0000265000D01*
X0000485000Y0000270000D01*
X0000462500Y0000270000D01*
X0000445000Y0000287500D01*
X0000430875Y0000287500D01*
X0000430573Y0000287802D01*
X0000390254Y0000287802D01*
X0000389952Y0000287500D01*
X0000377500Y0000287500D01*
X0000375000Y0000290000D01*
X0000375000Y0000292500D01*
X0000377500Y0000295000D01*
X0000405000Y0000295000D01*
X0000407500Y0000297500D01*
X0000407500Y0000305000D01*
X0000405000Y0000307500D01*
X0000387500Y0000307500D01*
X0000385000Y0000310000D01*
X0000385000Y0000345000D01*
X0000387500Y0000347500D01*
X0000452500Y0000347500D01*
X0000505000Y0000295000D01*
X0000505000Y0000057500D01*
X0000469555Y0000022055D01*
X0000469501Y0000022042D01*
G03X0000467958Y0000020499I0000000499J-0000002042D01*
G01X0000467945Y0000020445D01*
X0000455000Y0000007500D01*
X0000065000Y0000007500D01*
G37*
G36*
G01X0000280500Y0000245000D02*
X0000276184Y0000249316D01*
X0000276235Y0000249440D01*
G03X0000275614Y0000251053I-0000001156J0000000481D01*
G01X0000275500Y0000251107D01*
X0000275500Y0000255500D01*
X0000272000Y0000259000D01*
X0000272000Y0000274352D01*
X0000272009Y0000274381D01*
G03X0000272058Y0000275430I-0000002009J0000000619D01*
G01X0000272036Y0000275536D01*
X0000273000Y0000276500D01*
X0000280000Y0000276500D01*
X0000283500Y0000273000D01*
X0000283500Y0000263238D01*
X0000283469Y0000263189D01*
G03X0000283469Y0000261851I0000001058J-0000000669D01*
G01X0000283500Y0000261802D01*
X0000283500Y0000260000D01*
X0000286945Y0000256555D01*
X0000286960Y0000256512D01*
G03X0000289014Y0000254458I0000003146J0000001092D01*
G01X0000289057Y0000254443D01*
X0000289760Y0000253740D01*
X0000289698Y0000253613D01*
G03X0000291432Y0000251975I0000001129J-0000000542D01*
G01X0000291477Y0000252000D01*
X0000293326Y0000252000D01*
X0000293371Y0000251975D01*
G03X0000294581Y0000251975I0000000605J0000001096D01*
G01X0000294626Y0000252000D01*
X0000299625Y0000252000D01*
X0000299670Y0000251975D01*
G03X0000300880Y0000251975I0000000605J0000001096D01*
G01X0000300925Y0000252000D01*
X0000302500Y0000252000D01*
X0000305500Y0000255000D01*
X0000306297Y0000255000D01*
X0000306318Y0000254996D01*
G03X0000306832Y0000254996I0000000257J0000001225D01*
G01X0000306853Y0000255000D01*
X0000312593Y0000255000D01*
X0000312614Y0000254996D01*
G03X0000313136Y0000254996I0000000261J0000001224D01*
G01X0000313157Y0000255000D01*
X0000315746Y0000255000D01*
X0000315767Y0000254996D01*
G03X0000316281Y0000254996I0000000257J0000001225D01*
G01X0000316302Y0000255000D01*
X0000316500Y0000255000D01*
X0000317500Y0000254000D01*
X0000317500Y0000251174D01*
G02X0000316839Y0000250871I-0000000400J0D01*
G03X0000316839Y0000248971I-0000000815J-0000000950D01*
G02X0000317500Y0000248668I0000000261J-0000000303D01*
G01X0000317500Y0000246000D01*
X0000316500Y0000245000D01*
X0000280500Y0000245000D01*
G37*
G36*
G01X0000300500Y0000161500D02*
X0000289000Y0000173000D01*
X0000289000Y0000191000D01*
X0000290000Y0000192000D01*
X0000326000Y0000192000D01*
X0000327454Y0000190546D01*
X0000327421Y0000190432D01*
G03X0000327482Y0000189561I0000001201J-0000000354D01*
G01X0000327500Y0000189522D01*
X0000327500Y0000187486D01*
X0000327482Y0000187447D01*
G03X0000327482Y0000186411I0000001140J-0000000518D01*
G01X0000327500Y0000186372D01*
X0000327500Y0000184336D01*
X0000327482Y0000184297D01*
G03X0000327482Y0000183261I0000001140J-0000000518D01*
G01X0000327500Y0000183222D01*
X0000327500Y0000181187D01*
X0000327482Y0000181148D01*
G03X0000327482Y0000180112I0000001140J-0000000518D01*
G01X0000327500Y0000180073D01*
X0000327500Y0000172000D01*
X0000332000Y0000167500D01*
X0000352000Y0000167500D01*
X0000353000Y0000166500D01*
X0000353000Y0000165648D01*
X0000352991Y0000165619D01*
G03X0000352991Y0000164381I0000002009J-0000000619D01*
G01X0000353000Y0000164352D01*
X0000353000Y0000162500D01*
X0000352000Y0000161500D01*
X0000300500Y0000161500D01*
G37*
%LPC*%
G75*
G36*
G01X0000095500Y0000062500D02*
X0000069500Y0000062500D01*
X0000067500Y0000064500D01*
X0000067500Y0000098640D01*
G03X0000066764Y0000098857I-0000000400J0D01*
G02X0000066764Y0000101143I-0000001764J0000001143D01*
G03X0000067500Y0000101360I0000000336J0000000217D01*
G01X0000067500Y0000105000D01*
X0000069000Y0000106500D01*
X0000093500Y0000106500D01*
X0000097500Y0000102500D01*
X0000097500Y0000064500D01*
X0000095500Y0000062500D01*
G37*
G36*
G01X0000143500Y0000058500D02*
X0000118500Y0000058500D01*
X0000108000Y0000069000D01*
X0000108000Y0000078000D01*
X0000111500Y0000081500D01*
X0000138000Y0000081500D01*
X0000146500Y0000073000D01*
X0000146500Y0000061500D01*
X0000143500Y0000058500D01*
G37*
G36*
G01X0000193844Y0000012605D02*
G02X0000192403Y0000015576I-0000004001J-0000000105D01*
G03X0000193033Y0000015742I0000000256J0000000307D01*
G02X0000194364Y0000012996I0000001967J-0000000742D01*
G03X0000193844Y0000012605I-0000000121J-0000000381D01*
G37*
G54D30*
X0000040000Y0000272500D03*
X0000040000Y0000262500D03*
X0000037500Y0000225000D03*
X0000037500Y0000194800D03*
X0000045000Y0000167500D03*
X0000365000Y0000165000D03*
X0000490000Y0000160000D03*
X0000485000Y0000160000D03*
X0000480000Y0000160000D03*
X0000475000Y0000160000D03*
X0000470000Y0000160000D03*
X0000465000Y0000160000D03*
X0000460000Y0000160000D03*
X0000435000Y0000160000D03*
X0000430000Y0000160000D03*
X0000425000Y0000160000D03*
X0000490000Y0000155000D03*
X0000470000Y0000155000D03*
X0000425000Y0000155000D03*
X0000040000Y0000152500D03*
X0000490000Y0000150000D03*
X0000470000Y0000150000D03*
X0000425000Y0000150000D03*
X0000045000Y0000150000D03*
X0000040000Y0000147500D03*
X0000425000Y0000145000D03*
X0000365000Y0000145000D03*
X0000360000Y0000145000D03*
X0000355000Y0000145000D03*
X0000350000Y0000145000D03*
X0000435000Y0000140000D03*
X0000430000Y0000140000D03*
X0000425000Y0000140000D03*
X0000040000Y0000137500D03*
X0000435000Y0000135000D03*
X0000430000Y0000135000D03*
X0000425000Y0000135000D03*
X0000435000Y0000130000D03*
X0000430000Y0000130000D03*
X0000425000Y0000130000D03*
X0000040000Y0000122500D03*
X0000360000Y0000120000D03*
X0000355000Y0000120000D03*
X0000350000Y0000120000D03*
X0000095000Y0000120000D03*
X0000350000Y0000115000D03*
X0000105000Y0000115000D03*
X0000040000Y0000112500D03*
X0000435000Y0000105000D03*
X0000430000Y0000105000D03*
X0000425000Y0000105000D03*
X0000040000Y0000102500D03*
X0000490000Y0000100000D03*
X0000485000Y0000100000D03*
X0000480000Y0000100000D03*
X0000475000Y0000100000D03*
X0000470000Y0000100000D03*
X0000425000Y0000100000D03*
X0000135000Y0000100000D03*
X0000130000Y0000100000D03*
X0000105000Y0000100000D03*
X0000060000Y0000100000D03*
X0000055000Y0000100000D03*
X0000040000Y0000097500D03*
X0000490000Y0000095000D03*
X0000470000Y0000095000D03*
X0000425000Y0000095000D03*
X0000105000Y0000095000D03*
X0000060000Y0000095000D03*
X0000055000Y0000095000D03*
X0000045000Y0000095000D03*
X0000040000Y0000092500D03*
X0000490000Y0000090000D03*
X0000470000Y0000090000D03*
X0000425000Y0000090000D03*
X0000275000Y0000090000D03*
X0000135000Y0000090000D03*
X0000120000Y0000090000D03*
X0000115000Y0000090000D03*
X0000055000Y0000090000D03*
X0000435000Y0000085000D03*
X0000430000Y0000085000D03*
X0000425000Y0000085000D03*
X0000105000Y0000085000D03*
X0000060000Y0000085000D03*
X0000055000Y0000085000D03*
X0000045000Y0000085000D03*
X0000435000Y0000080000D03*
X0000430000Y0000080000D03*
X0000425000Y0000080000D03*
X0000275000Y0000080000D03*
X0000055000Y0000080000D03*
X0000435000Y0000075000D03*
X0000430000Y0000075000D03*
X0000275000Y0000075000D03*
X0000155000Y0000075000D03*
X0000150000Y0000075000D03*
X0000060000Y0000075000D03*
X0000055000Y0000075000D03*
X0000045000Y0000075000D03*
X0000160000Y0000070000D03*
X0000155000Y0000070000D03*
X0000220000Y0000065000D03*
X0000490000Y0000060000D03*
X0000220000Y0000060000D03*
X0000175000Y0000060000D03*
X0000220000Y0000055000D03*
X0000180000Y0000055000D03*
X0000175000Y0000055000D03*
X0000490000Y0000050000D03*
X0000220000Y0000050000D03*
X0000180000Y0000050000D03*
X0000175000Y0000050000D03*
X0000160000Y0000050000D03*
X0000140000Y0000050000D03*
X0000120000Y0000050000D03*
X0000115000Y0000050000D03*
X0000460000Y0000045000D03*
X0000455000Y0000045000D03*
X0000450000Y0000045000D03*
X0000445000Y0000045000D03*
X0000440000Y0000045000D03*
X0000435000Y0000045000D03*
X0000430000Y0000045000D03*
X0000425000Y0000045000D03*
X0000220000Y0000045000D03*
X0000180000Y0000045000D03*
X0000175000Y0000045000D03*
X0000455000Y0000040000D03*
X0000440000Y0000040000D03*
X0000435000Y0000040000D03*
X0000245000Y0000040000D03*
X0000180000Y0000040000D03*
X0000175000Y0000040000D03*
X0000410000Y0000037500D03*
X0000455000Y0000035000D03*
X0000440000Y0000035000D03*
X0000435000Y0000035000D03*
X0000420000Y0000035000D03*
X0000245000Y0000035000D03*
X0000100000Y0000035000D03*
X0000180000Y0000032500D03*
X0000175000Y0000032500D03*
X0000455000Y0000030000D03*
X0000440000Y0000030000D03*
X0000435000Y0000030000D03*
X0000420000Y0000030000D03*
X0000250000Y0000030000D03*
X0000245000Y0000030000D03*
X0000190000Y0000030000D03*
X0000185000Y0000030000D03*
X0000060000Y0000030000D03*
X0000455000Y0000025000D03*
X0000420000Y0000025000D03*
X0000400000Y0000025000D03*
X0000250000Y0000025000D03*
X0000245000Y0000025000D03*
X0000195000Y0000025000D03*
X0000190000Y0000025000D03*
X0000185000Y0000025000D03*
X0000250000Y0000020000D03*
X0000245000Y0000020000D03*
X0000195000Y0000020000D03*
X0000190000Y0000020000D03*
X0000185000Y0000020000D03*
X0000321000Y0000172900D03*
X0000310000Y0000170000D03*
X0000321000Y0000167500D03*
G54D28*
X0000416102Y0000330000D03*
X0000408228Y0000330000D03*
X0000400354Y0000330000D03*
X0000392480Y0000330000D03*
X0000119330Y0000330000D03*
X0000111456Y0000330000D03*
X0000103582Y0000330000D03*
X0000095708Y0000330000D03*
X0000416102Y0000320000D03*
X0000408228Y0000320000D03*
X0000400354Y0000320000D03*
X0000392480Y0000320000D03*
X0000119330Y0000320000D03*
X0000111456Y0000320000D03*
X0000103582Y0000320000D03*
X0000095708Y0000320000D03*
G54D29*
X0000459173Y0000279173D03*
X0000278228Y0000262520D03*
X0000275079Y0000262520D03*
X0000275079Y0000259370D03*
X0000284527Y0000256221D03*
X0000281378Y0000256221D03*
X0000278228Y0000256220D03*
X0000312874Y0000253071D03*
X0000309725Y0000253071D03*
X0000306575Y0000253071D03*
X0000287677Y0000253071D03*
X0000284527Y0000253071D03*
X0000281378Y0000253071D03*
X0000312874Y0000249921D03*
X0000306575Y0000249921D03*
X0000297126Y0000249921D03*
X0000290827Y0000249921D03*
X0000287677Y0000249921D03*
X0000284527Y0000249921D03*
X0000281378Y0000249921D03*
X0000278228Y0000249921D03*
X0000300275Y0000246771D03*
X0000322323Y0000190079D03*
X0000319173Y0000190079D03*
X0000312874Y0000190079D03*
X0000309725Y0000190079D03*
X0000300275Y0000190079D03*
X0000297126Y0000190079D03*
X0000290827Y0000190079D03*
X0000325473Y0000186929D03*
X0000322323Y0000186929D03*
X0000319173Y0000186929D03*
X0000312874Y0000186929D03*
X0000309725Y0000186929D03*
X0000300275Y0000186929D03*
X0000297126Y0000186929D03*
X0000293976Y0000186929D03*
X0000290827Y0000186929D03*
X0000322323Y0000183779D03*
X0000319173Y0000183779D03*
X0000316024Y0000183779D03*
X0000312874Y0000183779D03*
X0000309725Y0000183779D03*
X0000306575Y0000183779D03*
X0000300275Y0000183779D03*
X0000297126Y0000183779D03*
X0000293976Y0000183779D03*
X0000290827Y0000183779D03*
X0000316024Y0000180630D03*
X0000312874Y0000180630D03*
X0000306575Y0000180630D03*
X0000300275Y0000180630D03*
X0000297126Y0000180630D03*
X0000290827Y0000180630D03*
X0000322323Y0000177480D03*
X0000309725Y0000177480D03*
X0000306575Y0000177480D03*
X0000300275Y0000177480D03*
G54D35*
X0000152343Y0000012500D03*
G54D36*
X0000300000Y0000172000D03*
G54D33*
X0000287539Y0000027500D03*
G54D31*
X0000461516Y0000151240D03*
X0000461508Y0000093988D03*
G54D32*
X0000447500Y0000151240D03*
X0000433484Y0000151240D03*
X0000461516Y0000113760D03*
X0000433484Y0000113760D03*
X0000447492Y0000093988D03*
X0000433476Y0000093988D03*
X0000337461Y0000077500D03*
X0000461508Y0000056508D03*
X0000433476Y0000056508D03*
X0000337461Y0000039980D03*
X0000287539Y0000039980D03*
X0000337461Y0000027500D03*
X0000300020Y0000027500D03*
G54D34*
X0000180000Y0000012500D03*
X0000142500Y0000012500D03*
%LPD*%
G75*
G36*
G01X0000073500Y0000067000D02*
X0000072000Y0000068500D01*
X0000072000Y0000069352D01*
X0000072009Y0000069381D01*
G03X0000072009Y0000070619I-0000002009J0000000619D01*
G01X0000072000Y0000070648D01*
X0000072000Y0000079352D01*
X0000072009Y0000079381D01*
G03X0000072009Y0000080619I-0000002009J0000000619D01*
G01X0000072000Y0000080648D01*
X0000072000Y0000089352D01*
X0000072009Y0000089381D01*
G03X0000072009Y0000090619I-0000002009J0000000619D01*
G01X0000072000Y0000090648D01*
X0000072000Y0000099352D01*
X0000072009Y0000099381D01*
G03X0000072058Y0000100430I-0000002009J0000000619D01*
G01X0000072036Y0000100536D01*
X0000074000Y0000102500D01*
X0000092000Y0000102500D01*
X0000093500Y0000101000D01*
X0000093500Y0000071475D01*
X0000093448Y0000071417D01*
G03X0000093390Y0000068648I0000001552J-0000001418D01*
G01X0000093508Y0000068508D01*
X0000092000Y0000067000D01*
X0000090648Y0000067000D01*
X0000090619Y0000067009D01*
G03X0000089381Y0000067009I-0000000619J-0000002009D01*
G01X0000089352Y0000067000D01*
X0000073500Y0000067000D01*
G37*
G36*
G01X0000124500Y0000062000D02*
X0000123500Y0000063000D01*
X0000123500Y0000067000D01*
X0000124500Y0000068000D01*
X0000135000Y0000068000D01*
X0000137498Y0000070498D01*
X0000137622Y0000070498D01*
X0000139123Y0000072000D01*
X0000142000Y0000072000D01*
X0000143000Y0000071000D01*
X0000143000Y0000063000D01*
X0000142000Y0000062000D01*
X0000124500Y0000062000D01*
G37*
G36*
G01X0000113000Y0000072000D02*
X0000112000Y0000073000D01*
X0000112000Y0000077000D01*
X0000113000Y0000078000D01*
X0000137000Y0000078000D01*
X0000138000Y0000077000D01*
X0000138000Y0000075648D01*
X0000137991Y0000075619D01*
G03X0000137991Y0000074381I0000002009J-0000000619D01*
G01X0000138000Y0000074352D01*
X0000138000Y0000073000D01*
X0000137000Y0000072000D01*
X0000113000Y0000072000D01*
G37*
%LPC*%
G75*
G54D30*
X0000080000Y0000090000D03*
X0000075000Y0000085000D03*
X0000090000Y0000080000D03*
X0000080000Y0000080000D03*
X0000090000Y0000075000D03*
X0000087500Y0000070000D03*
X0000080000Y0000070000D03*
X0000140000Y0000065000D03*
X0000130000Y0000065000D03*
X0000130000Y0000075000D03*
%LPD*%
G75*
G54D10*
X0000017500Y0000017500D03*
X0000017500Y0000336831D03*
X0000494311Y0000017500D03*
X0000494311Y0000336831D03*
G54D20*
X0000287539Y0000027500D03*
X0000461516Y0000151240D03*
X0000461508Y0000093988D03*
G54D11*
X0000152343Y0000012500D03*
X0000189843Y0000012500D03*
X0000245000Y0000145000D03*
X0000168500Y0000107000D03*
X0000168500Y0000097000D03*
X0000207500Y0000080000D03*
X0000257500Y0000145000D03*
G54D12*
X0000142500Y0000012500D03*
X0000180000Y0000012500D03*
G54D21*
X0000271929Y0000193228D03*
X0000300275Y0000256221D03*
X0000325473Y0000262520D03*
X0000268779Y0000193228D03*
X0000338071Y0000262520D03*
X0000268779Y0000196378D03*
X0000293976Y0000256221D03*
X0000322323Y0000256221D03*
X0000322323Y0000259370D03*
X0000325473Y0000256221D03*
X0000278228Y0000183779D03*
X0000268779Y0000208976D03*
X0000271929Y0000196378D03*
X0000268779Y0000205827D03*
X0000331772Y0000256221D03*
X0000322323Y0000253071D03*
X0000328622Y0000253071D03*
X0000268779Y0000199527D03*
X0000290827Y0000256221D03*
X0000331772Y0000262520D03*
X0000474920Y0000201575D03*
X0000474920Y0000234075D03*
X0000474920Y0000266575D03*
X0000338071Y0000231024D03*
X0000328622Y0000259370D03*
X0000478069Y0000201575D03*
X0000478069Y0000234075D03*
X0000478069Y0000266575D03*
X0000347520Y0000231024D03*
X0000328622Y0000262520D03*
X0000468621Y0000266575D03*
X0000468621Y0000234075D03*
X0000468621Y0000201575D03*
X0000344370Y0000231024D03*
X0000325473Y0000259370D03*
X0000471771Y0000201575D03*
X0000471771Y0000234075D03*
X0000471771Y0000266575D03*
X0000344370Y0000227874D03*
X0000262480Y0000240473D03*
X0000331772Y0000259370D03*
X0000462322Y0000266575D03*
X0000462322Y0000234075D03*
X0000462322Y0000201575D03*
X0000338071Y0000227874D03*
X0000468621Y0000198425D03*
X0000468621Y0000230925D03*
X0000468621Y0000263425D03*
X0000347520Y0000224725D03*
X0000319173Y0000262520D03*
X0000297126Y0000256221D03*
X0000465471Y0000198425D03*
X0000465471Y0000230925D03*
X0000465471Y0000263425D03*
X0000341221Y0000224725D03*
X0000284527Y0000256221D03*
X0000316024Y0000259370D03*
X0000316024Y0000249921D03*
X0000300275Y0000259370D03*
X0000287677Y0000249921D03*
X0000300275Y0000246771D03*
X0000341221Y0000259370D03*
X0000440275Y0000276024D03*
X0000341221Y0000221575D03*
X0000474920Y0000263425D03*
X0000474920Y0000230925D03*
X0000474920Y0000198425D03*
X0000309725Y0000237323D03*
X0000309724Y0000231024D03*
X0000306575Y0000234173D03*
X0000300275Y0000237323D03*
X0000297126Y0000234173D03*
X0000484367Y0000230925D03*
X0000484367Y0000263425D03*
X0000484367Y0000198425D03*
X0000351000Y0000212126D03*
X0000309725Y0000186929D03*
X0000322323Y0000186929D03*
X0000446575Y0000276024D03*
X0000358885Y0000217214D03*
X0000471771Y0000263425D03*
X0000471771Y0000230925D03*
X0000471771Y0000198425D03*
X0000481218Y0000263425D03*
X0000481218Y0000230925D03*
X0000481218Y0000198425D03*
X0000341221Y0000208976D03*
X0000319173Y0000190079D03*
X0000297126Y0000190079D03*
X0000309725Y0000190079D03*
X0000328622Y0000190079D03*
X0000478069Y0000263425D03*
X0000478069Y0000230925D03*
X0000478069Y0000198425D03*
X0000344370Y0000212126D03*
X0000425000Y0000220000D03*
X0000341221Y0000183779D03*
X0000443425Y0000250828D03*
X0000356500Y0000255000D03*
X0000300275Y0000249921D03*
X0000316024Y0000253071D03*
X0000309725Y0000249921D03*
X0000293976Y0000249921D03*
X0000312874Y0000208976D03*
X0000319173Y0000208976D03*
X0000309725Y0000202677D03*
X0000316024Y0000202677D03*
X0000322323Y0000202677D03*
X0000344370Y0000177480D03*
X0000293976Y0000190079D03*
X0000306575Y0000190079D03*
X0000316024Y0000190079D03*
X0000325473Y0000190079D03*
X0000309725Y0000180630D03*
X0000322323Y0000180630D03*
X0000293976Y0000177480D03*
X0000424527Y0000185827D03*
X0000355500Y0000184000D03*
X0000456023Y0000198425D03*
X0000456023Y0000230925D03*
X0000456023Y0000263425D03*
X0000338071Y0000208976D03*
X0000430827Y0000214173D03*
X0000344370Y0000183779D03*
X0000459172Y0000198425D03*
X0000459172Y0000230925D03*
X0000459172Y0000263425D03*
X0000341221Y0000215275D03*
X0000449724Y0000263425D03*
X0000449724Y0000230925D03*
X0000449724Y0000198425D03*
X0000334921Y0000215275D03*
X0000462322Y0000198425D03*
X0000462322Y0000230925D03*
X0000462322Y0000263425D03*
X0000338071Y0000212126D03*
X0000341221Y0000193228D03*
X0000437126Y0000279173D03*
X0000347520Y0000256221D03*
X0000465471Y0000266575D03*
X0000465471Y0000234075D03*
X0000465471Y0000201575D03*
X0000341221Y0000234173D03*
X0000430827Y0000279173D03*
X0000341221Y0000240473D03*
X0000481218Y0000201575D03*
X0000481218Y0000234075D03*
X0000481218Y0000266575D03*
X0000341221Y0000231024D03*
X0000459172Y0000266575D03*
X0000459172Y0000234075D03*
X0000459172Y0000201575D03*
X0000334921Y0000231024D03*
X0000427677Y0000211024D03*
X0000350600Y0000195000D03*
X0000456023Y0000266575D03*
X0000456023Y0000234075D03*
X0000456023Y0000201575D03*
X0000344370Y0000224725D03*
X0000452873Y0000201575D03*
X0000452873Y0000234075D03*
X0000452873Y0000266575D03*
X0000334921Y0000227874D03*
X0000338071Y0000221575D03*
X0000452873Y0000198425D03*
X0000452873Y0000230925D03*
X0000452873Y0000263425D03*
X0000437126Y0000214173D03*
X0000338071Y0000199527D03*
X0000440275Y0000214173D03*
X0000440275Y0000192126D03*
X0000440275Y0000185827D03*
X0000440275Y0000272874D03*
X0000440275Y0000257127D03*
X0000427677Y0000272874D03*
X0000446575Y0000279173D03*
X0000459173Y0000279173D03*
X0000421379Y0000279173D03*
X0000427677Y0000279173D03*
X0000446575Y0000250828D03*
X0000468622Y0000250827D03*
X0000427677Y0000257127D03*
X0000427677Y0000250827D03*
X0000440275Y0000250827D03*
X0000433976Y0000279173D03*
X0000433976Y0000250827D03*
X0000421379Y0000250827D03*
X0000440275Y0000279173D03*
X0000446575Y0000214173D03*
X0000433976Y0000214173D03*
X0000459173Y0000214173D03*
X0000421379Y0000214173D03*
X0000440275Y0000207874D03*
X0000427677Y0000207874D03*
X0000427677Y0000214173D03*
X0000427677Y0000185827D03*
X0000433976Y0000185827D03*
X0000427677Y0000192126D03*
X0000468622Y0000185827D03*
X0000446575Y0000185827D03*
X0000421379Y0000185827D03*
X0000341221Y0000212126D03*
X0000290827Y0000253071D03*
X0000287677Y0000253071D03*
X0000331772Y0000180630D03*
X0000297126Y0000180630D03*
X0000449725Y0000276024D03*
X0000319173Y0000183779D03*
X0000427677Y0000253977D03*
X0000341221Y0000246772D03*
X0000316024Y0000183779D03*
X0000300275Y0000180630D03*
X0000328622Y0000180630D03*
X0000438463Y0000248962D03*
X0000347520Y0000253071D03*
X0000300275Y0000183779D03*
X0000427677Y0000276024D03*
X0000338071Y0000246772D03*
X0000306575Y0000183779D03*
X0000271929Y0000199527D03*
X0000433976Y0000276024D03*
X0000341221Y0000256221D03*
X0000438000Y0000183500D03*
X0000341221Y0000196378D03*
X0000435000Y0000180000D03*
X0000338071Y0000202677D03*
X0000268779Y0000186929D03*
X0000309725Y0000253071D03*
X0000271929Y0000190079D03*
X0000312874Y0000253071D03*
X0000443425Y0000192126D03*
X0000354000Y0000195000D03*
X0000278228Y0000177480D03*
X0000421379Y0000211024D03*
X0000341221Y0000186929D03*
X0000338071Y0000249921D03*
X0000424527Y0000207874D03*
X0000344370Y0000186929D03*
X0000433976Y0000211024D03*
X0000341221Y0000199527D03*
X0000316024Y0000237323D03*
X0000319173Y0000234173D03*
X0000322323Y0000231024D03*
X0000316024Y0000227874D03*
X0000319173Y0000227874D03*
X0000306575Y0000227874D03*
X0000309725Y0000224725D03*
X0000319173Y0000221575D03*
X0000312874Y0000221575D03*
X0000306575Y0000221575D03*
X0000309725Y0000215275D03*
X0000316024Y0000215275D03*
X0000322323Y0000215275D03*
X0000306575Y0000212126D03*
X0000309725Y0000208976D03*
X0000322323Y0000208976D03*
X0000306575Y0000205827D03*
X0000287677Y0000237323D03*
X0000293976Y0000237323D03*
X0000287677Y0000231024D03*
X0000293976Y0000231024D03*
X0000300275Y0000231024D03*
X0000290827Y0000227874D03*
X0000297126Y0000227874D03*
X0000300275Y0000224725D03*
X0000290827Y0000221575D03*
X0000297126Y0000221575D03*
X0000300275Y0000215275D03*
X0000293976Y0000215275D03*
X0000287677Y0000215275D03*
X0000290827Y0000212126D03*
X0000300275Y0000208976D03*
X0000293976Y0000208976D03*
X0000290827Y0000205827D03*
X0000300275Y0000202677D03*
X0000293976Y0000202677D03*
X0000322323Y0000237323D03*
X0000278228Y0000249921D03*
X0000281378Y0000249921D03*
X0000360000Y0000240000D03*
X0000430827Y0000250827D03*
X0000351500Y0000240000D03*
X0000268779Y0000243622D03*
X0000437126Y0000207874D03*
X0000344370Y0000199527D03*
X0000443425Y0000185827D03*
X0000347520Y0000196378D03*
X0000341221Y0000249921D03*
X0000271929Y0000186929D03*
X0000349000Y0000188600D03*
X0000427677Y0000188976D03*
X0000331771Y0000243622D03*
X0000347520Y0000262520D03*
X0000334921Y0000262520D03*
X0000322323Y0000262520D03*
X0000347520Y0000249921D03*
X0000331771Y0000249921D03*
X0000328622Y0000249921D03*
X0000322323Y0000249921D03*
X0000347520Y0000234173D03*
X0000334921Y0000237323D03*
X0000331771Y0000231024D03*
X0000341221Y0000227874D03*
X0000334921Y0000224725D03*
X0000344370Y0000221575D03*
X0000331771Y0000215275D03*
X0000334921Y0000208976D03*
X0000344370Y0000208976D03*
X0000334921Y0000202677D03*
X0000331771Y0000196378D03*
X0000344370Y0000193228D03*
X0000331772Y0000193228D03*
X0000347520Y0000177480D03*
X0000262480Y0000262520D03*
X0000275079Y0000262520D03*
X0000262480Y0000249921D03*
X0000275079Y0000249921D03*
X0000275079Y0000243622D03*
X0000265630Y0000240473D03*
X0000275079Y0000237323D03*
X0000262480Y0000231024D03*
X0000275079Y0000231024D03*
X0000275079Y0000224725D03*
X0000265630Y0000221575D03*
X0000275079Y0000215275D03*
X0000275079Y0000208976D03*
X0000262480Y0000208976D03*
X0000275079Y0000202677D03*
X0000265630Y0000199527D03*
X0000275079Y0000196378D03*
X0000287677Y0000190079D03*
X0000281378Y0000190079D03*
X0000275079Y0000190079D03*
X0000262480Y0000190079D03*
X0000275079Y0000180630D03*
X0000284527Y0000180630D03*
X0000262480Y0000177480D03*
X0000443425Y0000214173D03*
X0000344370Y0000196378D03*
X0000338071Y0000193228D03*
X0000278228Y0000186929D03*
X0000449724Y0000211024D03*
X0000352500Y0000262500D03*
X0000443425Y0000272874D03*
X0000443425Y0000279173D03*
X0000344370Y0000253071D03*
X0000446575Y0000211024D03*
X0000421379Y0000276024D03*
X0000344370Y0000243622D03*
X0000265630Y0000215275D03*
X0000430827Y0000272874D03*
X0000344370Y0000246772D03*
X0000424527Y0000257127D03*
X0000338071Y0000240473D03*
X0000265630Y0000202677D03*
X0000426000Y0000248500D03*
X0000338071Y0000259370D03*
X0000424527Y0000272874D03*
X0000341221Y0000243622D03*
X0000271929Y0000205827D03*
X0000443425Y0000207874D03*
X0000350500Y0000203500D03*
X0000424527Y0000192126D03*
X0000338071Y0000183779D03*
X0000424527Y0000279173D03*
X0000356500Y0000250000D03*
X0000440275Y0000211024D03*
X0000355500Y0000203500D03*
X0000424527Y0000250827D03*
X0000344370Y0000240473D03*
X0000443425Y0000188976D03*
X0000341221Y0000202677D03*
X0000271929Y0000202677D03*
X0000443425Y0000257127D03*
X0000334921Y0000253071D03*
X0000268779Y0000202677D03*
X0000430827Y0000257127D03*
X0000352050Y0000242746D03*
X0000430827Y0000207874D03*
X0000341221Y0000190079D03*
X0000341221Y0000205827D03*
X0000262480Y0000202677D03*
X0000338071Y0000205827D03*
X0000271929Y0000180630D03*
X0000430827Y0000185827D03*
X0000334921Y0000190079D03*
X0000341221Y0000237323D03*
X0000265630Y0000237323D03*
X0000338071Y0000237323D03*
X0000430827Y0000192126D03*
X0000351325Y0000185729D03*
X0000443425Y0000253977D03*
X0000341221Y0000253071D03*
X0000271929Y0000237323D03*
X0000297126Y0000186929D03*
X0000271929Y0000249921D03*
X0000312874Y0000186929D03*
X0000271929Y0000246772D03*
X0000300275Y0000177480D03*
X0000281378Y0000186929D03*
X0000262480Y0000237323D03*
X0000275079Y0000183779D03*
X0000275079Y0000186929D03*
X0000271929Y0000215275D03*
X0000446575Y0000188976D03*
X0000446575Y0000253977D03*
X0000287677Y0000183779D03*
X0000265630Y0000177480D03*
X0000265630Y0000180630D03*
X0000446575Y0000257127D03*
X0000268779Y0000249921D03*
X0000334921Y0000234173D03*
X0000312875Y0000256220D03*
X0000281378Y0000256221D03*
X0000278228Y0000256220D03*
X0000306575Y0000253071D03*
X0000316024Y0000256221D03*
X0000344370Y0000262520D03*
X0000312875Y0000259370D03*
X0000306575Y0000262520D03*
X0000334921Y0000259370D03*
X0000306575Y0000259370D03*
X0000334921Y0000256221D03*
X0000331772Y0000253071D03*
X0000344370Y0000249921D03*
X0000328622Y0000246771D03*
X0000325473Y0000249921D03*
X0000319173Y0000249921D03*
X0000312874Y0000249921D03*
X0000306575Y0000249921D03*
X0000331771Y0000246772D03*
X0000338071Y0000243622D03*
X0000344370Y0000234173D03*
X0000319173Y0000237323D03*
X0000312874Y0000237323D03*
X0000306575Y0000237323D03*
X0000322323Y0000234173D03*
X0000316024Y0000231024D03*
X0000319173Y0000231024D03*
X0000306575Y0000231024D03*
X0000347520Y0000227874D03*
X0000331771Y0000227874D03*
X0000316024Y0000224725D03*
X0000309725Y0000227874D03*
X0000319173Y0000224725D03*
X0000306575Y0000224725D03*
X0000347520Y0000221575D03*
X0000334921Y0000221575D03*
X0000322323Y0000221575D03*
X0000316024Y0000221575D03*
X0000309725Y0000221575D03*
X0000306575Y0000215275D03*
X0000312874Y0000215275D03*
X0000319173Y0000215275D03*
X0000338071Y0000215275D03*
X0000309725Y0000212126D03*
X0000322323Y0000212126D03*
X0000334921Y0000212126D03*
X0000347520Y0000212126D03*
X0000306575Y0000208976D03*
X0000316024Y0000208976D03*
X0000322323Y0000205827D03*
X0000334921Y0000205827D03*
X0000306575Y0000202677D03*
X0000312874Y0000202677D03*
X0000319173Y0000202677D03*
X0000334921Y0000199527D03*
X0000334921Y0000193228D03*
X0000347520Y0000193228D03*
X0000311500Y0000194000D03*
X0000322323Y0000190079D03*
X0000331772Y0000190079D03*
X0000319173Y0000186929D03*
X0000309725Y0000183779D03*
X0000322323Y0000183779D03*
X0000306575Y0000180630D03*
X0000316024Y0000180630D03*
X0000344370Y0000180630D03*
X0000309725Y0000177480D03*
X0000322323Y0000177480D03*
X0000331772Y0000177480D03*
X0000265630Y0000262520D03*
X0000268779Y0000262520D03*
X0000278228Y0000262520D03*
X0000284527Y0000262520D03*
X0000293976Y0000262520D03*
X0000265630Y0000259370D03*
X0000268779Y0000259370D03*
X0000275079Y0000259370D03*
X0000290827Y0000259370D03*
X0000293976Y0000259370D03*
X0000284527Y0000253071D03*
X0000265630Y0000256221D03*
X0000268779Y0000256221D03*
X0000293976Y0000253071D03*
X0000300275Y0000253071D03*
X0000265630Y0000249921D03*
X0000284527Y0000249921D03*
X0000290827Y0000249921D03*
X0000297126Y0000249921D03*
X0000275079Y0000246772D03*
X0000262480Y0000243622D03*
X0000275079Y0000240473D03*
X0000290827Y0000237323D03*
X0000297126Y0000237323D03*
X0000275079Y0000234173D03*
X0000300275Y0000234173D03*
X0000265630Y0000231024D03*
X0000290827Y0000231024D03*
X0000297126Y0000231024D03*
X0000275079Y0000227874D03*
X0000293976Y0000227874D03*
X0000300275Y0000227874D03*
X0000262480Y0000221575D03*
X0000275079Y0000221575D03*
X0000287677Y0000221575D03*
X0000293976Y0000221575D03*
X0000300275Y0000221575D03*
X0000297126Y0000215275D03*
X0000290827Y0000215275D03*
X0000300275Y0000212126D03*
X0000293976Y0000212126D03*
X0000290827Y0000208976D03*
X0000265630Y0000208976D03*
X0000300275Y0000205827D03*
X0000293976Y0000205827D03*
X0000275079Y0000205827D03*
X0000290827Y0000202677D03*
X0000275079Y0000199527D03*
X0000262480Y0000199527D03*
X0000275079Y0000193228D03*
X0000300275Y0000190079D03*
X0000290827Y0000190079D03*
X0000284527Y0000190079D03*
X0000278228Y0000190079D03*
X0000265630Y0000190079D03*
X0000293976Y0000186929D03*
X0000265630Y0000186929D03*
X0000262480Y0000186929D03*
X0000297126Y0000183779D03*
X0000300000Y0000172000D03*
X0000275079Y0000177480D03*
X0000271929Y0000177480D03*
X0000268779Y0000177480D03*
X0000334921Y0000240473D03*
X0000275079Y0000212126D03*
X0000347520Y0000180630D03*
X0000297126Y0000202677D03*
X0000287677Y0000227874D03*
X0000347520Y0000208976D03*
X0000437126Y0000211024D03*
X0000446575Y0000192126D03*
X0000443425Y0000211024D03*
X0000465473Y0000214173D03*
X0000462323Y0000185827D03*
X0000430827Y0000211024D03*
X0000424527Y0000211024D03*
X0000446575Y0000207874D03*
X0000440275Y0000188976D03*
X0000433976Y0000204724D03*
X0000424527Y0000188976D03*
X0000421378Y0000204724D03*
X0000433976Y0000192126D03*
X0000421379Y0000192126D03*
X0000440275Y0000253977D03*
X0000443425Y0000276024D03*
X0000462323Y0000250827D03*
X0000421378Y0000269725D03*
X0000424527Y0000253977D03*
X0000424527Y0000276024D03*
X0000433976Y0000269724D03*
X0000430827Y0000276024D03*
X0000437126Y0000276024D03*
X0000446575Y0000272874D03*
X0000465473Y0000279173D03*
X0000433976Y0000257127D03*
X0000421379Y0000257127D03*
X0000334921Y0000180630D03*
X0000271929Y0000183779D03*
X0000328622Y0000186929D03*
X0000312874Y0000190079D03*
X0000284527Y0000186929D03*
X0000287677Y0000186929D03*
X0000331772Y0000183779D03*
X0000312874Y0000180630D03*
X0000325473Y0000186929D03*
X0000312874Y0000183779D03*
X0000290827Y0000186929D03*
X0000306575Y0000177480D03*
X0000328622Y0000183779D03*
X0000278228Y0000180630D03*
X0000484367Y0000234075D03*
X0000484367Y0000201575D03*
X0000484367Y0000266575D03*
X0000338071Y0000234173D03*
X0000437126Y0000272874D03*
X0000344370Y0000256221D03*
X0000300275Y0000186929D03*
X0000271929Y0000256220D03*
X0000268779Y0000246772D03*
X0000268779Y0000240473D03*
X0000271929Y0000240473D03*
X0000265630Y0000243622D03*
X0000338071Y0000224725D03*
X0000271929Y0000243622D03*
X0000268779Y0000237323D03*
X0000268779Y0000224725D03*
X0000268779Y0000227874D03*
X0000268779Y0000221575D03*
X0000271929Y0000221575D03*
X0000265630Y0000227874D03*
X0000271929Y0000227874D03*
X0000262480Y0000224725D03*
X0000293976Y0000183779D03*
X0000262480Y0000212126D03*
X0000265630Y0000212126D03*
X0000271929Y0000234173D03*
X0000287677Y0000180630D03*
X0000262480Y0000215275D03*
X0000290827Y0000180630D03*
X0000271929Y0000224725D03*
X0000265630Y0000224725D03*
X0000265630Y0000234173D03*
X0000334921Y0000186929D03*
X0000262480Y0000227874D03*
X0000338071Y0000186929D03*
X0000271929Y0000231024D03*
X0000268779Y0000215275D03*
X0000268779Y0000231024D03*
X0000290827Y0000183779D03*
X0000331772Y0000186929D03*
X0000268779Y0000212126D03*
X0000325473Y0000253071D03*
X0000306575Y0000256221D03*
X0000328622Y0000256221D03*
X0000271929Y0000212126D03*
X0000268779Y0000190079D03*
X0000281378Y0000253071D03*
X0000271929Y0000208976D03*
X0000265630Y0000193228D03*
G54D13*
X0000160000Y0000050000D03*
X0000195000Y0000015000D03*
X0000195000Y0000020000D03*
X0000195000Y0000025000D03*
X0000190000Y0000030000D03*
X0000175000Y0000032500D03*
X0000180000Y0000032500D03*
X0000185000Y0000025000D03*
X0000185000Y0000030000D03*
X0000190000Y0000025000D03*
X0000190000Y0000020000D03*
X0000185000Y0000020000D03*
X0000250000Y0000020000D03*
X0000245000Y0000020000D03*
X0000245000Y0000040000D03*
X0000245000Y0000035000D03*
X0000250000Y0000030000D03*
X0000250000Y0000025000D03*
X0000245000Y0000025000D03*
X0000245000Y0000030000D03*
X0000120000Y0000050000D03*
X0000115000Y0000050000D03*
X0000220000Y0000050000D03*
X0000220000Y0000045000D03*
X0000035000Y0000045000D03*
X0000022500Y0000045000D03*
X0000055000Y0000035000D03*
X0000040000Y0000050000D03*
X0000082500Y0000045000D03*
X0000082500Y0000035000D03*
X0000075000Y0000045000D03*
X0000090000Y0000045000D03*
X0000100000Y0000050000D03*
X0000110000Y0000040000D03*
X0000055000Y0000025000D03*
X0000070000Y0000010000D03*
X0000070000Y0000025000D03*
X0000085000Y0000010000D03*
X0000085000Y0000025000D03*
X0000100000Y0000025000D03*
X0000100000Y0000010000D03*
X0000130000Y0000010000D03*
X0000115000Y0000010000D03*
X0000115000Y0000025000D03*
X0000145000Y0000025000D03*
X0000130000Y0000025000D03*
X0000150000Y0000050000D03*
X0000160000Y0000030000D03*
X0000150000Y0000030000D03*
X0000150000Y0000040000D03*
X0000200000Y0000015000D03*
X0000210000Y0000015000D03*
X0000225000Y0000015000D03*
X0000240000Y0000015000D03*
X0000240000Y0000050000D03*
X0000125000Y0000050000D03*
X0000210000Y0000040000D03*
X0000210000Y0000030000D03*
X0000210000Y0000035000D03*
X0000210000Y0000025000D03*
X0000160000Y0000040000D03*
X0000175000Y0000020000D03*
X0000170000Y0000015000D03*
X0000165000Y0000015000D03*
X0000165000Y0000020000D03*
X0000170000Y0000020000D03*
X0000170000Y0000025000D03*
X0000165000Y0000025000D03*
X0000060000Y0000035000D03*
X0000050000Y0000040000D03*
X0000045000Y0000040000D03*
X0000065000Y0000040000D03*
X0000060000Y0000040000D03*
X0000055000Y0000040000D03*
X0000135000Y0000050000D03*
X0000130000Y0000050000D03*
X0000145000Y0000045000D03*
X0000115000Y0000045000D03*
X0000180000Y0000040000D03*
X0000175000Y0000040000D03*
X0000180000Y0000045000D03*
X0000175000Y0000045000D03*
X0000180000Y0000050000D03*
X0000175000Y0000050000D03*
X0000100000Y0000035000D03*
X0000060000Y0000030000D03*
X0000140000Y0000050000D03*
X0000110000Y0000180000D03*
X0000250000Y0000190000D03*
X0000240000Y0000180000D03*
X0000200000Y0000305000D03*
X0000135000Y0000245000D03*
X0000250000Y0000195000D03*
X0000080000Y0000175000D03*
X0000250000Y0000210000D03*
X0000240000Y0000165000D03*
X0000080000Y0000195000D03*
X0000250000Y0000240000D03*
X0000115000Y0000169600D03*
X0000250000Y0000235000D03*
X0000082500Y0000200000D03*
X0000250000Y0000270000D03*
X0000192500Y0000330000D03*
X0000250000Y0000250000D03*
X0000135000Y0000210000D03*
X0000114785Y0000180000D03*
X0000250000Y0000215000D03*
X0000250000Y0000230000D03*
X0000090300Y0000133500D03*
X0000090300Y0000130000D03*
X0000250000Y0000317500D03*
X0000250000Y0000220000D03*
X0000105000Y0000130000D03*
X0000075000Y0000200000D03*
X0000060000Y0000195000D03*
X0000142500Y0000345000D03*
X0000245000Y0000095000D03*
X0000142500Y0000317500D03*
X0000180000Y0000195000D03*
X0000120000Y0000260000D03*
X0000120000Y0000275000D03*
X0000120000Y0000270000D03*
X0000120000Y0000265000D03*
X0000150000Y0000190000D03*
X0000095000Y0000240000D03*
X0000120000Y0000205000D03*
X0000120000Y0000230000D03*
X0000205000Y0000075000D03*
X0000095000Y0000195000D03*
X0000090000Y0000195000D03*
X0000210000Y0000140000D03*
X0000190000Y0000317500D03*
X0000110079Y0000240079D03*
X0000125000Y0000065000D03*
X0000135000Y0000065000D03*
X0000140000Y0000070000D03*
X0000067500Y0000180000D03*
X0000215000Y0000255000D03*
X0000135000Y0000090000D03*
X0000160000Y0000070000D03*
X0000225000Y0000135000D03*
X0000090000Y0000240000D03*
X0000075000Y0000210000D03*
X0000135000Y0000075000D03*
X0000125000Y0000075000D03*
X0000115000Y0000075000D03*
X0000120000Y0000075000D03*
X0000235000Y0000125000D03*
X0000145000Y0000100000D03*
X0000135000Y0000100000D03*
X0000155000Y0000075000D03*
X0000130000Y0000100000D03*
X0000155000Y0000070000D03*
X0000080000Y0000180000D03*
X0000250000Y0000225000D03*
X0000225000Y0000265000D03*
X0000195000Y0000305000D03*
X0000196500Y0000330000D03*
X0000150000Y0000280000D03*
X0000060000Y0000190000D03*
X0000220000Y0000110000D03*
X0000205000Y0000265000D03*
X0000205000Y0000270000D03*
X0000205000Y0000275000D03*
X0000205000Y0000280000D03*
X0000220000Y0000290000D03*
X0000225000Y0000290000D03*
X0000230000Y0000290000D03*
X0000230000Y0000285000D03*
X0000245000Y0000295000D03*
X0000240000Y0000295000D03*
X0000205000Y0000285000D03*
X0000045000Y0000150000D03*
X0000185000Y0000305000D03*
X0000060000Y0000215000D03*
X0000055000Y0000175000D03*
X0000080000Y0000220000D03*
X0000175000Y0000305000D03*
X0000055000Y0000080000D03*
X0000100000Y0000180000D03*
X0000218500Y0000163000D03*
X0000228500Y0000205000D03*
X0000120000Y0000220000D03*
X0000195000Y0000235000D03*
X0000190000Y0000235000D03*
X0000192500Y0000207500D03*
X0000220000Y0000090000D03*
X0000220000Y0000060000D03*
X0000220000Y0000075000D03*
X0000235000Y0000205000D03*
X0000240000Y0000230000D03*
X0000240000Y0000250000D03*
X0000240000Y0000220000D03*
X0000240000Y0000200000D03*
X0000240000Y0000260000D03*
X0000240000Y0000210000D03*
X0000240000Y0000240000D03*
X0000240000Y0000190000D03*
X0000225000Y0000205000D03*
X0000220000Y0000169500D03*
X0000090000Y0000075000D03*
X0000165000Y0000225000D03*
X0000055000Y0000090000D03*
X0000055000Y0000095000D03*
X0000055000Y0000085000D03*
X0000083500Y0000130000D03*
X0000087000Y0000130000D03*
X0000090000Y0000080000D03*
X0000085000Y0000195000D03*
X0000190000Y0000175000D03*
X0000135000Y0000230000D03*
X0000135000Y0000205000D03*
X0000040000Y0000102500D03*
X0000176000Y0000330000D03*
X0000060000Y0000240000D03*
X0000134000Y0000200000D03*
X0000145000Y0000210000D03*
X0000140000Y0000210000D03*
X0000100000Y0000200000D03*
X0000140000Y0000100000D03*
X0000075000Y0000175000D03*
X0000105000Y0000195000D03*
X0000080000Y0000225000D03*
X0000183500Y0000330000D03*
X0000040000Y0000122500D03*
X0000205000Y0000125000D03*
X0000135000Y0000225000D03*
X0000115000Y0000220000D03*
X0000245000Y0000330000D03*
X0000190000Y0000220000D03*
X0000150000Y0000205000D03*
X0000250000Y0000305000D03*
X0000195000Y0000220000D03*
X0000150000Y0000200000D03*
X0000199000Y0000140000D03*
X0000105000Y0000200000D03*
X0000080000Y0000255000D03*
X0000105000Y0000180000D03*
X0000095000Y0000180000D03*
X0000120000Y0000210000D03*
X0000080000Y0000240000D03*
X0000096000Y0000223000D03*
X0000111000Y0000194500D03*
X0000110000Y0000214000D03*
X0000128000Y0000328500D03*
X0000132500Y0000320000D03*
X0000153500Y0000250000D03*
X0000161500Y0000249500D03*
X0000179500Y0000222000D03*
X0000169500Y0000292000D03*
X0000178000Y0000285000D03*
X0000177500Y0000291000D03*
X0000170500Y0000283500D03*
X0000165000Y0000288500D03*
X0000168500Y0000276500D03*
X0000164500Y0000280500D03*
X0000172000Y0000262000D03*
X0000179000Y0000269000D03*
X0000179000Y0000261000D03*
X0000179500Y0000248000D03*
X0000185000Y0000254500D03*
X0000190000Y0000260500D03*
X0000190000Y0000250500D03*
X0000195000Y0000254500D03*
X0000195000Y0000263500D03*
X0000205000Y0000250000D03*
X0000205000Y0000254500D03*
X0000215000Y0000247500D03*
X0000210000Y0000245500D03*
X0000205000Y0000235500D03*
X0000204500Y0000230000D03*
X0000215000Y0000230000D03*
X0000210000Y0000230000D03*
X0000215000Y0000235500D03*
X0000210000Y0000235500D03*
X0000215000Y0000219000D03*
X0000215000Y0000225000D03*
X0000210000Y0000225000D03*
X0000204500Y0000225000D03*
X0000204500Y0000219000D03*
X0000210000Y0000219500D03*
X0000219500Y0000138500D03*
X0000212500Y0000147000D03*
X0000204500Y0000154500D03*
X0000220500Y0000155000D03*
X0000211500Y0000164000D03*
X0000204500Y0000175000D03*
X0000213000Y0000177500D03*
X0000208500Y0000182000D03*
X0000204500Y0000200000D03*
X0000204500Y0000207500D03*
X0000210000Y0000200000D03*
X0000220000Y0000200000D03*
X0000220000Y0000210000D03*
X0000220000Y0000219000D03*
X0000220000Y0000225000D03*
X0000220000Y0000230000D03*
X0000220000Y0000235000D03*
X0000220000Y0000244500D03*
X0000220000Y0000250000D03*
X0000234000Y0000254500D03*
X0000225000Y0000248500D03*
X0000130000Y0000297500D03*
X0000112500Y0000302500D03*
X0000132500Y0000310000D03*
X0000112500Y0000310000D03*
X0000097500Y0000310000D03*
X0000127500Y0000337500D03*
X0000112500Y0000337500D03*
X0000095000Y0000337500D03*
X0000047500Y0000332500D03*
X0000032500Y0000315000D03*
X0000087500Y0000330000D03*
X0000057500Y0000320000D03*
X0000077500Y0000320000D03*
X0000067500Y0000330000D03*
X0000057500Y0000340000D03*
X0000077500Y0000340000D03*
X0000035000Y0000302500D03*
X0000045000Y0000302500D03*
X0000055000Y0000302500D03*
X0000065000Y0000302500D03*
X0000090000Y0000302500D03*
X0000085000Y0000310000D03*
X0000075000Y0000310000D03*
X0000065000Y0000310000D03*
X0000055000Y0000310000D03*
X0000045000Y0000310000D03*
X0000020000Y0000305000D03*
X0000020000Y0000300000D03*
X0000035000Y0000310000D03*
X0000065000Y0000295000D03*
X0000055000Y0000295000D03*
X0000045000Y0000295000D03*
X0000035000Y0000295000D03*
X0000045000Y0000285000D03*
X0000055000Y0000285000D03*
X0000055000Y0000275000D03*
X0000065000Y0000285000D03*
X0000035000Y0000277500D03*
X0000027500Y0000285000D03*
X0000027500Y0000277500D03*
X0000030000Y0000257500D03*
X0000030000Y0000267500D03*
X0000045000Y0000267500D03*
X0000045000Y0000252500D03*
X0000047500Y0000262500D03*
X0000025000Y0000240000D03*
X0000015000Y0000235000D03*
X0000015000Y0000245000D03*
X0000030000Y0000245000D03*
X0000030000Y0000235000D03*
X0000040000Y0000235000D03*
X0000040000Y0000245000D03*
X0000047500Y0000245000D03*
X0000055000Y0000227500D03*
X0000045000Y0000220000D03*
X0000045000Y0000212500D03*
X0000052500Y0000200000D03*
X0000102500Y0000225000D03*
X0000112500Y0000217500D03*
X0000172500Y0000145000D03*
X0000147500Y0000180000D03*
X0000140000Y0000180000D03*
X0000155000Y0000180000D03*
X0000127500Y0000175000D03*
X0000140000Y0000175000D03*
X0000155000Y0000175000D03*
X0000172500Y0000175000D03*
X0000175000Y0000160000D03*
X0000175000Y0000165000D03*
X0000165000Y0000165000D03*
X0000155000Y0000165000D03*
X0000145000Y0000165000D03*
X0000132500Y0000165000D03*
X0000122500Y0000165000D03*
X0000100000Y0000155000D03*
X0000082500Y0000170000D03*
X0000090000Y0000170000D03*
X0000097500Y0000170000D03*
X0000062500Y0000177500D03*
X0000067500Y0000167500D03*
X0000062500Y0000172500D03*
X0000075000Y0000125000D03*
X0000075000Y0000135000D03*
X0000045000Y0000122500D03*
X0000045000Y0000115000D03*
X0000055000Y0000115000D03*
X0000065000Y0000115000D03*
X0000052500Y0000135000D03*
X0000062500Y0000132500D03*
X0000060000Y0000120000D03*
X0000060000Y0000127500D03*
X0000060000Y0000137500D03*
X0000070000Y0000132500D03*
X0000042500Y0000130000D03*
X0000040000Y0000160000D03*
X0000040000Y0000172500D03*
X0000045000Y0000177500D03*
X0000042500Y0000185000D03*
X0000020000Y0000217500D03*
X0000012500Y0000217500D03*
X0000020000Y0000187500D03*
X0000012500Y0000187500D03*
X0000020000Y0000172500D03*
X0000020000Y0000167500D03*
X0000012500Y0000167500D03*
X0000017500Y0000160000D03*
X0000027500Y0000172500D03*
X0000027500Y0000162500D03*
X0000027500Y0000155000D03*
X0000027500Y0000150000D03*
X0000027500Y0000145000D03*
X0000027500Y0000140000D03*
X0000027500Y0000132500D03*
X0000027500Y0000095000D03*
X0000027500Y0000100000D03*
X0000027500Y0000125000D03*
X0000027500Y0000117500D03*
X0000027500Y0000107500D03*
X0000087500Y0000070000D03*
X0000057500Y0000065000D03*
X0000047500Y0000067500D03*
X0000062500Y0000072500D03*
X0000030000Y0000087500D03*
X0000040000Y0000080000D03*
X0000030000Y0000080000D03*
X0000020000Y0000080000D03*
X0000012500Y0000080000D03*
X0000040000Y0000070000D03*
X0000030000Y0000070000D03*
X0000020000Y0000070000D03*
X0000012500Y0000070000D03*
X0000040000Y0000062500D03*
X0000030000Y0000055000D03*
X0000030000Y0000062500D03*
X0000020000Y0000062500D03*
X0000012500Y0000062500D03*
X0000012500Y0000055000D03*
X0000020000Y0000055000D03*
X0000082500Y0000110000D03*
X0000092500Y0000110000D03*
X0000082500Y0000055000D03*
X0000102500Y0000107500D03*
X0000123000Y0000130500D03*
X0000122500Y0000142500D03*
X0000122500Y0000122500D03*
X0000117500Y0000135000D03*
X0000132500Y0000132500D03*
X0000152500Y0000130000D03*
X0000150000Y0000145000D03*
X0000167500Y0000135000D03*
X0000157500Y0000132500D03*
X0000147500Y0000132500D03*
X0000140000Y0000132500D03*
X0000142500Y0000112500D03*
X0000120000Y0000105000D03*
X0000112500Y0000100000D03*
X0000120000Y0000095000D03*
X0000172500Y0000087500D03*
X0000167500Y0000087500D03*
X0000170000Y0000080000D03*
X0000165000Y0000072500D03*
X0000170000Y0000060000D03*
X0000162500Y0000060000D03*
X0000150000Y0000065000D03*
X0000150000Y0000060000D03*
X0000162500Y0000065000D03*
X0000170000Y0000065000D03*
X0000180000Y0000065000D03*
X0000195000Y0000075000D03*
X0000190000Y0000065000D03*
X0000205000Y0000060000D03*
X0000210000Y0000065000D03*
X0000200000Y0000065000D03*
X0000200000Y0000055000D03*
X0000210000Y0000055000D03*
X0000235000Y0000092500D03*
X0000235000Y0000077500D03*
X0000235000Y0000062500D03*
X0000240000Y0000080000D03*
X0000237500Y0000102500D03*
X0000240000Y0000092500D03*
X0000247500Y0000092500D03*
X0000179500Y0000235000D03*
X0000192000Y0000140500D03*
X0000166500Y0000149500D03*
X0000161000Y0000105000D03*
X0000151500Y0000111000D03*
X0000162500Y0000114500D03*
X0000115000Y0000165500D03*
X0000079500Y0000130500D03*
X0000081000Y0000139000D03*
X0000035000Y0000200500D03*
X0000055000Y0000220000D03*
X0000055000Y0000245000D03*
X0000070500Y0000261500D03*
X0000087500Y0000257500D03*
X0000200500Y0000331500D03*
X0000180300Y0000301700D03*
X0000144000Y0000306500D03*
X0000144000Y0000300500D03*
X0000150000Y0000300500D03*
X0000150000Y0000306500D03*
X0000230400Y0000333400D03*
X0000236400Y0000333400D03*
X0000236400Y0000327400D03*
X0000230400Y0000327400D03*
X0000143000Y0000333300D03*
X0000149000Y0000333300D03*
X0000149000Y0000327300D03*
X0000143000Y0000327300D03*
X0000154000Y0000333300D03*
X0000160000Y0000333300D03*
X0000160000Y0000327300D03*
X0000154000Y0000327300D03*
X0000164000Y0000306500D03*
X0000170000Y0000306500D03*
X0000170000Y0000300500D03*
X0000164000Y0000300500D03*
X0000164000Y0000349500D03*
X0000170000Y0000349500D03*
X0000170000Y0000343500D03*
X0000164000Y0000343500D03*
X0000199000Y0000349500D03*
X0000205000Y0000349500D03*
X0000205000Y0000343500D03*
X0000199000Y0000343500D03*
X0000207000Y0000300500D03*
X0000207000Y0000294500D03*
X0000201000Y0000300500D03*
X0000201000Y0000294500D03*
X0000225500Y0000306500D03*
X0000231500Y0000306500D03*
X0000231500Y0000300500D03*
X0000225500Y0000300500D03*
X0000238000Y0000306500D03*
X0000244000Y0000306500D03*
X0000244000Y0000300500D03*
X0000238000Y0000300500D03*
X0000185000Y0000265000D03*
X0000040000Y0000142500D03*
X0000090000Y0000140000D03*
X0000150000Y0000210000D03*
X0000070000Y0000165000D03*
X0000245000Y0000120000D03*
X0000225000Y0000130000D03*
X0000240000Y0000150000D03*
X0000180000Y0000090000D03*
X0000170000Y0000125000D03*
X0000205000Y0000140000D03*
X0000045000Y0000090000D03*
X0000045000Y0000080000D03*
X0000095000Y0000230000D03*
X0000037700Y0000180200D03*
X0000013800Y0000174800D03*
X0000032500Y0000185000D03*
X0000245000Y0000105000D03*
X0000245000Y0000075000D03*
X0000245000Y0000070000D03*
X0000245000Y0000065000D03*
X0000245000Y0000060000D03*
X0000245000Y0000085000D03*
X0000245000Y0000080000D03*
X0000220000Y0000115000D03*
X0000220000Y0000255000D03*
X0000150000Y0000285000D03*
X0000150000Y0000295000D03*
X0000230000Y0000275000D03*
X0000210000Y0000285000D03*
X0000210000Y0000290000D03*
X0000215000Y0000289000D03*
X0000125000Y0000260000D03*
X0000125000Y0000265000D03*
X0000125000Y0000270000D03*
X0000125000Y0000275000D03*
X0000150000Y0000275000D03*
X0000155000Y0000275000D03*
X0000155000Y0000270000D03*
X0000150000Y0000270000D03*
X0000145000Y0000270000D03*
X0000195000Y0000060000D03*
X0000195000Y0000055000D03*
X0000190000Y0000055000D03*
X0000250000Y0000285000D03*
X0000250000Y0000290000D03*
X0000250000Y0000280000D03*
X0000250000Y0000275000D03*
X0000155000Y0000205000D03*
X0000180000Y0000190000D03*
X0000180000Y0000200000D03*
X0000190000Y0000290000D03*
X0000195000Y0000250000D03*
X0000197500Y0000207500D03*
X0000195000Y0000180000D03*
X0000155000Y0000200000D03*
X0000240000Y0000185000D03*
X0000240000Y0000225000D03*
X0000240000Y0000205000D03*
X0000240000Y0000235000D03*
X0000240000Y0000195000D03*
X0000240000Y0000215000D03*
X0000240000Y0000255000D03*
X0000240000Y0000245000D03*
X0000037700Y0000210200D03*
X0000013800Y0000205200D03*
X0000080000Y0000290000D03*
X0000085000Y0000290000D03*
X0000090000Y0000290000D03*
X0000095000Y0000290000D03*
X0000100000Y0000290000D03*
X0000105000Y0000290000D03*
X0000110000Y0000290000D03*
X0000075000Y0000290000D03*
X0000032500Y0000215000D03*
X0000202500Y0000317500D03*
X0000245000Y0000317500D03*
X0000235000Y0000317500D03*
X0000230000Y0000317500D03*
X0000225000Y0000317500D03*
X0000172500Y0000317500D03*
X0000162500Y0000317500D03*
X0000152500Y0000317500D03*
X0000217500Y0000325000D03*
X0000210000Y0000325000D03*
X0000135000Y0000325000D03*
X0000040000Y0000252500D03*
X0000155000Y0000235000D03*
X0000160000Y0000235000D03*
X0000090000Y0000205000D03*
X0000110000Y0000205000D03*
X0000100000Y0000195000D03*
X0000100094Y0000240094D03*
X0000060000Y0000230000D03*
X0000060000Y0000205000D03*
X0000090000Y0000180000D03*
X0000120000Y0000200000D03*
X0000120000Y0000225000D03*
X0000085000Y0000205000D03*
X0000085000Y0000230000D03*
X0000100000Y0000230000D03*
X0000095000Y0000205000D03*
X0000110000Y0000230000D03*
X0000165000Y0000230000D03*
X0000080000Y0000155000D03*
X0000045000Y0000100000D03*
X0000050000Y0000100000D03*
X0000100000Y0000070000D03*
X0000095000Y0000070000D03*
X0000105000Y0000090000D03*
X0000080000Y0000090000D03*
X0000080000Y0000080000D03*
X0000070000Y0000090000D03*
X0000070000Y0000080000D03*
X0000075000Y0000085000D03*
X0000200000Y0000160000D03*
X0000050000Y0000130000D03*
X0000055000Y0000130000D03*
X0000045000Y0000155000D03*
X0000070000Y0000150000D03*
X0000045000Y0000160000D03*
X0000095000Y0000125000D03*
X0000080000Y0000070000D03*
X0000145000Y0000250000D03*
X0000090000Y0000065000D03*
X0000185000Y0000175000D03*
X0000160000Y0000075000D03*
X0000135000Y0000150000D03*
X0000150000Y0000155000D03*
X0000150000Y0000120000D03*
X0000150000Y0000125000D03*
X0000140000Y0000090000D03*
X0000120000Y0000150000D03*
X0000115000Y0000115000D03*
X0000115000Y0000130000D03*
X0000120000Y0000065000D03*
X0000115000Y0000065000D03*
X0000195000Y0000080000D03*
X0000175000Y0000140000D03*
X0000192500Y0000112500D03*
X0000197500Y0000112500D03*
X0000197500Y0000107500D03*
X0000197500Y0000102500D03*
X0000192500Y0000102500D03*
X0000187500Y0000107500D03*
X0000187500Y0000112500D03*
X0000187500Y0000102500D03*
X0000192500Y0000107500D03*
X0000205000Y0000090000D03*
X0000180000Y0000140000D03*
X0000130000Y0000090000D03*
X0000125000Y0000090000D03*
X0000140000Y0000075000D03*
X0000145000Y0000105000D03*
X0000152500Y0000345000D03*
X0000160000Y0000345000D03*
X0000175000Y0000345000D03*
X0000195000Y0000345000D03*
X0000225000Y0000345000D03*
X0000230000Y0000345000D03*
X0000235000Y0000345000D03*
X0000240000Y0000345000D03*
X0000060000Y0000200000D03*
X0000075000Y0000255000D03*
X0000195500Y0000140000D03*
X0000173500Y0000235000D03*
X0000220000Y0000055000D03*
X0000215000Y0000275000D03*
X0000210000Y0000275000D03*
X0000210000Y0000270000D03*
X0000210000Y0000280000D03*
X0000040000Y0000147500D03*
X0000040000Y0000152500D03*
X0000040000Y0000112500D03*
X0000245000Y0000135000D03*
X0000240000Y0000140000D03*
X0000250000Y0000140000D03*
X0000045000Y0000095000D03*
X0000045000Y0000085000D03*
X0000025000Y0000187500D03*
X0000130000Y0000075000D03*
X0000130000Y0000065000D03*
X0000155000Y0000290000D03*
X0000130000Y0000280000D03*
X0000130000Y0000275000D03*
X0000130000Y0000270000D03*
X0000135000Y0000270000D03*
X0000140000Y0000270000D03*
X0000135000Y0000275000D03*
X0000200000Y0000180000D03*
X0000190000Y0000180000D03*
X0000185000Y0000180000D03*
X0000200000Y0000250000D03*
X0000090000Y0000270000D03*
X0000085000Y0000270000D03*
X0000080000Y0000270000D03*
X0000075000Y0000270000D03*
X0000095000Y0000270000D03*
X0000100000Y0000270000D03*
X0000105000Y0000270000D03*
X0000110000Y0000270000D03*
X0000025000Y0000217500D03*
X0000040000Y0000272500D03*
X0000040000Y0000262500D03*
X0000055000Y0000180000D03*
X0000075000Y0000235000D03*
X0000165000Y0000235000D03*
X0000075000Y0000205000D03*
X0000075000Y0000230000D03*
X0000105000Y0000240000D03*
X0000105000Y0000100000D03*
X0000105000Y0000095000D03*
X0000055000Y0000100000D03*
X0000060000Y0000100000D03*
X0000045000Y0000075000D03*
X0000105000Y0000085000D03*
X0000095000Y0000120000D03*
X0000140000Y0000250000D03*
X0000185000Y0000160000D03*
X0000150000Y0000075000D03*
X0000160000Y0000150000D03*
X0000155000Y0000150000D03*
X0000145000Y0000150000D03*
X0000140000Y0000150000D03*
X0000045000Y0000167500D03*
X0000115000Y0000090000D03*
X0000120000Y0000090000D03*
X0000130000Y0000150000D03*
X0000115000Y0000150000D03*
X0000180000Y0000055000D03*
X0000175000Y0000055000D03*
X0000175000Y0000060000D03*
X0000105000Y0000115000D03*
X0000185000Y0000287500D03*
X0000180000Y0000305000D03*
X0000085000Y0000255000D03*
X0000170000Y0000235100D03*
X0000075000Y0000240000D03*
X0000040000Y0000137500D03*
X0000075000Y0000225000D03*
X0000172000Y0000330000D03*
X0000135000Y0000220000D03*
X0000215000Y0000115000D03*
X0000187500Y0000328100D03*
X0000240000Y0000175000D03*
X0000060000Y0000225000D03*
X0000220000Y0000070000D03*
X0000195000Y0000317500D03*
X0000220000Y0000085000D03*
X0000060000Y0000235000D03*
X0000140000Y0000065000D03*
X0000075000Y0000215000D03*
X0000060000Y0000085000D03*
X0000185000Y0000317500D03*
X0000115000Y0000240000D03*
X0000165000Y0000152500D03*
X0000060000Y0000210000D03*
X0000090000Y0000235000D03*
X0000190000Y0000305000D03*
X0000040000Y0000097500D03*
X0000180000Y0000317500D03*
X0000060000Y0000220000D03*
X0000040000Y0000092500D03*
X0000179500Y0000330000D03*
X0000075000Y0000220000D03*
X0000090000Y0000260000D03*
X0000055000Y0000075000D03*
X0000085000Y0000240000D03*
X0000037500Y0000225000D03*
X0000220000Y0000095000D03*
X0000075000Y0000260000D03*
X0000220000Y0000080000D03*
X0000085000Y0000260000D03*
X0000220000Y0000065000D03*
X0000055000Y0000240000D03*
X0000037500Y0000194800D03*
X0000110000Y0000260000D03*
X0000220000Y0000100000D03*
X0000105000Y0000260000D03*
X0000080000Y0000260000D03*
X0000095000Y0000260000D03*
X0000100000Y0000260000D03*
X0000240000Y0000265000D03*
X0000150000Y0000195000D03*
X0000120000Y0000235000D03*
X0000065000Y0000100000D03*
X0000060000Y0000095000D03*
X0000070000Y0000070000D03*
X0000060000Y0000075000D03*
X0000240000Y0000270000D03*
X0000170000Y0000195000D03*
X0000170000Y0000200000D03*
X0000170000Y0000190000D03*
X0000110000Y0000200000D03*
X0000190000Y0000280000D03*
X0000075000Y0000070000D03*
X0000090000Y0000100000D03*
X0000090000Y0000095000D03*
X0000090000Y0000090000D03*
X0000075000Y0000100000D03*
X0000195000Y0000195000D03*
X0000200000Y0000280000D03*
X0000195000Y0000280000D03*
X0000080000Y0000215000D03*
X0000070000Y0000100000D03*
X0000250000Y0000345000D03*
X0000159500Y0000110000D03*
X0000150500Y0000105000D03*
X0000194500Y0000085000D03*
X0000154000Y0000105000D03*
X0000250000Y0000330000D03*
X0000156000Y0000110000D03*
X0000191000Y0000085000D03*
X0000085000Y0000180000D03*
X0000250000Y0000150000D03*
X0000120000Y0000175000D03*
X0000250000Y0000255000D03*
X0000120000Y0000195000D03*
X0000250000Y0000260000D03*
X0000115000Y0000235000D03*
X0000250000Y0000185000D03*
X0000190000Y0000345000D03*
X0000135000Y0000240000D03*
X0000135000Y0000215000D03*
X0000250000Y0000245000D03*
X0000120000Y0000180000D03*
X0000250000Y0000200000D03*
X0000245000Y0000345000D03*
X0000210000Y0000100000D03*
X0000210000Y0000125000D03*
X0000175000Y0000110000D03*
X0000175000Y0000115000D03*
X0000184000Y0000125000D03*
X0000190000Y0000125000D03*
X0000195000Y0000125000D03*
X0000200500Y0000125000D03*
X0000210000Y0000115000D03*
X0000210000Y0000110000D03*
X0000210000Y0000105000D03*
X0000200000Y0000090000D03*
X0000195000Y0000090000D03*
X0000200000Y0000085000D03*
X0000190000Y0000090000D03*
X0000184500Y0000090000D03*
X0000175000Y0000097500D03*
X0000174500Y0000105000D03*
X0000420000Y0000025000D03*
X0000400000Y0000025000D03*
X0000400000Y0000050000D03*
X0000490000Y0000050000D03*
X0000440000Y0000035000D03*
X0000440000Y0000030000D03*
X0000435000Y0000030000D03*
X0000435000Y0000035000D03*
X0000420000Y0000035000D03*
X0000420000Y0000030000D03*
X0000470000Y0000020000D03*
X0000455000Y0000025000D03*
X0000455000Y0000030000D03*
X0000455000Y0000035000D03*
X0000425000Y0000045000D03*
X0000430000Y0000045000D03*
X0000435000Y0000045000D03*
X0000435000Y0000040000D03*
X0000440000Y0000040000D03*
X0000440000Y0000045000D03*
X0000445000Y0000045000D03*
X0000450000Y0000045000D03*
X0000455000Y0000040000D03*
X0000455000Y0000045000D03*
X0000460000Y0000045000D03*
X0000260000Y0000045000D03*
X0000280000Y0000052500D03*
X0000320000Y0000040000D03*
X0000320000Y0000025000D03*
X0000310000Y0000010000D03*
X0000330000Y0000010000D03*
X0000355000Y0000010000D03*
X0000380000Y0000010000D03*
X0000405000Y0000010000D03*
X0000430000Y0000010000D03*
X0000455000Y0000010000D03*
X0000417500Y0000045000D03*
X0000485000Y0000042500D03*
X0000410000Y0000042500D03*
X0000390000Y0000015000D03*
X0000385000Y0000015000D03*
X0000380000Y0000015000D03*
X0000375000Y0000015000D03*
X0000370000Y0000015000D03*
X0000365000Y0000015000D03*
X0000360000Y0000015000D03*
X0000355000Y0000015000D03*
X0000350000Y0000015000D03*
X0000390000Y0000045000D03*
X0000465000Y0000020000D03*
X0000410000Y0000025000D03*
X0000480000Y0000035000D03*
X0000480000Y0000040000D03*
X0000280000Y0000030000D03*
X0000280000Y0000025000D03*
X0000290000Y0000020000D03*
X0000285000Y0000020000D03*
X0000280000Y0000020000D03*
X0000275000Y0000020000D03*
X0000275000Y0000025000D03*
X0000275000Y0000030000D03*
X0000410000Y0000037500D03*
X0000360000Y0000305000D03*
X0000362500Y0000330000D03*
X0000345000Y0000300000D03*
X0000275000Y0000165000D03*
X0000350000Y0000300000D03*
X0000355000Y0000345000D03*
X0000265000Y0000165000D03*
X0000255000Y0000303500D03*
X0000330000Y0000330000D03*
X0000367500Y0000330000D03*
X0000355000Y0000317500D03*
X0000353000Y0000330000D03*
X0000339500Y0000330000D03*
X0000365000Y0000305000D03*
X0000370000Y0000305000D03*
X0000365000Y0000345000D03*
X0000357500Y0000330000D03*
X0000325000Y0000275000D03*
X0000265000Y0000275000D03*
X0000260000Y0000275000D03*
X0000335000Y0000275000D03*
X0000340000Y0000275000D03*
X0000365000Y0000165000D03*
X0000360000Y0000165000D03*
X0000375000Y0000237000D03*
X0000355000Y0000170000D03*
X0000280000Y0000275000D03*
X0000275000Y0000275000D03*
X0000360000Y0000220000D03*
X0000350000Y0000165000D03*
X0000345000Y0000165000D03*
X0000475000Y0000055000D03*
X0000370000Y0000345000D03*
X0000370000Y0000317500D03*
X0000490000Y0000095000D03*
X0000490000Y0000090000D03*
X0000470000Y0000095000D03*
X0000470000Y0000090000D03*
X0000475000Y0000100000D03*
X0000480000Y0000100000D03*
X0000485000Y0000100000D03*
X0000470000Y0000100000D03*
X0000490000Y0000100000D03*
X0000490000Y0000150000D03*
X0000490000Y0000155000D03*
X0000490000Y0000160000D03*
X0000470000Y0000150000D03*
X0000470000Y0000155000D03*
X0000460000Y0000160000D03*
X0000465000Y0000160000D03*
X0000470000Y0000160000D03*
X0000485000Y0000160000D03*
X0000480000Y0000160000D03*
X0000475000Y0000160000D03*
X0000405000Y0000255000D03*
X0000400000Y0000255000D03*
X0000405000Y0000200000D03*
X0000400000Y0000200000D03*
X0000435000Y0000130000D03*
X0000430000Y0000130000D03*
X0000425000Y0000130000D03*
X0000435000Y0000160000D03*
X0000430000Y0000160000D03*
X0000425000Y0000160000D03*
X0000425000Y0000155000D03*
X0000425000Y0000150000D03*
X0000425000Y0000145000D03*
X0000425000Y0000140000D03*
X0000430000Y0000140000D03*
X0000435000Y0000140000D03*
X0000435000Y0000135000D03*
X0000430000Y0000135000D03*
X0000425000Y0000135000D03*
X0000375000Y0000233500D03*
X0000255000Y0000150000D03*
X0000350000Y0000295000D03*
X0000255000Y0000295000D03*
X0000280000Y0000295000D03*
X0000276000Y0000295000D03*
X0000270500Y0000295000D03*
X0000265000Y0000295000D03*
X0000260000Y0000295000D03*
X0000335000Y0000295000D03*
X0000340000Y0000295000D03*
X0000350000Y0000145000D03*
X0000345000Y0000145000D03*
X0000355000Y0000145000D03*
X0000425000Y0000105000D03*
X0000425000Y0000075000D03*
X0000425000Y0000100000D03*
X0000425000Y0000095000D03*
X0000425000Y0000090000D03*
X0000425000Y0000085000D03*
X0000425000Y0000080000D03*
X0000435000Y0000105000D03*
X0000430000Y0000105000D03*
X0000435000Y0000075000D03*
X0000430000Y0000075000D03*
X0000430000Y0000085000D03*
X0000435000Y0000085000D03*
X0000435000Y0000080000D03*
X0000430000Y0000080000D03*
X0000375000Y0000180000D03*
X0000380000Y0000220000D03*
X0000380000Y0000225000D03*
X0000280000Y0000115000D03*
X0000275000Y0000075000D03*
X0000275000Y0000080000D03*
X0000329000Y0000130000D03*
X0000330000Y0000140500D03*
X0000340000Y0000110000D03*
X0000340000Y0000120000D03*
X0000360000Y0000120000D03*
X0000321000Y0000172900D03*
X0000355000Y0000120000D03*
X0000350000Y0000120000D03*
X0000345000Y0000120000D03*
X0000345000Y0000105000D03*
X0000345000Y0000100000D03*
X0000345000Y0000110000D03*
X0000345000Y0000115000D03*
X0000350000Y0000115000D03*
X0000255000Y0000120000D03*
X0000260000Y0000130000D03*
X0000260000Y0000125000D03*
X0000260000Y0000120000D03*
X0000295000Y0000130000D03*
X0000295000Y0000135000D03*
X0000295000Y0000125000D03*
X0000295000Y0000140000D03*
X0000360000Y0000250000D03*
X0000319000Y0000115000D03*
X0000302500Y0000115000D03*
X0000255000Y0000180000D03*
X0000360000Y0000190000D03*
X0000360000Y0000255000D03*
X0000370000Y0000265000D03*
X0000375000Y0000265000D03*
X0000365000Y0000265000D03*
X0000370000Y0000145000D03*
X0000360000Y0000145000D03*
X0000365000Y0000145000D03*
X0000380000Y0000140000D03*
X0000385000Y0000140000D03*
X0000360000Y0000245000D03*
X0000330000Y0000295000D03*
X0000380000Y0000200000D03*
X0000380000Y0000195000D03*
X0000380000Y0000190000D03*
X0000270000Y0000150000D03*
X0000380000Y0000215000D03*
X0000375000Y0000203500D03*
X0000375000Y0000207000D03*
X0000300000Y0000330000D03*
X0000275000Y0000090000D03*
X0000290000Y0000310000D03*
X0000410000Y0000240000D03*
X0000334000Y0000120500D03*
X0000329500Y0000124500D03*
X0000329500Y0000118500D03*
X0000443500Y0000263500D03*
X0000386500Y0000255500D03*
X0000275000Y0000065000D03*
X0000282500Y0000075000D03*
X0000280000Y0000065000D03*
X0000340000Y0000087500D03*
X0000342500Y0000065000D03*
X0000325000Y0000087500D03*
X0000302500Y0000087500D03*
X0000320000Y0000070000D03*
X0000295000Y0000067500D03*
X0000297500Y0000055000D03*
X0000315000Y0000055000D03*
X0000330000Y0000055000D03*
X0000380000Y0000135000D03*
X0000392500Y0000122500D03*
X0000410000Y0000125000D03*
X0000405000Y0000110000D03*
X0000405000Y0000122500D03*
X0000412500Y0000065000D03*
X0000397500Y0000060000D03*
X0000402500Y0000067500D03*
X0000415000Y0000070000D03*
X0000450000Y0000055000D03*
X0000442500Y0000055000D03*
X0000450000Y0000062500D03*
X0000442500Y0000062500D03*
X0000455000Y0000075000D03*
X0000460000Y0000080000D03*
X0000447500Y0000080000D03*
X0000447500Y0000110000D03*
X0000395000Y0000165000D03*
X0000425000Y0000165000D03*
X0000410000Y0000165000D03*
X0000395000Y0000172500D03*
X0000435000Y0000175000D03*
X0000482500Y0000190000D03*
X0000480000Y0000165000D03*
X0000462500Y0000165000D03*
X0000445000Y0000165000D03*
X0000437500Y0000165000D03*
X0000462500Y0000175000D03*
X0000445000Y0000175000D03*
X0000460000Y0000127500D03*
X0000445000Y0000127500D03*
X0000460000Y0000140000D03*
X0000445000Y0000140000D03*
X0000490000Y0000110000D03*
X0000475000Y0000110000D03*
X0000475000Y0000122500D03*
X0000490000Y0000122500D03*
X0000500000Y0000055000D03*
X0000500000Y0000067500D03*
X0000500000Y0000085000D03*
X0000500000Y0000110000D03*
X0000500000Y0000135000D03*
X0000500000Y0000160000D03*
X0000490000Y0000177500D03*
X0000500000Y0000192500D03*
X0000490000Y0000210000D03*
X0000500000Y0000225000D03*
X0000490000Y0000240000D03*
X0000500000Y0000255000D03*
X0000460000Y0000300000D03*
X0000382500Y0000320000D03*
X0000385000Y0000310000D03*
X0000400000Y0000310000D03*
X0000415000Y0000310000D03*
X0000415000Y0000297500D03*
X0000385000Y0000290000D03*
X0000405000Y0000290000D03*
X0000490000Y0000272500D03*
X0000500000Y0000275000D03*
X0000497500Y0000295000D03*
X0000457500Y0000332500D03*
X0000457500Y0000317500D03*
X0000467500Y0000290000D03*
X0000487500Y0000290000D03*
X0000477500Y0000300000D03*
X0000467500Y0000310000D03*
X0000487500Y0000310000D03*
X0000430000Y0000290000D03*
X0000450000Y0000290000D03*
X0000440000Y0000300000D03*
X0000440000Y0000337500D03*
X0000460000Y0000337500D03*
X0000400000Y0000337500D03*
X0000420000Y0000337500D03*
X0000390000Y0000345000D03*
X0000410000Y0000345000D03*
X0000430000Y0000345000D03*
X0000450000Y0000345000D03*
X0000450000Y0000325000D03*
X0000430000Y0000325000D03*
X0000440000Y0000315000D03*
X0000450000Y0000305000D03*
X0000430000Y0000305000D03*
X0000315000Y0000345000D03*
X0000378500Y0000240000D03*
X0000282500Y0000288500D03*
X0000356000Y0000348500D03*
X0000366500Y0000348000D03*
X0000351000Y0000346500D03*
X0000364100Y0000333000D03*
X0000346100Y0000328100D03*
X0000345085Y0000296451D03*
X0000260400Y0000333300D03*
X0000266400Y0000333300D03*
X0000266400Y0000327300D03*
X0000260400Y0000327300D03*
X0000298000Y0000151500D03*
X0000298000Y0000145500D03*
X0000304000Y0000151500D03*
X0000304000Y0000145500D03*
X0000310000Y0000145500D03*
X0000310000Y0000151500D03*
X0000316000Y0000151500D03*
X0000316000Y0000145500D03*
X0000322000Y0000145500D03*
X0000322000Y0000151500D03*
X0000328000Y0000151500D03*
X0000334000Y0000151500D03*
X0000334000Y0000145500D03*
X0000328000Y0000145500D03*
X0000259500Y0000306500D03*
X0000265500Y0000306500D03*
X0000265500Y0000300500D03*
X0000259500Y0000300500D03*
X0000280500Y0000349500D03*
X0000286500Y0000349500D03*
X0000286500Y0000343500D03*
X0000280500Y0000343500D03*
X0000270500Y0000349500D03*
X0000276500Y0000349500D03*
X0000276500Y0000343500D03*
X0000270500Y0000343500D03*
X0000270500Y0000306500D03*
X0000276500Y0000306500D03*
X0000276500Y0000300500D03*
X0000270500Y0000300500D03*
X0000280500Y0000306500D03*
X0000286500Y0000306500D03*
X0000286500Y0000300500D03*
X0000280500Y0000300500D03*
X0000289500Y0000294500D03*
X0000295500Y0000294500D03*
X0000295500Y0000288500D03*
X0000289500Y0000288500D03*
X0000299500Y0000294500D03*
X0000305500Y0000294500D03*
X0000305500Y0000288500D03*
X0000299500Y0000288500D03*
X0000311000Y0000294500D03*
X0000317000Y0000294500D03*
X0000317000Y0000288500D03*
X0000311000Y0000288500D03*
X0000385500Y0000297500D03*
X0000391500Y0000297500D03*
X0000391500Y0000303500D03*
X0000385500Y0000303500D03*
X0000397500Y0000297500D03*
X0000397500Y0000303500D03*
X0000403500Y0000297500D03*
X0000403500Y0000303500D03*
X0000317500Y0000317500D03*
X0000260000Y0000135000D03*
X0000260000Y0000140000D03*
X0000255000Y0000140000D03*
X0000321000Y0000167500D03*
X0000315000Y0000270000D03*
X0000330000Y0000275000D03*
X0000255000Y0000275000D03*
X0000255000Y0000195000D03*
X0000260000Y0000095000D03*
X0000255000Y0000110000D03*
X0000266500Y0000086500D03*
X0000490000Y0000065000D03*
X0000490000Y0000055000D03*
X0000395000Y0000160000D03*
X0000395000Y0000155000D03*
X0000395000Y0000150000D03*
X0000395000Y0000145000D03*
X0000395000Y0000140000D03*
X0000395000Y0000135000D03*
X0000395000Y0000130000D03*
X0000420000Y0000060000D03*
X0000490000Y0000080000D03*
X0000490000Y0000075000D03*
X0000490000Y0000070000D03*
X0000485000Y0000070000D03*
X0000480000Y0000070000D03*
X0000475000Y0000070000D03*
X0000470000Y0000070000D03*
X0000470000Y0000075000D03*
X0000470000Y0000080000D03*
X0000395000Y0000075000D03*
X0000395000Y0000080000D03*
X0000395000Y0000085000D03*
X0000395000Y0000090000D03*
X0000395000Y0000095000D03*
X0000395000Y0000100000D03*
X0000395000Y0000105000D03*
X0000420000Y0000120000D03*
X0000470000Y0000140000D03*
X0000470000Y0000135000D03*
X0000470000Y0000130000D03*
X0000475000Y0000130000D03*
X0000480000Y0000130000D03*
X0000485000Y0000130000D03*
X0000490000Y0000130000D03*
X0000490000Y0000135000D03*
X0000492400Y0000140000D03*
X0000360000Y0000260000D03*
X0000375000Y0000245000D03*
X0000370000Y0000290000D03*
X0000375000Y0000290000D03*
X0000365000Y0000290000D03*
X0000270000Y0000125000D03*
X0000270000Y0000140000D03*
X0000270000Y0000130000D03*
X0000270000Y0000135000D03*
X0000371000Y0000130000D03*
X0000371000Y0000135000D03*
X0000371000Y0000125000D03*
X0000371000Y0000140000D03*
X0000270000Y0000275000D03*
X0000370000Y0000165000D03*
X0000355000Y0000165000D03*
X0000345000Y0000275000D03*
X0000350000Y0000290000D03*
X0000350000Y0000285000D03*
X0000350000Y0000280000D03*
X0000380000Y0000165000D03*
X0000385000Y0000165000D03*
X0000375000Y0000165000D03*
X0000375000Y0000250000D03*
X0000310000Y0000170000D03*
X0000360000Y0000195000D03*
X0000375000Y0000175000D03*
X0000295000Y0000150000D03*
X0000375000Y0000185000D03*
X0000360000Y0000200000D03*
X0000284573Y0000165000D03*
X0000375000Y0000170000D03*
X0000380000Y0000210000D03*
X0000265000Y0000150000D03*
X0000360000Y0000225000D03*
X0000410000Y0000250000D03*
X0000405000Y0000280000D03*
X0000400000Y0000280000D03*
X0000405000Y0000175000D03*
X0000400000Y0000175000D03*
X0000305000Y0000345000D03*
X0000307500Y0000317500D03*
X0000287500Y0000317500D03*
X0000277500Y0000317500D03*
X0000267500Y0000317500D03*
X0000257500Y0000317500D03*
X0000327500Y0000317500D03*
X0000377500Y0000325000D03*
X0000302500Y0000325000D03*
X0000292500Y0000325000D03*
X0000390000Y0000065000D03*
X0000390000Y0000070000D03*
X0000390000Y0000090000D03*
X0000390000Y0000095000D03*
X0000390000Y0000115000D03*
X0000287500Y0000332500D03*
X0000277500Y0000332500D03*
X0000325000Y0000295000D03*
X0000257500Y0000345000D03*
X0000265000Y0000345000D03*
X0000255000Y0000105000D03*
X0000490000Y0000060000D03*
X0000270000Y0000165000D03*
X0000325000Y0000345000D03*
X0000310000Y0000345000D03*
X0000350000Y0000317500D03*
X0000345000Y0000317500D03*
X0000340000Y0000305000D03*
X0000350000Y0000305000D03*
X0000315000Y0000330000D03*
X0000340000Y0000317500D03*
X0000345000Y0000305000D03*
X0000340000Y0000345000D03*
X0000335000Y0000330000D03*
X0000335000Y0000345000D03*
X0000310100Y0000330000D03*
X0000255000Y0000330000D03*
X0000345000Y0000345000D03*
X0000320000Y0000345000D03*
X0000338000Y0000145000D03*
X0000325000Y0000330000D03*
X0000278000Y0000145000D03*
X0000320000Y0000330000D03*
X0000330000Y0000305000D03*
X0000330000Y0000345000D03*
X0000291500Y0000145000D03*
X0000335000Y0000317500D03*
X0000281500Y0000145000D03*
X0000341500Y0000145000D03*
X0000335000Y0000305000D03*
X0000288000Y0000145000D03*
X0000255000Y0000200000D03*
X0000334000Y0000271000D03*
X0000343500Y0000330000D03*
X0000360000Y0000345000D03*
X0000348655Y0000330155D03*
G54D22*
X0000272000Y0000303500D03*
X0000312500Y0000291500D03*
X0000285000Y0000346500D03*
X0000275000Y0000346500D03*
X0000315500Y0000291500D03*
X0000282000Y0000346500D03*
X0000272000Y0000346500D03*
X0000326500Y0000148500D03*
X0000314500Y0000148500D03*
X0000323500Y0000148500D03*
X0000311500Y0000148500D03*
X0000275000Y0000303500D03*
G54D23*
G01X0000142500Y0000012500D02*
X0000146700Y0000012500D01*
G01X0000138300Y0000012500D02*
X0000142500Y0000012500D01*
G01X0000142500Y0000012500D02*
X0000142500Y0000016700D01*
G01X0000142500Y0000008300D02*
X0000142500Y0000012500D01*
G01X0000180000Y0000012500D02*
X0000184200Y0000012500D01*
G01X0000175800Y0000012500D02*
X0000180000Y0000012500D01*
G01X0000180000Y0000012500D02*
X0000180000Y0000016700D01*
G01X0000180000Y0000008300D02*
X0000180000Y0000012500D01*
G01X0000337461Y0000039980D02*
X0000343161Y0000039980D01*
G01X0000331761Y0000039980D02*
X0000337461Y0000039980D01*
G01X0000337461Y0000039980D02*
X0000337461Y0000045680D01*
G01X0000337461Y0000034280D02*
X0000337461Y0000039980D01*
G01X0000337461Y0000027500D02*
X0000343161Y0000027500D01*
G01X0000331761Y0000027500D02*
X0000337461Y0000027500D01*
G01X0000337461Y0000027500D02*
X0000337461Y0000033200D01*
G01X0000337461Y0000021800D02*
X0000337461Y0000027500D01*
G01X0000287539Y0000027500D02*
X0000293239Y0000027500D01*
G01X0000281839Y0000027500D02*
X0000287539Y0000027500D01*
G01X0000287539Y0000027500D02*
X0000287539Y0000033200D01*
G01X0000287539Y0000021800D02*
X0000287539Y0000027500D01*
G01X0000447500Y0000151240D02*
X0000453200Y0000151240D01*
G01X0000441800Y0000151240D02*
X0000447500Y0000151240D01*
G01X0000447500Y0000151240D02*
X0000447500Y0000156940D01*
G01X0000447500Y0000145540D02*
X0000447500Y0000151240D01*
G01X0000447492Y0000093988D02*
X0000453192Y0000093988D01*
G01X0000441792Y0000093988D02*
X0000447492Y0000093988D01*
G01X0000447492Y0000093988D02*
X0000447492Y0000099688D01*
G01X0000447492Y0000088288D02*
X0000447492Y0000093988D01*
G54D14*
X0000119330Y0000320000D03*
X0000111456Y0000320000D03*
X0000103582Y0000320000D03*
X0000095708Y0000320000D03*
X0000119330Y0000330000D03*
X0000111456Y0000330000D03*
X0000103582Y0000330000D03*
X0000095708Y0000330000D03*
X0000392480Y0000320000D03*
X0000400354Y0000320000D03*
X0000408228Y0000320000D03*
X0000416102Y0000320000D03*
X0000392480Y0000330000D03*
X0000400354Y0000330000D03*
X0000408228Y0000330000D03*
X0000416102Y0000330000D03*
G54D24*
G01X0000075000Y0000200000D02*
X0000070000Y0000195000D01*
X0000070000Y0000173000D01*
X0000085500Y0000157500D01*
X0000166000Y0000157500D01*
X0000169500Y0000154000D01*
X0000169500Y0000141500D01*
X0000183350Y0000127650D01*
X0000226150Y0000127650D01*
X0000232650Y0000134150D01*
X0000232650Y0000151150D01*
X0000239000Y0000157500D01*
X0000373500Y0000157500D01*
X0000393650Y0000137350D01*
X0000395974Y0000137350D01*
X0000400000Y0000133324D01*
X0000400000Y0000095500D01*
X0000428000Y0000067500D01*
X0000462500Y0000067500D01*
X0000475000Y0000055000D01*
G01X0000060000Y0000195000D02*
X0000057500Y0000192500D01*
X0000057500Y0000172500D01*
X0000082000Y0000148000D01*
X0000110000Y0000148000D01*
X0000135500Y0000122500D01*
X0000227000Y0000122500D01*
X0000237500Y0000133000D01*
X0000237500Y0000151000D01*
X0000240500Y0000154000D01*
X0000367500Y0000154000D01*
X0000377500Y0000144000D01*
X0000377500Y0000062500D01*
X0000387500Y0000052500D01*
X0000397500Y0000052500D01*
X0000400000Y0000050000D01*
G01X0000067500Y0000180000D02*
X0000067500Y0000206000D01*
X0000074150Y0000212650D01*
X0000096650Y0000212650D01*
X0000116500Y0000232500D01*
X0000125000Y0000232500D01*
X0000129500Y0000237000D01*
X0000137000Y0000237000D01*
X0000142500Y0000242500D01*
X0000202500Y0000242500D01*
X0000215000Y0000255000D01*
G01X0000225000Y0000135000D02*
X0000221500Y0000131500D01*
X0000194000Y0000131500D01*
X0000178500Y0000147000D01*
X0000178500Y0000152000D01*
X0000169500Y0000161000D01*
X0000085500Y0000161000D01*
X0000072500Y0000174000D01*
X0000072500Y0000186500D01*
X0000077350Y0000191350D01*
X0000077350Y0000207650D01*
X0000075000Y0000210000D01*
G01X0000150000Y0000280000D02*
X0000147500Y0000282500D01*
X0000071000Y0000282500D01*
X0000052000Y0000263500D01*
X0000052000Y0000209000D01*
X0000058500Y0000202500D01*
X0000061500Y0000202500D01*
X0000063000Y0000201000D01*
X0000063000Y0000193000D01*
X0000060000Y0000190000D01*
G01X0000255000Y0000105000D02*
X0000242350Y0000117650D01*
X0000131350Y0000117650D01*
X0000106000Y0000143000D01*
X0000081500Y0000143000D01*
X0000050500Y0000174000D01*
X0000050500Y0000190500D01*
X0000060000Y0000200000D01*
G54D15*
X0000135155Y0000332500D03*
X0000376655Y0000332500D03*
G54D25*
G01X0000473370Y0000231300D02*
X0000473370Y0000231812D01*
X0000474920Y0000233362D01*
X0000474920Y0000233575D01*
G01X0000476519Y0000231019D02*
X0000476569Y0000231069D01*
X0000476569Y0000231899D01*
X0000478069Y0000233399D01*
X0000478069Y0000233569D01*
G01X0000467071Y0000231568D02*
X0000467071Y0000231881D01*
X0000468621Y0000233431D01*
X0000468621Y0000234075D01*
G01X0000470296Y0000231852D02*
X0000471771Y0000233327D01*
X0000471771Y0000234075D01*
G01X0000460722Y0000231756D02*
X0000462322Y0000233356D01*
X0000462322Y0000234075D01*
G01X0000468621Y0000230925D02*
X0000468621Y0000231804D01*
X0000470121Y0000233304D01*
X0000470121Y0000235379D01*
X0000470096Y0000235404D01*
G01X0000467021Y0000235800D02*
X0000467021Y0000233387D01*
X0000465471Y0000231837D01*
X0000465471Y0000230925D01*
G01X0000476500Y0000235800D02*
X0000476500Y0000233386D01*
X0000474920Y0000231806D01*
X0000474920Y0000230925D01*
G01X0000473445Y0000233445D02*
X0000471771Y0000231771D01*
X0000471771Y0000230925D01*
G01X0000482817Y0000233195D02*
X0000481218Y0000231596D01*
X0000481218Y0000230925D01*
G01X0000479718Y0000235800D02*
X0000479718Y0000233492D01*
X0000478069Y0000231843D01*
X0000478069Y0000230925D01*
G01X0000457523Y0000234697D02*
X0000457523Y0000233367D01*
X0000456023Y0000231867D01*
X0000456023Y0000230925D01*
G01X0000460647Y0000235353D02*
X0000460672Y0000235328D01*
X0000460672Y0000233333D01*
X0000459172Y0000231833D01*
X0000459172Y0000230925D01*
G01X0000463971Y0000235771D02*
X0000463971Y0000233449D01*
X0000462322Y0000231800D01*
X0000462322Y0000230925D01*
G01X0000465471Y0000234075D02*
X0000465471Y0000233393D01*
X0000463971Y0000231893D01*
X0000463971Y0000231000D01*
X0000463921Y0000230950D01*
G01X0000479668Y0000231815D02*
X0000481218Y0000233365D01*
G01X0000459172Y0000233460D02*
X0000457573Y0000231861D01*
X0000457573Y0000231573D01*
G01X0000456023Y0000234075D02*
X0000456023Y0000233423D01*
X0000454473Y0000231873D01*
X0000454473Y0000230282D01*
X0000455173Y0000229582D01*
G01X0000454500Y0000233500D02*
X0000452873Y0000231873D01*
X0000452873Y0000230925D01*
G01X0000484367Y0000233118D02*
X0000482817Y0000231568D01*
G54D16*
X0000010000Y0000152500D03*
X0000010000Y0000142500D03*
X0000020000Y0000152500D03*
X0000020000Y0000142500D03*
X0000010000Y0000092500D03*
X0000020000Y0000102500D03*
X0000010000Y0000102500D03*
X0000020000Y0000112500D03*
X0000010000Y0000112500D03*
X0000020000Y0000122500D03*
X0000010000Y0000122500D03*
X0000020000Y0000132500D03*
X0000010000Y0000132500D03*
X0000010000Y0000252500D03*
X0000020000Y0000262500D03*
X0000010000Y0000262500D03*
X0000020000Y0000272500D03*
X0000010000Y0000272500D03*
X0000020000Y0000282500D03*
X0000010000Y0000282500D03*
X0000020000Y0000292500D03*
X0000010000Y0000292500D03*
G54D26*
G01X0000182780Y-0000025000D02*
X0000185905Y-0000015000D01*
X0000189030Y-0000025000D01*
G01X0000187905Y-0000021500D02*
X0000183905Y-0000021500D01*
G01X0000193405Y-0000025000D02*
X0000193405Y-0000015000D01*
X0000196530Y-0000015000D01*
X0000197530Y-0000015500D01*
X0000198155Y-0000016167D01*
X0000198405Y-0000017500D01*
X0000198155Y-0000018833D01*
X0000197405Y-0000019667D01*
X0000196530Y-0000020167D01*
X0000193405Y-0000020167D01*
G01X0000196530Y-0000020167D02*
X0000198405Y-0000025000D01*
G01X0000205905Y-0000015000D02*
X0000205905Y-0000025000D01*
G01X0000203030Y-0000015000D02*
X0000208780Y-0000015000D01*
G01X0000212155Y-0000015000D02*
X0000213905Y-0000025000D01*
X0000215905Y-0000015000D01*
X0000217905Y-0000025000D01*
X0000219655Y-0000015000D01*
G01X0000225905Y-0000025000D02*
X0000224905Y-0000024833D01*
X0000224030Y-0000024167D01*
X0000223280Y-0000023167D01*
X0000222780Y-0000022000D01*
X0000222530Y-0000020667D01*
X0000222530Y-0000019333D01*
X0000222780Y-0000018000D01*
X0000223280Y-0000016833D01*
X0000224030Y-0000015833D01*
X0000224905Y-0000015167D01*
X0000225905Y-0000015000D01*
X0000226905Y-0000015167D01*
X0000227780Y-0000015833D01*
X0000228530Y-0000016833D01*
X0000229030Y-0000018000D01*
X0000229280Y-0000019333D01*
X0000229280Y-0000020667D01*
X0000229030Y-0000022000D01*
X0000228530Y-0000023167D01*
X0000227780Y-0000024167D01*
X0000226905Y-0000024833D01*
X0000225905Y-0000025000D01*
G01X0000233405Y-0000025000D02*
X0000233405Y-0000015000D01*
X0000236530Y-0000015000D01*
X0000237530Y-0000015500D01*
X0000238155Y-0000016167D01*
X0000238405Y-0000017500D01*
X0000238155Y-0000018833D01*
X0000237405Y-0000019667D01*
X0000236530Y-0000020167D01*
X0000233405Y-0000020167D01*
G01X0000236530Y-0000020167D02*
X0000238405Y-0000025000D01*
G01X0000243155Y-0000025000D02*
X0000243155Y-0000015000D01*
G01X0000247905Y-0000015000D02*
X0000243155Y-0000021167D01*
G01X0000248655Y-0000025000D02*
X0000245280Y-0000018334D01*
G01X0000263405Y-0000015000D02*
X0000263405Y-0000025000D01*
X0000268405Y-0000025000D01*
G01X0000272780Y-0000025000D02*
X0000275905Y-0000015000D01*
X0000279030Y-0000025000D01*
G01X0000277905Y-0000021500D02*
X0000273905Y-0000021500D01*
G01X0000285905Y-0000025000D02*
X0000285905Y-0000020500D01*
X0000283405Y-0000015000D01*
G01X0000288405Y-0000015000D02*
X0000285905Y-0000020500D01*
G01X0000298405Y-0000025000D02*
X0000293405Y-0000025000D01*
X0000293405Y-0000015000D01*
X0000298405Y-0000015000D01*
G01X0000296405Y-0000019833D02*
X0000293405Y-0000019833D01*
G01X0000303405Y-0000025000D02*
X0000303405Y-0000015000D01*
X0000306530Y-0000015000D01*
X0000307530Y-0000015500D01*
X0000308155Y-0000016167D01*
X0000308405Y-0000017500D01*
X0000308155Y-0000018833D01*
X0000307405Y-0000019667D01*
X0000306530Y-0000020167D01*
X0000303405Y-0000020167D01*
G01X0000306530Y-0000020167D02*
X0000308405Y-0000025000D01*
G01X0000315905Y-0000015000D02*
X0000314905Y-0000015333D01*
X0000314155Y-0000016167D01*
X0000313655Y-0000017167D01*
X0000313280Y-0000018500D01*
X0000313155Y-0000020000D01*
X0000313280Y-0000021500D01*
X0000313655Y-0000022833D01*
X0000314155Y-0000023834D01*
X0000314905Y-0000024667D01*
X0000315905Y-0000025000D01*
X0000316905Y-0000024667D01*
X0000317655Y-0000023834D01*
X0000318155Y-0000022833D01*
X0000318530Y-0000021500D01*
X0000318655Y-0000020000D01*
X0000318530Y-0000018500D01*
X0000318155Y-0000017167D01*
X0000317655Y-0000016167D01*
X0000316905Y-0000015333D01*
X0000315905Y-0000015000D01*
G01X0000325905Y-0000025000D02*
X0000326780Y-0000024833D01*
X0000327780Y-0000024333D01*
X0000328405Y-0000023500D01*
X0000328655Y-0000022333D01*
X0000328405Y-0000021167D01*
X0000327655Y-0000020167D01*
X0000326530Y-0000019667D01*
X0000325280Y-0000019667D01*
X0000324530Y-0000019333D01*
X0000323905Y-0000018500D01*
X0000323655Y-0000017333D01*
X0000324030Y-0000016167D01*
X0000324905Y-0000015333D01*
X0000325905Y-0000015000D01*
X0000326905Y-0000015333D01*
X0000327780Y-0000016167D01*
X0000328155Y-0000017333D01*
X0000327905Y-0000018500D01*
X0000327280Y-0000019333D01*
X0000326530Y-0000019667D01*
X0000325280Y-0000019667D01*
X0000324155Y-0000020167D01*
X0000323405Y-0000021167D01*
X0000323155Y-0000022333D01*
X0000323405Y-0000023500D01*
X0000324030Y-0000024333D01*
X0000325030Y-0000024833D01*
X0000325905Y-0000025000D01*
G01X0Y0D02*
X0000511811Y0D01*
X0000511811Y0000354331D01*
X0Y0000354331D01*
X0Y0D01*
G01X0000110000Y0000180000D02*
X0000111900Y0000178100D01*
X0000208100Y0000178100D01*
X0000213100Y0000183100D01*
X0000253100Y0000183100D01*
X0000261678Y0000191678D01*
X0000270379Y0000191678D01*
X0000271929Y0000193228D01*
G01X0000135000Y0000245000D02*
X0000171000Y0000245000D01*
X0000198100Y0000272100D01*
X0000198100Y0000303100D01*
X0000200000Y0000305000D01*
G01X0000080000Y0000175000D02*
X0000089500Y0000175000D01*
X0000092500Y0000178000D01*
X0000092500Y0000181000D01*
X0000097500Y0000186000D01*
X0000204500Y0000186000D01*
X0000210400Y0000191900D01*
X0000256504Y0000191900D01*
X0000260982Y0000196378D01*
X0000268779Y0000196378D01*
G01X0000080000Y0000195000D02*
X0000080000Y0000203500D01*
X0000084000Y0000207500D01*
X0000096500Y0000207500D01*
X0000116500Y0000227500D01*
X0000124500Y0000227500D01*
X0000131500Y0000234500D01*
X0000148000Y0000234500D01*
X0000151000Y0000237500D01*
X0000247500Y0000237500D01*
X0000250000Y0000240000D01*
G01X0000275000Y0000165000D02*
X0000272500Y0000167500D01*
X0000117100Y0000167500D01*
X0000115000Y0000169600D01*
G01X0000082500Y0000200000D02*
X0000093500Y0000200000D01*
X0000102500Y0000209000D01*
X0000102500Y0000210500D01*
X0000114500Y0000222500D01*
X0000122000Y0000222500D01*
X0000132600Y0000233100D01*
X0000248100Y0000233100D01*
X0000250000Y0000235000D01*
G01X0000250000Y0000270000D02*
X0000246000Y0000274000D01*
X0000246000Y0000277000D01*
X0000201000Y0000322000D01*
X0000200500Y0000322000D01*
X0000192500Y0000330000D01*
G01X0000135000Y0000210000D02*
X0000133000Y0000212000D01*
X0000133000Y0000215688D01*
X0000134212Y0000216900D01*
X0000157100Y0000216900D01*
X0000162100Y0000211900D01*
X0000259176Y0000211900D01*
X0000260500Y0000210576D01*
X0000267179Y0000210576D01*
X0000268779Y0000208976D01*
G01X0000114785Y0000180000D02*
X0000118785Y0000184000D01*
X0000205000Y0000184000D01*
X0000209100Y0000188100D01*
X0000254402Y0000188100D01*
X0000261130Y0000194828D01*
X0000270328Y0000194828D01*
X0000271878Y0000196378D01*
X0000271929Y0000196378D01*
G01X0000190000Y0000317500D02*
X0000191900Y0000315600D01*
X0000191900Y0000284900D01*
X0000160500Y0000253500D01*
X0000135000Y0000253500D01*
X0000124000Y0000242500D01*
X0000112500Y0000242500D01*
X0000110079Y0000240079D01*
G01X0000080000Y0000180000D02*
X0000082000Y0000178000D01*
X0000086888Y0000178000D01*
X0000088100Y0000179212D01*
X0000088100Y0000181100D01*
X0000095000Y0000188000D01*
X0000199000Y0000188000D01*
X0000204100Y0000193100D01*
X0000256006Y0000193100D01*
X0000260883Y0000197977D01*
X0000270379Y0000197977D01*
X0000271929Y0000199527D01*
G01X0000185000Y0000305000D02*
X0000182500Y0000302500D01*
X0000182500Y0000280500D01*
X0000158500Y0000256500D01*
X0000133000Y0000256500D01*
X0000123000Y0000246500D01*
X0000092000Y0000246500D01*
X0000087500Y0000242000D01*
X0000087500Y0000223500D01*
X0000080900Y0000216900D01*
X0000061900Y0000216900D01*
X0000060000Y0000215000D01*
G01X0000175000Y0000305000D02*
X0000175000Y0000275605D01*
X0000157395Y0000258000D01*
X0000132000Y0000258000D01*
X0000122500Y0000248500D01*
X0000090500Y0000248500D01*
X0000083100Y0000241100D01*
X0000083100Y0000223100D01*
X0000080000Y0000220000D01*
G01X0000085000Y0000195000D02*
X0000086900Y0000193100D01*
X0000106100Y0000193100D01*
X0000117500Y0000204500D01*
X0000117500Y0000206000D01*
X0000119000Y0000207500D01*
X0000120188Y0000207500D01*
X0000133100Y0000220412D01*
X0000133100Y0000220788D01*
X0000134212Y0000221900D01*
X0000158100Y0000221900D01*
X0000165500Y0000214500D01*
X0000231000Y0000214500D01*
X0000233400Y0000216900D01*
X0000264005Y0000216900D01*
X0000265630Y0000215275D01*
G01X0000271929Y0000205827D02*
X0000270379Y0000204277D01*
X0000268136Y0000204277D01*
X0000266187Y0000206226D01*
X0000259508Y0000206226D01*
X0000258834Y0000206900D01*
X0000220100Y0000206900D01*
X0000218700Y0000205500D01*
X0000162000Y0000205500D01*
X0000155500Y0000212000D01*
X0000139312Y0000212000D01*
X0000138000Y0000210688D01*
X0000138000Y0000208000D01*
X0000135000Y0000205000D01*
G01X0000176000Y0000330000D02*
X0000169000Y0000323000D01*
X0000165000Y0000323000D01*
X0000157200Y0000315200D01*
X0000157200Y0000274200D01*
X0000155500Y0000272500D01*
X0000074500Y0000272500D01*
X0000060000Y0000258000D01*
X0000060000Y0000240000D01*
G01X0000134000Y0000200000D02*
X0000136000Y0000198000D01*
X0000196000Y0000198000D01*
X0000196100Y0000198100D01*
X0000251100Y0000198100D01*
X0000253000Y0000200000D01*
X0000253000Y0000200688D01*
X0000254312Y0000202000D01*
X0000257500Y0000202000D01*
X0000258423Y0000201077D01*
X0000270329Y0000201077D01*
X0000271929Y0000202677D01*
G01X0000268779Y0000202677D02*
X0000267823Y0000202677D01*
X0000265500Y0000205000D01*
X0000253500Y0000205000D01*
X0000251600Y0000203100D01*
X0000160900Y0000203100D01*
X0000156500Y0000207500D01*
X0000147500Y0000207500D01*
X0000145000Y0000210000D01*
G01X0000262480Y0000202677D02*
X0000258521Y0000202677D01*
X0000257998Y0000203200D01*
X0000253814Y0000203200D01*
X0000252514Y0000201900D01*
X0000148100Y0000201900D01*
X0000140000Y0000210000D01*
G01X0000075000Y0000175000D02*
X0000078000Y0000172000D01*
X0000114005Y0000172000D01*
X0000114006Y0000172001D01*
X0000115994Y0000172001D01*
X0000117595Y0000170400D01*
X0000216400Y0000170400D01*
X0000217900Y0000171900D01*
X0000254707Y0000171900D01*
X0000261837Y0000179030D01*
X0000270329Y0000179030D01*
X0000271929Y0000180630D01*
G01X0000105000Y0000195000D02*
X0000107500Y0000197500D01*
X0000107500Y0000206000D01*
X0000116500Y0000215000D01*
X0000120000Y0000215000D01*
X0000133100Y0000228100D01*
X0000255600Y0000228100D01*
X0000264823Y0000237323D01*
X0000265630Y0000237323D01*
G01X0000080000Y0000225000D02*
X0000081900Y0000226900D01*
X0000081900Y0000259900D01*
X0000085000Y0000263000D01*
X0000155605Y0000263000D01*
X0000162000Y0000269395D01*
X0000162000Y0000307188D01*
X0000167812Y0000313000D01*
X0000179388Y0000313000D01*
X0000182500Y0000316112D01*
X0000182500Y0000329000D01*
X0000183500Y0000330000D01*
G01X0000271929Y0000249921D02*
X0000267180Y0000254670D01*
X0000267180Y0000263320D01*
X0000257500Y0000273000D01*
X0000257500Y0000304500D01*
X0000247500Y0000314500D01*
X0000247500Y0000327500D01*
X0000245000Y0000330000D01*
G01X0000190000Y0000220000D02*
X0000192000Y0000218000D01*
X0000197500Y0000218000D01*
X0000201400Y0000221900D01*
X0000256400Y0000221900D01*
X0000260824Y0000226324D01*
X0000272572Y0000226324D01*
X0000273500Y0000227252D01*
X0000273500Y0000248350D01*
X0000271929Y0000249921D01*
G01X0000271929Y0000246772D02*
X0000270329Y0000245172D01*
X0000270329Y0000230381D01*
X0000269422Y0000229474D01*
X0000261474Y0000229474D01*
X0000255100Y0000223100D01*
X0000198100Y0000223100D01*
X0000195000Y0000220000D01*
G01X0000250000Y0000305000D02*
X0000253000Y0000302000D01*
X0000253000Y0000265000D01*
X0000267180Y0000250820D01*
X0000267180Y0000249320D01*
X0000268178Y0000248322D01*
X0000270379Y0000248322D01*
X0000271929Y0000246772D01*
G01X0000105000Y0000200000D02*
X0000105000Y0000206000D01*
X0000115500Y0000216500D01*
X0000119500Y0000216500D01*
X0000124500Y0000221500D01*
X0000124500Y0000222500D01*
X0000133900Y0000231900D01*
X0000250900Y0000231900D01*
X0000256323Y0000237323D01*
X0000262480Y0000237323D01*
G01X0000275079Y0000183779D02*
X0000273480Y0000182180D01*
X0000263180Y0000182180D01*
X0000254100Y0000173100D01*
X0000217000Y0000173100D01*
X0000215500Y0000171600D01*
X0000118093Y0000171600D01*
X0000115693Y0000174000D01*
X0000110000Y0000174000D01*
X0000105000Y0000179000D01*
X0000105000Y0000180000D01*
G01X0000275079Y0000186929D02*
X0000273479Y0000185329D01*
X0000264329Y0000185329D01*
X0000255900Y0000176900D01*
X0000215400Y0000176900D01*
X0000211300Y0000172800D01*
X0000119200Y0000172800D01*
X0000116000Y0000176000D01*
X0000110500Y0000176000D01*
X0000107500Y0000179000D01*
X0000107500Y0000180500D01*
X0000106000Y0000182000D01*
X0000097000Y0000182000D01*
X0000095000Y0000180000D01*
G01X0000271929Y0000215275D02*
X0000271725Y0000215275D01*
X0000268900Y0000218100D01*
X0000230100Y0000218100D01*
X0000228500Y0000216500D01*
X0000166000Y0000216500D01*
X0000159400Y0000223100D01*
X0000133100Y0000223100D01*
X0000120000Y0000210000D01*
G01X0000180000Y0000305000D02*
X0000177500Y0000307500D01*
X0000173500Y0000307500D01*
X0000172600Y0000306600D01*
X0000172600Y0000276600D01*
X0000156400Y0000260400D01*
X0000131005Y0000260400D01*
X0000125605Y0000255000D01*
X0000085000Y0000255000D01*
G01X0000075000Y0000225000D02*
X0000067500Y0000232500D01*
X0000059500Y0000232500D01*
X0000057000Y0000235000D01*
X0000057000Y0000258500D01*
X0000075500Y0000277000D01*
X0000150500Y0000277000D01*
X0000152500Y0000279000D01*
X0000152500Y0000314000D01*
X0000164500Y0000326000D01*
X0000168000Y0000326000D01*
X0000172000Y0000330000D01*
G01X0000115000Y0000240000D02*
X0000124000Y0000240000D01*
X0000136000Y0000252000D01*
X0000165000Y0000252000D01*
X0000193100Y0000280100D01*
X0000193100Y0000317088D01*
X0000190788Y0000319400D01*
X0000186900Y0000319400D01*
X0000185000Y0000317500D01*
G01X0000165000Y0000152500D02*
X0000087000Y0000152500D01*
X0000065500Y0000174000D01*
X0000065500Y0000204500D01*
X0000060000Y0000210000D01*
G01X0000090000Y0000235000D02*
X0000092500Y0000237500D01*
X0000092500Y0000241500D01*
X0000095500Y0000244500D01*
X0000123500Y0000244500D01*
X0000134000Y0000255000D01*
X0000159500Y0000255000D01*
X0000187500Y0000283000D01*
X0000187500Y0000302500D01*
X0000190000Y0000305000D01*
G01X0000180000Y0000317500D02*
X0000178000Y0000315500D01*
X0000168000Y0000315500D01*
X0000160500Y0000308000D01*
X0000160500Y0000270500D01*
X0000156900Y0000266900D01*
X0000083900Y0000266900D01*
X0000078100Y0000261100D01*
X0000078100Y0000219600D01*
X0000076600Y0000218100D01*
X0000061900Y0000218100D01*
X0000060000Y0000220000D01*
G01X0000179500Y0000330000D02*
X0000158750Y0000309250D01*
X0000158750Y0000270850D01*
X0000156000Y0000268100D01*
X0000082600Y0000268100D01*
X0000076900Y0000262400D01*
X0000076900Y0000221900D01*
X0000075000Y0000220000D01*
G01X0000110000Y0000200000D02*
X0000112300Y0000202300D01*
X0000112300Y0000205300D01*
X0000133900Y0000226900D01*
X0000256098Y0000226900D01*
X0000264921Y0000235723D01*
X0000267179Y0000235723D01*
X0000268779Y0000237323D01*
G01X0000255000Y0000200000D02*
X0000251900Y0000196900D01*
X0000205900Y0000196900D01*
X0000200900Y0000191900D01*
X0000096900Y0000191900D01*
X0000085000Y0000180000D01*
G01X0000120000Y0000175000D02*
X0000121900Y0000176900D01*
X0000209500Y0000176900D01*
X0000214500Y0000181900D01*
X0000254900Y0000181900D01*
X0000261479Y0000188479D01*
X0000272522Y0000188479D01*
X0000273479Y0000189436D01*
X0000273479Y0000190979D01*
X0000274129Y0000191629D01*
X0000276129Y0000191629D01*
X0000281000Y0000196500D01*
X0000324500Y0000196500D01*
X0000330172Y0000190828D01*
X0000330172Y0000188529D01*
X0000331772Y0000186929D01*
G01X0000268779Y0000212126D02*
X0000267229Y0000213676D01*
X0000260133Y0000213676D01*
X0000259557Y0000213100D01*
X0000163900Y0000213100D01*
X0000158900Y0000218100D01*
X0000133500Y0000218100D01*
X0000122500Y0000207100D01*
X0000122500Y0000197500D01*
X0000120000Y0000195000D01*
G01X0000190000Y0000345000D02*
X0000190000Y0000326500D01*
X0000196900Y0000319600D01*
X0000196900Y0000273900D01*
X0000170500Y0000247500D01*
X0000134000Y0000247500D01*
X0000132500Y0000246000D01*
X0000132500Y0000242500D01*
X0000135000Y0000240000D01*
G01X0000271929Y0000208976D02*
X0000270379Y0000207426D01*
X0000260574Y0000207426D01*
X0000259900Y0000208100D01*
X0000211600Y0000208100D01*
X0000210200Y0000209500D01*
X0000161500Y0000209500D01*
X0000156000Y0000215000D01*
X0000135000Y0000215000D01*
G01X0000120000Y0000180000D02*
X0000122000Y0000182000D01*
X0000205000Y0000182000D01*
X0000209900Y0000186900D01*
X0000254900Y0000186900D01*
X0000261228Y0000193228D01*
X0000265630Y0000193228D01*
G01X0000338071Y0000262520D02*
X0000338071Y0000262571D01*
X0000343000Y0000267500D01*
X0000345500Y0000267500D01*
X0000368000Y0000290000D01*
X0000368000Y0000298028D01*
X0000367400Y0000298628D01*
X0000365500Y0000298628D01*
X0000364900Y0000299228D01*
X0000364900Y0000301628D01*
X0000365500Y0000302228D01*
X0000367400Y0000302228D01*
X0000368000Y0000302828D01*
X0000368000Y0000306500D01*
X0000367500Y0000307000D01*
X0000365500Y0000307000D01*
X0000365000Y0000307500D01*
X0000365000Y0000310500D01*
X0000365500Y0000311000D01*
X0000369500Y0000311000D01*
X0000370000Y0000311500D01*
X0000370000Y0000314000D01*
X0000369500Y0000314500D01*
X0000365500Y0000314500D01*
X0000365000Y0000315000D01*
X0000365000Y0000320731D01*
X0000365600Y0000321331D01*
X0000367400Y0000321331D01*
X0000368000Y0000321931D01*
X0000368000Y0000324500D01*
X0000362500Y0000330000D01*
G01X0000345000Y0000300000D02*
X0000342000Y0000300000D01*
X0000337500Y0000295500D01*
X0000337500Y0000293500D01*
X0000336000Y0000292000D01*
X0000333000Y0000292000D01*
X0000321900Y0000280900D01*
X0000321900Y0000264290D01*
X0000320773Y0000263163D01*
X0000320773Y0000257771D01*
X0000322323Y0000256221D01*
G01X0000350000Y0000300000D02*
X0000348000Y0000298000D01*
X0000348000Y0000294500D01*
X0000346500Y0000293000D01*
X0000341605Y0000293000D01*
X0000337302Y0000288697D01*
X0000335697Y0000288697D01*
X0000328000Y0000281000D01*
X0000328000Y0000268500D01*
X0000323923Y0000264423D01*
X0000323923Y0000261821D01*
X0000322323Y0000260221D01*
X0000322323Y0000259370D01*
G01X0000355000Y0000345000D02*
X0000351000Y0000341000D01*
X0000351000Y0000325500D01*
X0000352500Y0000324000D01*
X0000352500Y0000312000D01*
X0000355000Y0000309500D01*
X0000355000Y0000291500D01*
X0000351000Y0000287500D01*
X0000349500Y0000287500D01*
X0000337500Y0000275500D01*
X0000337500Y0000271500D01*
X0000335000Y0000269000D01*
X0000332500Y0000269000D01*
X0000327023Y0000263523D01*
X0000327023Y0000261877D01*
X0000326116Y0000260970D01*
X0000324770Y0000260970D01*
X0000323873Y0000260073D01*
X0000323873Y0000257821D01*
X0000325473Y0000256221D01*
G01X0000367500Y0000330000D02*
X0000367500Y0000328395D01*
X0000372250Y0000323645D01*
X0000372250Y0000277750D01*
X0000359000Y0000264500D01*
X0000343500Y0000264500D01*
X0000339671Y0000260671D01*
X0000339671Y0000258727D01*
X0000338715Y0000257771D01*
X0000334278Y0000257771D01*
X0000332728Y0000256221D01*
X0000331772Y0000256221D01*
G01X0000474920Y0000201575D02*
X0000474920Y0000223500D01*
X0000473370Y0000225050D01*
X0000473370Y0000231300D01*
G01X0000474920Y0000233575D02*
X0000474920Y0000234075D01*
G01X0000474920Y0000266575D02*
X0000473370Y0000265025D01*
X0000473370Y0000259432D01*
X0000475300Y0000257502D01*
X0000475300Y0000234455D01*
X0000474920Y0000234075D01*
G01X0000478069Y0000234075D02*
X0000478069Y0000258500D01*
X0000476500Y0000260069D01*
X0000476500Y0000265006D01*
X0000478069Y0000266575D01*
G01X0000478069Y0000201575D02*
X0000478069Y0000224931D01*
X0000476519Y0000226481D01*
X0000476519Y0000231019D01*
G01X0000478069Y0000233569D02*
X0000478069Y0000234075D01*
G01X0000468621Y0000266575D02*
X0000467021Y0000264975D01*
X0000467021Y0000256979D01*
X0000470300Y0000253700D01*
X0000470300Y0000238300D01*
X0000468621Y0000236621D01*
X0000468621Y0000234075D01*
G01X0000468621Y0000201575D02*
X0000468621Y0000202819D01*
X0000469770Y0000203968D01*
X0000469770Y0000219851D01*
X0000467071Y0000222550D01*
X0000467071Y0000231568D01*
G01X0000325473Y0000259370D02*
X0000326370Y0000259370D01*
X0000327969Y0000260969D01*
X0000329314Y0000260969D01*
X0000330222Y0000261877D01*
X0000330222Y0000263222D01*
X0000334000Y0000267000D01*
X0000336000Y0000267000D01*
X0000342500Y0000273500D01*
X0000342500Y0000275500D01*
X0000349500Y0000282500D01*
X0000351000Y0000282500D01*
X0000357500Y0000289000D01*
X0000357500Y0000323000D01*
X0000355600Y0000324900D01*
X0000355600Y0000340100D01*
X0000357600Y0000342100D01*
X0000357600Y0000345995D01*
X0000359005Y0000347400D01*
X0000362600Y0000347400D01*
X0000365000Y0000345000D01*
G01X0000471771Y0000266575D02*
X0000470221Y0000265025D01*
X0000470221Y0000258279D01*
X0000472700Y0000255800D01*
X0000472700Y0000236753D01*
X0000471771Y0000235824D01*
X0000471771Y0000234075D01*
G01X0000471771Y0000201575D02*
X0000472170Y0000201974D01*
X0000472170Y0000222101D01*
X0000470221Y0000224050D01*
X0000470221Y0000231777D01*
X0000470296Y0000231852D01*
G01X0000462322Y0000266575D02*
X0000460772Y0000265025D01*
X0000460772Y0000241530D01*
X0000462322Y0000239980D01*
X0000462322Y0000234075D01*
G01X0000462322Y0000201575D02*
X0000462322Y0000218701D01*
X0000461521Y0000219502D01*
X0000461521Y0000219801D01*
X0000461500Y0000219822D01*
X0000461500Y0000228222D01*
X0000460722Y0000229000D01*
X0000460722Y0000231756D01*
G01X0000470096Y0000235404D02*
X0000470096Y0000235847D01*
X0000471500Y0000237251D01*
X0000471500Y0000254802D01*
X0000468621Y0000257681D01*
X0000468621Y0000263425D01*
G01X0000468621Y0000230925D02*
X0000468621Y0000223379D01*
X0000470970Y0000221030D01*
X0000470970Y0000203470D01*
X0000470221Y0000202721D01*
X0000470221Y0000199321D01*
X0000469325Y0000198425D01*
X0000468621Y0000198425D01*
G01X0000465471Y0000263425D02*
X0000465471Y0000256029D01*
X0000467021Y0000254479D01*
X0000467021Y0000235800D01*
G01X0000465471Y0000230925D02*
X0000465471Y0000222029D01*
X0000468300Y0000219200D01*
X0000468300Y0000204779D01*
X0000467021Y0000203500D01*
X0000467021Y0000199975D01*
X0000465471Y0000198425D01*
G01X0000474920Y0000230925D02*
X0000474920Y0000226080D01*
X0000476500Y0000224500D01*
X0000476500Y0000200005D01*
X0000474920Y0000198425D01*
G01X0000474920Y0000263425D02*
X0000474920Y0000259580D01*
X0000476500Y0000258000D01*
X0000476500Y0000235800D01*
G01X0000484367Y0000230925D02*
X0000486500Y0000228792D01*
X0000486500Y0000200500D01*
X0000484425Y0000198425D01*
X0000484367Y0000198425D01*
G01X0000484367Y0000230925D02*
X0000486500Y0000233058D01*
X0000486500Y0000261367D01*
X0000484442Y0000263425D01*
X0000484367Y0000263425D01*
G01X0000471771Y0000263425D02*
X0000471771Y0000258729D01*
X0000474100Y0000256400D01*
X0000474100Y0000235655D01*
X0000473445Y0000235000D01*
G01X0000471771Y0000230925D02*
X0000471771Y0000224599D01*
X0000473370Y0000223000D01*
X0000473370Y0000199000D01*
X0000472795Y0000198425D01*
X0000471771Y0000198425D01*
G01X0000481218Y0000263425D02*
X0000481218Y0000261282D01*
X0000482817Y0000259683D01*
X0000482817Y0000233195D01*
G01X0000481218Y0000230925D02*
X0000481218Y0000229282D01*
X0000482817Y0000227683D01*
X0000482817Y0000200024D01*
X0000481218Y0000198425D01*
G01X0000478000Y0000230856D02*
X0000478000Y0000227500D01*
X0000479619Y0000225881D01*
X0000479619Y0000199975D01*
X0000478069Y0000198425D01*
G01X0000478069Y0000263425D02*
X0000478069Y0000260931D01*
X0000479718Y0000259282D01*
X0000479718Y0000235800D01*
G01X0000456023Y0000263425D02*
X0000456023Y0000239477D01*
X0000457523Y0000237977D01*
X0000457523Y0000234697D01*
G01X0000456023Y0000230925D02*
X0000456373Y0000230575D01*
X0000456373Y0000208429D01*
X0000457573Y0000207229D01*
X0000457573Y0000199975D01*
X0000456023Y0000198425D01*
G01X0000459172Y0000230925D02*
X0000459172Y0000219628D01*
X0000460772Y0000218028D01*
X0000460772Y0000200025D01*
X0000459172Y0000198425D01*
G01X0000459172Y0000263425D02*
X0000459172Y0000240828D01*
X0000460647Y0000239353D01*
X0000460647Y0000235353D01*
G01X0000449724Y0000198425D02*
X0000451300Y0000200001D01*
X0000451300Y0000226700D01*
X0000449724Y0000228276D01*
X0000449724Y0000230925D01*
G01X0000449724Y0000230925D02*
X0000448500Y0000232149D01*
X0000448500Y0000262201D01*
X0000449724Y0000263425D01*
G01X0000462322Y0000263425D02*
X0000462322Y0000254678D01*
X0000463971Y0000253029D01*
X0000463971Y0000235771D01*
G01X0000462322Y0000198425D02*
X0000463872Y0000199975D01*
X0000463872Y0000218849D01*
X0000462721Y0000220000D01*
X0000462721Y0000230526D01*
X0000462322Y0000230925D01*
G01X0000465471Y0000266575D02*
X0000465146Y0000266900D01*
X0000464421Y0000266900D01*
X0000463921Y0000266400D01*
X0000463921Y0000255500D01*
X0000465471Y0000253950D01*
X0000465471Y0000234075D01*
G01X0000463921Y0000230950D02*
X0000463921Y0000221500D01*
X0000467100Y0000218321D01*
X0000467100Y0000206600D01*
X0000465471Y0000204971D01*
X0000465471Y0000201575D01*
G01X0000341221Y0000240473D02*
X0000340264Y0000240473D01*
X0000338714Y0000242023D01*
X0000337477Y0000242023D01*
X0000335000Y0000244500D01*
X0000335000Y0000249500D01*
X0000340171Y0000254671D01*
X0000348163Y0000254671D01*
X0000351592Y0000258100D01*
X0000366100Y0000258100D01*
X0000371900Y0000263900D01*
X0000371900Y0000266900D01*
X0000391000Y0000286000D01*
X0000429827Y0000286000D01*
X0000430827Y0000285000D01*
X0000430827Y0000279173D01*
G01X0000481218Y0000234075D02*
X0000481218Y0000259500D01*
X0000479619Y0000261099D01*
X0000479619Y0000264976D01*
X0000481218Y0000266575D01*
G01X0000481218Y0000201575D02*
X0000481218Y0000226782D01*
X0000479668Y0000228332D01*
X0000479668Y0000231815D01*
G01X0000481218Y0000233365D02*
X0000481218Y0000234075D01*
G01X0000459172Y0000234075D02*
X0000459172Y0000239130D01*
X0000457573Y0000240729D01*
X0000457573Y0000264976D01*
X0000459172Y0000266575D01*
G01X0000459172Y0000234075D02*
X0000459172Y0000233460D01*
G01X0000457573Y0000231573D02*
X0000457573Y0000208927D01*
X0000459172Y0000207328D01*
X0000459172Y0000201575D01*
G01X0000455173Y0000229582D02*
X0000455173Y0000207327D01*
X0000456023Y0000206477D01*
X0000456023Y0000201575D01*
G01X0000456023Y0000234075D02*
X0000456023Y0000236977D01*
X0000454473Y0000238527D01*
X0000454473Y0000265025D01*
X0000456023Y0000266575D01*
G01X0000452873Y0000234075D02*
X0000452873Y0000233873D01*
X0000451323Y0000232323D01*
X0000451323Y0000229177D01*
X0000452500Y0000228000D01*
X0000452500Y0000201948D01*
X0000452873Y0000201575D01*
G01X0000452873Y0000234075D02*
X0000451323Y0000235625D01*
X0000451323Y0000264068D01*
X0000452873Y0000265618D01*
X0000452873Y0000266575D01*
G01X0000452873Y0000198425D02*
X0000454473Y0000200025D01*
X0000454473Y0000206329D01*
X0000453973Y0000206829D01*
X0000453973Y0000228500D01*
X0000452873Y0000229600D01*
X0000452873Y0000230925D01*
G01X0000452873Y0000263425D02*
X0000452873Y0000237627D01*
X0000454500Y0000236000D01*
G01X0000338071Y0000199527D02*
X0000339670Y0000197928D01*
X0000345179Y0000197928D01*
X0000346379Y0000199128D01*
X0000352070Y0000199128D01*
X0000353098Y0000198100D01*
X0000365000Y0000198100D01*
X0000365500Y0000198600D01*
X0000365500Y0000205500D01*
X0000366000Y0000206000D01*
X0000371500Y0000206000D01*
X0000372000Y0000205500D01*
X0000372000Y0000202500D01*
X0000373000Y0000201500D01*
X0000376500Y0000201500D01*
X0000377500Y0000202500D01*
X0000380500Y0000202500D01*
X0000383000Y0000200000D01*
X0000397000Y0000200000D01*
X0000399500Y0000202500D01*
X0000410196Y0000202500D01*
X0000410796Y0000203100D01*
X0000410796Y0000206000D01*
X0000411296Y0000206500D01*
X0000415500Y0000206500D01*
X0000416000Y0000206000D01*
X0000416000Y0000203000D01*
X0000416500Y0000202500D01*
X0000436000Y0000202500D01*
X0000438725Y0000205225D01*
X0000438725Y0000211618D01*
X0000437126Y0000213217D01*
X0000437126Y0000214173D01*
G01X0000427677Y0000253977D02*
X0000431000Y0000253977D01*
X0000432426Y0000252551D01*
X0000432426Y0000240426D01*
X0000423000Y0000231000D01*
X0000369460Y0000231000D01*
X0000368860Y0000231600D01*
X0000368860Y0000233400D01*
X0000368260Y0000234000D01*
X0000365860Y0000234000D01*
X0000365260Y0000233400D01*
X0000365260Y0000231600D01*
X0000364660Y0000231000D01*
X0000362260Y0000231000D01*
X0000361660Y0000231600D01*
X0000361660Y0000233400D01*
X0000361060Y0000234000D01*
X0000358660Y0000234000D01*
X0000358060Y0000233400D01*
X0000358060Y0000231600D01*
X0000357460Y0000231000D01*
X0000355500Y0000231000D01*
X0000349000Y0000237500D01*
X0000345000Y0000237500D01*
X0000342820Y0000239680D01*
X0000342820Y0000241067D01*
X0000341864Y0000242023D01*
X0000340627Y0000242023D01*
X0000339671Y0000242979D01*
X0000339671Y0000245222D01*
X0000341221Y0000246772D01*
G01X0000338071Y0000246772D02*
X0000338071Y0000247071D01*
X0000339371Y0000248371D01*
X0000345013Y0000248371D01*
X0000345920Y0000249278D01*
X0000345920Y0000249384D01*
X0000345970Y0000249434D01*
X0000345970Y0000250564D01*
X0000346877Y0000251471D01*
X0000346983Y0000251471D01*
X0000347033Y0000251521D01*
X0000348521Y0000251521D01*
X0000353900Y0000256900D01*
X0000366900Y0000256900D01*
X0000373100Y0000263100D01*
X0000373100Y0000265788D01*
X0000376906Y0000269594D01*
X0000382594Y0000269594D01*
X0000383000Y0000270000D01*
X0000383000Y0000273500D01*
X0000383500Y0000274000D01*
X0000385500Y0000274000D01*
X0000386000Y0000273500D01*
X0000386000Y0000272000D01*
X0000386500Y0000271500D01*
X0000388500Y0000271500D01*
X0000389000Y0000272000D01*
X0000389000Y0000280500D01*
X0000389500Y0000281000D01*
X0000391500Y0000281000D01*
X0000392000Y0000280500D01*
X0000392000Y0000278000D01*
X0000392500Y0000277500D01*
X0000394400Y0000277500D01*
X0000394900Y0000278000D01*
X0000394900Y0000281400D01*
X0000397500Y0000284000D01*
X0000425500Y0000284000D01*
X0000429227Y0000280273D01*
X0000429227Y0000277574D01*
X0000427677Y0000276024D01*
G01X0000341221Y0000196378D02*
X0000342771Y0000194828D01*
X0000345013Y0000194828D01*
X0000345970Y0000193871D01*
X0000345970Y0000192585D01*
X0000346877Y0000191678D01*
X0000352322Y0000191678D01*
X0000360900Y0000183100D01*
X0000364408Y0000183100D01*
X0000365008Y0000183700D01*
X0000365008Y0000187000D01*
X0000365508Y0000187500D01*
X0000368108Y0000187500D01*
X0000368608Y0000187000D01*
X0000368608Y0000183700D01*
X0000369208Y0000183100D01*
X0000378340Y0000183100D01*
X0000378940Y0000183700D01*
X0000378940Y0000184900D01*
X0000379540Y0000185500D01*
X0000381940Y0000185500D01*
X0000382540Y0000184900D01*
X0000382540Y0000183700D01*
X0000383140Y0000183100D01*
X0000385540Y0000183100D01*
X0000386140Y0000183700D01*
X0000386140Y0000184900D01*
X0000386740Y0000185500D01*
X0000389140Y0000185500D01*
X0000389740Y0000184900D01*
X0000389740Y0000183700D01*
X0000390340Y0000183100D01*
X0000392740Y0000183100D01*
X0000393340Y0000183700D01*
X0000393340Y0000184900D01*
X0000393940Y0000185500D01*
X0000396340Y0000185500D01*
X0000396940Y0000184900D01*
X0000396940Y0000183700D01*
X0000397540Y0000183100D01*
X0000399940Y0000183100D01*
X0000400540Y0000183700D01*
X0000400540Y0000184900D01*
X0000401140Y0000185500D01*
X0000403540Y0000185500D01*
X0000404140Y0000184900D01*
X0000404140Y0000183700D01*
X0000404740Y0000183100D01*
X0000407140Y0000183100D01*
X0000407740Y0000183700D01*
X0000407740Y0000184900D01*
X0000408340Y0000185500D01*
X0000410740Y0000185500D01*
X0000411340Y0000184900D01*
X0000411340Y0000183700D01*
X0000411940Y0000183100D01*
X0000414340Y0000183100D01*
X0000414940Y0000183700D01*
X0000414940Y0000184900D01*
X0000415540Y0000185500D01*
X0000417940Y0000185500D01*
X0000418540Y0000184900D01*
X0000418540Y0000183700D01*
X0000419140Y0000183100D01*
X0000437600Y0000183100D01*
X0000438000Y0000183500D01*
G01X0000435000Y0000180000D02*
X0000433000Y0000178000D01*
X0000356000Y0000178000D01*
X0000345471Y0000188529D01*
X0000340578Y0000188529D01*
X0000339621Y0000189486D01*
X0000339621Y0000190722D01*
X0000338665Y0000191678D01*
X0000337428Y0000191678D01*
X0000336521Y0000192585D01*
X0000336521Y0000195734D01*
X0000333371Y0000198884D01*
X0000333371Y0000200170D01*
X0000334307Y0000201106D01*
X0000335543Y0000201106D01*
X0000337114Y0000202677D01*
X0000338071Y0000202677D01*
G01X0000443425Y0000192126D02*
X0000441051Y0000194500D01*
X0000415000Y0000194500D01*
X0000413500Y0000193000D01*
X0000409480Y0000193000D01*
X0000408880Y0000193600D01*
X0000408880Y0000194400D01*
X0000408280Y0000195000D01*
X0000405880Y0000195000D01*
X0000405280Y0000194400D01*
X0000405280Y0000193600D01*
X0000404680Y0000193000D01*
X0000402280Y0000193000D01*
X0000401680Y0000193600D01*
X0000401680Y0000194400D01*
X0000401080Y0000195000D01*
X0000398680Y0000195000D01*
X0000398080Y0000194400D01*
X0000398080Y0000193000D01*
X0000397580Y0000192500D01*
X0000394980Y0000192500D01*
X0000394480Y0000193000D01*
X0000394480Y0000194400D01*
X0000393880Y0000195000D01*
X0000391480Y0000195000D01*
X0000390880Y0000194400D01*
X0000390880Y0000193000D01*
X0000390380Y0000192500D01*
X0000387780Y0000192500D01*
X0000387280Y0000193000D01*
X0000387280Y0000194400D01*
X0000386680Y0000195000D01*
X0000384280Y0000195000D01*
X0000383680Y0000194400D01*
X0000383680Y0000193000D01*
X0000383180Y0000192500D01*
X0000373750Y0000192500D01*
X0000373250Y0000193000D01*
X0000373250Y0000194400D01*
X0000372650Y0000195000D01*
X0000370250Y0000195000D01*
X0000369650Y0000194400D01*
X0000369650Y0000192500D01*
X0000369150Y0000192000D01*
X0000366550Y0000192000D01*
X0000366050Y0000192500D01*
X0000366050Y0000194400D01*
X0000365450Y0000195000D01*
X0000363050Y0000195000D01*
X0000362450Y0000194400D01*
X0000362450Y0000193600D01*
X0000361850Y0000193000D01*
X0000356000Y0000193000D01*
X0000354000Y0000195000D01*
G01X0000351500Y0000240000D02*
X0000353500Y0000238000D01*
X0000368500Y0000238000D01*
X0000373000Y0000242500D01*
X0000401000Y0000242500D01*
X0000401500Y0000242000D01*
X0000401500Y0000236500D01*
X0000402000Y0000236000D01*
X0000404000Y0000236000D01*
X0000404500Y0000236500D01*
X0000404500Y0000242000D01*
X0000405000Y0000242500D01*
X0000407500Y0000242500D01*
X0000408000Y0000242000D01*
X0000408000Y0000236500D01*
X0000408500Y0000236000D01*
X0000411900Y0000236000D01*
X0000412500Y0000236600D01*
X0000412500Y0000242000D01*
X0000413000Y0000242500D01*
X0000415600Y0000242500D01*
X0000416100Y0000242000D01*
X0000416100Y0000236600D01*
X0000416700Y0000236000D01*
X0000419000Y0000236000D01*
X0000419500Y0000236500D01*
X0000419500Y0000251877D01*
X0000420000Y0000252377D01*
X0000429277Y0000252377D01*
X0000430827Y0000250827D01*
G01X0000443425Y0000185827D02*
X0000441852Y0000187400D01*
X0000417143Y0000187400D01*
X0000416543Y0000188000D01*
X0000416543Y0000189900D01*
X0000415943Y0000190500D01*
X0000413543Y0000190500D01*
X0000412943Y0000189900D01*
X0000412943Y0000188000D01*
X0000412343Y0000187400D01*
X0000409943Y0000187400D01*
X0000409343Y0000188000D01*
X0000409343Y0000189900D01*
X0000408743Y0000190500D01*
X0000406343Y0000190500D01*
X0000405743Y0000189900D01*
X0000405743Y0000188000D01*
X0000405143Y0000187400D01*
X0000402743Y0000187400D01*
X0000402143Y0000188000D01*
X0000402143Y0000189900D01*
X0000401543Y0000190500D01*
X0000399143Y0000190500D01*
X0000398543Y0000189900D01*
X0000398543Y0000188000D01*
X0000397943Y0000187400D01*
X0000395543Y0000187400D01*
X0000394943Y0000188000D01*
X0000394943Y0000189900D01*
X0000394343Y0000190500D01*
X0000391943Y0000190500D01*
X0000391343Y0000189900D01*
X0000391343Y0000188000D01*
X0000390743Y0000187400D01*
X0000388343Y0000187400D01*
X0000387743Y0000188000D01*
X0000387743Y0000189900D01*
X0000387143Y0000190500D01*
X0000384743Y0000190500D01*
X0000384143Y0000189900D01*
X0000384143Y0000188000D01*
X0000383543Y0000187400D01*
X0000378500Y0000187400D01*
X0000378000Y0000187900D01*
X0000378000Y0000189500D01*
X0000377500Y0000190000D01*
X0000375000Y0000190000D01*
X0000374500Y0000189500D01*
X0000374500Y0000187900D01*
X0000374000Y0000187400D01*
X0000371500Y0000187400D01*
X0000371000Y0000187900D01*
X0000371000Y0000189500D01*
X0000370500Y0000190000D01*
X0000363719Y0000190000D01*
X0000363219Y0000189500D01*
X0000363219Y0000187900D01*
X0000362719Y0000187400D01*
X0000359000Y0000187400D01*
X0000352950Y0000193450D01*
X0000349550Y0000193450D01*
X0000347520Y0000195480D01*
X0000347520Y0000196378D01*
G01X0000344370Y0000196378D02*
X0000345327Y0000196378D01*
X0000346877Y0000197928D01*
X0000351572Y0000197928D01*
X0000352600Y0000196900D01*
X0000408521Y0000196900D01*
X0000409121Y0000197500D01*
X0000409121Y0000199900D01*
X0000409721Y0000200500D01*
X0000412121Y0000200500D01*
X0000412721Y0000199900D01*
X0000412721Y0000197500D01*
X0000413321Y0000196900D01*
X0000415721Y0000196900D01*
X0000416321Y0000197500D01*
X0000416321Y0000199900D01*
X0000416921Y0000200500D01*
X0000419321Y0000200500D01*
X0000419921Y0000199900D01*
X0000419921Y0000197500D01*
X0000420521Y0000196900D01*
X0000422921Y0000196900D01*
X0000423521Y0000197500D01*
X0000423521Y0000199900D01*
X0000424121Y0000200500D01*
X0000426521Y0000200500D01*
X0000427121Y0000199900D01*
X0000427121Y0000197500D01*
X0000427721Y0000196900D01*
X0000437400Y0000196900D01*
X0000445000Y0000204500D01*
X0000445000Y0000212598D01*
X0000443425Y0000214173D01*
G01X0000430827Y0000272874D02*
X0000429227Y0000274474D01*
X0000427034Y0000274474D01*
X0000426127Y0000275381D01*
X0000426127Y0000279873D01*
X0000424000Y0000282000D01*
X0000416135Y0000282000D01*
X0000415535Y0000281400D01*
X0000415535Y0000280100D01*
X0000414935Y0000279500D01*
X0000412535Y0000279500D01*
X0000411935Y0000280100D01*
X0000411935Y0000281400D01*
X0000411335Y0000282000D01*
X0000398000Y0000282000D01*
X0000397500Y0000281500D01*
X0000397500Y0000268500D01*
X0000397000Y0000268000D01*
X0000394500Y0000268000D01*
X0000394000Y0000268500D01*
X0000394000Y0000275000D01*
X0000393500Y0000275500D01*
X0000391500Y0000275500D01*
X0000391000Y0000275000D01*
X0000391000Y0000268500D01*
X0000390500Y0000268000D01*
X0000381000Y0000268000D01*
X0000366100Y0000253100D01*
X0000353324Y0000253100D01*
X0000346996Y0000246772D01*
X0000344370Y0000246772D01*
G01X0000424527Y0000257127D02*
X0000426126Y0000255527D01*
X0000433973Y0000255527D01*
X0000435526Y0000253974D01*
X0000435526Y0000240526D01*
X0000423500Y0000228500D01*
X0000355500Y0000228500D01*
X0000348000Y0000236000D01*
X0000344737Y0000236000D01*
X0000341814Y0000238923D01*
X0000339621Y0000238923D01*
X0000338071Y0000240473D01*
G01X0000350500Y0000203500D02*
X0000349400Y0000204600D01*
X0000349400Y0000221400D01*
X0000351000Y0000223000D01*
X0000442500Y0000223000D01*
X0000444000Y0000221500D01*
X0000444000Y0000217500D01*
X0000441875Y0000215375D01*
X0000441875Y0000209424D01*
X0000443425Y0000207874D01*
G01X0000356500Y0000250000D02*
X0000358400Y0000251900D01*
X0000368329Y0000251900D01*
X0000382429Y0000266000D01*
X0000399000Y0000266000D01*
X0000399500Y0000266500D01*
X0000399500Y0000277000D01*
X0000400000Y0000277500D01*
X0000402510Y0000277500D01*
X0000403010Y0000277000D01*
X0000403010Y0000266500D01*
X0000403510Y0000266000D01*
X0000406500Y0000266000D01*
X0000407000Y0000266500D01*
X0000407000Y0000278000D01*
X0000407500Y0000278500D01*
X0000410000Y0000278500D01*
X0000410500Y0000278000D01*
X0000410500Y0000275500D01*
X0000411000Y0000275000D01*
X0000413795Y0000275000D01*
X0000414395Y0000275600D01*
X0000414395Y0000276974D01*
X0000414995Y0000277574D01*
X0000422928Y0000277574D01*
X0000424527Y0000279173D01*
G01X0000355500Y0000203500D02*
X0000355500Y0000211000D01*
X0000364500Y0000220000D01*
X0000377000Y0000220000D01*
X0000377500Y0000219500D01*
X0000377500Y0000218500D01*
X0000378000Y0000218000D01*
X0000382296Y0000218000D01*
X0000382896Y0000218600D01*
X0000382896Y0000219900D01*
X0000383496Y0000220500D01*
X0000385896Y0000220500D01*
X0000386496Y0000219900D01*
X0000386496Y0000218600D01*
X0000387096Y0000218000D01*
X0000389496Y0000218000D01*
X0000390096Y0000218600D01*
X0000390096Y0000219900D01*
X0000390696Y0000220500D01*
X0000393096Y0000220500D01*
X0000393696Y0000219900D01*
X0000393696Y0000218600D01*
X0000394296Y0000218000D01*
X0000396696Y0000218000D01*
X0000397296Y0000218600D01*
X0000397296Y0000219900D01*
X0000397896Y0000220500D01*
X0000400296Y0000220500D01*
X0000400896Y0000219900D01*
X0000400896Y0000218600D01*
X0000401496Y0000218000D01*
X0000403896Y0000218000D01*
X0000404496Y0000218600D01*
X0000404496Y0000219900D01*
X0000405096Y0000220500D01*
X0000407496Y0000220500D01*
X0000408096Y0000219900D01*
X0000408096Y0000218600D01*
X0000408696Y0000218000D01*
X0000411096Y0000218000D01*
X0000411696Y0000218600D01*
X0000411696Y0000219900D01*
X0000412296Y0000220500D01*
X0000414696Y0000220500D01*
X0000415296Y0000219900D01*
X0000415296Y0000218600D01*
X0000415896Y0000218000D01*
X0000418296Y0000218000D01*
X0000418896Y0000218600D01*
X0000418896Y0000219900D01*
X0000419496Y0000220500D01*
X0000421896Y0000220500D01*
X0000422496Y0000219900D01*
X0000422496Y0000218600D01*
X0000423096Y0000218000D01*
X0000436000Y0000218000D01*
X0000438725Y0000215275D01*
X0000438725Y0000213316D01*
X0000440275Y0000211766D01*
X0000440275Y0000211024D01*
G01X0000344370Y0000240473D02*
X0000348027Y0000240473D01*
X0000352500Y0000236000D01*
X0000372000Y0000236000D01*
X0000372500Y0000236500D01*
X0000372500Y0000239000D01*
X0000373000Y0000239500D01*
X0000376312Y0000239500D01*
X0000377000Y0000238812D01*
X0000377000Y0000235000D01*
X0000377500Y0000234500D01*
X0000380572Y0000234500D01*
X0000381072Y0000235000D01*
X0000381072Y0000238900D01*
X0000381672Y0000239500D01*
X0000384072Y0000239500D01*
X0000384672Y0000238900D01*
X0000384672Y0000235000D01*
X0000385172Y0000234500D01*
X0000387772Y0000234500D01*
X0000388272Y0000235000D01*
X0000388272Y0000238900D01*
X0000388872Y0000239500D01*
X0000391272Y0000239500D01*
X0000391872Y0000238900D01*
X0000391872Y0000234500D01*
X0000392372Y0000234000D01*
X0000394972Y0000234000D01*
X0000395472Y0000234500D01*
X0000395472Y0000238900D01*
X0000396072Y0000239500D01*
X0000398472Y0000239500D01*
X0000399072Y0000238900D01*
X0000399072Y0000234500D01*
X0000399572Y0000234000D01*
X0000422500Y0000234000D01*
X0000424000Y0000235500D01*
X0000424000Y0000250300D01*
X0000424527Y0000250827D01*
G01X0000341221Y0000202677D02*
X0000340264Y0000202677D01*
X0000338664Y0000201077D01*
X0000337428Y0000201077D01*
X0000336500Y0000200149D01*
X0000336500Y0000198500D01*
X0000339671Y0000195329D01*
X0000339671Y0000192500D01*
X0000340542Y0000191629D01*
X0000343371Y0000191629D01*
X0000344700Y0000190300D01*
X0000351700Y0000190300D01*
X0000360100Y0000181900D01*
X0000444400Y0000181900D01*
X0000445000Y0000182500D01*
X0000445000Y0000187401D01*
X0000443425Y0000188976D01*
G01X0000352050Y0000242746D02*
X0000352296Y0000242500D01*
X0000369500Y0000242500D01*
X0000374000Y0000247000D01*
X0000379516Y0000247000D01*
X0000380116Y0000247600D01*
X0000380116Y0000249900D01*
X0000380716Y0000250500D01*
X0000383216Y0000250500D01*
X0000383716Y0000250000D01*
X0000383716Y0000245600D01*
X0000384316Y0000245000D01*
X0000386716Y0000245000D01*
X0000387316Y0000245600D01*
X0000387316Y0000250000D01*
X0000387816Y0000250500D01*
X0000390416Y0000250500D01*
X0000390916Y0000250000D01*
X0000390916Y0000245600D01*
X0000391516Y0000245000D01*
X0000393916Y0000245000D01*
X0000394516Y0000245600D01*
X0000394516Y0000250000D01*
X0000395016Y0000250500D01*
X0000397616Y0000250500D01*
X0000398116Y0000250000D01*
X0000398116Y0000245600D01*
X0000398716Y0000245000D01*
X0000401116Y0000245000D01*
X0000401716Y0000245600D01*
X0000401716Y0000250000D01*
X0000402216Y0000250500D01*
X0000404716Y0000250500D01*
X0000405316Y0000249900D01*
X0000405316Y0000247600D01*
X0000405916Y0000247000D01*
X0000417500Y0000247000D01*
X0000418000Y0000247500D01*
X0000418000Y0000258500D01*
X0000418500Y0000259000D01*
X0000428954Y0000259000D01*
X0000430827Y0000257127D01*
G01X0000484367Y0000234075D02*
X0000484367Y0000261000D01*
X0000482768Y0000262599D01*
X0000482768Y0000264976D01*
X0000484367Y0000266575D01*
G01X0000484367Y0000234075D02*
X0000484367Y0000233118D01*
G01X0000482817Y0000231568D02*
X0000482817Y0000230282D01*
X0000484367Y0000228732D01*
X0000484367Y0000201575D01*
G01X0000343500Y0000330000D02*
X0000342500Y0000329000D01*
X0000342500Y0000326131D01*
X0000343100Y0000325531D01*
X0000345900Y0000325531D01*
X0000346500Y0000324931D01*
X0000346500Y0000322531D01*
X0000345900Y0000321931D01*
X0000343100Y0000321931D01*
X0000342500Y0000321331D01*
X0000342500Y0000315600D01*
X0000343100Y0000315000D01*
X0000347500Y0000315000D01*
X0000348000Y0000314500D01*
X0000348000Y0000311900D01*
X0000347500Y0000311400D01*
X0000343100Y0000311400D01*
X0000342500Y0000310800D01*
X0000342500Y0000308000D01*
X0000343000Y0000307500D01*
X0000351901Y0000307500D01*
X0000352401Y0000307000D01*
X0000352401Y0000293401D01*
X0000351000Y0000292000D01*
X0000349000Y0000292000D01*
X0000345750Y0000288750D01*
X0000343250Y0000288750D01*
X0000332500Y0000278000D01*
X0000332500Y0000272500D01*
X0000334000Y0000271000D01*
G01X0000360000Y0000345000D02*
X0000360000Y0000326500D01*
X0000362500Y0000324000D01*
X0000362500Y0000289395D01*
X0000338025Y0000264920D01*
X0000335128Y0000264920D01*
X0000333371Y0000263163D01*
X0000333371Y0000258776D01*
X0000332415Y0000257820D01*
X0000331178Y0000257820D01*
X0000330222Y0000256864D01*
X0000330222Y0000255222D01*
X0000329621Y0000254621D01*
X0000327023Y0000254621D01*
X0000325473Y0000253071D01*
G54D17*
X0000020000Y0000092500D03*
X0000020000Y0000252500D03*
G54D27*
G01X0000199000Y0000140000D02*
X0000196850Y0000137850D01*
X0000196850Y0000137060D01*
X0000197910Y0000136000D01*
X0000209500Y0000136000D01*
X0000236000Y0000162500D01*
X0000276090Y0000162500D01*
X0000281378Y0000167788D01*
X0000281378Y0000181578D01*
X0000283000Y0000183200D01*
X0000283000Y0000188200D01*
X0000282596Y0000188604D01*
X0000280204Y0000188604D01*
X0000279800Y0000188200D01*
X0000279800Y0000184762D01*
X0000280262Y0000184300D01*
X0000280916Y0000184300D01*
X0000281378Y0000184762D01*
X0000281378Y0000186929D01*
G01X0000195500Y0000140000D02*
X0000195500Y0000136500D01*
X0000197350Y0000134650D01*
X0000210060Y0000134650D01*
X0000236560Y0000161150D01*
X0000276650Y0000161150D01*
X0000282728Y0000167228D01*
X0000282728Y0000181018D01*
X0000284350Y0000182640D01*
X0000284350Y0000186752D01*
X0000284527Y0000186929D01*
G01X0000338000Y0000145000D02*
X0000340150Y0000142850D01*
X0000340150Y0000132150D01*
X0000330500Y0000122500D01*
X0000282000Y0000122500D01*
X0000274650Y0000115150D01*
X0000274650Y0000099150D01*
X0000248675Y0000073175D01*
X0000170825Y0000073175D01*
X0000148175Y0000095825D01*
X0000148175Y0000106265D01*
X0000149410Y0000107500D01*
X0000159000Y0000107500D01*
X0000159500Y0000108000D01*
X0000159500Y0000110000D01*
G01X0000278000Y0000145000D02*
X0000279150Y0000146150D01*
X0000279150Y0000146940D01*
X0000278440Y0000147650D01*
X0000274560Y0000147650D01*
X0000264000Y0000137090D01*
X0000264000Y0000107590D01*
X0000253235Y0000096825D01*
X0000183235Y0000096825D01*
X0000177060Y0000090650D01*
X0000160940Y0000090650D01*
X0000151575Y0000100015D01*
X0000151575Y0000103925D01*
X0000150500Y0000105000D01*
G01X0000291500Y0000145000D02*
X0000290000Y0000143500D01*
X0000290000Y0000137590D01*
X0000269350Y0000116940D01*
X0000269350Y0000106940D01*
X0000249235Y0000086825D01*
X0000195000Y0000086825D01*
X0000194500Y0000086325D01*
X0000194500Y0000085000D01*
G01X0000281500Y0000145000D02*
X0000280500Y0000146000D01*
X0000280500Y0000147500D01*
X0000279000Y0000149000D01*
X0000274000Y0000149000D01*
X0000262650Y0000137650D01*
X0000262650Y0000108150D01*
X0000252675Y0000098175D01*
X0000182675Y0000098175D01*
X0000176500Y0000092000D01*
X0000161500Y0000092000D01*
X0000152925Y0000100575D01*
X0000152925Y0000103925D01*
X0000154000Y0000105000D01*
G01X0000341500Y0000145000D02*
X0000341500Y0000131590D01*
X0000331060Y0000121150D01*
X0000282560Y0000121150D01*
X0000276000Y0000114590D01*
X0000276000Y0000098590D01*
X0000249235Y0000071825D01*
X0000170265Y0000071825D01*
X0000146825Y0000095265D01*
X0000146825Y0000106825D01*
X0000148850Y0000108850D01*
X0000154850Y0000108850D01*
X0000156000Y0000110000D01*
G01X0000288000Y0000145000D02*
X0000288650Y0000144350D01*
X0000288650Y0000138150D01*
X0000268000Y0000117500D01*
X0000268000Y0000107500D01*
X0000248675Y0000088175D01*
X0000194175Y0000088175D01*
X0000191000Y0000085000D01*
G01X0000272000Y0000303500D02*
G02X0000272650Y0000301931I-0000001569J-0000001569D01*
G01X0000272650Y0000295571D01*
G03X0000272650Y0000295570I0000006350J-0000000001D01*
G01X0000272650Y0000294737D01*
G03X0000273833Y0000291881I0000004039J0D01*
G03X0000274510Y0000291081I0000005169J0000003688D01*
G01X0000279081Y0000286510D01*
G03X0000283570Y0000284650I0000004490J0000004489D01*
G01X0000286816Y0000284650D01*
G02X0000288716Y0000282750I0J-0000001900D01*
G01X0000288716Y0000282568D01*
G03X0000293134Y0000278150I0000004418J0D01*
G03X0000297553Y0000282569I0J0000004419D01*
G02X0000299484Y0000284500I0000001931J0D01*
G01X0000300776Y0000284500D01*
G02X0000302750Y0000282526I0J-0000001974D01*
G01X0000302750Y0000280553D01*
G03X0000306125Y0000277178I0000003375J0D01*
G01X0000314475Y0000277178D01*
G02X0000314475Y0000273128I0J-0000002025D01*
G01X0000306125Y0000273128D01*
G03X0000302750Y0000269753I0J-0000003375D01*
G01X0000302750Y0000260767D01*
G02X0000301286Y0000257232I-0000005000J0D01*
G01X0000300275Y0000256221D01*
G01X0000285000Y0000346500D02*
X0000284587Y0000346087D01*
G03X0000284175Y0000345092I0000000995J-0000000995D01*
G01X0000284175Y0000332396D01*
G03X0000285639Y0000328861I0000005000J0D01*
G01X0000307536Y0000306964D01*
G02X0000309000Y0000303429I-0000003536J-0000003535D01*
G01X0000309000Y0000302963D01*
G03X0000309466Y0000302497I0000000466J0D01*
G01X0000309750Y0000302497D01*
G02X0000310500Y0000301747I0J-0000000750D01*
G01X0000310500Y0000301447D01*
G02X0000309750Y0000300697I-0000000750J0D01*
G03X0000309000Y0000299947I0J-0000000750D01*
G01X0000309000Y0000299647D01*
G03X0000309750Y0000298897I0000000750J0D01*
G02X0000310500Y0000298147I0J-0000000750D01*
G01X0000310500Y0000297847D01*
G02X0000309750Y0000297097I-0000000750J0D01*
G03X0000309000Y0000296347I0J-0000000750D01*
G01X0000309000Y0000288250D01*
G03X0000311250Y0000286000I0000002250J0D01*
G01X0000311604Y0000286000D01*
G03X0000313500Y0000287896I0J0000001896D01*
G01X0000313500Y0000289793D01*
G03X0000313000Y0000291000I-0000001707J0D01*
G01X0000312500Y0000291500D01*
G01X0000275000Y0000346500D02*
G03X0000274500Y0000345293I0000001207J-0000001207D01*
G01X0000274500Y0000319221D01*
G02X0000272641Y0000314731I-0000006350J-0000000001D01*
G01X0000269744Y0000311834D01*
G03X0000268675Y0000309254I0000002581J-0000002581D01*
G01X0000268675Y0000293895D01*
X0000268676Y0000293896D01*
G03X0000270140Y0000290361I0000005000J0D01*
G01X0000287888Y0000272612D01*
G02X0000289352Y0000269077I-0000003536J-0000003535D01*
G01X0000289352Y0000259001D01*
G03X0000290458Y0000257895I0000001106J0D01*
G01X0000291118Y0000257895D01*
G02X0000293139Y0000257058I0J-0000002858D01*
G01X0000293976Y0000256221D01*
G01X0000282000Y0000346500D02*
G02X0000282825Y0000344508I-0000001992J-0000001992D01*
G01X0000282825Y0000332396D01*
G03X0000284684Y0000327906I0000006350J-0000000001D01*
G01X0000306581Y0000306009D01*
G02X0000307650Y0000303429I-0000002581J-0000002581D01*
G01X0000307650Y0000288250D01*
G03X0000311250Y0000284650I0000003600J0D01*
G01X0000311604Y0000284650D01*
G03X0000314850Y0000287896I0J0000003246D01*
G01X0000314850Y0000289931D01*
G02X0000315500Y0000291500I0000002219J0D01*
G01X0000272000Y0000346500D02*
G02X0000273150Y0000343724I-0000002776J-0000002776D01*
G01X0000273150Y0000319221D01*
G02X0000271686Y0000315686I-0000005000J0D01*
G01X0000268789Y0000312789D01*
G03X0000267325Y0000309254I0000003536J-0000003535D01*
G01X0000267325Y0000293896D01*
G03X0000269184Y0000289406I0000006350J-0000000001D01*
G01X0000286933Y0000271657D01*
G02X0000288002Y0000269077I-0000002581J-0000002581D01*
G01X0000288002Y0000257604D01*
G03X0000290106Y0000255500I0000002104J0D01*
G03X0000290827Y0000256221I0J0000000721D01*
G01X0000473445Y0000235000D02*
X0000473445Y0000233445D01*
G01X0000478069Y0000230925D02*
X0000478000Y0000230856D01*
G01X0000454500Y0000236000D02*
X0000454500Y0000233500D01*
G01X0000433976Y0000211024D02*
X0000433976Y0000208936D01*
X0000431439Y0000206399D01*
X0000423700Y0000206399D01*
X0000416749Y0000213350D01*
X0000406850Y0000213350D01*
X0000405000Y0000211500D01*
X0000405000Y0000207500D01*
X0000404500Y0000207000D01*
X0000399350Y0000207000D01*
X0000398850Y0000207500D01*
X0000398850Y0000212060D01*
X0000397560Y0000213350D01*
X0000391440Y0000213350D01*
X0000390150Y0000212060D01*
X0000390150Y0000204700D01*
X0000389650Y0000204200D01*
X0000384350Y0000204200D01*
X0000383850Y0000204700D01*
X0000383850Y0000211885D01*
X0000382560Y0000213175D01*
X0000364175Y0000213175D01*
X0000358650Y0000207650D01*
X0000358650Y0000203650D01*
X0000355975Y0000200975D01*
X0000354453Y0000200975D01*
X0000353428Y0000202000D01*
X0000343694Y0000202000D01*
X0000341221Y0000199527D01*
G01X0000437126Y0000207874D02*
X0000437126Y0000208800D01*
X0000436626Y0000209300D01*
X0000435826Y0000209300D01*
X0000435326Y0000208800D01*
X0000435326Y0000208376D01*
X0000431999Y0000205049D01*
X0000423140Y0000205049D01*
X0000416189Y0000212000D01*
X0000407410Y0000212000D01*
X0000406350Y0000210940D01*
X0000406350Y0000206940D01*
X0000405060Y0000205650D01*
X0000398790Y0000205650D01*
X0000397500Y0000206940D01*
X0000397500Y0000211500D01*
X0000397000Y0000212000D01*
X0000392000Y0000212000D01*
X0000391500Y0000211500D01*
X0000391500Y0000204140D01*
X0000390210Y0000202850D01*
X0000383790Y0000202850D01*
X0000382500Y0000204140D01*
X0000382500Y0000211325D01*
X0000382000Y0000211825D01*
X0000364735Y0000211825D01*
X0000360000Y0000207090D01*
X0000360000Y0000203090D01*
X0000356535Y0000199625D01*
X0000353893Y0000199625D01*
X0000352868Y0000200650D01*
X0000344800Y0000200650D01*
X0000344300Y0000200150D01*
X0000344300Y0000199597D01*
X0000344370Y0000199527D01*
G01X0000421379Y0000276024D02*
X0000422500Y0000276024D01*
X0000423000Y0000275524D01*
X0000423000Y0000274724D01*
X0000422500Y0000274224D01*
X0000418564Y0000274224D01*
X0000413000Y0000268660D01*
X0000413000Y0000254000D01*
X0000412500Y0000253500D01*
X0000408850Y0000253500D01*
X0000408350Y0000254000D01*
X0000408350Y0000261660D01*
X0000407060Y0000262950D01*
X0000397290Y0000262950D01*
X0000396000Y0000261660D01*
X0000396000Y0000255900D01*
X0000395500Y0000255400D01*
X0000391171Y0000255400D01*
X0000390671Y0000255900D01*
X0000390671Y0000261760D01*
X0000389431Y0000263000D01*
X0000384261Y0000263000D01*
X0000383021Y0000261760D01*
X0000383021Y0000256521D01*
X0000381500Y0000255000D01*
X0000375000Y0000255000D01*
X0000368175Y0000248175D01*
X0000358683Y0000248175D01*
X0000357153Y0000246645D01*
X0000350440Y0000246645D01*
X0000349095Y0000245300D01*
X0000344985Y0000245300D01*
X0000344982Y0000245297D01*
X0000343591Y0000245297D01*
X0000343100Y0000244806D01*
X0000343100Y0000244288D01*
X0000343766Y0000243622D01*
X0000344370Y0000243622D01*
G01X0000424527Y0000272874D02*
X0000419124Y0000272874D01*
X0000414350Y0000268100D01*
X0000414350Y0000253440D01*
X0000413060Y0000252150D01*
X0000408290Y0000252150D01*
X0000407000Y0000253440D01*
X0000407000Y0000261100D01*
X0000406500Y0000261600D01*
X0000397850Y0000261600D01*
X0000397350Y0000261100D01*
X0000397350Y0000255340D01*
X0000396060Y0000254050D01*
X0000390611Y0000254050D01*
X0000389321Y0000255340D01*
X0000389321Y0000261200D01*
X0000388871Y0000261650D01*
X0000384821Y0000261650D01*
X0000384371Y0000261200D01*
X0000384371Y0000255961D01*
X0000382060Y0000253650D01*
X0000375560Y0000253650D01*
X0000368735Y0000246825D01*
X0000359243Y0000246825D01*
X0000357713Y0000245295D01*
X0000351000Y0000245295D01*
X0000347852Y0000242147D01*
X0000343331Y0000242147D01*
X0000341856Y0000243622D01*
X0000341221Y0000243622D01*
G01X0000275000Y0000303500D02*
G03X0000274000Y0000301086I0000002414J-0000002414D01*
G01X0000274000Y0000295570D01*
X0000274001Y0000295571D01*
G03X0000275465Y0000292036I0000005000J0D01*
G01X0000280036Y0000287465D01*
G03X0000283571Y0000286000I0000003536J0000003534D01*
G01X0000286816Y0000286000D01*
G02X0000290066Y0000282750I0J-0000003250D01*
G01X0000290066Y0000282568D01*
G03X0000293134Y0000279500I0000003068J0D01*
G03X0000296203Y0000282569I0J0000003069D01*
G02X0000299484Y0000285850I0000003281J0D01*
G01X0000300776Y0000285850D01*
G02X0000304100Y0000282526I0J-0000003324D01*
G01X0000304100Y0000280553D01*
G03X0000306125Y0000278528I0000002025J0D01*
G01X0000314475Y0000278528D01*
G02X0000314475Y0000271778I0J-0000003375D01*
G01X0000306125Y0000271778D01*
G03X0000304100Y0000269753I0J-0000002025D01*
G01X0000304100Y0000261500D01*
G03X0000306083Y0000256714I0000006769J0000000001D01*
G01X0000306575Y0000256221D01*
G54D18*
X0000239500Y0000303500D03*
X0000147500Y0000330300D03*
X0000200500Y0000346500D03*
X0000145500Y0000303500D03*
X0000227000Y0000303500D03*
X0000242500Y0000303500D03*
X0000204000Y0000296000D03*
X0000168500Y0000346500D03*
X0000234900Y0000330400D03*
X0000230000Y0000303500D03*
X0000148500Y0000303500D03*
X0000231900Y0000330400D03*
X0000204000Y0000299000D03*
X0000203500Y0000346500D03*
X0000165500Y0000303500D03*
X0000144500Y0000330300D03*
X0000165500Y0000346500D03*
X0000158500Y0000330300D03*
X0000168500Y0000303500D03*
X0000155500Y0000330300D03*
X0000291000Y0000291500D03*
X0000285000Y0000291500D03*
X0000288000Y0000291500D03*
X0000282000Y0000303500D03*
X0000285000Y0000303500D03*
X0000304000Y0000291500D03*
X0000301000Y0000291500D03*
X0000261900Y0000330300D03*
X0000264000Y0000303500D03*
X0000302500Y0000148500D03*
X0000400500Y0000302000D03*
X0000400500Y0000299000D03*
X0000390000Y0000300500D03*
X0000387000Y0000300500D03*
X0000332500Y0000148500D03*
X0000305500Y0000148500D03*
X0000329500Y0000148500D03*
X0000261000Y0000303500D03*
X0000299500Y0000148500D03*
X0000308500Y0000148500D03*
X0000320500Y0000148500D03*
X0000264900Y0000330300D03*
X0000317500Y0000148500D03*
X0000294000Y0000291500D03*
G54D19*
X0000287539Y0000039980D03*
X0000337461Y0000039980D03*
X0000337461Y0000027500D03*
X0000300020Y0000027500D03*
X0000433476Y0000056508D03*
X0000461508Y0000056508D03*
X0000287539Y0000102500D03*
X0000300020Y0000102500D03*
X0000312500Y0000102500D03*
X0000324980Y0000102500D03*
X0000337461Y0000102500D03*
X0000337461Y0000077500D03*
X0000433484Y0000113760D03*
X0000433484Y0000151240D03*
X0000447500Y0000151240D03*
X0000461516Y0000113760D03*
X0000433476Y0000093988D03*
X0000447492Y0000093988D03*
M02*
