M48
INCH
T01C.008
T02C.01
T03C.026
T04C.035
T05C.036
T06C.04
T07C.055
T08C.138
T09C.046
;LEADER: 12 
;HEADER: 
;CODE  : ASCII 
;FILE  : dspdb-1-10.drl for board dspdb.brd ... layers TOP and BOTTOM
;T01 Holesize 1. = 8.000000 Tolerance = +0.000000/-0.000000 PLATED MILS
;T02 Holesize 2. = 10.000000 Tolerance = +0.000000/-0.000000 PLATED MILS
;T03 Holesize 3. = 26.000000 Tolerance = +0.000000/-0.000000 PLATED MILS
;T04 Holesize 4. = 35.000000 Tolerance = +0.000000/-0.000000 PLATED MILS
;T05 Holesize 5. = 36.000000 Tolerance = +0.000000/-0.000000 PLATED MILS
;T06 Holesize 6. = 40.000000 Tolerance = +0.000000/-0.000000 PLATED MILS
;T07 Holesize 7. = 55.000000 Tolerance = +0.000000/-0.000000 PLATED MILS
;T08 Holesize 8. = 138.000000 Tolerance = +0.000000/-0.000000 PLATED MILS
;T09 Holesize 9. = 46.000000 Tolerance = +0.000000/-0.000000 NON_PLATED MILS
%
G90
T01
X0000268779Y0000177480
X0000262480Y0000177480
X0000265630Y0000177480
X0000265630Y0000180630
X0000265630Y0000186929
X0000268779Y0000186929
X0000262480Y0000186929
X0000268779Y0000190079
X0000265630Y0000190079
X0000262480Y0000190079
X0000265630Y0000193228
X0000268779Y0000193228
X0000268779Y0000196378
X0000268779Y0000199527
X0000265630Y0000199527
X0000262480Y0000199527
X0000268779Y0000202677
X0000262480Y0000202677
X0000265630Y0000202677
X0000268779Y0000205827
X0000262480Y0000208976
X0000265630Y0000208976
X0000268779Y0000208976
X0000262480Y0000212126
X0000268779Y0000212126
X0000265630Y0000212126
X0000265630Y0000215275
X0000268779Y0000215275
X0000262480Y0000215275
X0000265630Y0000221575
X0000262480Y0000221575
X0000268779Y0000221575
X0000265630Y0000224725
X0000268779Y0000224725
X0000262480Y0000224725
X0000268779Y0000227874
X0000262480Y0000227874
X0000265630Y0000227874
X0000262480Y0000231024
X0000265630Y0000231024
X0000268779Y0000231024
X0000265630Y0000234173
X0000265630Y0000237323
X0000262480Y0000237323
X0000268779Y0000237323
X0000265630Y0000240473
X0000262480Y0000240473
X0000268779Y0000240473
X0000262480Y0000243622
X0000265630Y0000243622
X0000268779Y0000243622
X0000268779Y0000246772
X0000265630Y0000249921
X0000262480Y0000249921
X0000268779Y0000249921
X0000265630Y0000256221
X0000268779Y0000256221
X0000268779Y0000259370
X0000265630Y0000259370
X0000262480Y0000262520
X0000265630Y0000262520
X0000268779Y0000262520
X0000278228Y0000262520
X0000275079Y0000262520
X0000275079Y0000259370
X0000278228Y0000256220
X0000271929Y0000256220
X0000278228Y0000249921
X0000271929Y0000249921
X0000275079Y0000249921
X0000275079Y0000246772
X0000271929Y0000246772
X0000271929Y0000243622
X0000275079Y0000243622
X0000271929Y0000240473
X0000275079Y0000240473
X0000271929Y0000237323
X0000275079Y0000237323
X0000271929Y0000234173
X0000275079Y0000234173
X0000275079Y0000231024
X0000271929Y0000231024
X0000275079Y0000227874
X0000271929Y0000227874
X0000275079Y0000224725
X0000271929Y0000224725
X0000271929Y0000221575
X0000275079Y0000221575
X0000271929Y0000215275
X0000275079Y0000215275
X0000275079Y0000212126
X0000271929Y0000212126
X0000275079Y0000208976
X0000271929Y0000208976
X0000275079Y0000205827
X0000271929Y0000205827
X0000271929Y0000202677
X0000275079Y0000202677
X0000271929Y0000199527
X0000275079Y0000199527
X0000275079Y0000196378
X0000271929Y0000196378
X0000271929Y0000193228
X0000275079Y0000193228
X0000275079Y0000190079
X0000278228Y0000190079
X0000271929Y0000190079
X0000275079Y0000186929
X0000278228Y0000186929
X0000271929Y0000186929
X0000271929Y0000183779
X0000275079Y0000183779
X0000278228Y0000183779
X0000275079Y0000180630
X0000271929Y0000180630
X0000278228Y0000180630
X0000275079Y0000177480
X0000278228Y0000177480
X0000271929Y0000177480
X0000287677Y0000180630
X0000284527Y0000180630
X0000287677Y0000183779
X0000284527Y0000186929
X0000287677Y0000186929
X0000281378Y0000186929
X0000287677Y0000190079
X0000284527Y0000190079
X0000281378Y0000190079
X0000287677Y0000215275
X0000287677Y0000221575
X0000287677Y0000227874
X0000287677Y0000231024
X0000287677Y0000237323
X0000287677Y0000249921
X0000284527Y0000249921
X0000281378Y0000249921
X0000284527Y0000253071
X0000287677Y0000253071
X0000281378Y0000253071
X0000284527Y0000256221
X0000281378Y0000256221
X0000284527Y0000262520
X0000293976Y0000262520
X0000293976Y0000259370
X0000290827Y0000259370
X0000293976Y0000256221
X0000290827Y0000256221
X0000297126Y0000256221
X0000290827Y0000253071
X0000293976Y0000253071
X0000297126Y0000249921
X0000290827Y0000249921
X0000293976Y0000249921
X0000297126Y0000237323
X0000293976Y0000237323
X0000290827Y0000237323
X0000297126Y0000234173
X0000297126Y0000231024
X0000290827Y0000231024
X0000293976Y0000231024
X0000293976Y0000227874
X0000290827Y0000227874
X0000297126Y0000227874
X0000297126Y0000221575
X0000293976Y0000221575
X0000290827Y0000221575
X0000297126Y0000215275
X0000293976Y0000215275
X0000290827Y0000215275
X0000290827Y0000212126
X0000293976Y0000212126
X0000293976Y0000208976
X0000290827Y0000208976
X0000290827Y0000205827
X0000293976Y0000205827
X0000297126Y0000202677
X0000293976Y0000202677
X0000290827Y0000202677
X0000293976Y0000190079
X0000297126Y0000190079
X0000290827Y0000190079
X0000297126Y0000186929
X0000290827Y0000186929
X0000293976Y0000186929
X0000290827Y0000183779
X0000293976Y0000183779
X0000297126Y0000183779
X0000297126Y0000180630
X0000290827Y0000180630
X0000293976Y0000177480
X0000300000Y0000172000
X0000309725Y0000177480
X0000300275Y0000177480
X0000306575Y0000177480
X0000300275Y0000180630
X0000306575Y0000180630
X0000309725Y0000180630
X0000306575Y0000183779
X0000309725Y0000183779
X0000300275Y0000183779
X0000300275Y0000186929
X0000309725Y0000186929
X0000300275Y0000190079
X0000306575Y0000190079
X0000309725Y0000190079
X0000300275Y0000202677
X0000306575Y0000202677
X0000309725Y0000202677
X0000300275Y0000205827
X0000306575Y0000205827
X0000309725Y0000208976
X0000300275Y0000208976
X0000306575Y0000208976
X0000300275Y0000212126
X0000306575Y0000212126
X0000309725Y0000212126
X0000306575Y0000215275
X0000309725Y0000215275
X0000300275Y0000215275
X0000306575Y0000221575
X0000309725Y0000221575
X0000300275Y0000221575
X0000300275Y0000224725
X0000309725Y0000224725
X0000306575Y0000224725
X0000306575Y0000227874
X0000309725Y0000227874
X0000300275Y0000227874
X0000309724Y0000231024
X0000300275Y0000231024
X0000306575Y0000231024
X0000306575Y0000234173
X0000300275Y0000234173
X0000300275Y0000237323
X0000309725Y0000237323
X0000306575Y0000237323
X0000300275Y0000246771
X0000300275Y0000249921
X0000309725Y0000249921
X0000306575Y0000249921
X0000300275Y0000253071
X0000309725Y0000253071
X0000306575Y0000253071
X0000306575Y0000256221
X0000300275Y0000256221
X0000300275Y0000259370
X0000306575Y0000259370
X0000306575Y0000262520
X0000319173Y0000262520
X0000312875Y0000259370
X0000316024Y0000259370
X0000316024Y0000256221
X0000312875Y0000256220
X0000316024Y0000253071
X0000312874Y0000253071
X0000312874Y0000249921
X0000316024Y0000249921
X0000319173Y0000249921
X0000312874Y0000237323
X0000319173Y0000237323
X0000316024Y0000237323
X0000319173Y0000234173
X0000316024Y0000231024
X0000319173Y0000231024
X0000316024Y0000227874
X0000319173Y0000227874
X0000316024Y0000224725
X0000319173Y0000224725
X0000312874Y0000221575
X0000316024Y0000221575
X0000319173Y0000221575
X0000319173Y0000215275
X0000316024Y0000215275
X0000312874Y0000215275
X0000316024Y0000208976
X0000312874Y0000208976
X0000319173Y0000208976
X0000319173Y0000202677
X0000316024Y0000202677
X0000312874Y0000202677
X0000311500Y0000194000
X0000312874Y0000190079
X0000316024Y0000190079
X0000319173Y0000190079
X0000312874Y0000186929
X0000319173Y0000186929
X0000316024Y0000183779
X0000312874Y0000183779
X0000319173Y0000183779
X0000316024Y0000180630
X0000312874Y0000180630
X0000322323Y0000177480
X0000322323Y0000180630
X0000328622Y0000180630
X0000322323Y0000183779
X0000328622Y0000183779
X0000322323Y0000186929
X0000325473Y0000186929
X0000328622Y0000186929
X0000322323Y0000190079
X0000328622Y0000190079
X0000325473Y0000190079
X0000322323Y0000202677
X0000322323Y0000205827
X0000322323Y0000208976
X0000322323Y0000212126
X0000322323Y0000215275
X0000322323Y0000221575
X0000322323Y0000231024
X0000322323Y0000234173
X0000322323Y0000237323
X0000328622Y0000246771
X0000328622Y0000249921
X0000325473Y0000249921
X0000322323Y0000249921
X0000325473Y0000253071
X0000328622Y0000253071
X0000322323Y0000253071
X0000322323Y0000256221
X0000325473Y0000256221
X0000328622Y0000256221
X0000325473Y0000259370
X0000322323Y0000259370
X0000328622Y0000259370
X0000328622Y0000262520
X0000325473Y0000262520
X0000322323Y0000262520
X0000334921Y0000262520
X0000331772Y0000262520
X0000338071Y0000262520
X0000331772Y0000259370
X0000338071Y0000259370
X0000334921Y0000259370
X0000334921Y0000256221
X0000331772Y0000256221
X0000334921Y0000253071
X0000331772Y0000253071
X0000331771Y0000249921
X0000338071Y0000249921
X0000338071Y0000246772
X0000331771Y0000246772
X0000331771Y0000243622
X0000338071Y0000243622
X0000334921Y0000240473
X0000338071Y0000240473
X0000334921Y0000237323
X0000338071Y0000237323
X0000338071Y0000234173
X0000334921Y0000234173
X0000331771Y0000231024
X0000338071Y0000231024
X0000334921Y0000231024
X0000331771Y0000227874
X0000334921Y0000227874
X0000338071Y0000227874
X0000338071Y0000224725
X0000334921Y0000224725
X0000338071Y0000221575
X0000334921Y0000221575
X0000338071Y0000215275
X0000331771Y0000215275
X0000334921Y0000215275
X0000338071Y0000212126
X0000334921Y0000212126
X0000338071Y0000208976
X0000334921Y0000208976
X0000338071Y0000205827
X0000334921Y0000205827
X0000338071Y0000202677
X0000334921Y0000202677
X0000338071Y0000199527
X0000334921Y0000199527
X0000331771Y0000196378
X0000331772Y0000193228
X0000334921Y0000193228
X0000338071Y0000193228
X0000334921Y0000190079
X0000331772Y0000190079
X0000331772Y0000186929
X0000338071Y0000186929
X0000334921Y0000186929
X0000338071Y0000183779
X0000331772Y0000183779
X0000334921Y0000180630
X0000331772Y0000180630
X0000331772Y0000177480
X0000347520Y0000177480
X0000344370Y0000177480
X0000347520Y0000180630
X0000344370Y0000180630
X0000341221Y0000183779
X0000344370Y0000183779
X0000341221Y0000186929
X0000344370Y0000186929
X0000349000Y0000188600
X0000341221Y0000190079
X0000344370Y0000193228
X0000341221Y0000193228
X0000347520Y0000193228
X0000341221Y0000196378
X0000347520Y0000196378
X0000344370Y0000196378
X0000341221Y0000199527
X0000344370Y0000199527
X0000341221Y0000202677
X0000341221Y0000205827
X0000344370Y0000208976
X0000347520Y0000208976
X0000341221Y0000208976
X0000347520Y0000212126
X0000344370Y0000212126
X0000341221Y0000212126
X0000341221Y0000215275
X0000347520Y0000221575
X0000344370Y0000221575
X0000341221Y0000221575
X0000347520Y0000224725
X0000344370Y0000224725
X0000341221Y0000224725
X0000341221Y0000227874
X0000344370Y0000227874
X0000347520Y0000227874
X0000344370Y0000231024
X0000347520Y0000231024
X0000341221Y0000231024
X0000341221Y0000234173
X0000344370Y0000234173
X0000347520Y0000234173
X0000341221Y0000237323
X0000341221Y0000240473
X0000344370Y0000240473
X0000341221Y0000243622
X0000344370Y0000243622
X0000341221Y0000246772
X0000344370Y0000246772
X0000344370Y0000249921
X0000347520Y0000249921
X0000341221Y0000249921
X0000347520Y0000253071
X0000341221Y0000253071
X0000344370Y0000253071
X0000344370Y0000256221
X0000347520Y0000256221
X0000341221Y0000256221
X0000341221Y0000259370
X0000347520Y0000262520
X0000344370Y0000262520
X0000352500Y0000262500
X0000356500Y0000255000
X0000356500Y0000250000
X0000352050Y0000242746
X0000351500Y0000240000
X0000358885Y0000217214
X0000351000Y0000212126
X0000350500Y0000203500
X0000355500Y0000203500
X0000350600Y0000195000
X0000354000Y0000195000
X0000351325Y0000185729
X0000355500Y0000184000
X0000360000Y0000240000
X0000421379Y0000279173
X0000424527Y0000279173
X0000427677Y0000279173
X0000421379Y0000276024
X0000427677Y0000276024
X0000424527Y0000276024
X0000427677Y0000272874
X0000424527Y0000272874
X0000421378Y0000269725
X0000424527Y0000257127
X0000427677Y0000257127
X0000421379Y0000257127
X0000427677Y0000253977
X0000424527Y0000253977
X0000421379Y0000250827
X0000424527Y0000250827
X0000427677Y0000250827
X0000426000Y0000248500
X0000425000Y0000220000
X0000421379Y0000214173
X0000427677Y0000214173
X0000427677Y0000211024
X0000421379Y0000211024
X0000424527Y0000211024
X0000427677Y0000207874
X0000424527Y0000207874
X0000421378Y0000204724
X0000427677Y0000192126
X0000424527Y0000192126
X0000421379Y0000192126
X0000424527Y0000188976
X0000427677Y0000188976
X0000424527Y0000185827
X0000427677Y0000185827
X0000421379Y0000185827
X0000435000Y0000180000
X0000438000Y0000183500
X0000430827Y0000185827
X0000433976Y0000185827
X0000433976Y0000192126
X0000430827Y0000192126
X0000433976Y0000204724
X0000430827Y0000207874
X0000437126Y0000207874
X0000437126Y0000211024
X0000430827Y0000211024
X0000433976Y0000211024
X0000433976Y0000214173
X0000437126Y0000214173
X0000430827Y0000214173
X0000438463Y0000248962
X0000433976Y0000250827
X0000430827Y0000250827
X0000433976Y0000257127
X0000430827Y0000257127
X0000433976Y0000269724
X0000437126Y0000272874
X0000430827Y0000272874
X0000433976Y0000276024
X0000430827Y0000276024
X0000437126Y0000276024
X0000433976Y0000279173
X0000430827Y0000279173
X0000437126Y0000279173
X0000443425Y0000279173
X0000440275Y0000279173
X0000446575Y0000279173
X0000443425Y0000276024
X0000446575Y0000276024
X0000440275Y0000276024
X0000449725Y0000276024
X0000440275Y0000272874
X0000446575Y0000272874
X0000443425Y0000272874
X0000449724Y0000263425
X0000440275Y0000257127
X0000446575Y0000257127
X0000443425Y0000257127
X0000446575Y0000253977
X0000443425Y0000253977
X0000440275Y0000253977
X0000446575Y0000250828
X0000440275Y0000250827
X0000443425Y0000250828
X0000449724Y0000230925
X0000443425Y0000214173
X0000446575Y0000214173
X0000440275Y0000214173
X0000446575Y0000211024
X0000443425Y0000211024
X0000449724Y0000211024
X0000440275Y0000211024
X0000443425Y0000207874
X0000446575Y0000207874
X0000440275Y0000207874
X0000449724Y0000198425
X0000443425Y0000192126
X0000440275Y0000192126
X0000446575Y0000192126
X0000440275Y0000188976
X0000446575Y0000188976
X0000443425Y0000188976
X0000446575Y0000185827
X0000443425Y0000185827
X0000440275Y0000185827
X0000452873Y0000198425
X0000456023Y0000198425
X0000459172Y0000198425
X0000452873Y0000201575
X0000456023Y0000201575
X0000459172Y0000201575
X0000459173Y0000214173
X0000459172Y0000230925
X0000452873Y0000230925
X0000456023Y0000230925
X0000452873Y0000234075
X0000456023Y0000234075
X0000459172Y0000234075
X0000459172Y0000263425
X0000452873Y0000263425
X0000456023Y0000263425
X0000456023Y0000266575
X0000452873Y0000266575
X0000459172Y0000266575
X0000459173Y0000279173
X0000465473Y0000279173
X0000462322Y0000266575
X0000465471Y0000266575
X0000468621Y0000266575
X0000465471Y0000263425
X0000468621Y0000263425
X0000462322Y0000263425
X0000468622Y0000250827
X0000462323Y0000250827
X0000465471Y0000234075
X0000462322Y0000234075
X0000468621Y0000234075
X0000462322Y0000230925
X0000465471Y0000230925
X0000468621Y0000230925
X0000465473Y0000214173
X0000468621Y0000201575
X0000462322Y0000201575
X0000465471Y0000201575
X0000465471Y0000198425
X0000468621Y0000198425
X0000462322Y0000198425
X0000468622Y0000185827
X0000462323Y0000185827
X0000478069Y0000198425
X0000474920Y0000198425
X0000471771Y0000198425
X0000471771Y0000201575
X0000474920Y0000201575
X0000478069Y0000201575
X0000478069Y0000230925
X0000471771Y0000230925
X0000474920Y0000230925
X0000478069Y0000234075
X0000474920Y0000234075
X0000471771Y0000234075
X0000478069Y0000263425
X0000471771Y0000263425
X0000474920Y0000263425
X0000471771Y0000266575
X0000478069Y0000266575
X0000474920Y0000266575
X0000481218Y0000266575
X0000484367Y0000266575
X0000481218Y0000263425
X0000484367Y0000263425
X0000484367Y0000234075
X0000481218Y0000234075
X0000481218Y0000230925
X0000484367Y0000230925
X0000484367Y0000201575
X0000481218Y0000201575
X0000484367Y0000198425
X0000481218Y0000198425
T02
X0000070000Y0000010000
X0000085000Y0000010000
X0000100000Y0000010000
X0000115000Y0000010000
X0000130000Y0000010000
X0000165000Y0000015000
X0000170000Y0000015000
X0000195000Y0000015000
X0000200000Y0000015000
X0000210000Y0000015000
X0000225000Y0000015000
X0000240000Y0000015000
X0000310000Y0000010000
X0000330000Y0000010000
X0000350000Y0000015000
X0000355000Y0000010000
X0000355000Y0000015000
X0000360000Y0000015000
X0000365000Y0000015000
X0000370000Y0000015000
X0000375000Y0000015000
X0000380000Y0000010000
X0000380000Y0000015000
X0000385000Y0000015000
X0000390000Y0000015000
X0000405000Y0000010000
X0000430000Y0000010000
X0000455000Y0000010000
X0000480000Y0000035000
X0000470000Y0000020000
X0000465000Y0000020000
X0000455000Y0000035000
X0000455000Y0000025000
X0000455000Y0000030000
X0000440000Y0000030000
X0000440000Y0000035000
X0000435000Y0000030000
X0000435000Y0000035000
X0000420000Y0000035000
X0000420000Y0000025000
X0000420000Y0000030000
X0000410000Y0000037500
X0000410000Y0000025000
X0000400000Y0000025000
X0000320000Y0000025000
X0000290000Y0000020000
X0000285000Y0000020000
X0000280000Y0000030000
X0000280000Y0000020000
X0000280000Y0000025000
X0000275000Y0000025000
X0000275000Y0000030000
X0000275000Y0000020000
X0000250000Y0000025000
X0000250000Y0000030000
X0000250000Y0000020000
X0000245000Y0000020000
X0000245000Y0000035000
X0000245000Y0000025000
X0000245000Y0000030000
X0000210000Y0000030000
X0000210000Y0000025000
X0000210000Y0000035000
X0000195000Y0000025000
X0000195000Y0000020000
X0000190000Y0000030000
X0000190000Y0000020000
X0000190000Y0000025000
X0000185000Y0000025000
X0000185000Y0000030000
X0000185000Y0000020000
X0000180000Y0000032500
X0000175000Y0000032500
X0000175000Y0000020000
X0000170000Y0000025000
X0000170000Y0000020000
X0000165000Y0000020000
X0000165000Y0000025000
X0000160000Y0000030000
X0000150000Y0000030000
X0000145000Y0000025000
X0000130000Y0000025000
X0000115000Y0000025000
X0000100000Y0000025000
X0000100000Y0000035000
X0000085000Y0000025000
X0000082500Y0000035000
X0000070000Y0000025000
X0000060000Y0000035000
X0000060000Y0000030000
X0000055000Y0000035000
X0000055000Y0000025000
X0000012500Y0000055000
X0000020000Y0000055000
X0000022500Y0000045000
X0000030000Y0000055000
X0000035000Y0000045000
X0000040000Y0000050000
X0000045000Y0000040000
X0000050000Y0000040000
X0000055000Y0000040000
X0000060000Y0000040000
X0000065000Y0000040000
X0000075000Y0000045000
X0000082500Y0000045000
X0000082500Y0000055000
X0000090000Y0000045000
X0000100000Y0000050000
X0000110000Y0000040000
X0000115000Y0000045000
X0000115000Y0000050000
X0000120000Y0000050000
X0000125000Y0000050000
X0000130000Y0000050000
X0000135000Y0000050000
X0000140000Y0000050000
X0000145000Y0000045000
X0000150000Y0000050000
X0000150000Y0000040000
X0000160000Y0000050000
X0000160000Y0000040000
X0000175000Y0000055000
X0000175000Y0000040000
X0000175000Y0000050000
X0000175000Y0000045000
X0000180000Y0000050000
X0000180000Y0000055000
X0000180000Y0000040000
X0000180000Y0000045000
X0000190000Y0000055000
X0000195000Y0000055000
X0000200000Y0000055000
X0000210000Y0000040000
X0000210000Y0000055000
X0000220000Y0000045000
X0000220000Y0000055000
X0000220000Y0000050000
X0000240000Y0000050000
X0000245000Y0000040000
X0000260000Y0000045000
X0000280000Y0000052500
X0000297500Y0000055000
X0000315000Y0000055000
X0000320000Y0000040000
X0000330000Y0000055000
X0000390000Y0000045000
X0000400000Y0000050000
X0000410000Y0000042500
X0000417500Y0000045000
X0000425000Y0000045000
X0000430000Y0000045000
X0000435000Y0000040000
X0000435000Y0000045000
X0000440000Y0000040000
X0000440000Y0000045000
X0000442500Y0000055000
X0000445000Y0000045000
X0000450000Y0000055000
X0000450000Y0000045000
X0000455000Y0000040000
X0000455000Y0000045000
X0000460000Y0000045000
X0000475000Y0000055000
X0000480000Y0000040000
X0000485000Y0000042500
X0000490000Y0000050000
X0000490000Y0000055000
X0000500000Y0000055000
X0000500000Y0000067500
X0000490000Y0000060000
X0000490000Y0000075000
X0000490000Y0000070000
X0000490000Y0000065000
X0000485000Y0000070000
X0000480000Y0000070000
X0000475000Y0000070000
X0000470000Y0000070000
X0000470000Y0000075000
X0000455000Y0000075000
X0000450000Y0000062500
X0000442500Y0000062500
X0000435000Y0000075000
X0000430000Y0000075000
X0000425000Y0000075000
X0000420000Y0000060000
X0000415000Y0000070000
X0000412500Y0000065000
X0000402500Y0000067500
X0000397500Y0000060000
X0000395000Y0000075000
X0000390000Y0000070000
X0000390000Y0000065000
X0000342500Y0000065000
X0000320000Y0000070000
X0000295000Y0000067500
X0000282500Y0000075000
X0000280000Y0000065000
X0000275000Y0000075000
X0000275000Y0000065000
X0000245000Y0000065000
X0000245000Y0000060000
X0000245000Y0000070000
X0000245000Y0000075000
X0000235000Y0000062500
X0000235000Y0000077500
X0000220000Y0000075000
X0000220000Y0000070000
X0000220000Y0000065000
X0000220000Y0000060000
X0000210000Y0000065000
X0000205000Y0000075000
X0000205000Y0000060000
X0000200000Y0000065000
X0000195000Y0000060000
X0000195000Y0000075000
X0000190000Y0000065000
X0000180000Y0000065000
X0000175000Y0000060000
X0000170000Y0000060000
X0000170000Y0000065000
X0000165000Y0000072500
X0000162500Y0000065000
X0000162500Y0000060000
X0000160000Y0000075000
X0000160000Y0000070000
X0000155000Y0000070000
X0000155000Y0000075000
X0000150000Y0000075000
X0000150000Y0000060000
X0000150000Y0000065000
X0000140000Y0000065000
X0000140000Y0000070000
X0000140000Y0000075000
X0000135000Y0000075000
X0000135000Y0000065000
X0000130000Y0000065000
X0000130000Y0000075000
X0000125000Y0000065000
X0000125000Y0000075000
X0000120000Y0000065000
X0000120000Y0000075000
X0000115000Y0000075000
X0000115000Y0000065000
X0000100000Y0000070000
X0000095000Y0000070000
X0000090000Y0000075000
X0000090000Y0000065000
X0000087500Y0000070000
X0000080000Y0000070000
X0000075000Y0000070000
X0000070000Y0000070000
X0000062500Y0000072500
X0000060000Y0000075000
X0000057500Y0000065000
X0000055000Y0000075000
X0000047500Y0000067500
X0000045000Y0000075000
X0000040000Y0000070000
X0000040000Y0000062500
X0000030000Y0000062500
X0000030000Y0000070000
X0000020000Y0000070000
X0000020000Y0000062500
X0000012500Y0000070000
X0000012500Y0000062500
X0000012500Y0000080000
X0000020000Y0000080000
X0000027500Y0000095000
X0000030000Y0000087500
X0000030000Y0000080000
X0000040000Y0000080000
X0000040000Y0000092500
X0000040000Y0000097500
X0000045000Y0000095000
X0000045000Y0000080000
X0000045000Y0000090000
X0000045000Y0000085000
X0000055000Y0000085000
X0000055000Y0000095000
X0000055000Y0000080000
X0000055000Y0000090000
X0000060000Y0000085000
X0000060000Y0000095000
X0000070000Y0000090000
X0000070000Y0000080000
X0000075000Y0000085000
X0000080000Y0000080000
X0000080000Y0000090000
X0000090000Y0000080000
X0000090000Y0000095000
X0000090000Y0000090000
X0000105000Y0000085000
X0000105000Y0000090000
X0000105000Y0000095000
X0000115000Y0000090000
X0000120000Y0000090000
X0000120000Y0000095000
X0000125000Y0000090000
X0000130000Y0000090000
X0000135000Y0000090000
X0000140000Y0000090000
X0000167500Y0000087500
X0000170000Y0000080000
X0000172500Y0000087500
X0000175000Y0000097500
X0000180000Y0000090000
X0000184500Y0000090000
X0000190000Y0000090000
X0000191000Y0000085000
X0000194500Y0000085000
X0000195000Y0000090000
X0000195000Y0000080000
X0000200000Y0000085000
X0000200000Y0000090000
X0000205000Y0000090000
X0000220000Y0000095000
X0000220000Y0000080000
X0000220000Y0000085000
X0000220000Y0000090000
X0000235000Y0000092500
X0000240000Y0000080000
X0000240000Y0000092500
X0000245000Y0000085000
X0000245000Y0000095000
X0000245000Y0000080000
X0000247500Y0000092500
X0000260000Y0000095000
X0000266500Y0000086500
X0000275000Y0000080000
X0000275000Y0000090000
X0000302500Y0000087500
X0000325000Y0000087500
X0000340000Y0000087500
X0000390000Y0000095000
X0000390000Y0000090000
X0000395000Y0000085000
X0000395000Y0000080000
X0000395000Y0000090000
X0000395000Y0000095000
X0000425000Y0000090000
X0000425000Y0000080000
X0000425000Y0000095000
X0000425000Y0000085000
X0000430000Y0000085000
X0000430000Y0000080000
X0000435000Y0000080000
X0000435000Y0000085000
X0000447500Y0000080000
X0000460000Y0000080000
X0000470000Y0000080000
X0000470000Y0000090000
X0000470000Y0000095000
X0000490000Y0000095000
X0000490000Y0000090000
X0000490000Y0000080000
X0000500000Y0000085000
X0000500000Y0000110000
X0000490000Y0000100000
X0000490000Y0000110000
X0000485000Y0000100000
X0000480000Y0000100000
X0000475000Y0000100000
X0000475000Y0000110000
X0000470000Y0000100000
X0000447500Y0000110000
X0000435000Y0000105000
X0000430000Y0000105000
X0000425000Y0000100000
X0000425000Y0000105000
X0000405000Y0000110000
X0000395000Y0000105000
X0000395000Y0000100000
X0000390000Y0000115000
X0000350000Y0000115000
X0000345000Y0000110000
X0000345000Y0000100000
X0000345000Y0000105000
X0000345000Y0000115000
X0000340000Y0000110000
X0000329500Y0000118500
X0000319000Y0000115000
X0000302500Y0000115000
X0000280000Y0000115000
X0000255000Y0000105000
X0000255000Y0000110000
X0000245000Y0000105000
X0000237500Y0000102500
X0000220000Y0000100000
X0000220000Y0000110000
X0000220000Y0000115000
X0000215000Y0000115000
X0000210000Y0000105000
X0000210000Y0000110000
X0000210000Y0000100000
X0000210000Y0000115000
X0000197500Y0000102500
X0000197500Y0000107500
X0000197500Y0000112500
X0000192500Y0000102500
X0000192500Y0000112500
X0000192500Y0000107500
X0000187500Y0000107500
X0000187500Y0000112500
X0000187500Y0000102500
X0000175000Y0000110000
X0000175000Y0000115000
X0000174500Y0000105000
X0000162500Y0000114500
X0000161000Y0000105000
X0000159500Y0000110000
X0000156000Y0000110000
X0000154000Y0000105000
X0000151500Y0000111000
X0000150500Y0000105000
X0000145000Y0000100000
X0000145000Y0000105000
X0000142500Y0000112500
X0000140000Y0000100000
X0000135000Y0000100000
X0000130000Y0000100000
X0000120000Y0000105000
X0000115000Y0000115000
X0000112500Y0000100000
X0000105000Y0000100000
X0000105000Y0000115000
X0000102500Y0000107500
X0000092500Y0000110000
X0000090000Y0000100000
X0000082500Y0000110000
X0000075000Y0000100000
X0000070000Y0000100000
X0000065000Y0000115000
X0000065000Y0000100000
X0000060000Y0000100000
X0000055000Y0000100000
X0000055000Y0000115000
X0000050000Y0000100000
X0000045000Y0000115000
X0000045000Y0000100000
X0000040000Y0000112500
X0000040000Y0000102500
X0000027500Y0000100000
X0000027500Y0000107500
X0000027500Y0000117500
X0000027500Y0000125000
X0000027500Y0000132500
X0000040000Y0000137500
X0000040000Y0000122500
X0000042500Y0000130000
X0000045000Y0000122500
X0000050000Y0000130000
X0000052500Y0000135000
X0000055000Y0000130000
X0000060000Y0000120000
X0000060000Y0000137500
X0000060000Y0000127500
X0000062500Y0000132500
X0000070000Y0000132500
X0000075000Y0000125000
X0000075000Y0000135000
X0000079500Y0000130500
X0000081000Y0000139000
X0000083500Y0000130000
X0000087000Y0000130000
X0000090300Y0000133500
X0000090300Y0000130000
X0000095000Y0000120000
X0000095000Y0000125000
X0000105000Y0000130000
X0000115000Y0000130000
X0000117500Y0000135000
X0000122500Y0000122500
X0000123000Y0000130500
X0000132500Y0000132500
X0000140000Y0000132500
X0000147500Y0000132500
X0000150000Y0000120000
X0000150000Y0000125000
X0000152500Y0000130000
X0000157500Y0000132500
X0000167500Y0000135000
X0000170000Y0000125000
X0000184000Y0000125000
X0000190000Y0000125000
X0000195000Y0000125000
X0000200500Y0000125000
X0000205000Y0000125000
X0000210000Y0000125000
X0000219500Y0000138500
X0000225000Y0000135000
X0000225000Y0000130000
X0000235000Y0000125000
X0000245000Y0000120000
X0000245000Y0000135000
X0000255000Y0000120000
X0000260000Y0000130000
X0000260000Y0000125000
X0000260000Y0000135000
X0000260000Y0000120000
X0000270000Y0000135000
X0000270000Y0000125000
X0000270000Y0000130000
X0000295000Y0000130000
X0000295000Y0000135000
X0000295000Y0000125000
X0000329000Y0000130000
X0000329500Y0000124500
X0000334000Y0000120500
X0000340000Y0000120000
X0000345000Y0000120000
X0000350000Y0000120000
X0000355000Y0000120000
X0000360000Y0000120000
X0000371000Y0000135000
X0000371000Y0000125000
X0000371000Y0000130000
X0000380000Y0000135000
X0000392500Y0000122500
X0000395000Y0000130000
X0000395000Y0000135000
X0000405000Y0000122500
X0000410000Y0000125000
X0000420000Y0000120000
X0000425000Y0000135000
X0000425000Y0000130000
X0000430000Y0000135000
X0000430000Y0000130000
X0000435000Y0000130000
X0000435000Y0000135000
X0000445000Y0000127500
X0000460000Y0000127500
X0000470000Y0000135000
X0000470000Y0000130000
X0000475000Y0000130000
X0000475000Y0000122500
X0000480000Y0000130000
X0000485000Y0000130000
X0000490000Y0000122500
X0000490000Y0000130000
X0000490000Y0000135000
X0000500000Y0000135000
X0000492400Y0000140000
X0000490000Y0000155000
X0000490000Y0000150000
X0000470000Y0000140000
X0000470000Y0000155000
X0000470000Y0000150000
X0000460000Y0000140000
X0000445000Y0000140000
X0000435000Y0000140000
X0000430000Y0000140000
X0000425000Y0000155000
X0000425000Y0000145000
X0000425000Y0000150000
X0000425000Y0000140000
X0000395000Y0000155000
X0000395000Y0000140000
X0000395000Y0000150000
X0000395000Y0000145000
X0000385000Y0000140000
X0000380000Y0000140000
X0000371000Y0000140000
X0000370000Y0000145000
X0000365000Y0000145000
X0000360000Y0000145000
X0000355000Y0000145000
X0000350000Y0000145000
X0000345000Y0000145000
X0000341500Y0000145000
X0000338000Y0000145000
X0000334000Y0000145500
X0000334000Y0000151500
X0000332500Y0000148500
X0000330000Y0000140500
X0000329500Y0000148500
X0000328000Y0000145500
X0000328000Y0000151500
X0000326500Y0000148500
X0000323500Y0000148500
X0000322000Y0000151500
X0000322000Y0000145500
X0000320500Y0000148500
X0000317500Y0000148500
X0000316000Y0000145500
X0000316000Y0000151500
X0000314500Y0000148500
X0000311500Y0000148500
X0000310000Y0000145500
X0000310000Y0000151500
X0000308500Y0000148500
X0000305500Y0000148500
X0000304000Y0000151500
X0000304000Y0000145500
X0000302500Y0000148500
X0000299500Y0000148500
X0000298000Y0000145500
X0000298000Y0000151500
X0000295000Y0000150000
X0000295000Y0000140000
X0000291500Y0000145000
X0000288000Y0000145000
X0000281500Y0000145000
X0000278000Y0000145000
X0000270000Y0000150000
X0000270000Y0000140000
X0000265000Y0000150000
X0000260000Y0000140000
X0000255000Y0000140000
X0000255000Y0000150000
X0000250000Y0000140000
X0000250000Y0000150000
X0000240000Y0000140000
X0000240000Y0000150000
X0000220500Y0000155000
X0000212500Y0000147000
X0000210000Y0000140000
X0000205000Y0000140000
X0000204500Y0000154500
X0000199000Y0000140000
X0000195500Y0000140000
X0000192000Y0000140500
X0000180000Y0000140000
X0000175000Y0000140000
X0000172500Y0000145000
X0000166500Y0000149500
X0000165000Y0000152500
X0000160000Y0000150000
X0000155000Y0000150000
X0000150000Y0000145000
X0000150000Y0000155000
X0000145000Y0000150000
X0000140000Y0000150000
X0000135000Y0000150000
X0000130000Y0000150000
X0000122500Y0000142500
X0000120000Y0000150000
X0000115000Y0000150000
X0000100000Y0000155000
X0000090000Y0000140000
X0000080000Y0000155000
X0000070000Y0000150000
X0000045000Y0000155000
X0000045000Y0000150000
X0000040000Y0000142500
X0000040000Y0000147500
X0000040000Y0000152500
X0000027500Y0000140000
X0000027500Y0000145000
X0000027500Y0000150000
X0000027500Y0000155000
X0000012500Y0000167500
X0000013800Y0000174800
X0000017500Y0000160000
X0000020000Y0000167500
X0000020000Y0000172500
X0000027500Y0000172500
X0000027500Y0000162500
X0000040000Y0000172500
X0000040000Y0000160000
X0000045000Y0000167500
X0000045000Y0000177500
X0000045000Y0000160000
X0000055000Y0000175000
X0000062500Y0000177500
X0000062500Y0000172500
X0000067500Y0000167500
X0000070000Y0000165000
X0000075000Y0000175000
X0000080000Y0000175000
X0000082500Y0000170000
X0000090000Y0000170000
X0000097500Y0000170000
X0000115000Y0000169600
X0000115000Y0000165500
X0000120000Y0000175000
X0000122500Y0000165000
X0000127500Y0000175000
X0000132500Y0000165000
X0000140000Y0000175000
X0000145000Y0000165000
X0000155000Y0000175000
X0000155000Y0000165000
X0000165000Y0000165000
X0000172500Y0000175000
X0000175000Y0000165000
X0000175000Y0000160000
X0000185000Y0000160000
X0000185000Y0000175000
X0000190000Y0000175000
X0000200000Y0000160000
X0000204500Y0000175000
X0000211500Y0000164000
X0000213000Y0000177500
X0000218500Y0000163000
X0000220000Y0000169500
X0000240000Y0000175000
X0000240000Y0000165000
X0000265000Y0000165000
X0000270000Y0000165000
X0000275000Y0000165000
X0000284573Y0000165000
X0000310000Y0000170000
X0000321000Y0000172900
X0000321000Y0000167500
X0000345000Y0000165000
X0000350000Y0000165000
X0000355000Y0000165000
X0000355000Y0000170000
X0000360000Y0000165000
X0000365000Y0000165000
X0000370000Y0000165000
X0000375000Y0000170000
X0000375000Y0000175000
X0000375000Y0000165000
X0000380000Y0000165000
X0000385000Y0000165000
X0000395000Y0000165000
X0000395000Y0000160000
X0000395000Y0000172500
X0000400000Y0000175000
X0000405000Y0000175000
X0000410000Y0000165000
X0000425000Y0000160000
X0000425000Y0000165000
X0000430000Y0000160000
X0000435000Y0000175000
X0000435000Y0000160000
X0000437500Y0000165000
X0000445000Y0000165000
X0000445000Y0000175000
X0000460000Y0000160000
X0000462500Y0000165000
X0000462500Y0000175000
X0000465000Y0000160000
X0000470000Y0000160000
X0000475000Y0000160000
X0000480000Y0000165000
X0000480000Y0000160000
X0000485000Y0000160000
X0000490000Y0000177500
X0000490000Y0000160000
X0000500000Y0000160000
X0000500000Y0000192500
X0000482500Y0000190000
X0000380000Y0000195000
X0000380000Y0000190000
X0000375000Y0000185000
X0000375000Y0000180000
X0000360000Y0000195000
X0000360000Y0000190000
X0000255000Y0000195000
X0000255000Y0000180000
X0000250000Y0000185000
X0000250000Y0000195000
X0000250000Y0000190000
X0000240000Y0000185000
X0000240000Y0000180000
X0000240000Y0000195000
X0000240000Y0000190000
X0000208500Y0000182000
X0000200000Y0000180000
X0000195000Y0000195000
X0000195000Y0000180000
X0000190000Y0000180000
X0000185000Y0000180000
X0000180000Y0000190000
X0000180000Y0000195000
X0000170000Y0000190000
X0000170000Y0000195000
X0000155000Y0000180000
X0000150000Y0000195000
X0000150000Y0000190000
X0000147500Y0000180000
X0000140000Y0000180000
X0000120000Y0000195000
X0000120000Y0000180000
X0000114785Y0000180000
X0000111000Y0000194500
X0000110000Y0000180000
X0000105000Y0000195000
X0000105000Y0000180000
X0000100000Y0000195000
X0000100000Y0000180000
X0000095000Y0000180000
X0000095000Y0000195000
X0000090000Y0000195000
X0000090000Y0000180000
X0000085000Y0000195000
X0000085000Y0000180000
X0000080000Y0000195000
X0000080000Y0000180000
X0000067500Y0000180000
X0000060000Y0000195000
X0000060000Y0000190000
X0000055000Y0000180000
X0000042500Y0000185000
X0000037700Y0000180200
X0000037500Y0000194800
X0000032500Y0000185000
X0000025000Y0000187500
X0000020000Y0000187500
X0000012500Y0000187500
X0000012500Y0000217500
X0000013800Y0000205200
X0000020000Y0000217500
X0000025000Y0000217500
X0000032500Y0000215000
X0000035000Y0000200500
X0000037700Y0000210200
X0000045000Y0000212500
X0000052500Y0000200000
X0000060000Y0000215000
X0000060000Y0000200000
X0000060000Y0000205000
X0000060000Y0000210000
X0000075000Y0000215000
X0000075000Y0000205000
X0000075000Y0000210000
X0000075000Y0000200000
X0000080000Y0000215000
X0000082500Y0000200000
X0000085000Y0000205000
X0000090000Y0000205000
X0000095000Y0000205000
X0000100000Y0000200000
X0000105000Y0000200000
X0000110000Y0000214000
X0000110000Y0000205000
X0000110000Y0000200000
X0000112500Y0000217500
X0000120000Y0000205000
X0000120000Y0000200000
X0000120000Y0000210000
X0000134000Y0000200000
X0000135000Y0000205000
X0000135000Y0000210000
X0000135000Y0000215000
X0000140000Y0000210000
X0000145000Y0000210000
X0000150000Y0000210000
X0000150000Y0000205000
X0000150000Y0000200000
X0000155000Y0000205000
X0000155000Y0000200000
X0000170000Y0000200000
X0000180000Y0000200000
X0000192500Y0000207500
X0000197500Y0000207500
X0000204500Y0000200000
X0000204500Y0000219000
X0000204500Y0000207500
X0000210000Y0000219500
X0000210000Y0000200000
X0000215000Y0000219000
X0000220000Y0000219000
X0000220000Y0000210000
X0000220000Y0000200000
X0000225000Y0000205000
X0000228500Y0000205000
X0000235000Y0000205000
X0000240000Y0000205000
X0000240000Y0000200000
X0000240000Y0000215000
X0000240000Y0000210000
X0000250000Y0000200000
X0000250000Y0000215000
X0000250000Y0000210000
X0000255000Y0000200000
X0000360000Y0000200000
X0000375000Y0000207000
X0000375000Y0000203500
X0000380000Y0000210000
X0000380000Y0000200000
X0000380000Y0000215000
X0000400000Y0000200000
X0000405000Y0000200000
X0000490000Y0000210000
X0000500000Y0000225000
X0000380000Y0000220000
X0000380000Y0000225000
X0000375000Y0000237000
X0000375000Y0000233500
X0000360000Y0000220000
X0000360000Y0000225000
X0000250000Y0000235000
X0000250000Y0000230000
X0000250000Y0000220000
X0000250000Y0000225000
X0000240000Y0000235000
X0000240000Y0000220000
X0000240000Y0000225000
X0000240000Y0000230000
X0000220000Y0000235000
X0000220000Y0000225000
X0000220000Y0000230000
X0000215000Y0000235500
X0000215000Y0000225000
X0000215000Y0000230000
X0000210000Y0000225000
X0000210000Y0000235500
X0000210000Y0000230000
X0000205000Y0000235500
X0000204500Y0000225000
X0000204500Y0000230000
X0000195000Y0000235000
X0000195000Y0000220000
X0000190000Y0000235000
X0000190000Y0000220000
X0000179500Y0000235000
X0000179500Y0000222000
X0000173500Y0000235000
X0000170000Y0000235100
X0000165000Y0000230000
X0000165000Y0000235000
X0000165000Y0000225000
X0000160000Y0000235000
X0000155000Y0000235000
X0000135000Y0000225000
X0000135000Y0000230000
X0000135000Y0000220000
X0000120000Y0000230000
X0000120000Y0000220000
X0000120000Y0000235000
X0000120000Y0000225000
X0000115000Y0000235000
X0000115000Y0000220000
X0000110000Y0000230000
X0000102500Y0000225000
X0000100000Y0000230000
X0000096000Y0000223000
X0000095000Y0000230000
X0000090000Y0000235000
X0000085000Y0000230000
X0000080000Y0000225000
X0000080000Y0000220000
X0000075000Y0000220000
X0000075000Y0000225000
X0000075000Y0000230000
X0000075000Y0000235000
X0000060000Y0000235000
X0000060000Y0000230000
X0000060000Y0000220000
X0000060000Y0000225000
X0000055000Y0000227500
X0000055000Y0000220000
X0000045000Y0000220000
X0000040000Y0000235000
X0000037500Y0000225000
X0000030000Y0000235000
X0000015000Y0000235000
X0000015000Y0000245000
X0000025000Y0000240000
X0000030000Y0000245000
X0000030000Y0000257500
X0000040000Y0000252500
X0000040000Y0000245000
X0000045000Y0000252500
X0000047500Y0000245000
X0000055000Y0000245000
X0000055000Y0000240000
X0000060000Y0000240000
X0000075000Y0000255000
X0000075000Y0000240000
X0000080000Y0000255000
X0000080000Y0000240000
X0000085000Y0000255000
X0000085000Y0000240000
X0000087500Y0000257500
X0000090000Y0000240000
X0000095000Y0000240000
X0000100094Y0000240094
X0000105000Y0000240000
X0000110079Y0000240079
X0000115000Y0000240000
X0000135000Y0000245000
X0000135000Y0000240000
X0000140000Y0000250000
X0000145000Y0000250000
X0000153500Y0000250000
X0000161500Y0000249500
X0000179500Y0000248000
X0000185000Y0000254500
X0000190000Y0000250500
X0000195000Y0000250000
X0000195000Y0000254500
X0000200000Y0000250000
X0000205000Y0000254500
X0000205000Y0000250000
X0000210000Y0000245500
X0000215000Y0000247500
X0000215000Y0000255000
X0000220000Y0000244500
X0000220000Y0000255000
X0000220000Y0000250000
X0000225000Y0000248500
X0000234000Y0000254500
X0000240000Y0000240000
X0000240000Y0000250000
X0000240000Y0000245000
X0000240000Y0000255000
X0000250000Y0000240000
X0000250000Y0000250000
X0000250000Y0000255000
X0000250000Y0000245000
X0000360000Y0000250000
X0000360000Y0000255000
X0000360000Y0000245000
X0000375000Y0000250000
X0000375000Y0000245000
X0000378500Y0000240000
X0000386500Y0000255500
X0000400000Y0000255000
X0000405000Y0000255000
X0000410000Y0000240000
X0000410000Y0000250000
X0000490000Y0000240000
X0000500000Y0000255000
X0000500000Y0000275000
X0000490000Y0000272500
X0000443500Y0000263500
X0000375000Y0000265000
X0000370000Y0000265000
X0000365000Y0000265000
X0000360000Y0000260000
X0000345000Y0000275000
X0000340000Y0000275000
X0000335000Y0000275000
X0000334000Y0000271000
X0000330000Y0000275000
X0000325000Y0000275000
X0000315000Y0000270000
X0000280000Y0000275000
X0000275000Y0000275000
X0000270000Y0000275000
X0000265000Y0000275000
X0000260000Y0000275000
X0000255000Y0000275000
X0000250000Y0000275000
X0000250000Y0000270000
X0000250000Y0000260000
X0000240000Y0000265000
X0000240000Y0000270000
X0000240000Y0000260000
X0000230000Y0000275000
X0000225000Y0000265000
X0000215000Y0000275000
X0000210000Y0000275000
X0000210000Y0000270000
X0000205000Y0000265000
X0000205000Y0000270000
X0000205000Y0000275000
X0000195000Y0000263500
X0000190000Y0000260500
X0000185000Y0000265000
X0000179000Y0000269000
X0000179000Y0000261000
X0000172000Y0000262000
X0000168500Y0000276500
X0000155000Y0000270000
X0000155000Y0000275000
X0000150000Y0000270000
X0000150000Y0000275000
X0000145000Y0000270000
X0000140000Y0000270000
X0000135000Y0000275000
X0000135000Y0000270000
X0000130000Y0000270000
X0000130000Y0000275000
X0000125000Y0000275000
X0000125000Y0000265000
X0000125000Y0000260000
X0000125000Y0000270000
X0000120000Y0000275000
X0000120000Y0000270000
X0000120000Y0000265000
X0000120000Y0000260000
X0000110000Y0000260000
X0000110000Y0000270000
X0000105000Y0000260000
X0000105000Y0000270000
X0000100000Y0000270000
X0000100000Y0000260000
X0000095000Y0000260000
X0000095000Y0000270000
X0000090000Y0000260000
X0000090000Y0000270000
X0000085000Y0000260000
X0000085000Y0000270000
X0000080000Y0000260000
X0000080000Y0000270000
X0000075000Y0000260000
X0000075000Y0000270000
X0000070500Y0000261500
X0000055000Y0000275000
X0000047500Y0000262500
X0000045000Y0000267500
X0000040000Y0000272500
X0000040000Y0000262500
X0000035000Y0000277500
X0000030000Y0000267500
X0000027500Y0000277500
X0000027500Y0000285000
X0000035000Y0000295000
X0000045000Y0000285000
X0000045000Y0000295000
X0000055000Y0000285000
X0000055000Y0000295000
X0000065000Y0000285000
X0000065000Y0000295000
X0000075000Y0000290000
X0000080000Y0000290000
X0000085000Y0000290000
X0000090000Y0000290000
X0000095000Y0000290000
X0000100000Y0000290000
X0000105000Y0000290000
X0000110000Y0000290000
X0000130000Y0000297500
X0000130000Y0000280000
X0000150000Y0000280000
X0000150000Y0000285000
X0000150000Y0000295000
X0000155000Y0000290000
X0000164500Y0000280500
X0000165000Y0000288500
X0000169500Y0000292000
X0000170500Y0000283500
X0000177500Y0000291000
X0000178000Y0000285000
X0000185000Y0000287500
X0000190000Y0000280000
X0000190000Y0000290000
X0000195000Y0000280000
X0000200000Y0000280000
X0000201000Y0000294500
X0000204000Y0000296000
X0000204000Y0000299000
X0000205000Y0000280000
X0000205000Y0000285000
X0000207000Y0000294500
X0000210000Y0000280000
X0000210000Y0000285000
X0000210000Y0000290000
X0000215000Y0000289000
X0000220000Y0000290000
X0000225000Y0000290000
X0000230000Y0000285000
X0000230000Y0000290000
X0000240000Y0000295000
X0000245000Y0000295000
X0000250000Y0000280000
X0000250000Y0000285000
X0000250000Y0000290000
X0000255000Y0000295000
X0000260000Y0000295000
X0000265000Y0000295000
X0000270500Y0000295000
X0000276000Y0000295000
X0000280000Y0000295000
X0000282500Y0000288500
X0000285000Y0000291500
X0000288000Y0000291500
X0000289500Y0000294500
X0000289500Y0000288500
X0000291000Y0000291500
X0000294000Y0000291500
X0000295500Y0000288500
X0000295500Y0000294500
X0000299500Y0000294500
X0000299500Y0000288500
X0000301000Y0000291500
X0000304000Y0000291500
X0000305500Y0000288500
X0000305500Y0000294500
X0000311000Y0000294500
X0000311000Y0000288500
X0000312500Y0000291500
X0000315500Y0000291500
X0000317000Y0000294500
X0000317000Y0000288500
X0000325000Y0000295000
X0000330000Y0000295000
X0000335000Y0000295000
X0000340000Y0000295000
X0000345085Y0000296451
X0000350000Y0000295000
X0000350000Y0000285000
X0000350000Y0000280000
X0000350000Y0000290000
X0000365000Y0000290000
X0000370000Y0000290000
X0000375000Y0000290000
X0000385000Y0000290000
X0000385500Y0000297500
X0000391500Y0000297500
X0000397500Y0000297500
X0000400000Y0000280000
X0000400500Y0000299000
X0000403500Y0000297500
X0000405000Y0000290000
X0000405000Y0000280000
X0000415000Y0000297500
X0000430000Y0000290000
X0000450000Y0000290000
X0000467500Y0000290000
X0000487500Y0000290000
X0000497500Y0000295000
X0000487500Y0000310000
X0000477500Y0000300000
X0000467500Y0000310000
X0000460000Y0000300000
X0000457500Y0000317500
X0000450000Y0000305000
X0000440000Y0000300000
X0000440000Y0000315000
X0000430000Y0000305000
X0000415000Y0000310000
X0000403500Y0000303500
X0000400500Y0000302000
X0000400000Y0000310000
X0000397500Y0000303500
X0000391500Y0000303500
X0000390000Y0000300500
X0000387000Y0000300500
X0000385500Y0000303500
X0000385000Y0000310000
X0000370000Y0000317500
X0000370000Y0000305000
X0000365000Y0000305000
X0000360000Y0000305000
X0000355000Y0000317500
X0000350000Y0000305000
X0000350000Y0000317500
X0000350000Y0000300000
X0000345000Y0000317500
X0000345000Y0000300000
X0000345000Y0000305000
X0000340000Y0000317500
X0000340000Y0000305000
X0000335000Y0000317500
X0000335000Y0000305000
X0000330000Y0000305000
X0000327500Y0000317500
X0000317500Y0000317500
X0000307500Y0000317500
X0000290000Y0000310000
X0000287500Y0000317500
X0000286500Y0000306500
X0000286500Y0000300500
X0000285000Y0000303500
X0000282000Y0000303500
X0000280500Y0000306500
X0000280500Y0000300500
X0000277500Y0000317500
X0000276500Y0000300500
X0000276500Y0000306500
X0000275000Y0000303500
X0000272000Y0000303500
X0000270500Y0000300500
X0000270500Y0000306500
X0000267500Y0000317500
X0000265500Y0000300500
X0000265500Y0000306500
X0000264000Y0000303500
X0000261000Y0000303500
X0000259500Y0000306500
X0000259500Y0000300500
X0000257500Y0000317500
X0000255000Y0000303500
X0000250000Y0000317500
X0000250000Y0000305000
X0000245000Y0000317500
X0000244000Y0000300500
X0000244000Y0000306500
X0000242500Y0000303500
X0000239500Y0000303500
X0000238000Y0000306500
X0000238000Y0000300500
X0000235000Y0000317500
X0000231500Y0000300500
X0000231500Y0000306500
X0000230000Y0000317500
X0000230000Y0000303500
X0000227000Y0000303500
X0000225500Y0000306500
X0000225500Y0000300500
X0000225000Y0000317500
X0000207000Y0000300500
X0000202500Y0000317500
X0000201000Y0000300500
X0000200000Y0000305000
X0000195000Y0000317500
X0000195000Y0000305000
X0000190000Y0000317500
X0000190000Y0000305000
X0000185000Y0000305000
X0000185000Y0000317500
X0000180300Y0000301700
X0000180000Y0000317500
X0000180000Y0000305000
X0000175000Y0000305000
X0000172500Y0000317500
X0000170000Y0000306500
X0000170000Y0000300500
X0000168500Y0000303500
X0000165500Y0000303500
X0000164000Y0000306500
X0000164000Y0000300500
X0000162500Y0000317500
X0000152500Y0000317500
X0000150000Y0000300500
X0000150000Y0000306500
X0000148500Y0000303500
X0000145500Y0000303500
X0000144000Y0000300500
X0000144000Y0000306500
X0000142500Y0000317500
X0000132500Y0000310000
X0000112500Y0000310000
X0000112500Y0000302500
X0000097500Y0000310000
X0000090000Y0000302500
X0000085000Y0000310000
X0000075000Y0000310000
X0000065000Y0000310000
X0000065000Y0000302500
X0000055000Y0000302500
X0000055000Y0000310000
X0000045000Y0000302500
X0000045000Y0000310000
X0000035000Y0000310000
X0000035000Y0000302500
X0000032500Y0000315000
X0000020000Y0000300000
X0000020000Y0000305000
X0000047500Y0000332500
X0000057500Y0000320000
X0000067500Y0000330000
X0000077500Y0000320000
X0000087500Y0000330000
X0000095000Y0000337500
X0000112500Y0000337500
X0000127500Y0000337500
X0000128000Y0000328500
X0000132500Y0000320000
X0000135000Y0000325000
X0000143000Y0000327300
X0000143000Y0000333300
X0000144500Y0000330300
X0000147500Y0000330300
X0000149000Y0000333300
X0000149000Y0000327300
X0000154000Y0000327300
X0000154000Y0000333300
X0000155500Y0000330300
X0000158500Y0000330300
X0000160000Y0000333300
X0000160000Y0000327300
X0000172000Y0000330000
X0000176000Y0000330000
X0000179500Y0000330000
X0000183500Y0000330000
X0000187500Y0000328100
X0000192500Y0000330000
X0000196500Y0000330000
X0000200500Y0000331500
X0000210000Y0000325000
X0000217500Y0000325000
X0000230400Y0000333400
X0000230400Y0000327400
X0000231900Y0000330400
X0000234900Y0000330400
X0000236400Y0000333400
X0000236400Y0000327400
X0000245000Y0000330000
X0000250000Y0000330000
X0000255000Y0000330000
X0000260400Y0000327300
X0000260400Y0000333300
X0000261900Y0000330300
X0000264900Y0000330300
X0000266400Y0000333300
X0000266400Y0000327300
X0000277500Y0000332500
X0000287500Y0000332500
X0000292500Y0000325000
X0000300000Y0000330000
X0000302500Y0000325000
X0000310100Y0000330000
X0000315000Y0000330000
X0000320000Y0000330000
X0000325000Y0000330000
X0000330000Y0000330000
X0000335000Y0000330000
X0000339500Y0000330000
X0000343500Y0000330000
X0000346100Y0000328100
X0000348655Y0000330155
X0000353000Y0000330000
X0000357500Y0000330000
X0000362500Y0000330000
X0000364100Y0000333000
X0000367500Y0000330000
X0000377500Y0000325000
X0000382500Y0000320000
X0000400000Y0000337500
X0000420000Y0000337500
X0000430000Y0000325000
X0000440000Y0000337500
X0000450000Y0000325000
X0000457500Y0000332500
X0000460000Y0000337500
X0000450000Y0000345000
X0000430000Y0000345000
X0000410000Y0000345000
X0000390000Y0000345000
X0000370000Y0000345000
X0000366500Y0000348000
X0000365000Y0000345000
X0000360000Y0000345000
X0000356000Y0000348500
X0000355000Y0000345000
X0000351000Y0000346500
X0000345000Y0000345000
X0000340000Y0000345000
X0000335000Y0000345000
X0000330000Y0000345000
X0000325000Y0000345000
X0000320000Y0000345000
X0000315000Y0000345000
X0000310000Y0000345000
X0000305000Y0000345000
X0000286500Y0000349500
X0000286500Y0000343500
X0000285000Y0000346500
X0000282000Y0000346500
X0000280500Y0000343500
X0000280500Y0000349500
X0000276500Y0000349500
X0000276500Y0000343500
X0000275000Y0000346500
X0000272000Y0000346500
X0000270500Y0000343500
X0000270500Y0000349500
X0000265000Y0000345000
X0000257500Y0000345000
X0000250000Y0000345000
X0000245000Y0000345000
X0000240000Y0000345000
X0000235000Y0000345000
X0000230000Y0000345000
X0000225000Y0000345000
X0000205000Y0000349500
X0000205000Y0000343500
X0000203500Y0000346500
X0000200500Y0000346500
X0000199000Y0000349500
X0000199000Y0000343500
X0000195000Y0000345000
X0000190000Y0000345000
X0000175000Y0000345000
X0000170000Y0000349500
X0000170000Y0000343500
X0000168500Y0000346500
X0000165500Y0000346500
X0000164000Y0000349500
X0000164000Y0000343500
X0000160000Y0000345000
X0000152500Y0000345000
X0000142500Y0000345000
X0000077500Y0000340000
X0000057500Y0000340000
T03
X0000095708Y0000330000
X0000095708Y0000320000
X0000103582Y0000330000
X0000103582Y0000320000
X0000111456Y0000320000
X0000111456Y0000330000
X0000119330Y0000320000
X0000119330Y0000330000
X0000392480Y0000330000
X0000392480Y0000320000
X0000400354Y0000320000
X0000400354Y0000330000
X0000408228Y0000320000
X0000408228Y0000330000
X0000416102Y0000320000
X0000416102Y0000330000
T04
X0000010000Y0000092500
X0000020000Y0000092500
X0000020000Y0000102500
X0000010000Y0000102500
X0000010000Y0000112500
X0000020000Y0000112500
X0000020000Y0000122500
X0000010000Y0000122500
X0000010000Y0000132500
X0000020000Y0000132500
X0000020000Y0000142500
X0000010000Y0000142500
X0000010000Y0000152500
X0000020000Y0000152500
X0000020000Y0000252500
X0000010000Y0000252500
X0000010000Y0000262500
X0000020000Y0000262500
X0000020000Y0000272500
X0000010000Y0000272500
X0000010000Y0000282500
X0000020000Y0000282500
X0000020000Y0000292500
X0000010000Y0000292500
T05
X0000168500Y0000107000
X0000168500Y0000097000
X0000207500Y0000080000
X0000245000Y0000145000
X0000257500Y0000145000
T06
X0000142500Y0000012500
X0000152343Y0000012500
X0000180000Y0000012500
X0000189843Y0000012500
T07
X0000300020Y0000027500
X0000287539Y0000027500
X0000287539Y0000039980
X0000312500Y0000102500
X0000300020Y0000102500
X0000287539Y0000102500
X0000324980Y0000102500
X0000337461Y0000102500
X0000337461Y0000077500
X0000337461Y0000039980
X0000337461Y0000027500
X0000433476Y0000056508
X0000433476Y0000093988
X0000433484Y0000113760
X0000433484Y0000151240
X0000461516Y0000151240
X0000447500Y0000151240
X0000461516Y0000113760
X0000447492Y0000093988
X0000461508Y0000093988
X0000461508Y0000056508
T08
X0000017500Y0000017500
X0000017500Y0000336831
X0000494311Y0000336831
X0000494311Y0000017500
T09
X0000135155Y0000332500
X0000376655Y0000332500
M30
